G04 #@! TF.FileFunction,Copper,L2,Bot,Signal*
%FSLAX46Y46*%
G04 Gerber Fmt 4.6, Leading zero omitted, Abs format (unit mm)*
G04 Created by KiCad (PCBNEW 4.0.4-stable) date 09/24/17 15:17:15*
%MOMM*%
%LPD*%
G01*
G04 APERTURE LIST*
%ADD10C,0.150000*%
%ADD11R,1.700000X1.700000*%
%ADD12O,1.700000X1.700000*%
%ADD13R,1.524000X1.524000*%
%ADD14C,1.524000*%
%ADD15C,0.508000*%
%ADD16C,0.152000*%
%ADD17C,0.457200*%
%ADD18C,0.229000*%
%ADD19C,0.254000*%
G04 APERTURE END LIST*
D10*
D11*
X311060000Y-117460000D03*
D12*
X311060000Y-120000000D03*
D13*
X291025520Y-117905240D03*
D14*
X291025520Y-115365240D03*
D11*
X311035640Y-129055840D03*
D12*
X311035640Y-131595840D03*
D11*
X311035640Y-123853920D03*
D12*
X311035640Y-126393920D03*
D13*
X267250000Y-117710000D03*
D14*
X267250000Y-120250000D03*
D11*
X305650000Y-114600000D03*
D13*
X278315360Y-125535400D03*
D14*
X275775360Y-125535400D03*
D11*
X306504280Y-131875240D03*
X308520000Y-114420000D03*
D12*
X311060000Y-114420000D03*
D15*
X273940000Y-125990000D03*
X273180000Y-129070000D03*
X275970000Y-119502500D03*
X269630000Y-116070000D03*
X280440000Y-119800000D03*
X285290000Y-119810000D03*
X293525000Y-125500000D03*
X298875000Y-131350000D03*
X298475000Y-120800000D03*
X291725000Y-128350000D03*
X274180240Y-129497800D03*
X274380000Y-121080000D03*
X289760000Y-129210000D03*
X286282500Y-123362500D03*
X285625000Y-131775000D03*
X280760000Y-132120000D03*
X273050000Y-125880000D03*
X279820000Y-121110000D03*
X269380000Y-121420000D03*
X281965000Y-116125000D03*
X300540000Y-121820000D03*
X289790000Y-132180000D03*
X283770000Y-123230000D03*
X281820560Y-119076180D03*
X288881760Y-120516360D03*
X287276480Y-125057880D03*
X282079640Y-123122400D03*
D16*
X275970000Y-119502500D02*
X280142500Y-119502500D01*
X280142500Y-119502500D02*
X280440000Y-119800000D01*
X269630000Y-116070000D02*
X272537500Y-116070000D01*
X272537500Y-116070000D02*
X275970000Y-119502500D01*
D17*
X267250000Y-120250000D02*
X268030000Y-120250000D01*
X269630000Y-118650000D02*
X269630000Y-116070000D01*
X268030000Y-120250000D02*
X269630000Y-118650000D01*
D16*
X285290000Y-119810000D02*
X286438040Y-119810000D01*
X292128040Y-125500000D02*
X293525000Y-125500000D01*
X286438040Y-119810000D02*
X292128040Y-125500000D01*
X280450000Y-119810000D02*
X285290000Y-119810000D01*
X280440000Y-119800000D02*
X280450000Y-119810000D01*
X293425000Y-128350000D02*
X294650000Y-127125000D01*
X293525000Y-125500000D02*
X293525000Y-126000000D01*
X293525000Y-126000000D02*
X294650000Y-127125000D01*
X294650000Y-127125000D02*
X298875000Y-131350000D01*
X291725000Y-128350000D02*
X293425000Y-128350000D01*
X275393540Y-128223540D02*
X275393540Y-128284500D01*
X275393540Y-128284500D02*
X274180240Y-129497800D01*
X279820000Y-121110000D02*
X274410000Y-121110000D01*
X274410000Y-121110000D02*
X274380000Y-121080000D01*
X279820000Y-121110000D02*
X284030000Y-121110000D01*
X284030000Y-121110000D02*
X286282500Y-123362500D01*
X273040000Y-121120000D02*
X274340000Y-121120000D01*
X274340000Y-121120000D02*
X274380000Y-121080000D01*
X279820000Y-131180000D02*
X278700000Y-131180000D01*
X279820000Y-131180000D02*
X280760000Y-132120000D01*
X278700000Y-131180000D02*
X278350000Y-131180000D01*
X278350000Y-131180000D02*
X275393540Y-128223540D01*
X275393540Y-128223540D02*
X273050000Y-125880000D01*
X289760000Y-129210000D02*
X289760000Y-126840000D01*
X289760000Y-126840000D02*
X286282500Y-123362500D01*
D18*
X285280000Y-132120000D02*
X280760000Y-132120000D01*
X285280000Y-132120000D02*
X285625000Y-131775000D01*
X273040000Y-121110000D02*
X273040000Y-121120000D01*
X273040000Y-121120000D02*
X273040000Y-125870000D01*
X273040000Y-125870000D02*
X273050000Y-125880000D01*
D16*
X269690000Y-121110000D02*
X273040000Y-121110000D01*
X269380000Y-121420000D02*
X269690000Y-121110000D01*
X292250000Y-121820000D02*
X300540000Y-121820000D01*
X288300000Y-117870000D02*
X292250000Y-121820000D01*
X283710000Y-117870000D02*
X288300000Y-117870000D01*
X283710000Y-117870000D02*
X281965000Y-116125000D01*
X289790000Y-132180000D02*
X283770000Y-126160000D01*
X283770000Y-126160000D02*
X283770000Y-123230000D01*
X281868820Y-119124440D02*
X287489840Y-119124440D01*
X281868820Y-119124440D02*
X281820560Y-119076180D01*
X287489840Y-119124440D02*
X288881760Y-120516360D01*
X287276480Y-125057880D02*
X284914280Y-122695680D01*
X284914280Y-122695680D02*
X282506360Y-122695680D01*
X282506360Y-122695680D02*
X282079640Y-123122400D01*
D19*
G36*
X304152560Y-113750000D02*
X304152560Y-115450000D01*
X304196838Y-115685317D01*
X304335910Y-115901441D01*
X304548110Y-116046431D01*
X304800000Y-116097440D01*
X306500000Y-116097440D01*
X306735317Y-116053162D01*
X306951441Y-115914090D01*
X307096431Y-115701890D01*
X307119626Y-115587351D01*
X307205910Y-115721441D01*
X307418110Y-115866431D01*
X307670000Y-115917440D01*
X309370000Y-115917440D01*
X309605317Y-115873162D01*
X309821441Y-115734090D01*
X309966431Y-115521890D01*
X309980086Y-115454459D01*
X310009946Y-115499147D01*
X310491715Y-115821054D01*
X311060000Y-115934093D01*
X311628285Y-115821054D01*
X311815000Y-115696295D01*
X311815000Y-115962560D01*
X310210000Y-115962560D01*
X309974683Y-116006838D01*
X309758559Y-116145910D01*
X309613569Y-116358110D01*
X309562560Y-116610000D01*
X309562560Y-118310000D01*
X309606838Y-118545317D01*
X309745910Y-118761441D01*
X309958110Y-118906431D01*
X310025541Y-118920086D01*
X309980853Y-118949946D01*
X309658946Y-119431715D01*
X309545907Y-120000000D01*
X309658946Y-120568285D01*
X309980853Y-121050054D01*
X310462622Y-121371961D01*
X311030907Y-121485000D01*
X311089093Y-121485000D01*
X311657378Y-121371961D01*
X311815000Y-121266642D01*
X311815000Y-122356480D01*
X310185640Y-122356480D01*
X309950323Y-122400758D01*
X309734199Y-122539830D01*
X309589209Y-122752030D01*
X309538200Y-123003920D01*
X309538200Y-124703920D01*
X309582478Y-124939237D01*
X309721550Y-125155361D01*
X309933750Y-125300351D01*
X310001181Y-125314006D01*
X309956493Y-125343866D01*
X309634586Y-125825635D01*
X309521547Y-126393920D01*
X309634586Y-126962205D01*
X309956493Y-127443974D01*
X310140465Y-127566900D01*
X309950323Y-127602678D01*
X309734199Y-127741750D01*
X309589209Y-127953950D01*
X309538200Y-128205840D01*
X309538200Y-129905840D01*
X309582478Y-130141157D01*
X309721550Y-130357281D01*
X309933750Y-130502271D01*
X310001181Y-130515926D01*
X309956493Y-130545786D01*
X309634586Y-131027555D01*
X309521547Y-131595840D01*
X309634586Y-132164125D01*
X309956493Y-132645894D01*
X310438262Y-132967801D01*
X311006547Y-133080840D01*
X311064733Y-133080840D01*
X311633018Y-132967801D01*
X311815000Y-132846205D01*
X311815000Y-133485000D01*
X272537000Y-133485000D01*
X272537000Y-126624439D01*
X272545764Y-126633218D01*
X272872391Y-126768846D01*
X272933393Y-126768899D01*
X274418514Y-128254020D01*
X274063836Y-128608698D01*
X274004183Y-128608646D01*
X273677320Y-128743703D01*
X273427022Y-128993564D01*
X273291394Y-129320191D01*
X273291086Y-129673857D01*
X273426143Y-130000720D01*
X273676004Y-130251018D01*
X274002631Y-130386646D01*
X274356297Y-130386954D01*
X274683160Y-130251897D01*
X274933458Y-130002036D01*
X275069086Y-129675409D01*
X275069139Y-129614407D01*
X275424020Y-129259526D01*
X277847247Y-131682753D01*
X278077912Y-131836878D01*
X278350000Y-131891000D01*
X279525494Y-131891000D01*
X279870898Y-132236404D01*
X279870846Y-132296057D01*
X280005903Y-132622920D01*
X280255764Y-132873218D01*
X280582391Y-133008846D01*
X280936057Y-133009154D01*
X281262920Y-132874097D01*
X281267525Y-132869500D01*
X285279995Y-132869500D01*
X285280000Y-132869501D01*
X285566822Y-132812448D01*
X285788776Y-132664143D01*
X285801057Y-132664154D01*
X286127920Y-132529097D01*
X286378218Y-132279236D01*
X286513846Y-131952609D01*
X286514154Y-131598943D01*
X286379097Y-131272080D01*
X286129236Y-131021782D01*
X285802609Y-130886154D01*
X285448943Y-130885846D01*
X285122080Y-131020903D01*
X284871782Y-131270764D01*
X284830368Y-131370500D01*
X281267948Y-131370500D01*
X281264236Y-131366782D01*
X280937609Y-131231154D01*
X280876607Y-131231101D01*
X280322753Y-130677247D01*
X280092088Y-130523122D01*
X279820000Y-130469000D01*
X278644506Y-130469000D01*
X273987567Y-125812061D01*
X274378118Y-125812061D01*
X274590350Y-126325703D01*
X274982990Y-126719029D01*
X275496260Y-126932157D01*
X276052021Y-126932642D01*
X276565663Y-126720410D01*
X276919123Y-126367567D01*
X276950198Y-126532717D01*
X277089270Y-126748841D01*
X277301470Y-126893831D01*
X277553360Y-126944840D01*
X279077360Y-126944840D01*
X279312677Y-126900562D01*
X279528801Y-126761490D01*
X279673791Y-126549290D01*
X279724800Y-126297400D01*
X279724800Y-124773400D01*
X279680522Y-124538083D01*
X279541450Y-124321959D01*
X279329250Y-124176969D01*
X279077360Y-124125960D01*
X277553360Y-124125960D01*
X277318043Y-124170238D01*
X277101919Y-124309310D01*
X276956929Y-124521510D01*
X276919868Y-124704524D01*
X276567730Y-124351771D01*
X276054460Y-124138643D01*
X275498699Y-124138158D01*
X274985057Y-124350390D01*
X274591731Y-124743030D01*
X274378603Y-125256300D01*
X274378118Y-125812061D01*
X273987567Y-125812061D01*
X273939102Y-125763596D01*
X273939154Y-125703943D01*
X273804097Y-125377080D01*
X273789500Y-125362457D01*
X273789500Y-121831000D01*
X273873550Y-121831000D01*
X273875764Y-121833218D01*
X274202391Y-121968846D01*
X274556057Y-121969154D01*
X274882920Y-121834097D01*
X274896040Y-121821000D01*
X279273620Y-121821000D01*
X279315764Y-121863218D01*
X279642391Y-121998846D01*
X279996057Y-121999154D01*
X280322920Y-121864097D01*
X280366092Y-121821000D01*
X283735494Y-121821000D01*
X283899174Y-121984680D01*
X282506360Y-121984680D01*
X282234272Y-122038802D01*
X282003607Y-122192927D01*
X281963236Y-122233298D01*
X281903583Y-122233246D01*
X281576720Y-122368303D01*
X281326422Y-122618164D01*
X281190794Y-122944791D01*
X281190486Y-123298457D01*
X281325543Y-123625320D01*
X281575404Y-123875618D01*
X281902031Y-124011246D01*
X282255697Y-124011554D01*
X282582560Y-123876497D01*
X282832858Y-123626636D01*
X282902595Y-123458693D01*
X283015903Y-123732920D01*
X283059000Y-123776092D01*
X283059000Y-126160000D01*
X283113122Y-126432088D01*
X283267247Y-126662753D01*
X288900898Y-132296404D01*
X288900846Y-132356057D01*
X289035903Y-132682920D01*
X289285764Y-132933218D01*
X289612391Y-133068846D01*
X289966057Y-133069154D01*
X290292920Y-132934097D01*
X290543218Y-132684236D01*
X290678846Y-132357609D01*
X290679154Y-132003943D01*
X290544097Y-131677080D01*
X290294236Y-131426782D01*
X289967609Y-131291154D01*
X289906607Y-131291101D01*
X289640746Y-131025240D01*
X305006840Y-131025240D01*
X305006840Y-132725240D01*
X305051118Y-132960557D01*
X305190190Y-133176681D01*
X305402390Y-133321671D01*
X305654280Y-133372680D01*
X307354280Y-133372680D01*
X307589597Y-133328402D01*
X307805721Y-133189330D01*
X307950711Y-132977130D01*
X308001720Y-132725240D01*
X308001720Y-131025240D01*
X307957442Y-130789923D01*
X307818370Y-130573799D01*
X307606170Y-130428809D01*
X307354280Y-130377800D01*
X305654280Y-130377800D01*
X305418963Y-130422078D01*
X305202839Y-130561150D01*
X305057849Y-130773350D01*
X305006840Y-131025240D01*
X289640746Y-131025240D01*
X284481000Y-125865494D01*
X284481000Y-123776380D01*
X284523218Y-123734236D01*
X284647655Y-123434561D01*
X286387378Y-125174284D01*
X286387326Y-125233937D01*
X286522383Y-125560800D01*
X286772244Y-125811098D01*
X287098871Y-125946726D01*
X287452537Y-125947034D01*
X287741946Y-125827452D01*
X289049000Y-127134506D01*
X289049000Y-128663620D01*
X289006782Y-128705764D01*
X288871154Y-129032391D01*
X288870846Y-129386057D01*
X289005903Y-129712920D01*
X289255764Y-129963218D01*
X289582391Y-130098846D01*
X289936057Y-130099154D01*
X290262920Y-129964097D01*
X290513218Y-129714236D01*
X290648846Y-129387609D01*
X290649154Y-129033943D01*
X290514097Y-128707080D01*
X290471000Y-128663908D01*
X290471000Y-126840000D01*
X290416878Y-126567912D01*
X290262753Y-126337247D01*
X287171602Y-123246096D01*
X287171654Y-123186443D01*
X287036597Y-122859580D01*
X286786736Y-122609282D01*
X286460109Y-122473654D01*
X286399107Y-122473601D01*
X284532753Y-120607247D01*
X284302088Y-120453122D01*
X284030000Y-120399000D01*
X280366380Y-120399000D01*
X280324236Y-120356782D01*
X279997609Y-120221154D01*
X279643943Y-120220846D01*
X279317080Y-120355903D01*
X279273908Y-120399000D01*
X274956328Y-120399000D01*
X274884236Y-120326782D01*
X274557609Y-120191154D01*
X274203943Y-120190846D01*
X273877080Y-120325903D01*
X273793838Y-120409000D01*
X273283827Y-120409000D01*
X273040000Y-120360500D01*
X272846447Y-120399000D01*
X269690000Y-120399000D01*
X269417912Y-120453122D01*
X269301462Y-120530931D01*
X269203943Y-120530846D01*
X268877080Y-120665903D01*
X268626782Y-120915764D01*
X268491154Y-121242391D01*
X268490846Y-121596057D01*
X268625903Y-121922920D01*
X268875764Y-122173218D01*
X269202391Y-122308846D01*
X269556057Y-122309154D01*
X269882920Y-122174097D01*
X270133218Y-121924236D01*
X270176086Y-121821000D01*
X272290500Y-121821000D01*
X272290500Y-123173000D01*
X266605000Y-123173000D01*
X266605000Y-121503130D01*
X267042302Y-121659144D01*
X267597368Y-121631362D01*
X267981143Y-121472397D01*
X268050608Y-121230213D01*
X267250000Y-120429605D01*
X267235858Y-120443748D01*
X267056253Y-120264143D01*
X267070395Y-120250000D01*
X267429605Y-120250000D01*
X268230213Y-121050608D01*
X268472397Y-120981143D01*
X268659144Y-120457698D01*
X268631362Y-119902632D01*
X268472397Y-119518857D01*
X268230213Y-119449392D01*
X267429605Y-120250000D01*
X267070395Y-120250000D01*
X267056253Y-120235858D01*
X267235858Y-120056253D01*
X267250000Y-120070395D01*
X268050608Y-119269787D01*
X268045575Y-119252237D01*
X280931406Y-119252237D01*
X281066463Y-119579100D01*
X281316324Y-119829398D01*
X281642951Y-119965026D01*
X281996617Y-119965334D01*
X282310985Y-119835440D01*
X287195334Y-119835440D01*
X287992658Y-120632764D01*
X287992606Y-120692417D01*
X288127663Y-121019280D01*
X288377524Y-121269578D01*
X288704151Y-121405206D01*
X289057817Y-121405514D01*
X289384680Y-121270457D01*
X289634978Y-121020596D01*
X289770606Y-120693969D01*
X289770909Y-120346415D01*
X291747247Y-122322753D01*
X291977912Y-122476878D01*
X292250000Y-122531000D01*
X299993620Y-122531000D01*
X300035764Y-122573218D01*
X300362391Y-122708846D01*
X300716057Y-122709154D01*
X301042920Y-122574097D01*
X301293218Y-122324236D01*
X301428846Y-121997609D01*
X301429154Y-121643943D01*
X301294097Y-121317080D01*
X301044236Y-121066782D01*
X300717609Y-120931154D01*
X300363943Y-120930846D01*
X300037080Y-121065903D01*
X299993908Y-121109000D01*
X292544506Y-121109000D01*
X290750186Y-119314680D01*
X291787520Y-119314680D01*
X292022837Y-119270402D01*
X292238961Y-119131330D01*
X292383951Y-118919130D01*
X292434960Y-118667240D01*
X292434960Y-117143240D01*
X292390682Y-116907923D01*
X292251610Y-116691799D01*
X292039410Y-116546809D01*
X291787520Y-116495800D01*
X291783004Y-116495800D01*
X291826128Y-116345453D01*
X291025520Y-115544845D01*
X290224912Y-116345453D01*
X290268036Y-116495800D01*
X290263520Y-116495800D01*
X290028203Y-116540078D01*
X289812079Y-116679150D01*
X289667089Y-116891350D01*
X289616080Y-117143240D01*
X289616080Y-118180574D01*
X288802753Y-117367247D01*
X288572088Y-117213122D01*
X288300000Y-117159000D01*
X284004506Y-117159000D01*
X282854102Y-116008596D01*
X282854154Y-115948943D01*
X282719097Y-115622080D01*
X282469236Y-115371782D01*
X282142609Y-115236154D01*
X281788943Y-115235846D01*
X281462080Y-115370903D01*
X281211782Y-115620764D01*
X281076154Y-115947391D01*
X281075846Y-116301057D01*
X281210903Y-116627920D01*
X281460764Y-116878218D01*
X281787391Y-117013846D01*
X281848393Y-117013899D01*
X283207247Y-118372753D01*
X283268140Y-118413440D01*
X282415116Y-118413440D01*
X282324796Y-118322962D01*
X281998169Y-118187334D01*
X281644503Y-118187026D01*
X281317640Y-118322083D01*
X281067342Y-118571944D01*
X280931714Y-118898571D01*
X280931406Y-119252237D01*
X268045575Y-119252237D01*
X268007484Y-119119440D01*
X268012000Y-119119440D01*
X268247317Y-119075162D01*
X268463441Y-118936090D01*
X268608431Y-118723890D01*
X268659440Y-118472000D01*
X268659440Y-116948000D01*
X268615162Y-116712683D01*
X268476090Y-116496559D01*
X268263890Y-116351569D01*
X268012000Y-116300560D01*
X266605000Y-116300560D01*
X266605000Y-115157542D01*
X289616376Y-115157542D01*
X289644158Y-115712608D01*
X289803123Y-116096383D01*
X290045307Y-116165848D01*
X290845915Y-115365240D01*
X291205125Y-115365240D01*
X292005733Y-116165848D01*
X292247917Y-116096383D01*
X292434664Y-115572938D01*
X292406882Y-115017872D01*
X292247917Y-114634097D01*
X292005733Y-114564632D01*
X291205125Y-115365240D01*
X290845915Y-115365240D01*
X290045307Y-114564632D01*
X289803123Y-114634097D01*
X289616376Y-115157542D01*
X266605000Y-115157542D01*
X266605000Y-114385027D01*
X290224912Y-114385027D01*
X291025520Y-115185635D01*
X291826128Y-114385027D01*
X291756663Y-114142843D01*
X291233218Y-113956096D01*
X290678152Y-113983878D01*
X290294377Y-114142843D01*
X290224912Y-114385027D01*
X266605000Y-114385027D01*
X266605000Y-113675000D01*
X304167748Y-113675000D01*
X304152560Y-113750000D01*
X304152560Y-113750000D01*
G37*
X304152560Y-113750000D02*
X304152560Y-115450000D01*
X304196838Y-115685317D01*
X304335910Y-115901441D01*
X304548110Y-116046431D01*
X304800000Y-116097440D01*
X306500000Y-116097440D01*
X306735317Y-116053162D01*
X306951441Y-115914090D01*
X307096431Y-115701890D01*
X307119626Y-115587351D01*
X307205910Y-115721441D01*
X307418110Y-115866431D01*
X307670000Y-115917440D01*
X309370000Y-115917440D01*
X309605317Y-115873162D01*
X309821441Y-115734090D01*
X309966431Y-115521890D01*
X309980086Y-115454459D01*
X310009946Y-115499147D01*
X310491715Y-115821054D01*
X311060000Y-115934093D01*
X311628285Y-115821054D01*
X311815000Y-115696295D01*
X311815000Y-115962560D01*
X310210000Y-115962560D01*
X309974683Y-116006838D01*
X309758559Y-116145910D01*
X309613569Y-116358110D01*
X309562560Y-116610000D01*
X309562560Y-118310000D01*
X309606838Y-118545317D01*
X309745910Y-118761441D01*
X309958110Y-118906431D01*
X310025541Y-118920086D01*
X309980853Y-118949946D01*
X309658946Y-119431715D01*
X309545907Y-120000000D01*
X309658946Y-120568285D01*
X309980853Y-121050054D01*
X310462622Y-121371961D01*
X311030907Y-121485000D01*
X311089093Y-121485000D01*
X311657378Y-121371961D01*
X311815000Y-121266642D01*
X311815000Y-122356480D01*
X310185640Y-122356480D01*
X309950323Y-122400758D01*
X309734199Y-122539830D01*
X309589209Y-122752030D01*
X309538200Y-123003920D01*
X309538200Y-124703920D01*
X309582478Y-124939237D01*
X309721550Y-125155361D01*
X309933750Y-125300351D01*
X310001181Y-125314006D01*
X309956493Y-125343866D01*
X309634586Y-125825635D01*
X309521547Y-126393920D01*
X309634586Y-126962205D01*
X309956493Y-127443974D01*
X310140465Y-127566900D01*
X309950323Y-127602678D01*
X309734199Y-127741750D01*
X309589209Y-127953950D01*
X309538200Y-128205840D01*
X309538200Y-129905840D01*
X309582478Y-130141157D01*
X309721550Y-130357281D01*
X309933750Y-130502271D01*
X310001181Y-130515926D01*
X309956493Y-130545786D01*
X309634586Y-131027555D01*
X309521547Y-131595840D01*
X309634586Y-132164125D01*
X309956493Y-132645894D01*
X310438262Y-132967801D01*
X311006547Y-133080840D01*
X311064733Y-133080840D01*
X311633018Y-132967801D01*
X311815000Y-132846205D01*
X311815000Y-133485000D01*
X272537000Y-133485000D01*
X272537000Y-126624439D01*
X272545764Y-126633218D01*
X272872391Y-126768846D01*
X272933393Y-126768899D01*
X274418514Y-128254020D01*
X274063836Y-128608698D01*
X274004183Y-128608646D01*
X273677320Y-128743703D01*
X273427022Y-128993564D01*
X273291394Y-129320191D01*
X273291086Y-129673857D01*
X273426143Y-130000720D01*
X273676004Y-130251018D01*
X274002631Y-130386646D01*
X274356297Y-130386954D01*
X274683160Y-130251897D01*
X274933458Y-130002036D01*
X275069086Y-129675409D01*
X275069139Y-129614407D01*
X275424020Y-129259526D01*
X277847247Y-131682753D01*
X278077912Y-131836878D01*
X278350000Y-131891000D01*
X279525494Y-131891000D01*
X279870898Y-132236404D01*
X279870846Y-132296057D01*
X280005903Y-132622920D01*
X280255764Y-132873218D01*
X280582391Y-133008846D01*
X280936057Y-133009154D01*
X281262920Y-132874097D01*
X281267525Y-132869500D01*
X285279995Y-132869500D01*
X285280000Y-132869501D01*
X285566822Y-132812448D01*
X285788776Y-132664143D01*
X285801057Y-132664154D01*
X286127920Y-132529097D01*
X286378218Y-132279236D01*
X286513846Y-131952609D01*
X286514154Y-131598943D01*
X286379097Y-131272080D01*
X286129236Y-131021782D01*
X285802609Y-130886154D01*
X285448943Y-130885846D01*
X285122080Y-131020903D01*
X284871782Y-131270764D01*
X284830368Y-131370500D01*
X281267948Y-131370500D01*
X281264236Y-131366782D01*
X280937609Y-131231154D01*
X280876607Y-131231101D01*
X280322753Y-130677247D01*
X280092088Y-130523122D01*
X279820000Y-130469000D01*
X278644506Y-130469000D01*
X273987567Y-125812061D01*
X274378118Y-125812061D01*
X274590350Y-126325703D01*
X274982990Y-126719029D01*
X275496260Y-126932157D01*
X276052021Y-126932642D01*
X276565663Y-126720410D01*
X276919123Y-126367567D01*
X276950198Y-126532717D01*
X277089270Y-126748841D01*
X277301470Y-126893831D01*
X277553360Y-126944840D01*
X279077360Y-126944840D01*
X279312677Y-126900562D01*
X279528801Y-126761490D01*
X279673791Y-126549290D01*
X279724800Y-126297400D01*
X279724800Y-124773400D01*
X279680522Y-124538083D01*
X279541450Y-124321959D01*
X279329250Y-124176969D01*
X279077360Y-124125960D01*
X277553360Y-124125960D01*
X277318043Y-124170238D01*
X277101919Y-124309310D01*
X276956929Y-124521510D01*
X276919868Y-124704524D01*
X276567730Y-124351771D01*
X276054460Y-124138643D01*
X275498699Y-124138158D01*
X274985057Y-124350390D01*
X274591731Y-124743030D01*
X274378603Y-125256300D01*
X274378118Y-125812061D01*
X273987567Y-125812061D01*
X273939102Y-125763596D01*
X273939154Y-125703943D01*
X273804097Y-125377080D01*
X273789500Y-125362457D01*
X273789500Y-121831000D01*
X273873550Y-121831000D01*
X273875764Y-121833218D01*
X274202391Y-121968846D01*
X274556057Y-121969154D01*
X274882920Y-121834097D01*
X274896040Y-121821000D01*
X279273620Y-121821000D01*
X279315764Y-121863218D01*
X279642391Y-121998846D01*
X279996057Y-121999154D01*
X280322920Y-121864097D01*
X280366092Y-121821000D01*
X283735494Y-121821000D01*
X283899174Y-121984680D01*
X282506360Y-121984680D01*
X282234272Y-122038802D01*
X282003607Y-122192927D01*
X281963236Y-122233298D01*
X281903583Y-122233246D01*
X281576720Y-122368303D01*
X281326422Y-122618164D01*
X281190794Y-122944791D01*
X281190486Y-123298457D01*
X281325543Y-123625320D01*
X281575404Y-123875618D01*
X281902031Y-124011246D01*
X282255697Y-124011554D01*
X282582560Y-123876497D01*
X282832858Y-123626636D01*
X282902595Y-123458693D01*
X283015903Y-123732920D01*
X283059000Y-123776092D01*
X283059000Y-126160000D01*
X283113122Y-126432088D01*
X283267247Y-126662753D01*
X288900898Y-132296404D01*
X288900846Y-132356057D01*
X289035903Y-132682920D01*
X289285764Y-132933218D01*
X289612391Y-133068846D01*
X289966057Y-133069154D01*
X290292920Y-132934097D01*
X290543218Y-132684236D01*
X290678846Y-132357609D01*
X290679154Y-132003943D01*
X290544097Y-131677080D01*
X290294236Y-131426782D01*
X289967609Y-131291154D01*
X289906607Y-131291101D01*
X289640746Y-131025240D01*
X305006840Y-131025240D01*
X305006840Y-132725240D01*
X305051118Y-132960557D01*
X305190190Y-133176681D01*
X305402390Y-133321671D01*
X305654280Y-133372680D01*
X307354280Y-133372680D01*
X307589597Y-133328402D01*
X307805721Y-133189330D01*
X307950711Y-132977130D01*
X308001720Y-132725240D01*
X308001720Y-131025240D01*
X307957442Y-130789923D01*
X307818370Y-130573799D01*
X307606170Y-130428809D01*
X307354280Y-130377800D01*
X305654280Y-130377800D01*
X305418963Y-130422078D01*
X305202839Y-130561150D01*
X305057849Y-130773350D01*
X305006840Y-131025240D01*
X289640746Y-131025240D01*
X284481000Y-125865494D01*
X284481000Y-123776380D01*
X284523218Y-123734236D01*
X284647655Y-123434561D01*
X286387378Y-125174284D01*
X286387326Y-125233937D01*
X286522383Y-125560800D01*
X286772244Y-125811098D01*
X287098871Y-125946726D01*
X287452537Y-125947034D01*
X287741946Y-125827452D01*
X289049000Y-127134506D01*
X289049000Y-128663620D01*
X289006782Y-128705764D01*
X288871154Y-129032391D01*
X288870846Y-129386057D01*
X289005903Y-129712920D01*
X289255764Y-129963218D01*
X289582391Y-130098846D01*
X289936057Y-130099154D01*
X290262920Y-129964097D01*
X290513218Y-129714236D01*
X290648846Y-129387609D01*
X290649154Y-129033943D01*
X290514097Y-128707080D01*
X290471000Y-128663908D01*
X290471000Y-126840000D01*
X290416878Y-126567912D01*
X290262753Y-126337247D01*
X287171602Y-123246096D01*
X287171654Y-123186443D01*
X287036597Y-122859580D01*
X286786736Y-122609282D01*
X286460109Y-122473654D01*
X286399107Y-122473601D01*
X284532753Y-120607247D01*
X284302088Y-120453122D01*
X284030000Y-120399000D01*
X280366380Y-120399000D01*
X280324236Y-120356782D01*
X279997609Y-120221154D01*
X279643943Y-120220846D01*
X279317080Y-120355903D01*
X279273908Y-120399000D01*
X274956328Y-120399000D01*
X274884236Y-120326782D01*
X274557609Y-120191154D01*
X274203943Y-120190846D01*
X273877080Y-120325903D01*
X273793838Y-120409000D01*
X273283827Y-120409000D01*
X273040000Y-120360500D01*
X272846447Y-120399000D01*
X269690000Y-120399000D01*
X269417912Y-120453122D01*
X269301462Y-120530931D01*
X269203943Y-120530846D01*
X268877080Y-120665903D01*
X268626782Y-120915764D01*
X268491154Y-121242391D01*
X268490846Y-121596057D01*
X268625903Y-121922920D01*
X268875764Y-122173218D01*
X269202391Y-122308846D01*
X269556057Y-122309154D01*
X269882920Y-122174097D01*
X270133218Y-121924236D01*
X270176086Y-121821000D01*
X272290500Y-121821000D01*
X272290500Y-123173000D01*
X266605000Y-123173000D01*
X266605000Y-121503130D01*
X267042302Y-121659144D01*
X267597368Y-121631362D01*
X267981143Y-121472397D01*
X268050608Y-121230213D01*
X267250000Y-120429605D01*
X267235858Y-120443748D01*
X267056253Y-120264143D01*
X267070395Y-120250000D01*
X267429605Y-120250000D01*
X268230213Y-121050608D01*
X268472397Y-120981143D01*
X268659144Y-120457698D01*
X268631362Y-119902632D01*
X268472397Y-119518857D01*
X268230213Y-119449392D01*
X267429605Y-120250000D01*
X267070395Y-120250000D01*
X267056253Y-120235858D01*
X267235858Y-120056253D01*
X267250000Y-120070395D01*
X268050608Y-119269787D01*
X268045575Y-119252237D01*
X280931406Y-119252237D01*
X281066463Y-119579100D01*
X281316324Y-119829398D01*
X281642951Y-119965026D01*
X281996617Y-119965334D01*
X282310985Y-119835440D01*
X287195334Y-119835440D01*
X287992658Y-120632764D01*
X287992606Y-120692417D01*
X288127663Y-121019280D01*
X288377524Y-121269578D01*
X288704151Y-121405206D01*
X289057817Y-121405514D01*
X289384680Y-121270457D01*
X289634978Y-121020596D01*
X289770606Y-120693969D01*
X289770909Y-120346415D01*
X291747247Y-122322753D01*
X291977912Y-122476878D01*
X292250000Y-122531000D01*
X299993620Y-122531000D01*
X300035764Y-122573218D01*
X300362391Y-122708846D01*
X300716057Y-122709154D01*
X301042920Y-122574097D01*
X301293218Y-122324236D01*
X301428846Y-121997609D01*
X301429154Y-121643943D01*
X301294097Y-121317080D01*
X301044236Y-121066782D01*
X300717609Y-120931154D01*
X300363943Y-120930846D01*
X300037080Y-121065903D01*
X299993908Y-121109000D01*
X292544506Y-121109000D01*
X290750186Y-119314680D01*
X291787520Y-119314680D01*
X292022837Y-119270402D01*
X292238961Y-119131330D01*
X292383951Y-118919130D01*
X292434960Y-118667240D01*
X292434960Y-117143240D01*
X292390682Y-116907923D01*
X292251610Y-116691799D01*
X292039410Y-116546809D01*
X291787520Y-116495800D01*
X291783004Y-116495800D01*
X291826128Y-116345453D01*
X291025520Y-115544845D01*
X290224912Y-116345453D01*
X290268036Y-116495800D01*
X290263520Y-116495800D01*
X290028203Y-116540078D01*
X289812079Y-116679150D01*
X289667089Y-116891350D01*
X289616080Y-117143240D01*
X289616080Y-118180574D01*
X288802753Y-117367247D01*
X288572088Y-117213122D01*
X288300000Y-117159000D01*
X284004506Y-117159000D01*
X282854102Y-116008596D01*
X282854154Y-115948943D01*
X282719097Y-115622080D01*
X282469236Y-115371782D01*
X282142609Y-115236154D01*
X281788943Y-115235846D01*
X281462080Y-115370903D01*
X281211782Y-115620764D01*
X281076154Y-115947391D01*
X281075846Y-116301057D01*
X281210903Y-116627920D01*
X281460764Y-116878218D01*
X281787391Y-117013846D01*
X281848393Y-117013899D01*
X283207247Y-118372753D01*
X283268140Y-118413440D01*
X282415116Y-118413440D01*
X282324796Y-118322962D01*
X281998169Y-118187334D01*
X281644503Y-118187026D01*
X281317640Y-118322083D01*
X281067342Y-118571944D01*
X280931714Y-118898571D01*
X280931406Y-119252237D01*
X268045575Y-119252237D01*
X268007484Y-119119440D01*
X268012000Y-119119440D01*
X268247317Y-119075162D01*
X268463441Y-118936090D01*
X268608431Y-118723890D01*
X268659440Y-118472000D01*
X268659440Y-116948000D01*
X268615162Y-116712683D01*
X268476090Y-116496559D01*
X268263890Y-116351569D01*
X268012000Y-116300560D01*
X266605000Y-116300560D01*
X266605000Y-115157542D01*
X289616376Y-115157542D01*
X289644158Y-115712608D01*
X289803123Y-116096383D01*
X290045307Y-116165848D01*
X290845915Y-115365240D01*
X291205125Y-115365240D01*
X292005733Y-116165848D01*
X292247917Y-116096383D01*
X292434664Y-115572938D01*
X292406882Y-115017872D01*
X292247917Y-114634097D01*
X292005733Y-114564632D01*
X291205125Y-115365240D01*
X290845915Y-115365240D01*
X290045307Y-114564632D01*
X289803123Y-114634097D01*
X289616376Y-115157542D01*
X266605000Y-115157542D01*
X266605000Y-114385027D01*
X290224912Y-114385027D01*
X291025520Y-115185635D01*
X291826128Y-114385027D01*
X291756663Y-114142843D01*
X291233218Y-113956096D01*
X290678152Y-113983878D01*
X290294377Y-114142843D01*
X290224912Y-114385027D01*
X266605000Y-114385027D01*
X266605000Y-113675000D01*
X304167748Y-113675000D01*
X304152560Y-113750000D01*
M02*
