G04 #@! TF.FileFunction,Soldermask,Top*
%FSLAX46Y46*%
G04 Gerber Fmt 4.6, Leading zero omitted, Abs format (unit mm)*
G04 Created by KiCad (PCBNEW 4.0.4-stable) date 09/22/17 01:36:47*
%MOMM*%
%LPD*%
G01*
G04 APERTURE LIST*
%ADD10C,0.150000*%
%ADD11R,1.554000X1.554000*%
%ADD12C,1.554000*%
%ADD13R,1.730000X1.730000*%
%ADD14O,1.730000X1.730000*%
%ADD15R,0.530000X0.930000*%
%ADD16R,0.530000X0.230000*%
%ADD17R,0.580000X0.230000*%
%ADD18R,0.230000X0.530000*%
%ADD19R,0.230000X0.580000*%
%ADD20R,0.680000X0.430000*%
%ADD21R,0.629440X0.428780*%
%ADD22R,0.428780X0.629440*%
%ADD23R,1.173000X0.665000*%
%ADD24R,0.830000X0.830000*%
%ADD25R,0.330000X0.730000*%
%ADD26R,0.630000X0.630000*%
%ADD27R,1.530000X0.330000*%
%ADD28R,0.330000X1.530000*%
%ADD29R,0.930000X0.830000*%
%ADD30R,0.830000X1.630000*%
%ADD31R,0.830000X0.230000*%
%ADD32R,0.230000X0.830000*%
%ADD33R,1.142500X1.142500*%
%ADD34R,1.130000X0.630000*%
%ADD35R,0.270000X0.730000*%
%ADD36R,1.530000X0.930000*%
%ADD37R,0.280000X0.730000*%
%ADD38R,0.280000X0.630000*%
G04 APERTURE END LIST*
D10*
D11*
X291025520Y-117905240D03*
D12*
X291025520Y-115365240D03*
D13*
X311035640Y-129055840D03*
D14*
X311035640Y-131595840D03*
D13*
X311035640Y-123853920D03*
D14*
X311035640Y-126393920D03*
D13*
X311020400Y-118667240D03*
D14*
X311020400Y-121207240D03*
D15*
X277672500Y-119022500D03*
X279172500Y-119022500D03*
D16*
X273412500Y-122477500D03*
D17*
X273412500Y-122077500D03*
X273412500Y-121677500D03*
X273412500Y-121277500D03*
X273412500Y-120877500D03*
D16*
X273412500Y-120477500D03*
D18*
X272912500Y-119977500D03*
D19*
X272512500Y-119977500D03*
X272112500Y-119977500D03*
X271712500Y-119977500D03*
X271312500Y-119977500D03*
D18*
X270912500Y-119977500D03*
D16*
X270412500Y-120477500D03*
D17*
X270412500Y-120877500D03*
X270412500Y-121277500D03*
X270412500Y-121677500D03*
X270412500Y-122077500D03*
D16*
X270412500Y-122477500D03*
D18*
X270912500Y-122977500D03*
D19*
X271312500Y-122977500D03*
X271712500Y-122977500D03*
X272112500Y-122977500D03*
X272512500Y-122977500D03*
D18*
X272912500Y-122977500D03*
D20*
X284050000Y-122470000D03*
X284050000Y-121170000D03*
X284050000Y-121820000D03*
X282150000Y-121170000D03*
X282150000Y-122470000D03*
D21*
X284760000Y-132310420D03*
X284760000Y-133209580D03*
D22*
X285619580Y-123780000D03*
X284720420Y-123780000D03*
D21*
X298035000Y-113680420D03*
X298035000Y-114579580D03*
X270308640Y-114667860D03*
X270308640Y-115567020D03*
D22*
X272908220Y-116917440D03*
X272009060Y-116917440D03*
D23*
X274958640Y-116279440D03*
X274958640Y-114755440D03*
D20*
X271408640Y-114667440D03*
X271408640Y-115967440D03*
X273308640Y-115317440D03*
X271408640Y-115317440D03*
X273308640Y-115967440D03*
X273308640Y-114667440D03*
X271408640Y-114667440D03*
X271408640Y-115967440D03*
X273308640Y-115317440D03*
X271408640Y-115317440D03*
X273308640Y-115967440D03*
X273308640Y-114667440D03*
D23*
X274958640Y-116279440D03*
X274958640Y-114755440D03*
D22*
X272908220Y-116917440D03*
X272009060Y-116917440D03*
D21*
X270308640Y-114667860D03*
X270308640Y-115567020D03*
X285220000Y-122499580D03*
X285220000Y-121600420D03*
D22*
X281109580Y-122180000D03*
X280210420Y-122180000D03*
X282560420Y-120000000D03*
X283459580Y-120000000D03*
D21*
X286660000Y-132310420D03*
X286660000Y-133209580D03*
D11*
X267250000Y-117710000D03*
D12*
X267250000Y-120250000D03*
D21*
X276062500Y-120542920D03*
X276062500Y-121442080D03*
X275522500Y-118822920D03*
X275522500Y-119722080D03*
X278802500Y-120642920D03*
X278802500Y-121542080D03*
X276692500Y-119682080D03*
X276692500Y-118782920D03*
D22*
X289321180Y-121639040D03*
X288422020Y-121639040D03*
X286971680Y-116812140D03*
X287870840Y-116812140D03*
D21*
X282714640Y-119076180D03*
X282714640Y-118177020D03*
X286051260Y-116682560D03*
X286051260Y-117581720D03*
X288490600Y-122764260D03*
X288490600Y-123663420D03*
D24*
X287464440Y-123566800D03*
X287464440Y-121966800D03*
X284129520Y-118585960D03*
X285729520Y-118585960D03*
X274159920Y-130445320D03*
X274159920Y-132045320D03*
D22*
X283035420Y-132610000D03*
X283934580Y-132610000D03*
X283929580Y-133500000D03*
X283030420Y-133500000D03*
D21*
X285710000Y-133209580D03*
X285710000Y-132310420D03*
X274310000Y-122085420D03*
X274310000Y-122984580D03*
X273040000Y-124899580D03*
X273040000Y-124000420D03*
X269410000Y-120859580D03*
X269410000Y-119960420D03*
D22*
X271792920Y-118837500D03*
X272692080Y-118837500D03*
D25*
X277860000Y-127373500D03*
D26*
X278472500Y-127700000D03*
X277247500Y-127700000D03*
D25*
X277860000Y-128062500D03*
D21*
X276950000Y-129529580D03*
X276950000Y-128630420D03*
D22*
X279250420Y-133090000D03*
X280149580Y-133090000D03*
X308025420Y-121630000D03*
X308924580Y-121630000D03*
X308025420Y-124470000D03*
X308924580Y-124470000D03*
X308015420Y-123000000D03*
X308914580Y-123000000D03*
X308025420Y-120075000D03*
X308924580Y-120075000D03*
D13*
X306030000Y-114620000D03*
D23*
X294875000Y-115212000D03*
X294875000Y-113688000D03*
D11*
X278315360Y-125535400D03*
D12*
X275775360Y-125535400D03*
D21*
X302850000Y-115075420D03*
X302850000Y-115974580D03*
D27*
X303475000Y-127350000D03*
X303475000Y-126850000D03*
X303475000Y-126350000D03*
X303475000Y-125850000D03*
X303475000Y-125350000D03*
X303475000Y-124850000D03*
X303475000Y-124350000D03*
X303475000Y-123850000D03*
X303475000Y-123350000D03*
X303475000Y-122850000D03*
X303475000Y-122350000D03*
X303475000Y-121850000D03*
X303475000Y-121350000D03*
X303475000Y-120850000D03*
X303475000Y-120350000D03*
X303475000Y-119850000D03*
D28*
X301525000Y-117900000D03*
X301025000Y-117900000D03*
X300525000Y-117900000D03*
X300025000Y-117900000D03*
X299525000Y-117900000D03*
X299025000Y-117900000D03*
X298525000Y-117900000D03*
X298025000Y-117900000D03*
X297525000Y-117900000D03*
X297025000Y-117900000D03*
X296525000Y-117900000D03*
X296025000Y-117900000D03*
X295525000Y-117900000D03*
X295025000Y-117900000D03*
X294525000Y-117900000D03*
X294025000Y-117900000D03*
D27*
X292075000Y-119850000D03*
X292075000Y-120350000D03*
X292075000Y-120850000D03*
X292075000Y-121350000D03*
X292075000Y-121850000D03*
X292075000Y-122350000D03*
X292075000Y-122850000D03*
X292075000Y-123350000D03*
X292075000Y-123850000D03*
X292075000Y-124350000D03*
X292075000Y-124850000D03*
X292075000Y-125350000D03*
X292075000Y-125850000D03*
X292075000Y-126350000D03*
X292075000Y-126850000D03*
X292075000Y-127350000D03*
D28*
X294025000Y-129300000D03*
X294525000Y-129300000D03*
X295025000Y-129300000D03*
X295525000Y-129300000D03*
X296025000Y-129300000D03*
X296525000Y-129300000D03*
X297025000Y-129300000D03*
X297525000Y-129300000D03*
X298025000Y-129300000D03*
X298525000Y-129300000D03*
X299025000Y-129300000D03*
X299525000Y-129300000D03*
X300025000Y-129300000D03*
X300525000Y-129300000D03*
X301025000Y-129300000D03*
X301525000Y-129300000D03*
D22*
X293875420Y-131650000D03*
X294774580Y-131650000D03*
X293875420Y-132700000D03*
X294774580Y-132700000D03*
D21*
X296575000Y-114549580D03*
X296575000Y-113650420D03*
X301800000Y-115075420D03*
X301800000Y-115974580D03*
D22*
X290725420Y-129375000D03*
X291624580Y-129375000D03*
X305968340Y-118743440D03*
X306867500Y-118743440D03*
X291624580Y-130450000D03*
X290725420Y-130450000D03*
X297275420Y-132550000D03*
X298174580Y-132550000D03*
X297275420Y-131425000D03*
X298174580Y-131425000D03*
X300524580Y-132600000D03*
X299625420Y-132600000D03*
D21*
X292750000Y-116475420D03*
X292750000Y-117374580D03*
D22*
X300524580Y-131425000D03*
X299625420Y-131425000D03*
D21*
X299550000Y-113650420D03*
X299550000Y-114549580D03*
X305975000Y-117000420D03*
X305975000Y-117899580D03*
X304750000Y-117000420D03*
X304750000Y-117899580D03*
X289286260Y-119416720D03*
X289286260Y-118517560D03*
X303310000Y-131269900D03*
X303310000Y-130370740D03*
X304410000Y-131269900D03*
X304410000Y-130370740D03*
D22*
X305975420Y-119700000D03*
X306874580Y-119700000D03*
X305950420Y-120950000D03*
X306849580Y-120950000D03*
X305975420Y-122390000D03*
X306874580Y-122390000D03*
X305975420Y-123610000D03*
X306874580Y-123610000D03*
D24*
X272961040Y-130445320D03*
X272961040Y-132045320D03*
D29*
X276700000Y-130950000D03*
X278100000Y-130950000D03*
X276700000Y-132050000D03*
X278100000Y-132050000D03*
D22*
X287810420Y-131910000D03*
X288709580Y-131910000D03*
D21*
X275700000Y-131200420D03*
X275700000Y-132099580D03*
X279100000Y-131999580D03*
X279100000Y-131100420D03*
X275760000Y-129529580D03*
X275760000Y-128630420D03*
X289660000Y-130360420D03*
X289660000Y-131259580D03*
D30*
X270745000Y-127673000D03*
X267345000Y-127673000D03*
D22*
X272849580Y-127700000D03*
X271950420Y-127700000D03*
D21*
X274000000Y-127650420D03*
X274000000Y-128549580D03*
D22*
X276049580Y-127700000D03*
X275150420Y-127700000D03*
D13*
X306504280Y-131875240D03*
D31*
X286350000Y-130080000D03*
X286350000Y-129680000D03*
X286350000Y-129280000D03*
X286350000Y-128880000D03*
X286350000Y-128480000D03*
X286350000Y-128080000D03*
X286350000Y-127680000D03*
X286350000Y-127280000D03*
X286350000Y-126880000D03*
X286350000Y-126480000D03*
X286350000Y-126080000D03*
X286350000Y-125680000D03*
D32*
X285550000Y-124880000D03*
X285150000Y-124880000D03*
X284750000Y-124880000D03*
X284350000Y-124880000D03*
X283950000Y-124880000D03*
X283550000Y-124880000D03*
X283150000Y-124880000D03*
X282750000Y-124880000D03*
X282350000Y-124880000D03*
X281950000Y-124880000D03*
X281550000Y-124880000D03*
X281150000Y-124880000D03*
D31*
X280350000Y-125680000D03*
X280350000Y-126080000D03*
X280350000Y-126480000D03*
X280350000Y-126880000D03*
X280350000Y-127280000D03*
X280350000Y-127680000D03*
X280350000Y-128080000D03*
X280350000Y-128480000D03*
X280350000Y-128880000D03*
X280350000Y-129280000D03*
X280350000Y-129680000D03*
X280350000Y-130080000D03*
D32*
X281150000Y-130880000D03*
X281550000Y-130880000D03*
X281950000Y-130880000D03*
X282350000Y-130880000D03*
X282750000Y-130880000D03*
X283150000Y-130880000D03*
X283550000Y-130880000D03*
X283950000Y-130880000D03*
X284350000Y-130880000D03*
X284750000Y-130880000D03*
X285150000Y-130880000D03*
X285550000Y-130880000D03*
D33*
X281681250Y-126211250D03*
X281681250Y-127323750D03*
X281681250Y-128436250D03*
X281681250Y-129548750D03*
X282793750Y-126211250D03*
X282793750Y-127323750D03*
X282793750Y-128436250D03*
X282793750Y-129548750D03*
X283906250Y-126211250D03*
X283906250Y-127323750D03*
X283906250Y-128436250D03*
X283906250Y-129548750D03*
X285018750Y-126211250D03*
X285018750Y-127323750D03*
X285018750Y-128436250D03*
X285018750Y-129548750D03*
D34*
X288260000Y-129310000D03*
X288260000Y-130710000D03*
D35*
X288401260Y-118412140D03*
X288001260Y-118412140D03*
X287601260Y-118412140D03*
X287201260Y-118412140D03*
X286801260Y-118412140D03*
X286801260Y-120512140D03*
X287201260Y-120512140D03*
X287601260Y-120512140D03*
X288001260Y-120512140D03*
X288401260Y-120512140D03*
D36*
X287601260Y-119462140D03*
D37*
X277952500Y-120552500D03*
D38*
X277452500Y-120552500D03*
X276952500Y-120552500D03*
X276952500Y-121552500D03*
X277452500Y-121552500D03*
X277952500Y-121552500D03*
D13*
X308622640Y-116025640D03*
D14*
X311162640Y-116025640D03*
M02*
