G04 #@! TF.FileFunction,Copper,L1,Top,Signal*
%FSLAX46Y46*%
G04 Gerber Fmt 4.6, Leading zero omitted, Abs format (unit mm)*
G04 Created by KiCad (PCBNEW 4.0.6) date 09/21/17 15:17:17*
%MOMM*%
%LPD*%
G01*
G04 APERTURE LIST*
%ADD10C,0.150000*%
%ADD11R,0.500000X0.200000*%
%ADD12R,0.550000X0.200000*%
%ADD13R,0.200000X0.500000*%
%ADD14R,0.200000X0.550000*%
%ADD15R,0.650000X0.400000*%
%ADD16R,0.599440X0.398780*%
%ADD17R,0.398780X0.599440*%
%ADD18R,1.143000X0.635000*%
%ADD19R,1.524000X1.524000*%
%ADD20C,1.524000*%
%ADD21R,0.800000X0.800000*%
%ADD22R,0.300000X0.700000*%
%ADD23R,0.600000X0.600000*%
%ADD24R,1.700000X1.700000*%
%ADD25R,1.500000X0.300000*%
%ADD26R,0.300000X1.500000*%
%ADD27R,0.900000X0.800000*%
%ADD28R,0.800000X1.600000*%
%ADD29O,1.700000X1.700000*%
%ADD30R,0.800000X0.200000*%
%ADD31R,0.200000X0.800000*%
%ADD32R,1.112500X1.112500*%
%ADD33R,1.100000X0.600000*%
%ADD34R,0.700000X0.240000*%
%ADD35R,0.900000X1.500000*%
%ADD36R,0.250000X0.700000*%
%ADD37R,0.250000X0.600000*%
%ADD38R,0.500000X0.900000*%
%ADD39C,0.508000*%
%ADD40C,0.152000*%
%ADD41C,0.460000*%
%ADD42C,0.229000*%
%ADD43C,0.457200*%
%ADD44C,0.152400*%
%ADD45C,0.254000*%
G04 APERTURE END LIST*
D10*
D11*
X273412500Y-122477500D03*
D12*
X273412500Y-122077500D03*
X273412500Y-121677500D03*
X273412500Y-121277500D03*
X273412500Y-120877500D03*
D11*
X273412500Y-120477500D03*
D13*
X272912500Y-119977500D03*
D14*
X272512500Y-119977500D03*
X272112500Y-119977500D03*
X271712500Y-119977500D03*
X271312500Y-119977500D03*
D13*
X270912500Y-119977500D03*
D11*
X270412500Y-120477500D03*
D12*
X270412500Y-120877500D03*
X270412500Y-121277500D03*
X270412500Y-121677500D03*
X270412500Y-122077500D03*
D11*
X270412500Y-122477500D03*
D13*
X270912500Y-122977500D03*
D14*
X271312500Y-122977500D03*
X271712500Y-122977500D03*
X272112500Y-122977500D03*
X272512500Y-122977500D03*
D13*
X272912500Y-122977500D03*
D15*
X284050000Y-122470000D03*
X284050000Y-121170000D03*
X284050000Y-121820000D03*
X282150000Y-121170000D03*
X282150000Y-122470000D03*
D16*
X284760000Y-132310420D03*
X284760000Y-133209580D03*
D17*
X285619580Y-123780000D03*
X284720420Y-123780000D03*
D16*
X298035000Y-113680420D03*
X298035000Y-114579580D03*
X286507500Y-116822080D03*
X286507500Y-115922920D03*
D17*
X283907920Y-114572500D03*
X284807080Y-114572500D03*
D18*
X281857500Y-115210500D03*
X281857500Y-116734500D03*
D15*
X285407500Y-116822500D03*
X285407500Y-115522500D03*
X283507500Y-116172500D03*
X285407500Y-116172500D03*
X283507500Y-115522500D03*
X283507500Y-116822500D03*
X285407500Y-116822500D03*
X285407500Y-115522500D03*
X283507500Y-116172500D03*
X285407500Y-116172500D03*
X283507500Y-115522500D03*
X283507500Y-116822500D03*
D18*
X281857500Y-115210500D03*
X281857500Y-116734500D03*
D17*
X283907920Y-114572500D03*
X284807080Y-114572500D03*
D16*
X286507500Y-116822080D03*
X286507500Y-115922920D03*
X285220000Y-122499580D03*
X285220000Y-121600420D03*
D17*
X281109580Y-122180000D03*
X280210420Y-122180000D03*
X282560420Y-120000000D03*
X283459580Y-120000000D03*
D16*
X286660000Y-132310420D03*
X286660000Y-133209580D03*
D19*
X267250000Y-117710000D03*
D20*
X267250000Y-120250000D03*
D16*
X276062500Y-120542920D03*
X276062500Y-121442080D03*
X275522500Y-118822920D03*
X275522500Y-119722080D03*
X278802500Y-120642920D03*
X278802500Y-121542080D03*
X276692500Y-119682080D03*
X276692500Y-118782920D03*
D17*
X278079580Y-115180000D03*
X277180420Y-115180000D03*
D16*
X272475000Y-116434580D03*
X272475000Y-115535420D03*
D17*
X279969580Y-117730000D03*
X279070420Y-117730000D03*
X272345420Y-117355000D03*
X273244580Y-117355000D03*
X279800420Y-114760000D03*
X280699580Y-114760000D03*
D21*
X280800000Y-113710000D03*
X279200000Y-113710000D03*
X277380000Y-117740000D03*
X275780000Y-117740000D03*
X287210000Y-122435000D03*
X287210000Y-124035000D03*
D17*
X283035420Y-132610000D03*
X283934580Y-132610000D03*
X283929580Y-133500000D03*
X283030420Y-133500000D03*
D16*
X285710000Y-133209580D03*
X285710000Y-132310420D03*
X274310000Y-122085420D03*
X274310000Y-122984580D03*
X273040000Y-124899580D03*
X273040000Y-124000420D03*
X269410000Y-120859580D03*
X269410000Y-119960420D03*
D17*
X271792920Y-118837500D03*
X272692080Y-118837500D03*
D22*
X277860000Y-127373500D03*
D23*
X278472500Y-127700000D03*
X277247500Y-127700000D03*
D22*
X277860000Y-128062500D03*
D16*
X276950000Y-129529580D03*
X276950000Y-128630420D03*
D17*
X279250420Y-133090000D03*
X280149580Y-133090000D03*
X308025420Y-121630000D03*
X308924580Y-121630000D03*
X308025420Y-124470000D03*
X308924580Y-124470000D03*
X308015420Y-123000000D03*
X308914580Y-123000000D03*
X308025420Y-120075000D03*
X308924580Y-120075000D03*
D24*
X312375000Y-115000000D03*
D18*
X294875000Y-115212000D03*
X294875000Y-113688000D03*
D19*
X277430000Y-125235000D03*
D20*
X274890000Y-125235000D03*
D16*
X302850000Y-115075420D03*
X302850000Y-115974580D03*
D25*
X303475000Y-127350000D03*
X303475000Y-126850000D03*
X303475000Y-126350000D03*
X303475000Y-125850000D03*
X303475000Y-125350000D03*
X303475000Y-124850000D03*
X303475000Y-124350000D03*
X303475000Y-123850000D03*
X303475000Y-123350000D03*
X303475000Y-122850000D03*
X303475000Y-122350000D03*
X303475000Y-121850000D03*
X303475000Y-121350000D03*
X303475000Y-120850000D03*
X303475000Y-120350000D03*
X303475000Y-119850000D03*
D26*
X301525000Y-117900000D03*
X301025000Y-117900000D03*
X300525000Y-117900000D03*
X300025000Y-117900000D03*
X299525000Y-117900000D03*
X299025000Y-117900000D03*
X298525000Y-117900000D03*
X298025000Y-117900000D03*
X297525000Y-117900000D03*
X297025000Y-117900000D03*
X296525000Y-117900000D03*
X296025000Y-117900000D03*
X295525000Y-117900000D03*
X295025000Y-117900000D03*
X294525000Y-117900000D03*
X294025000Y-117900000D03*
D25*
X292075000Y-119850000D03*
X292075000Y-120350000D03*
X292075000Y-120850000D03*
X292075000Y-121350000D03*
X292075000Y-121850000D03*
X292075000Y-122350000D03*
X292075000Y-122850000D03*
X292075000Y-123350000D03*
X292075000Y-123850000D03*
X292075000Y-124350000D03*
X292075000Y-124850000D03*
X292075000Y-125350000D03*
X292075000Y-125850000D03*
X292075000Y-126350000D03*
X292075000Y-126850000D03*
X292075000Y-127350000D03*
D26*
X294025000Y-129300000D03*
X294525000Y-129300000D03*
X295025000Y-129300000D03*
X295525000Y-129300000D03*
X296025000Y-129300000D03*
X296525000Y-129300000D03*
X297025000Y-129300000D03*
X297525000Y-129300000D03*
X298025000Y-129300000D03*
X298525000Y-129300000D03*
X299025000Y-129300000D03*
X299525000Y-129300000D03*
X300025000Y-129300000D03*
X300525000Y-129300000D03*
X301025000Y-129300000D03*
X301525000Y-129300000D03*
D17*
X293875420Y-131650000D03*
X294774580Y-131650000D03*
X293875420Y-132700000D03*
X294774580Y-132700000D03*
D16*
X296575000Y-114549580D03*
X296575000Y-113650420D03*
X301800000Y-115075420D03*
X301800000Y-115974580D03*
D17*
X290725420Y-129375000D03*
X291624580Y-129375000D03*
X306800420Y-118575000D03*
X307699580Y-118575000D03*
X291624580Y-130450000D03*
X290725420Y-130450000D03*
X297275420Y-132550000D03*
X298174580Y-132550000D03*
X297275420Y-131425000D03*
X298174580Y-131425000D03*
X300524580Y-132600000D03*
X299625420Y-132600000D03*
D16*
X292750000Y-116475420D03*
X292750000Y-117374580D03*
D17*
X300524580Y-131425000D03*
X299625420Y-131425000D03*
D16*
X299550000Y-113650420D03*
X299550000Y-114549580D03*
X305975000Y-117000420D03*
X305975000Y-117899580D03*
X304750000Y-117000420D03*
X304750000Y-117899580D03*
D17*
X275079580Y-114120000D03*
X274180420Y-114120000D03*
D16*
X305850000Y-131249580D03*
X305850000Y-130350420D03*
X306950000Y-131249580D03*
X306950000Y-130350420D03*
D17*
X305975420Y-119700000D03*
X306874580Y-119700000D03*
X305950420Y-120950000D03*
X306849580Y-120950000D03*
X305975420Y-122390000D03*
X306874580Y-122390000D03*
X305975420Y-123610000D03*
X306874580Y-123610000D03*
D21*
X288435000Y-122435000D03*
X288435000Y-124035000D03*
D19*
X267260000Y-115080000D03*
D20*
X269800000Y-115080000D03*
D27*
X276700000Y-130950000D03*
X278100000Y-130950000D03*
X276700000Y-132050000D03*
X278100000Y-132050000D03*
D17*
X287810420Y-131910000D03*
X288709580Y-131910000D03*
D16*
X275700000Y-131200420D03*
X275700000Y-132099580D03*
X279100000Y-131999580D03*
X279100000Y-131100420D03*
X275760000Y-129529580D03*
X275760000Y-128630420D03*
X289660000Y-130360420D03*
X289660000Y-131259580D03*
D28*
X270745000Y-127673000D03*
X267345000Y-127673000D03*
D17*
X272849580Y-127700000D03*
X271950420Y-127700000D03*
D16*
X274000000Y-127650420D03*
X274000000Y-128549580D03*
D17*
X276049580Y-127700000D03*
X275150420Y-127700000D03*
D24*
X312115000Y-130350000D03*
X311655000Y-119240000D03*
D29*
X314195000Y-119240000D03*
X311655000Y-121780000D03*
X314195000Y-121780000D03*
X311655000Y-124320000D03*
X314195000Y-124320000D03*
X311655000Y-126860000D03*
X314195000Y-126860000D03*
D30*
X286350000Y-130080000D03*
X286350000Y-129680000D03*
X286350000Y-129280000D03*
X286350000Y-128880000D03*
X286350000Y-128480000D03*
X286350000Y-128080000D03*
X286350000Y-127680000D03*
X286350000Y-127280000D03*
X286350000Y-126880000D03*
X286350000Y-126480000D03*
X286350000Y-126080000D03*
X286350000Y-125680000D03*
D31*
X285550000Y-124880000D03*
X285150000Y-124880000D03*
X284750000Y-124880000D03*
X284350000Y-124880000D03*
X283950000Y-124880000D03*
X283550000Y-124880000D03*
X283150000Y-124880000D03*
X282750000Y-124880000D03*
X282350000Y-124880000D03*
X281950000Y-124880000D03*
X281550000Y-124880000D03*
X281150000Y-124880000D03*
D30*
X280350000Y-125680000D03*
X280350000Y-126080000D03*
X280350000Y-126480000D03*
X280350000Y-126880000D03*
X280350000Y-127280000D03*
X280350000Y-127680000D03*
X280350000Y-128080000D03*
X280350000Y-128480000D03*
X280350000Y-128880000D03*
X280350000Y-129280000D03*
X280350000Y-129680000D03*
X280350000Y-130080000D03*
D31*
X281150000Y-130880000D03*
X281550000Y-130880000D03*
X281950000Y-130880000D03*
X282350000Y-130880000D03*
X282750000Y-130880000D03*
X283150000Y-130880000D03*
X283550000Y-130880000D03*
X283950000Y-130880000D03*
X284350000Y-130880000D03*
X284750000Y-130880000D03*
X285150000Y-130880000D03*
X285550000Y-130880000D03*
D32*
X281681250Y-126211250D03*
X281681250Y-127323750D03*
X281681250Y-128436250D03*
X281681250Y-129548750D03*
X282793750Y-126211250D03*
X282793750Y-127323750D03*
X282793750Y-128436250D03*
X282793750Y-129548750D03*
X283906250Y-126211250D03*
X283906250Y-127323750D03*
X283906250Y-128436250D03*
X283906250Y-129548750D03*
X285018750Y-126211250D03*
X285018750Y-127323750D03*
X285018750Y-128436250D03*
X285018750Y-129548750D03*
D33*
X288260000Y-129310000D03*
X288260000Y-130710000D03*
D34*
X274075000Y-115005000D03*
X274075000Y-115405000D03*
X274075000Y-115805000D03*
X274075000Y-116205000D03*
X274075000Y-116605000D03*
X276175000Y-116605000D03*
X276175000Y-116205000D03*
X276175000Y-115805000D03*
X276175000Y-115405000D03*
X276175000Y-115005000D03*
D35*
X275125000Y-115805000D03*
D36*
X277952500Y-120552500D03*
D37*
X277452500Y-120552500D03*
X276952500Y-120552500D03*
X276952500Y-121552500D03*
X277452500Y-121552500D03*
X277952500Y-121552500D03*
D38*
X277672500Y-119022500D03*
X279172500Y-119022500D03*
D39*
X285290000Y-119810000D03*
X280440000Y-119800000D03*
X273970000Y-119420000D03*
X293525000Y-125500000D03*
X298875000Y-131350000D03*
X298475000Y-120800000D03*
X291725000Y-128350000D03*
X274380000Y-121080000D03*
X289760000Y-129210000D03*
X286282500Y-123362500D03*
X285625000Y-131775000D03*
X280760000Y-132120000D03*
X273050000Y-125880000D03*
X279820000Y-121110000D03*
X269380000Y-121420000D03*
X300650420Y-115974580D03*
X284400000Y-115880000D03*
X273930000Y-118230000D03*
X276130000Y-114330000D03*
X289790000Y-132180000D03*
X283770000Y-123230000D03*
X276840000Y-114510000D03*
X275420000Y-123120000D03*
X277270000Y-116370000D03*
X276090000Y-122490000D03*
D40*
X286350000Y-130080000D02*
X286350000Y-131400000D01*
X286660000Y-131710000D02*
X286660000Y-132310420D01*
X286350000Y-131400000D02*
X286660000Y-131710000D01*
X278860000Y-128930000D02*
X279050000Y-128930000D01*
X277490000Y-129080000D02*
X277640000Y-128930000D01*
X277640000Y-128930000D02*
X278860000Y-128930000D01*
X275920420Y-129529580D02*
X276370000Y-129080000D01*
X276370000Y-129080000D02*
X277330000Y-129080000D01*
X277330000Y-129080000D02*
X277490000Y-129080000D01*
X279500000Y-128480000D02*
X280350000Y-128480000D01*
X279050000Y-128930000D02*
X279500000Y-128480000D01*
X275760000Y-129529580D02*
X275920420Y-129529580D01*
X277247500Y-127700000D02*
X276049580Y-127700000D01*
X286350000Y-128080000D02*
X287034510Y-128080000D01*
X291170000Y-123350000D02*
X292075000Y-123350000D01*
X290985000Y-123535000D02*
X291170000Y-123350000D01*
X290985000Y-124129510D02*
X290985000Y-123535000D01*
X287034510Y-128080000D02*
X290985000Y-124129510D01*
X286350000Y-127680000D02*
X287004020Y-127680000D01*
X291170000Y-122850000D02*
X292075000Y-122850000D01*
X290635000Y-123385000D02*
X291170000Y-122850000D01*
X290635000Y-124049020D02*
X290635000Y-123385000D01*
X287004020Y-127680000D02*
X290635000Y-124049020D01*
X291975000Y-122950000D02*
X292075000Y-122850000D01*
X277430000Y-125235000D02*
X279905000Y-125235000D01*
X279905000Y-125235000D02*
X280350000Y-125680000D01*
X280350000Y-126080000D02*
X279615000Y-126080000D01*
X276090000Y-126435000D02*
X274890000Y-125235000D01*
X279260000Y-126435000D02*
X276090000Y-126435000D01*
X279615000Y-126080000D02*
X279260000Y-126435000D01*
X286350000Y-128880000D02*
X287105000Y-128880000D01*
X291070000Y-126850000D02*
X292075000Y-126850000D01*
X290910000Y-127010000D02*
X291070000Y-126850000D01*
X290860000Y-127010000D02*
X290910000Y-127010000D01*
X289320000Y-128550000D02*
X290860000Y-127010000D01*
X287435000Y-128550000D02*
X289320000Y-128550000D01*
X287105000Y-128880000D02*
X287435000Y-128550000D01*
D41*
X271950420Y-127700000D02*
X270772000Y-127700000D01*
X270772000Y-127700000D02*
X270745000Y-127673000D01*
D40*
X280210420Y-122180000D02*
X280210420Y-121499580D01*
X285220000Y-119880000D02*
X285220000Y-121600420D01*
X285290000Y-119810000D02*
X285220000Y-119880000D01*
X280440000Y-121270000D02*
X280440000Y-119800000D01*
X280210420Y-121499580D02*
X280440000Y-121270000D01*
X280160420Y-122130000D02*
X279740000Y-122130000D01*
D42*
X279152080Y-121542080D02*
X279740000Y-122130000D01*
X279152080Y-121542080D02*
X278802500Y-121542080D01*
D40*
X280160420Y-122130000D02*
X280210420Y-122180000D01*
X284050000Y-121820000D02*
X285000420Y-121820000D01*
X285000420Y-121820000D02*
X285220000Y-121600420D01*
X284720420Y-123780000D02*
X284720420Y-123439580D01*
X284720420Y-123439580D02*
X285060000Y-123100000D01*
X285060000Y-123100000D02*
X285860000Y-123100000D01*
X285860000Y-123100000D02*
X286070000Y-122890000D01*
X286070000Y-122890000D02*
X286070000Y-122450420D01*
X286070000Y-122450420D02*
X285220000Y-121600420D01*
X278079580Y-114959580D02*
X276820000Y-113700000D01*
X275499580Y-113700000D02*
X275079580Y-114120000D01*
X276820000Y-113700000D02*
X275499580Y-113700000D01*
X286507500Y-115922920D02*
X287630000Y-115922920D01*
X287630000Y-115922920D02*
X290302920Y-115922920D01*
X290302920Y-115922920D02*
X291754580Y-117374580D01*
X291754580Y-117374580D02*
X292750000Y-117374580D01*
X278079580Y-115180000D02*
X278079580Y-114959580D01*
D42*
X272475000Y-116434580D02*
X271154580Y-116434580D01*
X271154580Y-116434580D02*
X269800000Y-115080000D01*
D40*
X274075000Y-115805000D02*
X275125000Y-115805000D01*
X275079580Y-114120000D02*
X275079580Y-115759580D01*
X275079580Y-115759580D02*
X275125000Y-115805000D01*
X292750000Y-117374580D02*
X293499580Y-117374580D01*
X293499580Y-117374580D02*
X294025000Y-117900000D01*
X269410000Y-119960420D02*
X267539580Y-119960420D01*
X267539580Y-119960420D02*
X267250000Y-120250000D01*
X279250420Y-133090000D02*
X279250420Y-132150000D01*
X279250420Y-132150000D02*
X279100000Y-131999580D01*
X272692080Y-118837500D02*
X273387500Y-118837500D01*
X274272080Y-119722080D02*
X275522500Y-119722080D01*
X273387500Y-118837500D02*
X273970000Y-119420000D01*
X273970000Y-119420000D02*
X274272080Y-119722080D01*
X270912500Y-119977500D02*
X270912500Y-120437500D01*
X271510000Y-121035000D02*
X271845000Y-121035000D01*
X270912500Y-120437500D02*
X271510000Y-121035000D01*
X269410000Y-119960420D02*
X270895420Y-119960420D01*
X270895420Y-119960420D02*
X270912500Y-119977500D01*
X291624580Y-130450000D02*
X291624580Y-130745420D01*
X291624580Y-130745420D02*
X291110420Y-131259580D01*
X291110420Y-131259580D02*
X289660000Y-131259580D01*
X283934580Y-132610000D02*
X284160420Y-132610000D01*
X284160420Y-132610000D02*
X284760000Y-133209580D01*
X284350000Y-130880000D02*
X284350000Y-131650000D01*
X283934580Y-132065420D02*
X283934580Y-132610000D01*
X284350000Y-131650000D02*
X283934580Y-132065420D01*
X286660000Y-133209580D02*
X288010420Y-133209580D01*
X288010420Y-133209580D02*
X288709580Y-132510420D01*
X288709580Y-132510420D02*
X288709580Y-131910000D01*
X288709580Y-131910000D02*
X289009580Y-131910000D01*
X289009580Y-131910000D02*
X289660000Y-131259580D01*
X281681250Y-126211250D02*
X281681250Y-127323750D01*
X281681250Y-128436250D02*
X281681250Y-127323750D01*
X282793750Y-128436250D02*
X281681250Y-128436250D01*
X282793750Y-127323750D02*
X282793750Y-128436250D01*
X282793750Y-129548750D02*
X281681250Y-129548750D01*
X282793750Y-129548750D02*
X282793750Y-128436250D01*
X283906250Y-129548750D02*
X282793750Y-129548750D01*
X283906250Y-128436250D02*
X283906250Y-129548750D01*
X283906250Y-127323750D02*
X285018750Y-127323750D01*
X283906250Y-126211250D02*
X283906250Y-127323750D01*
X285018750Y-126211250D02*
X283906250Y-126211250D01*
X285018750Y-128436250D02*
X285018750Y-129548750D01*
X283906250Y-129548750D02*
X285018750Y-129548750D01*
X284350000Y-130880000D02*
X284350000Y-129992500D01*
X284350000Y-129992500D02*
X283906250Y-129548750D01*
X286660000Y-133209580D02*
X285710000Y-133209580D01*
X285710000Y-133209580D02*
X284760000Y-133209580D01*
X282793750Y-126211250D02*
X283906250Y-126211250D01*
X281681250Y-126211250D02*
X282793750Y-126211250D01*
X276062500Y-121442080D02*
X275692080Y-121442080D01*
X275692080Y-121442080D02*
X275222500Y-120972500D01*
X275222500Y-120972500D02*
X275222500Y-120022080D01*
X275222500Y-120022080D02*
X275522500Y-119722080D01*
X275700000Y-131200420D02*
X275139580Y-131200420D01*
X278100000Y-132580000D02*
X278100000Y-132050000D01*
X277680000Y-133000000D02*
X278100000Y-132580000D01*
X275570000Y-133000000D02*
X277680000Y-133000000D01*
X275020000Y-132450000D02*
X275570000Y-133000000D01*
X275020000Y-131320000D02*
X275020000Y-132450000D01*
X275139580Y-131200420D02*
X275020000Y-131320000D01*
X274860000Y-128549580D02*
X274860000Y-130360420D01*
X274860000Y-130360420D02*
X275700000Y-131200420D01*
X280350000Y-128080000D02*
X279210000Y-128080000D01*
X278347500Y-128550000D02*
X277860000Y-128062500D01*
X278740000Y-128550000D02*
X278347500Y-128550000D01*
X279210000Y-128080000D02*
X278740000Y-128550000D01*
X274000000Y-128549580D02*
X274860000Y-128549580D01*
X274860000Y-128549580D02*
X275679160Y-128549580D01*
X275679160Y-128549580D02*
X275760000Y-128630420D01*
X276950000Y-128630420D02*
X275760000Y-128630420D01*
X276950000Y-128630420D02*
X277409580Y-128630420D01*
X277409580Y-128630420D02*
X277860000Y-128180000D01*
X277860000Y-128180000D02*
X277860000Y-128062500D01*
X280350000Y-128080000D02*
X281325000Y-128080000D01*
X281325000Y-128080000D02*
X281681250Y-128436250D01*
X277860000Y-128062500D02*
X277860000Y-127373500D01*
D43*
X298035000Y-113680420D02*
X299520000Y-113680420D01*
X299520000Y-113680420D02*
X299550000Y-113650420D01*
X296575000Y-113650420D02*
X298005000Y-113650420D01*
X298005000Y-113650420D02*
X298035000Y-113680420D01*
D42*
X278852080Y-121492500D02*
X278802500Y-121542080D01*
D40*
X286507500Y-115922920D02*
X286507500Y-115922500D01*
X286507500Y-115922920D02*
X286537080Y-115922920D01*
X286562500Y-115867920D02*
X286507500Y-115922920D01*
X284807080Y-114922080D02*
X285407500Y-115522500D01*
X284807080Y-114572500D02*
X284807080Y-114922080D01*
X286107080Y-115522500D02*
X286507500Y-115922920D01*
X285407500Y-115522500D02*
X286107080Y-115522500D01*
X285407500Y-115522500D02*
X286107080Y-115522500D01*
X286107080Y-115522500D02*
X286507500Y-115922920D01*
X284807080Y-114572500D02*
X284807080Y-114922080D01*
X284807080Y-114922080D02*
X285407500Y-115522500D01*
X286562500Y-115867920D02*
X286507500Y-115922920D01*
X286507500Y-115922920D02*
X286537080Y-115922920D01*
X286507500Y-115922920D02*
X286507500Y-115922500D01*
X277952500Y-121552500D02*
X278792080Y-121552500D01*
X278792080Y-121552500D02*
X278802500Y-121542080D01*
X276952500Y-121552500D02*
X276952500Y-122182500D01*
X277952500Y-122032500D02*
X277952500Y-121552500D01*
X277832500Y-122152500D02*
X277952500Y-122032500D01*
X276982500Y-122152500D02*
X277832500Y-122152500D01*
X276952500Y-122182500D02*
X276982500Y-122152500D01*
X276952500Y-121552500D02*
X276172920Y-121552500D01*
X276172920Y-121552500D02*
X276062500Y-121442080D01*
X293875420Y-132430420D02*
X293875420Y-132700000D01*
X272475000Y-116434580D02*
X272725420Y-116434580D01*
X272725420Y-116434580D02*
X273355000Y-115805000D01*
X273355000Y-115805000D02*
X274075000Y-115805000D01*
X272345420Y-117355000D02*
X272345420Y-116564160D01*
X272345420Y-116564160D02*
X272475000Y-116434580D01*
X298875000Y-131350000D02*
X298875000Y-131425000D01*
D43*
X299550000Y-113650420D02*
X300150420Y-113650420D01*
X300150420Y-113650420D02*
X301575420Y-115075420D01*
D40*
X298174580Y-131425000D02*
X298875000Y-131425000D01*
X298875000Y-131425000D02*
X299625420Y-131425000D01*
X298174580Y-131425000D02*
X298174580Y-129449580D01*
X298174580Y-129449580D02*
X298025000Y-129300000D01*
X294025000Y-130425000D02*
X294025000Y-131500420D01*
X294025000Y-131500420D02*
X293875420Y-131650000D01*
X298224580Y-132600000D02*
X298174580Y-132550000D01*
X298525000Y-117900000D02*
X298525000Y-117075000D01*
X300524580Y-115075420D02*
X301800000Y-115075420D01*
X298525000Y-117075000D02*
X300524580Y-115075420D01*
D43*
X302850000Y-115075420D02*
X303650420Y-115075420D01*
X304750000Y-116175000D02*
X304750000Y-117000420D01*
X303650420Y-115075420D02*
X304750000Y-116175000D01*
X304750000Y-117000420D02*
X305975000Y-117000420D01*
X302850000Y-115075420D02*
X301800000Y-115075420D01*
X301575420Y-115075420D02*
X301800000Y-115075420D01*
D40*
X300025000Y-119125000D02*
X300025000Y-117900000D01*
X296025000Y-129300000D02*
X296025000Y-130250000D01*
X296025000Y-130250000D02*
X295675000Y-130600000D01*
X293875420Y-132700000D02*
X293875420Y-131650000D01*
X298174580Y-132550000D02*
X298174580Y-131425000D01*
X299625420Y-131425000D02*
X299625420Y-132600000D01*
X294525000Y-117900000D02*
X294025000Y-117900000D01*
D43*
X294875000Y-113688000D02*
X296537420Y-113688000D01*
D40*
X296537420Y-113688000D02*
X296575000Y-113650420D01*
X294887420Y-113700420D02*
X294875000Y-113688000D01*
X298525000Y-119100000D02*
X298525000Y-117900000D01*
X297525000Y-119400000D02*
X297525000Y-117900000D01*
X294025000Y-117900000D02*
X294025000Y-118500000D01*
X294025000Y-117900000D02*
X294025000Y-117600000D01*
X294025000Y-117900000D02*
X294025000Y-117700000D01*
X298525000Y-129300000D02*
X298025000Y-129300000D01*
D43*
X298175000Y-119450000D02*
X298175000Y-120500000D01*
X298175000Y-120500000D02*
X298475000Y-120800000D01*
D40*
X293275000Y-125250000D02*
X293525000Y-125500000D01*
X294200000Y-130600000D02*
X294025000Y-130425000D01*
X295000000Y-119450000D02*
X297475000Y-119450000D01*
X298175000Y-119450000D02*
X299700000Y-119450000D01*
X299700000Y-119450000D02*
X300025000Y-119125000D01*
X295675000Y-130600000D02*
X295050000Y-130600000D01*
X297475000Y-119450000D02*
X298175000Y-119450000D01*
X298175000Y-119450000D02*
X298525000Y-119100000D01*
X297475000Y-119450000D02*
X297525000Y-119400000D01*
X291725000Y-128350000D02*
X291624580Y-128450420D01*
X294487500Y-118937500D02*
X295000000Y-119450000D01*
X293475000Y-119950000D02*
X294487500Y-118937500D01*
X294487500Y-118937500D02*
X294525000Y-118900000D01*
X293175000Y-119950000D02*
X293475000Y-119950000D01*
X293175000Y-119950000D02*
X293275000Y-120050000D01*
X293075000Y-119850000D02*
X293175000Y-119950000D01*
X293275000Y-120050000D02*
X293275000Y-122150000D01*
X293275000Y-123800000D02*
X293275000Y-122150000D01*
X293275000Y-122150000D02*
X293275000Y-122250000D01*
X293275000Y-122250000D02*
X293175000Y-122350000D01*
X293275000Y-125025000D02*
X293275000Y-125250000D01*
X293275000Y-123825000D02*
X293275000Y-125025000D01*
X293275000Y-125025000D02*
X293275000Y-125075000D01*
X293275000Y-125075000D02*
X293000000Y-125350000D01*
X293275000Y-123850000D02*
X293275000Y-123825000D01*
X293275000Y-123825000D02*
X293275000Y-123800000D01*
X295050000Y-130600000D02*
X294200000Y-130600000D01*
X295050000Y-130600000D02*
X295025000Y-130600000D01*
X270412500Y-122477500D02*
X270872500Y-122477500D01*
X270872500Y-122477500D02*
X271372500Y-121977500D01*
X271372500Y-121977500D02*
X271372500Y-121507500D01*
X271372500Y-121507500D02*
X271845000Y-121035000D01*
X272112500Y-120767500D02*
X272112500Y-119977500D01*
X271845000Y-121035000D02*
X272112500Y-120767500D01*
X272692080Y-118837500D02*
X272692080Y-118687500D01*
X272112500Y-119977500D02*
X272112500Y-119417080D01*
X272112500Y-119417080D02*
X272692080Y-118837500D01*
X279100000Y-131999580D02*
X279349580Y-131999580D01*
X275950420Y-130950000D02*
X275700000Y-131200420D01*
X276700000Y-130950000D02*
X275950420Y-130950000D01*
X279100000Y-131999580D02*
X278150420Y-131999580D01*
X278150420Y-131999580D02*
X278100000Y-132050000D01*
X294025000Y-129300000D02*
X291699580Y-129300000D01*
X291699580Y-129300000D02*
X291624580Y-129375000D01*
X291624580Y-128450420D02*
X291624580Y-129375000D01*
X291624580Y-130450000D02*
X291624580Y-129375000D01*
X294025000Y-129300000D02*
X294025000Y-130425000D01*
X295025000Y-130600000D02*
X295025000Y-129300000D01*
X293000000Y-125350000D02*
X292075000Y-125350000D01*
X292075000Y-124350000D02*
X292075000Y-123850000D01*
X292075000Y-125350000D02*
X292075000Y-125850000D01*
X292075000Y-125850000D02*
X292075000Y-126350000D01*
X292075000Y-119850000D02*
X293075000Y-119850000D01*
X292075000Y-123850000D02*
X293275000Y-123850000D01*
X294525000Y-118900000D02*
X294525000Y-117900000D01*
X293175000Y-122350000D02*
X292075000Y-122350000D01*
D44*
X278200420Y-131999580D02*
X278100000Y-132100000D01*
D40*
X286282500Y-123362500D02*
X286037080Y-123362500D01*
X286037080Y-123362500D02*
X285619580Y-123780000D01*
X285550000Y-124880000D02*
X285550000Y-123849580D01*
X285550000Y-123849580D02*
X285619580Y-123780000D01*
X287095000Y-122320000D02*
X287210000Y-122435000D01*
X274310000Y-121150000D02*
X274310000Y-122085420D01*
X274380000Y-121080000D02*
X274310000Y-121150000D01*
X289925000Y-129375000D02*
X289760000Y-129210000D01*
X290725420Y-129375000D02*
X289925000Y-129375000D01*
D42*
X280149580Y-132100000D02*
X280740000Y-132100000D01*
X280760000Y-132120000D02*
X280740000Y-132100000D01*
X273050000Y-125880000D02*
X273040000Y-125870000D01*
X273040000Y-125870000D02*
X273040000Y-124899580D01*
D40*
X269410000Y-120859580D02*
X269410000Y-121390000D01*
X279352920Y-120642920D02*
X278802500Y-120642920D01*
X279820000Y-121110000D02*
X279352920Y-120642920D01*
X269410000Y-121390000D02*
X269380000Y-121420000D01*
X280350000Y-130080000D02*
X280310000Y-130080000D01*
X280310000Y-130080000D02*
X280149580Y-130240420D01*
X280149580Y-130240420D02*
X280149580Y-132100000D01*
X280149580Y-132100000D02*
X280149580Y-133090000D01*
X286282500Y-123362500D02*
X287210000Y-122435000D01*
X288435000Y-122435000D02*
X287210000Y-122435000D01*
X270412500Y-120477500D02*
X269792080Y-120477500D01*
X269792080Y-120477500D02*
X269410000Y-120859580D01*
X285710000Y-132310420D02*
X285710000Y-131860000D01*
X285710000Y-131860000D02*
X285625000Y-131775000D01*
X285550000Y-131700000D02*
X285550000Y-130880000D01*
X285625000Y-131775000D02*
X285550000Y-131700000D01*
X292075000Y-127350000D02*
X291015000Y-127350000D01*
X290725420Y-127639580D02*
X290725420Y-129375000D01*
X291015000Y-127350000D02*
X290860000Y-127505000D01*
X290860000Y-127505000D02*
X290725420Y-127639580D01*
X278802500Y-120642920D02*
X278842080Y-120642920D01*
X277952500Y-120552500D02*
X278712080Y-120552500D01*
X278712080Y-120552500D02*
X278802500Y-120642920D01*
X290725420Y-130450000D02*
X290725420Y-129375000D01*
X293775000Y-127350000D02*
X294625000Y-127350000D01*
X295525000Y-128250000D02*
X295525000Y-129300000D01*
X294625000Y-127350000D02*
X295525000Y-128250000D01*
X292075000Y-127350000D02*
X293775000Y-127350000D01*
X294525000Y-128100000D02*
X294525000Y-129300000D01*
X293775000Y-127350000D02*
X294525000Y-128100000D01*
X284360000Y-115522500D02*
X284360000Y-115575000D01*
X284360000Y-115840000D02*
X284360000Y-115575000D01*
X284400000Y-115880000D02*
X284360000Y-115840000D01*
X283907920Y-114572500D02*
X283907920Y-114427080D01*
X284307500Y-115522500D02*
X284360000Y-115522500D01*
X284360000Y-115522500D02*
X283507500Y-115522500D01*
X284957500Y-116172500D02*
X284557500Y-115772500D01*
X285407500Y-116172500D02*
X284957500Y-116172500D01*
X283907920Y-115122080D02*
X283507500Y-115522500D01*
X283907920Y-114572500D02*
X283907920Y-115122080D01*
X283907920Y-114572500D02*
X283907920Y-115122080D01*
X283907920Y-115122080D02*
X283507500Y-115522500D01*
X285407500Y-116172500D02*
X284957500Y-116172500D01*
X284957500Y-116172500D02*
X284557500Y-115772500D01*
X284307500Y-115522500D02*
X283507500Y-115522500D01*
X284557500Y-115772500D02*
X284307500Y-115522500D01*
X301800000Y-115974580D02*
X301425420Y-115974580D01*
X300525000Y-116875000D02*
X300525000Y-117900000D01*
X301425420Y-115974580D02*
X300525000Y-116875000D01*
X299025000Y-129300000D02*
X299025000Y-130400000D01*
X300524580Y-131049580D02*
X300524580Y-131425000D01*
X300125000Y-130650000D02*
X300524580Y-131049580D01*
X299275000Y-130650000D02*
X300125000Y-130650000D01*
X299025000Y-130400000D02*
X299275000Y-130650000D01*
X296525000Y-129300000D02*
X296525000Y-130250000D01*
X295125000Y-131650000D02*
X294774580Y-131650000D01*
X296525000Y-130250000D02*
X295125000Y-131650000D01*
X302850000Y-115974580D02*
X303324580Y-115974580D01*
X304049580Y-117899580D02*
X304750000Y-117899580D01*
X303950000Y-117800000D02*
X304049580Y-117899580D01*
X303950000Y-116600000D02*
X303950000Y-117800000D01*
X303324580Y-115974580D02*
X303950000Y-116600000D01*
X299525000Y-117900000D02*
X299525000Y-117100000D01*
X299525000Y-117100000D02*
X300650420Y-115974580D01*
X300650420Y-115974580D02*
X301800000Y-115974580D01*
D43*
X302850000Y-115974580D02*
X301800000Y-115974580D01*
X305975000Y-117899580D02*
X304750000Y-117899580D01*
D40*
X294774580Y-131650000D02*
X294774580Y-132700000D01*
X298075000Y-127750000D02*
X296825000Y-127750000D01*
X296525000Y-128050000D02*
X296525000Y-129300000D01*
X296825000Y-127750000D02*
X296525000Y-128050000D01*
X297525000Y-129300000D02*
X297525000Y-128175000D01*
X297950000Y-127750000D02*
X298075000Y-127750000D01*
X298075000Y-127750000D02*
X299450000Y-127750000D01*
X297525000Y-128175000D02*
X297950000Y-127750000D01*
X299025000Y-129300000D02*
X299025000Y-128175000D01*
X299850000Y-127350000D02*
X303475000Y-127350000D01*
X299025000Y-128175000D02*
X299450000Y-127750000D01*
X299450000Y-127750000D02*
X299850000Y-127350000D01*
X300524580Y-132600000D02*
X300524580Y-131425000D01*
X300525000Y-117900000D02*
X300525000Y-119150000D01*
X300525000Y-119150000D02*
X300525000Y-121775000D01*
X302600000Y-123850000D02*
X303475000Y-123850000D01*
X300525000Y-121775000D02*
X302600000Y-123850000D01*
X303475000Y-125850000D02*
X303475000Y-126350000D01*
X303475000Y-126850000D02*
X303475000Y-127350000D01*
X303475000Y-123850000D02*
X303475000Y-124350000D01*
X299074580Y-129349580D02*
X299025000Y-129300000D01*
X303475000Y-125350000D02*
X303475000Y-125850000D01*
X303475000Y-126350000D02*
X303475000Y-126850000D01*
X303475000Y-124850000D02*
X303475000Y-125350000D01*
X303475000Y-124350000D02*
X303475000Y-124850000D01*
X296524580Y-129300420D02*
X296525000Y-129300000D01*
X296524580Y-129300420D02*
X296525000Y-129300000D01*
X299025000Y-117900000D02*
X299525000Y-117900000D01*
X308015420Y-123000000D02*
X305475000Y-123000000D01*
X304825000Y-122350000D02*
X303475000Y-122350000D01*
X305475000Y-123000000D02*
X304825000Y-122350000D01*
X303425000Y-122300000D02*
X303475000Y-122350000D01*
X303475000Y-121850000D02*
X305095000Y-121850000D01*
X305635000Y-122390000D02*
X305975420Y-122390000D01*
X305095000Y-121850000D02*
X305635000Y-122390000D01*
X303475000Y-120850000D02*
X305850420Y-120850000D01*
X305850420Y-120850000D02*
X305950420Y-120950000D01*
X303475000Y-119850000D02*
X305825420Y-119850000D01*
X305825420Y-119850000D02*
X305975420Y-119700000D01*
X305825420Y-119850000D02*
X305975420Y-119700000D01*
X306800420Y-118575000D02*
X302200000Y-118575000D01*
X302200000Y-118575000D02*
X301525000Y-117900000D01*
X286350000Y-126880000D02*
X286884510Y-126880000D01*
X290570000Y-120350000D02*
X292075000Y-120350000D01*
X289910000Y-121010000D02*
X290570000Y-120350000D01*
X289910000Y-123854510D02*
X289910000Y-121010000D01*
X286884510Y-126880000D02*
X289910000Y-123854510D01*
X292025000Y-120300000D02*
X292075000Y-120350000D01*
X286350000Y-128480000D02*
X287065000Y-128480000D01*
X290695000Y-124850000D02*
X292075000Y-124850000D01*
X287065000Y-128480000D02*
X290695000Y-124850000D01*
X312115000Y-130350000D02*
X306950420Y-130350000D01*
X306950420Y-130350000D02*
X306950000Y-130350420D01*
D43*
X306950000Y-130350420D02*
X305850000Y-130350420D01*
D40*
X306874580Y-122390000D02*
X309765000Y-122390000D01*
X309765000Y-122390000D02*
X311655000Y-124280000D01*
X311655000Y-124280000D02*
X311655000Y-124320000D01*
X306849580Y-120950000D02*
X310675000Y-120950000D01*
X310675000Y-120950000D02*
X311505000Y-121780000D01*
X311505000Y-121780000D02*
X311655000Y-121780000D01*
X306874580Y-119700000D02*
X307425000Y-119700000D01*
X307885000Y-119240000D02*
X311655000Y-119240000D01*
X307425000Y-119700000D02*
X307885000Y-119240000D01*
X310925000Y-119420000D02*
X311105000Y-119240000D01*
X280560000Y-117139580D02*
X280560000Y-117999580D01*
X280560000Y-117999580D02*
X282560420Y-120000000D01*
X281109580Y-122180000D02*
X281109580Y-120900420D01*
X281109580Y-120900420D02*
X282010000Y-120000000D01*
X282010000Y-120000000D02*
X282560420Y-120000000D01*
X282150000Y-122470000D02*
X281399580Y-122470000D01*
X281399580Y-122470000D02*
X281109580Y-122180000D01*
X282150000Y-122470000D02*
X282110000Y-122470000D01*
X281970000Y-122470000D02*
X282150000Y-122470000D01*
X276175000Y-115005000D02*
X276175000Y-114375000D01*
X273950000Y-118230000D02*
X273950000Y-118220000D01*
X273940000Y-118220000D02*
X273950000Y-118230000D01*
X273930000Y-118230000D02*
X273940000Y-118220000D01*
X276175000Y-114375000D02*
X276130000Y-114330000D01*
X280560000Y-116640000D02*
X280560000Y-117139580D01*
X280560000Y-117139580D02*
X279969580Y-117730000D01*
X280560000Y-116640000D02*
X281763000Y-116640000D01*
X281763000Y-116640000D02*
X281857500Y-116734500D01*
X280560000Y-116640000D02*
X280560000Y-114899580D01*
X280560000Y-114899580D02*
X280699580Y-114760000D01*
X277672500Y-119022500D02*
X277917500Y-119022500D01*
X277917500Y-119022500D02*
X278630000Y-118310000D01*
X278630000Y-118310000D02*
X279389580Y-118310000D01*
X279389580Y-118310000D02*
X279969580Y-117730000D01*
X267250000Y-117710000D02*
X270370000Y-117710000D01*
X270370000Y-117710000D02*
X270880000Y-118220000D01*
X270880000Y-118220000D02*
X273950000Y-118220000D01*
X273950000Y-118220000D02*
X274919580Y-118220000D01*
X274919580Y-118220000D02*
X275522500Y-118822920D01*
X281762580Y-116639580D02*
X281857500Y-116734500D01*
X276692500Y-118782920D02*
X275562500Y-118782920D01*
X275562500Y-118782920D02*
X275522500Y-118822920D01*
X277672500Y-119022500D02*
X276932080Y-119022500D01*
X276932080Y-119022500D02*
X276692500Y-118782920D01*
X281857500Y-116734500D02*
X281559500Y-116734500D01*
X285507920Y-116722080D02*
X285407500Y-116822500D01*
D43*
X285407500Y-116822500D02*
X284177500Y-116822500D01*
X284177500Y-116822500D02*
X283507500Y-116822500D01*
D40*
X283419500Y-116734500D02*
X283507500Y-116822500D01*
D43*
X286507500Y-116822080D02*
X285407920Y-116822080D01*
D40*
X285407920Y-116822080D02*
X285407500Y-116822500D01*
D43*
X281857500Y-116734500D02*
X281857500Y-116797500D01*
X281945500Y-116822500D02*
X281857500Y-116734500D01*
X283507500Y-116822500D02*
X281945500Y-116822500D01*
X283507500Y-116822500D02*
X281945500Y-116822500D01*
X281945500Y-116822500D02*
X281857500Y-116734500D01*
X281857500Y-116734500D02*
X281857500Y-116797500D01*
D40*
X285407920Y-116822080D02*
X285407500Y-116822500D01*
D43*
X286507500Y-116822080D02*
X285407920Y-116822080D01*
D40*
X283419500Y-116734500D02*
X283507500Y-116822500D01*
D43*
X285407500Y-116822500D02*
X283507500Y-116822500D01*
D40*
X285507920Y-116722080D02*
X285407500Y-116822500D01*
X276742920Y-118732500D02*
X276692500Y-118782920D01*
X305850000Y-131249580D02*
X301864580Y-131249580D01*
X301025000Y-130410000D02*
X301025000Y-129300000D01*
X301864580Y-131249580D02*
X301025000Y-130410000D01*
X300525000Y-129300000D02*
X301025000Y-129300000D01*
X300525420Y-129300420D02*
X300525000Y-129300000D01*
X305750000Y-131349580D02*
X305850000Y-131249580D01*
D43*
X305850000Y-131249580D02*
X306950000Y-131249580D01*
D41*
X274000000Y-127699580D02*
X272850000Y-127699580D01*
X272850000Y-127699580D02*
X272849580Y-127700000D01*
X275150420Y-127700000D02*
X274000420Y-127700000D01*
X274000420Y-127700000D02*
X274000000Y-127699580D01*
D40*
X282819500Y-116172500D02*
X281857500Y-115210500D01*
X283507500Y-116172500D02*
X282819500Y-116172500D01*
X283507500Y-116172500D02*
X282819500Y-116172500D01*
X282819500Y-116172500D02*
X281857500Y-115210500D01*
X308025420Y-121630000D02*
X305595000Y-121630000D01*
X305315000Y-121350000D02*
X303475000Y-121350000D01*
X305595000Y-121630000D02*
X305315000Y-121350000D01*
X303475000Y-120350000D02*
X307750000Y-120350000D01*
X307750000Y-120350000D02*
X308025000Y-120075000D01*
X308025000Y-120075000D02*
X308025420Y-120075000D01*
X308025420Y-124470000D02*
X305615000Y-124470000D01*
X304495000Y-123350000D02*
X303475000Y-123350000D01*
X305615000Y-124470000D02*
X304495000Y-123350000D01*
X303475000Y-122850000D02*
X304725000Y-122850000D01*
X305485000Y-123610000D02*
X305975420Y-123610000D01*
X304725000Y-122850000D02*
X305485000Y-123610000D01*
X307699580Y-118575000D02*
X308800000Y-118575000D01*
X308800000Y-118575000D02*
X312375000Y-115000000D01*
X311655000Y-126860000D02*
X311535000Y-126860000D01*
X311535000Y-126860000D02*
X309625000Y-124950000D01*
X309625000Y-124950000D02*
X309625000Y-124100000D01*
X309625000Y-124100000D02*
X309135000Y-123610000D01*
X309135000Y-123610000D02*
X306874580Y-123610000D01*
X299520000Y-114579580D02*
X299550000Y-114549580D01*
X298035000Y-114579580D02*
X299520000Y-114579580D01*
X298035000Y-114579580D02*
X298035000Y-117890000D01*
X298035000Y-117890000D02*
X298025000Y-117900000D01*
X297025000Y-117900000D02*
X297025000Y-114999580D01*
X297025000Y-114999580D02*
X296575000Y-114549580D01*
X296025000Y-117900000D02*
X296025000Y-116362000D01*
D43*
X296025000Y-116362000D02*
X294875000Y-115212000D01*
D40*
X295975000Y-117850000D02*
X296025000Y-117900000D01*
X297275420Y-131425000D02*
X297275420Y-130650420D01*
X297025000Y-130400000D02*
X297025000Y-129300000D01*
X297275420Y-130650420D02*
X297025000Y-130400000D01*
X297400000Y-131300420D02*
X297275420Y-131425000D01*
X297275420Y-132550000D02*
X297275420Y-131425000D01*
X292750000Y-116475420D02*
X294645420Y-116475420D01*
X295025000Y-116855000D02*
X295025000Y-117900000D01*
X294645420Y-116475420D02*
X295025000Y-116855000D01*
X286350000Y-126080000D02*
X287065000Y-126080000D01*
X288435000Y-124710000D02*
X288435000Y-124035000D01*
X287065000Y-126080000D02*
X288435000Y-124710000D01*
X286350000Y-125680000D02*
X286765000Y-125680000D01*
X287210000Y-125235000D02*
X287210000Y-124035000D01*
X286765000Y-125680000D02*
X287210000Y-125235000D01*
X286350000Y-125680000D02*
X286665000Y-125680000D01*
X286350000Y-127280000D02*
X286915000Y-127280000D01*
X290845000Y-121350000D02*
X292075000Y-121350000D01*
X290260000Y-121935000D02*
X290845000Y-121350000D01*
X290260000Y-123935000D02*
X290260000Y-121935000D01*
X286915000Y-127280000D02*
X290260000Y-123935000D01*
D42*
X292025000Y-120900000D02*
X292075000Y-120850000D01*
D40*
X292025000Y-120900000D02*
X292075000Y-120850000D01*
X292075000Y-120850000D02*
X292075000Y-121350000D01*
X308924580Y-120075000D02*
X310350000Y-120075000D01*
X312935000Y-120500000D02*
X314195000Y-119240000D01*
X310775000Y-120500000D02*
X312935000Y-120500000D01*
X310350000Y-120075000D02*
X310775000Y-120500000D01*
X308924580Y-121630000D02*
X309755000Y-121630000D01*
X312875000Y-123100000D02*
X314195000Y-121780000D01*
X311225000Y-123100000D02*
X312875000Y-123100000D01*
X309755000Y-121630000D02*
X311225000Y-123100000D01*
X308914580Y-123000000D02*
X309125000Y-123000000D01*
X312965000Y-125550000D02*
X314195000Y-124320000D01*
X310925000Y-125550000D02*
X312965000Y-125550000D01*
X310475000Y-125100000D02*
X310925000Y-125550000D01*
X310475000Y-124350000D02*
X310475000Y-125100000D01*
X309125000Y-123000000D02*
X310475000Y-124350000D01*
X308914580Y-123000000D02*
X309085000Y-123000000D01*
X308924580Y-124470000D02*
X308924580Y-126499580D01*
X312955000Y-128100000D02*
X314195000Y-126860000D01*
X310525000Y-128100000D02*
X312955000Y-128100000D01*
X308924580Y-126499580D02*
X310525000Y-128100000D01*
X276700000Y-132050000D02*
X277070000Y-132050000D01*
X277070000Y-132050000D02*
X277420000Y-131700000D01*
X279750000Y-129280000D02*
X280350000Y-129280000D01*
X279350000Y-129680000D02*
X279750000Y-129280000D01*
X277420000Y-131700000D02*
X277420000Y-130230000D01*
X277100000Y-132050000D02*
X276700000Y-132050000D01*
X275700000Y-132099580D02*
X276650420Y-132099580D01*
X276700000Y-132050000D02*
X276850000Y-132050000D01*
X276650420Y-132099580D02*
X276700000Y-132050000D01*
D44*
X276950000Y-132100000D02*
X276700000Y-132100000D01*
X276699580Y-132099580D02*
X276700000Y-132100000D01*
D40*
X277970000Y-129680000D02*
X279350000Y-129680000D01*
X277420000Y-130230000D02*
X277970000Y-129680000D01*
X280350000Y-129680000D02*
X279780490Y-129680000D01*
X279100000Y-130360490D02*
X279100000Y-131100420D01*
X279780490Y-129680000D02*
X279100000Y-130360490D01*
X278100000Y-130950000D02*
X278949580Y-130950000D01*
X278949580Y-130950000D02*
X279100000Y-131100420D01*
X286350000Y-129680000D02*
X286930000Y-129680000D01*
X286930000Y-129680000D02*
X287960000Y-130710000D01*
X288260000Y-130710000D02*
X288260000Y-131010000D01*
X288260000Y-131010000D02*
X287810420Y-131459580D01*
X287810420Y-131459580D02*
X287810420Y-131910000D01*
X287960000Y-130710000D02*
X288260000Y-130710000D01*
X289660000Y-130360420D02*
X289510420Y-130360420D01*
X289510420Y-130360420D02*
X289160000Y-130010000D01*
X289160000Y-130010000D02*
X288960000Y-130010000D01*
X288960000Y-130010000D02*
X288260000Y-129310000D01*
X288260000Y-129310000D02*
X286380000Y-129310000D01*
X286380000Y-129310000D02*
X286350000Y-129280000D01*
X287880000Y-129280000D02*
X287910000Y-129310000D01*
X280350000Y-127680000D02*
X278492500Y-127680000D01*
X278492500Y-127680000D02*
X278472500Y-127700000D01*
X279680000Y-128880000D02*
X280350000Y-128880000D01*
X279225245Y-129334755D02*
X279680000Y-128880000D01*
X277724405Y-129334755D02*
X279225245Y-129334755D01*
X277529580Y-129529580D02*
X277724405Y-129334755D01*
X276950000Y-129529580D02*
X277529580Y-129529580D01*
X271712500Y-119977500D02*
X271712500Y-118917920D01*
X271712500Y-118917920D02*
X271792920Y-118837500D01*
X281550000Y-124880000D02*
X281550000Y-124440000D01*
X275021438Y-123696018D02*
X274310000Y-122984580D01*
X280806018Y-123696018D02*
X275021438Y-123696018D01*
X281550000Y-124440000D02*
X280806018Y-123696018D01*
X274310000Y-122984580D02*
X272919580Y-122984580D01*
X272919580Y-122984580D02*
X272912500Y-122977500D01*
X273040000Y-124000420D02*
X280270420Y-124000420D01*
X280270420Y-124000420D02*
X281150000Y-124880000D01*
X272512500Y-122977500D02*
X272512500Y-123472920D01*
X272512500Y-123472920D02*
X273040000Y-124000420D01*
X281150000Y-124880000D02*
X281150000Y-124649580D01*
X283035420Y-132610000D02*
X283035420Y-133495000D01*
X283035420Y-133495000D02*
X283030420Y-133500000D01*
X283550000Y-130880000D02*
X283550000Y-131520000D01*
X283550000Y-131520000D02*
X283035420Y-132034580D01*
X283035420Y-132034580D02*
X283035420Y-132610000D01*
X283929580Y-133500000D02*
X283940000Y-133500000D01*
X283940000Y-133500000D02*
X284190000Y-133750000D01*
X284190000Y-133750000D02*
X288220000Y-133750000D01*
X288220000Y-133750000D02*
X289790000Y-132180000D01*
X283770000Y-123230000D02*
X284050000Y-122950000D01*
X284050000Y-122950000D02*
X284050000Y-122470000D01*
X284050000Y-122470000D02*
X285190420Y-122470000D01*
X285190420Y-122470000D02*
X285220000Y-122499580D01*
X284050000Y-122470000D02*
X284299580Y-122470000D01*
D42*
X267260000Y-114590000D02*
X267260000Y-115080000D01*
X268020000Y-113830000D02*
X267260000Y-114590000D01*
X270880000Y-113830000D02*
X268020000Y-113830000D01*
X272055000Y-115005000D02*
X270880000Y-113830000D01*
X274075000Y-115005000D02*
X272055000Y-115005000D01*
D40*
X274075000Y-115005000D02*
X274075000Y-114225420D01*
X274075000Y-114225420D02*
X274180420Y-114120000D01*
X276952500Y-120552500D02*
X276952500Y-119942080D01*
X276952500Y-119942080D02*
X276692500Y-119682080D01*
X276692500Y-119682080D02*
X276692500Y-119912920D01*
X276692500Y-119912920D02*
X276062500Y-120542920D01*
X279070420Y-117730000D02*
X277390000Y-117730000D01*
X277390000Y-117730000D02*
X277380000Y-117740000D01*
X274075000Y-116605000D02*
X274075000Y-116635000D01*
X274075000Y-116635000D02*
X275180000Y-117740000D01*
X275180000Y-117740000D02*
X275780000Y-117740000D01*
X275570000Y-117490000D02*
X275610000Y-117530000D01*
X279800420Y-114760000D02*
X279800420Y-114709580D01*
X279800420Y-114709580D02*
X280800000Y-113710000D01*
X276175000Y-115805000D02*
X278635000Y-115805000D01*
X279200000Y-115240000D02*
X279200000Y-113710000D01*
X278635000Y-115805000D02*
X279200000Y-115240000D01*
X277452500Y-120552500D02*
X277452500Y-119992500D01*
X279172500Y-119622500D02*
X279172500Y-119022500D01*
X278972500Y-119822500D02*
X279172500Y-119622500D01*
X277622500Y-119822500D02*
X278972500Y-119822500D01*
X277452500Y-119992500D02*
X277622500Y-119822500D01*
X272475000Y-115535420D02*
X273184580Y-115535420D01*
X273315000Y-115405000D02*
X274075000Y-115405000D01*
X273184580Y-115535420D02*
X273315000Y-115405000D01*
X274075000Y-116205000D02*
X273515000Y-116205000D01*
X273405000Y-116315000D02*
X273405000Y-117194580D01*
X273515000Y-116205000D02*
X273405000Y-116315000D01*
X273405000Y-117194580D02*
X273244580Y-117355000D01*
X281950000Y-124880000D02*
X281950000Y-124190000D01*
X277180420Y-114850420D02*
X276840000Y-114510000D01*
X277180420Y-114850420D02*
X277180420Y-115180000D01*
X275600000Y-123300000D02*
X275420000Y-123120000D01*
X281060000Y-123300000D02*
X275600000Y-123300000D01*
X281950000Y-124190000D02*
X281060000Y-123300000D01*
X276175000Y-115405000D02*
X276955420Y-115405000D01*
X276955420Y-115405000D02*
X277180420Y-115180000D01*
X276180000Y-115410000D02*
X276175000Y-115405000D01*
X284050000Y-121170000D02*
X284050000Y-120590420D01*
X284050000Y-120590420D02*
X283459580Y-120000000D01*
X284050000Y-121170000D02*
X283830000Y-121170000D01*
X283830000Y-121170000D02*
X283150000Y-121850000D01*
X283150000Y-121850000D02*
X283150000Y-124880000D01*
X282150000Y-121170000D02*
X282150000Y-121240000D01*
X282150000Y-121240000D02*
X282750000Y-121840000D01*
X282750000Y-121840000D02*
X282750000Y-124880000D01*
X282350000Y-124880000D02*
X282350000Y-123910000D01*
X277105000Y-116205000D02*
X277270000Y-116370000D01*
X277105000Y-116205000D02*
X276175000Y-116205000D01*
X276480000Y-122880000D02*
X276090000Y-122490000D01*
X281320000Y-122880000D02*
X276480000Y-122880000D01*
X282350000Y-123910000D02*
X281320000Y-122880000D01*
X284750000Y-130880000D02*
X284750000Y-132300420D01*
X284750000Y-132300420D02*
X284760000Y-132310420D01*
D45*
G36*
X293336673Y-128190302D02*
X293240000Y-128423691D01*
X293240000Y-129014250D01*
X293398750Y-129173000D01*
X293727560Y-129173000D01*
X293727560Y-129427000D01*
X293398750Y-129427000D01*
X293240000Y-129585750D01*
X293240000Y-130176309D01*
X293336673Y-130409698D01*
X293515301Y-130588327D01*
X293748690Y-130685000D01*
X293791250Y-130685000D01*
X293948871Y-130527379D01*
X294123110Y-130646431D01*
X294244830Y-130671080D01*
X294258750Y-130685000D01*
X294301310Y-130685000D01*
X294305335Y-130683333D01*
X294375000Y-130697440D01*
X294675000Y-130697440D01*
X294746323Y-130684020D01*
X294748690Y-130685000D01*
X294791250Y-130685000D01*
X294802871Y-130673379D01*
X294910317Y-130653162D01*
X295024978Y-130579380D01*
X295123082Y-130646412D01*
X295051046Y-130718448D01*
X294973970Y-130702840D01*
X294575190Y-130702840D01*
X294339873Y-130747118D01*
X294315636Y-130762714D01*
X294201119Y-130715280D01*
X294133865Y-130715280D01*
X293975115Y-130874030D01*
X293975115Y-131116385D01*
X293927750Y-131350280D01*
X293927750Y-131949720D01*
X293971696Y-132183270D01*
X293927750Y-132400280D01*
X293927750Y-132847000D01*
X293775725Y-132847000D01*
X293775725Y-132827000D01*
X293199780Y-132827000D01*
X293041030Y-132985750D01*
X293041030Y-133126030D01*
X293137703Y-133359419D01*
X293263285Y-133485000D01*
X289490506Y-133485000D01*
X289906404Y-133069102D01*
X289966057Y-133069154D01*
X290292920Y-132934097D01*
X290543218Y-132684236D01*
X290678846Y-132357609D01*
X290679154Y-132003943D01*
X290650978Y-131935750D01*
X293041030Y-131935750D01*
X293041030Y-132076030D01*
X293082025Y-132175000D01*
X293041030Y-132273970D01*
X293041030Y-132414250D01*
X293199780Y-132573000D01*
X293521426Y-132573000D01*
X293549721Y-132584720D01*
X293616975Y-132584720D01*
X293628695Y-132573000D01*
X293775725Y-132573000D01*
X293775725Y-131777000D01*
X293628695Y-131777000D01*
X293616975Y-131765280D01*
X293549721Y-131765280D01*
X293521426Y-131777000D01*
X293199780Y-131777000D01*
X293041030Y-131935750D01*
X290650978Y-131935750D01*
X290550388Y-131692306D01*
X290594720Y-131585279D01*
X290594720Y-131518025D01*
X290463277Y-131386582D01*
X290473795Y-131386582D01*
X290526030Y-131397160D01*
X290924810Y-131397160D01*
X291160127Y-131352882D01*
X291184364Y-131337286D01*
X291298881Y-131384720D01*
X291366135Y-131384720D01*
X291524885Y-131225970D01*
X291524885Y-130983615D01*
X291572250Y-130749720D01*
X291572250Y-130577000D01*
X291724275Y-130577000D01*
X291724275Y-131225970D01*
X291883025Y-131384720D01*
X291950279Y-131384720D01*
X292183668Y-131288047D01*
X292247745Y-131223970D01*
X293041030Y-131223970D01*
X293041030Y-131364250D01*
X293199780Y-131523000D01*
X293775725Y-131523000D01*
X293775725Y-130874030D01*
X293616975Y-130715280D01*
X293549721Y-130715280D01*
X293316332Y-130811953D01*
X293137703Y-130990581D01*
X293041030Y-131223970D01*
X292247745Y-131223970D01*
X292362297Y-131109419D01*
X292458970Y-130876030D01*
X292458970Y-130735750D01*
X292300220Y-130577000D01*
X291724275Y-130577000D01*
X291572250Y-130577000D01*
X291572250Y-130150280D01*
X291527972Y-129914963D01*
X291524885Y-129910166D01*
X291524885Y-129908615D01*
X291572250Y-129674720D01*
X291572250Y-129502000D01*
X291724275Y-129502000D01*
X291724275Y-130323000D01*
X292300220Y-130323000D01*
X292458970Y-130164250D01*
X292458970Y-130023970D01*
X292412798Y-129912500D01*
X292458970Y-129801030D01*
X292458970Y-129660750D01*
X292300220Y-129502000D01*
X291724275Y-129502000D01*
X291572250Y-129502000D01*
X291572250Y-129075280D01*
X291527972Y-128839963D01*
X291524885Y-128835166D01*
X291524885Y-128599030D01*
X291724275Y-128599030D01*
X291724275Y-129248000D01*
X292300220Y-129248000D01*
X292458970Y-129089250D01*
X292458970Y-128948970D01*
X292362297Y-128715581D01*
X292183668Y-128536953D01*
X291950279Y-128440280D01*
X291883025Y-128440280D01*
X291724275Y-128599030D01*
X291524885Y-128599030D01*
X291436420Y-128510565D01*
X291436420Y-128147440D01*
X292825000Y-128147440D01*
X293060317Y-128103162D01*
X293125839Y-128061000D01*
X293465974Y-128061000D01*
X293336673Y-128190302D01*
X293336673Y-128190302D01*
G37*
X293336673Y-128190302D02*
X293240000Y-128423691D01*
X293240000Y-129014250D01*
X293398750Y-129173000D01*
X293727560Y-129173000D01*
X293727560Y-129427000D01*
X293398750Y-129427000D01*
X293240000Y-129585750D01*
X293240000Y-130176309D01*
X293336673Y-130409698D01*
X293515301Y-130588327D01*
X293748690Y-130685000D01*
X293791250Y-130685000D01*
X293948871Y-130527379D01*
X294123110Y-130646431D01*
X294244830Y-130671080D01*
X294258750Y-130685000D01*
X294301310Y-130685000D01*
X294305335Y-130683333D01*
X294375000Y-130697440D01*
X294675000Y-130697440D01*
X294746323Y-130684020D01*
X294748690Y-130685000D01*
X294791250Y-130685000D01*
X294802871Y-130673379D01*
X294910317Y-130653162D01*
X295024978Y-130579380D01*
X295123082Y-130646412D01*
X295051046Y-130718448D01*
X294973970Y-130702840D01*
X294575190Y-130702840D01*
X294339873Y-130747118D01*
X294315636Y-130762714D01*
X294201119Y-130715280D01*
X294133865Y-130715280D01*
X293975115Y-130874030D01*
X293975115Y-131116385D01*
X293927750Y-131350280D01*
X293927750Y-131949720D01*
X293971696Y-132183270D01*
X293927750Y-132400280D01*
X293927750Y-132847000D01*
X293775725Y-132847000D01*
X293775725Y-132827000D01*
X293199780Y-132827000D01*
X293041030Y-132985750D01*
X293041030Y-133126030D01*
X293137703Y-133359419D01*
X293263285Y-133485000D01*
X289490506Y-133485000D01*
X289906404Y-133069102D01*
X289966057Y-133069154D01*
X290292920Y-132934097D01*
X290543218Y-132684236D01*
X290678846Y-132357609D01*
X290679154Y-132003943D01*
X290650978Y-131935750D01*
X293041030Y-131935750D01*
X293041030Y-132076030D01*
X293082025Y-132175000D01*
X293041030Y-132273970D01*
X293041030Y-132414250D01*
X293199780Y-132573000D01*
X293521426Y-132573000D01*
X293549721Y-132584720D01*
X293616975Y-132584720D01*
X293628695Y-132573000D01*
X293775725Y-132573000D01*
X293775725Y-131777000D01*
X293628695Y-131777000D01*
X293616975Y-131765280D01*
X293549721Y-131765280D01*
X293521426Y-131777000D01*
X293199780Y-131777000D01*
X293041030Y-131935750D01*
X290650978Y-131935750D01*
X290550388Y-131692306D01*
X290594720Y-131585279D01*
X290594720Y-131518025D01*
X290463277Y-131386582D01*
X290473795Y-131386582D01*
X290526030Y-131397160D01*
X290924810Y-131397160D01*
X291160127Y-131352882D01*
X291184364Y-131337286D01*
X291298881Y-131384720D01*
X291366135Y-131384720D01*
X291524885Y-131225970D01*
X291524885Y-130983615D01*
X291572250Y-130749720D01*
X291572250Y-130577000D01*
X291724275Y-130577000D01*
X291724275Y-131225970D01*
X291883025Y-131384720D01*
X291950279Y-131384720D01*
X292183668Y-131288047D01*
X292247745Y-131223970D01*
X293041030Y-131223970D01*
X293041030Y-131364250D01*
X293199780Y-131523000D01*
X293775725Y-131523000D01*
X293775725Y-130874030D01*
X293616975Y-130715280D01*
X293549721Y-130715280D01*
X293316332Y-130811953D01*
X293137703Y-130990581D01*
X293041030Y-131223970D01*
X292247745Y-131223970D01*
X292362297Y-131109419D01*
X292458970Y-130876030D01*
X292458970Y-130735750D01*
X292300220Y-130577000D01*
X291724275Y-130577000D01*
X291572250Y-130577000D01*
X291572250Y-130150280D01*
X291527972Y-129914963D01*
X291524885Y-129910166D01*
X291524885Y-129908615D01*
X291572250Y-129674720D01*
X291572250Y-129502000D01*
X291724275Y-129502000D01*
X291724275Y-130323000D01*
X292300220Y-130323000D01*
X292458970Y-130164250D01*
X292458970Y-130023970D01*
X292412798Y-129912500D01*
X292458970Y-129801030D01*
X292458970Y-129660750D01*
X292300220Y-129502000D01*
X291724275Y-129502000D01*
X291572250Y-129502000D01*
X291572250Y-129075280D01*
X291527972Y-128839963D01*
X291524885Y-128835166D01*
X291524885Y-128599030D01*
X291724275Y-128599030D01*
X291724275Y-129248000D01*
X292300220Y-129248000D01*
X292458970Y-129089250D01*
X292458970Y-128948970D01*
X292362297Y-128715581D01*
X292183668Y-128536953D01*
X291950279Y-128440280D01*
X291883025Y-128440280D01*
X291724275Y-128599030D01*
X291524885Y-128599030D01*
X291436420Y-128510565D01*
X291436420Y-128147440D01*
X292825000Y-128147440D01*
X293060317Y-128103162D01*
X293125839Y-128061000D01*
X293465974Y-128061000D01*
X293336673Y-128190302D01*
G36*
X274000420Y-128565000D02*
X274147000Y-128565000D01*
X274147000Y-128649275D01*
X274127000Y-128649275D01*
X274127000Y-129225220D01*
X274285750Y-129383970D01*
X274426030Y-129383970D01*
X274659419Y-129287297D01*
X274838047Y-129108668D01*
X274863257Y-129047805D01*
X274871345Y-129067329D01*
X274863849Y-129078300D01*
X274812840Y-129330190D01*
X274812840Y-129728970D01*
X274857118Y-129964287D01*
X274996190Y-130180411D01*
X275208390Y-130325401D01*
X275409022Y-130366030D01*
X275273970Y-130366030D01*
X275040581Y-130462703D01*
X274861953Y-130641332D01*
X274765280Y-130874721D01*
X274765280Y-130941975D01*
X274924030Y-131100725D01*
X275573000Y-131100725D01*
X275573000Y-131053420D01*
X275827000Y-131053420D01*
X275827000Y-131077000D01*
X275773750Y-131077000D01*
X275615000Y-131235750D01*
X275615000Y-131252750D01*
X275400280Y-131252750D01*
X275164963Y-131297028D01*
X275160166Y-131300115D01*
X274924030Y-131300115D01*
X274765280Y-131458865D01*
X274765280Y-131526119D01*
X274811345Y-131637329D01*
X274803849Y-131648300D01*
X274752840Y-131900190D01*
X274752840Y-132298970D01*
X274797118Y-132534287D01*
X274936190Y-132750411D01*
X275148390Y-132895401D01*
X275400280Y-132946410D01*
X275851724Y-132946410D01*
X275998110Y-133046431D01*
X276250000Y-133097440D01*
X277150000Y-133097440D01*
X277385317Y-133053162D01*
X277409406Y-133037661D01*
X277523691Y-133085000D01*
X277814250Y-133085000D01*
X277973000Y-132926250D01*
X277973000Y-132177000D01*
X277953000Y-132177000D01*
X277953000Y-132157486D01*
X278059938Y-131997440D01*
X278550000Y-131997440D01*
X278785317Y-131953162D01*
X278795887Y-131946360D01*
X278800280Y-131947250D01*
X279247000Y-131947250D01*
X279247000Y-132099275D01*
X279227000Y-132099275D01*
X279227000Y-132146580D01*
X278973000Y-132146580D01*
X278973000Y-132099275D01*
X278324030Y-132099275D01*
X278246305Y-132177000D01*
X278227000Y-132177000D01*
X278227000Y-132196305D01*
X278165280Y-132258025D01*
X278165280Y-132325279D01*
X278227000Y-132474284D01*
X278227000Y-132926250D01*
X278385750Y-133085000D01*
X278676309Y-133085000D01*
X278909698Y-132988327D01*
X278935025Y-132963000D01*
X279150725Y-132963000D01*
X279150725Y-132943000D01*
X279302750Y-132943000D01*
X279302750Y-133237000D01*
X279150725Y-133237000D01*
X279150725Y-133217000D01*
X278574780Y-133217000D01*
X278416030Y-133375750D01*
X278416030Y-133485000D01*
X272537000Y-133485000D01*
X272537000Y-128624238D01*
X272650190Y-128647160D01*
X273048970Y-128647160D01*
X273065280Y-128644091D01*
X273065280Y-128676582D01*
X273196723Y-128676582D01*
X273065280Y-128808025D01*
X273065280Y-128875279D01*
X273161953Y-129108668D01*
X273340581Y-129287297D01*
X273573970Y-129383970D01*
X273714250Y-129383970D01*
X273873000Y-129225220D01*
X273873000Y-128649275D01*
X273853000Y-128649275D01*
X273853000Y-128564580D01*
X273998309Y-128564580D01*
X274000420Y-128565000D01*
X274000420Y-128565000D01*
G37*
X274000420Y-128565000D02*
X274147000Y-128565000D01*
X274147000Y-128649275D01*
X274127000Y-128649275D01*
X274127000Y-129225220D01*
X274285750Y-129383970D01*
X274426030Y-129383970D01*
X274659419Y-129287297D01*
X274838047Y-129108668D01*
X274863257Y-129047805D01*
X274871345Y-129067329D01*
X274863849Y-129078300D01*
X274812840Y-129330190D01*
X274812840Y-129728970D01*
X274857118Y-129964287D01*
X274996190Y-130180411D01*
X275208390Y-130325401D01*
X275409022Y-130366030D01*
X275273970Y-130366030D01*
X275040581Y-130462703D01*
X274861953Y-130641332D01*
X274765280Y-130874721D01*
X274765280Y-130941975D01*
X274924030Y-131100725D01*
X275573000Y-131100725D01*
X275573000Y-131053420D01*
X275827000Y-131053420D01*
X275827000Y-131077000D01*
X275773750Y-131077000D01*
X275615000Y-131235750D01*
X275615000Y-131252750D01*
X275400280Y-131252750D01*
X275164963Y-131297028D01*
X275160166Y-131300115D01*
X274924030Y-131300115D01*
X274765280Y-131458865D01*
X274765280Y-131526119D01*
X274811345Y-131637329D01*
X274803849Y-131648300D01*
X274752840Y-131900190D01*
X274752840Y-132298970D01*
X274797118Y-132534287D01*
X274936190Y-132750411D01*
X275148390Y-132895401D01*
X275400280Y-132946410D01*
X275851724Y-132946410D01*
X275998110Y-133046431D01*
X276250000Y-133097440D01*
X277150000Y-133097440D01*
X277385317Y-133053162D01*
X277409406Y-133037661D01*
X277523691Y-133085000D01*
X277814250Y-133085000D01*
X277973000Y-132926250D01*
X277973000Y-132177000D01*
X277953000Y-132177000D01*
X277953000Y-132157486D01*
X278059938Y-131997440D01*
X278550000Y-131997440D01*
X278785317Y-131953162D01*
X278795887Y-131946360D01*
X278800280Y-131947250D01*
X279247000Y-131947250D01*
X279247000Y-132099275D01*
X279227000Y-132099275D01*
X279227000Y-132146580D01*
X278973000Y-132146580D01*
X278973000Y-132099275D01*
X278324030Y-132099275D01*
X278246305Y-132177000D01*
X278227000Y-132177000D01*
X278227000Y-132196305D01*
X278165280Y-132258025D01*
X278165280Y-132325279D01*
X278227000Y-132474284D01*
X278227000Y-132926250D01*
X278385750Y-133085000D01*
X278676309Y-133085000D01*
X278909698Y-132988327D01*
X278935025Y-132963000D01*
X279150725Y-132963000D01*
X279150725Y-132943000D01*
X279302750Y-132943000D01*
X279302750Y-133237000D01*
X279150725Y-133237000D01*
X279150725Y-133217000D01*
X278574780Y-133217000D01*
X278416030Y-133375750D01*
X278416030Y-133485000D01*
X272537000Y-133485000D01*
X272537000Y-128624238D01*
X272650190Y-128647160D01*
X273048970Y-128647160D01*
X273065280Y-128644091D01*
X273065280Y-128676582D01*
X273196723Y-128676582D01*
X273065280Y-128808025D01*
X273065280Y-128875279D01*
X273161953Y-129108668D01*
X273340581Y-129287297D01*
X273573970Y-129383970D01*
X273714250Y-129383970D01*
X273873000Y-129225220D01*
X273873000Y-128649275D01*
X273853000Y-128649275D01*
X273853000Y-128564580D01*
X273998309Y-128564580D01*
X274000420Y-128565000D01*
G36*
X298949780Y-131298000D02*
X298989625Y-131298000D01*
X299002912Y-131306878D01*
X299275000Y-131361000D01*
X299677750Y-131361000D01*
X299677750Y-131724720D01*
X299722028Y-131960037D01*
X299725115Y-131964834D01*
X299725115Y-132066385D01*
X299677750Y-132300280D01*
X299677750Y-132747000D01*
X299525725Y-132747000D01*
X299525725Y-132727000D01*
X298949780Y-132727000D01*
X298925000Y-132751780D01*
X298850220Y-132677000D01*
X298274275Y-132677000D01*
X298274275Y-133325970D01*
X298433025Y-133484720D01*
X298500279Y-133484720D01*
X298733668Y-133388047D01*
X298880262Y-133241454D01*
X298887703Y-133259419D01*
X299066332Y-133438047D01*
X299179686Y-133485000D01*
X297539435Y-133485000D01*
X297710127Y-133452882D01*
X297734364Y-133437286D01*
X297848881Y-133484720D01*
X297916135Y-133484720D01*
X298074885Y-133325970D01*
X298074885Y-133083615D01*
X298122250Y-132849720D01*
X298122250Y-132250280D01*
X298077972Y-132014963D01*
X298074885Y-132010166D01*
X298074885Y-131958615D01*
X298122250Y-131724720D01*
X298122250Y-131552000D01*
X298274275Y-131552000D01*
X298274275Y-132423000D01*
X298850220Y-132423000D01*
X298875000Y-132398220D01*
X298949780Y-132473000D01*
X299525725Y-132473000D01*
X299525725Y-131552000D01*
X298949780Y-131552000D01*
X298900000Y-131601780D01*
X298850220Y-131552000D01*
X298274275Y-131552000D01*
X298122250Y-131552000D01*
X298122250Y-131278000D01*
X298274275Y-131278000D01*
X298274275Y-131298000D01*
X298850220Y-131298000D01*
X298900000Y-131248220D01*
X298949780Y-131298000D01*
X298949780Y-131298000D01*
G37*
X298949780Y-131298000D02*
X298989625Y-131298000D01*
X299002912Y-131306878D01*
X299275000Y-131361000D01*
X299677750Y-131361000D01*
X299677750Y-131724720D01*
X299722028Y-131960037D01*
X299725115Y-131964834D01*
X299725115Y-132066385D01*
X299677750Y-132300280D01*
X299677750Y-132747000D01*
X299525725Y-132747000D01*
X299525725Y-132727000D01*
X298949780Y-132727000D01*
X298925000Y-132751780D01*
X298850220Y-132677000D01*
X298274275Y-132677000D01*
X298274275Y-133325970D01*
X298433025Y-133484720D01*
X298500279Y-133484720D01*
X298733668Y-133388047D01*
X298880262Y-133241454D01*
X298887703Y-133259419D01*
X299066332Y-133438047D01*
X299179686Y-133485000D01*
X297539435Y-133485000D01*
X297710127Y-133452882D01*
X297734364Y-133437286D01*
X297848881Y-133484720D01*
X297916135Y-133484720D01*
X298074885Y-133325970D01*
X298074885Y-133083615D01*
X298122250Y-132849720D01*
X298122250Y-132250280D01*
X298077972Y-132014963D01*
X298074885Y-132010166D01*
X298074885Y-131958615D01*
X298122250Y-131724720D01*
X298122250Y-131552000D01*
X298274275Y-131552000D01*
X298274275Y-132423000D01*
X298850220Y-132423000D01*
X298875000Y-132398220D01*
X298949780Y-132473000D01*
X299525725Y-132473000D01*
X299525725Y-131552000D01*
X298949780Y-131552000D01*
X298900000Y-131601780D01*
X298850220Y-131552000D01*
X298274275Y-131552000D01*
X298122250Y-131552000D01*
X298122250Y-131278000D01*
X298274275Y-131278000D01*
X298274275Y-131298000D01*
X298850220Y-131298000D01*
X298900000Y-131248220D01*
X298949780Y-131298000D01*
G36*
X288821953Y-131818668D02*
X288856580Y-131853295D01*
X288856580Y-132037000D01*
X288809275Y-132037000D01*
X288809275Y-132057000D01*
X288657250Y-132057000D01*
X288657250Y-131763000D01*
X288798894Y-131763000D01*
X288821953Y-131818668D01*
X288821953Y-131818668D01*
G37*
X288821953Y-131818668D02*
X288856580Y-131853295D01*
X288856580Y-132037000D01*
X288809275Y-132037000D01*
X288809275Y-132057000D01*
X288657250Y-132057000D01*
X288657250Y-131763000D01*
X288798894Y-131763000D01*
X288821953Y-131818668D01*
G36*
X289807000Y-131291014D02*
X289613943Y-131290846D01*
X289513000Y-131332555D01*
X289513000Y-131207250D01*
X289807000Y-131207250D01*
X289807000Y-131291014D01*
X289807000Y-131291014D01*
G37*
X289807000Y-131291014D02*
X289613943Y-131290846D01*
X289513000Y-131332555D01*
X289513000Y-131207250D01*
X289807000Y-131207250D01*
X289807000Y-131291014D01*
G36*
X276709000Y-131002560D02*
X276574135Y-131002560D01*
X276634720Y-130941975D01*
X276634720Y-130874721D01*
X276605012Y-130803000D01*
X276709000Y-130803000D01*
X276709000Y-131002560D01*
X276709000Y-131002560D01*
G37*
X276709000Y-131002560D02*
X276574135Y-131002560D01*
X276634720Y-130941975D01*
X276634720Y-130874721D01*
X276605012Y-130803000D01*
X276709000Y-130803000D01*
X276709000Y-131002560D01*
G36*
X281761250Y-126084250D02*
X282713750Y-126084250D01*
X282733750Y-126064250D01*
X282853750Y-126064250D01*
X282873750Y-126084250D01*
X283826250Y-126084250D01*
X283846250Y-126064250D01*
X283966250Y-126064250D01*
X283986250Y-126084250D01*
X284938750Y-126084250D01*
X284958750Y-126064250D01*
X285145750Y-126064250D01*
X285145750Y-126084250D01*
X285165750Y-126084250D01*
X285165750Y-126271250D01*
X285145750Y-126291250D01*
X285145750Y-127243750D01*
X285165750Y-127263750D01*
X285165750Y-127383750D01*
X285145750Y-127403750D01*
X285145750Y-128356250D01*
X285165750Y-128376250D01*
X285165750Y-128496250D01*
X285145750Y-128516250D01*
X285145750Y-129468750D01*
X285165750Y-129488750D01*
X285165750Y-129675750D01*
X285145750Y-129675750D01*
X285145750Y-129695750D01*
X284958750Y-129695750D01*
X284938750Y-129675750D01*
X283986250Y-129675750D01*
X283966250Y-129695750D01*
X283846250Y-129695750D01*
X283826250Y-129675750D01*
X282873750Y-129675750D01*
X282853750Y-129695750D01*
X282733750Y-129695750D01*
X282713750Y-129675750D01*
X281761250Y-129675750D01*
X281741250Y-129695750D01*
X281554250Y-129695750D01*
X281554250Y-129675750D01*
X281534250Y-129675750D01*
X281534250Y-129488750D01*
X281554250Y-129468750D01*
X281554250Y-128516250D01*
X281534250Y-128496250D01*
X281534250Y-128376250D01*
X281554250Y-128356250D01*
X281554250Y-127403750D01*
X281534250Y-127383750D01*
X281534250Y-127263750D01*
X281554250Y-127243750D01*
X281554250Y-126497000D01*
X281602500Y-126497000D01*
X281602500Y-127038000D01*
X281761250Y-127196750D01*
X281768724Y-127196750D01*
X281808250Y-127236275D01*
X281808250Y-127243750D01*
X281888250Y-127323750D01*
X281808250Y-127403750D01*
X281808250Y-127411225D01*
X281768724Y-127450750D01*
X281761250Y-127450750D01*
X281602500Y-127609500D01*
X281602500Y-128150500D01*
X281761250Y-128309250D01*
X281768724Y-128309250D01*
X281808250Y-128348775D01*
X281808250Y-128356250D01*
X281888250Y-128436250D01*
X281808250Y-128516250D01*
X281808250Y-128523725D01*
X281768724Y-128563250D01*
X281761250Y-128563250D01*
X281602500Y-128722000D01*
X281602500Y-129263000D01*
X281761250Y-129421750D01*
X281768724Y-129421750D01*
X281808250Y-129461275D01*
X281808250Y-129468750D01*
X281967000Y-129627500D01*
X282508000Y-129627500D01*
X282666750Y-129468750D01*
X282666750Y-129461275D01*
X282706276Y-129421750D01*
X282713750Y-129421750D01*
X282793750Y-129341750D01*
X282873750Y-129421750D01*
X282881224Y-129421750D01*
X282920750Y-129461275D01*
X282920750Y-129468750D01*
X283079500Y-129627500D01*
X283620500Y-129627500D01*
X283779250Y-129468750D01*
X283779250Y-129461275D01*
X283818776Y-129421750D01*
X283826250Y-129421750D01*
X283906250Y-129341750D01*
X283986250Y-129421750D01*
X283993724Y-129421750D01*
X284033250Y-129461275D01*
X284033250Y-129468750D01*
X284192000Y-129627500D01*
X284733000Y-129627500D01*
X284891750Y-129468750D01*
X284891750Y-129461275D01*
X284931276Y-129421750D01*
X284938750Y-129421750D01*
X285097500Y-129263000D01*
X285097500Y-128722000D01*
X284938750Y-128563250D01*
X284931276Y-128563250D01*
X284891750Y-128523725D01*
X284891750Y-128516250D01*
X284811750Y-128436250D01*
X284891750Y-128356250D01*
X284891750Y-128348775D01*
X284931276Y-128309250D01*
X284938750Y-128309250D01*
X285097500Y-128150500D01*
X285097500Y-127609500D01*
X284938750Y-127450750D01*
X284931276Y-127450750D01*
X284891750Y-127411225D01*
X284891750Y-127403750D01*
X284811750Y-127323750D01*
X284891750Y-127243750D01*
X284891750Y-127236275D01*
X284931276Y-127196750D01*
X284938750Y-127196750D01*
X285097500Y-127038000D01*
X285097500Y-126497000D01*
X284938750Y-126338250D01*
X284931276Y-126338250D01*
X284891750Y-126298725D01*
X284891750Y-126291250D01*
X284733000Y-126132500D01*
X284192000Y-126132500D01*
X284033250Y-126291250D01*
X284033250Y-126298725D01*
X283993724Y-126338250D01*
X283986250Y-126338250D01*
X283906250Y-126418250D01*
X283826250Y-126338250D01*
X283818776Y-126338250D01*
X283779250Y-126298725D01*
X283779250Y-126291250D01*
X283620500Y-126132500D01*
X283079500Y-126132500D01*
X282920750Y-126291250D01*
X282920750Y-126298725D01*
X282881224Y-126338250D01*
X282873750Y-126338250D01*
X282793750Y-126418250D01*
X282713750Y-126338250D01*
X282706276Y-126338250D01*
X282666750Y-126298725D01*
X282666750Y-126291250D01*
X282508000Y-126132500D01*
X281967000Y-126132500D01*
X281808250Y-126291250D01*
X281808250Y-126298725D01*
X281768724Y-126338250D01*
X281761250Y-126338250D01*
X281602500Y-126497000D01*
X281554250Y-126497000D01*
X281554250Y-126291250D01*
X281534250Y-126271250D01*
X281534250Y-126084250D01*
X281554250Y-126084250D01*
X281554250Y-126064250D01*
X281741250Y-126064250D01*
X281761250Y-126084250D01*
X281761250Y-126084250D01*
G37*
X281761250Y-126084250D02*
X282713750Y-126084250D01*
X282733750Y-126064250D01*
X282853750Y-126064250D01*
X282873750Y-126084250D01*
X283826250Y-126084250D01*
X283846250Y-126064250D01*
X283966250Y-126064250D01*
X283986250Y-126084250D01*
X284938750Y-126084250D01*
X284958750Y-126064250D01*
X285145750Y-126064250D01*
X285145750Y-126084250D01*
X285165750Y-126084250D01*
X285165750Y-126271250D01*
X285145750Y-126291250D01*
X285145750Y-127243750D01*
X285165750Y-127263750D01*
X285165750Y-127383750D01*
X285145750Y-127403750D01*
X285145750Y-128356250D01*
X285165750Y-128376250D01*
X285165750Y-128496250D01*
X285145750Y-128516250D01*
X285145750Y-129468750D01*
X285165750Y-129488750D01*
X285165750Y-129675750D01*
X285145750Y-129675750D01*
X285145750Y-129695750D01*
X284958750Y-129695750D01*
X284938750Y-129675750D01*
X283986250Y-129675750D01*
X283966250Y-129695750D01*
X283846250Y-129695750D01*
X283826250Y-129675750D01*
X282873750Y-129675750D01*
X282853750Y-129695750D01*
X282733750Y-129695750D01*
X282713750Y-129675750D01*
X281761250Y-129675750D01*
X281741250Y-129695750D01*
X281554250Y-129695750D01*
X281554250Y-129675750D01*
X281534250Y-129675750D01*
X281534250Y-129488750D01*
X281554250Y-129468750D01*
X281554250Y-128516250D01*
X281534250Y-128496250D01*
X281534250Y-128376250D01*
X281554250Y-128356250D01*
X281554250Y-127403750D01*
X281534250Y-127383750D01*
X281534250Y-127263750D01*
X281554250Y-127243750D01*
X281554250Y-126497000D01*
X281602500Y-126497000D01*
X281602500Y-127038000D01*
X281761250Y-127196750D01*
X281768724Y-127196750D01*
X281808250Y-127236275D01*
X281808250Y-127243750D01*
X281888250Y-127323750D01*
X281808250Y-127403750D01*
X281808250Y-127411225D01*
X281768724Y-127450750D01*
X281761250Y-127450750D01*
X281602500Y-127609500D01*
X281602500Y-128150500D01*
X281761250Y-128309250D01*
X281768724Y-128309250D01*
X281808250Y-128348775D01*
X281808250Y-128356250D01*
X281888250Y-128436250D01*
X281808250Y-128516250D01*
X281808250Y-128523725D01*
X281768724Y-128563250D01*
X281761250Y-128563250D01*
X281602500Y-128722000D01*
X281602500Y-129263000D01*
X281761250Y-129421750D01*
X281768724Y-129421750D01*
X281808250Y-129461275D01*
X281808250Y-129468750D01*
X281967000Y-129627500D01*
X282508000Y-129627500D01*
X282666750Y-129468750D01*
X282666750Y-129461275D01*
X282706276Y-129421750D01*
X282713750Y-129421750D01*
X282793750Y-129341750D01*
X282873750Y-129421750D01*
X282881224Y-129421750D01*
X282920750Y-129461275D01*
X282920750Y-129468750D01*
X283079500Y-129627500D01*
X283620500Y-129627500D01*
X283779250Y-129468750D01*
X283779250Y-129461275D01*
X283818776Y-129421750D01*
X283826250Y-129421750D01*
X283906250Y-129341750D01*
X283986250Y-129421750D01*
X283993724Y-129421750D01*
X284033250Y-129461275D01*
X284033250Y-129468750D01*
X284192000Y-129627500D01*
X284733000Y-129627500D01*
X284891750Y-129468750D01*
X284891750Y-129461275D01*
X284931276Y-129421750D01*
X284938750Y-129421750D01*
X285097500Y-129263000D01*
X285097500Y-128722000D01*
X284938750Y-128563250D01*
X284931276Y-128563250D01*
X284891750Y-128523725D01*
X284891750Y-128516250D01*
X284811750Y-128436250D01*
X284891750Y-128356250D01*
X284891750Y-128348775D01*
X284931276Y-128309250D01*
X284938750Y-128309250D01*
X285097500Y-128150500D01*
X285097500Y-127609500D01*
X284938750Y-127450750D01*
X284931276Y-127450750D01*
X284891750Y-127411225D01*
X284891750Y-127403750D01*
X284811750Y-127323750D01*
X284891750Y-127243750D01*
X284891750Y-127236275D01*
X284931276Y-127196750D01*
X284938750Y-127196750D01*
X285097500Y-127038000D01*
X285097500Y-126497000D01*
X284938750Y-126338250D01*
X284931276Y-126338250D01*
X284891750Y-126298725D01*
X284891750Y-126291250D01*
X284733000Y-126132500D01*
X284192000Y-126132500D01*
X284033250Y-126291250D01*
X284033250Y-126298725D01*
X283993724Y-126338250D01*
X283986250Y-126338250D01*
X283906250Y-126418250D01*
X283826250Y-126338250D01*
X283818776Y-126338250D01*
X283779250Y-126298725D01*
X283779250Y-126291250D01*
X283620500Y-126132500D01*
X283079500Y-126132500D01*
X282920750Y-126291250D01*
X282920750Y-126298725D01*
X282881224Y-126338250D01*
X282873750Y-126338250D01*
X282793750Y-126418250D01*
X282713750Y-126338250D01*
X282706276Y-126338250D01*
X282666750Y-126298725D01*
X282666750Y-126291250D01*
X282508000Y-126132500D01*
X281967000Y-126132500D01*
X281808250Y-126291250D01*
X281808250Y-126298725D01*
X281768724Y-126338250D01*
X281761250Y-126338250D01*
X281602500Y-126497000D01*
X281554250Y-126497000D01*
X281554250Y-126291250D01*
X281534250Y-126271250D01*
X281534250Y-126084250D01*
X281554250Y-126084250D01*
X281554250Y-126064250D01*
X281741250Y-126064250D01*
X281761250Y-126084250D01*
G36*
X282873750Y-128309250D02*
X282881224Y-128309250D01*
X282920750Y-128348775D01*
X282920750Y-128356250D01*
X283000750Y-128436250D01*
X282920750Y-128516250D01*
X282920750Y-128523725D01*
X282881224Y-128563250D01*
X282873750Y-128563250D01*
X282793750Y-128643250D01*
X282713750Y-128563250D01*
X282706276Y-128563250D01*
X282666750Y-128523725D01*
X282666750Y-128516250D01*
X282586750Y-128436250D01*
X282666750Y-128356250D01*
X282666750Y-128348775D01*
X282706276Y-128309250D01*
X282713750Y-128309250D01*
X282793750Y-128229250D01*
X282873750Y-128309250D01*
X282873750Y-128309250D01*
G37*
X282873750Y-128309250D02*
X282881224Y-128309250D01*
X282920750Y-128348775D01*
X282920750Y-128356250D01*
X283000750Y-128436250D01*
X282920750Y-128516250D01*
X282920750Y-128523725D01*
X282881224Y-128563250D01*
X282873750Y-128563250D01*
X282793750Y-128643250D01*
X282713750Y-128563250D01*
X282706276Y-128563250D01*
X282666750Y-128523725D01*
X282666750Y-128516250D01*
X282586750Y-128436250D01*
X282666750Y-128356250D01*
X282666750Y-128348775D01*
X282706276Y-128309250D01*
X282713750Y-128309250D01*
X282793750Y-128229250D01*
X282873750Y-128309250D01*
G36*
X283986250Y-128309250D02*
X283993724Y-128309250D01*
X284033250Y-128348775D01*
X284033250Y-128356250D01*
X284113250Y-128436250D01*
X284033250Y-128516250D01*
X284033250Y-128523725D01*
X283993724Y-128563250D01*
X283986250Y-128563250D01*
X283906250Y-128643250D01*
X283826250Y-128563250D01*
X283818776Y-128563250D01*
X283779250Y-128523725D01*
X283779250Y-128516250D01*
X283699250Y-128436250D01*
X283779250Y-128356250D01*
X283779250Y-128348775D01*
X283818776Y-128309250D01*
X283826250Y-128309250D01*
X283906250Y-128229250D01*
X283986250Y-128309250D01*
X283986250Y-128309250D01*
G37*
X283986250Y-128309250D02*
X283993724Y-128309250D01*
X284033250Y-128348775D01*
X284033250Y-128356250D01*
X284113250Y-128436250D01*
X284033250Y-128516250D01*
X284033250Y-128523725D01*
X283993724Y-128563250D01*
X283986250Y-128563250D01*
X283906250Y-128643250D01*
X283826250Y-128563250D01*
X283818776Y-128563250D01*
X283779250Y-128523725D01*
X283779250Y-128516250D01*
X283699250Y-128436250D01*
X283779250Y-128356250D01*
X283779250Y-128348775D01*
X283818776Y-128309250D01*
X283826250Y-128309250D01*
X283906250Y-128229250D01*
X283986250Y-128309250D01*
G36*
X283986250Y-127196750D02*
X283993724Y-127196750D01*
X284033250Y-127236275D01*
X284033250Y-127243750D01*
X284113250Y-127323750D01*
X284033250Y-127403750D01*
X284033250Y-127411225D01*
X283993724Y-127450750D01*
X283986250Y-127450750D01*
X283906250Y-127530750D01*
X283826250Y-127450750D01*
X283818776Y-127450750D01*
X283779250Y-127411225D01*
X283779250Y-127403750D01*
X283699250Y-127323750D01*
X283779250Y-127243750D01*
X283779250Y-127236275D01*
X283818776Y-127196750D01*
X283826250Y-127196750D01*
X283906250Y-127116750D01*
X283986250Y-127196750D01*
X283986250Y-127196750D01*
G37*
X283986250Y-127196750D02*
X283993724Y-127196750D01*
X284033250Y-127236275D01*
X284033250Y-127243750D01*
X284113250Y-127323750D01*
X284033250Y-127403750D01*
X284033250Y-127411225D01*
X283993724Y-127450750D01*
X283986250Y-127450750D01*
X283906250Y-127530750D01*
X283826250Y-127450750D01*
X283818776Y-127450750D01*
X283779250Y-127411225D01*
X283779250Y-127403750D01*
X283699250Y-127323750D01*
X283779250Y-127243750D01*
X283779250Y-127236275D01*
X283818776Y-127196750D01*
X283826250Y-127196750D01*
X283906250Y-127116750D01*
X283986250Y-127196750D01*
G36*
X282873750Y-127196750D02*
X282881224Y-127196750D01*
X282920750Y-127236275D01*
X282920750Y-127243750D01*
X283000750Y-127323750D01*
X282920750Y-127403750D01*
X282920750Y-127411225D01*
X282881224Y-127450750D01*
X282873750Y-127450750D01*
X282793750Y-127530750D01*
X282713750Y-127450750D01*
X282706276Y-127450750D01*
X282666750Y-127411225D01*
X282666750Y-127403750D01*
X282586750Y-127323750D01*
X282666750Y-127243750D01*
X282666750Y-127236275D01*
X282706276Y-127196750D01*
X282713750Y-127196750D01*
X282793750Y-127116750D01*
X282873750Y-127196750D01*
X282873750Y-127196750D01*
G37*
X282873750Y-127196750D02*
X282881224Y-127196750D01*
X282920750Y-127236275D01*
X282920750Y-127243750D01*
X283000750Y-127323750D01*
X282920750Y-127403750D01*
X282920750Y-127411225D01*
X282881224Y-127450750D01*
X282873750Y-127450750D01*
X282793750Y-127530750D01*
X282713750Y-127450750D01*
X282706276Y-127450750D01*
X282666750Y-127411225D01*
X282666750Y-127403750D01*
X282586750Y-127323750D01*
X282666750Y-127243750D01*
X282666750Y-127236275D01*
X282706276Y-127196750D01*
X282713750Y-127196750D01*
X282793750Y-127116750D01*
X282873750Y-127196750D01*
G36*
X275598300Y-128596151D02*
X275806235Y-128638259D01*
X275761744Y-128682750D01*
X275460280Y-128682750D01*
X275224963Y-128727028D01*
X275220166Y-128730115D01*
X274984030Y-128730115D01*
X274920420Y-128793725D01*
X274803277Y-128676582D01*
X274934720Y-128676582D01*
X274934720Y-128643857D01*
X274951030Y-128647160D01*
X275349810Y-128647160D01*
X275585127Y-128602882D01*
X275596984Y-128595252D01*
X275598300Y-128596151D01*
X275598300Y-128596151D01*
G37*
X275598300Y-128596151D02*
X275806235Y-128638259D01*
X275761744Y-128682750D01*
X275460280Y-128682750D01*
X275224963Y-128727028D01*
X275220166Y-128730115D01*
X274984030Y-128730115D01*
X274920420Y-128793725D01*
X274803277Y-128676582D01*
X274934720Y-128676582D01*
X274934720Y-128643857D01*
X274951030Y-128647160D01*
X275349810Y-128647160D01*
X275585127Y-128602882D01*
X275596984Y-128595252D01*
X275598300Y-128596151D01*
G36*
X295640280Y-113777422D02*
X295771723Y-113777422D01*
X295734145Y-113815000D01*
X295002000Y-113815000D01*
X295002000Y-113835000D01*
X294748000Y-113835000D01*
X294748000Y-113815000D01*
X293827250Y-113815000D01*
X293668500Y-113973750D01*
X293668500Y-114131809D01*
X293765173Y-114365198D01*
X293843261Y-114443286D01*
X293707069Y-114642610D01*
X293656060Y-114894500D01*
X293656060Y-115529500D01*
X293700263Y-115764420D01*
X293425750Y-115764420D01*
X293301610Y-115679599D01*
X293049720Y-115628590D01*
X292450280Y-115628590D01*
X292214963Y-115672868D01*
X291998839Y-115811940D01*
X291853849Y-116024140D01*
X291802840Y-116276030D01*
X291802840Y-116674810D01*
X291847118Y-116910127D01*
X291862714Y-116934364D01*
X291815280Y-117048881D01*
X291815280Y-117116135D01*
X291974030Y-117274885D01*
X292216385Y-117274885D01*
X292450280Y-117322250D01*
X292897000Y-117322250D01*
X292897000Y-117474275D01*
X292877000Y-117474275D01*
X292877000Y-118050220D01*
X293035750Y-118208970D01*
X293176030Y-118208970D01*
X293245595Y-118180155D01*
X293240000Y-118185750D01*
X293240000Y-118776309D01*
X293336673Y-119009698D01*
X293515301Y-119188327D01*
X293748690Y-119285000D01*
X293791250Y-119285000D01*
X293950000Y-119126250D01*
X293950000Y-119123026D01*
X294015301Y-119188327D01*
X294248690Y-119285000D01*
X294301310Y-119285000D01*
X294534699Y-119188327D01*
X294536068Y-119186958D01*
X294623110Y-119246431D01*
X294744830Y-119271080D01*
X294758750Y-119285000D01*
X294801310Y-119285000D01*
X294805335Y-119283333D01*
X294875000Y-119297440D01*
X295175000Y-119297440D01*
X295278671Y-119277933D01*
X295375000Y-119297440D01*
X295675000Y-119297440D01*
X295778671Y-119277933D01*
X295875000Y-119297440D01*
X296175000Y-119297440D01*
X296278671Y-119277933D01*
X296375000Y-119297440D01*
X296675000Y-119297440D01*
X296778671Y-119277933D01*
X296875000Y-119297440D01*
X297175000Y-119297440D01*
X297246323Y-119284020D01*
X297248690Y-119285000D01*
X297291250Y-119285000D01*
X297302871Y-119273379D01*
X297410317Y-119253162D01*
X297524978Y-119179380D01*
X297623110Y-119246431D01*
X297744830Y-119271080D01*
X297758750Y-119285000D01*
X297801310Y-119285000D01*
X297805335Y-119283333D01*
X297875000Y-119297440D01*
X298175000Y-119297440D01*
X298246323Y-119284020D01*
X298248690Y-119285000D01*
X298291250Y-119285000D01*
X298302871Y-119273379D01*
X298410317Y-119253162D01*
X298524978Y-119179380D01*
X298623110Y-119246431D01*
X298744830Y-119271080D01*
X298758750Y-119285000D01*
X298801310Y-119285000D01*
X298805335Y-119283333D01*
X298875000Y-119297440D01*
X299175000Y-119297440D01*
X299278671Y-119277933D01*
X299375000Y-119297440D01*
X299675000Y-119297440D01*
X299746323Y-119284020D01*
X299748690Y-119285000D01*
X299791250Y-119285000D01*
X299802871Y-119273379D01*
X299814000Y-119271285D01*
X299814000Y-121775000D01*
X299868122Y-122047088D01*
X300022247Y-122277753D01*
X302077560Y-124333066D01*
X302077560Y-124500000D01*
X302097067Y-124603671D01*
X302077560Y-124700000D01*
X302077560Y-125000000D01*
X302097067Y-125103671D01*
X302077560Y-125200000D01*
X302077560Y-125500000D01*
X302097067Y-125603671D01*
X302077560Y-125700000D01*
X302077560Y-126000000D01*
X302097067Y-126103671D01*
X302077560Y-126200000D01*
X302077560Y-126500000D01*
X302097067Y-126603671D01*
X302089913Y-126639000D01*
X299850000Y-126639000D01*
X299577912Y-126693122D01*
X299347247Y-126847247D01*
X299155494Y-127039000D01*
X296825000Y-127039000D01*
X296552912Y-127093122D01*
X296322247Y-127247247D01*
X296022247Y-127547247D01*
X295944344Y-127663838D01*
X295127753Y-126847247D01*
X294897088Y-126693122D01*
X294625000Y-126639000D01*
X293460962Y-126639000D01*
X293459020Y-126628677D01*
X293460000Y-126626310D01*
X293460000Y-126583750D01*
X293448379Y-126572129D01*
X293428162Y-126464683D01*
X293361672Y-126361354D01*
X293363327Y-126359699D01*
X293460000Y-126126310D01*
X293460000Y-126073690D01*
X293367344Y-125850000D01*
X293460000Y-125626310D01*
X293460000Y-125573690D01*
X293363327Y-125340301D01*
X293361958Y-125338932D01*
X293421431Y-125251890D01*
X293446080Y-125130170D01*
X293460000Y-125116250D01*
X293460000Y-125073690D01*
X293458333Y-125069665D01*
X293472440Y-125000000D01*
X293472440Y-124700000D01*
X293459020Y-124628677D01*
X293460000Y-124626310D01*
X293460000Y-124583750D01*
X293448379Y-124572129D01*
X293428162Y-124464683D01*
X293361672Y-124361354D01*
X293363327Y-124359699D01*
X293460000Y-124126310D01*
X293460000Y-124073690D01*
X293363327Y-123840301D01*
X293361958Y-123838932D01*
X293421431Y-123751890D01*
X293446080Y-123630170D01*
X293460000Y-123616250D01*
X293460000Y-123573690D01*
X293458333Y-123569665D01*
X293472440Y-123500000D01*
X293472440Y-123200000D01*
X293452933Y-123096329D01*
X293472440Y-123000000D01*
X293472440Y-122700000D01*
X293459020Y-122628677D01*
X293460000Y-122626310D01*
X293460000Y-122583750D01*
X293448379Y-122572129D01*
X293428162Y-122464683D01*
X293354380Y-122350022D01*
X293421431Y-122251890D01*
X293446080Y-122130170D01*
X293460000Y-122116250D01*
X293460000Y-122073690D01*
X293458333Y-122069665D01*
X293472440Y-122000000D01*
X293472440Y-121700000D01*
X293452933Y-121596329D01*
X293472440Y-121500000D01*
X293472440Y-121200000D01*
X293452933Y-121096329D01*
X293472440Y-121000000D01*
X293472440Y-120700000D01*
X293452933Y-120596329D01*
X293472440Y-120500000D01*
X293472440Y-120200000D01*
X293459020Y-120128677D01*
X293460000Y-120126310D01*
X293460000Y-120083750D01*
X293448379Y-120072129D01*
X293428162Y-119964683D01*
X293304204Y-119772046D01*
X293460000Y-119616250D01*
X293460000Y-119573690D01*
X293363327Y-119340301D01*
X293184698Y-119161673D01*
X292951309Y-119065000D01*
X292360750Y-119065000D01*
X292202000Y-119223750D01*
X292202000Y-119552560D01*
X291948000Y-119552560D01*
X291948000Y-119223750D01*
X291789250Y-119065000D01*
X291198691Y-119065000D01*
X290965302Y-119161673D01*
X290786673Y-119340301D01*
X290690000Y-119573690D01*
X290690000Y-119616250D01*
X290712750Y-119639000D01*
X290570000Y-119639000D01*
X290297912Y-119693122D01*
X290067247Y-119847247D01*
X289407247Y-120507247D01*
X289253122Y-120737912D01*
X289199000Y-121010000D01*
X289199000Y-121515170D01*
X289086890Y-121438569D01*
X288835000Y-121387560D01*
X288035000Y-121387560D01*
X287814699Y-121429013D01*
X287610000Y-121387560D01*
X286810000Y-121387560D01*
X286574683Y-121431838D01*
X286358559Y-121570910D01*
X286213569Y-121783110D01*
X286162560Y-122035000D01*
X286162560Y-122275743D01*
X286122882Y-122064873D01*
X286107286Y-122040636D01*
X286154720Y-121926119D01*
X286154720Y-121858865D01*
X285995970Y-121700115D01*
X285753615Y-121700115D01*
X285519720Y-121652750D01*
X285073000Y-121652750D01*
X285073000Y-121500725D01*
X285093000Y-121500725D01*
X285093000Y-120924780D01*
X285347000Y-120924780D01*
X285347000Y-121500725D01*
X285995970Y-121500725D01*
X286154720Y-121341975D01*
X286154720Y-121274721D01*
X286058047Y-121041332D01*
X285879419Y-120862703D01*
X285646030Y-120766030D01*
X285505750Y-120766030D01*
X285347000Y-120924780D01*
X285093000Y-120924780D01*
X284995605Y-120827385D01*
X284978162Y-120734683D01*
X284839090Y-120518559D01*
X284732175Y-120445507D01*
X284706878Y-120318332D01*
X284552753Y-120087667D01*
X284306410Y-119841324D01*
X284306410Y-119700280D01*
X284262132Y-119464963D01*
X284123060Y-119248839D01*
X283910860Y-119103849D01*
X283658970Y-119052840D01*
X283260190Y-119052840D01*
X283024873Y-119097118D01*
X283013016Y-119104748D01*
X283011700Y-119103849D01*
X282759810Y-119052840D01*
X282618766Y-119052840D01*
X281271000Y-117705074D01*
X281271000Y-117696402D01*
X281286000Y-117699440D01*
X282429000Y-117699440D01*
X282499896Y-117686100D01*
X285407500Y-117686100D01*
X285409611Y-117685680D01*
X286507500Y-117685680D01*
X286591808Y-117668910D01*
X286807220Y-117668910D01*
X286997932Y-117633025D01*
X291815280Y-117633025D01*
X291815280Y-117700279D01*
X291911953Y-117933668D01*
X292090581Y-118112297D01*
X292323970Y-118208970D01*
X292464250Y-118208970D01*
X292623000Y-118050220D01*
X292623000Y-117474275D01*
X291974030Y-117474275D01*
X291815280Y-117633025D01*
X286997932Y-117633025D01*
X287042537Y-117624632D01*
X287258661Y-117485560D01*
X287403651Y-117273360D01*
X287454660Y-117021470D01*
X287454660Y-116622690D01*
X287410382Y-116387373D01*
X287394786Y-116363136D01*
X287442220Y-116248619D01*
X287442220Y-116181365D01*
X287283470Y-116022615D01*
X287041115Y-116022615D01*
X286807220Y-115975250D01*
X286591808Y-115975250D01*
X286507500Y-115958480D01*
X286377302Y-115958480D01*
X286360500Y-115869187D01*
X286360500Y-115865709D01*
X286367500Y-115848810D01*
X286367500Y-115823225D01*
X286380500Y-115823225D01*
X286380500Y-115247280D01*
X286634500Y-115247280D01*
X286634500Y-115823225D01*
X287283470Y-115823225D01*
X287442220Y-115664475D01*
X287442220Y-115597221D01*
X287345547Y-115363832D01*
X287166919Y-115185203D01*
X286933530Y-115088530D01*
X286793250Y-115088530D01*
X286634500Y-115247280D01*
X286380500Y-115247280D01*
X286367500Y-115234280D01*
X286367500Y-115196190D01*
X286270827Y-114962801D01*
X286092198Y-114784173D01*
X285858809Y-114687500D01*
X285693250Y-114687500D01*
X285581985Y-114798765D01*
X285482720Y-114699500D01*
X285133750Y-114699500D01*
X285121750Y-114687500D01*
X284956191Y-114687500D01*
X284927220Y-114699500D01*
X284906775Y-114699500D01*
X284906775Y-114707969D01*
X284878937Y-114719500D01*
X284754750Y-114719500D01*
X284754750Y-114425500D01*
X284906775Y-114425500D01*
X284906775Y-114445500D01*
X285482720Y-114445500D01*
X285641470Y-114286750D01*
X285641470Y-114146470D01*
X285544797Y-113913081D01*
X285366168Y-113734453D01*
X285246778Y-113685000D01*
X295640280Y-113685000D01*
X295640280Y-113777422D01*
X295640280Y-113777422D01*
G37*
X295640280Y-113777422D02*
X295771723Y-113777422D01*
X295734145Y-113815000D01*
X295002000Y-113815000D01*
X295002000Y-113835000D01*
X294748000Y-113835000D01*
X294748000Y-113815000D01*
X293827250Y-113815000D01*
X293668500Y-113973750D01*
X293668500Y-114131809D01*
X293765173Y-114365198D01*
X293843261Y-114443286D01*
X293707069Y-114642610D01*
X293656060Y-114894500D01*
X293656060Y-115529500D01*
X293700263Y-115764420D01*
X293425750Y-115764420D01*
X293301610Y-115679599D01*
X293049720Y-115628590D01*
X292450280Y-115628590D01*
X292214963Y-115672868D01*
X291998839Y-115811940D01*
X291853849Y-116024140D01*
X291802840Y-116276030D01*
X291802840Y-116674810D01*
X291847118Y-116910127D01*
X291862714Y-116934364D01*
X291815280Y-117048881D01*
X291815280Y-117116135D01*
X291974030Y-117274885D01*
X292216385Y-117274885D01*
X292450280Y-117322250D01*
X292897000Y-117322250D01*
X292897000Y-117474275D01*
X292877000Y-117474275D01*
X292877000Y-118050220D01*
X293035750Y-118208970D01*
X293176030Y-118208970D01*
X293245595Y-118180155D01*
X293240000Y-118185750D01*
X293240000Y-118776309D01*
X293336673Y-119009698D01*
X293515301Y-119188327D01*
X293748690Y-119285000D01*
X293791250Y-119285000D01*
X293950000Y-119126250D01*
X293950000Y-119123026D01*
X294015301Y-119188327D01*
X294248690Y-119285000D01*
X294301310Y-119285000D01*
X294534699Y-119188327D01*
X294536068Y-119186958D01*
X294623110Y-119246431D01*
X294744830Y-119271080D01*
X294758750Y-119285000D01*
X294801310Y-119285000D01*
X294805335Y-119283333D01*
X294875000Y-119297440D01*
X295175000Y-119297440D01*
X295278671Y-119277933D01*
X295375000Y-119297440D01*
X295675000Y-119297440D01*
X295778671Y-119277933D01*
X295875000Y-119297440D01*
X296175000Y-119297440D01*
X296278671Y-119277933D01*
X296375000Y-119297440D01*
X296675000Y-119297440D01*
X296778671Y-119277933D01*
X296875000Y-119297440D01*
X297175000Y-119297440D01*
X297246323Y-119284020D01*
X297248690Y-119285000D01*
X297291250Y-119285000D01*
X297302871Y-119273379D01*
X297410317Y-119253162D01*
X297524978Y-119179380D01*
X297623110Y-119246431D01*
X297744830Y-119271080D01*
X297758750Y-119285000D01*
X297801310Y-119285000D01*
X297805335Y-119283333D01*
X297875000Y-119297440D01*
X298175000Y-119297440D01*
X298246323Y-119284020D01*
X298248690Y-119285000D01*
X298291250Y-119285000D01*
X298302871Y-119273379D01*
X298410317Y-119253162D01*
X298524978Y-119179380D01*
X298623110Y-119246431D01*
X298744830Y-119271080D01*
X298758750Y-119285000D01*
X298801310Y-119285000D01*
X298805335Y-119283333D01*
X298875000Y-119297440D01*
X299175000Y-119297440D01*
X299278671Y-119277933D01*
X299375000Y-119297440D01*
X299675000Y-119297440D01*
X299746323Y-119284020D01*
X299748690Y-119285000D01*
X299791250Y-119285000D01*
X299802871Y-119273379D01*
X299814000Y-119271285D01*
X299814000Y-121775000D01*
X299868122Y-122047088D01*
X300022247Y-122277753D01*
X302077560Y-124333066D01*
X302077560Y-124500000D01*
X302097067Y-124603671D01*
X302077560Y-124700000D01*
X302077560Y-125000000D01*
X302097067Y-125103671D01*
X302077560Y-125200000D01*
X302077560Y-125500000D01*
X302097067Y-125603671D01*
X302077560Y-125700000D01*
X302077560Y-126000000D01*
X302097067Y-126103671D01*
X302077560Y-126200000D01*
X302077560Y-126500000D01*
X302097067Y-126603671D01*
X302089913Y-126639000D01*
X299850000Y-126639000D01*
X299577912Y-126693122D01*
X299347247Y-126847247D01*
X299155494Y-127039000D01*
X296825000Y-127039000D01*
X296552912Y-127093122D01*
X296322247Y-127247247D01*
X296022247Y-127547247D01*
X295944344Y-127663838D01*
X295127753Y-126847247D01*
X294897088Y-126693122D01*
X294625000Y-126639000D01*
X293460962Y-126639000D01*
X293459020Y-126628677D01*
X293460000Y-126626310D01*
X293460000Y-126583750D01*
X293448379Y-126572129D01*
X293428162Y-126464683D01*
X293361672Y-126361354D01*
X293363327Y-126359699D01*
X293460000Y-126126310D01*
X293460000Y-126073690D01*
X293367344Y-125850000D01*
X293460000Y-125626310D01*
X293460000Y-125573690D01*
X293363327Y-125340301D01*
X293361958Y-125338932D01*
X293421431Y-125251890D01*
X293446080Y-125130170D01*
X293460000Y-125116250D01*
X293460000Y-125073690D01*
X293458333Y-125069665D01*
X293472440Y-125000000D01*
X293472440Y-124700000D01*
X293459020Y-124628677D01*
X293460000Y-124626310D01*
X293460000Y-124583750D01*
X293448379Y-124572129D01*
X293428162Y-124464683D01*
X293361672Y-124361354D01*
X293363327Y-124359699D01*
X293460000Y-124126310D01*
X293460000Y-124073690D01*
X293363327Y-123840301D01*
X293361958Y-123838932D01*
X293421431Y-123751890D01*
X293446080Y-123630170D01*
X293460000Y-123616250D01*
X293460000Y-123573690D01*
X293458333Y-123569665D01*
X293472440Y-123500000D01*
X293472440Y-123200000D01*
X293452933Y-123096329D01*
X293472440Y-123000000D01*
X293472440Y-122700000D01*
X293459020Y-122628677D01*
X293460000Y-122626310D01*
X293460000Y-122583750D01*
X293448379Y-122572129D01*
X293428162Y-122464683D01*
X293354380Y-122350022D01*
X293421431Y-122251890D01*
X293446080Y-122130170D01*
X293460000Y-122116250D01*
X293460000Y-122073690D01*
X293458333Y-122069665D01*
X293472440Y-122000000D01*
X293472440Y-121700000D01*
X293452933Y-121596329D01*
X293472440Y-121500000D01*
X293472440Y-121200000D01*
X293452933Y-121096329D01*
X293472440Y-121000000D01*
X293472440Y-120700000D01*
X293452933Y-120596329D01*
X293472440Y-120500000D01*
X293472440Y-120200000D01*
X293459020Y-120128677D01*
X293460000Y-120126310D01*
X293460000Y-120083750D01*
X293448379Y-120072129D01*
X293428162Y-119964683D01*
X293304204Y-119772046D01*
X293460000Y-119616250D01*
X293460000Y-119573690D01*
X293363327Y-119340301D01*
X293184698Y-119161673D01*
X292951309Y-119065000D01*
X292360750Y-119065000D01*
X292202000Y-119223750D01*
X292202000Y-119552560D01*
X291948000Y-119552560D01*
X291948000Y-119223750D01*
X291789250Y-119065000D01*
X291198691Y-119065000D01*
X290965302Y-119161673D01*
X290786673Y-119340301D01*
X290690000Y-119573690D01*
X290690000Y-119616250D01*
X290712750Y-119639000D01*
X290570000Y-119639000D01*
X290297912Y-119693122D01*
X290067247Y-119847247D01*
X289407247Y-120507247D01*
X289253122Y-120737912D01*
X289199000Y-121010000D01*
X289199000Y-121515170D01*
X289086890Y-121438569D01*
X288835000Y-121387560D01*
X288035000Y-121387560D01*
X287814699Y-121429013D01*
X287610000Y-121387560D01*
X286810000Y-121387560D01*
X286574683Y-121431838D01*
X286358559Y-121570910D01*
X286213569Y-121783110D01*
X286162560Y-122035000D01*
X286162560Y-122275743D01*
X286122882Y-122064873D01*
X286107286Y-122040636D01*
X286154720Y-121926119D01*
X286154720Y-121858865D01*
X285995970Y-121700115D01*
X285753615Y-121700115D01*
X285519720Y-121652750D01*
X285073000Y-121652750D01*
X285073000Y-121500725D01*
X285093000Y-121500725D01*
X285093000Y-120924780D01*
X285347000Y-120924780D01*
X285347000Y-121500725D01*
X285995970Y-121500725D01*
X286154720Y-121341975D01*
X286154720Y-121274721D01*
X286058047Y-121041332D01*
X285879419Y-120862703D01*
X285646030Y-120766030D01*
X285505750Y-120766030D01*
X285347000Y-120924780D01*
X285093000Y-120924780D01*
X284995605Y-120827385D01*
X284978162Y-120734683D01*
X284839090Y-120518559D01*
X284732175Y-120445507D01*
X284706878Y-120318332D01*
X284552753Y-120087667D01*
X284306410Y-119841324D01*
X284306410Y-119700280D01*
X284262132Y-119464963D01*
X284123060Y-119248839D01*
X283910860Y-119103849D01*
X283658970Y-119052840D01*
X283260190Y-119052840D01*
X283024873Y-119097118D01*
X283013016Y-119104748D01*
X283011700Y-119103849D01*
X282759810Y-119052840D01*
X282618766Y-119052840D01*
X281271000Y-117705074D01*
X281271000Y-117696402D01*
X281286000Y-117699440D01*
X282429000Y-117699440D01*
X282499896Y-117686100D01*
X285407500Y-117686100D01*
X285409611Y-117685680D01*
X286507500Y-117685680D01*
X286591808Y-117668910D01*
X286807220Y-117668910D01*
X286997932Y-117633025D01*
X291815280Y-117633025D01*
X291815280Y-117700279D01*
X291911953Y-117933668D01*
X292090581Y-118112297D01*
X292323970Y-118208970D01*
X292464250Y-118208970D01*
X292623000Y-118050220D01*
X292623000Y-117474275D01*
X291974030Y-117474275D01*
X291815280Y-117633025D01*
X286997932Y-117633025D01*
X287042537Y-117624632D01*
X287258661Y-117485560D01*
X287403651Y-117273360D01*
X287454660Y-117021470D01*
X287454660Y-116622690D01*
X287410382Y-116387373D01*
X287394786Y-116363136D01*
X287442220Y-116248619D01*
X287442220Y-116181365D01*
X287283470Y-116022615D01*
X287041115Y-116022615D01*
X286807220Y-115975250D01*
X286591808Y-115975250D01*
X286507500Y-115958480D01*
X286377302Y-115958480D01*
X286360500Y-115869187D01*
X286360500Y-115865709D01*
X286367500Y-115848810D01*
X286367500Y-115823225D01*
X286380500Y-115823225D01*
X286380500Y-115247280D01*
X286634500Y-115247280D01*
X286634500Y-115823225D01*
X287283470Y-115823225D01*
X287442220Y-115664475D01*
X287442220Y-115597221D01*
X287345547Y-115363832D01*
X287166919Y-115185203D01*
X286933530Y-115088530D01*
X286793250Y-115088530D01*
X286634500Y-115247280D01*
X286380500Y-115247280D01*
X286367500Y-115234280D01*
X286367500Y-115196190D01*
X286270827Y-114962801D01*
X286092198Y-114784173D01*
X285858809Y-114687500D01*
X285693250Y-114687500D01*
X285581985Y-114798765D01*
X285482720Y-114699500D01*
X285133750Y-114699500D01*
X285121750Y-114687500D01*
X284956191Y-114687500D01*
X284927220Y-114699500D01*
X284906775Y-114699500D01*
X284906775Y-114707969D01*
X284878937Y-114719500D01*
X284754750Y-114719500D01*
X284754750Y-114425500D01*
X284906775Y-114425500D01*
X284906775Y-114445500D01*
X285482720Y-114445500D01*
X285641470Y-114286750D01*
X285641470Y-114146470D01*
X285544797Y-113913081D01*
X285366168Y-113734453D01*
X285246778Y-113685000D01*
X295640280Y-113685000D01*
X295640280Y-113777422D01*
G36*
X284772750Y-123832560D02*
X284650000Y-123832560D01*
X284573420Y-123846969D01*
X284573420Y-123653000D01*
X284620725Y-123653000D01*
X284620725Y-123633000D01*
X284772750Y-123633000D01*
X284772750Y-123832560D01*
X284772750Y-123832560D01*
G37*
X284772750Y-123832560D02*
X284650000Y-123832560D01*
X284573420Y-123846969D01*
X284573420Y-123653000D01*
X284620725Y-123653000D01*
X284620725Y-123633000D01*
X284772750Y-123633000D01*
X284772750Y-123832560D01*
G36*
X270377247Y-118722753D02*
X270607912Y-118876878D01*
X270880000Y-118931000D01*
X270946090Y-118931000D01*
X270946090Y-119119346D01*
X270814970Y-119203720D01*
X270703750Y-119092500D01*
X270686190Y-119092500D01*
X270452801Y-119189173D01*
X270274173Y-119367802D01*
X270254166Y-119416104D01*
X270248047Y-119401332D01*
X270069419Y-119222703D01*
X269836030Y-119126030D01*
X269695750Y-119126030D01*
X269537000Y-119284780D01*
X269537000Y-119817239D01*
X269519992Y-119820622D01*
X269289327Y-119974747D01*
X269263000Y-120001074D01*
X269263000Y-119860725D01*
X269283000Y-119860725D01*
X269283000Y-119284780D01*
X269124250Y-119126030D01*
X268983970Y-119126030D01*
X268750581Y-119222703D01*
X268571953Y-119401332D01*
X268497835Y-119580269D01*
X268472397Y-119518857D01*
X268230213Y-119449392D01*
X267429605Y-120250000D01*
X268230213Y-121050608D01*
X268462840Y-120983884D01*
X268462840Y-121058970D01*
X268495420Y-121232117D01*
X268491154Y-121242391D01*
X268490846Y-121596057D01*
X268625903Y-121922920D01*
X268875764Y-122173218D01*
X269202391Y-122308846D01*
X269514826Y-122309118D01*
X269534338Y-122412817D01*
X269638720Y-122575030D01*
X269527500Y-122686250D01*
X269527500Y-122703810D01*
X269624173Y-122937199D01*
X269802802Y-123115827D01*
X269940830Y-123173000D01*
X266605000Y-123173000D01*
X266605000Y-121503130D01*
X267042302Y-121659144D01*
X267597368Y-121631362D01*
X267981143Y-121472397D01*
X268050608Y-121230213D01*
X267250000Y-120429605D01*
X267235858Y-120443748D01*
X267056253Y-120264143D01*
X267070395Y-120250000D01*
X267056253Y-120235858D01*
X267235858Y-120056253D01*
X267250000Y-120070395D01*
X268050608Y-119269787D01*
X268007484Y-119119440D01*
X268012000Y-119119440D01*
X268247317Y-119075162D01*
X268463441Y-118936090D01*
X268608431Y-118723890D01*
X268659440Y-118472000D01*
X268659440Y-118421000D01*
X270075494Y-118421000D01*
X270377247Y-118722753D01*
X270377247Y-118722753D01*
G37*
X270377247Y-118722753D02*
X270607912Y-118876878D01*
X270880000Y-118931000D01*
X270946090Y-118931000D01*
X270946090Y-119119346D01*
X270814970Y-119203720D01*
X270703750Y-119092500D01*
X270686190Y-119092500D01*
X270452801Y-119189173D01*
X270274173Y-119367802D01*
X270254166Y-119416104D01*
X270248047Y-119401332D01*
X270069419Y-119222703D01*
X269836030Y-119126030D01*
X269695750Y-119126030D01*
X269537000Y-119284780D01*
X269537000Y-119817239D01*
X269519992Y-119820622D01*
X269289327Y-119974747D01*
X269263000Y-120001074D01*
X269263000Y-119860725D01*
X269283000Y-119860725D01*
X269283000Y-119284780D01*
X269124250Y-119126030D01*
X268983970Y-119126030D01*
X268750581Y-119222703D01*
X268571953Y-119401332D01*
X268497835Y-119580269D01*
X268472397Y-119518857D01*
X268230213Y-119449392D01*
X267429605Y-120250000D01*
X268230213Y-121050608D01*
X268462840Y-120983884D01*
X268462840Y-121058970D01*
X268495420Y-121232117D01*
X268491154Y-121242391D01*
X268490846Y-121596057D01*
X268625903Y-121922920D01*
X268875764Y-122173218D01*
X269202391Y-122308846D01*
X269514826Y-122309118D01*
X269534338Y-122412817D01*
X269638720Y-122575030D01*
X269527500Y-122686250D01*
X269527500Y-122703810D01*
X269624173Y-122937199D01*
X269802802Y-123115827D01*
X269940830Y-123173000D01*
X266605000Y-123173000D01*
X266605000Y-121503130D01*
X267042302Y-121659144D01*
X267597368Y-121631362D01*
X267981143Y-121472397D01*
X268050608Y-121230213D01*
X267250000Y-120429605D01*
X267235858Y-120443748D01*
X267056253Y-120264143D01*
X267070395Y-120250000D01*
X267056253Y-120235858D01*
X267235858Y-120056253D01*
X267250000Y-120070395D01*
X268050608Y-119269787D01*
X268007484Y-119119440D01*
X268012000Y-119119440D01*
X268247317Y-119075162D01*
X268463441Y-118936090D01*
X268608431Y-118723890D01*
X268659440Y-118472000D01*
X268659440Y-118421000D01*
X270075494Y-118421000D01*
X270377247Y-118722753D01*
G36*
X280262750Y-122169000D02*
X280063420Y-122169000D01*
X280063420Y-122053000D01*
X280110725Y-122053000D01*
X280110725Y-122033000D01*
X280262750Y-122033000D01*
X280262750Y-122169000D01*
X280262750Y-122169000D01*
G37*
X280262750Y-122169000D02*
X280063420Y-122169000D01*
X280063420Y-122053000D01*
X280110725Y-122053000D01*
X280110725Y-122033000D01*
X280262750Y-122033000D01*
X280262750Y-122169000D01*
G36*
X272160610Y-120848931D02*
X272313678Y-120879928D01*
X272321250Y-120887500D01*
X272338810Y-120887500D01*
X272342835Y-120885833D01*
X272412500Y-120899940D01*
X272490060Y-120899940D01*
X272490060Y-120977500D01*
X272509567Y-121081171D01*
X272490060Y-121177500D01*
X272490060Y-121377500D01*
X272509567Y-121481171D01*
X272490060Y-121577500D01*
X272490060Y-121777500D01*
X272509567Y-121881171D01*
X272490060Y-121977500D01*
X272490060Y-122055060D01*
X272412500Y-122055060D01*
X272308829Y-122074567D01*
X272212500Y-122055060D01*
X272012500Y-122055060D01*
X271908829Y-122074567D01*
X271812500Y-122055060D01*
X271612500Y-122055060D01*
X271508829Y-122074567D01*
X271412500Y-122055060D01*
X271334940Y-122055060D01*
X271334940Y-121977500D01*
X271315433Y-121873829D01*
X271334940Y-121777500D01*
X271334940Y-121577500D01*
X271315433Y-121473829D01*
X271334940Y-121377500D01*
X271334940Y-121177500D01*
X271315433Y-121073829D01*
X271334940Y-120977500D01*
X271334940Y-120899940D01*
X271412500Y-120899940D01*
X271516171Y-120880433D01*
X271612500Y-120899940D01*
X271812500Y-120899940D01*
X271883823Y-120886520D01*
X271886190Y-120887500D01*
X271903750Y-120887500D01*
X271909576Y-120881674D01*
X272047817Y-120855662D01*
X272110978Y-120815019D01*
X272160610Y-120848931D01*
X272160610Y-120848931D01*
G37*
X272160610Y-120848931D02*
X272313678Y-120879928D01*
X272321250Y-120887500D01*
X272338810Y-120887500D01*
X272342835Y-120885833D01*
X272412500Y-120899940D01*
X272490060Y-120899940D01*
X272490060Y-120977500D01*
X272509567Y-121081171D01*
X272490060Y-121177500D01*
X272490060Y-121377500D01*
X272509567Y-121481171D01*
X272490060Y-121577500D01*
X272490060Y-121777500D01*
X272509567Y-121881171D01*
X272490060Y-121977500D01*
X272490060Y-122055060D01*
X272412500Y-122055060D01*
X272308829Y-122074567D01*
X272212500Y-122055060D01*
X272012500Y-122055060D01*
X271908829Y-122074567D01*
X271812500Y-122055060D01*
X271612500Y-122055060D01*
X271508829Y-122074567D01*
X271412500Y-122055060D01*
X271334940Y-122055060D01*
X271334940Y-121977500D01*
X271315433Y-121873829D01*
X271334940Y-121777500D01*
X271334940Y-121577500D01*
X271315433Y-121473829D01*
X271334940Y-121377500D01*
X271334940Y-121177500D01*
X271315433Y-121073829D01*
X271334940Y-120977500D01*
X271334940Y-120899940D01*
X271412500Y-120899940D01*
X271516171Y-120880433D01*
X271612500Y-120899940D01*
X271812500Y-120899940D01*
X271883823Y-120886520D01*
X271886190Y-120887500D01*
X271903750Y-120887500D01*
X271909576Y-120881674D01*
X272047817Y-120855662D01*
X272110978Y-120815019D01*
X272160610Y-120848931D01*
G36*
X278949500Y-121641775D02*
X278929500Y-121641775D01*
X278929500Y-121689080D01*
X278675500Y-121689080D01*
X278675500Y-121641775D01*
X278655500Y-121641775D01*
X278655500Y-121489750D01*
X278949500Y-121489750D01*
X278949500Y-121641775D01*
X278949500Y-121641775D01*
G37*
X278949500Y-121641775D02*
X278929500Y-121641775D01*
X278929500Y-121689080D01*
X278675500Y-121689080D01*
X278675500Y-121641775D01*
X278655500Y-121641775D01*
X278655500Y-121489750D01*
X278949500Y-121489750D01*
X278949500Y-121641775D01*
G36*
X276209500Y-121425498D02*
X276192500Y-121425498D01*
X276192500Y-121541775D01*
X276189500Y-121541775D01*
X276189500Y-121589080D01*
X275935500Y-121589080D01*
X275935500Y-121541775D01*
X275915500Y-121541775D01*
X275915500Y-121389750D01*
X276209500Y-121389750D01*
X276209500Y-121425498D01*
X276209500Y-121425498D01*
G37*
X276209500Y-121425498D02*
X276192500Y-121425498D01*
X276192500Y-121541775D01*
X276189500Y-121541775D01*
X276189500Y-121589080D01*
X275935500Y-121589080D01*
X275935500Y-121541775D01*
X275915500Y-121541775D01*
X275915500Y-121389750D01*
X276209500Y-121389750D01*
X276209500Y-121425498D01*
G36*
X281279704Y-119724790D02*
X280606827Y-120397667D01*
X280509883Y-120542754D01*
X280324236Y-120356782D01*
X279997609Y-120221154D01*
X279936607Y-120221101D01*
X279855673Y-120140167D01*
X279724052Y-120052221D01*
X279746533Y-120018575D01*
X279873941Y-119936590D01*
X280018931Y-119724390D01*
X280069940Y-119472500D01*
X280069940Y-118677160D01*
X280168970Y-118677160D01*
X280222081Y-118667167D01*
X281279704Y-119724790D01*
X281279704Y-119724790D01*
G37*
X281279704Y-119724790D02*
X280606827Y-120397667D01*
X280509883Y-120542754D01*
X280324236Y-120356782D01*
X279997609Y-120221154D01*
X279936607Y-120221101D01*
X279855673Y-120140167D01*
X279724052Y-120052221D01*
X279746533Y-120018575D01*
X279873941Y-119936590D01*
X280018931Y-119724390D01*
X280069940Y-119472500D01*
X280069940Y-118677160D01*
X280168970Y-118677160D01*
X280222081Y-118667167D01*
X281279704Y-119724790D01*
G36*
X274575340Y-119022310D02*
X274619618Y-119257627D01*
X274635214Y-119281864D01*
X274587780Y-119396381D01*
X274587780Y-119463635D01*
X274746530Y-119622385D01*
X274988885Y-119622385D01*
X275222780Y-119669750D01*
X275669500Y-119669750D01*
X275669500Y-119713642D01*
X275527463Y-119740368D01*
X275395500Y-119825284D01*
X275395500Y-119821775D01*
X274746530Y-119821775D01*
X274587780Y-119980525D01*
X274587780Y-120047779D01*
X274665772Y-120236067D01*
X274557609Y-120191154D01*
X274274830Y-120190908D01*
X274265662Y-120142183D01*
X274126590Y-119926059D01*
X273914390Y-119781069D01*
X273662500Y-119730060D01*
X273659940Y-119730060D01*
X273659940Y-119727500D01*
X273615662Y-119492183D01*
X273503779Y-119318311D01*
X273526470Y-119263530D01*
X273526470Y-119123250D01*
X273367722Y-118964502D01*
X273407081Y-118964502D01*
X273425764Y-118983218D01*
X273752391Y-119118846D01*
X274106057Y-119119154D01*
X274432920Y-118984097D01*
X274486110Y-118931000D01*
X274575340Y-118931000D01*
X274575340Y-119022310D01*
X274575340Y-119022310D01*
G37*
X274575340Y-119022310D02*
X274619618Y-119257627D01*
X274635214Y-119281864D01*
X274587780Y-119396381D01*
X274587780Y-119463635D01*
X274746530Y-119622385D01*
X274988885Y-119622385D01*
X275222780Y-119669750D01*
X275669500Y-119669750D01*
X275669500Y-119713642D01*
X275527463Y-119740368D01*
X275395500Y-119825284D01*
X275395500Y-119821775D01*
X274746530Y-119821775D01*
X274587780Y-119980525D01*
X274587780Y-120047779D01*
X274665772Y-120236067D01*
X274557609Y-120191154D01*
X274274830Y-120190908D01*
X274265662Y-120142183D01*
X274126590Y-119926059D01*
X273914390Y-119781069D01*
X273662500Y-119730060D01*
X273659940Y-119730060D01*
X273659940Y-119727500D01*
X273615662Y-119492183D01*
X273503779Y-119318311D01*
X273526470Y-119263530D01*
X273526470Y-119123250D01*
X273367722Y-118964502D01*
X273407081Y-118964502D01*
X273425764Y-118983218D01*
X273752391Y-119118846D01*
X274106057Y-119119154D01*
X274432920Y-118984097D01*
X274486110Y-118931000D01*
X274575340Y-118931000D01*
X274575340Y-119022310D01*
G36*
X294172000Y-118027000D02*
X293878000Y-118027000D01*
X293878000Y-117773000D01*
X294172000Y-117773000D01*
X294172000Y-118027000D01*
X294172000Y-118027000D01*
G37*
X294172000Y-118027000D02*
X293878000Y-118027000D01*
X293878000Y-117773000D01*
X294172000Y-117773000D01*
X294172000Y-118027000D01*
G36*
X311073559Y-113685910D02*
X310928569Y-113898110D01*
X310877560Y-114150000D01*
X310877560Y-115491934D01*
X308505494Y-117864000D01*
X308388903Y-117864000D01*
X308363060Y-117823839D01*
X308150860Y-117678849D01*
X307898970Y-117627840D01*
X307500190Y-117627840D01*
X307264873Y-117672118D01*
X307253016Y-117679748D01*
X307251700Y-117678849D01*
X306999810Y-117627840D01*
X306908546Y-117627840D01*
X306877882Y-117464873D01*
X306862286Y-117440636D01*
X306909720Y-117326119D01*
X306909720Y-117258865D01*
X306750970Y-117100115D01*
X306508615Y-117100115D01*
X306274720Y-117052750D01*
X306059308Y-117052750D01*
X305975000Y-117035980D01*
X304750000Y-117035980D01*
X304665692Y-117052750D01*
X304661000Y-117052750D01*
X304661000Y-116600000D01*
X304623000Y-116408962D01*
X304623000Y-116324780D01*
X304877000Y-116324780D01*
X304877000Y-116900725D01*
X305848000Y-116900725D01*
X305848000Y-116324780D01*
X306102000Y-116324780D01*
X306102000Y-116900725D01*
X306750970Y-116900725D01*
X306909720Y-116741975D01*
X306909720Y-116674721D01*
X306813047Y-116441332D01*
X306634419Y-116262703D01*
X306401030Y-116166030D01*
X306260750Y-116166030D01*
X306102000Y-116324780D01*
X305848000Y-116324780D01*
X305689250Y-116166030D01*
X305548970Y-116166030D01*
X305362500Y-116243268D01*
X305176030Y-116166030D01*
X305035750Y-116166030D01*
X304877000Y-116324780D01*
X304623000Y-116324780D01*
X304568107Y-116269887D01*
X304452753Y-116097247D01*
X303827333Y-115471827D01*
X303771018Y-115434199D01*
X303784720Y-115401119D01*
X303784720Y-115333865D01*
X303625970Y-115175115D01*
X303383615Y-115175115D01*
X303149720Y-115127750D01*
X302934308Y-115127750D01*
X302850000Y-115110980D01*
X301800000Y-115110980D01*
X301715692Y-115127750D01*
X301500280Y-115127750D01*
X301264963Y-115172028D01*
X301260166Y-115175115D01*
X301043281Y-115175115D01*
X300828029Y-115085734D01*
X300474363Y-115085426D01*
X300354541Y-115134935D01*
X300446151Y-115000860D01*
X300497007Y-114749721D01*
X300865280Y-114749721D01*
X300865280Y-114816975D01*
X301024030Y-114975725D01*
X301673000Y-114975725D01*
X301673000Y-114749721D01*
X301915280Y-114749721D01*
X301915280Y-114816975D01*
X301927000Y-114828695D01*
X301927000Y-114975725D01*
X302723000Y-114975725D01*
X302723000Y-114828695D01*
X302734720Y-114816975D01*
X302734720Y-114749721D01*
X302723000Y-114721426D01*
X302723000Y-114399780D01*
X302977000Y-114399780D01*
X302977000Y-114975725D01*
X303625970Y-114975725D01*
X303784720Y-114816975D01*
X303784720Y-114749721D01*
X303688047Y-114516332D01*
X303509419Y-114337703D01*
X303276030Y-114241030D01*
X303135750Y-114241030D01*
X302977000Y-114399780D01*
X302723000Y-114399780D01*
X302564250Y-114241030D01*
X302423970Y-114241030D01*
X302325000Y-114282025D01*
X302226030Y-114241030D01*
X302085750Y-114241030D01*
X301927000Y-114399780D01*
X301927000Y-114721426D01*
X301915280Y-114749721D01*
X301673000Y-114749721D01*
X301673000Y-114399780D01*
X301514250Y-114241030D01*
X301373970Y-114241030D01*
X301140581Y-114337703D01*
X300961953Y-114516332D01*
X300865280Y-114749721D01*
X300497007Y-114749721D01*
X300497160Y-114748970D01*
X300497160Y-114350190D01*
X300452882Y-114114873D01*
X300437286Y-114090636D01*
X300484720Y-113976119D01*
X300484720Y-113908865D01*
X300353277Y-113777422D01*
X300484720Y-113777422D01*
X300484720Y-113685000D01*
X311074973Y-113685000D01*
X311073559Y-113685910D01*
X311073559Y-113685910D01*
G37*
X311073559Y-113685910D02*
X310928569Y-113898110D01*
X310877560Y-114150000D01*
X310877560Y-115491934D01*
X308505494Y-117864000D01*
X308388903Y-117864000D01*
X308363060Y-117823839D01*
X308150860Y-117678849D01*
X307898970Y-117627840D01*
X307500190Y-117627840D01*
X307264873Y-117672118D01*
X307253016Y-117679748D01*
X307251700Y-117678849D01*
X306999810Y-117627840D01*
X306908546Y-117627840D01*
X306877882Y-117464873D01*
X306862286Y-117440636D01*
X306909720Y-117326119D01*
X306909720Y-117258865D01*
X306750970Y-117100115D01*
X306508615Y-117100115D01*
X306274720Y-117052750D01*
X306059308Y-117052750D01*
X305975000Y-117035980D01*
X304750000Y-117035980D01*
X304665692Y-117052750D01*
X304661000Y-117052750D01*
X304661000Y-116600000D01*
X304623000Y-116408962D01*
X304623000Y-116324780D01*
X304877000Y-116324780D01*
X304877000Y-116900725D01*
X305848000Y-116900725D01*
X305848000Y-116324780D01*
X306102000Y-116324780D01*
X306102000Y-116900725D01*
X306750970Y-116900725D01*
X306909720Y-116741975D01*
X306909720Y-116674721D01*
X306813047Y-116441332D01*
X306634419Y-116262703D01*
X306401030Y-116166030D01*
X306260750Y-116166030D01*
X306102000Y-116324780D01*
X305848000Y-116324780D01*
X305689250Y-116166030D01*
X305548970Y-116166030D01*
X305362500Y-116243268D01*
X305176030Y-116166030D01*
X305035750Y-116166030D01*
X304877000Y-116324780D01*
X304623000Y-116324780D01*
X304568107Y-116269887D01*
X304452753Y-116097247D01*
X303827333Y-115471827D01*
X303771018Y-115434199D01*
X303784720Y-115401119D01*
X303784720Y-115333865D01*
X303625970Y-115175115D01*
X303383615Y-115175115D01*
X303149720Y-115127750D01*
X302934308Y-115127750D01*
X302850000Y-115110980D01*
X301800000Y-115110980D01*
X301715692Y-115127750D01*
X301500280Y-115127750D01*
X301264963Y-115172028D01*
X301260166Y-115175115D01*
X301043281Y-115175115D01*
X300828029Y-115085734D01*
X300474363Y-115085426D01*
X300354541Y-115134935D01*
X300446151Y-115000860D01*
X300497007Y-114749721D01*
X300865280Y-114749721D01*
X300865280Y-114816975D01*
X301024030Y-114975725D01*
X301673000Y-114975725D01*
X301673000Y-114749721D01*
X301915280Y-114749721D01*
X301915280Y-114816975D01*
X301927000Y-114828695D01*
X301927000Y-114975725D01*
X302723000Y-114975725D01*
X302723000Y-114828695D01*
X302734720Y-114816975D01*
X302734720Y-114749721D01*
X302723000Y-114721426D01*
X302723000Y-114399780D01*
X302977000Y-114399780D01*
X302977000Y-114975725D01*
X303625970Y-114975725D01*
X303784720Y-114816975D01*
X303784720Y-114749721D01*
X303688047Y-114516332D01*
X303509419Y-114337703D01*
X303276030Y-114241030D01*
X303135750Y-114241030D01*
X302977000Y-114399780D01*
X302723000Y-114399780D01*
X302564250Y-114241030D01*
X302423970Y-114241030D01*
X302325000Y-114282025D01*
X302226030Y-114241030D01*
X302085750Y-114241030D01*
X301927000Y-114399780D01*
X301927000Y-114721426D01*
X301915280Y-114749721D01*
X301673000Y-114749721D01*
X301673000Y-114399780D01*
X301514250Y-114241030D01*
X301373970Y-114241030D01*
X301140581Y-114337703D01*
X300961953Y-114516332D01*
X300865280Y-114749721D01*
X300497007Y-114749721D01*
X300497160Y-114748970D01*
X300497160Y-114350190D01*
X300452882Y-114114873D01*
X300437286Y-114090636D01*
X300484720Y-113976119D01*
X300484720Y-113908865D01*
X300353277Y-113777422D01*
X300484720Y-113777422D01*
X300484720Y-113685000D01*
X311074973Y-113685000D01*
X311073559Y-113685910D01*
G36*
X269993748Y-115065858D02*
X269979605Y-115080000D01*
X270780213Y-115880608D01*
X271022397Y-115811143D01*
X271209144Y-115287698D01*
X271205530Y-115215483D01*
X271525021Y-115534974D01*
X271525023Y-115534977D01*
X271527840Y-115536859D01*
X271527840Y-115734810D01*
X271572118Y-115970127D01*
X271587714Y-115994364D01*
X271540280Y-116108881D01*
X271540280Y-116176135D01*
X271699030Y-116334885D01*
X271941385Y-116334885D01*
X272175280Y-116382250D01*
X272622000Y-116382250D01*
X272622000Y-116420280D01*
X272603865Y-116420280D01*
X272445115Y-116579030D01*
X272445115Y-116581580D01*
X272348000Y-116581580D01*
X272348000Y-116534275D01*
X272200970Y-116534275D01*
X272086975Y-116420280D01*
X272019721Y-116420280D01*
X271786332Y-116516953D01*
X271769010Y-116534275D01*
X271699030Y-116534275D01*
X271540280Y-116693025D01*
X271540280Y-116760279D01*
X271560592Y-116809317D01*
X271511030Y-116928970D01*
X271511030Y-117069250D01*
X271669780Y-117228000D01*
X271950060Y-117228000D01*
X272048970Y-117268970D01*
X272189250Y-117268970D01*
X272230220Y-117228000D01*
X272245725Y-117228000D01*
X272245725Y-117212495D01*
X272347998Y-117110222D01*
X272347998Y-117268970D01*
X272397750Y-117268970D01*
X272397750Y-117502000D01*
X272245725Y-117502000D01*
X272245725Y-117482000D01*
X271669780Y-117482000D01*
X271642780Y-117509000D01*
X271174506Y-117509000D01*
X270872753Y-117207247D01*
X270642088Y-117053122D01*
X270370000Y-116999000D01*
X268659440Y-116999000D01*
X268659440Y-116948000D01*
X268615162Y-116712683D01*
X268476090Y-116496559D01*
X268331245Y-116397591D01*
X268473441Y-116306090D01*
X268618431Y-116093890D01*
X268625250Y-116060213D01*
X268999392Y-116060213D01*
X269068857Y-116302397D01*
X269592302Y-116489144D01*
X270147368Y-116461362D01*
X270531143Y-116302397D01*
X270600608Y-116060213D01*
X269800000Y-115259605D01*
X268999392Y-116060213D01*
X268625250Y-116060213D01*
X268669440Y-115842000D01*
X268669440Y-115837484D01*
X268819787Y-115880608D01*
X269620395Y-115080000D01*
X269606253Y-115065858D01*
X269785858Y-114886253D01*
X269800000Y-114900395D01*
X269814143Y-114886253D01*
X269993748Y-115065858D01*
X269993748Y-115065858D01*
G37*
X269993748Y-115065858D02*
X269979605Y-115080000D01*
X270780213Y-115880608D01*
X271022397Y-115811143D01*
X271209144Y-115287698D01*
X271205530Y-115215483D01*
X271525021Y-115534974D01*
X271525023Y-115534977D01*
X271527840Y-115536859D01*
X271527840Y-115734810D01*
X271572118Y-115970127D01*
X271587714Y-115994364D01*
X271540280Y-116108881D01*
X271540280Y-116176135D01*
X271699030Y-116334885D01*
X271941385Y-116334885D01*
X272175280Y-116382250D01*
X272622000Y-116382250D01*
X272622000Y-116420280D01*
X272603865Y-116420280D01*
X272445115Y-116579030D01*
X272445115Y-116581580D01*
X272348000Y-116581580D01*
X272348000Y-116534275D01*
X272200970Y-116534275D01*
X272086975Y-116420280D01*
X272019721Y-116420280D01*
X271786332Y-116516953D01*
X271769010Y-116534275D01*
X271699030Y-116534275D01*
X271540280Y-116693025D01*
X271540280Y-116760279D01*
X271560592Y-116809317D01*
X271511030Y-116928970D01*
X271511030Y-117069250D01*
X271669780Y-117228000D01*
X271950060Y-117228000D01*
X272048970Y-117268970D01*
X272189250Y-117268970D01*
X272230220Y-117228000D01*
X272245725Y-117228000D01*
X272245725Y-117212495D01*
X272347998Y-117110222D01*
X272347998Y-117268970D01*
X272397750Y-117268970D01*
X272397750Y-117502000D01*
X272245725Y-117502000D01*
X272245725Y-117482000D01*
X271669780Y-117482000D01*
X271642780Y-117509000D01*
X271174506Y-117509000D01*
X270872753Y-117207247D01*
X270642088Y-117053122D01*
X270370000Y-116999000D01*
X268659440Y-116999000D01*
X268659440Y-116948000D01*
X268615162Y-116712683D01*
X268476090Y-116496559D01*
X268331245Y-116397591D01*
X268473441Y-116306090D01*
X268618431Y-116093890D01*
X268625250Y-116060213D01*
X268999392Y-116060213D01*
X269068857Y-116302397D01*
X269592302Y-116489144D01*
X270147368Y-116461362D01*
X270531143Y-116302397D01*
X270600608Y-116060213D01*
X269800000Y-115259605D01*
X268999392Y-116060213D01*
X268625250Y-116060213D01*
X268669440Y-115842000D01*
X268669440Y-115837484D01*
X268819787Y-115880608D01*
X269620395Y-115080000D01*
X269606253Y-115065858D01*
X269785858Y-114886253D01*
X269800000Y-114900395D01*
X269814143Y-114886253D01*
X269993748Y-115065858D01*
G36*
X275179275Y-113993000D02*
X275226580Y-113993000D01*
X275226580Y-114247000D01*
X275179275Y-114247000D01*
X275179275Y-114876531D01*
X275177560Y-114885000D01*
X275177560Y-115125000D01*
X275193166Y-115207937D01*
X275177560Y-115285000D01*
X275177560Y-115525000D01*
X275193166Y-115607937D01*
X275177560Y-115685000D01*
X275177560Y-115925000D01*
X275182641Y-115952000D01*
X275047414Y-115952000D01*
X275028162Y-115849683D01*
X275000775Y-115807122D01*
X275021431Y-115776890D01*
X275072440Y-115525000D01*
X275072440Y-115285000D01*
X275056834Y-115202063D01*
X275072440Y-115125000D01*
X275072440Y-114885000D01*
X275028162Y-114649683D01*
X274998000Y-114602810D01*
X274998000Y-114578750D01*
X274995543Y-114576293D01*
X275027250Y-114419720D01*
X275027250Y-113973000D01*
X275179275Y-113973000D01*
X275179275Y-113993000D01*
X275179275Y-113993000D01*
G37*
X275179275Y-113993000D02*
X275226580Y-113993000D01*
X275226580Y-114247000D01*
X275179275Y-114247000D01*
X275179275Y-114876531D01*
X275177560Y-114885000D01*
X275177560Y-115125000D01*
X275193166Y-115207937D01*
X275177560Y-115285000D01*
X275177560Y-115525000D01*
X275193166Y-115607937D01*
X275177560Y-115685000D01*
X275177560Y-115925000D01*
X275182641Y-115952000D01*
X275047414Y-115952000D01*
X275028162Y-115849683D01*
X275000775Y-115807122D01*
X275021431Y-115776890D01*
X275072440Y-115525000D01*
X275072440Y-115285000D01*
X275056834Y-115202063D01*
X275072440Y-115125000D01*
X275072440Y-114885000D01*
X275028162Y-114649683D01*
X274998000Y-114602810D01*
X274998000Y-114578750D01*
X274995543Y-114576293D01*
X275027250Y-114419720D01*
X275027250Y-113973000D01*
X275179275Y-113973000D01*
X275179275Y-113993000D01*
G36*
X278152560Y-114110000D02*
X278196838Y-114345317D01*
X278212950Y-114370355D01*
X278179275Y-114404030D01*
X278179275Y-115053000D01*
X278226580Y-115053000D01*
X278226580Y-115094000D01*
X278027250Y-115094000D01*
X278027250Y-114880280D01*
X277982972Y-114644963D01*
X277979885Y-114640166D01*
X277979885Y-114404030D01*
X277821135Y-114245280D01*
X277753881Y-114245280D01*
X277701487Y-114266983D01*
X277594097Y-114007080D01*
X277344236Y-113756782D01*
X277171367Y-113685000D01*
X278152560Y-113685000D01*
X278152560Y-114110000D01*
X278152560Y-114110000D01*
G37*
X278152560Y-114110000D02*
X278196838Y-114345317D01*
X278212950Y-114370355D01*
X278179275Y-114404030D01*
X278179275Y-115053000D01*
X278226580Y-115053000D01*
X278226580Y-115094000D01*
X278027250Y-115094000D01*
X278027250Y-114880280D01*
X277982972Y-114644963D01*
X277979885Y-114640166D01*
X277979885Y-114404030D01*
X277821135Y-114245280D01*
X277753881Y-114245280D01*
X277701487Y-114266983D01*
X277594097Y-114007080D01*
X277344236Y-113756782D01*
X277171367Y-113685000D01*
X278152560Y-113685000D01*
X278152560Y-114110000D01*
G36*
X296722000Y-113702750D02*
X296428000Y-113702750D01*
X296428000Y-113685000D01*
X296722000Y-113685000D01*
X296722000Y-113702750D01*
X296722000Y-113702750D01*
G37*
X296722000Y-113702750D02*
X296428000Y-113702750D01*
X296428000Y-113685000D01*
X296722000Y-113685000D01*
X296722000Y-113702750D01*
M02*
