M48
;DRILL file {KiCad 4.0.6} date 09/21/17 15:17:19
;FORMAT={-:-/ absolute / inch / decimal}
FMAT,2
INCH,TZ
T1C0.013
T2C0.039
T3C0.040
%
G90
G05
M72
T1
X10.6055Y-4.7803
X10.75Y-4.9559
X10.7846Y-4.6547
X10.7862Y-4.7016
X10.8024Y-4.7669
X10.8433Y-4.8472
X10.8697Y-4.8224
X10.8713Y-4.5012
X10.8992Y-4.5083
X10.9161Y-4.5815
X11.0165Y-4.7681
X11.0409Y-4.7165
X11.0535Y-5.2016
X11.172Y-4.8516
X11.1969Y-4.5622
X11.2319Y-4.7169
X11.2451Y-5.188
X11.271Y-4.8568
X11.4079Y-5.087
X11.4091Y-5.2039
X11.4852Y-5.0531
X11.5561Y-4.9409
X11.751Y-4.7559
X11.7667Y-5.1713
X11.8366Y-4.5659
T2
X12.2699Y-4.6945
X12.2699Y-4.7945
X12.2699Y-4.8945
X12.2699Y-4.9945
X12.288Y-5.1319
X12.2982Y-4.5276
X12.3699Y-4.6945
X12.3699Y-4.7945
X12.3699Y-4.8945
X12.3699Y-4.9945
T3
X10.5217Y-4.6343
X10.5217Y-4.7343
X10.522Y-4.5307
X10.622Y-4.5307
X10.8224Y-4.9305
X10.9224Y-4.9305
T0
M30
