G04 #@! TF.FileFunction,Copper,L2,Bot,Signal*
%FSLAX46Y46*%
G04 Gerber Fmt 4.6, Leading zero omitted, Abs format (unit mm)*
G04 Created by KiCad (PCBNEW 4.0.6) date 09/21/17 14:57:10*
%MOMM*%
%LPD*%
G01*
G04 APERTURE LIST*
%ADD10C,0.150000*%
%ADD11R,1.524000X1.524000*%
%ADD12C,1.524000*%
%ADD13R,1.700000X1.700000*%
%ADD14O,1.700000X1.700000*%
%ADD15C,0.508000*%
%ADD16C,0.152000*%
%ADD17C,0.457200*%
%ADD18C,0.229000*%
%ADD19C,0.254000*%
G04 APERTURE END LIST*
D10*
D11*
X267250000Y-117710000D03*
D12*
X267250000Y-120250000D03*
D13*
X312375000Y-115000000D03*
D11*
X277430000Y-125235000D03*
D12*
X274890000Y-125235000D03*
D11*
X267260000Y-115080000D03*
D12*
X269800000Y-115080000D03*
D13*
X312115000Y-130350000D03*
X311655000Y-119240000D03*
D14*
X314195000Y-119240000D03*
X311655000Y-121780000D03*
X314195000Y-121780000D03*
X311655000Y-124320000D03*
X314195000Y-124320000D03*
X311655000Y-126860000D03*
X314195000Y-126860000D03*
D15*
X285290000Y-119810000D03*
X280440000Y-119800000D03*
X273970000Y-119420000D03*
X293525000Y-125500000D03*
X298875000Y-131350000D03*
X298475000Y-120800000D03*
X291725000Y-128350000D03*
X274380000Y-121080000D03*
X289760000Y-129210000D03*
X286282500Y-123362500D03*
X285625000Y-131775000D03*
X280760000Y-132120000D03*
X273050000Y-125880000D03*
X279820000Y-121110000D03*
X269380000Y-121420000D03*
X300650420Y-115974580D03*
X284400000Y-115880000D03*
X273930000Y-118230000D03*
X276130000Y-114330000D03*
X289790000Y-132180000D03*
X283770000Y-123230000D03*
X276840000Y-114510000D03*
X275420000Y-123120000D03*
X277270000Y-116370000D03*
X276090000Y-122490000D03*
D16*
X280450000Y-119810000D02*
X285290000Y-119810000D01*
X280440000Y-119800000D02*
X280450000Y-119810000D01*
D17*
X269800000Y-115080000D02*
X269800000Y-115250000D01*
X269800000Y-115250000D02*
X273970000Y-119420000D01*
D16*
X293425000Y-128350000D02*
X294650000Y-127125000D01*
X293525000Y-125500000D02*
X293525000Y-126000000D01*
X293525000Y-126000000D02*
X294650000Y-127125000D01*
X294650000Y-127125000D02*
X298875000Y-131350000D01*
X291725000Y-128350000D02*
X293425000Y-128350000D01*
X279820000Y-121110000D02*
X279690000Y-121110000D01*
X278700000Y-122100000D02*
X278700000Y-131180000D01*
X279690000Y-121110000D02*
X278700000Y-122100000D01*
X279820000Y-121110000D02*
X284030000Y-121110000D01*
X284030000Y-121110000D02*
X286282500Y-123362500D01*
X273040000Y-121120000D02*
X274340000Y-121120000D01*
X274340000Y-121120000D02*
X274380000Y-121080000D01*
X279820000Y-131180000D02*
X278700000Y-131180000D01*
X279820000Y-131180000D02*
X280760000Y-132120000D01*
X278700000Y-131180000D02*
X278350000Y-131180000D01*
X278350000Y-131180000D02*
X273050000Y-125880000D01*
X289760000Y-129210000D02*
X289760000Y-126840000D01*
X289760000Y-126840000D02*
X286282500Y-123362500D01*
D18*
X285280000Y-132120000D02*
X280760000Y-132120000D01*
X285280000Y-132120000D02*
X285625000Y-131775000D01*
X273040000Y-121110000D02*
X273040000Y-121120000D01*
X273040000Y-121120000D02*
X273040000Y-125870000D01*
X273040000Y-125870000D02*
X273050000Y-125880000D01*
D16*
X269690000Y-121110000D02*
X273040000Y-121110000D01*
X269380000Y-121420000D02*
X269690000Y-121110000D01*
X300555840Y-115880000D02*
X284400000Y-115880000D01*
X300555840Y-115880000D02*
X300650420Y-115974580D01*
X273930000Y-116530000D02*
X273930000Y-118230000D01*
X276130000Y-114330000D02*
X273930000Y-116530000D01*
X289790000Y-132180000D02*
X283770000Y-126160000D01*
X283770000Y-126160000D02*
X283770000Y-123230000D01*
X276840000Y-114510000D02*
X275420000Y-115930000D01*
X275420000Y-115930000D02*
X275420000Y-123120000D01*
X277270000Y-116370000D02*
X276090000Y-117550000D01*
X276090000Y-117550000D02*
X276090000Y-122490000D01*
D19*
G36*
X311073559Y-113685910D02*
X310928569Y-113898110D01*
X310877560Y-114150000D01*
X310877560Y-115850000D01*
X310921838Y-116085317D01*
X311060910Y-116301441D01*
X311273110Y-116446431D01*
X311525000Y-116497440D01*
X313225000Y-116497440D01*
X313460317Y-116453162D01*
X313676441Y-116314090D01*
X313821431Y-116101890D01*
X313872440Y-115850000D01*
X313872440Y-114150000D01*
X313828162Y-113914683D01*
X313689090Y-113698559D01*
X313669246Y-113685000D01*
X314785000Y-113685000D01*
X314785000Y-117866571D01*
X314224093Y-117755000D01*
X314165907Y-117755000D01*
X313597622Y-117868039D01*
X313115853Y-118189946D01*
X313115029Y-118191179D01*
X313108162Y-118154683D01*
X312969090Y-117938559D01*
X312756890Y-117793569D01*
X312505000Y-117742560D01*
X310805000Y-117742560D01*
X310569683Y-117786838D01*
X310353559Y-117925910D01*
X310208569Y-118138110D01*
X310157560Y-118390000D01*
X310157560Y-120090000D01*
X310201838Y-120325317D01*
X310340910Y-120541441D01*
X310553110Y-120686431D01*
X310620541Y-120700086D01*
X310575853Y-120729946D01*
X310253946Y-121211715D01*
X310140907Y-121780000D01*
X310253946Y-122348285D01*
X310575853Y-122830054D01*
X310905026Y-123050000D01*
X310575853Y-123269946D01*
X310253946Y-123751715D01*
X310140907Y-124320000D01*
X310253946Y-124888285D01*
X310467334Y-125207644D01*
X310447143Y-125237862D01*
X310395000Y-125500000D01*
X310447143Y-125762138D01*
X310527470Y-125882356D01*
X310253946Y-126291715D01*
X310140907Y-126860000D01*
X310253946Y-127428285D01*
X310575853Y-127910054D01*
X311057622Y-128231961D01*
X311625907Y-128345000D01*
X311684093Y-128345000D01*
X312252378Y-128231961D01*
X312734147Y-127910054D01*
X312925000Y-127624422D01*
X313115853Y-127910054D01*
X313597622Y-128231961D01*
X314165907Y-128345000D01*
X314224093Y-128345000D01*
X314785000Y-128233429D01*
X314785000Y-133485000D01*
X266605000Y-133485000D01*
X266605000Y-132127000D01*
X272410000Y-132127000D01*
X272459410Y-132116994D01*
X272501035Y-132088553D01*
X272528315Y-132046159D01*
X272537000Y-132000000D01*
X272537000Y-126624439D01*
X272545764Y-126633218D01*
X272872391Y-126768846D01*
X272933393Y-126768899D01*
X277847247Y-131682753D01*
X278077912Y-131836878D01*
X278350000Y-131891000D01*
X279525494Y-131891000D01*
X279870898Y-132236404D01*
X279870846Y-132296057D01*
X280005903Y-132622920D01*
X280255764Y-132873218D01*
X280582391Y-133008846D01*
X280936057Y-133009154D01*
X281262920Y-132874097D01*
X281267525Y-132869500D01*
X285279995Y-132869500D01*
X285280000Y-132869501D01*
X285566822Y-132812448D01*
X285788776Y-132664143D01*
X285801057Y-132664154D01*
X286127920Y-132529097D01*
X286378218Y-132279236D01*
X286513846Y-131952609D01*
X286514154Y-131598943D01*
X286379097Y-131272080D01*
X286129236Y-131021782D01*
X285802609Y-130886154D01*
X285448943Y-130885846D01*
X285122080Y-131020903D01*
X284871782Y-131270764D01*
X284830368Y-131370500D01*
X281267948Y-131370500D01*
X281264236Y-131366782D01*
X280937609Y-131231154D01*
X280876607Y-131231101D01*
X280322753Y-130677247D01*
X280092088Y-130523122D01*
X279820000Y-130469000D01*
X279411000Y-130469000D01*
X279411000Y-123406057D01*
X282880846Y-123406057D01*
X283015903Y-123732920D01*
X283059000Y-123776092D01*
X283059000Y-126160000D01*
X283113122Y-126432088D01*
X283267247Y-126662753D01*
X288900898Y-132296404D01*
X288900846Y-132356057D01*
X289035903Y-132682920D01*
X289285764Y-132933218D01*
X289612391Y-133068846D01*
X289966057Y-133069154D01*
X290292920Y-132934097D01*
X290543218Y-132684236D01*
X290678846Y-132357609D01*
X290679154Y-132003943D01*
X290544097Y-131677080D01*
X290294236Y-131426782D01*
X289967609Y-131291154D01*
X289906607Y-131291101D01*
X284481000Y-125865494D01*
X284481000Y-123776380D01*
X284523218Y-123734236D01*
X284658846Y-123407609D01*
X284659154Y-123053943D01*
X284524097Y-122727080D01*
X284274236Y-122476782D01*
X283947609Y-122341154D01*
X283593943Y-122340846D01*
X283267080Y-122475903D01*
X283016782Y-122725764D01*
X282881154Y-123052391D01*
X282880846Y-123406057D01*
X279411000Y-123406057D01*
X279411000Y-122394506D01*
X279806517Y-121998989D01*
X279996057Y-121999154D01*
X280322920Y-121864097D01*
X280366092Y-121821000D01*
X283735494Y-121821000D01*
X285393398Y-123478904D01*
X285393346Y-123538557D01*
X285528403Y-123865420D01*
X285778264Y-124115718D01*
X286104891Y-124251346D01*
X286165893Y-124251399D01*
X289049000Y-127134506D01*
X289049000Y-128663620D01*
X289006782Y-128705764D01*
X288871154Y-129032391D01*
X288870846Y-129386057D01*
X289005903Y-129712920D01*
X289255764Y-129963218D01*
X289582391Y-130098846D01*
X289936057Y-130099154D01*
X290262920Y-129964097D01*
X290513218Y-129714236D01*
X290602176Y-129500000D01*
X310617560Y-129500000D01*
X310617560Y-131200000D01*
X310661838Y-131435317D01*
X310800910Y-131651441D01*
X311013110Y-131796431D01*
X311265000Y-131847440D01*
X312965000Y-131847440D01*
X313200317Y-131803162D01*
X313416441Y-131664090D01*
X313561431Y-131451890D01*
X313612440Y-131200000D01*
X313612440Y-129500000D01*
X313568162Y-129264683D01*
X313429090Y-129048559D01*
X313216890Y-128903569D01*
X312965000Y-128852560D01*
X311265000Y-128852560D01*
X311029683Y-128896838D01*
X310813559Y-129035910D01*
X310668569Y-129248110D01*
X310617560Y-129500000D01*
X290602176Y-129500000D01*
X290648846Y-129387609D01*
X290649154Y-129033943D01*
X290514097Y-128707080D01*
X290471000Y-128663908D01*
X290471000Y-126840000D01*
X290416878Y-126567912D01*
X290262753Y-126337247D01*
X287171602Y-123246096D01*
X287171654Y-123186443D01*
X287036597Y-122859580D01*
X286786736Y-122609282D01*
X286460109Y-122473654D01*
X286399107Y-122473601D01*
X284532753Y-120607247D01*
X284302088Y-120453122D01*
X284030000Y-120399000D01*
X280366380Y-120399000D01*
X280324236Y-120356782D01*
X279997609Y-120221154D01*
X279643943Y-120220846D01*
X279317080Y-120355903D01*
X279066782Y-120605764D01*
X278980187Y-120814307D01*
X278197247Y-121597247D01*
X278043122Y-121827912D01*
X277989000Y-122100000D01*
X277989000Y-123825560D01*
X276668000Y-123825560D01*
X276432683Y-123869838D01*
X276216559Y-124008910D01*
X276071569Y-124221110D01*
X276034508Y-124404124D01*
X275682370Y-124051371D01*
X275580668Y-124009141D01*
X275596057Y-124009154D01*
X275922920Y-123874097D01*
X276173218Y-123624236D01*
X276276835Y-123374701D01*
X276592920Y-123244097D01*
X276843218Y-122994236D01*
X276978846Y-122667609D01*
X276979154Y-122313943D01*
X276844097Y-121987080D01*
X276801000Y-121943908D01*
X276801000Y-117844506D01*
X277386404Y-117259102D01*
X277446057Y-117259154D01*
X277772920Y-117124097D01*
X278023218Y-116874236D01*
X278158846Y-116547609D01*
X278159154Y-116193943D01*
X278102181Y-116056057D01*
X283510846Y-116056057D01*
X283645903Y-116382920D01*
X283895764Y-116633218D01*
X284222391Y-116768846D01*
X284576057Y-116769154D01*
X284902920Y-116634097D01*
X284946092Y-116591000D01*
X300009625Y-116591000D01*
X300146184Y-116727798D01*
X300472811Y-116863426D01*
X300826477Y-116863734D01*
X301153340Y-116728677D01*
X301403638Y-116478816D01*
X301539266Y-116152189D01*
X301539574Y-115798523D01*
X301404517Y-115471660D01*
X301154656Y-115221362D01*
X300828029Y-115085734D01*
X300474363Y-115085426D01*
X300272098Y-115169000D01*
X284946380Y-115169000D01*
X284904236Y-115126782D01*
X284577609Y-114991154D01*
X284223943Y-114990846D01*
X283897080Y-115125903D01*
X283646782Y-115375764D01*
X283511154Y-115702391D01*
X283510846Y-116056057D01*
X278102181Y-116056057D01*
X278024097Y-115867080D01*
X277774236Y-115616782D01*
X277447609Y-115481154D01*
X277093943Y-115480846D01*
X276767080Y-115615903D01*
X276516782Y-115865764D01*
X276381154Y-116192391D01*
X276381101Y-116253393D01*
X276131000Y-116503494D01*
X276131000Y-116224506D01*
X276956404Y-115399102D01*
X277016057Y-115399154D01*
X277342920Y-115264097D01*
X277593218Y-115014236D01*
X277728846Y-114687609D01*
X277729154Y-114333943D01*
X277594097Y-114007080D01*
X277344236Y-113756782D01*
X277171367Y-113685000D01*
X311074973Y-113685000D01*
X311073559Y-113685910D01*
X311073559Y-113685910D01*
G37*
X311073559Y-113685910D02*
X310928569Y-113898110D01*
X310877560Y-114150000D01*
X310877560Y-115850000D01*
X310921838Y-116085317D01*
X311060910Y-116301441D01*
X311273110Y-116446431D01*
X311525000Y-116497440D01*
X313225000Y-116497440D01*
X313460317Y-116453162D01*
X313676441Y-116314090D01*
X313821431Y-116101890D01*
X313872440Y-115850000D01*
X313872440Y-114150000D01*
X313828162Y-113914683D01*
X313689090Y-113698559D01*
X313669246Y-113685000D01*
X314785000Y-113685000D01*
X314785000Y-117866571D01*
X314224093Y-117755000D01*
X314165907Y-117755000D01*
X313597622Y-117868039D01*
X313115853Y-118189946D01*
X313115029Y-118191179D01*
X313108162Y-118154683D01*
X312969090Y-117938559D01*
X312756890Y-117793569D01*
X312505000Y-117742560D01*
X310805000Y-117742560D01*
X310569683Y-117786838D01*
X310353559Y-117925910D01*
X310208569Y-118138110D01*
X310157560Y-118390000D01*
X310157560Y-120090000D01*
X310201838Y-120325317D01*
X310340910Y-120541441D01*
X310553110Y-120686431D01*
X310620541Y-120700086D01*
X310575853Y-120729946D01*
X310253946Y-121211715D01*
X310140907Y-121780000D01*
X310253946Y-122348285D01*
X310575853Y-122830054D01*
X310905026Y-123050000D01*
X310575853Y-123269946D01*
X310253946Y-123751715D01*
X310140907Y-124320000D01*
X310253946Y-124888285D01*
X310467334Y-125207644D01*
X310447143Y-125237862D01*
X310395000Y-125500000D01*
X310447143Y-125762138D01*
X310527470Y-125882356D01*
X310253946Y-126291715D01*
X310140907Y-126860000D01*
X310253946Y-127428285D01*
X310575853Y-127910054D01*
X311057622Y-128231961D01*
X311625907Y-128345000D01*
X311684093Y-128345000D01*
X312252378Y-128231961D01*
X312734147Y-127910054D01*
X312925000Y-127624422D01*
X313115853Y-127910054D01*
X313597622Y-128231961D01*
X314165907Y-128345000D01*
X314224093Y-128345000D01*
X314785000Y-128233429D01*
X314785000Y-133485000D01*
X266605000Y-133485000D01*
X266605000Y-132127000D01*
X272410000Y-132127000D01*
X272459410Y-132116994D01*
X272501035Y-132088553D01*
X272528315Y-132046159D01*
X272537000Y-132000000D01*
X272537000Y-126624439D01*
X272545764Y-126633218D01*
X272872391Y-126768846D01*
X272933393Y-126768899D01*
X277847247Y-131682753D01*
X278077912Y-131836878D01*
X278350000Y-131891000D01*
X279525494Y-131891000D01*
X279870898Y-132236404D01*
X279870846Y-132296057D01*
X280005903Y-132622920D01*
X280255764Y-132873218D01*
X280582391Y-133008846D01*
X280936057Y-133009154D01*
X281262920Y-132874097D01*
X281267525Y-132869500D01*
X285279995Y-132869500D01*
X285280000Y-132869501D01*
X285566822Y-132812448D01*
X285788776Y-132664143D01*
X285801057Y-132664154D01*
X286127920Y-132529097D01*
X286378218Y-132279236D01*
X286513846Y-131952609D01*
X286514154Y-131598943D01*
X286379097Y-131272080D01*
X286129236Y-131021782D01*
X285802609Y-130886154D01*
X285448943Y-130885846D01*
X285122080Y-131020903D01*
X284871782Y-131270764D01*
X284830368Y-131370500D01*
X281267948Y-131370500D01*
X281264236Y-131366782D01*
X280937609Y-131231154D01*
X280876607Y-131231101D01*
X280322753Y-130677247D01*
X280092088Y-130523122D01*
X279820000Y-130469000D01*
X279411000Y-130469000D01*
X279411000Y-123406057D01*
X282880846Y-123406057D01*
X283015903Y-123732920D01*
X283059000Y-123776092D01*
X283059000Y-126160000D01*
X283113122Y-126432088D01*
X283267247Y-126662753D01*
X288900898Y-132296404D01*
X288900846Y-132356057D01*
X289035903Y-132682920D01*
X289285764Y-132933218D01*
X289612391Y-133068846D01*
X289966057Y-133069154D01*
X290292920Y-132934097D01*
X290543218Y-132684236D01*
X290678846Y-132357609D01*
X290679154Y-132003943D01*
X290544097Y-131677080D01*
X290294236Y-131426782D01*
X289967609Y-131291154D01*
X289906607Y-131291101D01*
X284481000Y-125865494D01*
X284481000Y-123776380D01*
X284523218Y-123734236D01*
X284658846Y-123407609D01*
X284659154Y-123053943D01*
X284524097Y-122727080D01*
X284274236Y-122476782D01*
X283947609Y-122341154D01*
X283593943Y-122340846D01*
X283267080Y-122475903D01*
X283016782Y-122725764D01*
X282881154Y-123052391D01*
X282880846Y-123406057D01*
X279411000Y-123406057D01*
X279411000Y-122394506D01*
X279806517Y-121998989D01*
X279996057Y-121999154D01*
X280322920Y-121864097D01*
X280366092Y-121821000D01*
X283735494Y-121821000D01*
X285393398Y-123478904D01*
X285393346Y-123538557D01*
X285528403Y-123865420D01*
X285778264Y-124115718D01*
X286104891Y-124251346D01*
X286165893Y-124251399D01*
X289049000Y-127134506D01*
X289049000Y-128663620D01*
X289006782Y-128705764D01*
X288871154Y-129032391D01*
X288870846Y-129386057D01*
X289005903Y-129712920D01*
X289255764Y-129963218D01*
X289582391Y-130098846D01*
X289936057Y-130099154D01*
X290262920Y-129964097D01*
X290513218Y-129714236D01*
X290602176Y-129500000D01*
X310617560Y-129500000D01*
X310617560Y-131200000D01*
X310661838Y-131435317D01*
X310800910Y-131651441D01*
X311013110Y-131796431D01*
X311265000Y-131847440D01*
X312965000Y-131847440D01*
X313200317Y-131803162D01*
X313416441Y-131664090D01*
X313561431Y-131451890D01*
X313612440Y-131200000D01*
X313612440Y-129500000D01*
X313568162Y-129264683D01*
X313429090Y-129048559D01*
X313216890Y-128903569D01*
X312965000Y-128852560D01*
X311265000Y-128852560D01*
X311029683Y-128896838D01*
X310813559Y-129035910D01*
X310668569Y-129248110D01*
X310617560Y-129500000D01*
X290602176Y-129500000D01*
X290648846Y-129387609D01*
X290649154Y-129033943D01*
X290514097Y-128707080D01*
X290471000Y-128663908D01*
X290471000Y-126840000D01*
X290416878Y-126567912D01*
X290262753Y-126337247D01*
X287171602Y-123246096D01*
X287171654Y-123186443D01*
X287036597Y-122859580D01*
X286786736Y-122609282D01*
X286460109Y-122473654D01*
X286399107Y-122473601D01*
X284532753Y-120607247D01*
X284302088Y-120453122D01*
X284030000Y-120399000D01*
X280366380Y-120399000D01*
X280324236Y-120356782D01*
X279997609Y-120221154D01*
X279643943Y-120220846D01*
X279317080Y-120355903D01*
X279066782Y-120605764D01*
X278980187Y-120814307D01*
X278197247Y-121597247D01*
X278043122Y-121827912D01*
X277989000Y-122100000D01*
X277989000Y-123825560D01*
X276668000Y-123825560D01*
X276432683Y-123869838D01*
X276216559Y-124008910D01*
X276071569Y-124221110D01*
X276034508Y-124404124D01*
X275682370Y-124051371D01*
X275580668Y-124009141D01*
X275596057Y-124009154D01*
X275922920Y-123874097D01*
X276173218Y-123624236D01*
X276276835Y-123374701D01*
X276592920Y-123244097D01*
X276843218Y-122994236D01*
X276978846Y-122667609D01*
X276979154Y-122313943D01*
X276844097Y-121987080D01*
X276801000Y-121943908D01*
X276801000Y-117844506D01*
X277386404Y-117259102D01*
X277446057Y-117259154D01*
X277772920Y-117124097D01*
X278023218Y-116874236D01*
X278158846Y-116547609D01*
X278159154Y-116193943D01*
X278102181Y-116056057D01*
X283510846Y-116056057D01*
X283645903Y-116382920D01*
X283895764Y-116633218D01*
X284222391Y-116768846D01*
X284576057Y-116769154D01*
X284902920Y-116634097D01*
X284946092Y-116591000D01*
X300009625Y-116591000D01*
X300146184Y-116727798D01*
X300472811Y-116863426D01*
X300826477Y-116863734D01*
X301153340Y-116728677D01*
X301403638Y-116478816D01*
X301539266Y-116152189D01*
X301539574Y-115798523D01*
X301404517Y-115471660D01*
X301154656Y-115221362D01*
X300828029Y-115085734D01*
X300474363Y-115085426D01*
X300272098Y-115169000D01*
X284946380Y-115169000D01*
X284904236Y-115126782D01*
X284577609Y-114991154D01*
X284223943Y-114990846D01*
X283897080Y-115125903D01*
X283646782Y-115375764D01*
X283511154Y-115702391D01*
X283510846Y-116056057D01*
X278102181Y-116056057D01*
X278024097Y-115867080D01*
X277774236Y-115616782D01*
X277447609Y-115481154D01*
X277093943Y-115480846D01*
X276767080Y-115615903D01*
X276516782Y-115865764D01*
X276381154Y-116192391D01*
X276381101Y-116253393D01*
X276131000Y-116503494D01*
X276131000Y-116224506D01*
X276956404Y-115399102D01*
X277016057Y-115399154D01*
X277342920Y-115264097D01*
X277593218Y-115014236D01*
X277728846Y-114687609D01*
X277729154Y-114333943D01*
X277594097Y-114007080D01*
X277344236Y-113756782D01*
X277171367Y-113685000D01*
X311074973Y-113685000D01*
X311073559Y-113685910D01*
G36*
X269452632Y-113698638D02*
X269068857Y-113857603D01*
X268999392Y-114099787D01*
X269800000Y-114900395D01*
X270600608Y-114099787D01*
X270531143Y-113857603D01*
X270047343Y-113685000D01*
X275517792Y-113685000D01*
X275376782Y-113825764D01*
X275241154Y-114152391D01*
X275241101Y-114213393D01*
X273427247Y-116027247D01*
X273273122Y-116257912D01*
X273219000Y-116530000D01*
X273219000Y-117683620D01*
X273176782Y-117725764D01*
X273041154Y-118052391D01*
X273040846Y-118406057D01*
X273175903Y-118732920D01*
X273425764Y-118983218D01*
X273752391Y-119118846D01*
X274106057Y-119119154D01*
X274432920Y-118984097D01*
X274683218Y-118734236D01*
X274709000Y-118672146D01*
X274709000Y-120254017D01*
X274557609Y-120191154D01*
X274203943Y-120190846D01*
X273877080Y-120325903D01*
X273793838Y-120409000D01*
X273283827Y-120409000D01*
X273040000Y-120360500D01*
X272846447Y-120399000D01*
X269690000Y-120399000D01*
X269417912Y-120453122D01*
X269301462Y-120530931D01*
X269203943Y-120530846D01*
X268877080Y-120665903D01*
X268626782Y-120915764D01*
X268491154Y-121242391D01*
X268490846Y-121596057D01*
X268625903Y-121922920D01*
X268875764Y-122173218D01*
X269202391Y-122308846D01*
X269556057Y-122309154D01*
X269882920Y-122174097D01*
X270133218Y-121924236D01*
X270176086Y-121821000D01*
X272290500Y-121821000D01*
X272290500Y-123173000D01*
X266605000Y-123173000D01*
X266605000Y-121503130D01*
X267042302Y-121659144D01*
X267597368Y-121631362D01*
X267981143Y-121472397D01*
X268050608Y-121230213D01*
X267250000Y-120429605D01*
X267235858Y-120443748D01*
X267056253Y-120264143D01*
X267070395Y-120250000D01*
X267429605Y-120250000D01*
X268230213Y-121050608D01*
X268472397Y-120981143D01*
X268659144Y-120457698D01*
X268631362Y-119902632D01*
X268472397Y-119518857D01*
X268230213Y-119449392D01*
X267429605Y-120250000D01*
X267070395Y-120250000D01*
X267056253Y-120235858D01*
X267235858Y-120056253D01*
X267250000Y-120070395D01*
X268050608Y-119269787D01*
X268007484Y-119119440D01*
X268012000Y-119119440D01*
X268247317Y-119075162D01*
X268463441Y-118936090D01*
X268608431Y-118723890D01*
X268659440Y-118472000D01*
X268659440Y-116948000D01*
X268615162Y-116712683D01*
X268476090Y-116496559D01*
X268331245Y-116397591D01*
X268473441Y-116306090D01*
X268618431Y-116093890D01*
X268625250Y-116060213D01*
X268999392Y-116060213D01*
X269068857Y-116302397D01*
X269592302Y-116489144D01*
X270147368Y-116461362D01*
X270531143Y-116302397D01*
X270600608Y-116060213D01*
X269800000Y-115259605D01*
X268999392Y-116060213D01*
X268625250Y-116060213D01*
X268669440Y-115842000D01*
X268669440Y-115837484D01*
X268819787Y-115880608D01*
X269620395Y-115080000D01*
X269979605Y-115080000D01*
X270780213Y-115880608D01*
X271022397Y-115811143D01*
X271209144Y-115287698D01*
X271181362Y-114732632D01*
X271022397Y-114348857D01*
X270780213Y-114279392D01*
X269979605Y-115080000D01*
X269620395Y-115080000D01*
X268819787Y-114279392D01*
X268669440Y-114322516D01*
X268669440Y-114318000D01*
X268625162Y-114082683D01*
X268486090Y-113866559D01*
X268273890Y-113721569D01*
X268093307Y-113685000D01*
X269725110Y-113685000D01*
X269452632Y-113698638D01*
X269452632Y-113698638D01*
G37*
X269452632Y-113698638D02*
X269068857Y-113857603D01*
X268999392Y-114099787D01*
X269800000Y-114900395D01*
X270600608Y-114099787D01*
X270531143Y-113857603D01*
X270047343Y-113685000D01*
X275517792Y-113685000D01*
X275376782Y-113825764D01*
X275241154Y-114152391D01*
X275241101Y-114213393D01*
X273427247Y-116027247D01*
X273273122Y-116257912D01*
X273219000Y-116530000D01*
X273219000Y-117683620D01*
X273176782Y-117725764D01*
X273041154Y-118052391D01*
X273040846Y-118406057D01*
X273175903Y-118732920D01*
X273425764Y-118983218D01*
X273752391Y-119118846D01*
X274106057Y-119119154D01*
X274432920Y-118984097D01*
X274683218Y-118734236D01*
X274709000Y-118672146D01*
X274709000Y-120254017D01*
X274557609Y-120191154D01*
X274203943Y-120190846D01*
X273877080Y-120325903D01*
X273793838Y-120409000D01*
X273283827Y-120409000D01*
X273040000Y-120360500D01*
X272846447Y-120399000D01*
X269690000Y-120399000D01*
X269417912Y-120453122D01*
X269301462Y-120530931D01*
X269203943Y-120530846D01*
X268877080Y-120665903D01*
X268626782Y-120915764D01*
X268491154Y-121242391D01*
X268490846Y-121596057D01*
X268625903Y-121922920D01*
X268875764Y-122173218D01*
X269202391Y-122308846D01*
X269556057Y-122309154D01*
X269882920Y-122174097D01*
X270133218Y-121924236D01*
X270176086Y-121821000D01*
X272290500Y-121821000D01*
X272290500Y-123173000D01*
X266605000Y-123173000D01*
X266605000Y-121503130D01*
X267042302Y-121659144D01*
X267597368Y-121631362D01*
X267981143Y-121472397D01*
X268050608Y-121230213D01*
X267250000Y-120429605D01*
X267235858Y-120443748D01*
X267056253Y-120264143D01*
X267070395Y-120250000D01*
X267429605Y-120250000D01*
X268230213Y-121050608D01*
X268472397Y-120981143D01*
X268659144Y-120457698D01*
X268631362Y-119902632D01*
X268472397Y-119518857D01*
X268230213Y-119449392D01*
X267429605Y-120250000D01*
X267070395Y-120250000D01*
X267056253Y-120235858D01*
X267235858Y-120056253D01*
X267250000Y-120070395D01*
X268050608Y-119269787D01*
X268007484Y-119119440D01*
X268012000Y-119119440D01*
X268247317Y-119075162D01*
X268463441Y-118936090D01*
X268608431Y-118723890D01*
X268659440Y-118472000D01*
X268659440Y-116948000D01*
X268615162Y-116712683D01*
X268476090Y-116496559D01*
X268331245Y-116397591D01*
X268473441Y-116306090D01*
X268618431Y-116093890D01*
X268625250Y-116060213D01*
X268999392Y-116060213D01*
X269068857Y-116302397D01*
X269592302Y-116489144D01*
X270147368Y-116461362D01*
X270531143Y-116302397D01*
X270600608Y-116060213D01*
X269800000Y-115259605D01*
X268999392Y-116060213D01*
X268625250Y-116060213D01*
X268669440Y-115842000D01*
X268669440Y-115837484D01*
X268819787Y-115880608D01*
X269620395Y-115080000D01*
X269979605Y-115080000D01*
X270780213Y-115880608D01*
X271022397Y-115811143D01*
X271209144Y-115287698D01*
X271181362Y-114732632D01*
X271022397Y-114348857D01*
X270780213Y-114279392D01*
X269979605Y-115080000D01*
X269620395Y-115080000D01*
X268819787Y-114279392D01*
X268669440Y-114322516D01*
X268669440Y-114318000D01*
X268625162Y-114082683D01*
X268486090Y-113866559D01*
X268273890Y-113721569D01*
X268093307Y-113685000D01*
X269725110Y-113685000D01*
X269452632Y-113698638D01*
M02*
