G04 #@! TF.FileFunction,Legend,Bot*
%FSLAX46Y46*%
G04 Gerber Fmt 4.6, Leading zero omitted, Abs format (unit mm)*
G04 Created by KiCad (PCBNEW 4.0.4-stable) date 09/24/17 15:17:15*
%MOMM*%
%LPD*%
G01*
G04 APERTURE LIST*
%ADD10C,0.150000*%
%ADD11C,0.127000*%
G04 APERTURE END LIST*
D10*
D11*
X301762856Y-130756714D02*
X301762856Y-131264714D01*
X301762856Y-130829286D02*
X301726571Y-130793000D01*
X301653999Y-130756714D01*
X301545142Y-130756714D01*
X301472571Y-130793000D01*
X301436285Y-130865571D01*
X301436285Y-131264714D01*
X300637999Y-131264714D02*
X300891999Y-130901857D01*
X301073427Y-131264714D02*
X301073427Y-130502714D01*
X300783142Y-130502714D01*
X300710570Y-130539000D01*
X300674285Y-130575286D01*
X300637999Y-130647857D01*
X300637999Y-130756714D01*
X300674285Y-130829286D01*
X300710570Y-130865571D01*
X300783142Y-130901857D01*
X301073427Y-130901857D01*
X300057427Y-130865571D02*
X300311427Y-130865571D01*
X300311427Y-131264714D02*
X300311427Y-130502714D01*
X299948570Y-130502714D01*
X299295427Y-130502714D02*
X299658284Y-130502714D01*
X299694570Y-130865571D01*
X299658284Y-130829286D01*
X299585713Y-130793000D01*
X299404284Y-130793000D01*
X299331713Y-130829286D01*
X299295427Y-130865571D01*
X299259142Y-130938143D01*
X299259142Y-131119571D01*
X299295427Y-131192143D01*
X299331713Y-131228429D01*
X299404284Y-131264714D01*
X299585713Y-131264714D01*
X299658284Y-131228429D01*
X299694570Y-131192143D01*
X298968856Y-130575286D02*
X298932570Y-130539000D01*
X298859999Y-130502714D01*
X298678570Y-130502714D01*
X298605999Y-130539000D01*
X298569713Y-130575286D01*
X298533428Y-130647857D01*
X298533428Y-130720429D01*
X298569713Y-130829286D01*
X299005142Y-131264714D01*
X298533428Y-131264714D01*
X298206856Y-130974429D02*
X297626285Y-130974429D01*
X297299713Y-131047000D02*
X296936856Y-131047000D01*
X297372285Y-131264714D02*
X297118285Y-130502714D01*
X296864285Y-131264714D01*
X296610284Y-131264714D02*
X296610284Y-130502714D01*
X296428856Y-130502714D01*
X296319999Y-130539000D01*
X296247427Y-130611571D01*
X296211142Y-130684143D01*
X296174856Y-130829286D01*
X296174856Y-130938143D01*
X296211142Y-131083286D01*
X296247427Y-131155857D01*
X296319999Y-131228429D01*
X296428856Y-131264714D01*
X296610284Y-131264714D01*
X295884570Y-131228429D02*
X295775713Y-131264714D01*
X295594284Y-131264714D01*
X295521713Y-131228429D01*
X295485427Y-131192143D01*
X295449142Y-131119571D01*
X295449142Y-131047000D01*
X295485427Y-130974429D01*
X295521713Y-130938143D01*
X295594284Y-130901857D01*
X295739427Y-130865571D01*
X295811999Y-130829286D01*
X295848284Y-130793000D01*
X295884570Y-130720429D01*
X295884570Y-130647857D01*
X295848284Y-130575286D01*
X295811999Y-130539000D01*
X295739427Y-130502714D01*
X295557999Y-130502714D01*
X295449142Y-130539000D01*
X294723428Y-131264714D02*
X295158856Y-131264714D01*
X294941142Y-131264714D02*
X294941142Y-130502714D01*
X295013713Y-130611571D01*
X295086285Y-130684143D01*
X295158856Y-130720429D01*
X294433142Y-130575286D02*
X294396856Y-130539000D01*
X294324285Y-130502714D01*
X294142856Y-130502714D01*
X294070285Y-130539000D01*
X294033999Y-130575286D01*
X293997714Y-130647857D01*
X293997714Y-130720429D01*
X294033999Y-130829286D01*
X294469428Y-131264714D01*
X293997714Y-131264714D01*
X293634857Y-131264714D02*
X293489714Y-131264714D01*
X293417142Y-131228429D01*
X293380857Y-131192143D01*
X293308285Y-131083286D01*
X293272000Y-130938143D01*
X293272000Y-130647857D01*
X293308285Y-130575286D01*
X293344571Y-130539000D01*
X293417142Y-130502714D01*
X293562285Y-130502714D01*
X293634857Y-130539000D01*
X293671142Y-130575286D01*
X293707428Y-130647857D01*
X293707428Y-130829286D01*
X293671142Y-130901857D01*
X293634857Y-130938143D01*
X293562285Y-130974429D01*
X293417142Y-130974429D01*
X293344571Y-130938143D01*
X293308285Y-130901857D01*
X293272000Y-130829286D01*
X292909143Y-131264714D02*
X292764000Y-131264714D01*
X292691428Y-131228429D01*
X292655143Y-131192143D01*
X292582571Y-131083286D01*
X292546286Y-130938143D01*
X292546286Y-130647857D01*
X292582571Y-130575286D01*
X292618857Y-130539000D01*
X292691428Y-130502714D01*
X292836571Y-130502714D01*
X292909143Y-130539000D01*
X292945428Y-130575286D01*
X292981714Y-130647857D01*
X292981714Y-130829286D01*
X292945428Y-130901857D01*
X292909143Y-130938143D01*
X292836571Y-130974429D01*
X292691428Y-130974429D01*
X292618857Y-130938143D01*
X292582571Y-130901857D01*
X292546286Y-130829286D01*
X292219714Y-130974429D02*
X291639143Y-130974429D01*
X290949714Y-130756714D02*
X290949714Y-131264714D01*
X291131143Y-130466429D02*
X291312571Y-131010714D01*
X290840857Y-131010714D01*
X290042572Y-130756714D02*
X289897429Y-131264714D01*
X289752286Y-130901857D01*
X289607143Y-131264714D01*
X289462000Y-130756714D01*
X289171714Y-131264714D02*
X289171714Y-130756714D01*
X289171714Y-130502714D02*
X289208000Y-130539000D01*
X289171714Y-130575286D01*
X289135429Y-130539000D01*
X289171714Y-130502714D01*
X289171714Y-130575286D01*
X288917715Y-130756714D02*
X288627429Y-130756714D01*
X288808857Y-130502714D02*
X288808857Y-131155857D01*
X288772572Y-131228429D01*
X288700000Y-131264714D01*
X288627429Y-131264714D01*
X288373428Y-131264714D02*
X288373428Y-130502714D01*
X288046857Y-131264714D02*
X288046857Y-130865571D01*
X288083143Y-130793000D01*
X288155714Y-130756714D01*
X288264571Y-130756714D01*
X288337143Y-130793000D01*
X288373428Y-130829286D01*
X287103428Y-131264714D02*
X287103428Y-130502714D01*
X286849428Y-131047000D01*
X286595428Y-130502714D01*
X286595428Y-131264714D01*
X286232571Y-131264714D02*
X286232571Y-130502714D01*
X285942286Y-130502714D01*
X285869714Y-130539000D01*
X285833429Y-130575286D01*
X285797143Y-130647857D01*
X285797143Y-130756714D01*
X285833429Y-130829286D01*
X285869714Y-130865571D01*
X285942286Y-130901857D01*
X286232571Y-130901857D01*
X285470571Y-130502714D02*
X285470571Y-131119571D01*
X285434286Y-131192143D01*
X285398000Y-131228429D01*
X285325429Y-131264714D01*
X285180286Y-131264714D01*
X285107714Y-131228429D01*
X285071429Y-131192143D01*
X285035143Y-131119571D01*
X285035143Y-130502714D01*
X283474857Y-131264714D02*
X283511143Y-131264714D01*
X283583714Y-131228429D01*
X283692572Y-131119571D01*
X283874000Y-130901857D01*
X283946572Y-130793000D01*
X283982857Y-130684143D01*
X283982857Y-130611571D01*
X283946572Y-130539000D01*
X283874000Y-130502714D01*
X283837714Y-130502714D01*
X283765143Y-130539000D01*
X283728857Y-130611571D01*
X283728857Y-130647857D01*
X283765143Y-130720429D01*
X283801429Y-130756714D01*
X284019143Y-130901857D01*
X284055429Y-130938143D01*
X284091714Y-131010714D01*
X284091714Y-131119571D01*
X284055429Y-131192143D01*
X284019143Y-131228429D01*
X283946572Y-131264714D01*
X283837714Y-131264714D01*
X283765143Y-131228429D01*
X283728857Y-131192143D01*
X283620000Y-131047000D01*
X283583714Y-130938143D01*
X283583714Y-130865571D01*
X282313714Y-130865571D02*
X282204857Y-130901857D01*
X282168572Y-130938143D01*
X282132286Y-131010714D01*
X282132286Y-131119571D01*
X282168572Y-131192143D01*
X282204857Y-131228429D01*
X282277429Y-131264714D01*
X282567714Y-131264714D01*
X282567714Y-130502714D01*
X282313714Y-130502714D01*
X282241143Y-130539000D01*
X282204857Y-130575286D01*
X282168572Y-130647857D01*
X282168572Y-130720429D01*
X282204857Y-130793000D01*
X282241143Y-130829286D01*
X282313714Y-130865571D01*
X282567714Y-130865571D01*
X281914572Y-130502714D02*
X281479143Y-130502714D01*
X281696857Y-131264714D02*
X281696857Y-130502714D01*
X281225143Y-131264714D02*
X281225143Y-130502714D01*
X280971143Y-131047000D01*
X280717143Y-130502714D01*
X280717143Y-131264714D01*
X299803427Y-132135571D02*
X299549427Y-132135571D01*
X299440570Y-132534714D02*
X299803427Y-132534714D01*
X299803427Y-131772714D01*
X299440570Y-131772714D01*
X299186570Y-132534714D02*
X298787427Y-132026714D01*
X299186570Y-132026714D02*
X298787427Y-132534714D01*
X298097999Y-131809000D02*
X298170570Y-131772714D01*
X298279427Y-131772714D01*
X298388284Y-131809000D01*
X298460856Y-131881571D01*
X298497141Y-131954143D01*
X298533427Y-132099286D01*
X298533427Y-132208143D01*
X298497141Y-132353286D01*
X298460856Y-132425857D01*
X298388284Y-132498429D01*
X298279427Y-132534714D01*
X298206856Y-132534714D01*
X298097999Y-132498429D01*
X298061713Y-132462143D01*
X298061713Y-132208143D01*
X298206856Y-132208143D01*
X297154570Y-132534714D02*
X297154570Y-131772714D01*
X296864285Y-131772714D01*
X296791713Y-131809000D01*
X296755428Y-131845286D01*
X296719142Y-131917857D01*
X296719142Y-132026714D01*
X296755428Y-132099286D01*
X296791713Y-132135571D01*
X296864285Y-132171857D01*
X297154570Y-132171857D01*
X296392570Y-132534714D02*
X296392570Y-132026714D01*
X296392570Y-132171857D02*
X296356285Y-132099286D01*
X296319999Y-132063000D01*
X296247428Y-132026714D01*
X296174856Y-132026714D01*
X295811999Y-132534714D02*
X295884571Y-132498429D01*
X295920856Y-132462143D01*
X295957142Y-132389571D01*
X295957142Y-132171857D01*
X295920856Y-132099286D01*
X295884571Y-132063000D01*
X295811999Y-132026714D01*
X295703142Y-132026714D01*
X295630571Y-132063000D01*
X295594285Y-132099286D01*
X295557999Y-132171857D01*
X295557999Y-132389571D01*
X295594285Y-132462143D01*
X295630571Y-132498429D01*
X295703142Y-132534714D01*
X295811999Y-132534714D01*
X295340285Y-132026714D02*
X295049999Y-132026714D01*
X295231427Y-131772714D02*
X295231427Y-132425857D01*
X295195142Y-132498429D01*
X295122570Y-132534714D01*
X295049999Y-132534714D01*
X294687141Y-132534714D02*
X294759713Y-132498429D01*
X294795998Y-132462143D01*
X294832284Y-132389571D01*
X294832284Y-132171857D01*
X294795998Y-132099286D01*
X294759713Y-132063000D01*
X294687141Y-132026714D01*
X294578284Y-132026714D01*
X294505713Y-132063000D01*
X294469427Y-132099286D01*
X294433141Y-132171857D01*
X294433141Y-132389571D01*
X294469427Y-132462143D01*
X294505713Y-132498429D01*
X294578284Y-132534714D01*
X294687141Y-132534714D01*
X294215427Y-132026714D02*
X293925141Y-132026714D01*
X294106569Y-131772714D02*
X294106569Y-132425857D01*
X294070284Y-132498429D01*
X293997712Y-132534714D01*
X293925141Y-132534714D01*
X293743712Y-132026714D02*
X293562283Y-132534714D01*
X293380855Y-132026714D02*
X293562283Y-132534714D01*
X293634855Y-132716143D01*
X293671140Y-132752429D01*
X293743712Y-132788714D01*
X293090569Y-132026714D02*
X293090569Y-132788714D01*
X293090569Y-132063000D02*
X293017998Y-132026714D01*
X292872855Y-132026714D01*
X292800284Y-132063000D01*
X292763998Y-132099286D01*
X292727712Y-132171857D01*
X292727712Y-132389571D01*
X292763998Y-132462143D01*
X292800284Y-132498429D01*
X292872855Y-132534714D01*
X293017998Y-132534714D01*
X293090569Y-132498429D01*
X292110855Y-132498429D02*
X292183426Y-132534714D01*
X292328569Y-132534714D01*
X292401140Y-132498429D01*
X292437426Y-132425857D01*
X292437426Y-132135571D01*
X292401140Y-132063000D01*
X292328569Y-132026714D01*
X292183426Y-132026714D01*
X292110855Y-132063000D01*
X292074569Y-132135571D01*
X292074569Y-132208143D01*
X292437426Y-132280714D01*
X291239998Y-132026714D02*
X291058569Y-132534714D01*
X290877141Y-132026714D01*
X290260284Y-132026714D02*
X290260284Y-132534714D01*
X290441713Y-131736429D02*
X290623141Y-132280714D01*
X290151427Y-132280714D01*
X289062856Y-132788714D02*
X289244285Y-132788714D01*
X289244285Y-131700143D01*
X289062856Y-131700143D01*
X288627428Y-131772714D02*
X288554856Y-131772714D01*
X288482285Y-131809000D01*
X288445999Y-131845286D01*
X288409713Y-131917857D01*
X288373428Y-132063000D01*
X288373428Y-132244429D01*
X288409713Y-132389571D01*
X288445999Y-132462143D01*
X288482285Y-132498429D01*
X288554856Y-132534714D01*
X288627428Y-132534714D01*
X288699999Y-132498429D01*
X288736285Y-132462143D01*
X288772570Y-132389571D01*
X288808856Y-132244429D01*
X288808856Y-132063000D01*
X288772570Y-131917857D01*
X288736285Y-131845286D01*
X288699999Y-131809000D01*
X288627428Y-131772714D01*
X288010571Y-132534714D02*
X287865428Y-132534714D01*
X287792856Y-132498429D01*
X287756571Y-132462143D01*
X287683999Y-132353286D01*
X287647714Y-132208143D01*
X287647714Y-131917857D01*
X287683999Y-131845286D01*
X287720285Y-131809000D01*
X287792856Y-131772714D01*
X287937999Y-131772714D01*
X288010571Y-131809000D01*
X288046856Y-131845286D01*
X288083142Y-131917857D01*
X288083142Y-132099286D01*
X288046856Y-132171857D01*
X288010571Y-132208143D01*
X287937999Y-132244429D01*
X287792856Y-132244429D01*
X287720285Y-132208143D01*
X287683999Y-132171857D01*
X287647714Y-132099286D01*
X286776857Y-131736429D02*
X287430000Y-132716143D01*
X286559142Y-131845286D02*
X286522856Y-131809000D01*
X286450285Y-131772714D01*
X286268856Y-131772714D01*
X286196285Y-131809000D01*
X286159999Y-131845286D01*
X286123714Y-131917857D01*
X286123714Y-131990429D01*
X286159999Y-132099286D01*
X286595428Y-132534714D01*
X286123714Y-132534714D01*
X285470571Y-132026714D02*
X285470571Y-132534714D01*
X285652000Y-131736429D02*
X285833428Y-132280714D01*
X285361714Y-132280714D01*
X284527143Y-131736429D02*
X285180286Y-132716143D01*
X283874000Y-132534714D02*
X284309428Y-132534714D01*
X284091714Y-132534714D02*
X284091714Y-131772714D01*
X284164285Y-131881571D01*
X284236857Y-131954143D01*
X284309428Y-131990429D01*
X283620000Y-131772714D02*
X283112000Y-131772714D01*
X283438571Y-132534714D01*
X282894286Y-132788714D02*
X282712857Y-132788714D01*
X282712857Y-131700143D01*
X282894286Y-131700143D01*
X296918715Y-133441857D02*
X296918715Y-133804714D01*
X297172715Y-133042714D02*
X296918715Y-133441857D01*
X296664715Y-133042714D01*
X296120429Y-133768429D02*
X296193000Y-133804714D01*
X296338143Y-133804714D01*
X296410714Y-133768429D01*
X296447000Y-133695857D01*
X296447000Y-133405571D01*
X296410714Y-133333000D01*
X296338143Y-133296714D01*
X296193000Y-133296714D01*
X296120429Y-133333000D01*
X296084143Y-133405571D01*
X296084143Y-133478143D01*
X296447000Y-133550714D01*
X295648714Y-133804714D02*
X295721286Y-133768429D01*
X295757571Y-133732143D01*
X295793857Y-133659571D01*
X295793857Y-133441857D01*
X295757571Y-133369286D01*
X295721286Y-133333000D01*
X295648714Y-133296714D01*
X295539857Y-133296714D01*
X295467286Y-133333000D01*
X295431000Y-133369286D01*
X295394714Y-133441857D01*
X295394714Y-133659571D01*
X295431000Y-133732143D01*
X295467286Y-133768429D01*
X295539857Y-133804714D01*
X295648714Y-133804714D01*
X294088429Y-133079000D02*
X294161000Y-133042714D01*
X294269857Y-133042714D01*
X294378714Y-133079000D01*
X294451286Y-133151571D01*
X294487571Y-133224143D01*
X294523857Y-133369286D01*
X294523857Y-133478143D01*
X294487571Y-133623286D01*
X294451286Y-133695857D01*
X294378714Y-133768429D01*
X294269857Y-133804714D01*
X294197286Y-133804714D01*
X294088429Y-133768429D01*
X294052143Y-133732143D01*
X294052143Y-133478143D01*
X294197286Y-133478143D01*
X293399000Y-133804714D02*
X293399000Y-133405571D01*
X293435286Y-133333000D01*
X293507857Y-133296714D01*
X293653000Y-133296714D01*
X293725571Y-133333000D01*
X293399000Y-133768429D02*
X293471571Y-133804714D01*
X293653000Y-133804714D01*
X293725571Y-133768429D01*
X293761857Y-133695857D01*
X293761857Y-133623286D01*
X293725571Y-133550714D01*
X293653000Y-133514429D01*
X293471571Y-133514429D01*
X293399000Y-133478143D01*
X293145000Y-133042714D02*
X292709571Y-133042714D01*
X292927285Y-133804714D02*
X292927285Y-133042714D01*
X292165286Y-133768429D02*
X292237857Y-133804714D01*
X292383000Y-133804714D01*
X292455571Y-133768429D01*
X292491857Y-133695857D01*
X292491857Y-133405571D01*
X292455571Y-133333000D01*
X292383000Y-133296714D01*
X292237857Y-133296714D01*
X292165286Y-133333000D01*
X292129000Y-133405571D01*
X292129000Y-133478143D01*
X292491857Y-133550714D01*
X291475857Y-133768429D02*
X291548428Y-133804714D01*
X291693571Y-133804714D01*
X291766143Y-133768429D01*
X291802428Y-133732143D01*
X291838714Y-133659571D01*
X291838714Y-133441857D01*
X291802428Y-133369286D01*
X291766143Y-133333000D01*
X291693571Y-133296714D01*
X291548428Y-133296714D01*
X291475857Y-133333000D01*
X291149285Y-133804714D02*
X291149285Y-133042714D01*
X290822714Y-133804714D02*
X290822714Y-133405571D01*
X290859000Y-133333000D01*
X290931571Y-133296714D01*
X291040428Y-133296714D01*
X291113000Y-133333000D01*
X291149285Y-133369286D01*
X289625285Y-133405571D02*
X289516428Y-133441857D01*
X289480143Y-133478143D01*
X289443857Y-133550714D01*
X289443857Y-133659571D01*
X289480143Y-133732143D01*
X289516428Y-133768429D01*
X289589000Y-133804714D01*
X289879285Y-133804714D01*
X289879285Y-133042714D01*
X289625285Y-133042714D01*
X289552714Y-133079000D01*
X289516428Y-133115286D01*
X289480143Y-133187857D01*
X289480143Y-133260429D01*
X289516428Y-133333000D01*
X289552714Y-133369286D01*
X289625285Y-133405571D01*
X289879285Y-133405571D01*
X289117285Y-133804714D02*
X289117285Y-133042714D01*
X288681857Y-133804714D01*
X288681857Y-133042714D01*
X288318999Y-133405571D02*
X288064999Y-133405571D01*
X287956142Y-133804714D02*
X288318999Y-133804714D01*
X288318999Y-133042714D01*
X287956142Y-133042714D01*
X286686142Y-133804714D02*
X287048999Y-133804714D01*
X287048999Y-133042714D01*
X286105571Y-133804714D02*
X286105571Y-133405571D01*
X286141857Y-133333000D01*
X286214428Y-133296714D01*
X286359571Y-133296714D01*
X286432142Y-133333000D01*
X286105571Y-133768429D02*
X286178142Y-133804714D01*
X286359571Y-133804714D01*
X286432142Y-133768429D01*
X286468428Y-133695857D01*
X286468428Y-133623286D01*
X286432142Y-133550714D01*
X286359571Y-133514429D01*
X286178142Y-133514429D01*
X286105571Y-133478143D01*
X285742713Y-133804714D02*
X285742713Y-133042714D01*
X285742713Y-133333000D02*
X285670142Y-133296714D01*
X285524999Y-133296714D01*
X285452428Y-133333000D01*
X285416142Y-133369286D01*
X285379856Y-133441857D01*
X285379856Y-133659571D01*
X285416142Y-133732143D01*
X285452428Y-133768429D01*
X285524999Y-133804714D01*
X285670142Y-133804714D01*
X285742713Y-133768429D01*
M02*
