M48
;DRILL file {KiCad 4.0.4-stable} date 09/24/17 15:17:16
;FORMAT={-:-/ absolute / inch / decimal}
FMAT,2
INCH,TZ
T1C0.013
T2C0.039
T3C0.040
%
G90
G05
M72
T1
X10.6055Y-4.7803
X10.6154Y-4.5697
X10.75Y-4.9559
X10.7551Y-5.0815
X10.785Y-4.9602
X10.7945Y-5.0983
X10.8024Y-4.7669
X10.865Y-4.7048
X11.0165Y-4.7681
X11.0409Y-4.7165
X11.0535Y-5.2016
X11.0953Y-4.688
X11.101Y-4.5719
X11.1055Y-4.8473
X11.172Y-4.8516
X11.2319Y-4.7169
X11.2451Y-5.188
X11.271Y-4.8568
X11.3101Y-4.9235
X11.3733Y-4.7447
X11.4079Y-5.087
X11.4091Y-5.2039
X11.4852Y-5.0531
X11.5561Y-4.9409
X11.751Y-4.7559
X11.7667Y-5.1713
X11.8323Y-4.7961
T2
X12.0335Y-4.5118
X12.0671Y-5.1919
X12.1465Y-4.5047
X12.2455Y-4.8761
X12.2455Y-4.9761
X12.2455Y-5.0809
X12.2455Y-5.1809
X12.2465Y-4.5047
X12.2465Y-4.6244
X12.2465Y-4.7244
T3
X10.5217Y-4.6343
X10.5217Y-4.7343
X10.8573Y-4.9423
X10.9573Y-4.9423
X11.4577Y-4.5419
X11.4577Y-4.6419
T0
M30
