G04 #@! TF.FileFunction,Legend,Top*
%FSLAX46Y46*%
G04 Gerber Fmt 4.6, Leading zero omitted, Abs format (unit mm)*
G04 Created by KiCad (PCBNEW 4.0.4-stable) date 09/24/17 15:17:15*
%MOMM*%
%LPD*%
G01*
G04 APERTURE LIST*
%ADD10C,0.150000*%
%ADD11C,0.090000*%
%ADD12C,0.100000*%
%ADD13C,0.200000*%
%ADD14C,0.125000*%
%ADD15C,0.500000*%
%ADD16C,0.120000*%
%ADD17C,0.071120*%
%ADD18C,0.152400*%
%ADD19C,0.127000*%
%ADD20C,0.250000*%
%ADD21C,0.070000*%
%ADD22C,0.114300*%
%ADD23C,0.060000*%
%ADD24C,0.092000*%
%ADD25C,0.095000*%
%ADD26C,0.080000*%
G04 APERTURE END LIST*
D10*
D11*
X309041429Y-131767143D02*
X309441429Y-131767143D01*
X308812857Y-131910000D02*
X309241429Y-132052857D01*
X309241429Y-131681429D01*
X309212857Y-131452857D02*
X309212857Y-130995714D01*
X308901429Y-126961429D02*
X308901429Y-126590000D01*
X309130000Y-126790000D01*
X309130000Y-126704286D01*
X309158571Y-126647143D01*
X309187143Y-126618572D01*
X309244286Y-126590000D01*
X309387143Y-126590000D01*
X309444286Y-126618572D01*
X309472857Y-126647143D01*
X309501429Y-126704286D01*
X309501429Y-126875714D01*
X309472857Y-126932857D01*
X309444286Y-126961429D01*
X309272857Y-126332857D02*
X309272857Y-125875714D01*
X309141429Y-128797143D02*
X309541429Y-128797143D01*
X308912857Y-128940000D02*
X309341429Y-129082857D01*
X309341429Y-128711429D01*
X309312857Y-128482857D02*
X309312857Y-128025714D01*
X309541429Y-128254285D02*
X309084286Y-128254285D01*
X309698571Y-121821429D02*
X310070000Y-121821429D01*
X309870000Y-122050000D01*
X309955714Y-122050000D01*
X310012857Y-122078571D01*
X310041428Y-122107143D01*
X310070000Y-122164286D01*
X310070000Y-122307143D01*
X310041428Y-122364286D01*
X310012857Y-122392857D01*
X309955714Y-122421429D01*
X309784286Y-122421429D01*
X309727143Y-122392857D01*
X309698571Y-122364286D01*
X310327143Y-122192857D02*
X310784286Y-122192857D01*
X310555715Y-122421429D02*
X310555715Y-121964286D01*
X309038571Y-120942857D02*
X309010000Y-120914286D01*
X308981429Y-120857143D01*
X308981429Y-120714286D01*
X309010000Y-120657143D01*
X309038571Y-120628572D01*
X309095714Y-120600000D01*
X309152857Y-120600000D01*
X309238571Y-120628572D01*
X309581429Y-120971429D01*
X309581429Y-120600000D01*
X309352857Y-120342857D02*
X309352857Y-119885714D01*
X308918571Y-117952857D02*
X308890000Y-117924286D01*
X308861429Y-117867143D01*
X308861429Y-117724286D01*
X308890000Y-117667143D01*
X308918571Y-117638572D01*
X308975714Y-117610000D01*
X309032857Y-117610000D01*
X309118571Y-117638572D01*
X309461429Y-117981429D01*
X309461429Y-117610000D01*
X309232857Y-117352857D02*
X309232857Y-116895714D01*
X309461429Y-117124285D02*
X309004286Y-117124285D01*
X308310000Y-116058571D02*
X308652857Y-116058571D01*
X308481429Y-116058571D02*
X308481429Y-116658571D01*
X308538572Y-116572857D01*
X308595714Y-116515714D01*
X308652857Y-116487143D01*
X308052857Y-116287143D02*
X307595714Y-116287143D01*
X307824285Y-116058571D02*
X307824285Y-116515714D01*
D12*
X290328572Y-113405000D02*
X290257143Y-113369286D01*
X290150000Y-113369286D01*
X290042857Y-113405000D01*
X289971429Y-113476429D01*
X289935714Y-113547857D01*
X289900000Y-113690714D01*
X289900000Y-113797857D01*
X289935714Y-113940714D01*
X289971429Y-114012143D01*
X290042857Y-114083571D01*
X290150000Y-114119286D01*
X290221429Y-114119286D01*
X290328572Y-114083571D01*
X290364286Y-114047857D01*
X290364286Y-113797857D01*
X290221429Y-113797857D01*
X290685714Y-114119286D02*
X290685714Y-113369286D01*
X291114286Y-114119286D01*
X291114286Y-113369286D01*
X291471428Y-114119286D02*
X291471428Y-113369286D01*
X291650000Y-113369286D01*
X291757143Y-113405000D01*
X291828571Y-113476429D01*
X291864286Y-113547857D01*
X291900000Y-113690714D01*
X291900000Y-113797857D01*
X291864286Y-113940714D01*
X291828571Y-114012143D01*
X291757143Y-114083571D01*
X291650000Y-114119286D01*
X291471428Y-114119286D01*
D13*
X265900000Y-123300000D02*
X265900000Y-123290000D01*
X272400000Y-123300000D02*
X265900000Y-123300000D01*
X272400000Y-125500000D02*
X272400000Y-123300000D01*
X265900000Y-125510000D02*
X265900000Y-123310000D01*
X278860000Y-127310000D02*
X278110000Y-127310000D01*
X278860000Y-128060000D02*
X278860000Y-127310000D01*
X278110000Y-128060000D02*
X278860000Y-128060000D01*
X278110000Y-127260000D02*
X278110000Y-128060000D01*
X278780000Y-127700000D02*
X279780000Y-127700000D01*
D12*
X266157858Y-115379286D02*
X266407858Y-116129286D01*
X266657858Y-115379286D01*
X267157857Y-115736429D02*
X267265000Y-115772143D01*
X267300715Y-115807857D01*
X267336429Y-115879286D01*
X267336429Y-115986429D01*
X267300715Y-116057857D01*
X267265000Y-116093571D01*
X267193572Y-116129286D01*
X266907857Y-116129286D01*
X266907857Y-115379286D01*
X267157857Y-115379286D01*
X267229286Y-115415000D01*
X267265000Y-115450714D01*
X267300715Y-115522143D01*
X267300715Y-115593571D01*
X267265000Y-115665000D01*
X267229286Y-115700714D01*
X267157857Y-115736429D01*
X266907857Y-115736429D01*
X267622143Y-115915000D02*
X267979286Y-115915000D01*
X267550715Y-116129286D02*
X267800715Y-115379286D01*
X268050715Y-116129286D01*
X268193572Y-115379286D02*
X268622143Y-115379286D01*
X268407857Y-116129286D02*
X268407857Y-115379286D01*
X266778572Y-121815000D02*
X266707143Y-121779286D01*
X266600000Y-121779286D01*
X266492857Y-121815000D01*
X266421429Y-121886429D01*
X266385714Y-121957857D01*
X266350000Y-122100714D01*
X266350000Y-122207857D01*
X266385714Y-122350714D01*
X266421429Y-122422143D01*
X266492857Y-122493571D01*
X266600000Y-122529286D01*
X266671429Y-122529286D01*
X266778572Y-122493571D01*
X266814286Y-122457857D01*
X266814286Y-122207857D01*
X266671429Y-122207857D01*
X267135714Y-122529286D02*
X267135714Y-121779286D01*
X267564286Y-122529286D01*
X267564286Y-121779286D01*
X267921428Y-122529286D02*
X267921428Y-121779286D01*
X268100000Y-121779286D01*
X268207143Y-121815000D01*
X268278571Y-121886429D01*
X268314286Y-121957857D01*
X268350000Y-122100714D01*
X268350000Y-122207857D01*
X268314286Y-122350714D01*
X268278571Y-122422143D01*
X268207143Y-122493571D01*
X268100000Y-122529286D01*
X267921428Y-122529286D01*
D13*
X283794967Y-117737560D02*
G75*
G03X283794967Y-117737560I-223607J0D01*
G01*
D12*
X308364286Y-114552857D02*
X308935715Y-114552857D01*
X308650001Y-114834762D02*
X308650001Y-114270952D01*
X310898572Y-114388095D02*
X311541429Y-114388095D01*
X274796668Y-124036667D02*
X274796668Y-123336667D01*
X275630001Y-123303333D02*
X275030001Y-124203333D01*
X275996667Y-123336667D02*
X276130000Y-123336667D01*
X276196667Y-123370000D01*
X276263334Y-123436667D01*
X276296667Y-123570000D01*
X276296667Y-123803333D01*
X276263334Y-123936667D01*
X276196667Y-124003333D01*
X276130000Y-124036667D01*
X275996667Y-124036667D01*
X275930000Y-124003333D01*
X275863334Y-123936667D01*
X275830000Y-123803333D01*
X275830000Y-123570000D01*
X275863334Y-123436667D01*
X275930000Y-123370000D01*
X275996667Y-123336667D01*
D13*
X265900000Y-132000000D02*
X265900000Y-125500000D01*
X272400000Y-132000000D02*
X265900000Y-132000000D01*
X272400000Y-125500000D02*
X272400000Y-132000000D01*
X265900000Y-125500000D02*
X272400000Y-125500000D01*
D14*
X302132857Y-124653333D02*
X301656666Y-124653333D01*
X302228095Y-124367619D02*
X301894762Y-125367619D01*
X301561428Y-124367619D01*
X301228095Y-124367619D02*
X301228095Y-125367619D01*
X300990000Y-125367619D01*
X300847142Y-125320000D01*
X300751904Y-125224762D01*
X300704285Y-125129524D01*
X300656666Y-124939048D01*
X300656666Y-124796190D01*
X300704285Y-124605714D01*
X300751904Y-124510476D01*
X300847142Y-124415238D01*
X300990000Y-124367619D01*
X301228095Y-124367619D01*
X300275714Y-124415238D02*
X300132857Y-124367619D01*
X299894761Y-124367619D01*
X299799523Y-124415238D01*
X299751904Y-124462857D01*
X299704285Y-124558095D01*
X299704285Y-124653333D01*
X299751904Y-124748571D01*
X299799523Y-124796190D01*
X299894761Y-124843810D01*
X300085238Y-124891429D01*
X300180476Y-124939048D01*
X300228095Y-124986667D01*
X300275714Y-125081905D01*
X300275714Y-125177143D01*
X300228095Y-125272381D01*
X300180476Y-125320000D01*
X300085238Y-125367619D01*
X299847142Y-125367619D01*
X299704285Y-125320000D01*
X298751904Y-124367619D02*
X299323333Y-124367619D01*
X299037619Y-124367619D02*
X299037619Y-125367619D01*
X299132857Y-125224762D01*
X299228095Y-125129524D01*
X299323333Y-125081905D01*
X298370952Y-125272381D02*
X298323333Y-125320000D01*
X298228095Y-125367619D01*
X297989999Y-125367619D01*
X297894761Y-125320000D01*
X297847142Y-125272381D01*
X297799523Y-125177143D01*
X297799523Y-125081905D01*
X297847142Y-124939048D01*
X298418571Y-124367619D01*
X297799523Y-124367619D01*
X297323333Y-124367619D02*
X297132857Y-124367619D01*
X297037618Y-124415238D01*
X296989999Y-124462857D01*
X296894761Y-124605714D01*
X296847142Y-124796190D01*
X296847142Y-125177143D01*
X296894761Y-125272381D01*
X296942380Y-125320000D01*
X297037618Y-125367619D01*
X297228095Y-125367619D01*
X297323333Y-125320000D01*
X297370952Y-125272381D01*
X297418571Y-125177143D01*
X297418571Y-124939048D01*
X297370952Y-124843810D01*
X297323333Y-124796190D01*
X297228095Y-124748571D01*
X297037618Y-124748571D01*
X296942380Y-124796190D01*
X296894761Y-124843810D01*
X296847142Y-124939048D01*
X296370952Y-124367619D02*
X296180476Y-124367619D01*
X296085237Y-124415238D01*
X296037618Y-124462857D01*
X295942380Y-124605714D01*
X295894761Y-124796190D01*
X295894761Y-125177143D01*
X295942380Y-125272381D01*
X295989999Y-125320000D01*
X296085237Y-125367619D01*
X296275714Y-125367619D01*
X296370952Y-125320000D01*
X296418571Y-125272381D01*
X296466190Y-125177143D01*
X296466190Y-124939048D01*
X296418571Y-124843810D01*
X296370952Y-124796190D01*
X296275714Y-124748571D01*
X296085237Y-124748571D01*
X295989999Y-124796190D01*
X295942380Y-124843810D01*
X295894761Y-124939048D01*
X295466190Y-124748571D02*
X294704285Y-124748571D01*
X294323333Y-124367619D02*
X293799523Y-125034286D01*
X294323333Y-125034286D02*
X293799523Y-124367619D01*
X287945714Y-128385238D02*
X288612381Y-128385238D01*
X288040952Y-128385238D02*
X287993333Y-128337619D01*
X287945714Y-128242381D01*
X287945714Y-128099523D01*
X287993333Y-128004285D01*
X288088571Y-127956666D01*
X288612381Y-127956666D01*
X288612381Y-126909047D02*
X288136190Y-127242381D01*
X288612381Y-127480476D02*
X287612381Y-127480476D01*
X287612381Y-127099523D01*
X287660000Y-127004285D01*
X287707619Y-126956666D01*
X287802857Y-126909047D01*
X287945714Y-126909047D01*
X288040952Y-126956666D01*
X288088571Y-127004285D01*
X288136190Y-127099523D01*
X288136190Y-127480476D01*
X288088571Y-126147142D02*
X288088571Y-126480476D01*
X288612381Y-126480476D02*
X287612381Y-126480476D01*
X287612381Y-126004285D01*
X287612381Y-125147142D02*
X287612381Y-125623333D01*
X288088571Y-125670952D01*
X288040952Y-125623333D01*
X287993333Y-125528095D01*
X287993333Y-125289999D01*
X288040952Y-125194761D01*
X288088571Y-125147142D01*
X288183810Y-125099523D01*
X288421905Y-125099523D01*
X288517143Y-125147142D01*
X288564762Y-125194761D01*
X288612381Y-125289999D01*
X288612381Y-125528095D01*
X288564762Y-125623333D01*
X288517143Y-125670952D01*
X287707619Y-124718571D02*
X287660000Y-124670952D01*
X287612381Y-124575714D01*
X287612381Y-124337618D01*
X287660000Y-124242380D01*
X287707619Y-124194761D01*
X287802857Y-124147142D01*
X287898095Y-124147142D01*
X288040952Y-124194761D01*
X288612381Y-124766190D01*
X288612381Y-124147142D01*
D12*
X302178571Y-132533103D02*
X302285714Y-132568341D01*
X302321429Y-132603579D01*
X302357143Y-132674055D01*
X302357143Y-132779770D01*
X302321429Y-132850246D01*
X302285714Y-132885484D01*
X302214286Y-132920722D01*
X301928571Y-132920722D01*
X301928571Y-132180722D01*
X302178571Y-132180722D01*
X302250000Y-132215960D01*
X302285714Y-132251198D01*
X302321429Y-132321674D01*
X302321429Y-132392150D01*
X302285714Y-132462627D01*
X302250000Y-132497865D01*
X302178571Y-132533103D01*
X301928571Y-132533103D01*
X302678571Y-132920722D02*
X302678571Y-132180722D01*
X303000000Y-132709293D02*
X303357143Y-132709293D01*
X302928572Y-132920722D02*
X303178572Y-132180722D01*
X303428572Y-132920722D01*
X303642857Y-132885484D02*
X303750000Y-132920722D01*
X303928571Y-132920722D01*
X304000000Y-132885484D01*
X304035714Y-132850246D01*
X304071429Y-132779770D01*
X304071429Y-132709293D01*
X304035714Y-132638817D01*
X304000000Y-132603579D01*
X303928571Y-132568341D01*
X303785714Y-132533103D01*
X303714286Y-132497865D01*
X303678571Y-132462627D01*
X303642857Y-132392150D01*
X303642857Y-132321674D01*
X303678571Y-132251198D01*
X303714286Y-132215960D01*
X303785714Y-132180722D01*
X303964286Y-132180722D01*
X304071429Y-132215960D01*
X304928572Y-132145484D02*
X304285715Y-133096912D01*
X302803572Y-133425960D02*
X302732143Y-133390722D01*
X302625000Y-133390722D01*
X302517857Y-133425960D01*
X302446429Y-133496436D01*
X302410714Y-133566912D01*
X302375000Y-133707865D01*
X302375000Y-133813579D01*
X302410714Y-133954531D01*
X302446429Y-134025008D01*
X302517857Y-134095484D01*
X302625000Y-134130722D01*
X302696429Y-134130722D01*
X302803572Y-134095484D01*
X302839286Y-134060246D01*
X302839286Y-133813579D01*
X302696429Y-133813579D01*
X303160714Y-134130722D02*
X303160714Y-133390722D01*
X303589286Y-134130722D01*
X303589286Y-133390722D01*
X303946428Y-134130722D02*
X303946428Y-133390722D01*
X304125000Y-133390722D01*
X304232143Y-133425960D01*
X304303571Y-133496436D01*
X304339286Y-133566912D01*
X304375000Y-133707865D01*
X304375000Y-133813579D01*
X304339286Y-133954531D01*
X304303571Y-134025008D01*
X304232143Y-134095484D01*
X304125000Y-134130722D01*
X303946428Y-134130722D01*
X304079524Y-115971429D02*
X304114762Y-115864286D01*
X304114762Y-115685715D01*
X304079524Y-115614286D01*
X304044286Y-115578572D01*
X303973810Y-115542857D01*
X303903333Y-115542857D01*
X303832857Y-115578572D01*
X303797619Y-115614286D01*
X303762381Y-115685715D01*
X303727143Y-115828572D01*
X303691905Y-115900000D01*
X303656667Y-115935715D01*
X303586190Y-115971429D01*
X303515714Y-115971429D01*
X303445238Y-115935715D01*
X303410000Y-115900000D01*
X303374762Y-115828572D01*
X303374762Y-115650000D01*
X303410000Y-115542857D01*
X304114762Y-114792857D02*
X303762381Y-115042857D01*
X304114762Y-115221429D02*
X303374762Y-115221429D01*
X303374762Y-114935714D01*
X303410000Y-114864286D01*
X303445238Y-114828571D01*
X303515714Y-114792857D01*
X303621429Y-114792857D01*
X303691905Y-114828571D01*
X303727143Y-114864286D01*
X303762381Y-114935714D01*
X303762381Y-115221429D01*
X303727143Y-114221429D02*
X303762381Y-114114286D01*
X303797619Y-114078571D01*
X303868095Y-114042857D01*
X303973810Y-114042857D01*
X304044286Y-114078571D01*
X304079524Y-114114286D01*
X304114762Y-114185714D01*
X304114762Y-114471429D01*
X303374762Y-114471429D01*
X303374762Y-114221429D01*
X303410000Y-114150000D01*
X303445238Y-114114286D01*
X303515714Y-114078571D01*
X303586190Y-114078571D01*
X303656667Y-114114286D01*
X303691905Y-114150000D01*
X303727143Y-114221429D01*
X303727143Y-114471429D01*
X304114762Y-113328571D02*
X304114762Y-113757143D01*
X304114762Y-113542857D02*
X303374762Y-113542857D01*
X303480476Y-113614286D01*
X303550952Y-113685714D01*
X303586190Y-113757143D01*
D13*
X302345088Y-127600000D02*
G75*
G03X302345088Y-127600000I-570088J0D01*
G01*
X286853113Y-130990000D02*
G75*
G03X286853113Y-130990000I-403113J0D01*
G01*
D12*
X278073334Y-124030000D02*
X278040000Y-124063333D01*
X277940000Y-124096667D01*
X277873334Y-124096667D01*
X277773334Y-124063333D01*
X277706667Y-123996667D01*
X277673334Y-123930000D01*
X277640000Y-123796667D01*
X277640000Y-123696667D01*
X277673334Y-123563333D01*
X277706667Y-123496667D01*
X277773334Y-123430000D01*
X277873334Y-123396667D01*
X277940000Y-123396667D01*
X278040000Y-123430000D01*
X278073334Y-123463333D01*
X278706667Y-124096667D02*
X278373334Y-124096667D01*
X278373334Y-123396667D01*
X278940001Y-124096667D02*
X278940001Y-123396667D01*
X279340001Y-124096667D02*
X279040001Y-123696667D01*
X279340001Y-123396667D02*
X278940001Y-123796667D01*
X291894286Y-119236429D02*
X291322857Y-119236429D01*
X291608571Y-118950714D02*
X291608571Y-119522143D01*
X290608572Y-119700714D02*
X290965715Y-119700714D01*
X291001429Y-119343571D01*
X290965715Y-119379286D01*
X290894286Y-119415000D01*
X290715715Y-119415000D01*
X290644286Y-119379286D01*
X290608572Y-119343571D01*
X290572857Y-119272143D01*
X290572857Y-119093571D01*
X290608572Y-119022143D01*
X290644286Y-118986429D01*
X290715715Y-118950714D01*
X290894286Y-118950714D01*
X290965715Y-118986429D01*
X291001429Y-119022143D01*
X290358571Y-119700714D02*
X290108571Y-118950714D01*
X289858571Y-119700714D01*
D15*
X269900000Y-127673000D02*
X269320000Y-127673000D01*
D16*
X309730000Y-121330000D02*
X312390000Y-121330000D01*
X309730000Y-118730000D02*
X309730000Y-121330000D01*
X312390000Y-118730000D02*
X312390000Y-121330000D01*
X309730000Y-118730000D02*
X312390000Y-118730000D01*
X309730000Y-117460000D02*
X309730000Y-116130000D01*
X309730000Y-116130000D02*
X311060000Y-116130000D01*
D17*
X276346000Y-116659000D02*
X275838000Y-116659000D01*
X275838000Y-116659000D02*
X275838000Y-117421000D01*
X275838000Y-117421000D02*
X276346000Y-117421000D01*
X276854000Y-116659000D02*
X277362000Y-116659000D01*
X277362000Y-116659000D02*
X277362000Y-117421000D01*
X277362000Y-117421000D02*
X276854000Y-117421000D01*
D18*
X289755520Y-119175240D02*
X289755520Y-114095240D01*
X292295520Y-114095240D02*
X292295520Y-119175240D01*
D16*
X309705640Y-132925840D02*
X312365640Y-132925840D01*
X309705640Y-130325840D02*
X309705640Y-132925840D01*
X312365640Y-130325840D02*
X312365640Y-132925840D01*
X309705640Y-130325840D02*
X312365640Y-130325840D01*
X309705640Y-129055840D02*
X309705640Y-127725840D01*
X309705640Y-127725840D02*
X311035640Y-127725840D01*
X309705640Y-127723920D02*
X312365640Y-127723920D01*
X309705640Y-125123920D02*
X309705640Y-127723920D01*
X312365640Y-125123920D02*
X312365640Y-127723920D01*
X309705640Y-125123920D02*
X312365640Y-125123920D01*
X309705640Y-123853920D02*
X309705640Y-122523920D01*
X309705640Y-122523920D02*
X311035640Y-122523920D01*
D10*
X273512500Y-119877500D02*
X273512500Y-120277500D01*
X273512500Y-119877500D02*
X273112500Y-119877500D01*
X270312500Y-119877500D02*
X270312500Y-120277500D01*
X270312500Y-119877500D02*
X270712500Y-119877500D01*
X270312500Y-123077500D02*
X270312500Y-122677500D01*
X270312500Y-123077500D02*
X270712500Y-123077500D01*
X273512500Y-123077500D02*
X273112500Y-123077500D01*
D16*
X282400000Y-122980000D02*
X284300000Y-122980000D01*
X283800000Y-120660000D02*
X282400000Y-120660000D01*
D17*
X285141000Y-132506000D02*
X285141000Y-131998000D01*
X285141000Y-131998000D02*
X284379000Y-131998000D01*
X284379000Y-131998000D02*
X284379000Y-132506000D01*
X285141000Y-133014000D02*
X285141000Y-133522000D01*
X285141000Y-133522000D02*
X284379000Y-133522000D01*
X284379000Y-133522000D02*
X284379000Y-133014000D01*
X285424000Y-124161000D02*
X285932000Y-124161000D01*
X285932000Y-124161000D02*
X285932000Y-123399000D01*
X285932000Y-123399000D02*
X285424000Y-123399000D01*
X284916000Y-124161000D02*
X284408000Y-124161000D01*
X284408000Y-124161000D02*
X284408000Y-123399000D01*
X284408000Y-123399000D02*
X284916000Y-123399000D01*
X298416000Y-113876000D02*
X298416000Y-113368000D01*
X298416000Y-113368000D02*
X297654000Y-113368000D01*
X297654000Y-113368000D02*
X297654000Y-113876000D01*
X298416000Y-114384000D02*
X298416000Y-114892000D01*
X298416000Y-114892000D02*
X297654000Y-114892000D01*
X297654000Y-114892000D02*
X297654000Y-114384000D01*
X283919000Y-116784000D02*
X283919000Y-117292000D01*
X283919000Y-117292000D02*
X284681000Y-117292000D01*
X284681000Y-117292000D02*
X284681000Y-116784000D01*
X283919000Y-116276000D02*
X283919000Y-115768000D01*
X283919000Y-115768000D02*
X284681000Y-115768000D01*
X284681000Y-115768000D02*
X284681000Y-116276000D01*
D19*
X280385000Y-114927000D02*
X280385000Y-117213000D01*
X280385000Y-117213000D02*
X279115000Y-117213000D01*
X279115000Y-117213000D02*
X279115000Y-114927000D01*
X279115000Y-114927000D02*
X280385000Y-114927000D01*
D16*
X281440000Y-117490000D02*
X283340000Y-117490000D01*
X282840000Y-115170000D02*
X281440000Y-115170000D01*
D17*
X281876000Y-114149000D02*
X281368000Y-114149000D01*
X281368000Y-114149000D02*
X281368000Y-114911000D01*
X281368000Y-114911000D02*
X281876000Y-114911000D01*
X282384000Y-114149000D02*
X282892000Y-114149000D01*
X282892000Y-114149000D02*
X282892000Y-114911000D01*
X282892000Y-114911000D02*
X282384000Y-114911000D01*
X284839000Y-122304000D02*
X284839000Y-122812000D01*
X284839000Y-122812000D02*
X285601000Y-122812000D01*
X285601000Y-122812000D02*
X285601000Y-122304000D01*
X284839000Y-121796000D02*
X284839000Y-121288000D01*
X284839000Y-121288000D02*
X285601000Y-121288000D01*
X285601000Y-121288000D02*
X285601000Y-121796000D01*
X280914000Y-122561000D02*
X281422000Y-122561000D01*
X281422000Y-122561000D02*
X281422000Y-121799000D01*
X281422000Y-121799000D02*
X280914000Y-121799000D01*
X280406000Y-122561000D02*
X279898000Y-122561000D01*
X279898000Y-122561000D02*
X279898000Y-121799000D01*
X279898000Y-121799000D02*
X280406000Y-121799000D01*
X282756000Y-119619000D02*
X282248000Y-119619000D01*
X282248000Y-119619000D02*
X282248000Y-120381000D01*
X282248000Y-120381000D02*
X282756000Y-120381000D01*
X283264000Y-119619000D02*
X283772000Y-119619000D01*
X283772000Y-119619000D02*
X283772000Y-120381000D01*
X283772000Y-120381000D02*
X283264000Y-120381000D01*
X287041000Y-132506000D02*
X287041000Y-131998000D01*
X287041000Y-131998000D02*
X286279000Y-131998000D01*
X286279000Y-131998000D02*
X286279000Y-132506000D01*
X287041000Y-133014000D02*
X287041000Y-133522000D01*
X287041000Y-133522000D02*
X286279000Y-133522000D01*
X286279000Y-133522000D02*
X286279000Y-133014000D01*
D18*
X265980000Y-116440000D02*
X268520000Y-116440000D01*
X268520000Y-116440000D02*
X268520000Y-121520000D01*
X268520000Y-121520000D02*
X265980000Y-121520000D01*
X265980000Y-121520000D02*
X265980000Y-116440000D01*
D17*
X279741000Y-118186000D02*
X279741000Y-117678000D01*
X279741000Y-117678000D02*
X278979000Y-117678000D01*
X278979000Y-117678000D02*
X278979000Y-118186000D01*
X279741000Y-118694000D02*
X279741000Y-119202000D01*
X279741000Y-119202000D02*
X278979000Y-119202000D01*
X278979000Y-119202000D02*
X278979000Y-118694000D01*
X279183500Y-120838500D02*
X279183500Y-120330500D01*
X279183500Y-120330500D02*
X278421500Y-120330500D01*
X278421500Y-120330500D02*
X278421500Y-120838500D01*
X279183500Y-121346500D02*
X279183500Y-121854500D01*
X279183500Y-121854500D02*
X278421500Y-121854500D01*
X278421500Y-121854500D02*
X278421500Y-121346500D01*
X289125600Y-122020040D02*
X289633600Y-122020040D01*
X289633600Y-122020040D02*
X289633600Y-121258040D01*
X289633600Y-121258040D02*
X289125600Y-121258040D01*
X288617600Y-122020040D02*
X288109600Y-122020040D01*
X288109600Y-122020040D02*
X288109600Y-121258040D01*
X288109600Y-121258040D02*
X288617600Y-121258040D01*
X287167260Y-116431140D02*
X286659260Y-116431140D01*
X286659260Y-116431140D02*
X286659260Y-117193140D01*
X286659260Y-117193140D02*
X287167260Y-117193140D01*
X287675260Y-116431140D02*
X288183260Y-116431140D01*
X288183260Y-116431140D02*
X288183260Y-117193140D01*
X288183260Y-117193140D02*
X287675260Y-117193140D01*
X282333640Y-118880600D02*
X282333640Y-119388600D01*
X282333640Y-119388600D02*
X283095640Y-119388600D01*
X283095640Y-119388600D02*
X283095640Y-118880600D01*
X282333640Y-118372600D02*
X282333640Y-117864600D01*
X282333640Y-117864600D02*
X283095640Y-117864600D01*
X283095640Y-117864600D02*
X283095640Y-118372600D01*
X286432260Y-116878140D02*
X286432260Y-116370140D01*
X286432260Y-116370140D02*
X285670260Y-116370140D01*
X285670260Y-116370140D02*
X285670260Y-116878140D01*
X286432260Y-117386140D02*
X286432260Y-117894140D01*
X286432260Y-117894140D02*
X285670260Y-117894140D01*
X285670260Y-117894140D02*
X285670260Y-117386140D01*
X288871600Y-122959840D02*
X288871600Y-122451840D01*
X288871600Y-122451840D02*
X288109600Y-122451840D01*
X288109600Y-122451840D02*
X288109600Y-122959840D01*
X288871600Y-123467840D02*
X288871600Y-123975840D01*
X288871600Y-123975840D02*
X288109600Y-123975840D01*
X288109600Y-123975840D02*
X288109600Y-123467840D01*
D16*
X287964440Y-121466800D02*
X286964440Y-121466800D01*
X286964440Y-121466800D02*
X286964440Y-123566800D01*
X287964440Y-121466800D02*
X287964440Y-123566800D01*
X286229520Y-119085960D02*
X286229520Y-118085960D01*
X286229520Y-118085960D02*
X284129520Y-118085960D01*
X286229520Y-119085960D02*
X284129520Y-119085960D01*
X273659920Y-132545320D02*
X274659920Y-132545320D01*
X274659920Y-132545320D02*
X274659920Y-130445320D01*
X273659920Y-132545320D02*
X273659920Y-130445320D01*
D17*
X283231000Y-132229000D02*
X282723000Y-132229000D01*
X282723000Y-132229000D02*
X282723000Y-132991000D01*
X282723000Y-132991000D02*
X283231000Y-132991000D01*
X283739000Y-132229000D02*
X284247000Y-132229000D01*
X284247000Y-132229000D02*
X284247000Y-132991000D01*
X284247000Y-132991000D02*
X283739000Y-132991000D01*
X283734000Y-133881000D02*
X284242000Y-133881000D01*
X284242000Y-133881000D02*
X284242000Y-133119000D01*
X284242000Y-133119000D02*
X283734000Y-133119000D01*
X283226000Y-133881000D02*
X282718000Y-133881000D01*
X282718000Y-133881000D02*
X282718000Y-133119000D01*
X282718000Y-133119000D02*
X283226000Y-133119000D01*
X285329000Y-133014000D02*
X285329000Y-133522000D01*
X285329000Y-133522000D02*
X286091000Y-133522000D01*
X286091000Y-133522000D02*
X286091000Y-133014000D01*
X285329000Y-132506000D02*
X285329000Y-131998000D01*
X285329000Y-131998000D02*
X286091000Y-131998000D01*
X286091000Y-131998000D02*
X286091000Y-132506000D01*
X274691000Y-122281000D02*
X274691000Y-121773000D01*
X274691000Y-121773000D02*
X273929000Y-121773000D01*
X273929000Y-121773000D02*
X273929000Y-122281000D01*
X274691000Y-122789000D02*
X274691000Y-123297000D01*
X274691000Y-123297000D02*
X273929000Y-123297000D01*
X273929000Y-123297000D02*
X273929000Y-122789000D01*
X272659000Y-124704000D02*
X272659000Y-125212000D01*
X272659000Y-125212000D02*
X273421000Y-125212000D01*
X273421000Y-125212000D02*
X273421000Y-124704000D01*
X272659000Y-124196000D02*
X272659000Y-123688000D01*
X272659000Y-123688000D02*
X273421000Y-123688000D01*
X273421000Y-123688000D02*
X273421000Y-124196000D01*
X269029000Y-120664000D02*
X269029000Y-121172000D01*
X269029000Y-121172000D02*
X269791000Y-121172000D01*
X269791000Y-121172000D02*
X269791000Y-120664000D01*
X269029000Y-120156000D02*
X269029000Y-119648000D01*
X269029000Y-119648000D02*
X269791000Y-119648000D01*
X269791000Y-119648000D02*
X269791000Y-120156000D01*
X271988500Y-118456500D02*
X271480500Y-118456500D01*
X271480500Y-118456500D02*
X271480500Y-119218500D01*
X271480500Y-119218500D02*
X271988500Y-119218500D01*
X272496500Y-118456500D02*
X273004500Y-118456500D01*
X273004500Y-118456500D02*
X273004500Y-119218500D01*
X273004500Y-119218500D02*
X272496500Y-119218500D01*
D16*
X277610000Y-128230000D02*
X278110000Y-128230000D01*
X278110000Y-127170000D02*
X277610000Y-127170000D01*
D17*
X276569000Y-129334000D02*
X276569000Y-129842000D01*
X276569000Y-129842000D02*
X277331000Y-129842000D01*
X277331000Y-129842000D02*
X277331000Y-129334000D01*
X276569000Y-128826000D02*
X276569000Y-128318000D01*
X276569000Y-128318000D02*
X277331000Y-128318000D01*
X277331000Y-128318000D02*
X277331000Y-128826000D01*
X279446000Y-132709000D02*
X278938000Y-132709000D01*
X278938000Y-132709000D02*
X278938000Y-133471000D01*
X278938000Y-133471000D02*
X279446000Y-133471000D01*
X279954000Y-132709000D02*
X280462000Y-132709000D01*
X280462000Y-132709000D02*
X280462000Y-133471000D01*
X280462000Y-133471000D02*
X279954000Y-133471000D01*
X308221000Y-121249000D02*
X307713000Y-121249000D01*
X307713000Y-121249000D02*
X307713000Y-122011000D01*
X307713000Y-122011000D02*
X308221000Y-122011000D01*
X308729000Y-121249000D02*
X309237000Y-121249000D01*
X309237000Y-121249000D02*
X309237000Y-122011000D01*
X309237000Y-122011000D02*
X308729000Y-122011000D01*
X308221000Y-124089000D02*
X307713000Y-124089000D01*
X307713000Y-124089000D02*
X307713000Y-124851000D01*
X307713000Y-124851000D02*
X308221000Y-124851000D01*
X308729000Y-124089000D02*
X309237000Y-124089000D01*
X309237000Y-124089000D02*
X309237000Y-124851000D01*
X309237000Y-124851000D02*
X308729000Y-124851000D01*
X308211000Y-122619000D02*
X307703000Y-122619000D01*
X307703000Y-122619000D02*
X307703000Y-123381000D01*
X307703000Y-123381000D02*
X308211000Y-123381000D01*
X308719000Y-122619000D02*
X309227000Y-122619000D01*
X309227000Y-122619000D02*
X309227000Y-123381000D01*
X309227000Y-123381000D02*
X308719000Y-123381000D01*
X308221000Y-119694000D02*
X307713000Y-119694000D01*
X307713000Y-119694000D02*
X307713000Y-120456000D01*
X307713000Y-120456000D02*
X308221000Y-120456000D01*
X308729000Y-119694000D02*
X309237000Y-119694000D01*
X309237000Y-119694000D02*
X309237000Y-120456000D01*
X309237000Y-120456000D02*
X308729000Y-120456000D01*
D16*
X304380000Y-113210000D02*
X304260000Y-113210000D01*
X304260000Y-113210000D02*
X304260000Y-115990000D01*
X304260000Y-115990000D02*
X304380000Y-115990000D01*
X304380000Y-115990000D02*
X304380000Y-113210000D01*
X305650000Y-113210000D02*
X307040000Y-113210000D01*
X307040000Y-113210000D02*
X307040000Y-114600000D01*
D10*
X295575000Y-115700000D02*
X294225000Y-115700000D01*
X295575000Y-114800000D02*
X295575000Y-115650000D01*
X294175000Y-114850000D02*
X294175000Y-115700000D01*
X294275000Y-114800000D02*
X295425000Y-114800000D01*
X294375000Y-115800000D02*
X295325000Y-115800000D01*
X294325000Y-115700000D02*
X295425000Y-115700000D01*
X294275000Y-114850000D02*
X295475000Y-114850000D01*
D20*
X294875000Y-115500000D02*
X294875000Y-115000000D01*
D19*
X294240000Y-115593000D02*
X294240000Y-113307000D01*
X294240000Y-113307000D02*
X295510000Y-113307000D01*
X295510000Y-113307000D02*
X295510000Y-115593000D01*
X295510000Y-115593000D02*
X294240000Y-115593000D01*
D18*
X279585360Y-124265400D02*
X279585360Y-126805400D01*
X279585360Y-126805400D02*
X274505360Y-126805400D01*
X274505360Y-126805400D02*
X274505360Y-124265400D01*
X274505360Y-124265400D02*
X279585360Y-124265400D01*
D17*
X303231000Y-115271000D02*
X303231000Y-114763000D01*
X303231000Y-114763000D02*
X302469000Y-114763000D01*
X302469000Y-114763000D02*
X302469000Y-115271000D01*
X303231000Y-115779000D02*
X303231000Y-116287000D01*
X303231000Y-116287000D02*
X302469000Y-116287000D01*
X302469000Y-116287000D02*
X302469000Y-115779000D01*
D10*
X302950000Y-128775000D02*
X302950000Y-127825000D01*
X292600000Y-128775000D02*
X292600000Y-127725000D01*
X292600000Y-118425000D02*
X292600000Y-119475000D01*
X302950000Y-118425000D02*
X302950000Y-119475000D01*
X302950000Y-128775000D02*
X301900000Y-128775000D01*
X302950000Y-118425000D02*
X301900000Y-118425000D01*
X292600000Y-118425000D02*
X293650000Y-118425000D01*
X292600000Y-128775000D02*
X293650000Y-128775000D01*
X302950000Y-127825000D02*
X304225000Y-127825000D01*
D17*
X294071000Y-131269000D02*
X293563000Y-131269000D01*
X293563000Y-131269000D02*
X293563000Y-132031000D01*
X293563000Y-132031000D02*
X294071000Y-132031000D01*
X294579000Y-131269000D02*
X295087000Y-131269000D01*
X295087000Y-131269000D02*
X295087000Y-132031000D01*
X295087000Y-132031000D02*
X294579000Y-132031000D01*
X294071000Y-132319000D02*
X293563000Y-132319000D01*
X293563000Y-132319000D02*
X293563000Y-133081000D01*
X293563000Y-133081000D02*
X294071000Y-133081000D01*
X294579000Y-132319000D02*
X295087000Y-132319000D01*
X295087000Y-132319000D02*
X295087000Y-133081000D01*
X295087000Y-133081000D02*
X294579000Y-133081000D01*
X296194000Y-114354000D02*
X296194000Y-114862000D01*
X296194000Y-114862000D02*
X296956000Y-114862000D01*
X296956000Y-114862000D02*
X296956000Y-114354000D01*
X296194000Y-113846000D02*
X296194000Y-113338000D01*
X296194000Y-113338000D02*
X296956000Y-113338000D01*
X296956000Y-113338000D02*
X296956000Y-113846000D01*
X302181000Y-115271000D02*
X302181000Y-114763000D01*
X302181000Y-114763000D02*
X301419000Y-114763000D01*
X301419000Y-114763000D02*
X301419000Y-115271000D01*
X302181000Y-115779000D02*
X302181000Y-116287000D01*
X302181000Y-116287000D02*
X301419000Y-116287000D01*
X301419000Y-116287000D02*
X301419000Y-115779000D01*
X290921000Y-128994000D02*
X290413000Y-128994000D01*
X290413000Y-128994000D02*
X290413000Y-129756000D01*
X290413000Y-129756000D02*
X290921000Y-129756000D01*
X291429000Y-128994000D02*
X291937000Y-128994000D01*
X291937000Y-128994000D02*
X291937000Y-129756000D01*
X291937000Y-129756000D02*
X291429000Y-129756000D01*
X306163920Y-118362440D02*
X305655920Y-118362440D01*
X305655920Y-118362440D02*
X305655920Y-119124440D01*
X305655920Y-119124440D02*
X306163920Y-119124440D01*
X306671920Y-118362440D02*
X307179920Y-118362440D01*
X307179920Y-118362440D02*
X307179920Y-119124440D01*
X307179920Y-119124440D02*
X306671920Y-119124440D01*
X291429000Y-130831000D02*
X291937000Y-130831000D01*
X291937000Y-130831000D02*
X291937000Y-130069000D01*
X291937000Y-130069000D02*
X291429000Y-130069000D01*
X290921000Y-130831000D02*
X290413000Y-130831000D01*
X290413000Y-130831000D02*
X290413000Y-130069000D01*
X290413000Y-130069000D02*
X290921000Y-130069000D01*
X297471000Y-132169000D02*
X296963000Y-132169000D01*
X296963000Y-132169000D02*
X296963000Y-132931000D01*
X296963000Y-132931000D02*
X297471000Y-132931000D01*
X297979000Y-132169000D02*
X298487000Y-132169000D01*
X298487000Y-132169000D02*
X298487000Y-132931000D01*
X298487000Y-132931000D02*
X297979000Y-132931000D01*
X297471000Y-131044000D02*
X296963000Y-131044000D01*
X296963000Y-131044000D02*
X296963000Y-131806000D01*
X296963000Y-131806000D02*
X297471000Y-131806000D01*
X297979000Y-131044000D02*
X298487000Y-131044000D01*
X298487000Y-131044000D02*
X298487000Y-131806000D01*
X298487000Y-131806000D02*
X297979000Y-131806000D01*
X300329000Y-132981000D02*
X300837000Y-132981000D01*
X300837000Y-132981000D02*
X300837000Y-132219000D01*
X300837000Y-132219000D02*
X300329000Y-132219000D01*
X299821000Y-132981000D02*
X299313000Y-132981000D01*
X299313000Y-132981000D02*
X299313000Y-132219000D01*
X299313000Y-132219000D02*
X299821000Y-132219000D01*
X293131000Y-116671000D02*
X293131000Y-116163000D01*
X293131000Y-116163000D02*
X292369000Y-116163000D01*
X292369000Y-116163000D02*
X292369000Y-116671000D01*
X293131000Y-117179000D02*
X293131000Y-117687000D01*
X293131000Y-117687000D02*
X292369000Y-117687000D01*
X292369000Y-117687000D02*
X292369000Y-117179000D01*
X300329000Y-131806000D02*
X300837000Y-131806000D01*
X300837000Y-131806000D02*
X300837000Y-131044000D01*
X300837000Y-131044000D02*
X300329000Y-131044000D01*
X299821000Y-131806000D02*
X299313000Y-131806000D01*
X299313000Y-131806000D02*
X299313000Y-131044000D01*
X299313000Y-131044000D02*
X299821000Y-131044000D01*
X299931000Y-113846000D02*
X299931000Y-113338000D01*
X299931000Y-113338000D02*
X299169000Y-113338000D01*
X299169000Y-113338000D02*
X299169000Y-113846000D01*
X299931000Y-114354000D02*
X299931000Y-114862000D01*
X299931000Y-114862000D02*
X299169000Y-114862000D01*
X299169000Y-114862000D02*
X299169000Y-114354000D01*
X306356000Y-117196000D02*
X306356000Y-116688000D01*
X306356000Y-116688000D02*
X305594000Y-116688000D01*
X305594000Y-116688000D02*
X305594000Y-117196000D01*
X306356000Y-117704000D02*
X306356000Y-118212000D01*
X306356000Y-118212000D02*
X305594000Y-118212000D01*
X305594000Y-118212000D02*
X305594000Y-117704000D01*
X305131000Y-117196000D02*
X305131000Y-116688000D01*
X305131000Y-116688000D02*
X304369000Y-116688000D01*
X304369000Y-116688000D02*
X304369000Y-117196000D01*
X305131000Y-117704000D02*
X305131000Y-118212000D01*
X305131000Y-118212000D02*
X304369000Y-118212000D01*
X304369000Y-118212000D02*
X304369000Y-117704000D01*
X288905260Y-119221140D02*
X288905260Y-119729140D01*
X288905260Y-119729140D02*
X289667260Y-119729140D01*
X289667260Y-119729140D02*
X289667260Y-119221140D01*
X288905260Y-118713140D02*
X288905260Y-118205140D01*
X288905260Y-118205140D02*
X289667260Y-118205140D01*
X289667260Y-118205140D02*
X289667260Y-118713140D01*
X302929000Y-131074320D02*
X302929000Y-131582320D01*
X302929000Y-131582320D02*
X303691000Y-131582320D01*
X303691000Y-131582320D02*
X303691000Y-131074320D01*
X302929000Y-130566320D02*
X302929000Y-130058320D01*
X302929000Y-130058320D02*
X303691000Y-130058320D01*
X303691000Y-130058320D02*
X303691000Y-130566320D01*
X304029000Y-131074320D02*
X304029000Y-131582320D01*
X304029000Y-131582320D02*
X304791000Y-131582320D01*
X304791000Y-131582320D02*
X304791000Y-131074320D01*
X304029000Y-130566320D02*
X304029000Y-130058320D01*
X304029000Y-130058320D02*
X304791000Y-130058320D01*
X304791000Y-130058320D02*
X304791000Y-130566320D01*
X306171000Y-119319000D02*
X305663000Y-119319000D01*
X305663000Y-119319000D02*
X305663000Y-120081000D01*
X305663000Y-120081000D02*
X306171000Y-120081000D01*
X306679000Y-119319000D02*
X307187000Y-119319000D01*
X307187000Y-119319000D02*
X307187000Y-120081000D01*
X307187000Y-120081000D02*
X306679000Y-120081000D01*
X306146000Y-120569000D02*
X305638000Y-120569000D01*
X305638000Y-120569000D02*
X305638000Y-121331000D01*
X305638000Y-121331000D02*
X306146000Y-121331000D01*
X306654000Y-120569000D02*
X307162000Y-120569000D01*
X307162000Y-120569000D02*
X307162000Y-121331000D01*
X307162000Y-121331000D02*
X306654000Y-121331000D01*
X306171000Y-122009000D02*
X305663000Y-122009000D01*
X305663000Y-122009000D02*
X305663000Y-122771000D01*
X305663000Y-122771000D02*
X306171000Y-122771000D01*
X306679000Y-122009000D02*
X307187000Y-122009000D01*
X307187000Y-122009000D02*
X307187000Y-122771000D01*
X307187000Y-122771000D02*
X306679000Y-122771000D01*
X306171000Y-123229000D02*
X305663000Y-123229000D01*
X305663000Y-123229000D02*
X305663000Y-123991000D01*
X305663000Y-123991000D02*
X306171000Y-123991000D01*
X306679000Y-123229000D02*
X307187000Y-123229000D01*
X307187000Y-123229000D02*
X307187000Y-123991000D01*
X307187000Y-123991000D02*
X306679000Y-123991000D01*
D16*
X272461040Y-132545320D02*
X273461040Y-132545320D01*
X273461040Y-132545320D02*
X273461040Y-130445320D01*
X272461040Y-132545320D02*
X272461040Y-130445320D01*
D10*
X278400000Y-131500000D02*
X278400000Y-131550000D01*
X278400000Y-131500000D02*
X278400000Y-131450000D01*
X276400000Y-131500000D02*
X276400000Y-131550000D01*
X276400000Y-131500000D02*
X276400000Y-131450000D01*
X277400000Y-132300000D02*
X277550000Y-132300000D01*
X277400000Y-132300000D02*
X277250000Y-132300000D01*
X277400000Y-130700000D02*
X277550000Y-130700000D01*
X277400000Y-130700000D02*
X277250000Y-130700000D01*
D17*
X288006000Y-131529000D02*
X287498000Y-131529000D01*
X287498000Y-131529000D02*
X287498000Y-132291000D01*
X287498000Y-132291000D02*
X288006000Y-132291000D01*
X288514000Y-131529000D02*
X289022000Y-131529000D01*
X289022000Y-131529000D02*
X289022000Y-132291000D01*
X289022000Y-132291000D02*
X288514000Y-132291000D01*
X276081000Y-131396000D02*
X276081000Y-130888000D01*
X276081000Y-130888000D02*
X275319000Y-130888000D01*
X275319000Y-130888000D02*
X275319000Y-131396000D01*
X276081000Y-131904000D02*
X276081000Y-132412000D01*
X276081000Y-132412000D02*
X275319000Y-132412000D01*
X275319000Y-132412000D02*
X275319000Y-131904000D01*
X278719000Y-131804000D02*
X278719000Y-132312000D01*
X278719000Y-132312000D02*
X279481000Y-132312000D01*
X279481000Y-132312000D02*
X279481000Y-131804000D01*
X278719000Y-131296000D02*
X278719000Y-130788000D01*
X278719000Y-130788000D02*
X279481000Y-130788000D01*
X279481000Y-130788000D02*
X279481000Y-131296000D01*
X275379000Y-129334000D02*
X275379000Y-129842000D01*
X275379000Y-129842000D02*
X276141000Y-129842000D01*
X276141000Y-129842000D02*
X276141000Y-129334000D01*
X275379000Y-128826000D02*
X275379000Y-128318000D01*
X275379000Y-128318000D02*
X276141000Y-128318000D01*
X276141000Y-128318000D02*
X276141000Y-128826000D01*
X290041000Y-130556000D02*
X290041000Y-130048000D01*
X290041000Y-130048000D02*
X289279000Y-130048000D01*
X289279000Y-130048000D02*
X289279000Y-130556000D01*
X290041000Y-131064000D02*
X290041000Y-131572000D01*
X290041000Y-131572000D02*
X289279000Y-131572000D01*
X289279000Y-131572000D02*
X289279000Y-131064000D01*
D10*
X266645000Y-126673000D02*
X271445000Y-126673000D01*
X271445000Y-126673000D02*
X271445000Y-128673000D01*
X271345000Y-128673000D02*
X266645000Y-128673000D01*
X266645000Y-128673000D02*
X266645000Y-126673000D01*
X271445000Y-128673000D02*
X271345000Y-128673000D01*
D17*
X272654000Y-128081000D02*
X273162000Y-128081000D01*
X273162000Y-128081000D02*
X273162000Y-127319000D01*
X273162000Y-127319000D02*
X272654000Y-127319000D01*
X272146000Y-128081000D02*
X271638000Y-128081000D01*
X271638000Y-128081000D02*
X271638000Y-127319000D01*
X271638000Y-127319000D02*
X272146000Y-127319000D01*
X274381000Y-127846000D02*
X274381000Y-127338000D01*
X274381000Y-127338000D02*
X273619000Y-127338000D01*
X273619000Y-127338000D02*
X273619000Y-127846000D01*
X274381000Y-128354000D02*
X274381000Y-128862000D01*
X274381000Y-128862000D02*
X273619000Y-128862000D01*
X273619000Y-128862000D02*
X273619000Y-128354000D01*
X275854000Y-128081000D02*
X276362000Y-128081000D01*
X276362000Y-128081000D02*
X276362000Y-127319000D01*
X276362000Y-127319000D02*
X275854000Y-127319000D01*
X275346000Y-128081000D02*
X274838000Y-128081000D01*
X274838000Y-128081000D02*
X274838000Y-127319000D01*
X274838000Y-127319000D02*
X275346000Y-127319000D01*
D16*
X307774280Y-133265240D02*
X307894280Y-133265240D01*
X307894280Y-133265240D02*
X307894280Y-130485240D01*
X307894280Y-130485240D02*
X307774280Y-130485240D01*
X307774280Y-130485240D02*
X307774280Y-133265240D01*
X306504280Y-133265240D02*
X305114280Y-133265240D01*
X305114280Y-133265240D02*
X305114280Y-131875240D01*
D10*
X280225000Y-131005000D02*
X280225000Y-130405000D01*
X286475000Y-124755000D02*
X286475000Y-125355000D01*
X280225000Y-124755000D02*
X280225000Y-125355000D01*
X286475000Y-131005000D02*
X285875000Y-131005000D01*
X286475000Y-124755000D02*
X285875000Y-124755000D01*
X280225000Y-124755000D02*
X280825000Y-124755000D01*
X280225000Y-131005000D02*
X280825000Y-131005000D01*
D16*
X289060000Y-131210000D02*
X289060000Y-128810000D01*
X289060000Y-128810000D02*
X287460000Y-128810000D01*
X287460000Y-128810000D02*
X287460000Y-131210000D01*
X288751260Y-120462140D02*
X288751260Y-118262140D01*
X286451260Y-120262140D02*
X286451260Y-118662140D01*
X312390000Y-115750000D02*
X312390000Y-113090000D01*
X309790000Y-115750000D02*
X312390000Y-115750000D01*
X309790000Y-113090000D02*
X312390000Y-113090000D01*
X309790000Y-115750000D02*
X309790000Y-113090000D01*
X308520000Y-115750000D02*
X307190000Y-115750000D01*
X307190000Y-115750000D02*
X307190000Y-114420000D01*
D10*
X270000000Y-114360000D02*
X270000000Y-113110000D01*
X270000000Y-113110000D02*
X275500000Y-113110000D01*
X275500000Y-114360000D02*
X275500000Y-113110000D01*
X275500000Y-115610000D02*
X270000000Y-115610000D01*
X270000000Y-114360000D02*
X270000000Y-115610000D01*
X275500000Y-114360000D02*
X275500000Y-115610000D01*
X274940000Y-118665000D02*
X274940000Y-121115000D01*
X278240000Y-117940000D02*
X278240000Y-121115000D01*
D17*
X276766069Y-117093300D02*
X276766069Y-117238443D01*
X276415549Y-117238443D01*
X276415549Y-117020728D02*
X276415549Y-116817528D01*
X276766069Y-116948157D01*
D11*
X271371548Y-121503690D02*
X271371548Y-121908452D01*
X271395357Y-121956071D01*
X271419167Y-121979881D01*
X271466786Y-122003690D01*
X271562024Y-122003690D01*
X271609643Y-121979881D01*
X271633452Y-121956071D01*
X271657262Y-121908452D01*
X271657262Y-121503690D01*
X272109643Y-121670357D02*
X272109643Y-122003690D01*
X271990596Y-121479881D02*
X271871548Y-121837024D01*
X272181072Y-121837024D01*
D21*
X282712857Y-123141429D02*
X282712857Y-123627143D01*
X282741429Y-123684286D01*
X282770000Y-123712857D01*
X282827143Y-123741429D01*
X282941429Y-123741429D01*
X282998571Y-123712857D01*
X283027143Y-123684286D01*
X283055714Y-123627143D01*
X283055714Y-123141429D01*
X283655714Y-123741429D02*
X283312857Y-123741429D01*
X283484285Y-123741429D02*
X283484285Y-123141429D01*
X283427142Y-123227143D01*
X283370000Y-123284286D01*
X283312857Y-123312857D01*
D17*
X284589057Y-133960186D02*
X284574543Y-133976877D01*
X284531000Y-133993569D01*
X284501971Y-133993569D01*
X284458428Y-133976877D01*
X284429400Y-133943494D01*
X284414885Y-133910111D01*
X284400371Y-133843346D01*
X284400371Y-133793271D01*
X284414885Y-133726506D01*
X284429400Y-133693123D01*
X284458428Y-133659740D01*
X284501971Y-133643049D01*
X284531000Y-133643049D01*
X284574543Y-133659740D01*
X284589057Y-133676431D01*
X284705171Y-133676431D02*
X284719685Y-133659740D01*
X284748714Y-133643049D01*
X284821285Y-133643049D01*
X284850314Y-133659740D01*
X284864828Y-133676431D01*
X284879343Y-133709814D01*
X284879343Y-133743197D01*
X284864828Y-133793271D01*
X284690657Y-133993569D01*
X284879343Y-133993569D01*
X284980943Y-133643049D02*
X285169629Y-133643049D01*
X285068029Y-133776580D01*
X285111571Y-133776580D01*
X285140600Y-133793271D01*
X285155114Y-133809963D01*
X285169629Y-133843346D01*
X285169629Y-133926803D01*
X285155114Y-133960186D01*
X285140600Y-133976877D01*
X285111571Y-133993569D01*
X285024486Y-133993569D01*
X284995457Y-133976877D01*
X284980943Y-133960186D01*
X285295186Y-123935943D02*
X285311877Y-123950457D01*
X285328569Y-123994000D01*
X285328569Y-124023029D01*
X285311877Y-124066572D01*
X285278494Y-124095600D01*
X285245111Y-124110115D01*
X285178346Y-124124629D01*
X285128271Y-124124629D01*
X285061506Y-124110115D01*
X285028123Y-124095600D01*
X284994740Y-124066572D01*
X284978049Y-124023029D01*
X284978049Y-123994000D01*
X284994740Y-123950457D01*
X285011431Y-123935943D01*
X285011431Y-123819829D02*
X284994740Y-123805315D01*
X284978049Y-123776286D01*
X284978049Y-123703715D01*
X284994740Y-123674686D01*
X285011431Y-123660172D01*
X285044814Y-123645657D01*
X285078197Y-123645657D01*
X285128271Y-123660172D01*
X285328569Y-123834343D01*
X285328569Y-123645657D01*
X285011431Y-123529543D02*
X284994740Y-123515029D01*
X284978049Y-123486000D01*
X284978049Y-123413429D01*
X284994740Y-123384400D01*
X285011431Y-123369886D01*
X285044814Y-123355371D01*
X285078197Y-123355371D01*
X285128271Y-123369886D01*
X285328569Y-123544057D01*
X285328569Y-123355371D01*
X298860186Y-114275943D02*
X298876877Y-114290457D01*
X298893569Y-114334000D01*
X298893569Y-114363029D01*
X298876877Y-114406572D01*
X298843494Y-114435600D01*
X298810111Y-114450115D01*
X298743346Y-114464629D01*
X298693271Y-114464629D01*
X298626506Y-114450115D01*
X298593123Y-114435600D01*
X298559740Y-114406572D01*
X298543049Y-114363029D01*
X298543049Y-114334000D01*
X298559740Y-114290457D01*
X298576431Y-114275943D01*
X298893569Y-113985657D02*
X298893569Y-114159829D01*
X298893569Y-114072743D02*
X298543049Y-114072743D01*
X298593123Y-114101772D01*
X298626506Y-114130800D01*
X298643197Y-114159829D01*
X298543049Y-113796971D02*
X298543049Y-113767943D01*
X298559740Y-113738914D01*
X298576431Y-113724400D01*
X298609814Y-113709886D01*
X298676580Y-113695371D01*
X298760037Y-113695371D01*
X298826803Y-113709886D01*
X298860186Y-113724400D01*
X298876877Y-113738914D01*
X298893569Y-113767943D01*
X298893569Y-113796971D01*
X298876877Y-113826000D01*
X298860186Y-113840514D01*
X298826803Y-113855029D01*
X298760037Y-113869543D01*
X298676580Y-113869543D01*
X298609814Y-113855029D01*
X298576431Y-113840514D01*
X298559740Y-113826000D01*
X298543049Y-113796971D01*
X284249200Y-117655186D02*
X284234686Y-117671877D01*
X284191143Y-117688569D01*
X284162114Y-117688569D01*
X284118571Y-117671877D01*
X284089543Y-117638494D01*
X284075028Y-117605111D01*
X284060514Y-117538346D01*
X284060514Y-117488271D01*
X284075028Y-117421506D01*
X284089543Y-117388123D01*
X284118571Y-117354740D01*
X284162114Y-117338049D01*
X284191143Y-117338049D01*
X284234686Y-117354740D01*
X284249200Y-117371431D01*
X284350800Y-117338049D02*
X284539486Y-117338049D01*
X284437886Y-117471580D01*
X284481428Y-117471580D01*
X284510457Y-117488271D01*
X284524971Y-117504963D01*
X284539486Y-117538346D01*
X284539486Y-117621803D01*
X284524971Y-117655186D01*
X284510457Y-117671877D01*
X284481428Y-117688569D01*
X284394343Y-117688569D01*
X284365314Y-117671877D01*
X284350800Y-117655186D01*
D22*
X279979810Y-116146200D02*
X279979810Y-116363914D01*
X279471810Y-116363914D01*
X279520190Y-116015571D02*
X279496000Y-115993800D01*
X279471810Y-115950257D01*
X279471810Y-115841400D01*
X279496000Y-115797857D01*
X279520190Y-115776086D01*
X279568571Y-115754314D01*
X279616952Y-115754314D01*
X279689524Y-115776086D01*
X279979810Y-116037343D01*
X279979810Y-115754314D01*
D12*
X281736548Y-116268690D02*
X281736548Y-116673452D01*
X281760357Y-116721071D01*
X281784167Y-116744881D01*
X281831786Y-116768690D01*
X281927024Y-116768690D01*
X281974643Y-116744881D01*
X281998452Y-116721071D01*
X282022262Y-116673452D01*
X282022262Y-116268690D01*
X282236548Y-116316310D02*
X282260358Y-116292500D01*
X282307977Y-116268690D01*
X282427024Y-116268690D01*
X282474643Y-116292500D01*
X282498453Y-116316310D01*
X282522262Y-116363929D01*
X282522262Y-116411548D01*
X282498453Y-116482976D01*
X282212739Y-116768690D01*
X282522262Y-116768690D01*
D17*
X281192686Y-114688443D02*
X281209377Y-114702957D01*
X281226069Y-114746500D01*
X281226069Y-114775529D01*
X281209377Y-114819072D01*
X281175994Y-114848100D01*
X281142611Y-114862615D01*
X281075846Y-114877129D01*
X281025771Y-114877129D01*
X280959006Y-114862615D01*
X280925623Y-114848100D01*
X280892240Y-114819072D01*
X280875549Y-114775529D01*
X280875549Y-114746500D01*
X280892240Y-114702957D01*
X280908931Y-114688443D01*
X281226069Y-114398157D02*
X281226069Y-114572329D01*
X281226069Y-114485243D02*
X280875549Y-114485243D01*
X280925623Y-114514272D01*
X280959006Y-114543300D01*
X280975697Y-114572329D01*
X280875549Y-114296557D02*
X280875549Y-114107871D01*
X281009080Y-114209471D01*
X281009080Y-114165929D01*
X281025771Y-114136900D01*
X281042463Y-114122386D01*
X281075846Y-114107871D01*
X281159303Y-114107871D01*
X281192686Y-114122386D01*
X281209377Y-114136900D01*
X281226069Y-114165929D01*
X281226069Y-114253014D01*
X281209377Y-114282043D01*
X281192686Y-114296557D01*
X285119200Y-122205186D02*
X285104686Y-122221877D01*
X285061143Y-122238569D01*
X285032114Y-122238569D01*
X284988571Y-122221877D01*
X284959543Y-122188494D01*
X284945028Y-122155111D01*
X284930514Y-122088346D01*
X284930514Y-122038271D01*
X284945028Y-121971506D01*
X284959543Y-121938123D01*
X284988571Y-121904740D01*
X285032114Y-121888049D01*
X285061143Y-121888049D01*
X285104686Y-121904740D01*
X285119200Y-121921431D01*
X285409486Y-122238569D02*
X285235314Y-122238569D01*
X285322400Y-122238569D02*
X285322400Y-121888049D01*
X285293371Y-121938123D01*
X285264343Y-121971506D01*
X285235314Y-121988197D01*
X280489057Y-121605186D02*
X280474543Y-121621877D01*
X280431000Y-121638569D01*
X280401971Y-121638569D01*
X280358428Y-121621877D01*
X280329400Y-121588494D01*
X280314885Y-121555111D01*
X280300371Y-121488346D01*
X280300371Y-121438271D01*
X280314885Y-121371506D01*
X280329400Y-121338123D01*
X280358428Y-121304740D01*
X280401971Y-121288049D01*
X280431000Y-121288049D01*
X280474543Y-121304740D01*
X280489057Y-121321431D01*
X280750314Y-121404889D02*
X280750314Y-121638569D01*
X280677743Y-121271357D02*
X280605171Y-121521729D01*
X280793857Y-121521729D01*
X280968029Y-121288049D02*
X280997057Y-121288049D01*
X281026086Y-121304740D01*
X281040600Y-121321431D01*
X281055114Y-121354814D01*
X281069629Y-121421580D01*
X281069629Y-121505037D01*
X281055114Y-121571803D01*
X281040600Y-121605186D01*
X281026086Y-121621877D01*
X280997057Y-121638569D01*
X280968029Y-121638569D01*
X280939000Y-121621877D01*
X280924486Y-121605186D01*
X280909971Y-121571803D01*
X280895457Y-121505037D01*
X280895457Y-121421580D01*
X280909971Y-121354814D01*
X280924486Y-121321431D01*
X280939000Y-121304740D01*
X280968029Y-121288049D01*
X282118569Y-120165943D02*
X281951654Y-120267543D01*
X282118569Y-120340115D02*
X281768049Y-120340115D01*
X281768049Y-120224000D01*
X281784740Y-120194972D01*
X281801431Y-120180457D01*
X281834814Y-120165943D01*
X281884889Y-120165943D01*
X281918271Y-120180457D01*
X281934963Y-120194972D01*
X281951654Y-120224000D01*
X281951654Y-120340115D01*
X281801431Y-120049829D02*
X281784740Y-120035315D01*
X281768049Y-120006286D01*
X281768049Y-119933715D01*
X281784740Y-119904686D01*
X281801431Y-119890172D01*
X281834814Y-119875657D01*
X281868197Y-119875657D01*
X281918271Y-119890172D01*
X282118569Y-120064343D01*
X282118569Y-119875657D01*
X282118569Y-119585371D02*
X282118569Y-119759543D01*
X282118569Y-119672457D02*
X281768049Y-119672457D01*
X281818123Y-119701486D01*
X281851506Y-119730514D01*
X281868197Y-119759543D01*
X286414057Y-133935186D02*
X286399543Y-133951877D01*
X286356000Y-133968569D01*
X286326971Y-133968569D01*
X286283428Y-133951877D01*
X286254400Y-133918494D01*
X286239885Y-133885111D01*
X286225371Y-133818346D01*
X286225371Y-133768271D01*
X286239885Y-133701506D01*
X286254400Y-133668123D01*
X286283428Y-133634740D01*
X286326971Y-133618049D01*
X286356000Y-133618049D01*
X286399543Y-133634740D01*
X286414057Y-133651431D01*
X286530171Y-133651431D02*
X286544685Y-133634740D01*
X286573714Y-133618049D01*
X286646285Y-133618049D01*
X286675314Y-133634740D01*
X286689828Y-133651431D01*
X286704343Y-133684814D01*
X286704343Y-133718197D01*
X286689828Y-133768271D01*
X286515657Y-133968569D01*
X286704343Y-133968569D01*
X286965600Y-133618049D02*
X286907543Y-133618049D01*
X286878514Y-133634740D01*
X286864000Y-133651431D01*
X286834971Y-133701506D01*
X286820457Y-133768271D01*
X286820457Y-133901803D01*
X286834971Y-133935186D01*
X286849486Y-133951877D01*
X286878514Y-133968569D01*
X286936571Y-133968569D01*
X286965600Y-133951877D01*
X286980114Y-133935186D01*
X286994629Y-133901803D01*
X286994629Y-133818346D01*
X286980114Y-133784963D01*
X286965600Y-133768271D01*
X286936571Y-133751580D01*
X286878514Y-133751580D01*
X286849486Y-133768271D01*
X286834971Y-133784963D01*
X286820457Y-133818346D01*
X279306700Y-118572686D02*
X279292186Y-118589377D01*
X279248643Y-118606069D01*
X279219614Y-118606069D01*
X279176071Y-118589377D01*
X279147043Y-118555994D01*
X279132528Y-118522611D01*
X279118014Y-118455846D01*
X279118014Y-118405771D01*
X279132528Y-118339006D01*
X279147043Y-118305623D01*
X279176071Y-118272240D01*
X279219614Y-118255549D01*
X279248643Y-118255549D01*
X279292186Y-118272240D01*
X279306700Y-118288931D01*
X279422814Y-118288931D02*
X279437328Y-118272240D01*
X279466357Y-118255549D01*
X279538928Y-118255549D01*
X279567957Y-118272240D01*
X279582471Y-118288931D01*
X279596986Y-118322314D01*
X279596986Y-118355697D01*
X279582471Y-118405771D01*
X279408300Y-118606069D01*
X279596986Y-118606069D01*
X278631557Y-122342686D02*
X278617043Y-122359377D01*
X278573500Y-122376069D01*
X278544471Y-122376069D01*
X278500928Y-122359377D01*
X278471900Y-122325994D01*
X278457385Y-122292611D01*
X278442871Y-122225846D01*
X278442871Y-122175771D01*
X278457385Y-122109006D01*
X278471900Y-122075623D01*
X278500928Y-122042240D01*
X278544471Y-122025549D01*
X278573500Y-122025549D01*
X278617043Y-122042240D01*
X278631557Y-122058931D01*
X278733157Y-122025549D02*
X278921843Y-122025549D01*
X278820243Y-122159080D01*
X278863785Y-122159080D01*
X278892814Y-122175771D01*
X278907328Y-122192463D01*
X278921843Y-122225846D01*
X278921843Y-122309303D01*
X278907328Y-122342686D01*
X278892814Y-122359377D01*
X278863785Y-122376069D01*
X278776700Y-122376069D01*
X278747671Y-122359377D01*
X278733157Y-122342686D01*
X279066986Y-122376069D02*
X279125043Y-122376069D01*
X279154071Y-122359377D01*
X279168586Y-122342686D01*
X279197614Y-122292611D01*
X279212129Y-122225846D01*
X279212129Y-122092314D01*
X279197614Y-122058931D01*
X279183100Y-122042240D01*
X279154071Y-122025549D01*
X279096014Y-122025549D01*
X279066986Y-122042240D01*
X279052471Y-122058931D01*
X279037957Y-122092314D01*
X279037957Y-122175771D01*
X279052471Y-122209154D01*
X279066986Y-122225846D01*
X279096014Y-122242537D01*
X279154071Y-122242537D01*
X279183100Y-122225846D01*
X279197614Y-122209154D01*
X279212129Y-122175771D01*
X289080169Y-121859983D02*
X288913254Y-121961583D01*
X289080169Y-122034155D02*
X288729649Y-122034155D01*
X288729649Y-121918040D01*
X288746340Y-121889012D01*
X288763031Y-121874497D01*
X288796414Y-121859983D01*
X288846489Y-121859983D01*
X288879871Y-121874497D01*
X288896563Y-121889012D01*
X288913254Y-121918040D01*
X288913254Y-122034155D01*
X289080169Y-121569697D02*
X289080169Y-121743869D01*
X289080169Y-121656783D02*
X288729649Y-121656783D01*
X288779723Y-121685812D01*
X288813106Y-121714840D01*
X288829797Y-121743869D01*
X288729649Y-121468097D02*
X288729649Y-121264897D01*
X289080169Y-121395526D01*
X287185317Y-116310709D02*
X287083717Y-116143794D01*
X287011145Y-116310709D02*
X287011145Y-115960189D01*
X287127260Y-115960189D01*
X287156288Y-115976880D01*
X287170803Y-115993571D01*
X287185317Y-116026954D01*
X287185317Y-116077029D01*
X287170803Y-116110411D01*
X287156288Y-116127103D01*
X287127260Y-116143794D01*
X287011145Y-116143794D01*
X287475603Y-116310709D02*
X287301431Y-116310709D01*
X287388517Y-116310709D02*
X287388517Y-115960189D01*
X287359488Y-116010263D01*
X287330460Y-116043646D01*
X287301431Y-116060337D01*
X287736860Y-116077029D02*
X287736860Y-116310709D01*
X287664289Y-115943497D02*
X287591717Y-116193869D01*
X287780403Y-116193869D01*
X282543697Y-118735169D02*
X282442097Y-118568254D01*
X282369525Y-118735169D02*
X282369525Y-118384649D01*
X282485640Y-118384649D01*
X282514668Y-118401340D01*
X282529183Y-118418031D01*
X282543697Y-118451414D01*
X282543697Y-118501489D01*
X282529183Y-118534871D01*
X282514668Y-118551563D01*
X282485640Y-118568254D01*
X282369525Y-118568254D01*
X282833983Y-118735169D02*
X282659811Y-118735169D01*
X282746897Y-118735169D02*
X282746897Y-118384649D01*
X282717868Y-118434723D01*
X282688840Y-118468106D01*
X282659811Y-118484797D01*
X283095240Y-118384649D02*
X283037183Y-118384649D01*
X283008154Y-118401340D01*
X282993640Y-118418031D01*
X282964611Y-118468106D01*
X282950097Y-118534871D01*
X282950097Y-118668403D01*
X282964611Y-118701786D01*
X282979126Y-118718477D01*
X283008154Y-118735169D01*
X283066211Y-118735169D01*
X283095240Y-118718477D01*
X283109754Y-118701786D01*
X283124269Y-118668403D01*
X283124269Y-118584946D01*
X283109754Y-118551563D01*
X283095240Y-118534871D01*
X283066211Y-118518180D01*
X283008154Y-118518180D01*
X282979126Y-118534871D01*
X282964611Y-118551563D01*
X282950097Y-118584946D01*
X285885317Y-116240709D02*
X285783717Y-116073794D01*
X285711145Y-116240709D02*
X285711145Y-115890189D01*
X285827260Y-115890189D01*
X285856288Y-115906880D01*
X285870803Y-115923571D01*
X285885317Y-115956954D01*
X285885317Y-116007029D01*
X285870803Y-116040411D01*
X285856288Y-116057103D01*
X285827260Y-116073794D01*
X285711145Y-116073794D01*
X286175603Y-116240709D02*
X286001431Y-116240709D01*
X286088517Y-116240709D02*
X286088517Y-115890189D01*
X286059488Y-115940263D01*
X286030460Y-115973646D01*
X286001431Y-115990337D01*
X286451374Y-115890189D02*
X286306231Y-115890189D01*
X286291717Y-116057103D01*
X286306231Y-116040411D01*
X286335260Y-116023720D01*
X286407831Y-116023720D01*
X286436860Y-116040411D01*
X286451374Y-116057103D01*
X286465889Y-116090486D01*
X286465889Y-116173943D01*
X286451374Y-116207326D01*
X286436860Y-116224017D01*
X286407831Y-116240709D01*
X286335260Y-116240709D01*
X286306231Y-116224017D01*
X286291717Y-116207326D01*
X288319657Y-123322409D02*
X288218057Y-123155494D01*
X288145485Y-123322409D02*
X288145485Y-122971889D01*
X288261600Y-122971889D01*
X288290628Y-122988580D01*
X288305143Y-123005271D01*
X288319657Y-123038654D01*
X288319657Y-123088729D01*
X288305143Y-123122111D01*
X288290628Y-123138803D01*
X288261600Y-123155494D01*
X288145485Y-123155494D01*
X288609943Y-123322409D02*
X288435771Y-123322409D01*
X288522857Y-123322409D02*
X288522857Y-122971889D01*
X288493828Y-123021963D01*
X288464800Y-123055346D01*
X288435771Y-123072037D01*
X288784114Y-123122111D02*
X288755086Y-123105420D01*
X288740571Y-123088729D01*
X288726057Y-123055346D01*
X288726057Y-123038654D01*
X288740571Y-123005271D01*
X288755086Y-122988580D01*
X288784114Y-122971889D01*
X288842171Y-122971889D01*
X288871200Y-122988580D01*
X288885714Y-123005271D01*
X288900229Y-123038654D01*
X288900229Y-123055346D01*
X288885714Y-123088729D01*
X288871200Y-123105420D01*
X288842171Y-123122111D01*
X288784114Y-123122111D01*
X288755086Y-123138803D01*
X288740571Y-123155494D01*
X288726057Y-123188877D01*
X288726057Y-123255643D01*
X288740571Y-123289026D01*
X288755086Y-123305717D01*
X288784114Y-123322409D01*
X288842171Y-123322409D01*
X288871200Y-123305717D01*
X288885714Y-123289026D01*
X288900229Y-123255643D01*
X288900229Y-123188877D01*
X288885714Y-123155494D01*
X288871200Y-123138803D01*
X288842171Y-123122111D01*
D12*
X287120393Y-123042990D02*
X287120393Y-122542990D01*
X287239440Y-122542990D01*
X287310869Y-122566800D01*
X287358488Y-122614419D01*
X287382297Y-122662038D01*
X287406107Y-122757276D01*
X287406107Y-122828705D01*
X287382297Y-122923943D01*
X287358488Y-122971562D01*
X287310869Y-123019181D01*
X287239440Y-123042990D01*
X287120393Y-123042990D01*
X287834678Y-122709657D02*
X287834678Y-123042990D01*
X287715631Y-122519181D02*
X287596583Y-122876324D01*
X287906107Y-122876324D01*
X285105710Y-118980007D02*
X284605710Y-118980007D01*
X284605710Y-118860960D01*
X284629520Y-118789531D01*
X284677139Y-118741912D01*
X284724758Y-118718103D01*
X284819996Y-118694293D01*
X284891425Y-118694293D01*
X284986663Y-118718103D01*
X285034282Y-118741912D01*
X285081901Y-118789531D01*
X285105710Y-118860960D01*
X285105710Y-118980007D01*
X284605710Y-118527626D02*
X284605710Y-118218103D01*
X284796187Y-118384769D01*
X284796187Y-118313341D01*
X284819996Y-118265722D01*
X284843806Y-118241912D01*
X284891425Y-118218103D01*
X285010472Y-118218103D01*
X285058091Y-118241912D01*
X285081901Y-118265722D01*
X285105710Y-118313341D01*
X285105710Y-118456198D01*
X285081901Y-118503817D01*
X285058091Y-118527626D01*
X273790873Y-131421510D02*
X273790873Y-130921510D01*
X273909920Y-130921510D01*
X273981349Y-130945320D01*
X274028968Y-130992939D01*
X274052777Y-131040558D01*
X274076587Y-131135796D01*
X274076587Y-131207225D01*
X274052777Y-131302463D01*
X274028968Y-131350082D01*
X273981349Y-131397701D01*
X273909920Y-131421510D01*
X273790873Y-131421510D01*
X274267063Y-130969130D02*
X274290873Y-130945320D01*
X274338492Y-130921510D01*
X274457539Y-130921510D01*
X274505158Y-130945320D01*
X274528968Y-130969130D01*
X274552777Y-131016749D01*
X274552777Y-131064368D01*
X274528968Y-131135796D01*
X274243254Y-131421510D01*
X274552777Y-131421510D01*
D17*
X282593569Y-132775943D02*
X282426654Y-132877543D01*
X282593569Y-132950115D02*
X282243049Y-132950115D01*
X282243049Y-132834000D01*
X282259740Y-132804972D01*
X282276431Y-132790457D01*
X282309814Y-132775943D01*
X282359889Y-132775943D01*
X282393271Y-132790457D01*
X282409963Y-132804972D01*
X282426654Y-132834000D01*
X282426654Y-132950115D01*
X282276431Y-132659829D02*
X282259740Y-132645315D01*
X282243049Y-132616286D01*
X282243049Y-132543715D01*
X282259740Y-132514686D01*
X282276431Y-132500172D01*
X282309814Y-132485657D01*
X282343197Y-132485657D01*
X282393271Y-132500172D01*
X282593569Y-132674343D01*
X282593569Y-132485657D01*
X282243049Y-132296971D02*
X282243049Y-132267943D01*
X282259740Y-132238914D01*
X282276431Y-132224400D01*
X282309814Y-132209886D01*
X282376580Y-132195371D01*
X282460037Y-132195371D01*
X282526803Y-132209886D01*
X282560186Y-132224400D01*
X282576877Y-132238914D01*
X282593569Y-132267943D01*
X282593569Y-132296971D01*
X282576877Y-132326000D01*
X282560186Y-132340514D01*
X282526803Y-132355029D01*
X282460037Y-132369543D01*
X282376580Y-132369543D01*
X282309814Y-132355029D01*
X282276431Y-132340514D01*
X282259740Y-132326000D01*
X282243049Y-132296971D01*
X282598569Y-133685943D02*
X282431654Y-133787543D01*
X282598569Y-133860115D02*
X282248049Y-133860115D01*
X282248049Y-133744000D01*
X282264740Y-133714972D01*
X282281431Y-133700457D01*
X282314814Y-133685943D01*
X282364889Y-133685943D01*
X282398271Y-133700457D01*
X282414963Y-133714972D01*
X282431654Y-133744000D01*
X282431654Y-133860115D01*
X282598569Y-133395657D02*
X282598569Y-133569829D01*
X282598569Y-133482743D02*
X282248049Y-133482743D01*
X282298123Y-133511772D01*
X282331506Y-133540800D01*
X282348197Y-133569829D01*
X282598569Y-133250514D02*
X282598569Y-133192457D01*
X282581877Y-133163429D01*
X282565186Y-133148914D01*
X282515111Y-133119886D01*
X282448346Y-133105371D01*
X282314814Y-133105371D01*
X282281431Y-133119886D01*
X282264740Y-133134400D01*
X282248049Y-133163429D01*
X282248049Y-133221486D01*
X282264740Y-133250514D01*
X282281431Y-133265029D01*
X282314814Y-133279543D01*
X282398271Y-133279543D01*
X282431654Y-133265029D01*
X282448346Y-133250514D01*
X282465037Y-133221486D01*
X282465037Y-133163429D01*
X282448346Y-133134400D01*
X282431654Y-133119886D01*
X282398271Y-133105371D01*
X285514057Y-133935186D02*
X285499543Y-133951877D01*
X285456000Y-133968569D01*
X285426971Y-133968569D01*
X285383428Y-133951877D01*
X285354400Y-133918494D01*
X285339885Y-133885111D01*
X285325371Y-133818346D01*
X285325371Y-133768271D01*
X285339885Y-133701506D01*
X285354400Y-133668123D01*
X285383428Y-133634740D01*
X285426971Y-133618049D01*
X285456000Y-133618049D01*
X285499543Y-133634740D01*
X285514057Y-133651431D01*
X285630171Y-133651431D02*
X285644685Y-133634740D01*
X285673714Y-133618049D01*
X285746285Y-133618049D01*
X285775314Y-133634740D01*
X285789828Y-133651431D01*
X285804343Y-133684814D01*
X285804343Y-133718197D01*
X285789828Y-133768271D01*
X285615657Y-133968569D01*
X285804343Y-133968569D01*
X286094629Y-133968569D02*
X285920457Y-133968569D01*
X286007543Y-133968569D02*
X286007543Y-133618049D01*
X285978514Y-133668123D01*
X285949486Y-133701506D01*
X285920457Y-133718197D01*
X274144057Y-121643569D02*
X274042457Y-121476654D01*
X273969885Y-121643569D02*
X273969885Y-121293049D01*
X274086000Y-121293049D01*
X274115028Y-121309740D01*
X274129543Y-121326431D01*
X274144057Y-121359814D01*
X274144057Y-121409889D01*
X274129543Y-121443271D01*
X274115028Y-121459963D01*
X274086000Y-121476654D01*
X273969885Y-121476654D01*
X274434343Y-121643569D02*
X274260171Y-121643569D01*
X274347257Y-121643569D02*
X274347257Y-121293049D01*
X274318228Y-121343123D01*
X274289200Y-121376506D01*
X274260171Y-121393197D01*
X274550457Y-121326431D02*
X274564971Y-121309740D01*
X274594000Y-121293049D01*
X274666571Y-121293049D01*
X274695600Y-121309740D01*
X274710114Y-121326431D01*
X274724629Y-121359814D01*
X274724629Y-121393197D01*
X274710114Y-121443271D01*
X274535943Y-121643569D01*
X274724629Y-121643569D01*
X272814057Y-125658569D02*
X272712457Y-125491654D01*
X272639885Y-125658569D02*
X272639885Y-125308049D01*
X272756000Y-125308049D01*
X272785028Y-125324740D01*
X272799543Y-125341431D01*
X272814057Y-125374814D01*
X272814057Y-125424889D01*
X272799543Y-125458271D01*
X272785028Y-125474963D01*
X272756000Y-125491654D01*
X272639885Y-125491654D01*
X273104343Y-125658569D02*
X272930171Y-125658569D01*
X273017257Y-125658569D02*
X273017257Y-125308049D01*
X272988228Y-125358123D01*
X272959200Y-125391506D01*
X272930171Y-125408197D01*
X273394629Y-125658569D02*
X273220457Y-125658569D01*
X273307543Y-125658569D02*
X273307543Y-125308049D01*
X273278514Y-125358123D01*
X273249486Y-125391506D01*
X273220457Y-125408197D01*
X269164057Y-119535186D02*
X269149543Y-119551877D01*
X269106000Y-119568569D01*
X269076971Y-119568569D01*
X269033428Y-119551877D01*
X269004400Y-119518494D01*
X268989885Y-119485111D01*
X268975371Y-119418346D01*
X268975371Y-119368271D01*
X268989885Y-119301506D01*
X269004400Y-119268123D01*
X269033428Y-119234740D01*
X269076971Y-119218049D01*
X269106000Y-119218049D01*
X269149543Y-119234740D01*
X269164057Y-119251431D01*
X269265657Y-119218049D02*
X269454343Y-119218049D01*
X269352743Y-119351580D01*
X269396285Y-119351580D01*
X269425314Y-119368271D01*
X269439828Y-119384963D01*
X269454343Y-119418346D01*
X269454343Y-119501803D01*
X269439828Y-119535186D01*
X269425314Y-119551877D01*
X269396285Y-119568569D01*
X269309200Y-119568569D01*
X269280171Y-119551877D01*
X269265657Y-119535186D01*
X269715600Y-119218049D02*
X269657543Y-119218049D01*
X269628514Y-119234740D01*
X269614000Y-119251431D01*
X269584971Y-119301506D01*
X269570457Y-119368271D01*
X269570457Y-119501803D01*
X269584971Y-119535186D01*
X269599486Y-119551877D01*
X269628514Y-119568569D01*
X269686571Y-119568569D01*
X269715600Y-119551877D01*
X269730114Y-119535186D01*
X269744629Y-119501803D01*
X269744629Y-119418346D01*
X269730114Y-119384963D01*
X269715600Y-119368271D01*
X269686571Y-119351580D01*
X269628514Y-119351580D01*
X269599486Y-119368271D01*
X269584971Y-119384963D01*
X269570457Y-119418346D01*
X273437686Y-119053443D02*
X273454377Y-119067957D01*
X273471069Y-119111500D01*
X273471069Y-119140529D01*
X273454377Y-119184072D01*
X273420994Y-119213100D01*
X273387611Y-119227615D01*
X273320846Y-119242129D01*
X273270771Y-119242129D01*
X273204006Y-119227615D01*
X273170623Y-119213100D01*
X273137240Y-119184072D01*
X273120549Y-119140529D01*
X273120549Y-119111500D01*
X273137240Y-119067957D01*
X273153931Y-119053443D01*
X273120549Y-118951843D02*
X273120549Y-118763157D01*
X273254080Y-118864757D01*
X273254080Y-118821215D01*
X273270771Y-118792186D01*
X273287463Y-118777672D01*
X273320846Y-118763157D01*
X273404303Y-118763157D01*
X273437686Y-118777672D01*
X273454377Y-118792186D01*
X273471069Y-118821215D01*
X273471069Y-118908300D01*
X273454377Y-118937329D01*
X273437686Y-118951843D01*
X273120549Y-118487386D02*
X273120549Y-118632529D01*
X273287463Y-118647043D01*
X273270771Y-118632529D01*
X273254080Y-118603500D01*
X273254080Y-118530929D01*
X273270771Y-118501900D01*
X273287463Y-118487386D01*
X273320846Y-118472871D01*
X273404303Y-118472871D01*
X273437686Y-118487386D01*
X273454377Y-118501900D01*
X273471069Y-118530929D01*
X273471069Y-118603500D01*
X273454377Y-118632529D01*
X273437686Y-118647043D01*
D12*
X279243334Y-127274286D02*
X279076668Y-127274286D01*
X279076668Y-127536190D02*
X279076668Y-127036190D01*
X279314763Y-127036190D01*
X279767143Y-127536190D02*
X279481429Y-127536190D01*
X279624286Y-127536190D02*
X279624286Y-127036190D01*
X279576667Y-127107619D01*
X279529048Y-127155238D01*
X279481429Y-127179048D01*
D17*
X276754057Y-129205186D02*
X276739543Y-129221877D01*
X276696000Y-129238569D01*
X276666971Y-129238569D01*
X276623428Y-129221877D01*
X276594400Y-129188494D01*
X276579885Y-129155111D01*
X276565371Y-129088346D01*
X276565371Y-129038271D01*
X276579885Y-128971506D01*
X276594400Y-128938123D01*
X276623428Y-128904740D01*
X276666971Y-128888049D01*
X276696000Y-128888049D01*
X276739543Y-128904740D01*
X276754057Y-128921431D01*
X276855657Y-128888049D02*
X277044343Y-128888049D01*
X276942743Y-129021580D01*
X276986285Y-129021580D01*
X277015314Y-129038271D01*
X277029828Y-129054963D01*
X277044343Y-129088346D01*
X277044343Y-129171803D01*
X277029828Y-129205186D01*
X277015314Y-129221877D01*
X276986285Y-129238569D01*
X276899200Y-129238569D01*
X276870171Y-129221877D01*
X276855657Y-129205186D01*
X277305600Y-129004889D02*
X277305600Y-129238569D01*
X277233029Y-128871357D02*
X277160457Y-129121729D01*
X277349143Y-129121729D01*
X279814057Y-133915186D02*
X279799543Y-133931877D01*
X279756000Y-133948569D01*
X279726971Y-133948569D01*
X279683428Y-133931877D01*
X279654400Y-133898494D01*
X279639885Y-133865111D01*
X279625371Y-133798346D01*
X279625371Y-133748271D01*
X279639885Y-133681506D01*
X279654400Y-133648123D01*
X279683428Y-133614740D01*
X279726971Y-133598049D01*
X279756000Y-133598049D01*
X279799543Y-133614740D01*
X279814057Y-133631431D01*
X279915657Y-133598049D02*
X280104343Y-133598049D01*
X280002743Y-133731580D01*
X280046285Y-133731580D01*
X280075314Y-133748271D01*
X280089828Y-133764963D01*
X280104343Y-133798346D01*
X280104343Y-133881803D01*
X280089828Y-133915186D01*
X280075314Y-133931877D01*
X280046285Y-133948569D01*
X279959200Y-133948569D01*
X279930171Y-133931877D01*
X279915657Y-133915186D01*
X280205943Y-133598049D02*
X280394629Y-133598049D01*
X280293029Y-133731580D01*
X280336571Y-133731580D01*
X280365600Y-133748271D01*
X280380114Y-133764963D01*
X280394629Y-133798346D01*
X280394629Y-133881803D01*
X280380114Y-133915186D01*
X280365600Y-133931877D01*
X280336571Y-133948569D01*
X280249486Y-133948569D01*
X280220457Y-133931877D01*
X280205943Y-133915186D01*
X307633569Y-121650800D02*
X307466654Y-121752400D01*
X307633569Y-121824972D02*
X307283049Y-121824972D01*
X307283049Y-121708857D01*
X307299740Y-121679829D01*
X307316431Y-121665314D01*
X307349814Y-121650800D01*
X307399889Y-121650800D01*
X307433271Y-121665314D01*
X307449963Y-121679829D01*
X307466654Y-121708857D01*
X307466654Y-121824972D01*
X307633569Y-121505657D02*
X307633569Y-121447600D01*
X307616877Y-121418572D01*
X307600186Y-121404057D01*
X307550111Y-121375029D01*
X307483346Y-121360514D01*
X307349814Y-121360514D01*
X307316431Y-121375029D01*
X307299740Y-121389543D01*
X307283049Y-121418572D01*
X307283049Y-121476629D01*
X307299740Y-121505657D01*
X307316431Y-121520172D01*
X307349814Y-121534686D01*
X307433271Y-121534686D01*
X307466654Y-121520172D01*
X307483346Y-121505657D01*
X307500037Y-121476629D01*
X307500037Y-121418572D01*
X307483346Y-121389543D01*
X307466654Y-121375029D01*
X307433271Y-121360514D01*
X307633569Y-124500800D02*
X307466654Y-124602400D01*
X307633569Y-124674972D02*
X307283049Y-124674972D01*
X307283049Y-124558857D01*
X307299740Y-124529829D01*
X307316431Y-124515314D01*
X307349814Y-124500800D01*
X307399889Y-124500800D01*
X307433271Y-124515314D01*
X307449963Y-124529829D01*
X307466654Y-124558857D01*
X307466654Y-124674972D01*
X307283049Y-124399200D02*
X307283049Y-124196000D01*
X307633569Y-124326629D01*
X307633569Y-123050800D02*
X307466654Y-123152400D01*
X307633569Y-123224972D02*
X307283049Y-123224972D01*
X307283049Y-123108857D01*
X307299740Y-123079829D01*
X307316431Y-123065314D01*
X307349814Y-123050800D01*
X307399889Y-123050800D01*
X307433271Y-123065314D01*
X307449963Y-123079829D01*
X307466654Y-123108857D01*
X307466654Y-123224972D01*
X307433271Y-122876629D02*
X307416580Y-122905657D01*
X307399889Y-122920172D01*
X307366506Y-122934686D01*
X307349814Y-122934686D01*
X307316431Y-122920172D01*
X307299740Y-122905657D01*
X307283049Y-122876629D01*
X307283049Y-122818572D01*
X307299740Y-122789543D01*
X307316431Y-122775029D01*
X307349814Y-122760514D01*
X307366506Y-122760514D01*
X307399889Y-122775029D01*
X307416580Y-122789543D01*
X307433271Y-122818572D01*
X307433271Y-122876629D01*
X307449963Y-122905657D01*
X307466654Y-122920172D01*
X307500037Y-122934686D01*
X307566803Y-122934686D01*
X307600186Y-122920172D01*
X307616877Y-122905657D01*
X307633569Y-122876629D01*
X307633569Y-122818572D01*
X307616877Y-122789543D01*
X307600186Y-122775029D01*
X307566803Y-122760514D01*
X307500037Y-122760514D01*
X307466654Y-122775029D01*
X307449963Y-122789543D01*
X307433271Y-122818572D01*
X307633569Y-120295943D02*
X307466654Y-120397543D01*
X307633569Y-120470115D02*
X307283049Y-120470115D01*
X307283049Y-120354000D01*
X307299740Y-120324972D01*
X307316431Y-120310457D01*
X307349814Y-120295943D01*
X307399889Y-120295943D01*
X307433271Y-120310457D01*
X307449963Y-120324972D01*
X307466654Y-120354000D01*
X307466654Y-120470115D01*
X307633569Y-120005657D02*
X307633569Y-120179829D01*
X307633569Y-120092743D02*
X307283049Y-120092743D01*
X307333123Y-120121772D01*
X307366506Y-120150800D01*
X307383197Y-120179829D01*
X307283049Y-119816971D02*
X307283049Y-119787943D01*
X307299740Y-119758914D01*
X307316431Y-119744400D01*
X307349814Y-119729886D01*
X307416580Y-119715371D01*
X307500037Y-119715371D01*
X307566803Y-119729886D01*
X307600186Y-119744400D01*
X307616877Y-119758914D01*
X307633569Y-119787943D01*
X307633569Y-119816971D01*
X307616877Y-119846000D01*
X307600186Y-119860514D01*
X307566803Y-119875029D01*
X307500037Y-119889543D01*
X307416580Y-119889543D01*
X307349814Y-119875029D01*
X307316431Y-119860514D01*
X307299740Y-119846000D01*
X307283049Y-119816971D01*
D23*
X294562858Y-114552857D02*
X294543810Y-114571905D01*
X294486667Y-114590952D01*
X294448572Y-114590952D01*
X294391429Y-114571905D01*
X294353334Y-114533810D01*
X294334286Y-114495714D01*
X294315238Y-114419524D01*
X294315238Y-114362381D01*
X294334286Y-114286190D01*
X294353334Y-114248095D01*
X294391429Y-114210000D01*
X294448572Y-114190952D01*
X294486667Y-114190952D01*
X294543810Y-114210000D01*
X294562858Y-114229048D01*
X294943810Y-114590952D02*
X294715238Y-114590952D01*
X294829524Y-114590952D02*
X294829524Y-114190952D01*
X294791429Y-114248095D01*
X294753334Y-114286190D01*
X294715238Y-114305238D01*
X295305714Y-114190952D02*
X295115238Y-114190952D01*
X295096190Y-114381429D01*
X295115238Y-114362381D01*
X295153333Y-114343333D01*
X295248571Y-114343333D01*
X295286667Y-114362381D01*
X295305714Y-114381429D01*
X295324762Y-114419524D01*
X295324762Y-114514762D01*
X295305714Y-114552857D01*
X295286667Y-114571905D01*
X295248571Y-114590952D01*
X295153333Y-114590952D01*
X295115238Y-114571905D01*
X295096190Y-114552857D01*
D17*
X302799200Y-114550186D02*
X302784686Y-114566877D01*
X302741143Y-114583569D01*
X302712114Y-114583569D01*
X302668571Y-114566877D01*
X302639543Y-114533494D01*
X302625028Y-114500111D01*
X302610514Y-114433346D01*
X302610514Y-114383271D01*
X302625028Y-114316506D01*
X302639543Y-114283123D01*
X302668571Y-114249740D01*
X302712114Y-114233049D01*
X302741143Y-114233049D01*
X302784686Y-114249740D01*
X302799200Y-114266431D01*
X303074971Y-114233049D02*
X302929828Y-114233049D01*
X302915314Y-114399963D01*
X302929828Y-114383271D01*
X302958857Y-114366580D01*
X303031428Y-114366580D01*
X303060457Y-114383271D01*
X303074971Y-114399963D01*
X303089486Y-114433346D01*
X303089486Y-114516803D01*
X303074971Y-114550186D01*
X303060457Y-114566877D01*
X303031428Y-114583569D01*
X302958857Y-114583569D01*
X302929828Y-114566877D01*
X302915314Y-114550186D01*
D10*
X303398810Y-129202381D02*
X303398810Y-128202381D01*
X304446429Y-129107143D02*
X304398810Y-129154762D01*
X304255953Y-129202381D01*
X304160715Y-129202381D01*
X304017857Y-129154762D01*
X303922619Y-129059524D01*
X303875000Y-128964286D01*
X303827381Y-128773810D01*
X303827381Y-128630952D01*
X303875000Y-128440476D01*
X303922619Y-128345238D01*
X304017857Y-128250000D01*
X304160715Y-128202381D01*
X304255953Y-128202381D01*
X304398810Y-128250000D01*
X304446429Y-128297619D01*
X305398810Y-129202381D02*
X304827381Y-129202381D01*
X305113095Y-129202381D02*
X305113095Y-128202381D01*
X305017857Y-128345238D01*
X304922619Y-128440476D01*
X304827381Y-128488095D01*
D17*
X294129057Y-131075186D02*
X294114543Y-131091877D01*
X294071000Y-131108569D01*
X294041971Y-131108569D01*
X293998428Y-131091877D01*
X293969400Y-131058494D01*
X293954885Y-131025111D01*
X293940371Y-130958346D01*
X293940371Y-130908271D01*
X293954885Y-130841506D01*
X293969400Y-130808123D01*
X293998428Y-130774740D01*
X294041971Y-130758049D01*
X294071000Y-130758049D01*
X294114543Y-130774740D01*
X294129057Y-130791431D01*
X294419343Y-131108569D02*
X294245171Y-131108569D01*
X294332257Y-131108569D02*
X294332257Y-130758049D01*
X294303228Y-130808123D01*
X294274200Y-130841506D01*
X294245171Y-130858197D01*
X294680600Y-130874889D02*
X294680600Y-131108569D01*
X294608029Y-130741357D02*
X294535457Y-130991729D01*
X294724143Y-130991729D01*
X294104057Y-133525186D02*
X294089543Y-133541877D01*
X294046000Y-133558569D01*
X294016971Y-133558569D01*
X293973428Y-133541877D01*
X293944400Y-133508494D01*
X293929885Y-133475111D01*
X293915371Y-133408346D01*
X293915371Y-133358271D01*
X293929885Y-133291506D01*
X293944400Y-133258123D01*
X293973428Y-133224740D01*
X294016971Y-133208049D01*
X294046000Y-133208049D01*
X294089543Y-133224740D01*
X294104057Y-133241431D01*
X294205657Y-133208049D02*
X294394343Y-133208049D01*
X294292743Y-133341580D01*
X294336285Y-133341580D01*
X294365314Y-133358271D01*
X294379828Y-133374963D01*
X294394343Y-133408346D01*
X294394343Y-133491803D01*
X294379828Y-133525186D01*
X294365314Y-133541877D01*
X294336285Y-133558569D01*
X294249200Y-133558569D01*
X294220171Y-133541877D01*
X294205657Y-133525186D01*
X294510457Y-133241431D02*
X294524971Y-133224740D01*
X294554000Y-133208049D01*
X294626571Y-133208049D01*
X294655600Y-133224740D01*
X294670114Y-133241431D01*
X294684629Y-133274814D01*
X294684629Y-133308197D01*
X294670114Y-133358271D01*
X294495943Y-133558569D01*
X294684629Y-133558569D01*
X296379057Y-115325186D02*
X296364543Y-115341877D01*
X296321000Y-115358569D01*
X296291971Y-115358569D01*
X296248428Y-115341877D01*
X296219400Y-115308494D01*
X296204885Y-115275111D01*
X296190371Y-115208346D01*
X296190371Y-115158271D01*
X296204885Y-115091506D01*
X296219400Y-115058123D01*
X296248428Y-115024740D01*
X296291971Y-115008049D01*
X296321000Y-115008049D01*
X296364543Y-115024740D01*
X296379057Y-115041431D01*
X296669343Y-115358569D02*
X296495171Y-115358569D01*
X296582257Y-115358569D02*
X296582257Y-115008049D01*
X296553228Y-115058123D01*
X296524200Y-115091506D01*
X296495171Y-115108197D01*
X296785457Y-115041431D02*
X296799971Y-115024740D01*
X296829000Y-115008049D01*
X296901571Y-115008049D01*
X296930600Y-115024740D01*
X296945114Y-115041431D01*
X296959629Y-115074814D01*
X296959629Y-115108197D01*
X296945114Y-115158271D01*
X296770943Y-115358569D01*
X296959629Y-115358569D01*
X301604057Y-114550186D02*
X301589543Y-114566877D01*
X301546000Y-114583569D01*
X301516971Y-114583569D01*
X301473428Y-114566877D01*
X301444400Y-114533494D01*
X301429885Y-114500111D01*
X301415371Y-114433346D01*
X301415371Y-114383271D01*
X301429885Y-114316506D01*
X301444400Y-114283123D01*
X301473428Y-114249740D01*
X301516971Y-114233049D01*
X301546000Y-114233049D01*
X301589543Y-114249740D01*
X301604057Y-114266431D01*
X301705657Y-114233049D02*
X301894343Y-114233049D01*
X301792743Y-114366580D01*
X301836285Y-114366580D01*
X301865314Y-114383271D01*
X301879828Y-114399963D01*
X301894343Y-114433346D01*
X301894343Y-114516803D01*
X301879828Y-114550186D01*
X301865314Y-114566877D01*
X301836285Y-114583569D01*
X301749200Y-114583569D01*
X301720171Y-114566877D01*
X301705657Y-114550186D01*
X302184629Y-114583569D02*
X302010457Y-114583569D01*
X302097543Y-114583569D02*
X302097543Y-114233049D01*
X302068514Y-114283123D01*
X302039486Y-114316506D01*
X302010457Y-114333197D01*
X290979057Y-128800186D02*
X290964543Y-128816877D01*
X290921000Y-128833569D01*
X290891971Y-128833569D01*
X290848428Y-128816877D01*
X290819400Y-128783494D01*
X290804885Y-128750111D01*
X290790371Y-128683346D01*
X290790371Y-128633271D01*
X290804885Y-128566506D01*
X290819400Y-128533123D01*
X290848428Y-128499740D01*
X290891971Y-128483049D01*
X290921000Y-128483049D01*
X290964543Y-128499740D01*
X290979057Y-128516431D01*
X291269343Y-128833569D02*
X291095171Y-128833569D01*
X291182257Y-128833569D02*
X291182257Y-128483049D01*
X291153228Y-128533123D01*
X291124200Y-128566506D01*
X291095171Y-128583197D01*
X291414486Y-128833569D02*
X291472543Y-128833569D01*
X291501571Y-128816877D01*
X291516086Y-128800186D01*
X291545114Y-128750111D01*
X291559629Y-128683346D01*
X291559629Y-128549814D01*
X291545114Y-128516431D01*
X291530600Y-128499740D01*
X291501571Y-128483049D01*
X291443514Y-128483049D01*
X291414486Y-128499740D01*
X291399971Y-128516431D01*
X291385457Y-128549814D01*
X291385457Y-128633271D01*
X291399971Y-128666654D01*
X291414486Y-128683346D01*
X291443514Y-128700037D01*
X291501571Y-128700037D01*
X291530600Y-128683346D01*
X291545114Y-128666654D01*
X291559629Y-128633271D01*
X305551489Y-118769240D02*
X305384574Y-118870840D01*
X305551489Y-118943412D02*
X305200969Y-118943412D01*
X305200969Y-118827297D01*
X305217660Y-118798269D01*
X305234351Y-118783754D01*
X305267734Y-118769240D01*
X305317809Y-118769240D01*
X305351191Y-118783754D01*
X305367883Y-118798269D01*
X305384574Y-118827297D01*
X305384574Y-118943412D01*
X305200969Y-118493469D02*
X305200969Y-118638612D01*
X305367883Y-118653126D01*
X305351191Y-118638612D01*
X305334500Y-118609583D01*
X305334500Y-118537012D01*
X305351191Y-118507983D01*
X305367883Y-118493469D01*
X305401266Y-118478954D01*
X305484723Y-118478954D01*
X305518106Y-118493469D01*
X305534797Y-118507983D01*
X305551489Y-118537012D01*
X305551489Y-118609583D01*
X305534797Y-118638612D01*
X305518106Y-118653126D01*
X290979057Y-131275186D02*
X290964543Y-131291877D01*
X290921000Y-131308569D01*
X290891971Y-131308569D01*
X290848428Y-131291877D01*
X290819400Y-131258494D01*
X290804885Y-131225111D01*
X290790371Y-131158346D01*
X290790371Y-131108271D01*
X290804885Y-131041506D01*
X290819400Y-131008123D01*
X290848428Y-130974740D01*
X290891971Y-130958049D01*
X290921000Y-130958049D01*
X290964543Y-130974740D01*
X290979057Y-130991431D01*
X291095171Y-130991431D02*
X291109685Y-130974740D01*
X291138714Y-130958049D01*
X291211285Y-130958049D01*
X291240314Y-130974740D01*
X291254828Y-130991431D01*
X291269343Y-131024814D01*
X291269343Y-131058197D01*
X291254828Y-131108271D01*
X291080657Y-131308569D01*
X291269343Y-131308569D01*
X291458029Y-130958049D02*
X291487057Y-130958049D01*
X291516086Y-130974740D01*
X291530600Y-130991431D01*
X291545114Y-131024814D01*
X291559629Y-131091580D01*
X291559629Y-131175037D01*
X291545114Y-131241803D01*
X291530600Y-131275186D01*
X291516086Y-131291877D01*
X291487057Y-131308569D01*
X291458029Y-131308569D01*
X291429000Y-131291877D01*
X291414486Y-131275186D01*
X291399971Y-131241803D01*
X291385457Y-131175037D01*
X291385457Y-131091580D01*
X291399971Y-131024814D01*
X291414486Y-130991431D01*
X291429000Y-130974740D01*
X291458029Y-130958049D01*
X296750186Y-132745943D02*
X296766877Y-132760457D01*
X296783569Y-132804000D01*
X296783569Y-132833029D01*
X296766877Y-132876572D01*
X296733494Y-132905600D01*
X296700111Y-132920115D01*
X296633346Y-132934629D01*
X296583271Y-132934629D01*
X296516506Y-132920115D01*
X296483123Y-132905600D01*
X296449740Y-132876572D01*
X296433049Y-132833029D01*
X296433049Y-132804000D01*
X296449740Y-132760457D01*
X296466431Y-132745943D01*
X296783569Y-132455657D02*
X296783569Y-132629829D01*
X296783569Y-132542743D02*
X296433049Y-132542743D01*
X296483123Y-132571772D01*
X296516506Y-132600800D01*
X296533197Y-132629829D01*
X296583271Y-132281486D02*
X296566580Y-132310514D01*
X296549889Y-132325029D01*
X296516506Y-132339543D01*
X296499814Y-132339543D01*
X296466431Y-132325029D01*
X296449740Y-132310514D01*
X296433049Y-132281486D01*
X296433049Y-132223429D01*
X296449740Y-132194400D01*
X296466431Y-132179886D01*
X296499814Y-132165371D01*
X296516506Y-132165371D01*
X296549889Y-132179886D01*
X296566580Y-132194400D01*
X296583271Y-132223429D01*
X296583271Y-132281486D01*
X296599963Y-132310514D01*
X296616654Y-132325029D01*
X296650037Y-132339543D01*
X296716803Y-132339543D01*
X296750186Y-132325029D01*
X296766877Y-132310514D01*
X296783569Y-132281486D01*
X296783569Y-132223429D01*
X296766877Y-132194400D01*
X296750186Y-132179886D01*
X296716803Y-132165371D01*
X296650037Y-132165371D01*
X296616654Y-132179886D01*
X296599963Y-132194400D01*
X296583271Y-132223429D01*
X296750186Y-131570943D02*
X296766877Y-131585457D01*
X296783569Y-131629000D01*
X296783569Y-131658029D01*
X296766877Y-131701572D01*
X296733494Y-131730600D01*
X296700111Y-131745115D01*
X296633346Y-131759629D01*
X296583271Y-131759629D01*
X296516506Y-131745115D01*
X296483123Y-131730600D01*
X296449740Y-131701572D01*
X296433049Y-131658029D01*
X296433049Y-131629000D01*
X296449740Y-131585457D01*
X296466431Y-131570943D01*
X296783569Y-131280657D02*
X296783569Y-131454829D01*
X296783569Y-131367743D02*
X296433049Y-131367743D01*
X296483123Y-131396772D01*
X296516506Y-131425800D01*
X296533197Y-131454829D01*
X296433049Y-131019400D02*
X296433049Y-131077457D01*
X296449740Y-131106486D01*
X296466431Y-131121000D01*
X296516506Y-131150029D01*
X296583271Y-131164543D01*
X296716803Y-131164543D01*
X296750186Y-131150029D01*
X296766877Y-131135514D01*
X296783569Y-131106486D01*
X296783569Y-131048429D01*
X296766877Y-131019400D01*
X296750186Y-131004886D01*
X296716803Y-130990371D01*
X296633346Y-130990371D01*
X296599963Y-131004886D01*
X296583271Y-131019400D01*
X296566580Y-131048429D01*
X296566580Y-131106486D01*
X296583271Y-131135514D01*
X296599963Y-131150029D01*
X296633346Y-131164543D01*
X301300186Y-132600800D02*
X301316877Y-132615314D01*
X301333569Y-132658857D01*
X301333569Y-132687886D01*
X301316877Y-132731429D01*
X301283494Y-132760457D01*
X301250111Y-132774972D01*
X301183346Y-132789486D01*
X301133271Y-132789486D01*
X301066506Y-132774972D01*
X301033123Y-132760457D01*
X300999740Y-132731429D01*
X300983049Y-132687886D01*
X300983049Y-132658857D01*
X300999740Y-132615314D01*
X301016431Y-132600800D01*
X301333569Y-132455657D02*
X301333569Y-132397600D01*
X301316877Y-132368572D01*
X301300186Y-132354057D01*
X301250111Y-132325029D01*
X301183346Y-132310514D01*
X301049814Y-132310514D01*
X301016431Y-132325029D01*
X300999740Y-132339543D01*
X300983049Y-132368572D01*
X300983049Y-132426629D01*
X300999740Y-132455657D01*
X301016431Y-132470172D01*
X301049814Y-132484686D01*
X301133271Y-132484686D01*
X301166654Y-132470172D01*
X301183346Y-132455657D01*
X301200037Y-132426629D01*
X301200037Y-132368572D01*
X301183346Y-132339543D01*
X301166654Y-132325029D01*
X301133271Y-132310514D01*
X292559057Y-116025186D02*
X292544543Y-116041877D01*
X292501000Y-116058569D01*
X292471971Y-116058569D01*
X292428428Y-116041877D01*
X292399400Y-116008494D01*
X292384885Y-115975111D01*
X292370371Y-115908346D01*
X292370371Y-115858271D01*
X292384885Y-115791506D01*
X292399400Y-115758123D01*
X292428428Y-115724740D01*
X292471971Y-115708049D01*
X292501000Y-115708049D01*
X292544543Y-115724740D01*
X292559057Y-115741431D01*
X292849343Y-116058569D02*
X292675171Y-116058569D01*
X292762257Y-116058569D02*
X292762257Y-115708049D01*
X292733228Y-115758123D01*
X292704200Y-115791506D01*
X292675171Y-115808197D01*
X292950943Y-115708049D02*
X293154143Y-115708049D01*
X293023514Y-116058569D01*
X301300186Y-131425800D02*
X301316877Y-131440314D01*
X301333569Y-131483857D01*
X301333569Y-131512886D01*
X301316877Y-131556429D01*
X301283494Y-131585457D01*
X301250111Y-131599972D01*
X301183346Y-131614486D01*
X301133271Y-131614486D01*
X301066506Y-131599972D01*
X301033123Y-131585457D01*
X300999740Y-131556429D01*
X300983049Y-131512886D01*
X300983049Y-131483857D01*
X300999740Y-131440314D01*
X301016431Y-131425800D01*
X301133271Y-131251629D02*
X301116580Y-131280657D01*
X301099889Y-131295172D01*
X301066506Y-131309686D01*
X301049814Y-131309686D01*
X301016431Y-131295172D01*
X300999740Y-131280657D01*
X300983049Y-131251629D01*
X300983049Y-131193572D01*
X300999740Y-131164543D01*
X301016431Y-131150029D01*
X301049814Y-131135514D01*
X301066506Y-131135514D01*
X301099889Y-131150029D01*
X301116580Y-131164543D01*
X301133271Y-131193572D01*
X301133271Y-131251629D01*
X301149963Y-131280657D01*
X301166654Y-131295172D01*
X301200037Y-131309686D01*
X301266803Y-131309686D01*
X301300186Y-131295172D01*
X301316877Y-131280657D01*
X301333569Y-131251629D01*
X301333569Y-131193572D01*
X301316877Y-131164543D01*
X301300186Y-131150029D01*
X301266803Y-131135514D01*
X301200037Y-131135514D01*
X301166654Y-131150029D01*
X301149963Y-131164543D01*
X301133271Y-131193572D01*
X300375186Y-114245943D02*
X300391877Y-114260457D01*
X300408569Y-114304000D01*
X300408569Y-114333029D01*
X300391877Y-114376572D01*
X300358494Y-114405600D01*
X300325111Y-114420115D01*
X300258346Y-114434629D01*
X300208271Y-114434629D01*
X300141506Y-114420115D01*
X300108123Y-114405600D01*
X300074740Y-114376572D01*
X300058049Y-114333029D01*
X300058049Y-114304000D01*
X300074740Y-114260457D01*
X300091431Y-114245943D01*
X300408569Y-113955657D02*
X300408569Y-114129829D01*
X300408569Y-114042743D02*
X300058049Y-114042743D01*
X300108123Y-114071772D01*
X300141506Y-114100800D01*
X300158197Y-114129829D01*
X300408569Y-113665371D02*
X300408569Y-113839543D01*
X300408569Y-113752457D02*
X300058049Y-113752457D01*
X300108123Y-113781486D01*
X300141506Y-113810514D01*
X300158197Y-113839543D01*
X305949200Y-116600186D02*
X305934686Y-116616877D01*
X305891143Y-116633569D01*
X305862114Y-116633569D01*
X305818571Y-116616877D01*
X305789543Y-116583494D01*
X305775028Y-116550111D01*
X305760514Y-116483346D01*
X305760514Y-116433271D01*
X305775028Y-116366506D01*
X305789543Y-116333123D01*
X305818571Y-116299740D01*
X305862114Y-116283049D01*
X305891143Y-116283049D01*
X305934686Y-116299740D01*
X305949200Y-116316431D01*
X306050800Y-116283049D02*
X306254000Y-116283049D01*
X306123371Y-116633569D01*
X304724200Y-116575186D02*
X304709686Y-116591877D01*
X304666143Y-116608569D01*
X304637114Y-116608569D01*
X304593571Y-116591877D01*
X304564543Y-116558494D01*
X304550028Y-116525111D01*
X304535514Y-116458346D01*
X304535514Y-116408271D01*
X304550028Y-116341506D01*
X304564543Y-116308123D01*
X304593571Y-116274740D01*
X304637114Y-116258049D01*
X304666143Y-116258049D01*
X304709686Y-116274740D01*
X304724200Y-116291431D01*
X304985457Y-116258049D02*
X304927400Y-116258049D01*
X304898371Y-116274740D01*
X304883857Y-116291431D01*
X304854828Y-116341506D01*
X304840314Y-116408271D01*
X304840314Y-116541803D01*
X304854828Y-116575186D01*
X304869343Y-116591877D01*
X304898371Y-116608569D01*
X304956428Y-116608569D01*
X304985457Y-116591877D01*
X304999971Y-116575186D01*
X305014486Y-116541803D01*
X305014486Y-116458346D01*
X304999971Y-116424963D01*
X304985457Y-116408271D01*
X304956428Y-116391580D01*
X304898371Y-116391580D01*
X304869343Y-116408271D01*
X304854828Y-116424963D01*
X304840314Y-116458346D01*
X289065317Y-117967326D02*
X289050803Y-117984017D01*
X289007260Y-118000709D01*
X288978231Y-118000709D01*
X288934688Y-117984017D01*
X288905660Y-117950634D01*
X288891145Y-117917251D01*
X288876631Y-117850486D01*
X288876631Y-117800411D01*
X288891145Y-117733646D01*
X288905660Y-117700263D01*
X288934688Y-117666880D01*
X288978231Y-117650189D01*
X289007260Y-117650189D01*
X289050803Y-117666880D01*
X289065317Y-117683571D01*
X289166917Y-117650189D02*
X289355603Y-117650189D01*
X289254003Y-117783720D01*
X289297545Y-117783720D01*
X289326574Y-117800411D01*
X289341088Y-117817103D01*
X289355603Y-117850486D01*
X289355603Y-117933943D01*
X289341088Y-117967326D01*
X289326574Y-117984017D01*
X289297545Y-118000709D01*
X289210460Y-118000709D01*
X289181431Y-117984017D01*
X289166917Y-117967326D01*
X289457203Y-117650189D02*
X289660403Y-117650189D01*
X289529774Y-118000709D01*
X303229200Y-131995506D02*
X303214686Y-132012197D01*
X303171143Y-132028889D01*
X303142114Y-132028889D01*
X303098571Y-132012197D01*
X303069543Y-131978814D01*
X303055028Y-131945431D01*
X303040514Y-131878666D01*
X303040514Y-131828591D01*
X303055028Y-131761826D01*
X303069543Y-131728443D01*
X303098571Y-131695060D01*
X303142114Y-131678369D01*
X303171143Y-131678369D01*
X303214686Y-131695060D01*
X303229200Y-131711751D01*
X303490457Y-131795209D02*
X303490457Y-132028889D01*
X303417886Y-131661677D02*
X303345314Y-131912049D01*
X303534000Y-131912049D01*
X304329200Y-132028889D02*
X304227600Y-131861974D01*
X304155028Y-132028889D02*
X304155028Y-131678369D01*
X304271143Y-131678369D01*
X304300171Y-131695060D01*
X304314686Y-131711751D01*
X304329200Y-131745134D01*
X304329200Y-131795209D01*
X304314686Y-131828591D01*
X304300171Y-131845283D01*
X304271143Y-131861974D01*
X304155028Y-131861974D01*
X304590457Y-131678369D02*
X304532400Y-131678369D01*
X304503371Y-131695060D01*
X304488857Y-131711751D01*
X304459828Y-131761826D01*
X304445314Y-131828591D01*
X304445314Y-131962123D01*
X304459828Y-131995506D01*
X304474343Y-132012197D01*
X304503371Y-132028889D01*
X304561428Y-132028889D01*
X304590457Y-132012197D01*
X304604971Y-131995506D01*
X304619486Y-131962123D01*
X304619486Y-131878666D01*
X304604971Y-131845283D01*
X304590457Y-131828591D01*
X304561428Y-131811900D01*
X304503371Y-131811900D01*
X304474343Y-131828591D01*
X304459828Y-131845283D01*
X304445314Y-131878666D01*
X305533569Y-119720800D02*
X305366654Y-119822400D01*
X305533569Y-119894972D02*
X305183049Y-119894972D01*
X305183049Y-119778857D01*
X305199740Y-119749829D01*
X305216431Y-119735314D01*
X305249814Y-119720800D01*
X305299889Y-119720800D01*
X305333271Y-119735314D01*
X305349963Y-119749829D01*
X305366654Y-119778857D01*
X305366654Y-119894972D01*
X305299889Y-119459543D02*
X305533569Y-119459543D01*
X305166357Y-119532114D02*
X305416729Y-119604686D01*
X305416729Y-119416000D01*
X305508569Y-120970800D02*
X305341654Y-121072400D01*
X305508569Y-121144972D02*
X305158049Y-121144972D01*
X305158049Y-121028857D01*
X305174740Y-120999829D01*
X305191431Y-120985314D01*
X305224814Y-120970800D01*
X305274889Y-120970800D01*
X305308271Y-120985314D01*
X305324963Y-120999829D01*
X305341654Y-121028857D01*
X305341654Y-121144972D01*
X305158049Y-120869200D02*
X305158049Y-120680514D01*
X305291580Y-120782114D01*
X305291580Y-120738572D01*
X305308271Y-120709543D01*
X305324963Y-120695029D01*
X305358346Y-120680514D01*
X305441803Y-120680514D01*
X305475186Y-120695029D01*
X305491877Y-120709543D01*
X305508569Y-120738572D01*
X305508569Y-120825657D01*
X305491877Y-120854686D01*
X305475186Y-120869200D01*
X305533569Y-122410800D02*
X305366654Y-122512400D01*
X305533569Y-122584972D02*
X305183049Y-122584972D01*
X305183049Y-122468857D01*
X305199740Y-122439829D01*
X305216431Y-122425314D01*
X305249814Y-122410800D01*
X305299889Y-122410800D01*
X305333271Y-122425314D01*
X305349963Y-122439829D01*
X305366654Y-122468857D01*
X305366654Y-122584972D01*
X305216431Y-122294686D02*
X305199740Y-122280172D01*
X305183049Y-122251143D01*
X305183049Y-122178572D01*
X305199740Y-122149543D01*
X305216431Y-122135029D01*
X305249814Y-122120514D01*
X305283197Y-122120514D01*
X305333271Y-122135029D01*
X305533569Y-122309200D01*
X305533569Y-122120514D01*
X305533569Y-123630800D02*
X305366654Y-123732400D01*
X305533569Y-123804972D02*
X305183049Y-123804972D01*
X305183049Y-123688857D01*
X305199740Y-123659829D01*
X305216431Y-123645314D01*
X305249814Y-123630800D01*
X305299889Y-123630800D01*
X305333271Y-123645314D01*
X305349963Y-123659829D01*
X305366654Y-123688857D01*
X305366654Y-123804972D01*
X305533569Y-123340514D02*
X305533569Y-123514686D01*
X305533569Y-123427600D02*
X305183049Y-123427600D01*
X305233123Y-123456629D01*
X305266506Y-123485657D01*
X305283197Y-123514686D01*
D12*
X272566993Y-131421510D02*
X272566993Y-130921510D01*
X272686040Y-130921510D01*
X272757469Y-130945320D01*
X272805088Y-130992939D01*
X272828897Y-131040558D01*
X272852707Y-131135796D01*
X272852707Y-131207225D01*
X272828897Y-131302463D01*
X272805088Y-131350082D01*
X272757469Y-131397701D01*
X272686040Y-131421510D01*
X272566993Y-131421510D01*
X273328897Y-131421510D02*
X273043183Y-131421510D01*
X273186040Y-131421510D02*
X273186040Y-130921510D01*
X273138421Y-130992939D01*
X273090802Y-131040558D01*
X273043183Y-131064368D01*
D24*
X276995239Y-132666190D02*
X277328572Y-133166190D01*
X277328572Y-132666190D02*
X276995239Y-133166190D01*
X277780952Y-133166190D02*
X277495238Y-133166190D01*
X277638095Y-133166190D02*
X277638095Y-132666190D01*
X277590476Y-132737619D01*
X277542857Y-132785238D01*
X277495238Y-132809048D01*
D17*
X288064057Y-132685186D02*
X288049543Y-132701877D01*
X288006000Y-132718569D01*
X287976971Y-132718569D01*
X287933428Y-132701877D01*
X287904400Y-132668494D01*
X287889885Y-132635111D01*
X287875371Y-132568346D01*
X287875371Y-132518271D01*
X287889885Y-132451506D01*
X287904400Y-132418123D01*
X287933428Y-132384740D01*
X287976971Y-132368049D01*
X288006000Y-132368049D01*
X288049543Y-132384740D01*
X288064057Y-132401431D01*
X288180171Y-132401431D02*
X288194685Y-132384740D01*
X288223714Y-132368049D01*
X288296285Y-132368049D01*
X288325314Y-132384740D01*
X288339828Y-132401431D01*
X288354343Y-132434814D01*
X288354343Y-132468197D01*
X288339828Y-132518271D01*
X288165657Y-132718569D01*
X288354343Y-132718569D01*
X288528514Y-132518271D02*
X288499486Y-132501580D01*
X288484971Y-132484889D01*
X288470457Y-132451506D01*
X288470457Y-132434814D01*
X288484971Y-132401431D01*
X288499486Y-132384740D01*
X288528514Y-132368049D01*
X288586571Y-132368049D01*
X288615600Y-132384740D01*
X288630114Y-132401431D01*
X288644629Y-132434814D01*
X288644629Y-132451506D01*
X288630114Y-132484889D01*
X288615600Y-132501580D01*
X288586571Y-132518271D01*
X288528514Y-132518271D01*
X288499486Y-132534963D01*
X288484971Y-132551654D01*
X288470457Y-132585037D01*
X288470457Y-132651803D01*
X288484971Y-132685186D01*
X288499486Y-132701877D01*
X288528514Y-132718569D01*
X288586571Y-132718569D01*
X288615600Y-132701877D01*
X288630114Y-132685186D01*
X288644629Y-132651803D01*
X288644629Y-132585037D01*
X288630114Y-132551654D01*
X288615600Y-132534963D01*
X288586571Y-132518271D01*
X275135186Y-131855943D02*
X275151877Y-131870457D01*
X275168569Y-131914000D01*
X275168569Y-131943029D01*
X275151877Y-131986572D01*
X275118494Y-132015600D01*
X275085111Y-132030115D01*
X275018346Y-132044629D01*
X274968271Y-132044629D01*
X274901506Y-132030115D01*
X274868123Y-132015600D01*
X274834740Y-131986572D01*
X274818049Y-131943029D01*
X274818049Y-131914000D01*
X274834740Y-131870457D01*
X274851431Y-131855943D01*
X274851431Y-131739829D02*
X274834740Y-131725315D01*
X274818049Y-131696286D01*
X274818049Y-131623715D01*
X274834740Y-131594686D01*
X274851431Y-131580172D01*
X274884814Y-131565657D01*
X274918197Y-131565657D01*
X274968271Y-131580172D01*
X275168569Y-131754343D01*
X275168569Y-131565657D01*
X274934889Y-131304400D02*
X275168569Y-131304400D01*
X274801357Y-131376971D02*
X275051729Y-131449543D01*
X275051729Y-131260857D01*
X279164057Y-131675186D02*
X279149543Y-131691877D01*
X279106000Y-131708569D01*
X279076971Y-131708569D01*
X279033428Y-131691877D01*
X279004400Y-131658494D01*
X278989885Y-131625111D01*
X278975371Y-131558346D01*
X278975371Y-131508271D01*
X278989885Y-131441506D01*
X279004400Y-131408123D01*
X279033428Y-131374740D01*
X279076971Y-131358049D01*
X279106000Y-131358049D01*
X279149543Y-131374740D01*
X279164057Y-131391431D01*
X279280171Y-131391431D02*
X279294685Y-131374740D01*
X279323714Y-131358049D01*
X279396285Y-131358049D01*
X279425314Y-131374740D01*
X279439828Y-131391431D01*
X279454343Y-131424814D01*
X279454343Y-131458197D01*
X279439828Y-131508271D01*
X279265657Y-131708569D01*
X279454343Y-131708569D01*
X279730114Y-131358049D02*
X279584971Y-131358049D01*
X279570457Y-131524963D01*
X279584971Y-131508271D01*
X279614000Y-131491580D01*
X279686571Y-131491580D01*
X279715600Y-131508271D01*
X279730114Y-131524963D01*
X279744629Y-131558346D01*
X279744629Y-131641803D01*
X279730114Y-131675186D01*
X279715600Y-131691877D01*
X279686571Y-131708569D01*
X279614000Y-131708569D01*
X279584971Y-131691877D01*
X279570457Y-131675186D01*
X275574057Y-129225186D02*
X275559543Y-129241877D01*
X275516000Y-129258569D01*
X275486971Y-129258569D01*
X275443428Y-129241877D01*
X275414400Y-129208494D01*
X275399885Y-129175111D01*
X275385371Y-129108346D01*
X275385371Y-129058271D01*
X275399885Y-128991506D01*
X275414400Y-128958123D01*
X275443428Y-128924740D01*
X275486971Y-128908049D01*
X275516000Y-128908049D01*
X275559543Y-128924740D01*
X275574057Y-128941431D01*
X275690171Y-128941431D02*
X275704685Y-128924740D01*
X275733714Y-128908049D01*
X275806285Y-128908049D01*
X275835314Y-128924740D01*
X275849828Y-128941431D01*
X275864343Y-128974814D01*
X275864343Y-129008197D01*
X275849828Y-129058271D01*
X275675657Y-129258569D01*
X275864343Y-129258569D01*
X275965943Y-128908049D02*
X276169143Y-128908049D01*
X276038514Y-129258569D01*
X289424057Y-130935186D02*
X289409543Y-130951877D01*
X289366000Y-130968569D01*
X289336971Y-130968569D01*
X289293428Y-130951877D01*
X289264400Y-130918494D01*
X289249885Y-130885111D01*
X289235371Y-130818346D01*
X289235371Y-130768271D01*
X289249885Y-130701506D01*
X289264400Y-130668123D01*
X289293428Y-130634740D01*
X289336971Y-130618049D01*
X289366000Y-130618049D01*
X289409543Y-130634740D01*
X289424057Y-130651431D01*
X289540171Y-130651431D02*
X289554685Y-130634740D01*
X289583714Y-130618049D01*
X289656285Y-130618049D01*
X289685314Y-130634740D01*
X289699828Y-130651431D01*
X289714343Y-130684814D01*
X289714343Y-130718197D01*
X289699828Y-130768271D01*
X289525657Y-130968569D01*
X289714343Y-130968569D01*
X289859486Y-130968569D02*
X289917543Y-130968569D01*
X289946571Y-130951877D01*
X289961086Y-130935186D01*
X289990114Y-130885111D01*
X290004629Y-130818346D01*
X290004629Y-130684814D01*
X289990114Y-130651431D01*
X289975600Y-130634740D01*
X289946571Y-130618049D01*
X289888514Y-130618049D01*
X289859486Y-130634740D01*
X289844971Y-130651431D01*
X289830457Y-130684814D01*
X289830457Y-130768271D01*
X289844971Y-130801654D01*
X289859486Y-130818346D01*
X289888514Y-130835037D01*
X289946571Y-130835037D01*
X289975600Y-130818346D01*
X289990114Y-130801654D01*
X290004629Y-130768271D01*
X271899200Y-128558569D02*
X271754057Y-128558569D01*
X271754057Y-128208049D01*
X272131429Y-128208049D02*
X272073372Y-128208049D01*
X272044343Y-128224740D01*
X272029829Y-128241431D01*
X272000800Y-128291506D01*
X271986286Y-128358271D01*
X271986286Y-128491803D01*
X272000800Y-128525186D01*
X272015315Y-128541877D01*
X272044343Y-128558569D01*
X272102400Y-128558569D01*
X272131429Y-128541877D01*
X272145943Y-128525186D01*
X272160458Y-128491803D01*
X272160458Y-128408346D01*
X272145943Y-128374963D01*
X272131429Y-128358271D01*
X272102400Y-128341580D01*
X272044343Y-128341580D01*
X272015315Y-128358271D01*
X272000800Y-128374963D01*
X271986286Y-128408346D01*
X273929200Y-128298569D02*
X273784057Y-128298569D01*
X273784057Y-127948049D01*
X274175943Y-127948049D02*
X274030800Y-127948049D01*
X274016286Y-128114963D01*
X274030800Y-128098271D01*
X274059829Y-128081580D01*
X274132400Y-128081580D01*
X274161429Y-128098271D01*
X274175943Y-128114963D01*
X274190458Y-128148346D01*
X274190458Y-128231803D01*
X274175943Y-128265186D01*
X274161429Y-128281877D01*
X274132400Y-128298569D01*
X274059829Y-128298569D01*
X274030800Y-128281877D01*
X274016286Y-128265186D01*
X275745186Y-127865943D02*
X275761877Y-127880457D01*
X275778569Y-127924000D01*
X275778569Y-127953029D01*
X275761877Y-127996572D01*
X275728494Y-128025600D01*
X275695111Y-128040115D01*
X275628346Y-128054629D01*
X275578271Y-128054629D01*
X275511506Y-128040115D01*
X275478123Y-128025600D01*
X275444740Y-127996572D01*
X275428049Y-127953029D01*
X275428049Y-127924000D01*
X275444740Y-127880457D01*
X275461431Y-127865943D01*
X275428049Y-127764343D02*
X275428049Y-127575657D01*
X275561580Y-127677257D01*
X275561580Y-127633715D01*
X275578271Y-127604686D01*
X275594963Y-127590172D01*
X275628346Y-127575657D01*
X275711803Y-127575657D01*
X275745186Y-127590172D01*
X275761877Y-127604686D01*
X275778569Y-127633715D01*
X275778569Y-127720800D01*
X275761877Y-127749829D01*
X275745186Y-127764343D01*
X275428049Y-127386971D02*
X275428049Y-127357943D01*
X275444740Y-127328914D01*
X275461431Y-127314400D01*
X275494814Y-127299886D01*
X275561580Y-127285371D01*
X275645037Y-127285371D01*
X275711803Y-127299886D01*
X275745186Y-127314400D01*
X275761877Y-127328914D01*
X275778569Y-127357943D01*
X275778569Y-127386971D01*
X275761877Y-127416000D01*
X275745186Y-127430514D01*
X275711803Y-127445029D01*
X275645037Y-127459543D01*
X275561580Y-127459543D01*
X275494814Y-127445029D01*
X275461431Y-127430514D01*
X275444740Y-127416000D01*
X275428049Y-127386971D01*
D25*
X280029048Y-131236190D02*
X280029048Y-131640952D01*
X280052857Y-131688571D01*
X280076667Y-131712381D01*
X280124286Y-131736190D01*
X280219524Y-131736190D01*
X280267143Y-131712381D01*
X280290952Y-131688571D01*
X280314762Y-131640952D01*
X280314762Y-131236190D01*
X280505239Y-131236190D02*
X280814762Y-131236190D01*
X280648096Y-131426667D01*
X280719524Y-131426667D01*
X280767143Y-131450476D01*
X280790953Y-131474286D01*
X280814762Y-131521905D01*
X280814762Y-131640952D01*
X280790953Y-131688571D01*
X280767143Y-131712381D01*
X280719524Y-131736190D01*
X280576667Y-131736190D01*
X280529048Y-131712381D01*
X280505239Y-131688571D01*
D12*
X287986191Y-129790952D02*
X288252858Y-130190952D01*
X288252858Y-129790952D02*
X287986191Y-130190952D01*
X288386190Y-129829048D02*
X288405238Y-129810000D01*
X288443333Y-129790952D01*
X288538571Y-129790952D01*
X288576667Y-129810000D01*
X288595714Y-129829048D01*
X288614762Y-129867143D01*
X288614762Y-129905238D01*
X288595714Y-129962381D01*
X288367143Y-130190952D01*
X288614762Y-130190952D01*
D11*
X285929672Y-119861002D02*
X286253482Y-119861002D01*
X286291577Y-119841954D01*
X286310625Y-119822907D01*
X286329672Y-119784811D01*
X286329672Y-119708621D01*
X286310625Y-119670526D01*
X286291577Y-119651478D01*
X286253482Y-119632430D01*
X285929672Y-119632430D01*
X285929672Y-119251478D02*
X285929672Y-119441954D01*
X286120149Y-119461002D01*
X286101101Y-119441954D01*
X286082053Y-119403859D01*
X286082053Y-119308621D01*
X286101101Y-119270525D01*
X286120149Y-119251478D01*
X286158244Y-119232430D01*
X286253482Y-119232430D01*
X286291577Y-119251478D01*
X286310625Y-119270525D01*
X286329672Y-119308621D01*
X286329672Y-119403859D01*
X286310625Y-119441954D01*
X286291577Y-119461002D01*
D10*
X272266667Y-113612381D02*
X272266667Y-114326667D01*
X272219047Y-114469524D01*
X272123809Y-114564762D01*
X271980952Y-114612381D01*
X271885714Y-114612381D01*
X273266667Y-114612381D02*
X272695238Y-114612381D01*
X272980952Y-114612381D02*
X272980952Y-113612381D01*
X272885714Y-113755238D01*
X272790476Y-113850476D01*
X272695238Y-113898095D01*
D26*
X274251429Y-120367143D02*
X274737143Y-120367143D01*
X274794286Y-120338571D01*
X274822857Y-120310000D01*
X274851429Y-120252857D01*
X274851429Y-120138571D01*
X274822857Y-120081429D01*
X274794286Y-120052857D01*
X274737143Y-120024286D01*
X274251429Y-120024286D01*
X274251429Y-119481429D02*
X274251429Y-119595715D01*
X274280000Y-119652858D01*
X274308571Y-119681429D01*
X274394286Y-119738572D01*
X274508571Y-119767143D01*
X274737143Y-119767143D01*
X274794286Y-119738572D01*
X274822857Y-119710000D01*
X274851429Y-119652858D01*
X274851429Y-119538572D01*
X274822857Y-119481429D01*
X274794286Y-119452858D01*
X274737143Y-119424286D01*
X274594286Y-119424286D01*
X274537143Y-119452858D01*
X274508571Y-119481429D01*
X274480000Y-119538572D01*
X274480000Y-119652858D01*
X274508571Y-119710000D01*
X274537143Y-119738572D01*
X274594286Y-119767143D01*
M02*
