G04 #@! TF.FileFunction,Copper,L2,Bot,Signal*
%FSLAX46Y46*%
G04 Gerber Fmt 4.6, Leading zero omitted, Abs format (unit mm)*
G04 Created by KiCad (PCBNEW 4.0.4-stable) date 07/31/17 21:50:18*
%MOMM*%
%LPD*%
G01*
G04 APERTURE LIST*
%ADD10C,0.150000*%
%ADD11R,1.700000X1.700000*%
%ADD12R,1.524000X1.524000*%
%ADD13C,1.524000*%
%ADD14O,1.700000X1.700000*%
%ADD15C,0.508000*%
%ADD16C,0.152000*%
%ADD17C,0.457200*%
%ADD18C,0.254000*%
G04 APERTURE END LIST*
D10*
D11*
X306600000Y-128300000D03*
D12*
X302760000Y-127060000D03*
D13*
X300220000Y-127060000D03*
D12*
X268275000Y-141820000D03*
D13*
X268275000Y-139280000D03*
D11*
X306340000Y-143650000D03*
X305880000Y-132540000D03*
D14*
X308420000Y-132540000D03*
X305880000Y-135080000D03*
X308420000Y-135080000D03*
X305880000Y-137620000D03*
X308420000Y-137620000D03*
X305880000Y-140160000D03*
X308420000Y-140160000D03*
D15*
X279910000Y-129650000D03*
X278940000Y-129640000D03*
X292700000Y-134100000D03*
X279110000Y-128530000D03*
X268986000Y-135610000D03*
X276820000Y-128420000D03*
X276850000Y-141650000D03*
X273150000Y-130150000D03*
X282300000Y-137700000D03*
X283200000Y-141800000D03*
X287750000Y-138800000D03*
X293100000Y-144650000D03*
X285950000Y-141650000D03*
X284730000Y-127260000D03*
X283220000Y-133060000D03*
X274640000Y-137010000D03*
X275120000Y-130980000D03*
X274580000Y-129450000D03*
X280750000Y-142725000D03*
X284325000Y-143775000D03*
X273412500Y-142487500D03*
X289900000Y-145050000D03*
X280850000Y-129600000D03*
X282230000Y-131270000D03*
D16*
X301180000Y-128640000D02*
X302760000Y-127060000D01*
X299800000Y-128640000D02*
X301180000Y-128640000D01*
X297730000Y-126570000D02*
X299800000Y-128640000D01*
X282990000Y-126570000D02*
X297730000Y-126570000D01*
X279910000Y-129650000D02*
X282990000Y-126570000D01*
X299100000Y-125940000D02*
X300220000Y-127060000D01*
X282710000Y-125940000D02*
X299100000Y-125940000D01*
X278940000Y-129640000D02*
X282710000Y-125940000D01*
X285950000Y-141650000D02*
X287650000Y-141650000D01*
X287650000Y-141650000D02*
X288875000Y-140425000D01*
X268986000Y-135610000D02*
X268990000Y-135610000D01*
X276810000Y-128430000D02*
X276800000Y-128430000D01*
X276820000Y-128420000D02*
X276810000Y-128430000D01*
D17*
X283350000Y-141650000D02*
X283200000Y-141800000D01*
X285950000Y-141650000D02*
X283350000Y-141650000D01*
D16*
X287750000Y-138800000D02*
X287750000Y-139300000D01*
X287750000Y-139300000D02*
X288875000Y-140425000D01*
X288875000Y-140425000D02*
X293100000Y-144650000D01*
X283220000Y-128770000D02*
X283220000Y-133060000D01*
X284730000Y-127260000D02*
X283220000Y-128770000D01*
D17*
X274640000Y-137010000D02*
X279270000Y-137010000D01*
X279270000Y-137010000D02*
X283220000Y-133060000D01*
X280750000Y-142725000D02*
X280715000Y-142725000D01*
X280715000Y-142725000D02*
X274640000Y-137010000D01*
X275120000Y-130980000D02*
X275120000Y-136450000D01*
X275120000Y-136450000D02*
X274640000Y-137010000D01*
X275120000Y-129990000D02*
X275120000Y-130980000D01*
X274580000Y-129450000D02*
X275120000Y-129990000D01*
X281800000Y-143775000D02*
X284325000Y-143775000D01*
X281800000Y-143775000D02*
X280750000Y-142725000D01*
X275975000Y-145050000D02*
X289900000Y-145050000D01*
X275975000Y-145050000D02*
X273412500Y-142487500D01*
D16*
X280850000Y-129690000D02*
X280850000Y-129600000D01*
X282230000Y-131270000D02*
X280850000Y-129690000D01*
D18*
G36*
X278830854Y-128750904D02*
X278763943Y-128750846D01*
X278437080Y-128885903D01*
X278186782Y-129135764D01*
X278051154Y-129462391D01*
X278050846Y-129816057D01*
X278185903Y-130142920D01*
X278435764Y-130393218D01*
X278762391Y-130528846D01*
X279116057Y-130529154D01*
X279413286Y-130406341D01*
X279732391Y-130538846D01*
X280086057Y-130539154D01*
X280412920Y-130404097D01*
X280429187Y-130387858D01*
X280564630Y-130444099D01*
X281340945Y-131332923D01*
X281340846Y-131446057D01*
X281475903Y-131772920D01*
X281725764Y-132023218D01*
X282052391Y-132158846D01*
X282406057Y-132159154D01*
X282509000Y-132116619D01*
X282509000Y-132513620D01*
X282466782Y-132555764D01*
X282441120Y-132617565D01*
X278912286Y-136146400D01*
X275983600Y-136146400D01*
X275983600Y-131218408D01*
X276008846Y-131157609D01*
X276009154Y-130803943D01*
X275983600Y-130742098D01*
X275983600Y-129990000D01*
X275917862Y-129659515D01*
X275917862Y-129659514D01*
X275730657Y-129379342D01*
X275359236Y-129007922D01*
X275334097Y-128947080D01*
X275084236Y-128696782D01*
X274757609Y-128561154D01*
X274403943Y-128560846D01*
X274077080Y-128695903D01*
X273826782Y-128945764D01*
X273691154Y-129272391D01*
X273690846Y-129626057D01*
X273825903Y-129952920D01*
X274075764Y-130203218D01*
X274137566Y-130228881D01*
X274256400Y-130347715D01*
X274256400Y-130741592D01*
X274231154Y-130802391D01*
X274230846Y-131156057D01*
X274256400Y-131217902D01*
X274256400Y-136130533D01*
X274155445Y-136248315D01*
X274137080Y-136255903D01*
X273886782Y-136505764D01*
X273751154Y-136832391D01*
X273750846Y-137186057D01*
X273885903Y-137512920D01*
X274135764Y-137763218D01*
X274215484Y-137796321D01*
X280098780Y-143330977D01*
X280245764Y-143478218D01*
X280307567Y-143503881D01*
X280990085Y-144186400D01*
X276332715Y-144186400D01*
X274191737Y-142045423D01*
X274166597Y-141984580D01*
X273916736Y-141734282D01*
X273590109Y-141598654D01*
X273236443Y-141598346D01*
X272909580Y-141733403D01*
X272659282Y-141983264D01*
X272523654Y-142309891D01*
X272523346Y-142663557D01*
X272658403Y-142990420D01*
X272908264Y-143240718D01*
X272970067Y-143266381D01*
X275364342Y-145660657D01*
X275644514Y-145847862D01*
X275699345Y-145858769D01*
X275975000Y-145913600D01*
X289661592Y-145913600D01*
X289722391Y-145938846D01*
X290076057Y-145939154D01*
X290402920Y-145804097D01*
X290653218Y-145554236D01*
X290788846Y-145227609D01*
X290789154Y-144873943D01*
X290654097Y-144547080D01*
X290404236Y-144296782D01*
X290077609Y-144161154D01*
X289723943Y-144160846D01*
X289662098Y-144186400D01*
X285116767Y-144186400D01*
X285213846Y-143952609D01*
X285214154Y-143598943D01*
X285079097Y-143272080D01*
X284829236Y-143021782D01*
X284502609Y-142886154D01*
X284148943Y-142885846D01*
X284087098Y-142911400D01*
X282157715Y-142911400D01*
X282046315Y-142800000D01*
X304842560Y-142800000D01*
X304842560Y-144500000D01*
X304886838Y-144735317D01*
X305025910Y-144951441D01*
X305238110Y-145096431D01*
X305490000Y-145147440D01*
X307190000Y-145147440D01*
X307425317Y-145103162D01*
X307641441Y-144964090D01*
X307786431Y-144751890D01*
X307837440Y-144500000D01*
X307837440Y-142800000D01*
X307793162Y-142564683D01*
X307654090Y-142348559D01*
X307441890Y-142203569D01*
X307190000Y-142152560D01*
X305490000Y-142152560D01*
X305254683Y-142196838D01*
X305038559Y-142335910D01*
X304893569Y-142548110D01*
X304842560Y-142800000D01*
X282046315Y-142800000D01*
X281529237Y-142282922D01*
X281504097Y-142222080D01*
X281254236Y-141971782D01*
X281111860Y-141912662D01*
X276818369Y-137873600D01*
X279270000Y-137873600D01*
X279600485Y-137807862D01*
X279880657Y-137620657D01*
X282421314Y-135080000D01*
X304365907Y-135080000D01*
X304478946Y-135648285D01*
X304800853Y-136130054D01*
X305130026Y-136350000D01*
X304800853Y-136569946D01*
X304478946Y-137051715D01*
X304365907Y-137620000D01*
X304478946Y-138188285D01*
X304800853Y-138670054D01*
X305130026Y-138890000D01*
X304800853Y-139109946D01*
X304478946Y-139591715D01*
X304365907Y-140160000D01*
X304478946Y-140728285D01*
X304800853Y-141210054D01*
X305282622Y-141531961D01*
X305850907Y-141645000D01*
X305909093Y-141645000D01*
X306477378Y-141531961D01*
X306959147Y-141210054D01*
X307150000Y-140924422D01*
X307340853Y-141210054D01*
X307822622Y-141531961D01*
X308390907Y-141645000D01*
X308449093Y-141645000D01*
X309017378Y-141531961D01*
X309499147Y-141210054D01*
X309821054Y-140728285D01*
X309934093Y-140160000D01*
X309821054Y-139591715D01*
X309499147Y-139109946D01*
X309169974Y-138890000D01*
X309499147Y-138670054D01*
X309821054Y-138188285D01*
X309934093Y-137620000D01*
X309821054Y-137051715D01*
X309499147Y-136569946D01*
X309169974Y-136350000D01*
X309499147Y-136130054D01*
X309821054Y-135648285D01*
X309934093Y-135080000D01*
X309821054Y-134511715D01*
X309499147Y-134029946D01*
X309169974Y-133810000D01*
X309499147Y-133590054D01*
X309821054Y-133108285D01*
X309934093Y-132540000D01*
X309821054Y-131971715D01*
X309499147Y-131489946D01*
X309017378Y-131168039D01*
X308449093Y-131055000D01*
X308390907Y-131055000D01*
X307822622Y-131168039D01*
X307340853Y-131489946D01*
X307340029Y-131491179D01*
X307333162Y-131454683D01*
X307194090Y-131238559D01*
X306981890Y-131093569D01*
X306730000Y-131042560D01*
X305030000Y-131042560D01*
X304794683Y-131086838D01*
X304578559Y-131225910D01*
X304433569Y-131438110D01*
X304382560Y-131690000D01*
X304382560Y-133390000D01*
X304426838Y-133625317D01*
X304565910Y-133841441D01*
X304778110Y-133986431D01*
X304845541Y-134000086D01*
X304800853Y-134029946D01*
X304478946Y-134511715D01*
X304365907Y-135080000D01*
X282421314Y-135080000D01*
X283662079Y-133839236D01*
X283722920Y-133814097D01*
X283973218Y-133564236D01*
X284108846Y-133237609D01*
X284109154Y-132883943D01*
X283974097Y-132557080D01*
X283931000Y-132513908D01*
X283931000Y-129064506D01*
X284846404Y-128149102D01*
X284906057Y-128149154D01*
X285232920Y-128014097D01*
X285483218Y-127764236D01*
X285618846Y-127437609D01*
X285618982Y-127281000D01*
X297435494Y-127281000D01*
X299297247Y-129142753D01*
X299527912Y-129296878D01*
X299800000Y-129351000D01*
X301180000Y-129351000D01*
X301452088Y-129296878D01*
X301682753Y-129142753D01*
X302356066Y-128469440D01*
X303522000Y-128469440D01*
X303757317Y-128425162D01*
X303973441Y-128286090D01*
X304118431Y-128073890D01*
X304169440Y-127822000D01*
X304169440Y-127450000D01*
X305102560Y-127450000D01*
X305102560Y-129150000D01*
X305146838Y-129385317D01*
X305285910Y-129601441D01*
X305498110Y-129746431D01*
X305750000Y-129797440D01*
X307450000Y-129797440D01*
X307685317Y-129753162D01*
X307901441Y-129614090D01*
X308046431Y-129401890D01*
X308097440Y-129150000D01*
X308097440Y-127450000D01*
X308053162Y-127214683D01*
X307914090Y-126998559D01*
X307701890Y-126853569D01*
X307450000Y-126802560D01*
X305750000Y-126802560D01*
X305514683Y-126846838D01*
X305298559Y-126985910D01*
X305153569Y-127198110D01*
X305102560Y-127450000D01*
X304169440Y-127450000D01*
X304169440Y-126298000D01*
X304148178Y-126185000D01*
X310415000Y-126185000D01*
X310415000Y-146515000D01*
X266585000Y-146515000D01*
X266585000Y-141058000D01*
X266865560Y-141058000D01*
X266865560Y-142582000D01*
X266909838Y-142817317D01*
X267048910Y-143033441D01*
X267261110Y-143178431D01*
X267513000Y-143229440D01*
X269037000Y-143229440D01*
X269272317Y-143185162D01*
X269488441Y-143046090D01*
X269633431Y-142833890D01*
X269684440Y-142582000D01*
X269684440Y-141058000D01*
X269640162Y-140822683D01*
X269501090Y-140606559D01*
X269288890Y-140461569D01*
X269037000Y-140410560D01*
X269032484Y-140410560D01*
X269075608Y-140260213D01*
X268275000Y-139459605D01*
X267474392Y-140260213D01*
X267517516Y-140410560D01*
X267513000Y-140410560D01*
X267277683Y-140454838D01*
X267061559Y-140593910D01*
X266916569Y-140806110D01*
X266865560Y-141058000D01*
X266585000Y-141058000D01*
X266585000Y-139072302D01*
X266865856Y-139072302D01*
X266893638Y-139627368D01*
X267052603Y-140011143D01*
X267294787Y-140080608D01*
X268095395Y-139280000D01*
X268454605Y-139280000D01*
X269255213Y-140080608D01*
X269497397Y-140011143D01*
X269684144Y-139487698D01*
X269656362Y-138932632D01*
X269497397Y-138548857D01*
X269255213Y-138479392D01*
X268454605Y-139280000D01*
X268095395Y-139280000D01*
X267294787Y-138479392D01*
X267052603Y-138548857D01*
X266865856Y-139072302D01*
X266585000Y-139072302D01*
X266585000Y-138299787D01*
X267474392Y-138299787D01*
X268275000Y-139100395D01*
X269075608Y-138299787D01*
X269006143Y-138057603D01*
X268482698Y-137870856D01*
X267927632Y-137898638D01*
X267543857Y-138057603D01*
X267474392Y-138299787D01*
X266585000Y-138299787D01*
X266585000Y-132127000D01*
X272550000Y-132127000D01*
X272599410Y-132116994D01*
X272641035Y-132088553D01*
X272668315Y-132046159D01*
X272677000Y-132000000D01*
X272677000Y-126185000D01*
X281445303Y-126185000D01*
X278830854Y-128750904D01*
X278830854Y-128750904D01*
G37*
X278830854Y-128750904D02*
X278763943Y-128750846D01*
X278437080Y-128885903D01*
X278186782Y-129135764D01*
X278051154Y-129462391D01*
X278050846Y-129816057D01*
X278185903Y-130142920D01*
X278435764Y-130393218D01*
X278762391Y-130528846D01*
X279116057Y-130529154D01*
X279413286Y-130406341D01*
X279732391Y-130538846D01*
X280086057Y-130539154D01*
X280412920Y-130404097D01*
X280429187Y-130387858D01*
X280564630Y-130444099D01*
X281340945Y-131332923D01*
X281340846Y-131446057D01*
X281475903Y-131772920D01*
X281725764Y-132023218D01*
X282052391Y-132158846D01*
X282406057Y-132159154D01*
X282509000Y-132116619D01*
X282509000Y-132513620D01*
X282466782Y-132555764D01*
X282441120Y-132617565D01*
X278912286Y-136146400D01*
X275983600Y-136146400D01*
X275983600Y-131218408D01*
X276008846Y-131157609D01*
X276009154Y-130803943D01*
X275983600Y-130742098D01*
X275983600Y-129990000D01*
X275917862Y-129659515D01*
X275917862Y-129659514D01*
X275730657Y-129379342D01*
X275359236Y-129007922D01*
X275334097Y-128947080D01*
X275084236Y-128696782D01*
X274757609Y-128561154D01*
X274403943Y-128560846D01*
X274077080Y-128695903D01*
X273826782Y-128945764D01*
X273691154Y-129272391D01*
X273690846Y-129626057D01*
X273825903Y-129952920D01*
X274075764Y-130203218D01*
X274137566Y-130228881D01*
X274256400Y-130347715D01*
X274256400Y-130741592D01*
X274231154Y-130802391D01*
X274230846Y-131156057D01*
X274256400Y-131217902D01*
X274256400Y-136130533D01*
X274155445Y-136248315D01*
X274137080Y-136255903D01*
X273886782Y-136505764D01*
X273751154Y-136832391D01*
X273750846Y-137186057D01*
X273885903Y-137512920D01*
X274135764Y-137763218D01*
X274215484Y-137796321D01*
X280098780Y-143330977D01*
X280245764Y-143478218D01*
X280307567Y-143503881D01*
X280990085Y-144186400D01*
X276332715Y-144186400D01*
X274191737Y-142045423D01*
X274166597Y-141984580D01*
X273916736Y-141734282D01*
X273590109Y-141598654D01*
X273236443Y-141598346D01*
X272909580Y-141733403D01*
X272659282Y-141983264D01*
X272523654Y-142309891D01*
X272523346Y-142663557D01*
X272658403Y-142990420D01*
X272908264Y-143240718D01*
X272970067Y-143266381D01*
X275364342Y-145660657D01*
X275644514Y-145847862D01*
X275699345Y-145858769D01*
X275975000Y-145913600D01*
X289661592Y-145913600D01*
X289722391Y-145938846D01*
X290076057Y-145939154D01*
X290402920Y-145804097D01*
X290653218Y-145554236D01*
X290788846Y-145227609D01*
X290789154Y-144873943D01*
X290654097Y-144547080D01*
X290404236Y-144296782D01*
X290077609Y-144161154D01*
X289723943Y-144160846D01*
X289662098Y-144186400D01*
X285116767Y-144186400D01*
X285213846Y-143952609D01*
X285214154Y-143598943D01*
X285079097Y-143272080D01*
X284829236Y-143021782D01*
X284502609Y-142886154D01*
X284148943Y-142885846D01*
X284087098Y-142911400D01*
X282157715Y-142911400D01*
X282046315Y-142800000D01*
X304842560Y-142800000D01*
X304842560Y-144500000D01*
X304886838Y-144735317D01*
X305025910Y-144951441D01*
X305238110Y-145096431D01*
X305490000Y-145147440D01*
X307190000Y-145147440D01*
X307425317Y-145103162D01*
X307641441Y-144964090D01*
X307786431Y-144751890D01*
X307837440Y-144500000D01*
X307837440Y-142800000D01*
X307793162Y-142564683D01*
X307654090Y-142348559D01*
X307441890Y-142203569D01*
X307190000Y-142152560D01*
X305490000Y-142152560D01*
X305254683Y-142196838D01*
X305038559Y-142335910D01*
X304893569Y-142548110D01*
X304842560Y-142800000D01*
X282046315Y-142800000D01*
X281529237Y-142282922D01*
X281504097Y-142222080D01*
X281254236Y-141971782D01*
X281111860Y-141912662D01*
X276818369Y-137873600D01*
X279270000Y-137873600D01*
X279600485Y-137807862D01*
X279880657Y-137620657D01*
X282421314Y-135080000D01*
X304365907Y-135080000D01*
X304478946Y-135648285D01*
X304800853Y-136130054D01*
X305130026Y-136350000D01*
X304800853Y-136569946D01*
X304478946Y-137051715D01*
X304365907Y-137620000D01*
X304478946Y-138188285D01*
X304800853Y-138670054D01*
X305130026Y-138890000D01*
X304800853Y-139109946D01*
X304478946Y-139591715D01*
X304365907Y-140160000D01*
X304478946Y-140728285D01*
X304800853Y-141210054D01*
X305282622Y-141531961D01*
X305850907Y-141645000D01*
X305909093Y-141645000D01*
X306477378Y-141531961D01*
X306959147Y-141210054D01*
X307150000Y-140924422D01*
X307340853Y-141210054D01*
X307822622Y-141531961D01*
X308390907Y-141645000D01*
X308449093Y-141645000D01*
X309017378Y-141531961D01*
X309499147Y-141210054D01*
X309821054Y-140728285D01*
X309934093Y-140160000D01*
X309821054Y-139591715D01*
X309499147Y-139109946D01*
X309169974Y-138890000D01*
X309499147Y-138670054D01*
X309821054Y-138188285D01*
X309934093Y-137620000D01*
X309821054Y-137051715D01*
X309499147Y-136569946D01*
X309169974Y-136350000D01*
X309499147Y-136130054D01*
X309821054Y-135648285D01*
X309934093Y-135080000D01*
X309821054Y-134511715D01*
X309499147Y-134029946D01*
X309169974Y-133810000D01*
X309499147Y-133590054D01*
X309821054Y-133108285D01*
X309934093Y-132540000D01*
X309821054Y-131971715D01*
X309499147Y-131489946D01*
X309017378Y-131168039D01*
X308449093Y-131055000D01*
X308390907Y-131055000D01*
X307822622Y-131168039D01*
X307340853Y-131489946D01*
X307340029Y-131491179D01*
X307333162Y-131454683D01*
X307194090Y-131238559D01*
X306981890Y-131093569D01*
X306730000Y-131042560D01*
X305030000Y-131042560D01*
X304794683Y-131086838D01*
X304578559Y-131225910D01*
X304433569Y-131438110D01*
X304382560Y-131690000D01*
X304382560Y-133390000D01*
X304426838Y-133625317D01*
X304565910Y-133841441D01*
X304778110Y-133986431D01*
X304845541Y-134000086D01*
X304800853Y-134029946D01*
X304478946Y-134511715D01*
X304365907Y-135080000D01*
X282421314Y-135080000D01*
X283662079Y-133839236D01*
X283722920Y-133814097D01*
X283973218Y-133564236D01*
X284108846Y-133237609D01*
X284109154Y-132883943D01*
X283974097Y-132557080D01*
X283931000Y-132513908D01*
X283931000Y-129064506D01*
X284846404Y-128149102D01*
X284906057Y-128149154D01*
X285232920Y-128014097D01*
X285483218Y-127764236D01*
X285618846Y-127437609D01*
X285618982Y-127281000D01*
X297435494Y-127281000D01*
X299297247Y-129142753D01*
X299527912Y-129296878D01*
X299800000Y-129351000D01*
X301180000Y-129351000D01*
X301452088Y-129296878D01*
X301682753Y-129142753D01*
X302356066Y-128469440D01*
X303522000Y-128469440D01*
X303757317Y-128425162D01*
X303973441Y-128286090D01*
X304118431Y-128073890D01*
X304169440Y-127822000D01*
X304169440Y-127450000D01*
X305102560Y-127450000D01*
X305102560Y-129150000D01*
X305146838Y-129385317D01*
X305285910Y-129601441D01*
X305498110Y-129746431D01*
X305750000Y-129797440D01*
X307450000Y-129797440D01*
X307685317Y-129753162D01*
X307901441Y-129614090D01*
X308046431Y-129401890D01*
X308097440Y-129150000D01*
X308097440Y-127450000D01*
X308053162Y-127214683D01*
X307914090Y-126998559D01*
X307701890Y-126853569D01*
X307450000Y-126802560D01*
X305750000Y-126802560D01*
X305514683Y-126846838D01*
X305298559Y-126985910D01*
X305153569Y-127198110D01*
X305102560Y-127450000D01*
X304169440Y-127450000D01*
X304169440Y-126298000D01*
X304148178Y-126185000D01*
X310415000Y-126185000D01*
X310415000Y-146515000D01*
X266585000Y-146515000D01*
X266585000Y-141058000D01*
X266865560Y-141058000D01*
X266865560Y-142582000D01*
X266909838Y-142817317D01*
X267048910Y-143033441D01*
X267261110Y-143178431D01*
X267513000Y-143229440D01*
X269037000Y-143229440D01*
X269272317Y-143185162D01*
X269488441Y-143046090D01*
X269633431Y-142833890D01*
X269684440Y-142582000D01*
X269684440Y-141058000D01*
X269640162Y-140822683D01*
X269501090Y-140606559D01*
X269288890Y-140461569D01*
X269037000Y-140410560D01*
X269032484Y-140410560D01*
X269075608Y-140260213D01*
X268275000Y-139459605D01*
X267474392Y-140260213D01*
X267517516Y-140410560D01*
X267513000Y-140410560D01*
X267277683Y-140454838D01*
X267061559Y-140593910D01*
X266916569Y-140806110D01*
X266865560Y-141058000D01*
X266585000Y-141058000D01*
X266585000Y-139072302D01*
X266865856Y-139072302D01*
X266893638Y-139627368D01*
X267052603Y-140011143D01*
X267294787Y-140080608D01*
X268095395Y-139280000D01*
X268454605Y-139280000D01*
X269255213Y-140080608D01*
X269497397Y-140011143D01*
X269684144Y-139487698D01*
X269656362Y-138932632D01*
X269497397Y-138548857D01*
X269255213Y-138479392D01*
X268454605Y-139280000D01*
X268095395Y-139280000D01*
X267294787Y-138479392D01*
X267052603Y-138548857D01*
X266865856Y-139072302D01*
X266585000Y-139072302D01*
X266585000Y-138299787D01*
X267474392Y-138299787D01*
X268275000Y-139100395D01*
X269075608Y-138299787D01*
X269006143Y-138057603D01*
X268482698Y-137870856D01*
X267927632Y-137898638D01*
X267543857Y-138057603D01*
X267474392Y-138299787D01*
X266585000Y-138299787D01*
X266585000Y-132127000D01*
X272550000Y-132127000D01*
X272599410Y-132116994D01*
X272641035Y-132088553D01*
X272668315Y-132046159D01*
X272677000Y-132000000D01*
X272677000Y-126185000D01*
X281445303Y-126185000D01*
X278830854Y-128750904D01*
M02*
