G04 #@! TF.FileFunction,Legend,Top*
%FSLAX46Y46*%
G04 Gerber Fmt 4.6, Leading zero omitted, Abs format (unit mm)*
G04 Created by KiCad (PCBNEW 4.0.4-stable) date 07/31/17 21:50:18*
%MOMM*%
%LPD*%
G01*
G04 APERTURE LIST*
%ADD10C,0.150000*%
%ADD11C,0.090000*%
%ADD12C,0.100000*%
%ADD13C,0.200000*%
%ADD14C,0.125000*%
%ADD15C,0.500000*%
%ADD16C,0.071120*%
%ADD17C,0.120000*%
%ADD18C,0.250000*%
%ADD19C,0.127000*%
%ADD20C,0.152400*%
%ADD21C,0.060000*%
%ADD22C,0.114300*%
%ADD23C,0.092000*%
%ADD24C,0.095000*%
G04 APERTURE END LIST*
D10*
D11*
X267870000Y-144471429D02*
X267927143Y-144471429D01*
X267984286Y-144500000D01*
X268012857Y-144528571D01*
X268041428Y-144585714D01*
X268070000Y-144700000D01*
X268070000Y-144842857D01*
X268041428Y-144957143D01*
X268012857Y-145014286D01*
X267984286Y-145042857D01*
X267927143Y-145071429D01*
X267870000Y-145071429D01*
X267812857Y-145042857D01*
X267784286Y-145014286D01*
X267755714Y-144957143D01*
X267727143Y-144842857D01*
X267727143Y-144700000D01*
X267755714Y-144585714D01*
X267784286Y-144528571D01*
X267812857Y-144500000D01*
X267870000Y-144471429D01*
X268327143Y-145014286D02*
X268355715Y-145042857D01*
X268327143Y-145071429D01*
X268298572Y-145042857D01*
X268327143Y-145014286D01*
X268327143Y-145071429D01*
X268555714Y-144471429D02*
X268955714Y-144471429D01*
X268698571Y-145071429D01*
X269184286Y-144842857D02*
X269641429Y-144842857D01*
X270212857Y-144471429D02*
X269927143Y-144471429D01*
X269898572Y-144757143D01*
X269927143Y-144728571D01*
X269984286Y-144700000D01*
X270127143Y-144700000D01*
X270184286Y-144728571D01*
X270212857Y-144757143D01*
X270241429Y-144814286D01*
X270241429Y-144957143D01*
X270212857Y-145014286D01*
X270184286Y-145042857D01*
X270127143Y-145071429D01*
X269984286Y-145071429D01*
X269927143Y-145042857D01*
X269898572Y-145014286D01*
X270498572Y-145014286D02*
X270527144Y-145042857D01*
X270498572Y-145071429D01*
X270470001Y-145042857D01*
X270498572Y-145014286D01*
X270498572Y-145071429D01*
X271070000Y-144471429D02*
X270784286Y-144471429D01*
X270755715Y-144757143D01*
X270784286Y-144728571D01*
X270841429Y-144700000D01*
X270984286Y-144700000D01*
X271041429Y-144728571D01*
X271070000Y-144757143D01*
X271098572Y-144814286D01*
X271098572Y-144957143D01*
X271070000Y-145014286D01*
X271041429Y-145042857D01*
X270984286Y-145071429D01*
X270841429Y-145071429D01*
X270784286Y-145042857D01*
X270755715Y-145014286D01*
X271270001Y-144471429D02*
X271470001Y-145071429D01*
X271670001Y-144471429D01*
D12*
X305734286Y-130602857D02*
X306305715Y-130602857D01*
X306020001Y-130884762D02*
X306020001Y-130320952D01*
D13*
X277550000Y-129140000D02*
X278460000Y-129140000D01*
X277980000Y-128770000D02*
X277980000Y-128700000D01*
X278000000Y-130530000D02*
X278000000Y-129530000D01*
D12*
X308018572Y-130568095D02*
X308661429Y-130568095D01*
X309995714Y-139592143D02*
X309960476Y-139556429D01*
X309925238Y-139449286D01*
X309925238Y-139377857D01*
X309960476Y-139270714D01*
X310030952Y-139199286D01*
X310101429Y-139163571D01*
X310242381Y-139127857D01*
X310348095Y-139127857D01*
X310489048Y-139163571D01*
X310559524Y-139199286D01*
X310630000Y-139270714D01*
X310665238Y-139377857D01*
X310665238Y-139449286D01*
X310630000Y-139556429D01*
X310594762Y-139592143D01*
X309925238Y-139913571D02*
X310665238Y-139913571D01*
X310312857Y-139913571D02*
X310312857Y-140342143D01*
X309925238Y-140342143D02*
X310665238Y-140342143D01*
X310418571Y-141020714D02*
X309925238Y-141020714D01*
X310700476Y-140842143D02*
X310171905Y-140663571D01*
X310171905Y-141127857D01*
X309975714Y-137072143D02*
X309940476Y-137036429D01*
X309905238Y-136929286D01*
X309905238Y-136857857D01*
X309940476Y-136750714D01*
X310010952Y-136679286D01*
X310081429Y-136643571D01*
X310222381Y-136607857D01*
X310328095Y-136607857D01*
X310469048Y-136643571D01*
X310539524Y-136679286D01*
X310610000Y-136750714D01*
X310645238Y-136857857D01*
X310645238Y-136929286D01*
X310610000Y-137036429D01*
X310574762Y-137072143D01*
X309905238Y-137393571D02*
X310645238Y-137393571D01*
X310292857Y-137393571D02*
X310292857Y-137822143D01*
X309905238Y-137822143D02*
X310645238Y-137822143D01*
X310645238Y-138107857D02*
X310645238Y-138572143D01*
X310363333Y-138322143D01*
X310363333Y-138429285D01*
X310328095Y-138500714D01*
X310292857Y-138536428D01*
X310222381Y-138572143D01*
X310046190Y-138572143D01*
X309975714Y-138536428D01*
X309940476Y-138500714D01*
X309905238Y-138429285D01*
X309905238Y-138215000D01*
X309940476Y-138143571D01*
X309975714Y-138107857D01*
X299576668Y-129216667D02*
X299576668Y-128516667D01*
X300410001Y-128483333D02*
X299810001Y-129383333D01*
X300776667Y-128516667D02*
X300910000Y-128516667D01*
X300976667Y-128550000D01*
X301043334Y-128616667D01*
X301076667Y-128750000D01*
X301076667Y-128983333D01*
X301043334Y-129116667D01*
X300976667Y-129183333D01*
X300910000Y-129216667D01*
X300776667Y-129216667D01*
X300710000Y-129183333D01*
X300643334Y-129116667D01*
X300610000Y-128983333D01*
X300610000Y-128750000D01*
X300643334Y-128616667D01*
X300710000Y-128550000D01*
X300776667Y-128516667D01*
D13*
X265900000Y-132000000D02*
X265900000Y-125500000D01*
X272400000Y-132000000D02*
X265900000Y-132000000D01*
X272400000Y-125500000D02*
X272400000Y-132000000D01*
X265900000Y-125500000D02*
X272400000Y-125500000D01*
X283377500Y-139462500D02*
X283477500Y-139562500D01*
X283277500Y-139462500D02*
X283277500Y-139562500D01*
D10*
X283377500Y-140262500D02*
X283377500Y-138562500D01*
X282977500Y-139162500D02*
X283777500Y-139162500D01*
D13*
X283777500Y-139662500D02*
X283377500Y-139262500D01*
X282977500Y-139662500D02*
X283377500Y-139262500D01*
X283777500Y-139662500D02*
X282977500Y-139662500D01*
D14*
X296367857Y-139283333D02*
X295891666Y-139283333D01*
X296463095Y-138997619D02*
X296129762Y-139997619D01*
X295796428Y-138997619D01*
X295463095Y-138997619D02*
X295463095Y-139997619D01*
X295225000Y-139997619D01*
X295082142Y-139950000D01*
X294986904Y-139854762D01*
X294939285Y-139759524D01*
X294891666Y-139569048D01*
X294891666Y-139426190D01*
X294939285Y-139235714D01*
X294986904Y-139140476D01*
X295082142Y-139045238D01*
X295225000Y-138997619D01*
X295463095Y-138997619D01*
X294510714Y-139045238D02*
X294367857Y-138997619D01*
X294129761Y-138997619D01*
X294034523Y-139045238D01*
X293986904Y-139092857D01*
X293939285Y-139188095D01*
X293939285Y-139283333D01*
X293986904Y-139378571D01*
X294034523Y-139426190D01*
X294129761Y-139473810D01*
X294320238Y-139521429D01*
X294415476Y-139569048D01*
X294463095Y-139616667D01*
X294510714Y-139711905D01*
X294510714Y-139807143D01*
X294463095Y-139902381D01*
X294415476Y-139950000D01*
X294320238Y-139997619D01*
X294082142Y-139997619D01*
X293939285Y-139950000D01*
X292986904Y-138997619D02*
X293558333Y-138997619D01*
X293272619Y-138997619D02*
X293272619Y-139997619D01*
X293367857Y-139854762D01*
X293463095Y-139759524D01*
X293558333Y-139711905D01*
X292605952Y-139902381D02*
X292558333Y-139950000D01*
X292463095Y-139997619D01*
X292224999Y-139997619D01*
X292129761Y-139950000D01*
X292082142Y-139902381D01*
X292034523Y-139807143D01*
X292034523Y-139711905D01*
X292082142Y-139569048D01*
X292653571Y-138997619D01*
X292034523Y-138997619D01*
X291558333Y-138997619D02*
X291367857Y-138997619D01*
X291272618Y-139045238D01*
X291224999Y-139092857D01*
X291129761Y-139235714D01*
X291082142Y-139426190D01*
X291082142Y-139807143D01*
X291129761Y-139902381D01*
X291177380Y-139950000D01*
X291272618Y-139997619D01*
X291463095Y-139997619D01*
X291558333Y-139950000D01*
X291605952Y-139902381D01*
X291653571Y-139807143D01*
X291653571Y-139569048D01*
X291605952Y-139473810D01*
X291558333Y-139426190D01*
X291463095Y-139378571D01*
X291272618Y-139378571D01*
X291177380Y-139426190D01*
X291129761Y-139473810D01*
X291082142Y-139569048D01*
X290605952Y-138997619D02*
X290415476Y-138997619D01*
X290320237Y-139045238D01*
X290272618Y-139092857D01*
X290177380Y-139235714D01*
X290129761Y-139426190D01*
X290129761Y-139807143D01*
X290177380Y-139902381D01*
X290224999Y-139950000D01*
X290320237Y-139997619D01*
X290510714Y-139997619D01*
X290605952Y-139950000D01*
X290653571Y-139902381D01*
X290701190Y-139807143D01*
X290701190Y-139569048D01*
X290653571Y-139473810D01*
X290605952Y-139426190D01*
X290510714Y-139378571D01*
X290320237Y-139378571D01*
X290224999Y-139426190D01*
X290177380Y-139473810D01*
X290129761Y-139569048D01*
X289701190Y-139378571D02*
X288939285Y-139378571D01*
X288558333Y-138997619D02*
X288034523Y-139664286D01*
X288558333Y-139664286D02*
X288034523Y-138997619D01*
X282314286Y-132804762D02*
X281647619Y-132804762D01*
X282219048Y-132804762D02*
X282266667Y-132852381D01*
X282314286Y-132947619D01*
X282314286Y-133090477D01*
X282266667Y-133185715D01*
X282171429Y-133233334D01*
X281647619Y-133233334D01*
X281647619Y-134280953D02*
X282123810Y-133947619D01*
X281647619Y-133709524D02*
X282647619Y-133709524D01*
X282647619Y-134090477D01*
X282600000Y-134185715D01*
X282552381Y-134233334D01*
X282457143Y-134280953D01*
X282314286Y-134280953D01*
X282219048Y-134233334D01*
X282171429Y-134185715D01*
X282123810Y-134090477D01*
X282123810Y-133709524D01*
X282171429Y-135042858D02*
X282171429Y-134709524D01*
X281647619Y-134709524D02*
X282647619Y-134709524D01*
X282647619Y-135185715D01*
X282647619Y-136042858D02*
X282647619Y-135566667D01*
X282171429Y-135519048D01*
X282219048Y-135566667D01*
X282266667Y-135661905D01*
X282266667Y-135900001D01*
X282219048Y-135995239D01*
X282171429Y-136042858D01*
X282076190Y-136090477D01*
X281838095Y-136090477D01*
X281742857Y-136042858D01*
X281695238Y-135995239D01*
X281647619Y-135900001D01*
X281647619Y-135661905D01*
X281695238Y-135566667D01*
X281742857Y-135519048D01*
X282552381Y-136471429D02*
X282600000Y-136519048D01*
X282647619Y-136614286D01*
X282647619Y-136852382D01*
X282600000Y-136947620D01*
X282552381Y-136995239D01*
X282457143Y-137042858D01*
X282361905Y-137042858D01*
X282219048Y-136995239D01*
X281647619Y-136423810D01*
X281647619Y-137042858D01*
D12*
X308272143Y-144916429D02*
X308307381Y-144809286D01*
X308342619Y-144773571D01*
X308413095Y-144737857D01*
X308518810Y-144737857D01*
X308589286Y-144773571D01*
X308624524Y-144809286D01*
X308659762Y-144880714D01*
X308659762Y-145166429D01*
X307919762Y-145166429D01*
X307919762Y-144916429D01*
X307955000Y-144845000D01*
X307990238Y-144809286D01*
X308060714Y-144773571D01*
X308131190Y-144773571D01*
X308201667Y-144809286D01*
X308236905Y-144845000D01*
X308272143Y-144916429D01*
X308272143Y-145166429D01*
X308659762Y-144416429D02*
X307919762Y-144416429D01*
X308448333Y-144095000D02*
X308448333Y-143737857D01*
X308659762Y-144166428D02*
X307919762Y-143916428D01*
X308659762Y-143666428D01*
X308624524Y-143452143D02*
X308659762Y-143345000D01*
X308659762Y-143166429D01*
X308624524Y-143095000D01*
X308589286Y-143059286D01*
X308518810Y-143023571D01*
X308448333Y-143023571D01*
X308377857Y-143059286D01*
X308342619Y-143095000D01*
X308307381Y-143166429D01*
X308272143Y-143309286D01*
X308236905Y-143380714D01*
X308201667Y-143416429D01*
X308131190Y-143452143D01*
X308060714Y-143452143D01*
X307990238Y-143416429D01*
X307955000Y-143380714D01*
X307919762Y-143309286D01*
X307919762Y-143130714D01*
X307955000Y-143023571D01*
X307884524Y-142166428D02*
X308835952Y-142809285D01*
X309165000Y-144291428D02*
X309129762Y-144362857D01*
X309129762Y-144470000D01*
X309165000Y-144577143D01*
X309235476Y-144648571D01*
X309305952Y-144684286D01*
X309446905Y-144720000D01*
X309552619Y-144720000D01*
X309693571Y-144684286D01*
X309764048Y-144648571D01*
X309834524Y-144577143D01*
X309869762Y-144470000D01*
X309869762Y-144398571D01*
X309834524Y-144291428D01*
X309799286Y-144255714D01*
X309552619Y-144255714D01*
X309552619Y-144398571D01*
X309869762Y-143934286D02*
X309129762Y-143934286D01*
X309869762Y-143505714D01*
X309129762Y-143505714D01*
X309869762Y-143148572D02*
X309129762Y-143148572D01*
X309129762Y-142970000D01*
X309165000Y-142862857D01*
X309235476Y-142791429D01*
X309305952Y-142755714D01*
X309446905Y-142720000D01*
X309552619Y-142720000D01*
X309693571Y-142755714D01*
X309764048Y-142791429D01*
X309834524Y-142862857D01*
X309869762Y-142970000D01*
X309869762Y-143148572D01*
X309975714Y-134492143D02*
X309940476Y-134456429D01*
X309905238Y-134349286D01*
X309905238Y-134277857D01*
X309940476Y-134170714D01*
X310010952Y-134099286D01*
X310081429Y-134063571D01*
X310222381Y-134027857D01*
X310328095Y-134027857D01*
X310469048Y-134063571D01*
X310539524Y-134099286D01*
X310610000Y-134170714D01*
X310645238Y-134277857D01*
X310645238Y-134349286D01*
X310610000Y-134456429D01*
X310574762Y-134492143D01*
X309905238Y-134813571D02*
X310645238Y-134813571D01*
X310292857Y-134813571D02*
X310292857Y-135242143D01*
X309905238Y-135242143D02*
X310645238Y-135242143D01*
X310574762Y-135563571D02*
X310610000Y-135599285D01*
X310645238Y-135670714D01*
X310645238Y-135849285D01*
X310610000Y-135920714D01*
X310574762Y-135956428D01*
X310504286Y-135992143D01*
X310433810Y-135992143D01*
X310328095Y-135956428D01*
X309905238Y-135527857D01*
X309905238Y-135992143D01*
X304918571Y-127139524D02*
X305025714Y-127174762D01*
X305204285Y-127174762D01*
X305275714Y-127139524D01*
X305311428Y-127104286D01*
X305347143Y-127033810D01*
X305347143Y-126963333D01*
X305311428Y-126892857D01*
X305275714Y-126857619D01*
X305204285Y-126822381D01*
X305061428Y-126787143D01*
X304990000Y-126751905D01*
X304954285Y-126716667D01*
X304918571Y-126646190D01*
X304918571Y-126575714D01*
X304954285Y-126505238D01*
X304990000Y-126470000D01*
X305061428Y-126434762D01*
X305240000Y-126434762D01*
X305347143Y-126470000D01*
X306097143Y-127174762D02*
X305847143Y-126822381D01*
X305668571Y-127174762D02*
X305668571Y-126434762D01*
X305954286Y-126434762D01*
X306025714Y-126470000D01*
X306061429Y-126505238D01*
X306097143Y-126575714D01*
X306097143Y-126681429D01*
X306061429Y-126751905D01*
X306025714Y-126787143D01*
X305954286Y-126822381D01*
X305668571Y-126822381D01*
X306668571Y-126787143D02*
X306775714Y-126822381D01*
X306811429Y-126857619D01*
X306847143Y-126928095D01*
X306847143Y-127033810D01*
X306811429Y-127104286D01*
X306775714Y-127139524D01*
X306704286Y-127174762D01*
X306418571Y-127174762D01*
X306418571Y-126434762D01*
X306668571Y-126434762D01*
X306740000Y-126470000D01*
X306775714Y-126505238D01*
X306811429Y-126575714D01*
X306811429Y-126646190D01*
X306775714Y-126716667D01*
X306740000Y-126751905D01*
X306668571Y-126787143D01*
X306418571Y-126787143D01*
X307561429Y-127174762D02*
X307132857Y-127174762D01*
X307347143Y-127174762D02*
X307347143Y-126434762D01*
X307275714Y-126540476D01*
X307204286Y-126610952D01*
X307132857Y-126646190D01*
X309975714Y-132082143D02*
X309940476Y-132046429D01*
X309905238Y-131939286D01*
X309905238Y-131867857D01*
X309940476Y-131760714D01*
X310010952Y-131689286D01*
X310081429Y-131653571D01*
X310222381Y-131617857D01*
X310328095Y-131617857D01*
X310469048Y-131653571D01*
X310539524Y-131689286D01*
X310610000Y-131760714D01*
X310645238Y-131867857D01*
X310645238Y-131939286D01*
X310610000Y-132046429D01*
X310574762Y-132082143D01*
X309905238Y-132403571D02*
X310645238Y-132403571D01*
X310292857Y-132403571D02*
X310292857Y-132832143D01*
X309905238Y-132832143D02*
X310645238Y-132832143D01*
X309905238Y-133582143D02*
X309905238Y-133153571D01*
X309905238Y-133367857D02*
X310645238Y-133367857D01*
X310539524Y-133296428D01*
X310469048Y-133225000D01*
X310433810Y-133153571D01*
D13*
X282173607Y-144375000D02*
G75*
G03X282173607Y-144375000I-223607J0D01*
G01*
X274411107Y-144237500D02*
G75*
G03X274411107Y-144237500I-223607J0D01*
G01*
X296570088Y-140900000D02*
G75*
G03X296570088Y-140900000I-570088J0D01*
G01*
X275033113Y-137010000D02*
G75*
G03X275033113Y-137010000I-403113J0D01*
G01*
D12*
X302363334Y-129100000D02*
X302330000Y-129133333D01*
X302230000Y-129166667D01*
X302163334Y-129166667D01*
X302063334Y-129133333D01*
X301996667Y-129066667D01*
X301963334Y-129000000D01*
X301930000Y-128866667D01*
X301930000Y-128766667D01*
X301963334Y-128633333D01*
X301996667Y-128566667D01*
X302063334Y-128500000D01*
X302163334Y-128466667D01*
X302230000Y-128466667D01*
X302330000Y-128500000D01*
X302363334Y-128533333D01*
X302996667Y-129166667D02*
X302663334Y-129166667D01*
X302663334Y-128466667D01*
X303230001Y-129166667D02*
X303230001Y-128466667D01*
X303630001Y-129166667D02*
X303330001Y-128766667D01*
X303630001Y-128466667D02*
X303230001Y-128866667D01*
X267753572Y-136875000D02*
X267682143Y-136839286D01*
X267575000Y-136839286D01*
X267467857Y-136875000D01*
X267396429Y-136946429D01*
X267360714Y-137017857D01*
X267325000Y-137160714D01*
X267325000Y-137267857D01*
X267360714Y-137410714D01*
X267396429Y-137482143D01*
X267467857Y-137553571D01*
X267575000Y-137589286D01*
X267646429Y-137589286D01*
X267753572Y-137553571D01*
X267789286Y-137517857D01*
X267789286Y-137267857D01*
X267646429Y-137267857D01*
X268110714Y-137589286D02*
X268110714Y-136839286D01*
X268539286Y-137589286D01*
X268539286Y-136839286D01*
X268896428Y-137589286D02*
X268896428Y-136839286D01*
X269075000Y-136839286D01*
X269182143Y-136875000D01*
X269253571Y-136946429D01*
X269289286Y-137017857D01*
X269325000Y-137160714D01*
X269325000Y-137267857D01*
X269289286Y-137410714D01*
X269253571Y-137482143D01*
X269182143Y-137553571D01*
X269075000Y-137589286D01*
X268896428Y-137589286D01*
X267448572Y-143319286D02*
X267698572Y-144069286D01*
X267948572Y-143319286D01*
X268198571Y-144069286D02*
X268198571Y-143319286D01*
X268555714Y-144069286D02*
X268555714Y-143319286D01*
X268984286Y-144069286D01*
X268984286Y-143319286D01*
D15*
X269900000Y-127673000D02*
X269320000Y-127673000D01*
D16*
X273689000Y-138854000D02*
X273689000Y-139362000D01*
X273689000Y-139362000D02*
X274451000Y-139362000D01*
X274451000Y-139362000D02*
X274451000Y-138854000D01*
X273689000Y-138346000D02*
X273689000Y-137838000D01*
X273689000Y-137838000D02*
X274451000Y-137838000D01*
X274451000Y-137838000D02*
X274451000Y-138346000D01*
D10*
X284740000Y-130450000D02*
X284340000Y-130450000D01*
X284740000Y-130450000D02*
X284740000Y-130050000D01*
X284740000Y-127250000D02*
X284340000Y-127250000D01*
X284740000Y-127250000D02*
X284740000Y-127650000D01*
X281540000Y-127250000D02*
X281940000Y-127250000D01*
X281540000Y-127250000D02*
X281540000Y-127650000D01*
X281540000Y-130450000D02*
X281540000Y-130050000D01*
D16*
X283004000Y-132591000D02*
X283512000Y-132591000D01*
X283512000Y-132591000D02*
X283512000Y-131829000D01*
X283512000Y-131829000D02*
X283004000Y-131829000D01*
X282496000Y-132591000D02*
X281988000Y-132591000D01*
X281988000Y-132591000D02*
X281988000Y-131829000D01*
X281988000Y-131829000D02*
X282496000Y-131829000D01*
X283524000Y-131651000D02*
X284032000Y-131651000D01*
X284032000Y-131651000D02*
X284032000Y-130889000D01*
X284032000Y-130889000D02*
X283524000Y-130889000D01*
X283016000Y-131651000D02*
X282508000Y-131651000D01*
X282508000Y-131651000D02*
X282508000Y-130889000D01*
X282508000Y-130889000D02*
X283016000Y-130889000D01*
X285846000Y-126979000D02*
X285338000Y-126979000D01*
X285338000Y-126979000D02*
X285338000Y-127741000D01*
X285338000Y-127741000D02*
X285846000Y-127741000D01*
X286354000Y-126979000D02*
X286862000Y-126979000D01*
X286862000Y-126979000D02*
X286862000Y-127741000D01*
X286862000Y-127741000D02*
X286354000Y-127741000D01*
X286161000Y-128926000D02*
X286161000Y-128418000D01*
X286161000Y-128418000D02*
X285399000Y-128418000D01*
X285399000Y-128418000D02*
X285399000Y-128926000D01*
X286161000Y-129434000D02*
X286161000Y-129942000D01*
X286161000Y-129942000D02*
X285399000Y-129942000D01*
X285399000Y-129942000D02*
X285399000Y-129434000D01*
D17*
X277470000Y-128250000D02*
X277470000Y-128750000D01*
X278530000Y-128750000D02*
X278530000Y-128250000D01*
D16*
X275534000Y-129001000D02*
X276042000Y-129001000D01*
X276042000Y-129001000D02*
X276042000Y-128239000D01*
X276042000Y-128239000D02*
X275534000Y-128239000D01*
X275026000Y-129001000D02*
X274518000Y-129001000D01*
X274518000Y-129001000D02*
X274518000Y-128239000D01*
X274518000Y-128239000D02*
X275026000Y-128239000D01*
X273346000Y-129069000D02*
X272838000Y-129069000D01*
X272838000Y-129069000D02*
X272838000Y-129831000D01*
X272838000Y-129831000D02*
X273346000Y-129831000D01*
X273854000Y-129069000D02*
X274362000Y-129069000D01*
X274362000Y-129069000D02*
X274362000Y-129831000D01*
X274362000Y-129831000D02*
X273854000Y-129831000D01*
X302446000Y-134549000D02*
X301938000Y-134549000D01*
X301938000Y-134549000D02*
X301938000Y-135311000D01*
X301938000Y-135311000D02*
X302446000Y-135311000D01*
X302954000Y-134549000D02*
X303462000Y-134549000D01*
X303462000Y-134549000D02*
X303462000Y-135311000D01*
X303462000Y-135311000D02*
X302954000Y-135311000D01*
X302446000Y-137389000D02*
X301938000Y-137389000D01*
X301938000Y-137389000D02*
X301938000Y-138151000D01*
X301938000Y-138151000D02*
X302446000Y-138151000D01*
X302954000Y-137389000D02*
X303462000Y-137389000D01*
X303462000Y-137389000D02*
X303462000Y-138151000D01*
X303462000Y-138151000D02*
X302954000Y-138151000D01*
X302436000Y-135919000D02*
X301928000Y-135919000D01*
X301928000Y-135919000D02*
X301928000Y-136681000D01*
X301928000Y-136681000D02*
X302436000Y-136681000D01*
X302944000Y-135919000D02*
X303452000Y-135919000D01*
X303452000Y-135919000D02*
X303452000Y-136681000D01*
X303452000Y-136681000D02*
X302944000Y-136681000D01*
X302446000Y-132994000D02*
X301938000Y-132994000D01*
X301938000Y-132994000D02*
X301938000Y-133756000D01*
X301938000Y-133756000D02*
X302446000Y-133756000D01*
X302954000Y-132994000D02*
X303462000Y-132994000D01*
X303462000Y-132994000D02*
X303462000Y-133756000D01*
X303462000Y-133756000D02*
X302954000Y-133756000D01*
D17*
X307870000Y-129690000D02*
X307990000Y-129690000D01*
X307990000Y-129690000D02*
X307990000Y-126910000D01*
X307990000Y-126910000D02*
X307870000Y-126910000D01*
X307870000Y-126910000D02*
X307870000Y-129690000D01*
X306600000Y-129690000D02*
X305210000Y-129690000D01*
X305210000Y-129690000D02*
X305210000Y-128300000D01*
D10*
X289800000Y-129000000D02*
X288450000Y-129000000D01*
X289800000Y-128100000D02*
X289800000Y-128950000D01*
X288400000Y-128150000D02*
X288400000Y-129000000D01*
X288500000Y-128100000D02*
X289650000Y-128100000D01*
X288600000Y-129100000D02*
X289550000Y-129100000D01*
X288550000Y-129000000D02*
X289650000Y-129000000D01*
X288500000Y-128150000D02*
X289700000Y-128150000D01*
D18*
X289100000Y-128800000D02*
X289100000Y-128300000D01*
D19*
X288465000Y-128893000D02*
X288465000Y-126607000D01*
X288465000Y-126607000D02*
X289735000Y-126607000D01*
X289735000Y-126607000D02*
X289735000Y-128893000D01*
X289735000Y-128893000D02*
X288465000Y-128893000D01*
D20*
X304030000Y-125790000D02*
X304030000Y-128330000D01*
X304030000Y-128330000D02*
X298950000Y-128330000D01*
X298950000Y-128330000D02*
X298950000Y-125790000D01*
X298950000Y-125790000D02*
X304030000Y-125790000D01*
D16*
X297456000Y-128571000D02*
X297456000Y-128063000D01*
X297456000Y-128063000D02*
X296694000Y-128063000D01*
X296694000Y-128063000D02*
X296694000Y-128571000D01*
X297456000Y-129079000D02*
X297456000Y-129587000D01*
X297456000Y-129587000D02*
X296694000Y-129587000D01*
X296694000Y-129587000D02*
X296694000Y-129079000D01*
D10*
X297175000Y-142075000D02*
X297175000Y-141125000D01*
X286825000Y-142075000D02*
X286825000Y-141025000D01*
X286825000Y-131725000D02*
X286825000Y-132775000D01*
X297175000Y-131725000D02*
X297175000Y-132775000D01*
X297175000Y-142075000D02*
X296125000Y-142075000D01*
X297175000Y-131725000D02*
X296125000Y-131725000D01*
X286825000Y-131725000D02*
X287875000Y-131725000D01*
X286825000Y-142075000D02*
X287875000Y-142075000D01*
X297175000Y-141125000D02*
X298450000Y-141125000D01*
D16*
X288296000Y-144569000D02*
X287788000Y-144569000D01*
X287788000Y-144569000D02*
X287788000Y-145331000D01*
X287788000Y-145331000D02*
X288296000Y-145331000D01*
X288804000Y-144569000D02*
X289312000Y-144569000D01*
X289312000Y-144569000D02*
X289312000Y-145331000D01*
X289312000Y-145331000D02*
X288804000Y-145331000D01*
D17*
X279850000Y-138100000D02*
X278850000Y-138100000D01*
X278850000Y-138100000D02*
X278850000Y-140200000D01*
X279850000Y-138100000D02*
X279850000Y-140200000D01*
D16*
X288296000Y-145619000D02*
X287788000Y-145619000D01*
X287788000Y-145619000D02*
X287788000Y-146381000D01*
X287788000Y-146381000D02*
X288296000Y-146381000D01*
X288804000Y-145619000D02*
X289312000Y-145619000D01*
X289312000Y-145619000D02*
X289312000Y-146381000D01*
X289312000Y-146381000D02*
X288804000Y-146381000D01*
D17*
X272612500Y-144047500D02*
X274512500Y-144047500D01*
X274012500Y-141727500D02*
X272612500Y-141727500D01*
D16*
X290419000Y-127654000D02*
X290419000Y-128162000D01*
X290419000Y-128162000D02*
X291181000Y-128162000D01*
X291181000Y-128162000D02*
X291181000Y-127654000D01*
X290419000Y-127146000D02*
X290419000Y-126638000D01*
X290419000Y-126638000D02*
X291181000Y-126638000D01*
X291181000Y-126638000D02*
X291181000Y-127146000D01*
X296406000Y-128571000D02*
X296406000Y-128063000D01*
X296406000Y-128063000D02*
X295644000Y-128063000D01*
X295644000Y-128063000D02*
X295644000Y-128571000D01*
X296406000Y-129079000D02*
X296406000Y-129587000D01*
X296406000Y-129587000D02*
X295644000Y-129587000D01*
X295644000Y-129587000D02*
X295644000Y-129079000D01*
X285146000Y-142294000D02*
X284638000Y-142294000D01*
X284638000Y-142294000D02*
X284638000Y-143056000D01*
X284638000Y-143056000D02*
X285146000Y-143056000D01*
X285654000Y-142294000D02*
X286162000Y-142294000D01*
X286162000Y-142294000D02*
X286162000Y-143056000D01*
X286162000Y-143056000D02*
X285654000Y-143056000D01*
X301221000Y-131494000D02*
X300713000Y-131494000D01*
X300713000Y-131494000D02*
X300713000Y-132256000D01*
X300713000Y-132256000D02*
X301221000Y-132256000D01*
X301729000Y-131494000D02*
X302237000Y-131494000D01*
X302237000Y-131494000D02*
X302237000Y-132256000D01*
X302237000Y-132256000D02*
X301729000Y-132256000D01*
X285654000Y-144131000D02*
X286162000Y-144131000D01*
X286162000Y-144131000D02*
X286162000Y-143369000D01*
X286162000Y-143369000D02*
X285654000Y-143369000D01*
X285146000Y-144131000D02*
X284638000Y-144131000D01*
X284638000Y-144131000D02*
X284638000Y-143369000D01*
X284638000Y-143369000D02*
X285146000Y-143369000D01*
X291696000Y-145469000D02*
X291188000Y-145469000D01*
X291188000Y-145469000D02*
X291188000Y-146231000D01*
X291188000Y-146231000D02*
X291696000Y-146231000D01*
X292204000Y-145469000D02*
X292712000Y-145469000D01*
X292712000Y-145469000D02*
X292712000Y-146231000D01*
X292712000Y-146231000D02*
X292204000Y-146231000D01*
X291696000Y-144344000D02*
X291188000Y-144344000D01*
X291188000Y-144344000D02*
X291188000Y-145106000D01*
X291188000Y-145106000D02*
X291696000Y-145106000D01*
X292204000Y-144344000D02*
X292712000Y-144344000D01*
X292712000Y-144344000D02*
X292712000Y-145106000D01*
X292712000Y-145106000D02*
X292204000Y-145106000D01*
X294554000Y-146281000D02*
X295062000Y-146281000D01*
X295062000Y-146281000D02*
X295062000Y-145519000D01*
X295062000Y-145519000D02*
X294554000Y-145519000D01*
X294046000Y-146281000D02*
X293538000Y-146281000D01*
X293538000Y-146281000D02*
X293538000Y-145519000D01*
X293538000Y-145519000D02*
X294046000Y-145519000D01*
X287356000Y-129971000D02*
X287356000Y-129463000D01*
X287356000Y-129463000D02*
X286594000Y-129463000D01*
X286594000Y-129463000D02*
X286594000Y-129971000D01*
X287356000Y-130479000D02*
X287356000Y-130987000D01*
X287356000Y-130987000D02*
X286594000Y-130987000D01*
X286594000Y-130987000D02*
X286594000Y-130479000D01*
X294554000Y-145106000D02*
X295062000Y-145106000D01*
X295062000Y-145106000D02*
X295062000Y-144344000D01*
X295062000Y-144344000D02*
X294554000Y-144344000D01*
X294046000Y-145106000D02*
X293538000Y-145106000D01*
X293538000Y-145106000D02*
X293538000Y-144344000D01*
X293538000Y-144344000D02*
X294046000Y-144344000D01*
X294156000Y-127146000D02*
X294156000Y-126638000D01*
X294156000Y-126638000D02*
X293394000Y-126638000D01*
X293394000Y-126638000D02*
X293394000Y-127146000D01*
X294156000Y-127654000D02*
X294156000Y-128162000D01*
X294156000Y-128162000D02*
X293394000Y-128162000D01*
X293394000Y-128162000D02*
X293394000Y-127654000D01*
X300581000Y-130496000D02*
X300581000Y-129988000D01*
X300581000Y-129988000D02*
X299819000Y-129988000D01*
X299819000Y-129988000D02*
X299819000Y-130496000D01*
X300581000Y-131004000D02*
X300581000Y-131512000D01*
X300581000Y-131512000D02*
X299819000Y-131512000D01*
X299819000Y-131512000D02*
X299819000Y-131004000D01*
X299356000Y-130496000D02*
X299356000Y-129988000D01*
X299356000Y-129988000D02*
X298594000Y-129988000D01*
X298594000Y-129988000D02*
X298594000Y-130496000D01*
X299356000Y-131004000D02*
X299356000Y-131512000D01*
X299356000Y-131512000D02*
X298594000Y-131512000D01*
X298594000Y-131512000D02*
X298594000Y-131004000D01*
D19*
X292910000Y-126582000D02*
X292910000Y-128868000D01*
X292910000Y-128868000D02*
X291640000Y-128868000D01*
X291640000Y-128868000D02*
X291640000Y-126582000D01*
X291640000Y-126582000D02*
X292910000Y-126582000D01*
X278860000Y-141657000D02*
X278860000Y-143943000D01*
X278860000Y-143943000D02*
X277590000Y-143943000D01*
X277590000Y-143943000D02*
X277590000Y-141657000D01*
X277590000Y-141657000D02*
X278860000Y-141657000D01*
X271347500Y-141544500D02*
X271347500Y-143830500D01*
X271347500Y-143830500D02*
X270077500Y-143830500D01*
X270077500Y-143830500D02*
X270077500Y-141544500D01*
X270077500Y-141544500D02*
X271347500Y-141544500D01*
D16*
X272958500Y-140906500D02*
X272450500Y-140906500D01*
X272450500Y-140906500D02*
X272450500Y-141668500D01*
X272450500Y-141668500D02*
X272958500Y-141668500D01*
X273466500Y-140906500D02*
X273974500Y-140906500D01*
X273974500Y-140906500D02*
X273974500Y-141668500D01*
X273974500Y-141668500D02*
X273466500Y-141668500D01*
X274981500Y-143341500D02*
X274981500Y-143849500D01*
X274981500Y-143849500D02*
X275743500Y-143849500D01*
X275743500Y-143849500D02*
X275743500Y-143341500D01*
X274981500Y-142833500D02*
X274981500Y-142325500D01*
X274981500Y-142325500D02*
X275743500Y-142325500D01*
X275743500Y-142325500D02*
X275743500Y-142833500D01*
X280471000Y-140719000D02*
X279963000Y-140719000D01*
X279963000Y-140719000D02*
X279963000Y-141481000D01*
X279963000Y-141481000D02*
X280471000Y-141481000D01*
X280979000Y-140719000D02*
X281487000Y-140719000D01*
X281487000Y-140719000D02*
X281487000Y-141481000D01*
X281487000Y-141481000D02*
X280979000Y-141481000D01*
X282644000Y-143254000D02*
X282644000Y-143762000D01*
X282644000Y-143762000D02*
X283406000Y-143762000D01*
X283406000Y-143762000D02*
X283406000Y-143254000D01*
X282644000Y-142746000D02*
X282644000Y-142238000D01*
X282644000Y-142238000D02*
X283406000Y-142238000D01*
X283406000Y-142238000D02*
X283406000Y-142746000D01*
X299694000Y-144354000D02*
X299694000Y-144862000D01*
X299694000Y-144862000D02*
X300456000Y-144862000D01*
X300456000Y-144862000D02*
X300456000Y-144354000D01*
X299694000Y-143846000D02*
X299694000Y-143338000D01*
X299694000Y-143338000D02*
X300456000Y-143338000D01*
X300456000Y-143338000D02*
X300456000Y-143846000D01*
X300794000Y-144354000D02*
X300794000Y-144862000D01*
X300794000Y-144862000D02*
X301556000Y-144862000D01*
X301556000Y-144862000D02*
X301556000Y-144354000D01*
X300794000Y-143846000D02*
X300794000Y-143338000D01*
X300794000Y-143338000D02*
X301556000Y-143338000D01*
X301556000Y-143338000D02*
X301556000Y-143846000D01*
X300396000Y-132619000D02*
X299888000Y-132619000D01*
X299888000Y-132619000D02*
X299888000Y-133381000D01*
X299888000Y-133381000D02*
X300396000Y-133381000D01*
X300904000Y-132619000D02*
X301412000Y-132619000D01*
X301412000Y-132619000D02*
X301412000Y-133381000D01*
X301412000Y-133381000D02*
X300904000Y-133381000D01*
X300371000Y-133869000D02*
X299863000Y-133869000D01*
X299863000Y-133869000D02*
X299863000Y-134631000D01*
X299863000Y-134631000D02*
X300371000Y-134631000D01*
X300879000Y-133869000D02*
X301387000Y-133869000D01*
X301387000Y-133869000D02*
X301387000Y-134631000D01*
X301387000Y-134631000D02*
X300879000Y-134631000D01*
X300396000Y-135309000D02*
X299888000Y-135309000D01*
X299888000Y-135309000D02*
X299888000Y-136071000D01*
X299888000Y-136071000D02*
X300396000Y-136071000D01*
X300904000Y-135309000D02*
X301412000Y-135309000D01*
X301412000Y-135309000D02*
X301412000Y-136071000D01*
X301412000Y-136071000D02*
X300904000Y-136071000D01*
X300396000Y-136529000D02*
X299888000Y-136529000D01*
X299888000Y-136529000D02*
X299888000Y-137291000D01*
X299888000Y-137291000D02*
X300396000Y-137291000D01*
X300904000Y-136529000D02*
X301412000Y-136529000D01*
X301412000Y-136529000D02*
X301412000Y-137291000D01*
X301412000Y-137291000D02*
X300904000Y-137291000D01*
D17*
X278650000Y-138100000D02*
X277650000Y-138100000D01*
X277650000Y-138100000D02*
X277650000Y-140200000D01*
X278650000Y-138100000D02*
X278650000Y-140200000D01*
D20*
X269545000Y-143090000D02*
X267005000Y-143090000D01*
X267005000Y-143090000D02*
X267005000Y-138010000D01*
X267005000Y-138010000D02*
X269545000Y-138010000D01*
X269545000Y-138010000D02*
X269545000Y-143090000D01*
D19*
X273313000Y-139255000D02*
X271027000Y-139255000D01*
X271027000Y-139255000D02*
X271027000Y-137985000D01*
X271027000Y-137985000D02*
X273313000Y-137985000D01*
X273313000Y-137985000D02*
X273313000Y-139255000D01*
D10*
X272500000Y-134050000D02*
X272500000Y-134100000D01*
X272500000Y-134050000D02*
X272500000Y-134000000D01*
X270500000Y-134050000D02*
X270500000Y-134100000D01*
X270500000Y-134050000D02*
X270500000Y-134000000D01*
X271500000Y-134850000D02*
X271650000Y-134850000D01*
X271500000Y-134850000D02*
X271350000Y-134850000D01*
X271500000Y-133250000D02*
X271650000Y-133250000D01*
X271500000Y-133250000D02*
X271350000Y-133250000D01*
D16*
X275831000Y-140296000D02*
X275831000Y-139788000D01*
X275831000Y-139788000D02*
X275069000Y-139788000D01*
X275069000Y-139788000D02*
X275069000Y-140296000D01*
X275831000Y-140804000D02*
X275831000Y-141312000D01*
X275831000Y-141312000D02*
X275069000Y-141312000D01*
X275069000Y-141312000D02*
X275069000Y-140804000D01*
X273454000Y-140581000D02*
X273962000Y-140581000D01*
X273962000Y-140581000D02*
X273962000Y-139819000D01*
X273962000Y-139819000D02*
X273454000Y-139819000D01*
X272946000Y-140581000D02*
X272438000Y-140581000D01*
X272438000Y-140581000D02*
X272438000Y-139819000D01*
X272438000Y-139819000D02*
X272946000Y-139819000D01*
X270181000Y-133946000D02*
X270181000Y-133438000D01*
X270181000Y-133438000D02*
X269419000Y-133438000D01*
X269419000Y-133438000D02*
X269419000Y-133946000D01*
X270181000Y-134454000D02*
X270181000Y-134962000D01*
X270181000Y-134962000D02*
X269419000Y-134962000D01*
X269419000Y-134962000D02*
X269419000Y-134454000D01*
X272819000Y-134354000D02*
X272819000Y-134862000D01*
X272819000Y-134862000D02*
X273581000Y-134862000D01*
X273581000Y-134862000D02*
X273581000Y-134354000D01*
X272819000Y-133846000D02*
X272819000Y-133338000D01*
X272819000Y-133338000D02*
X273581000Y-133338000D01*
X273581000Y-133338000D02*
X273581000Y-133846000D01*
X276704000Y-129831000D02*
X277212000Y-129831000D01*
X277212000Y-129831000D02*
X277212000Y-129069000D01*
X277212000Y-129069000D02*
X276704000Y-129069000D01*
X276196000Y-129831000D02*
X275688000Y-129831000D01*
X275688000Y-129831000D02*
X275688000Y-129069000D01*
X275688000Y-129069000D02*
X276196000Y-129069000D01*
X277231000Y-140296000D02*
X277231000Y-139788000D01*
X277231000Y-139788000D02*
X276469000Y-139788000D01*
X276469000Y-139788000D02*
X276469000Y-140296000D01*
X277231000Y-140804000D02*
X277231000Y-141312000D01*
X277231000Y-141312000D02*
X276469000Y-141312000D01*
X276469000Y-141312000D02*
X276469000Y-140804000D01*
D10*
X266645000Y-126673000D02*
X271445000Y-126673000D01*
X271445000Y-126673000D02*
X271445000Y-128673000D01*
X271345000Y-128673000D02*
X266645000Y-128673000D01*
X266645000Y-128673000D02*
X266645000Y-126673000D01*
X271445000Y-128673000D02*
X271345000Y-128673000D01*
D16*
X272654000Y-128081000D02*
X273162000Y-128081000D01*
X273162000Y-128081000D02*
X273162000Y-127319000D01*
X273162000Y-127319000D02*
X272654000Y-127319000D01*
X272146000Y-128081000D02*
X271638000Y-128081000D01*
X271638000Y-128081000D02*
X271638000Y-127319000D01*
X271638000Y-127319000D02*
X272146000Y-127319000D01*
X274381000Y-127846000D02*
X274381000Y-127338000D01*
X274381000Y-127338000D02*
X273619000Y-127338000D01*
X273619000Y-127338000D02*
X273619000Y-127846000D01*
X274381000Y-128354000D02*
X274381000Y-128862000D01*
X274381000Y-128862000D02*
X273619000Y-128862000D01*
X273619000Y-128862000D02*
X273619000Y-128354000D01*
X275854000Y-128081000D02*
X276362000Y-128081000D01*
X276362000Y-128081000D02*
X276362000Y-127319000D01*
X276362000Y-127319000D02*
X275854000Y-127319000D01*
X275346000Y-128081000D02*
X274838000Y-128081000D01*
X274838000Y-128081000D02*
X274838000Y-127319000D01*
X274838000Y-127319000D02*
X275346000Y-127319000D01*
X271926000Y-136889000D02*
X271418000Y-136889000D01*
X271418000Y-136889000D02*
X271418000Y-137651000D01*
X271418000Y-137651000D02*
X271926000Y-137651000D01*
X272434000Y-136889000D02*
X272942000Y-136889000D01*
X272942000Y-136889000D02*
X272942000Y-137651000D01*
X272942000Y-137651000D02*
X272434000Y-137651000D01*
D19*
X273643000Y-136635000D02*
X271357000Y-136635000D01*
X271357000Y-136635000D02*
X271357000Y-135365000D01*
X271357000Y-135365000D02*
X273643000Y-135365000D01*
X273643000Y-135365000D02*
X273643000Y-136635000D01*
X280407000Y-138165000D02*
X282693000Y-138165000D01*
X282693000Y-138165000D02*
X282693000Y-139435000D01*
X282693000Y-139435000D02*
X280407000Y-139435000D01*
X280407000Y-139435000D02*
X280407000Y-138165000D01*
D17*
X280125000Y-144160000D02*
X282025000Y-144160000D01*
X281525000Y-141840000D02*
X280125000Y-141840000D01*
X307610000Y-145040000D02*
X307730000Y-145040000D01*
X307730000Y-145040000D02*
X307730000Y-142260000D01*
X307730000Y-142260000D02*
X307610000Y-142260000D01*
X307610000Y-142260000D02*
X307610000Y-145040000D01*
X306340000Y-145040000D02*
X304950000Y-145040000D01*
X304950000Y-145040000D02*
X304950000Y-143650000D01*
X304550000Y-133810000D02*
X304550000Y-141490000D01*
X304550000Y-141490000D02*
X309750000Y-141490000D01*
X309750000Y-141490000D02*
X309750000Y-131210000D01*
X309750000Y-131210000D02*
X307150000Y-131210000D01*
X307150000Y-131210000D02*
X307150000Y-133810000D01*
X307150000Y-133810000D02*
X304550000Y-133810000D01*
X304550000Y-132540000D02*
X304550000Y-131210000D01*
X304550000Y-131210000D02*
X305880000Y-131210000D01*
D10*
X274675000Y-130875000D02*
X275275000Y-130875000D01*
X280925000Y-137125000D02*
X280325000Y-137125000D01*
X280925000Y-130875000D02*
X280325000Y-130875000D01*
X274675000Y-137125000D02*
X274675000Y-136525000D01*
X280925000Y-137125000D02*
X280925000Y-136525000D01*
X280925000Y-130875000D02*
X280925000Y-131475000D01*
X274675000Y-130875000D02*
X274675000Y-131475000D01*
D17*
X274950000Y-139650000D02*
X277350000Y-139650000D01*
X277350000Y-139650000D02*
X277350000Y-138050000D01*
X277350000Y-138050000D02*
X274950000Y-138050000D01*
D16*
X273874057Y-138745186D02*
X273859543Y-138761877D01*
X273816000Y-138778569D01*
X273786971Y-138778569D01*
X273743428Y-138761877D01*
X273714400Y-138728494D01*
X273699885Y-138695111D01*
X273685371Y-138628346D01*
X273685371Y-138578271D01*
X273699885Y-138511506D01*
X273714400Y-138478123D01*
X273743428Y-138444740D01*
X273786971Y-138428049D01*
X273816000Y-138428049D01*
X273859543Y-138444740D01*
X273874057Y-138461431D01*
X273990171Y-138461431D02*
X274004685Y-138444740D01*
X274033714Y-138428049D01*
X274106285Y-138428049D01*
X274135314Y-138444740D01*
X274149828Y-138461431D01*
X274164343Y-138494814D01*
X274164343Y-138528197D01*
X274149828Y-138578271D01*
X273975657Y-138778569D01*
X274164343Y-138778569D01*
X274454629Y-138778569D02*
X274280457Y-138778569D01*
X274367543Y-138778569D02*
X274367543Y-138428049D01*
X274338514Y-138478123D01*
X274309486Y-138511506D01*
X274280457Y-138528197D01*
D11*
X282566190Y-129070952D02*
X282970952Y-129070952D01*
X283018571Y-129047143D01*
X283042381Y-129023333D01*
X283066190Y-128975714D01*
X283066190Y-128880476D01*
X283042381Y-128832857D01*
X283018571Y-128809048D01*
X282970952Y-128785238D01*
X282566190Y-128785238D01*
X282732857Y-128332857D02*
X283066190Y-128332857D01*
X282542381Y-128451904D02*
X282899524Y-128570952D01*
X282899524Y-128261428D01*
D16*
X283958569Y-132435943D02*
X283791654Y-132537543D01*
X283958569Y-132610115D02*
X283608049Y-132610115D01*
X283608049Y-132494000D01*
X283624740Y-132464972D01*
X283641431Y-132450457D01*
X283674814Y-132435943D01*
X283724889Y-132435943D01*
X283758271Y-132450457D01*
X283774963Y-132464972D01*
X283791654Y-132494000D01*
X283791654Y-132610115D01*
X283958569Y-132145657D02*
X283958569Y-132319829D01*
X283958569Y-132232743D02*
X283608049Y-132232743D01*
X283658123Y-132261772D01*
X283691506Y-132290800D01*
X283708197Y-132319829D01*
X283641431Y-132029543D02*
X283624740Y-132015029D01*
X283608049Y-131986000D01*
X283608049Y-131913429D01*
X283624740Y-131884400D01*
X283641431Y-131869886D01*
X283674814Y-131855371D01*
X283708197Y-131855371D01*
X283758271Y-131869886D01*
X283958569Y-132044057D01*
X283958569Y-131855371D01*
X284478569Y-131495943D02*
X284311654Y-131597543D01*
X284478569Y-131670115D02*
X284128049Y-131670115D01*
X284128049Y-131554000D01*
X284144740Y-131524972D01*
X284161431Y-131510457D01*
X284194814Y-131495943D01*
X284244889Y-131495943D01*
X284278271Y-131510457D01*
X284294963Y-131524972D01*
X284311654Y-131554000D01*
X284311654Y-131670115D01*
X284478569Y-131205657D02*
X284478569Y-131379829D01*
X284478569Y-131292743D02*
X284128049Y-131292743D01*
X284178123Y-131321772D01*
X284211506Y-131350800D01*
X284228197Y-131379829D01*
X284478569Y-130915371D02*
X284478569Y-131089543D01*
X284478569Y-131002457D02*
X284128049Y-131002457D01*
X284178123Y-131031486D01*
X284211506Y-131060514D01*
X284228197Y-131089543D01*
X285894057Y-126805186D02*
X285879543Y-126821877D01*
X285836000Y-126838569D01*
X285806971Y-126838569D01*
X285763428Y-126821877D01*
X285734400Y-126788494D01*
X285719885Y-126755111D01*
X285705371Y-126688346D01*
X285705371Y-126638271D01*
X285719885Y-126571506D01*
X285734400Y-126538123D01*
X285763428Y-126504740D01*
X285806971Y-126488049D01*
X285836000Y-126488049D01*
X285879543Y-126504740D01*
X285894057Y-126521431D01*
X285995657Y-126488049D02*
X286184343Y-126488049D01*
X286082743Y-126621580D01*
X286126285Y-126621580D01*
X286155314Y-126638271D01*
X286169828Y-126654963D01*
X286184343Y-126688346D01*
X286184343Y-126771803D01*
X286169828Y-126805186D01*
X286155314Y-126821877D01*
X286126285Y-126838569D01*
X286039200Y-126838569D01*
X286010171Y-126821877D01*
X285995657Y-126805186D01*
X286445600Y-126488049D02*
X286387543Y-126488049D01*
X286358514Y-126504740D01*
X286344000Y-126521431D01*
X286314971Y-126571506D01*
X286300457Y-126638271D01*
X286300457Y-126771803D01*
X286314971Y-126805186D01*
X286329486Y-126821877D01*
X286358514Y-126838569D01*
X286416571Y-126838569D01*
X286445600Y-126821877D01*
X286460114Y-126805186D01*
X286474629Y-126771803D01*
X286474629Y-126688346D01*
X286460114Y-126654963D01*
X286445600Y-126638271D01*
X286416571Y-126621580D01*
X286358514Y-126621580D01*
X286329486Y-126638271D01*
X286314971Y-126654963D01*
X286300457Y-126688346D01*
X285564057Y-130375186D02*
X285549543Y-130391877D01*
X285506000Y-130408569D01*
X285476971Y-130408569D01*
X285433428Y-130391877D01*
X285404400Y-130358494D01*
X285389885Y-130325111D01*
X285375371Y-130258346D01*
X285375371Y-130208271D01*
X285389885Y-130141506D01*
X285404400Y-130108123D01*
X285433428Y-130074740D01*
X285476971Y-130058049D01*
X285506000Y-130058049D01*
X285549543Y-130074740D01*
X285564057Y-130091431D01*
X285665657Y-130058049D02*
X285854343Y-130058049D01*
X285752743Y-130191580D01*
X285796285Y-130191580D01*
X285825314Y-130208271D01*
X285839828Y-130224963D01*
X285854343Y-130258346D01*
X285854343Y-130341803D01*
X285839828Y-130375186D01*
X285825314Y-130391877D01*
X285796285Y-130408569D01*
X285709200Y-130408569D01*
X285680171Y-130391877D01*
X285665657Y-130375186D01*
X286130114Y-130058049D02*
X285984971Y-130058049D01*
X285970457Y-130224963D01*
X285984971Y-130208271D01*
X286014000Y-130191580D01*
X286086571Y-130191580D01*
X286115600Y-130208271D01*
X286130114Y-130224963D01*
X286144629Y-130258346D01*
X286144629Y-130341803D01*
X286130114Y-130375186D01*
X286115600Y-130391877D01*
X286086571Y-130408569D01*
X286014000Y-130408569D01*
X285984971Y-130391877D01*
X285970457Y-130375186D01*
D12*
X278683334Y-127754286D02*
X278516668Y-127754286D01*
X278516668Y-128016190D02*
X278516668Y-127516190D01*
X278754763Y-127516190D01*
X279207143Y-128016190D02*
X278921429Y-128016190D01*
X279064286Y-128016190D02*
X279064286Y-127516190D01*
X279016667Y-127587619D01*
X278969048Y-127635238D01*
X278921429Y-127659048D01*
D16*
X275405186Y-128815943D02*
X275421877Y-128830457D01*
X275438569Y-128874000D01*
X275438569Y-128903029D01*
X275421877Y-128946572D01*
X275388494Y-128975600D01*
X275355111Y-128990115D01*
X275288346Y-129004629D01*
X275238271Y-129004629D01*
X275171506Y-128990115D01*
X275138123Y-128975600D01*
X275104740Y-128946572D01*
X275088049Y-128903029D01*
X275088049Y-128874000D01*
X275104740Y-128830457D01*
X275121431Y-128815943D01*
X275088049Y-128714343D02*
X275088049Y-128525657D01*
X275221580Y-128627257D01*
X275221580Y-128583715D01*
X275238271Y-128554686D01*
X275254963Y-128540172D01*
X275288346Y-128525657D01*
X275371803Y-128525657D01*
X275405186Y-128540172D01*
X275421877Y-128554686D01*
X275438569Y-128583715D01*
X275438569Y-128670800D01*
X275421877Y-128699829D01*
X275405186Y-128714343D01*
X275204889Y-128264400D02*
X275438569Y-128264400D01*
X275071357Y-128336971D02*
X275321729Y-128409543D01*
X275321729Y-128220857D01*
X273714057Y-130275186D02*
X273699543Y-130291877D01*
X273656000Y-130308569D01*
X273626971Y-130308569D01*
X273583428Y-130291877D01*
X273554400Y-130258494D01*
X273539885Y-130225111D01*
X273525371Y-130158346D01*
X273525371Y-130108271D01*
X273539885Y-130041506D01*
X273554400Y-130008123D01*
X273583428Y-129974740D01*
X273626971Y-129958049D01*
X273656000Y-129958049D01*
X273699543Y-129974740D01*
X273714057Y-129991431D01*
X273815657Y-129958049D02*
X274004343Y-129958049D01*
X273902743Y-130091580D01*
X273946285Y-130091580D01*
X273975314Y-130108271D01*
X273989828Y-130124963D01*
X274004343Y-130158346D01*
X274004343Y-130241803D01*
X273989828Y-130275186D01*
X273975314Y-130291877D01*
X273946285Y-130308569D01*
X273859200Y-130308569D01*
X273830171Y-130291877D01*
X273815657Y-130275186D01*
X274105943Y-129958049D02*
X274294629Y-129958049D01*
X274193029Y-130091580D01*
X274236571Y-130091580D01*
X274265600Y-130108271D01*
X274280114Y-130124963D01*
X274294629Y-130158346D01*
X274294629Y-130241803D01*
X274280114Y-130275186D01*
X274265600Y-130291877D01*
X274236571Y-130308569D01*
X274149486Y-130308569D01*
X274120457Y-130291877D01*
X274105943Y-130275186D01*
X301858569Y-134950800D02*
X301691654Y-135052400D01*
X301858569Y-135124972D02*
X301508049Y-135124972D01*
X301508049Y-135008857D01*
X301524740Y-134979829D01*
X301541431Y-134965314D01*
X301574814Y-134950800D01*
X301624889Y-134950800D01*
X301658271Y-134965314D01*
X301674963Y-134979829D01*
X301691654Y-135008857D01*
X301691654Y-135124972D01*
X301858569Y-134805657D02*
X301858569Y-134747600D01*
X301841877Y-134718572D01*
X301825186Y-134704057D01*
X301775111Y-134675029D01*
X301708346Y-134660514D01*
X301574814Y-134660514D01*
X301541431Y-134675029D01*
X301524740Y-134689543D01*
X301508049Y-134718572D01*
X301508049Y-134776629D01*
X301524740Y-134805657D01*
X301541431Y-134820172D01*
X301574814Y-134834686D01*
X301658271Y-134834686D01*
X301691654Y-134820172D01*
X301708346Y-134805657D01*
X301725037Y-134776629D01*
X301725037Y-134718572D01*
X301708346Y-134689543D01*
X301691654Y-134675029D01*
X301658271Y-134660514D01*
X301858569Y-137800800D02*
X301691654Y-137902400D01*
X301858569Y-137974972D02*
X301508049Y-137974972D01*
X301508049Y-137858857D01*
X301524740Y-137829829D01*
X301541431Y-137815314D01*
X301574814Y-137800800D01*
X301624889Y-137800800D01*
X301658271Y-137815314D01*
X301674963Y-137829829D01*
X301691654Y-137858857D01*
X301691654Y-137974972D01*
X301508049Y-137699200D02*
X301508049Y-137496000D01*
X301858569Y-137626629D01*
X301858569Y-136350800D02*
X301691654Y-136452400D01*
X301858569Y-136524972D02*
X301508049Y-136524972D01*
X301508049Y-136408857D01*
X301524740Y-136379829D01*
X301541431Y-136365314D01*
X301574814Y-136350800D01*
X301624889Y-136350800D01*
X301658271Y-136365314D01*
X301674963Y-136379829D01*
X301691654Y-136408857D01*
X301691654Y-136524972D01*
X301658271Y-136176629D02*
X301641580Y-136205657D01*
X301624889Y-136220172D01*
X301591506Y-136234686D01*
X301574814Y-136234686D01*
X301541431Y-136220172D01*
X301524740Y-136205657D01*
X301508049Y-136176629D01*
X301508049Y-136118572D01*
X301524740Y-136089543D01*
X301541431Y-136075029D01*
X301574814Y-136060514D01*
X301591506Y-136060514D01*
X301624889Y-136075029D01*
X301641580Y-136089543D01*
X301658271Y-136118572D01*
X301658271Y-136176629D01*
X301674963Y-136205657D01*
X301691654Y-136220172D01*
X301725037Y-136234686D01*
X301791803Y-136234686D01*
X301825186Y-136220172D01*
X301841877Y-136205657D01*
X301858569Y-136176629D01*
X301858569Y-136118572D01*
X301841877Y-136089543D01*
X301825186Y-136075029D01*
X301791803Y-136060514D01*
X301725037Y-136060514D01*
X301691654Y-136075029D01*
X301674963Y-136089543D01*
X301658271Y-136118572D01*
X301858569Y-133595943D02*
X301691654Y-133697543D01*
X301858569Y-133770115D02*
X301508049Y-133770115D01*
X301508049Y-133654000D01*
X301524740Y-133624972D01*
X301541431Y-133610457D01*
X301574814Y-133595943D01*
X301624889Y-133595943D01*
X301658271Y-133610457D01*
X301674963Y-133624972D01*
X301691654Y-133654000D01*
X301691654Y-133770115D01*
X301858569Y-133305657D02*
X301858569Y-133479829D01*
X301858569Y-133392743D02*
X301508049Y-133392743D01*
X301558123Y-133421772D01*
X301591506Y-133450800D01*
X301608197Y-133479829D01*
X301508049Y-133116971D02*
X301508049Y-133087943D01*
X301524740Y-133058914D01*
X301541431Y-133044400D01*
X301574814Y-133029886D01*
X301641580Y-133015371D01*
X301725037Y-133015371D01*
X301791803Y-133029886D01*
X301825186Y-133044400D01*
X301841877Y-133058914D01*
X301858569Y-133087943D01*
X301858569Y-133116971D01*
X301841877Y-133146000D01*
X301825186Y-133160514D01*
X301791803Y-133175029D01*
X301725037Y-133189543D01*
X301641580Y-133189543D01*
X301574814Y-133175029D01*
X301541431Y-133160514D01*
X301524740Y-133146000D01*
X301508049Y-133116971D01*
D21*
X288842858Y-126392857D02*
X288823810Y-126411905D01*
X288766667Y-126430952D01*
X288728572Y-126430952D01*
X288671429Y-126411905D01*
X288633334Y-126373810D01*
X288614286Y-126335714D01*
X288595238Y-126259524D01*
X288595238Y-126202381D01*
X288614286Y-126126190D01*
X288633334Y-126088095D01*
X288671429Y-126050000D01*
X288728572Y-126030952D01*
X288766667Y-126030952D01*
X288823810Y-126050000D01*
X288842858Y-126069048D01*
X289223810Y-126430952D02*
X288995238Y-126430952D01*
X289109524Y-126430952D02*
X289109524Y-126030952D01*
X289071429Y-126088095D01*
X289033334Y-126126190D01*
X288995238Y-126145238D01*
X289585714Y-126030952D02*
X289395238Y-126030952D01*
X289376190Y-126221429D01*
X289395238Y-126202381D01*
X289433333Y-126183333D01*
X289528571Y-126183333D01*
X289566667Y-126202381D01*
X289585714Y-126221429D01*
X289604762Y-126259524D01*
X289604762Y-126354762D01*
X289585714Y-126392857D01*
X289566667Y-126411905D01*
X289528571Y-126430952D01*
X289433333Y-126430952D01*
X289395238Y-126411905D01*
X289376190Y-126392857D01*
D16*
X297024200Y-127850186D02*
X297009686Y-127866877D01*
X296966143Y-127883569D01*
X296937114Y-127883569D01*
X296893571Y-127866877D01*
X296864543Y-127833494D01*
X296850028Y-127800111D01*
X296835514Y-127733346D01*
X296835514Y-127683271D01*
X296850028Y-127616506D01*
X296864543Y-127583123D01*
X296893571Y-127549740D01*
X296937114Y-127533049D01*
X296966143Y-127533049D01*
X297009686Y-127549740D01*
X297024200Y-127566431D01*
X297299971Y-127533049D02*
X297154828Y-127533049D01*
X297140314Y-127699963D01*
X297154828Y-127683271D01*
X297183857Y-127666580D01*
X297256428Y-127666580D01*
X297285457Y-127683271D01*
X297299971Y-127699963D01*
X297314486Y-127733346D01*
X297314486Y-127816803D01*
X297299971Y-127850186D01*
X297285457Y-127866877D01*
X297256428Y-127883569D01*
X297183857Y-127883569D01*
X297154828Y-127866877D01*
X297140314Y-127850186D01*
D10*
X297623810Y-142502381D02*
X297623810Y-141502381D01*
X298671429Y-142407143D02*
X298623810Y-142454762D01*
X298480953Y-142502381D01*
X298385715Y-142502381D01*
X298242857Y-142454762D01*
X298147619Y-142359524D01*
X298100000Y-142264286D01*
X298052381Y-142073810D01*
X298052381Y-141930952D01*
X298100000Y-141740476D01*
X298147619Y-141645238D01*
X298242857Y-141550000D01*
X298385715Y-141502381D01*
X298480953Y-141502381D01*
X298623810Y-141550000D01*
X298671429Y-141597619D01*
X299623810Y-142502381D02*
X299052381Y-142502381D01*
X299338095Y-142502381D02*
X299338095Y-141502381D01*
X299242857Y-141645238D01*
X299147619Y-141740476D01*
X299052381Y-141788095D01*
D16*
X288354057Y-144375186D02*
X288339543Y-144391877D01*
X288296000Y-144408569D01*
X288266971Y-144408569D01*
X288223428Y-144391877D01*
X288194400Y-144358494D01*
X288179885Y-144325111D01*
X288165371Y-144258346D01*
X288165371Y-144208271D01*
X288179885Y-144141506D01*
X288194400Y-144108123D01*
X288223428Y-144074740D01*
X288266971Y-144058049D01*
X288296000Y-144058049D01*
X288339543Y-144074740D01*
X288354057Y-144091431D01*
X288644343Y-144408569D02*
X288470171Y-144408569D01*
X288557257Y-144408569D02*
X288557257Y-144058049D01*
X288528228Y-144108123D01*
X288499200Y-144141506D01*
X288470171Y-144158197D01*
X288905600Y-144174889D02*
X288905600Y-144408569D01*
X288833029Y-144041357D02*
X288760457Y-144291729D01*
X288949143Y-144291729D01*
D12*
X278980953Y-139676190D02*
X278980953Y-139176190D01*
X279100000Y-139176190D01*
X279171429Y-139200000D01*
X279219048Y-139247619D01*
X279242857Y-139295238D01*
X279266667Y-139390476D01*
X279266667Y-139461905D01*
X279242857Y-139557143D01*
X279219048Y-139604762D01*
X279171429Y-139652381D01*
X279100000Y-139676190D01*
X278980953Y-139676190D01*
X279457143Y-139223810D02*
X279480953Y-139200000D01*
X279528572Y-139176190D01*
X279647619Y-139176190D01*
X279695238Y-139200000D01*
X279719048Y-139223810D01*
X279742857Y-139271429D01*
X279742857Y-139319048D01*
X279719048Y-139390476D01*
X279433334Y-139676190D01*
X279742857Y-139676190D01*
D16*
X288329057Y-146825186D02*
X288314543Y-146841877D01*
X288271000Y-146858569D01*
X288241971Y-146858569D01*
X288198428Y-146841877D01*
X288169400Y-146808494D01*
X288154885Y-146775111D01*
X288140371Y-146708346D01*
X288140371Y-146658271D01*
X288154885Y-146591506D01*
X288169400Y-146558123D01*
X288198428Y-146524740D01*
X288241971Y-146508049D01*
X288271000Y-146508049D01*
X288314543Y-146524740D01*
X288329057Y-146541431D01*
X288430657Y-146508049D02*
X288619343Y-146508049D01*
X288517743Y-146641580D01*
X288561285Y-146641580D01*
X288590314Y-146658271D01*
X288604828Y-146674963D01*
X288619343Y-146708346D01*
X288619343Y-146791803D01*
X288604828Y-146825186D01*
X288590314Y-146841877D01*
X288561285Y-146858569D01*
X288474200Y-146858569D01*
X288445171Y-146841877D01*
X288430657Y-146825186D01*
X288735457Y-146541431D02*
X288749971Y-146524740D01*
X288779000Y-146508049D01*
X288851571Y-146508049D01*
X288880600Y-146524740D01*
X288895114Y-146541431D01*
X288909629Y-146574814D01*
X288909629Y-146608197D01*
X288895114Y-146658271D01*
X288720943Y-146858569D01*
X288909629Y-146858569D01*
D12*
X272909048Y-142826190D02*
X272909048Y-143230952D01*
X272932857Y-143278571D01*
X272956667Y-143302381D01*
X273004286Y-143326190D01*
X273099524Y-143326190D01*
X273147143Y-143302381D01*
X273170952Y-143278571D01*
X273194762Y-143230952D01*
X273194762Y-142826190D01*
X273409048Y-142873810D02*
X273432858Y-142850000D01*
X273480477Y-142826190D01*
X273599524Y-142826190D01*
X273647143Y-142850000D01*
X273670953Y-142873810D01*
X273694762Y-142921429D01*
X273694762Y-142969048D01*
X273670953Y-143040476D01*
X273385239Y-143326190D01*
X273694762Y-143326190D01*
D16*
X290604057Y-128625186D02*
X290589543Y-128641877D01*
X290546000Y-128658569D01*
X290516971Y-128658569D01*
X290473428Y-128641877D01*
X290444400Y-128608494D01*
X290429885Y-128575111D01*
X290415371Y-128508346D01*
X290415371Y-128458271D01*
X290429885Y-128391506D01*
X290444400Y-128358123D01*
X290473428Y-128324740D01*
X290516971Y-128308049D01*
X290546000Y-128308049D01*
X290589543Y-128324740D01*
X290604057Y-128341431D01*
X290894343Y-128658569D02*
X290720171Y-128658569D01*
X290807257Y-128658569D02*
X290807257Y-128308049D01*
X290778228Y-128358123D01*
X290749200Y-128391506D01*
X290720171Y-128408197D01*
X291010457Y-128341431D02*
X291024971Y-128324740D01*
X291054000Y-128308049D01*
X291126571Y-128308049D01*
X291155600Y-128324740D01*
X291170114Y-128341431D01*
X291184629Y-128374814D01*
X291184629Y-128408197D01*
X291170114Y-128458271D01*
X290995943Y-128658569D01*
X291184629Y-128658569D01*
X295829057Y-127850186D02*
X295814543Y-127866877D01*
X295771000Y-127883569D01*
X295741971Y-127883569D01*
X295698428Y-127866877D01*
X295669400Y-127833494D01*
X295654885Y-127800111D01*
X295640371Y-127733346D01*
X295640371Y-127683271D01*
X295654885Y-127616506D01*
X295669400Y-127583123D01*
X295698428Y-127549740D01*
X295741971Y-127533049D01*
X295771000Y-127533049D01*
X295814543Y-127549740D01*
X295829057Y-127566431D01*
X295930657Y-127533049D02*
X296119343Y-127533049D01*
X296017743Y-127666580D01*
X296061285Y-127666580D01*
X296090314Y-127683271D01*
X296104828Y-127699963D01*
X296119343Y-127733346D01*
X296119343Y-127816803D01*
X296104828Y-127850186D01*
X296090314Y-127866877D01*
X296061285Y-127883569D01*
X295974200Y-127883569D01*
X295945171Y-127866877D01*
X295930657Y-127850186D01*
X296409629Y-127883569D02*
X296235457Y-127883569D01*
X296322543Y-127883569D02*
X296322543Y-127533049D01*
X296293514Y-127583123D01*
X296264486Y-127616506D01*
X296235457Y-127633197D01*
X285204057Y-142100186D02*
X285189543Y-142116877D01*
X285146000Y-142133569D01*
X285116971Y-142133569D01*
X285073428Y-142116877D01*
X285044400Y-142083494D01*
X285029885Y-142050111D01*
X285015371Y-141983346D01*
X285015371Y-141933271D01*
X285029885Y-141866506D01*
X285044400Y-141833123D01*
X285073428Y-141799740D01*
X285116971Y-141783049D01*
X285146000Y-141783049D01*
X285189543Y-141799740D01*
X285204057Y-141816431D01*
X285494343Y-142133569D02*
X285320171Y-142133569D01*
X285407257Y-142133569D02*
X285407257Y-141783049D01*
X285378228Y-141833123D01*
X285349200Y-141866506D01*
X285320171Y-141883197D01*
X285639486Y-142133569D02*
X285697543Y-142133569D01*
X285726571Y-142116877D01*
X285741086Y-142100186D01*
X285770114Y-142050111D01*
X285784629Y-141983346D01*
X285784629Y-141849814D01*
X285770114Y-141816431D01*
X285755600Y-141799740D01*
X285726571Y-141783049D01*
X285668514Y-141783049D01*
X285639486Y-141799740D01*
X285624971Y-141816431D01*
X285610457Y-141849814D01*
X285610457Y-141933271D01*
X285624971Y-141966654D01*
X285639486Y-141983346D01*
X285668514Y-142000037D01*
X285726571Y-142000037D01*
X285755600Y-141983346D01*
X285770114Y-141966654D01*
X285784629Y-141933271D01*
X300608569Y-131900800D02*
X300441654Y-132002400D01*
X300608569Y-132074972D02*
X300258049Y-132074972D01*
X300258049Y-131958857D01*
X300274740Y-131929829D01*
X300291431Y-131915314D01*
X300324814Y-131900800D01*
X300374889Y-131900800D01*
X300408271Y-131915314D01*
X300424963Y-131929829D01*
X300441654Y-131958857D01*
X300441654Y-132074972D01*
X300258049Y-131625029D02*
X300258049Y-131770172D01*
X300424963Y-131784686D01*
X300408271Y-131770172D01*
X300391580Y-131741143D01*
X300391580Y-131668572D01*
X300408271Y-131639543D01*
X300424963Y-131625029D01*
X300458346Y-131610514D01*
X300541803Y-131610514D01*
X300575186Y-131625029D01*
X300591877Y-131639543D01*
X300608569Y-131668572D01*
X300608569Y-131741143D01*
X300591877Y-131770172D01*
X300575186Y-131784686D01*
X285204057Y-144575186D02*
X285189543Y-144591877D01*
X285146000Y-144608569D01*
X285116971Y-144608569D01*
X285073428Y-144591877D01*
X285044400Y-144558494D01*
X285029885Y-144525111D01*
X285015371Y-144458346D01*
X285015371Y-144408271D01*
X285029885Y-144341506D01*
X285044400Y-144308123D01*
X285073428Y-144274740D01*
X285116971Y-144258049D01*
X285146000Y-144258049D01*
X285189543Y-144274740D01*
X285204057Y-144291431D01*
X285320171Y-144291431D02*
X285334685Y-144274740D01*
X285363714Y-144258049D01*
X285436285Y-144258049D01*
X285465314Y-144274740D01*
X285479828Y-144291431D01*
X285494343Y-144324814D01*
X285494343Y-144358197D01*
X285479828Y-144408271D01*
X285305657Y-144608569D01*
X285494343Y-144608569D01*
X285683029Y-144258049D02*
X285712057Y-144258049D01*
X285741086Y-144274740D01*
X285755600Y-144291431D01*
X285770114Y-144324814D01*
X285784629Y-144391580D01*
X285784629Y-144475037D01*
X285770114Y-144541803D01*
X285755600Y-144575186D01*
X285741086Y-144591877D01*
X285712057Y-144608569D01*
X285683029Y-144608569D01*
X285654000Y-144591877D01*
X285639486Y-144575186D01*
X285624971Y-144541803D01*
X285610457Y-144475037D01*
X285610457Y-144391580D01*
X285624971Y-144324814D01*
X285639486Y-144291431D01*
X285654000Y-144274740D01*
X285683029Y-144258049D01*
X290975186Y-146045943D02*
X290991877Y-146060457D01*
X291008569Y-146104000D01*
X291008569Y-146133029D01*
X290991877Y-146176572D01*
X290958494Y-146205600D01*
X290925111Y-146220115D01*
X290858346Y-146234629D01*
X290808271Y-146234629D01*
X290741506Y-146220115D01*
X290708123Y-146205600D01*
X290674740Y-146176572D01*
X290658049Y-146133029D01*
X290658049Y-146104000D01*
X290674740Y-146060457D01*
X290691431Y-146045943D01*
X291008569Y-145755657D02*
X291008569Y-145929829D01*
X291008569Y-145842743D02*
X290658049Y-145842743D01*
X290708123Y-145871772D01*
X290741506Y-145900800D01*
X290758197Y-145929829D01*
X290808271Y-145581486D02*
X290791580Y-145610514D01*
X290774889Y-145625029D01*
X290741506Y-145639543D01*
X290724814Y-145639543D01*
X290691431Y-145625029D01*
X290674740Y-145610514D01*
X290658049Y-145581486D01*
X290658049Y-145523429D01*
X290674740Y-145494400D01*
X290691431Y-145479886D01*
X290724814Y-145465371D01*
X290741506Y-145465371D01*
X290774889Y-145479886D01*
X290791580Y-145494400D01*
X290808271Y-145523429D01*
X290808271Y-145581486D01*
X290824963Y-145610514D01*
X290841654Y-145625029D01*
X290875037Y-145639543D01*
X290941803Y-145639543D01*
X290975186Y-145625029D01*
X290991877Y-145610514D01*
X291008569Y-145581486D01*
X291008569Y-145523429D01*
X290991877Y-145494400D01*
X290975186Y-145479886D01*
X290941803Y-145465371D01*
X290875037Y-145465371D01*
X290841654Y-145479886D01*
X290824963Y-145494400D01*
X290808271Y-145523429D01*
X290975186Y-144870943D02*
X290991877Y-144885457D01*
X291008569Y-144929000D01*
X291008569Y-144958029D01*
X290991877Y-145001572D01*
X290958494Y-145030600D01*
X290925111Y-145045115D01*
X290858346Y-145059629D01*
X290808271Y-145059629D01*
X290741506Y-145045115D01*
X290708123Y-145030600D01*
X290674740Y-145001572D01*
X290658049Y-144958029D01*
X290658049Y-144929000D01*
X290674740Y-144885457D01*
X290691431Y-144870943D01*
X291008569Y-144580657D02*
X291008569Y-144754829D01*
X291008569Y-144667743D02*
X290658049Y-144667743D01*
X290708123Y-144696772D01*
X290741506Y-144725800D01*
X290758197Y-144754829D01*
X290658049Y-144319400D02*
X290658049Y-144377457D01*
X290674740Y-144406486D01*
X290691431Y-144421000D01*
X290741506Y-144450029D01*
X290808271Y-144464543D01*
X290941803Y-144464543D01*
X290975186Y-144450029D01*
X290991877Y-144435514D01*
X291008569Y-144406486D01*
X291008569Y-144348429D01*
X290991877Y-144319400D01*
X290975186Y-144304886D01*
X290941803Y-144290371D01*
X290858346Y-144290371D01*
X290824963Y-144304886D01*
X290808271Y-144319400D01*
X290791580Y-144348429D01*
X290791580Y-144406486D01*
X290808271Y-144435514D01*
X290824963Y-144450029D01*
X290858346Y-144464543D01*
X295525186Y-145900800D02*
X295541877Y-145915314D01*
X295558569Y-145958857D01*
X295558569Y-145987886D01*
X295541877Y-146031429D01*
X295508494Y-146060457D01*
X295475111Y-146074972D01*
X295408346Y-146089486D01*
X295358271Y-146089486D01*
X295291506Y-146074972D01*
X295258123Y-146060457D01*
X295224740Y-146031429D01*
X295208049Y-145987886D01*
X295208049Y-145958857D01*
X295224740Y-145915314D01*
X295241431Y-145900800D01*
X295558569Y-145755657D02*
X295558569Y-145697600D01*
X295541877Y-145668572D01*
X295525186Y-145654057D01*
X295475111Y-145625029D01*
X295408346Y-145610514D01*
X295274814Y-145610514D01*
X295241431Y-145625029D01*
X295224740Y-145639543D01*
X295208049Y-145668572D01*
X295208049Y-145726629D01*
X295224740Y-145755657D01*
X295241431Y-145770172D01*
X295274814Y-145784686D01*
X295358271Y-145784686D01*
X295391654Y-145770172D01*
X295408346Y-145755657D01*
X295425037Y-145726629D01*
X295425037Y-145668572D01*
X295408346Y-145639543D01*
X295391654Y-145625029D01*
X295358271Y-145610514D01*
X286784057Y-129325186D02*
X286769543Y-129341877D01*
X286726000Y-129358569D01*
X286696971Y-129358569D01*
X286653428Y-129341877D01*
X286624400Y-129308494D01*
X286609885Y-129275111D01*
X286595371Y-129208346D01*
X286595371Y-129158271D01*
X286609885Y-129091506D01*
X286624400Y-129058123D01*
X286653428Y-129024740D01*
X286696971Y-129008049D01*
X286726000Y-129008049D01*
X286769543Y-129024740D01*
X286784057Y-129041431D01*
X287074343Y-129358569D02*
X286900171Y-129358569D01*
X286987257Y-129358569D02*
X286987257Y-129008049D01*
X286958228Y-129058123D01*
X286929200Y-129091506D01*
X286900171Y-129108197D01*
X287175943Y-129008049D02*
X287379143Y-129008049D01*
X287248514Y-129358569D01*
X295525186Y-144725800D02*
X295541877Y-144740314D01*
X295558569Y-144783857D01*
X295558569Y-144812886D01*
X295541877Y-144856429D01*
X295508494Y-144885457D01*
X295475111Y-144899972D01*
X295408346Y-144914486D01*
X295358271Y-144914486D01*
X295291506Y-144899972D01*
X295258123Y-144885457D01*
X295224740Y-144856429D01*
X295208049Y-144812886D01*
X295208049Y-144783857D01*
X295224740Y-144740314D01*
X295241431Y-144725800D01*
X295358271Y-144551629D02*
X295341580Y-144580657D01*
X295324889Y-144595172D01*
X295291506Y-144609686D01*
X295274814Y-144609686D01*
X295241431Y-144595172D01*
X295224740Y-144580657D01*
X295208049Y-144551629D01*
X295208049Y-144493572D01*
X295224740Y-144464543D01*
X295241431Y-144450029D01*
X295274814Y-144435514D01*
X295291506Y-144435514D01*
X295324889Y-144450029D01*
X295341580Y-144464543D01*
X295358271Y-144493572D01*
X295358271Y-144551629D01*
X295374963Y-144580657D01*
X295391654Y-144595172D01*
X295425037Y-144609686D01*
X295491803Y-144609686D01*
X295525186Y-144595172D01*
X295541877Y-144580657D01*
X295558569Y-144551629D01*
X295558569Y-144493572D01*
X295541877Y-144464543D01*
X295525186Y-144450029D01*
X295491803Y-144435514D01*
X295425037Y-144435514D01*
X295391654Y-144450029D01*
X295374963Y-144464543D01*
X295358271Y-144493572D01*
X294600186Y-127545943D02*
X294616877Y-127560457D01*
X294633569Y-127604000D01*
X294633569Y-127633029D01*
X294616877Y-127676572D01*
X294583494Y-127705600D01*
X294550111Y-127720115D01*
X294483346Y-127734629D01*
X294433271Y-127734629D01*
X294366506Y-127720115D01*
X294333123Y-127705600D01*
X294299740Y-127676572D01*
X294283049Y-127633029D01*
X294283049Y-127604000D01*
X294299740Y-127560457D01*
X294316431Y-127545943D01*
X294633569Y-127255657D02*
X294633569Y-127429829D01*
X294633569Y-127342743D02*
X294283049Y-127342743D01*
X294333123Y-127371772D01*
X294366506Y-127400800D01*
X294383197Y-127429829D01*
X294633569Y-126965371D02*
X294633569Y-127139543D01*
X294633569Y-127052457D02*
X294283049Y-127052457D01*
X294333123Y-127081486D01*
X294366506Y-127110514D01*
X294383197Y-127139543D01*
X300174200Y-129900186D02*
X300159686Y-129916877D01*
X300116143Y-129933569D01*
X300087114Y-129933569D01*
X300043571Y-129916877D01*
X300014543Y-129883494D01*
X300000028Y-129850111D01*
X299985514Y-129783346D01*
X299985514Y-129733271D01*
X300000028Y-129666506D01*
X300014543Y-129633123D01*
X300043571Y-129599740D01*
X300087114Y-129583049D01*
X300116143Y-129583049D01*
X300159686Y-129599740D01*
X300174200Y-129616431D01*
X300275800Y-129583049D02*
X300479000Y-129583049D01*
X300348371Y-129933569D01*
X298949200Y-129875186D02*
X298934686Y-129891877D01*
X298891143Y-129908569D01*
X298862114Y-129908569D01*
X298818571Y-129891877D01*
X298789543Y-129858494D01*
X298775028Y-129825111D01*
X298760514Y-129758346D01*
X298760514Y-129708271D01*
X298775028Y-129641506D01*
X298789543Y-129608123D01*
X298818571Y-129574740D01*
X298862114Y-129558049D01*
X298891143Y-129558049D01*
X298934686Y-129574740D01*
X298949200Y-129591431D01*
X299210457Y-129558049D02*
X299152400Y-129558049D01*
X299123371Y-129574740D01*
X299108857Y-129591431D01*
X299079828Y-129641506D01*
X299065314Y-129708271D01*
X299065314Y-129841803D01*
X299079828Y-129875186D01*
X299094343Y-129891877D01*
X299123371Y-129908569D01*
X299181428Y-129908569D01*
X299210457Y-129891877D01*
X299224971Y-129875186D01*
X299239486Y-129841803D01*
X299239486Y-129758346D01*
X299224971Y-129724963D01*
X299210457Y-129708271D01*
X299181428Y-129691580D01*
X299123371Y-129691580D01*
X299094343Y-129708271D01*
X299079828Y-129724963D01*
X299065314Y-129758346D01*
D22*
X292016085Y-126371429D02*
X291994314Y-126395619D01*
X291929000Y-126419810D01*
X291885457Y-126419810D01*
X291820142Y-126395619D01*
X291776600Y-126347238D01*
X291754828Y-126298857D01*
X291733057Y-126202095D01*
X291733057Y-126129524D01*
X291754828Y-126032762D01*
X291776600Y-125984381D01*
X291820142Y-125936000D01*
X291885457Y-125911810D01*
X291929000Y-125911810D01*
X291994314Y-125936000D01*
X292016085Y-125960190D01*
X292451514Y-126419810D02*
X292190257Y-126419810D01*
X292320885Y-126419810D02*
X292320885Y-125911810D01*
X292277342Y-125984381D01*
X292233800Y-126032762D01*
X292190257Y-126056952D01*
X292734543Y-125911810D02*
X292778086Y-125911810D01*
X292821629Y-125936000D01*
X292843400Y-125960190D01*
X292865171Y-126008571D01*
X292886943Y-126105333D01*
X292886943Y-126226286D01*
X292865171Y-126323048D01*
X292843400Y-126371429D01*
X292821629Y-126395619D01*
X292778086Y-126419810D01*
X292734543Y-126419810D01*
X292691000Y-126395619D01*
X292669229Y-126371429D01*
X292647457Y-126323048D01*
X292625686Y-126226286D01*
X292625686Y-126105333D01*
X292647457Y-126008571D01*
X292669229Y-125960190D01*
X292691000Y-125936000D01*
X292734543Y-125911810D01*
X278454810Y-142876200D02*
X278454810Y-143093914D01*
X277946810Y-143093914D01*
X278454810Y-142484314D02*
X278454810Y-142745571D01*
X278454810Y-142614943D02*
X277946810Y-142614943D01*
X278019381Y-142658486D01*
X278067762Y-142702028D01*
X278091952Y-142745571D01*
X270942310Y-142763700D02*
X270942310Y-142981414D01*
X270434310Y-142981414D01*
X270482690Y-142633071D02*
X270458500Y-142611300D01*
X270434310Y-142567757D01*
X270434310Y-142458900D01*
X270458500Y-142415357D01*
X270482690Y-142393586D01*
X270531071Y-142371814D01*
X270579452Y-142371814D01*
X270652024Y-142393586D01*
X270942310Y-142654843D01*
X270942310Y-142371814D01*
D16*
X272275186Y-141445943D02*
X272291877Y-141460457D01*
X272308569Y-141504000D01*
X272308569Y-141533029D01*
X272291877Y-141576572D01*
X272258494Y-141605600D01*
X272225111Y-141620115D01*
X272158346Y-141634629D01*
X272108271Y-141634629D01*
X272041506Y-141620115D01*
X272008123Y-141605600D01*
X271974740Y-141576572D01*
X271958049Y-141533029D01*
X271958049Y-141504000D01*
X271974740Y-141460457D01*
X271991431Y-141445943D01*
X272308569Y-141155657D02*
X272308569Y-141329829D01*
X272308569Y-141242743D02*
X271958049Y-141242743D01*
X272008123Y-141271772D01*
X272041506Y-141300800D01*
X272058197Y-141329829D01*
X271958049Y-141054057D02*
X271958049Y-140865371D01*
X272091580Y-140966971D01*
X272091580Y-140923429D01*
X272108271Y-140894400D01*
X272124963Y-140879886D01*
X272158346Y-140865371D01*
X272241803Y-140865371D01*
X272275186Y-140879886D01*
X272291877Y-140894400D01*
X272308569Y-140923429D01*
X272308569Y-141010514D01*
X272291877Y-141039543D01*
X272275186Y-141054057D01*
X275311700Y-144212686D02*
X275297186Y-144229377D01*
X275253643Y-144246069D01*
X275224614Y-144246069D01*
X275181071Y-144229377D01*
X275152043Y-144195994D01*
X275137528Y-144162611D01*
X275123014Y-144095846D01*
X275123014Y-144045771D01*
X275137528Y-143979006D01*
X275152043Y-143945623D01*
X275181071Y-143912240D01*
X275224614Y-143895549D01*
X275253643Y-143895549D01*
X275297186Y-143912240D01*
X275311700Y-143928931D01*
X275413300Y-143895549D02*
X275601986Y-143895549D01*
X275500386Y-144029080D01*
X275543928Y-144029080D01*
X275572957Y-144045771D01*
X275587471Y-144062463D01*
X275601986Y-144095846D01*
X275601986Y-144179303D01*
X275587471Y-144212686D01*
X275572957Y-144229377D01*
X275543928Y-144246069D01*
X275456843Y-144246069D01*
X275427814Y-144229377D01*
X275413300Y-144212686D01*
X281975186Y-141125800D02*
X281991877Y-141140314D01*
X282008569Y-141183857D01*
X282008569Y-141212886D01*
X281991877Y-141256429D01*
X281958494Y-141285457D01*
X281925111Y-141299972D01*
X281858346Y-141314486D01*
X281808271Y-141314486D01*
X281741506Y-141299972D01*
X281708123Y-141285457D01*
X281674740Y-141256429D01*
X281658049Y-141212886D01*
X281658049Y-141183857D01*
X281674740Y-141140314D01*
X281691431Y-141125800D01*
X281691431Y-141009686D02*
X281674740Y-140995172D01*
X281658049Y-140966143D01*
X281658049Y-140893572D01*
X281674740Y-140864543D01*
X281691431Y-140850029D01*
X281724814Y-140835514D01*
X281758197Y-140835514D01*
X281808271Y-140850029D01*
X282008569Y-141024200D01*
X282008569Y-140835514D01*
X282974200Y-144125186D02*
X282959686Y-144141877D01*
X282916143Y-144158569D01*
X282887114Y-144158569D01*
X282843571Y-144141877D01*
X282814543Y-144108494D01*
X282800028Y-144075111D01*
X282785514Y-144008346D01*
X282785514Y-143958271D01*
X282800028Y-143891506D01*
X282814543Y-143858123D01*
X282843571Y-143824740D01*
X282887114Y-143808049D01*
X282916143Y-143808049D01*
X282959686Y-143824740D01*
X282974200Y-143841431D01*
X283264486Y-144158569D02*
X283090314Y-144158569D01*
X283177400Y-144158569D02*
X283177400Y-143808049D01*
X283148371Y-143858123D01*
X283119343Y-143891506D01*
X283090314Y-143908197D01*
X299994200Y-145275186D02*
X299979686Y-145291877D01*
X299936143Y-145308569D01*
X299907114Y-145308569D01*
X299863571Y-145291877D01*
X299834543Y-145258494D01*
X299820028Y-145225111D01*
X299805514Y-145158346D01*
X299805514Y-145108271D01*
X299820028Y-145041506D01*
X299834543Y-145008123D01*
X299863571Y-144974740D01*
X299907114Y-144958049D01*
X299936143Y-144958049D01*
X299979686Y-144974740D01*
X299994200Y-144991431D01*
X300255457Y-145074889D02*
X300255457Y-145308569D01*
X300182886Y-144941357D02*
X300110314Y-145191729D01*
X300299000Y-145191729D01*
X301094200Y-145308569D02*
X300992600Y-145141654D01*
X300920028Y-145308569D02*
X300920028Y-144958049D01*
X301036143Y-144958049D01*
X301065171Y-144974740D01*
X301079686Y-144991431D01*
X301094200Y-145024814D01*
X301094200Y-145074889D01*
X301079686Y-145108271D01*
X301065171Y-145124963D01*
X301036143Y-145141654D01*
X300920028Y-145141654D01*
X301355457Y-144958049D02*
X301297400Y-144958049D01*
X301268371Y-144974740D01*
X301253857Y-144991431D01*
X301224828Y-145041506D01*
X301210314Y-145108271D01*
X301210314Y-145241803D01*
X301224828Y-145275186D01*
X301239343Y-145291877D01*
X301268371Y-145308569D01*
X301326428Y-145308569D01*
X301355457Y-145291877D01*
X301369971Y-145275186D01*
X301384486Y-145241803D01*
X301384486Y-145158346D01*
X301369971Y-145124963D01*
X301355457Y-145108271D01*
X301326428Y-145091580D01*
X301268371Y-145091580D01*
X301239343Y-145108271D01*
X301224828Y-145124963D01*
X301210314Y-145158346D01*
X299758569Y-133020800D02*
X299591654Y-133122400D01*
X299758569Y-133194972D02*
X299408049Y-133194972D01*
X299408049Y-133078857D01*
X299424740Y-133049829D01*
X299441431Y-133035314D01*
X299474814Y-133020800D01*
X299524889Y-133020800D01*
X299558271Y-133035314D01*
X299574963Y-133049829D01*
X299591654Y-133078857D01*
X299591654Y-133194972D01*
X299524889Y-132759543D02*
X299758569Y-132759543D01*
X299391357Y-132832114D02*
X299641729Y-132904686D01*
X299641729Y-132716000D01*
X299733569Y-134270800D02*
X299566654Y-134372400D01*
X299733569Y-134444972D02*
X299383049Y-134444972D01*
X299383049Y-134328857D01*
X299399740Y-134299829D01*
X299416431Y-134285314D01*
X299449814Y-134270800D01*
X299499889Y-134270800D01*
X299533271Y-134285314D01*
X299549963Y-134299829D01*
X299566654Y-134328857D01*
X299566654Y-134444972D01*
X299383049Y-134169200D02*
X299383049Y-133980514D01*
X299516580Y-134082114D01*
X299516580Y-134038572D01*
X299533271Y-134009543D01*
X299549963Y-133995029D01*
X299583346Y-133980514D01*
X299666803Y-133980514D01*
X299700186Y-133995029D01*
X299716877Y-134009543D01*
X299733569Y-134038572D01*
X299733569Y-134125657D01*
X299716877Y-134154686D01*
X299700186Y-134169200D01*
X299758569Y-135710800D02*
X299591654Y-135812400D01*
X299758569Y-135884972D02*
X299408049Y-135884972D01*
X299408049Y-135768857D01*
X299424740Y-135739829D01*
X299441431Y-135725314D01*
X299474814Y-135710800D01*
X299524889Y-135710800D01*
X299558271Y-135725314D01*
X299574963Y-135739829D01*
X299591654Y-135768857D01*
X299591654Y-135884972D01*
X299441431Y-135594686D02*
X299424740Y-135580172D01*
X299408049Y-135551143D01*
X299408049Y-135478572D01*
X299424740Y-135449543D01*
X299441431Y-135435029D01*
X299474814Y-135420514D01*
X299508197Y-135420514D01*
X299558271Y-135435029D01*
X299758569Y-135609200D01*
X299758569Y-135420514D01*
X299758569Y-136930800D02*
X299591654Y-137032400D01*
X299758569Y-137104972D02*
X299408049Y-137104972D01*
X299408049Y-136988857D01*
X299424740Y-136959829D01*
X299441431Y-136945314D01*
X299474814Y-136930800D01*
X299524889Y-136930800D01*
X299558271Y-136945314D01*
X299574963Y-136959829D01*
X299591654Y-136988857D01*
X299591654Y-137104972D01*
X299758569Y-136640514D02*
X299758569Y-136814686D01*
X299758569Y-136727600D02*
X299408049Y-136727600D01*
X299458123Y-136756629D01*
X299491506Y-136785657D01*
X299508197Y-136814686D01*
D12*
X277805953Y-139676190D02*
X277805953Y-139176190D01*
X277925000Y-139176190D01*
X277996429Y-139200000D01*
X278044048Y-139247619D01*
X278067857Y-139295238D01*
X278091667Y-139390476D01*
X278091667Y-139461905D01*
X278067857Y-139557143D01*
X278044048Y-139604762D01*
X277996429Y-139652381D01*
X277925000Y-139676190D01*
X277805953Y-139676190D01*
X278567857Y-139676190D02*
X278282143Y-139676190D01*
X278425000Y-139676190D02*
X278425000Y-139176190D01*
X278377381Y-139247619D01*
X278329762Y-139295238D01*
X278282143Y-139319048D01*
D22*
X270799810Y-138696200D02*
X270799810Y-138913914D01*
X270291810Y-138913914D01*
X270461143Y-138347857D02*
X270799810Y-138347857D01*
X270267619Y-138456714D02*
X270630476Y-138565571D01*
X270630476Y-138282543D01*
D23*
X270445239Y-132476190D02*
X270778572Y-132976190D01*
X270778572Y-132476190D02*
X270445239Y-132976190D01*
X271230952Y-132976190D02*
X270945238Y-132976190D01*
X271088095Y-132976190D02*
X271088095Y-132476190D01*
X271040476Y-132547619D01*
X270992857Y-132595238D01*
X270945238Y-132619048D01*
D16*
X274925186Y-140745943D02*
X274941877Y-140760457D01*
X274958569Y-140804000D01*
X274958569Y-140833029D01*
X274941877Y-140876572D01*
X274908494Y-140905600D01*
X274875111Y-140920115D01*
X274808346Y-140934629D01*
X274758271Y-140934629D01*
X274691506Y-140920115D01*
X274658123Y-140905600D01*
X274624740Y-140876572D01*
X274608049Y-140833029D01*
X274608049Y-140804000D01*
X274624740Y-140760457D01*
X274641431Y-140745943D01*
X274641431Y-140629829D02*
X274624740Y-140615315D01*
X274608049Y-140586286D01*
X274608049Y-140513715D01*
X274624740Y-140484686D01*
X274641431Y-140470172D01*
X274674814Y-140455657D01*
X274708197Y-140455657D01*
X274758271Y-140470172D01*
X274958569Y-140644343D01*
X274958569Y-140455657D01*
X274758271Y-140281486D02*
X274741580Y-140310514D01*
X274724889Y-140325029D01*
X274691506Y-140339543D01*
X274674814Y-140339543D01*
X274641431Y-140325029D01*
X274624740Y-140310514D01*
X274608049Y-140281486D01*
X274608049Y-140223429D01*
X274624740Y-140194400D01*
X274641431Y-140179886D01*
X274674814Y-140165371D01*
X274691506Y-140165371D01*
X274724889Y-140179886D01*
X274741580Y-140194400D01*
X274758271Y-140223429D01*
X274758271Y-140281486D01*
X274774963Y-140310514D01*
X274791654Y-140325029D01*
X274825037Y-140339543D01*
X274891803Y-140339543D01*
X274925186Y-140325029D01*
X274941877Y-140310514D01*
X274958569Y-140281486D01*
X274958569Y-140223429D01*
X274941877Y-140194400D01*
X274925186Y-140179886D01*
X274891803Y-140165371D01*
X274825037Y-140165371D01*
X274791654Y-140179886D01*
X274774963Y-140194400D01*
X274758271Y-140223429D01*
X272275186Y-140345943D02*
X272291877Y-140360457D01*
X272308569Y-140404000D01*
X272308569Y-140433029D01*
X272291877Y-140476572D01*
X272258494Y-140505600D01*
X272225111Y-140520115D01*
X272158346Y-140534629D01*
X272108271Y-140534629D01*
X272041506Y-140520115D01*
X272008123Y-140505600D01*
X271974740Y-140476572D01*
X271958049Y-140433029D01*
X271958049Y-140404000D01*
X271974740Y-140360457D01*
X271991431Y-140345943D01*
X271991431Y-140229829D02*
X271974740Y-140215315D01*
X271958049Y-140186286D01*
X271958049Y-140113715D01*
X271974740Y-140084686D01*
X271991431Y-140070172D01*
X272024814Y-140055657D01*
X272058197Y-140055657D01*
X272108271Y-140070172D01*
X272308569Y-140244343D01*
X272308569Y-140055657D01*
X271958049Y-139794400D02*
X271958049Y-139852457D01*
X271974740Y-139881486D01*
X271991431Y-139896000D01*
X272041506Y-139925029D01*
X272108271Y-139939543D01*
X272241803Y-139939543D01*
X272275186Y-139925029D01*
X272291877Y-139910514D01*
X272308569Y-139881486D01*
X272308569Y-139823429D01*
X272291877Y-139794400D01*
X272275186Y-139779886D01*
X272241803Y-139765371D01*
X272158346Y-139765371D01*
X272124963Y-139779886D01*
X272108271Y-139794400D01*
X272091580Y-139823429D01*
X272091580Y-139881486D01*
X272108271Y-139910514D01*
X272124963Y-139925029D01*
X272158346Y-139939543D01*
X269925186Y-133095943D02*
X269941877Y-133110457D01*
X269958569Y-133154000D01*
X269958569Y-133183029D01*
X269941877Y-133226572D01*
X269908494Y-133255600D01*
X269875111Y-133270115D01*
X269808346Y-133284629D01*
X269758271Y-133284629D01*
X269691506Y-133270115D01*
X269658123Y-133255600D01*
X269624740Y-133226572D01*
X269608049Y-133183029D01*
X269608049Y-133154000D01*
X269624740Y-133110457D01*
X269641431Y-133095943D01*
X269641431Y-132979829D02*
X269624740Y-132965315D01*
X269608049Y-132936286D01*
X269608049Y-132863715D01*
X269624740Y-132834686D01*
X269641431Y-132820172D01*
X269674814Y-132805657D01*
X269708197Y-132805657D01*
X269758271Y-132820172D01*
X269958569Y-132994343D01*
X269958569Y-132805657D01*
X269724889Y-132544400D02*
X269958569Y-132544400D01*
X269591357Y-132616971D02*
X269841729Y-132689543D01*
X269841729Y-132500857D01*
X273325186Y-132995943D02*
X273341877Y-133010457D01*
X273358569Y-133054000D01*
X273358569Y-133083029D01*
X273341877Y-133126572D01*
X273308494Y-133155600D01*
X273275111Y-133170115D01*
X273208346Y-133184629D01*
X273158271Y-133184629D01*
X273091506Y-133170115D01*
X273058123Y-133155600D01*
X273024740Y-133126572D01*
X273008049Y-133083029D01*
X273008049Y-133054000D01*
X273024740Y-133010457D01*
X273041431Y-132995943D01*
X273041431Y-132879829D02*
X273024740Y-132865315D01*
X273008049Y-132836286D01*
X273008049Y-132763715D01*
X273024740Y-132734686D01*
X273041431Y-132720172D01*
X273074814Y-132705657D01*
X273108197Y-132705657D01*
X273158271Y-132720172D01*
X273358569Y-132894343D01*
X273358569Y-132705657D01*
X273008049Y-132429886D02*
X273008049Y-132575029D01*
X273174963Y-132589543D01*
X273158271Y-132575029D01*
X273141580Y-132546000D01*
X273141580Y-132473429D01*
X273158271Y-132444400D01*
X273174963Y-132429886D01*
X273208346Y-132415371D01*
X273291803Y-132415371D01*
X273325186Y-132429886D01*
X273341877Y-132444400D01*
X273358569Y-132473429D01*
X273358569Y-132546000D01*
X273341877Y-132575029D01*
X273325186Y-132589543D01*
X275545186Y-129675943D02*
X275561877Y-129690457D01*
X275578569Y-129734000D01*
X275578569Y-129763029D01*
X275561877Y-129806572D01*
X275528494Y-129835600D01*
X275495111Y-129850115D01*
X275428346Y-129864629D01*
X275378271Y-129864629D01*
X275311506Y-129850115D01*
X275278123Y-129835600D01*
X275244740Y-129806572D01*
X275228049Y-129763029D01*
X275228049Y-129734000D01*
X275244740Y-129690457D01*
X275261431Y-129675943D01*
X275261431Y-129559829D02*
X275244740Y-129545315D01*
X275228049Y-129516286D01*
X275228049Y-129443715D01*
X275244740Y-129414686D01*
X275261431Y-129400172D01*
X275294814Y-129385657D01*
X275328197Y-129385657D01*
X275378271Y-129400172D01*
X275578569Y-129574343D01*
X275578569Y-129385657D01*
X275228049Y-129284057D02*
X275228049Y-129080857D01*
X275578569Y-129211486D01*
X276614057Y-140675186D02*
X276599543Y-140691877D01*
X276556000Y-140708569D01*
X276526971Y-140708569D01*
X276483428Y-140691877D01*
X276454400Y-140658494D01*
X276439885Y-140625111D01*
X276425371Y-140558346D01*
X276425371Y-140508271D01*
X276439885Y-140441506D01*
X276454400Y-140408123D01*
X276483428Y-140374740D01*
X276526971Y-140358049D01*
X276556000Y-140358049D01*
X276599543Y-140374740D01*
X276614057Y-140391431D01*
X276730171Y-140391431D02*
X276744685Y-140374740D01*
X276773714Y-140358049D01*
X276846285Y-140358049D01*
X276875314Y-140374740D01*
X276889828Y-140391431D01*
X276904343Y-140424814D01*
X276904343Y-140458197D01*
X276889828Y-140508271D01*
X276715657Y-140708569D01*
X276904343Y-140708569D01*
X277049486Y-140708569D02*
X277107543Y-140708569D01*
X277136571Y-140691877D01*
X277151086Y-140675186D01*
X277180114Y-140625111D01*
X277194629Y-140558346D01*
X277194629Y-140424814D01*
X277180114Y-140391431D01*
X277165600Y-140374740D01*
X277136571Y-140358049D01*
X277078514Y-140358049D01*
X277049486Y-140374740D01*
X277034971Y-140391431D01*
X277020457Y-140424814D01*
X277020457Y-140508271D01*
X277034971Y-140541654D01*
X277049486Y-140558346D01*
X277078514Y-140575037D01*
X277136571Y-140575037D01*
X277165600Y-140558346D01*
X277180114Y-140541654D01*
X277194629Y-140508271D01*
X271899200Y-128558569D02*
X271754057Y-128558569D01*
X271754057Y-128208049D01*
X272131429Y-128208049D02*
X272073372Y-128208049D01*
X272044343Y-128224740D01*
X272029829Y-128241431D01*
X272000800Y-128291506D01*
X271986286Y-128358271D01*
X271986286Y-128491803D01*
X272000800Y-128525186D01*
X272015315Y-128541877D01*
X272044343Y-128558569D01*
X272102400Y-128558569D01*
X272131429Y-128541877D01*
X272145943Y-128525186D01*
X272160458Y-128491803D01*
X272160458Y-128408346D01*
X272145943Y-128374963D01*
X272131429Y-128358271D01*
X272102400Y-128341580D01*
X272044343Y-128341580D01*
X272015315Y-128358271D01*
X272000800Y-128374963D01*
X271986286Y-128408346D01*
X273969200Y-127248569D02*
X273824057Y-127248569D01*
X273824057Y-126898049D01*
X274215943Y-126898049D02*
X274070800Y-126898049D01*
X274056286Y-127064963D01*
X274070800Y-127048271D01*
X274099829Y-127031580D01*
X274172400Y-127031580D01*
X274201429Y-127048271D01*
X274215943Y-127064963D01*
X274230458Y-127098346D01*
X274230458Y-127181803D01*
X274215943Y-127215186D01*
X274201429Y-127231877D01*
X274172400Y-127248569D01*
X274099829Y-127248569D01*
X274070800Y-127231877D01*
X274056286Y-127215186D01*
X275404057Y-127165186D02*
X275389543Y-127181877D01*
X275346000Y-127198569D01*
X275316971Y-127198569D01*
X275273428Y-127181877D01*
X275244400Y-127148494D01*
X275229885Y-127115111D01*
X275215371Y-127048346D01*
X275215371Y-126998271D01*
X275229885Y-126931506D01*
X275244400Y-126898123D01*
X275273428Y-126864740D01*
X275316971Y-126848049D01*
X275346000Y-126848049D01*
X275389543Y-126864740D01*
X275404057Y-126881431D01*
X275505657Y-126848049D02*
X275694343Y-126848049D01*
X275592743Y-126981580D01*
X275636285Y-126981580D01*
X275665314Y-126998271D01*
X275679828Y-127014963D01*
X275694343Y-127048346D01*
X275694343Y-127131803D01*
X275679828Y-127165186D01*
X275665314Y-127181877D01*
X275636285Y-127198569D01*
X275549200Y-127198569D01*
X275520171Y-127181877D01*
X275505657Y-127165186D01*
X275883029Y-126848049D02*
X275912057Y-126848049D01*
X275941086Y-126864740D01*
X275955600Y-126881431D01*
X275970114Y-126914814D01*
X275984629Y-126981580D01*
X275984629Y-127065037D01*
X275970114Y-127131803D01*
X275955600Y-127165186D01*
X275941086Y-127181877D01*
X275912057Y-127198569D01*
X275883029Y-127198569D01*
X275854000Y-127181877D01*
X275839486Y-127165186D01*
X275824971Y-127131803D01*
X275810457Y-127065037D01*
X275810457Y-126981580D01*
X275824971Y-126914814D01*
X275839486Y-126881431D01*
X275854000Y-126864740D01*
X275883029Y-126848049D01*
X271288569Y-137270800D02*
X271288569Y-137415943D01*
X270938049Y-137415943D01*
X270938049Y-137198228D02*
X270938049Y-137009542D01*
X271071580Y-137111142D01*
X271071580Y-137067600D01*
X271088271Y-137038571D01*
X271104963Y-137024057D01*
X271138346Y-137009542D01*
X271221803Y-137009542D01*
X271255186Y-137024057D01*
X271271877Y-137038571D01*
X271288569Y-137067600D01*
X271288569Y-137154685D01*
X271271877Y-137183714D01*
X271255186Y-137198228D01*
D22*
X271151429Y-136313915D02*
X271175619Y-136335686D01*
X271199810Y-136401000D01*
X271199810Y-136444543D01*
X271175619Y-136509858D01*
X271127238Y-136553400D01*
X271078857Y-136575172D01*
X270982095Y-136596943D01*
X270909524Y-136596943D01*
X270812762Y-136575172D01*
X270764381Y-136553400D01*
X270716000Y-136509858D01*
X270691810Y-136444543D01*
X270691810Y-136401000D01*
X270716000Y-136335686D01*
X270740190Y-136313915D01*
X270740190Y-136139743D02*
X270716000Y-136117972D01*
X270691810Y-136074429D01*
X270691810Y-135965572D01*
X270716000Y-135922029D01*
X270740190Y-135900258D01*
X270788571Y-135878486D01*
X270836952Y-135878486D01*
X270909524Y-135900258D01*
X271199810Y-136161515D01*
X271199810Y-135878486D01*
X270691810Y-135726086D02*
X270691810Y-135443057D01*
X270885333Y-135595457D01*
X270885333Y-135530143D01*
X270909524Y-135486600D01*
X270933714Y-135464829D01*
X270982095Y-135443057D01*
X271103048Y-135443057D01*
X271151429Y-135464829D01*
X271175619Y-135486600D01*
X271199810Y-135530143D01*
X271199810Y-135660771D01*
X271175619Y-135704314D01*
X271151429Y-135726086D01*
X281106085Y-137981429D02*
X281084314Y-138005619D01*
X281019000Y-138029810D01*
X280975457Y-138029810D01*
X280910142Y-138005619D01*
X280866600Y-137957238D01*
X280844828Y-137908857D01*
X280823057Y-137812095D01*
X280823057Y-137739524D01*
X280844828Y-137642762D01*
X280866600Y-137594381D01*
X280910142Y-137546000D01*
X280975457Y-137521810D01*
X281019000Y-137521810D01*
X281084314Y-137546000D01*
X281106085Y-137570190D01*
X281280257Y-137570190D02*
X281302028Y-137546000D01*
X281345571Y-137521810D01*
X281454428Y-137521810D01*
X281497971Y-137546000D01*
X281519742Y-137570190D01*
X281541514Y-137618571D01*
X281541514Y-137666952D01*
X281519742Y-137739524D01*
X281258485Y-138029810D01*
X281541514Y-138029810D01*
X281715686Y-137570190D02*
X281737457Y-137546000D01*
X281781000Y-137521810D01*
X281889857Y-137521810D01*
X281933400Y-137546000D01*
X281955171Y-137570190D01*
X281976943Y-137618571D01*
X281976943Y-137666952D01*
X281955171Y-137739524D01*
X281693914Y-138029810D01*
X281976943Y-138029810D01*
D12*
X280429048Y-143036190D02*
X280429048Y-143440952D01*
X280452857Y-143488571D01*
X280476667Y-143512381D01*
X280524286Y-143536190D01*
X280619524Y-143536190D01*
X280667143Y-143512381D01*
X280690952Y-143488571D01*
X280714762Y-143440952D01*
X280714762Y-143036190D01*
X281214762Y-143536190D02*
X280929048Y-143536190D01*
X281071905Y-143536190D02*
X281071905Y-143036190D01*
X281024286Y-143107619D01*
X280976667Y-143155238D01*
X280929048Y-143179048D01*
D24*
X280359048Y-130246190D02*
X280359048Y-130650952D01*
X280382857Y-130698571D01*
X280406667Y-130722381D01*
X280454286Y-130746190D01*
X280549524Y-130746190D01*
X280597143Y-130722381D01*
X280620952Y-130698571D01*
X280644762Y-130650952D01*
X280644762Y-130246190D01*
X280835239Y-130246190D02*
X281144762Y-130246190D01*
X280978096Y-130436667D01*
X281049524Y-130436667D01*
X281097143Y-130460476D01*
X281120953Y-130484286D01*
X281144762Y-130531905D01*
X281144762Y-130650952D01*
X281120953Y-130698571D01*
X281097143Y-130722381D01*
X281049524Y-130746190D01*
X280906667Y-130746190D01*
X280859048Y-130722381D01*
X280835239Y-130698571D01*
D12*
X275930952Y-139223809D02*
X276330952Y-138957142D01*
X275930952Y-138957142D02*
X276330952Y-139223809D01*
X275969048Y-138823810D02*
X275950000Y-138804762D01*
X275930952Y-138766667D01*
X275930952Y-138671429D01*
X275950000Y-138633333D01*
X275969048Y-138614286D01*
X276007143Y-138595238D01*
X276045238Y-138595238D01*
X276102381Y-138614286D01*
X276330952Y-138842857D01*
X276330952Y-138595238D01*
M02*
