M48
;DRILL file {KiCad 4.0.4-stable} date 07/31/17 21:50:19
;FORMAT={-:-/ absolute / inch / decimal}
FMAT,2
INCH,TZ
T1C0.013
T2C0.039
T3C0.040
%
G90
G05
M72
T1
X10.59Y-5.339
X10.7539Y-5.124
X10.7643Y-5.6097
X10.8102Y-5.0965
X10.8126Y-5.3941
X10.8315Y-5.1567
X10.8984Y-5.0559
X10.8996Y-5.5768
X10.9819Y-5.1039
X10.9886Y-5.0602
X11.0201Y-5.1043
X11.0531Y-5.6191
X11.0571Y-5.1024
X11.1114Y-5.1681
X11.1142Y-5.4213
X11.1496Y-5.5827
X11.1504Y-5.2386
X11.1939Y-5.6604
X11.2098Y-5.0102
X11.2579Y-5.5768
X11.3287Y-5.4646
X11.4134Y-5.7106
X11.5236Y-5.2795
X11.5394Y-5.6949
T2
X12.0425Y-5.2181
X12.0425Y-5.3181
X12.0425Y-5.4181
X12.0425Y-5.5181
X12.0606Y-5.6555
X12.0709Y-5.0512
X12.1425Y-5.2181
X12.1425Y-5.3181
X12.1425Y-5.4181
X12.1425Y-5.5181
T3
X10.562Y-5.4835
X10.562Y-5.5835
X11.8197Y-5.0024
X11.9197Y-5.0024
T0
M30
