G04 #@! TF.FileFunction,Soldermask,Top*
%FSLAX46Y46*%
G04 Gerber Fmt 4.6, Leading zero omitted, Abs format (unit mm)*
G04 Created by KiCad (PCBNEW 4.0.4-stable) date 07/31/17 21:50:18*
%MOMM*%
%LPD*%
G01*
G04 APERTURE LIST*
%ADD10C,0.150000*%
%ADD11R,0.629440X0.428780*%
%ADD12R,0.230000X0.530000*%
%ADD13R,0.230000X0.580000*%
%ADD14R,0.530000X0.230000*%
%ADD15R,0.580000X0.230000*%
%ADD16R,0.428780X0.629440*%
%ADD17R,0.730000X0.330000*%
%ADD18R,0.630000X0.630000*%
%ADD19R,1.730000X1.730000*%
%ADD20R,1.173000X0.665000*%
%ADD21R,1.554000X1.554000*%
%ADD22C,1.554000*%
%ADD23R,1.530000X0.330000*%
%ADD24R,0.330000X1.530000*%
%ADD25R,0.830000X0.830000*%
%ADD26R,0.680000X0.430000*%
%ADD27R,0.665000X1.173000*%
%ADD28R,0.930000X0.830000*%
%ADD29R,0.830000X1.630000*%
%ADD30O,1.730000X1.730000*%
%ADD31R,0.230000X0.830000*%
%ADD32R,0.830000X0.230000*%
%ADD33R,1.142500X1.142500*%
%ADD34R,0.630000X1.130000*%
G04 APERTURE END LIST*
D10*
D11*
X274070000Y-139049580D03*
X274070000Y-138150420D03*
D12*
X282140000Y-130350000D03*
D13*
X282540000Y-130350000D03*
X282940000Y-130350000D03*
X283340000Y-130350000D03*
X283740000Y-130350000D03*
D12*
X284140000Y-130350000D03*
D14*
X284640000Y-129850000D03*
D15*
X284640000Y-129450000D03*
X284640000Y-129050000D03*
X284640000Y-128650000D03*
X284640000Y-128250000D03*
D14*
X284640000Y-127850000D03*
D12*
X284140000Y-127350000D03*
D13*
X283740000Y-127350000D03*
X283340000Y-127350000D03*
X282940000Y-127350000D03*
X282540000Y-127350000D03*
D12*
X282140000Y-127350000D03*
D14*
X281640000Y-127850000D03*
D15*
X281640000Y-128250000D03*
X281640000Y-128650000D03*
X281640000Y-129050000D03*
X281640000Y-129450000D03*
D14*
X281640000Y-129850000D03*
D16*
X283199580Y-132210000D03*
X282300420Y-132210000D03*
X283719580Y-131270000D03*
X282820420Y-131270000D03*
X285650420Y-127360000D03*
X286549580Y-127360000D03*
D11*
X285780000Y-128730420D03*
X285780000Y-129629580D03*
D17*
X278326500Y-128500000D03*
D18*
X278000000Y-129112500D03*
X278000000Y-127887500D03*
D17*
X277637500Y-128500000D03*
D16*
X275729580Y-128620000D03*
X274830420Y-128620000D03*
X273150420Y-129450000D03*
X274049580Y-129450000D03*
X302250420Y-134930000D03*
X303149580Y-134930000D03*
X302250420Y-137770000D03*
X303149580Y-137770000D03*
X302240420Y-136300000D03*
X303139580Y-136300000D03*
X302250420Y-133375000D03*
X303149580Y-133375000D03*
D19*
X306600000Y-128300000D03*
D20*
X289100000Y-128512000D03*
X289100000Y-126988000D03*
D21*
X302760000Y-127060000D03*
D22*
X300220000Y-127060000D03*
D11*
X297075000Y-128375420D03*
X297075000Y-129274580D03*
D23*
X297700000Y-140650000D03*
X297700000Y-140150000D03*
X297700000Y-139650000D03*
X297700000Y-139150000D03*
X297700000Y-138650000D03*
X297700000Y-138150000D03*
X297700000Y-137650000D03*
X297700000Y-137150000D03*
X297700000Y-136650000D03*
X297700000Y-136150000D03*
X297700000Y-135650000D03*
X297700000Y-135150000D03*
X297700000Y-134650000D03*
X297700000Y-134150000D03*
X297700000Y-133650000D03*
X297700000Y-133150000D03*
D24*
X295750000Y-131200000D03*
X295250000Y-131200000D03*
X294750000Y-131200000D03*
X294250000Y-131200000D03*
X293750000Y-131200000D03*
X293250000Y-131200000D03*
X292750000Y-131200000D03*
X292250000Y-131200000D03*
X291750000Y-131200000D03*
X291250000Y-131200000D03*
X290750000Y-131200000D03*
X290250000Y-131200000D03*
X289750000Y-131200000D03*
X289250000Y-131200000D03*
X288750000Y-131200000D03*
X288250000Y-131200000D03*
D23*
X286300000Y-133150000D03*
X286300000Y-133650000D03*
X286300000Y-134150000D03*
X286300000Y-134650000D03*
X286300000Y-135150000D03*
X286300000Y-135650000D03*
X286300000Y-136150000D03*
X286300000Y-136650000D03*
X286300000Y-137150000D03*
X286300000Y-137650000D03*
X286300000Y-138150000D03*
X286300000Y-138650000D03*
X286300000Y-139150000D03*
X286300000Y-139650000D03*
X286300000Y-140150000D03*
X286300000Y-140650000D03*
D24*
X288250000Y-142600000D03*
X288750000Y-142600000D03*
X289250000Y-142600000D03*
X289750000Y-142600000D03*
X290250000Y-142600000D03*
X290750000Y-142600000D03*
X291250000Y-142600000D03*
X291750000Y-142600000D03*
X292250000Y-142600000D03*
X292750000Y-142600000D03*
X293250000Y-142600000D03*
X293750000Y-142600000D03*
X294250000Y-142600000D03*
X294750000Y-142600000D03*
X295250000Y-142600000D03*
X295750000Y-142600000D03*
D16*
X288100420Y-144950000D03*
X288999580Y-144950000D03*
D25*
X279350000Y-140200000D03*
X279350000Y-138600000D03*
D16*
X288100420Y-146000000D03*
X288999580Y-146000000D03*
D26*
X274262500Y-143537500D03*
X274262500Y-142237500D03*
X272362500Y-142887500D03*
X274262500Y-142887500D03*
X272362500Y-142237500D03*
X272362500Y-143537500D03*
D11*
X290800000Y-127849580D03*
X290800000Y-126950420D03*
X296025000Y-128375420D03*
X296025000Y-129274580D03*
D16*
X284950420Y-142675000D03*
X285849580Y-142675000D03*
X301025420Y-131875000D03*
X301924580Y-131875000D03*
X285849580Y-143750000D03*
X284950420Y-143750000D03*
X291500420Y-145850000D03*
X292399580Y-145850000D03*
X291500420Y-144725000D03*
X292399580Y-144725000D03*
X294749580Y-145900000D03*
X293850420Y-145900000D03*
D11*
X286975000Y-129775420D03*
X286975000Y-130674580D03*
D16*
X294749580Y-144725000D03*
X293850420Y-144725000D03*
D11*
X293775000Y-126950420D03*
X293775000Y-127849580D03*
X300200000Y-130300420D03*
X300200000Y-131199580D03*
X298975000Y-130300420D03*
X298975000Y-131199580D03*
D20*
X292275000Y-126963000D03*
X292275000Y-128487000D03*
X278225000Y-142038000D03*
X278225000Y-143562000D03*
X270712500Y-141925500D03*
X270712500Y-143449500D03*
D16*
X272762920Y-141287500D03*
X273662080Y-141287500D03*
D11*
X275362500Y-143537080D03*
X275362500Y-142637920D03*
D16*
X280275420Y-141100000D03*
X281174580Y-141100000D03*
D11*
X283025000Y-143449580D03*
X283025000Y-142550420D03*
X300075000Y-144549580D03*
X300075000Y-143650420D03*
X301175000Y-144549580D03*
X301175000Y-143650420D03*
D16*
X300200420Y-133000000D03*
X301099580Y-133000000D03*
X300175420Y-134250000D03*
X301074580Y-134250000D03*
X300200420Y-135690000D03*
X301099580Y-135690000D03*
X300200420Y-136910000D03*
X301099580Y-136910000D03*
D25*
X278150000Y-140200000D03*
X278150000Y-138600000D03*
D21*
X268275000Y-141820000D03*
D22*
X268275000Y-139280000D03*
D27*
X272932000Y-138620000D03*
X271408000Y-138620000D03*
D28*
X270800000Y-133500000D03*
X272200000Y-133500000D03*
X270800000Y-134600000D03*
X272200000Y-134600000D03*
D11*
X275450000Y-140100420D03*
X275450000Y-140999580D03*
D16*
X273649580Y-140200000D03*
X272750420Y-140200000D03*
D11*
X269800000Y-133750420D03*
X269800000Y-134649580D03*
X273200000Y-134549580D03*
X273200000Y-133650420D03*
D16*
X276899580Y-129450000D03*
X276000420Y-129450000D03*
D11*
X276850000Y-140100420D03*
X276850000Y-140999580D03*
D29*
X270745000Y-127673000D03*
X267345000Y-127673000D03*
D16*
X272849580Y-127700000D03*
X271950420Y-127700000D03*
D11*
X274000000Y-127650420D03*
X274000000Y-128549580D03*
D16*
X276049580Y-127700000D03*
X275150420Y-127700000D03*
X271730420Y-137270000D03*
X272629580Y-137270000D03*
D27*
X273262000Y-136000000D03*
X271738000Y-136000000D03*
X280788000Y-138800000D03*
X282312000Y-138800000D03*
D26*
X281775000Y-143650000D03*
X281775000Y-142350000D03*
X279875000Y-143000000D03*
X281775000Y-143000000D03*
X279875000Y-142350000D03*
X279875000Y-143650000D03*
D19*
X306340000Y-143650000D03*
X305880000Y-132540000D03*
D30*
X308420000Y-132540000D03*
X305880000Y-135080000D03*
X308420000Y-135080000D03*
X305880000Y-137620000D03*
X308420000Y-137620000D03*
X305880000Y-140160000D03*
X308420000Y-140160000D03*
D31*
X275600000Y-137000000D03*
X276000000Y-137000000D03*
X276400000Y-137000000D03*
X276800000Y-137000000D03*
X277200000Y-137000000D03*
X277600000Y-137000000D03*
X278000000Y-137000000D03*
X278400000Y-137000000D03*
X278800000Y-137000000D03*
X279200000Y-137000000D03*
X279600000Y-137000000D03*
X280000000Y-137000000D03*
D32*
X280800000Y-136200000D03*
X280800000Y-135800000D03*
X280800000Y-135400000D03*
X280800000Y-135000000D03*
X280800000Y-134600000D03*
X280800000Y-134200000D03*
X280800000Y-133800000D03*
X280800000Y-133400000D03*
X280800000Y-133000000D03*
X280800000Y-132600000D03*
X280800000Y-132200000D03*
X280800000Y-131800000D03*
D31*
X280000000Y-131000000D03*
X279600000Y-131000000D03*
X279200000Y-131000000D03*
X278800000Y-131000000D03*
X278400000Y-131000000D03*
X278000000Y-131000000D03*
X277600000Y-131000000D03*
X277200000Y-131000000D03*
X276800000Y-131000000D03*
X276400000Y-131000000D03*
X276000000Y-131000000D03*
X275600000Y-131000000D03*
D32*
X274800000Y-131800000D03*
X274800000Y-132200000D03*
X274800000Y-132600000D03*
X274800000Y-133000000D03*
X274800000Y-133400000D03*
X274800000Y-133800000D03*
X274800000Y-134200000D03*
X274800000Y-134600000D03*
X274800000Y-135000000D03*
X274800000Y-135400000D03*
X274800000Y-135800000D03*
X274800000Y-136200000D03*
D33*
X279468750Y-132331250D03*
X278356250Y-132331250D03*
X277243750Y-132331250D03*
X276131250Y-132331250D03*
X279468750Y-133443750D03*
X278356250Y-133443750D03*
X277243750Y-133443750D03*
X276131250Y-133443750D03*
X279468750Y-134556250D03*
X278356250Y-134556250D03*
X277243750Y-134556250D03*
X276131250Y-134556250D03*
X279468750Y-135668750D03*
X278356250Y-135668750D03*
X277243750Y-135668750D03*
X276131250Y-135668750D03*
D34*
X276850000Y-138850000D03*
X275450000Y-138850000D03*
M02*
