G04 #@! TF.FileFunction,Copper,L1,Top,Signal*
%FSLAX46Y46*%
G04 Gerber Fmt 4.6, Leading zero omitted, Abs format (unit mm)*
G04 Created by KiCad (PCBNEW 4.0.4-stable) date 07/31/17 21:50:18*
%MOMM*%
%LPD*%
G01*
G04 APERTURE LIST*
%ADD10C,0.150000*%
%ADD11R,0.599440X0.398780*%
%ADD12R,0.200000X0.500000*%
%ADD13R,0.200000X0.550000*%
%ADD14R,0.500000X0.200000*%
%ADD15R,0.550000X0.200000*%
%ADD16R,0.398780X0.599440*%
%ADD17R,0.700000X0.300000*%
%ADD18R,0.600000X0.600000*%
%ADD19R,1.700000X1.700000*%
%ADD20R,1.143000X0.635000*%
%ADD21R,1.524000X1.524000*%
%ADD22C,1.524000*%
%ADD23R,1.500000X0.300000*%
%ADD24R,0.300000X1.500000*%
%ADD25R,0.800000X0.800000*%
%ADD26R,0.650000X0.400000*%
%ADD27R,0.635000X1.143000*%
%ADD28R,0.900000X0.800000*%
%ADD29R,0.800000X1.600000*%
%ADD30O,1.700000X1.700000*%
%ADD31R,0.200000X0.800000*%
%ADD32R,0.800000X0.200000*%
%ADD33R,1.112500X1.112500*%
%ADD34R,0.600000X1.100000*%
%ADD35C,0.508000*%
%ADD36C,0.152000*%
%ADD37C,0.457200*%
%ADD38C,0.229000*%
%ADD39C,0.460000*%
%ADD40C,0.152400*%
%ADD41C,0.254000*%
G04 APERTURE END LIST*
D10*
D11*
X274070000Y-139049580D03*
X274070000Y-138150420D03*
D12*
X282140000Y-130350000D03*
D13*
X282540000Y-130350000D03*
X282940000Y-130350000D03*
X283340000Y-130350000D03*
X283740000Y-130350000D03*
D12*
X284140000Y-130350000D03*
D14*
X284640000Y-129850000D03*
D15*
X284640000Y-129450000D03*
X284640000Y-129050000D03*
X284640000Y-128650000D03*
X284640000Y-128250000D03*
D14*
X284640000Y-127850000D03*
D12*
X284140000Y-127350000D03*
D13*
X283740000Y-127350000D03*
X283340000Y-127350000D03*
X282940000Y-127350000D03*
X282540000Y-127350000D03*
D12*
X282140000Y-127350000D03*
D14*
X281640000Y-127850000D03*
D15*
X281640000Y-128250000D03*
X281640000Y-128650000D03*
X281640000Y-129050000D03*
X281640000Y-129450000D03*
D14*
X281640000Y-129850000D03*
D16*
X283199580Y-132210000D03*
X282300420Y-132210000D03*
X283719580Y-131270000D03*
X282820420Y-131270000D03*
X285650420Y-127360000D03*
X286549580Y-127360000D03*
D11*
X285780000Y-128730420D03*
X285780000Y-129629580D03*
D17*
X278326500Y-128500000D03*
D18*
X278000000Y-129112500D03*
X278000000Y-127887500D03*
D17*
X277637500Y-128500000D03*
D16*
X275729580Y-128620000D03*
X274830420Y-128620000D03*
X273150420Y-129450000D03*
X274049580Y-129450000D03*
X302250420Y-134930000D03*
X303149580Y-134930000D03*
X302250420Y-137770000D03*
X303149580Y-137770000D03*
X302240420Y-136300000D03*
X303139580Y-136300000D03*
X302250420Y-133375000D03*
X303149580Y-133375000D03*
D19*
X306600000Y-128300000D03*
D20*
X289100000Y-128512000D03*
X289100000Y-126988000D03*
D21*
X302760000Y-127060000D03*
D22*
X300220000Y-127060000D03*
D11*
X297075000Y-128375420D03*
X297075000Y-129274580D03*
D23*
X297700000Y-140650000D03*
X297700000Y-140150000D03*
X297700000Y-139650000D03*
X297700000Y-139150000D03*
X297700000Y-138650000D03*
X297700000Y-138150000D03*
X297700000Y-137650000D03*
X297700000Y-137150000D03*
X297700000Y-136650000D03*
X297700000Y-136150000D03*
X297700000Y-135650000D03*
X297700000Y-135150000D03*
X297700000Y-134650000D03*
X297700000Y-134150000D03*
X297700000Y-133650000D03*
X297700000Y-133150000D03*
D24*
X295750000Y-131200000D03*
X295250000Y-131200000D03*
X294750000Y-131200000D03*
X294250000Y-131200000D03*
X293750000Y-131200000D03*
X293250000Y-131200000D03*
X292750000Y-131200000D03*
X292250000Y-131200000D03*
X291750000Y-131200000D03*
X291250000Y-131200000D03*
X290750000Y-131200000D03*
X290250000Y-131200000D03*
X289750000Y-131200000D03*
X289250000Y-131200000D03*
X288750000Y-131200000D03*
X288250000Y-131200000D03*
D23*
X286300000Y-133150000D03*
X286300000Y-133650000D03*
X286300000Y-134150000D03*
X286300000Y-134650000D03*
X286300000Y-135150000D03*
X286300000Y-135650000D03*
X286300000Y-136150000D03*
X286300000Y-136650000D03*
X286300000Y-137150000D03*
X286300000Y-137650000D03*
X286300000Y-138150000D03*
X286300000Y-138650000D03*
X286300000Y-139150000D03*
X286300000Y-139650000D03*
X286300000Y-140150000D03*
X286300000Y-140650000D03*
D24*
X288250000Y-142600000D03*
X288750000Y-142600000D03*
X289250000Y-142600000D03*
X289750000Y-142600000D03*
X290250000Y-142600000D03*
X290750000Y-142600000D03*
X291250000Y-142600000D03*
X291750000Y-142600000D03*
X292250000Y-142600000D03*
X292750000Y-142600000D03*
X293250000Y-142600000D03*
X293750000Y-142600000D03*
X294250000Y-142600000D03*
X294750000Y-142600000D03*
X295250000Y-142600000D03*
X295750000Y-142600000D03*
D16*
X288100420Y-144950000D03*
X288999580Y-144950000D03*
D25*
X279350000Y-140200000D03*
X279350000Y-138600000D03*
D16*
X288100420Y-146000000D03*
X288999580Y-146000000D03*
D26*
X274262500Y-143537500D03*
X274262500Y-142237500D03*
X272362500Y-142887500D03*
X274262500Y-142887500D03*
X272362500Y-142237500D03*
X272362500Y-143537500D03*
D11*
X290800000Y-127849580D03*
X290800000Y-126950420D03*
X296025000Y-128375420D03*
X296025000Y-129274580D03*
D16*
X284950420Y-142675000D03*
X285849580Y-142675000D03*
X301025420Y-131875000D03*
X301924580Y-131875000D03*
X285849580Y-143750000D03*
X284950420Y-143750000D03*
X291500420Y-145850000D03*
X292399580Y-145850000D03*
X291500420Y-144725000D03*
X292399580Y-144725000D03*
X294749580Y-145900000D03*
X293850420Y-145900000D03*
D11*
X286975000Y-129775420D03*
X286975000Y-130674580D03*
D16*
X294749580Y-144725000D03*
X293850420Y-144725000D03*
D11*
X293775000Y-126950420D03*
X293775000Y-127849580D03*
X300200000Y-130300420D03*
X300200000Y-131199580D03*
X298975000Y-130300420D03*
X298975000Y-131199580D03*
D20*
X292275000Y-126963000D03*
X292275000Y-128487000D03*
X278225000Y-142038000D03*
X278225000Y-143562000D03*
X270712500Y-141925500D03*
X270712500Y-143449500D03*
D16*
X272762920Y-141287500D03*
X273662080Y-141287500D03*
D11*
X275362500Y-143537080D03*
X275362500Y-142637920D03*
D16*
X280275420Y-141100000D03*
X281174580Y-141100000D03*
D11*
X283025000Y-143449580D03*
X283025000Y-142550420D03*
X300075000Y-144549580D03*
X300075000Y-143650420D03*
X301175000Y-144549580D03*
X301175000Y-143650420D03*
D16*
X300200420Y-133000000D03*
X301099580Y-133000000D03*
X300175420Y-134250000D03*
X301074580Y-134250000D03*
X300200420Y-135690000D03*
X301099580Y-135690000D03*
X300200420Y-136910000D03*
X301099580Y-136910000D03*
D25*
X278150000Y-140200000D03*
X278150000Y-138600000D03*
D21*
X268275000Y-141820000D03*
D22*
X268275000Y-139280000D03*
D27*
X272932000Y-138620000D03*
X271408000Y-138620000D03*
D28*
X270800000Y-133500000D03*
X272200000Y-133500000D03*
X270800000Y-134600000D03*
X272200000Y-134600000D03*
D11*
X275450000Y-140100420D03*
X275450000Y-140999580D03*
D16*
X273649580Y-140200000D03*
X272750420Y-140200000D03*
D11*
X269800000Y-133750420D03*
X269800000Y-134649580D03*
X273200000Y-134549580D03*
X273200000Y-133650420D03*
D16*
X276899580Y-129450000D03*
X276000420Y-129450000D03*
D11*
X276850000Y-140100420D03*
X276850000Y-140999580D03*
D29*
X270745000Y-127673000D03*
X267345000Y-127673000D03*
D16*
X272849580Y-127700000D03*
X271950420Y-127700000D03*
D11*
X274000000Y-127650420D03*
X274000000Y-128549580D03*
D16*
X276049580Y-127700000D03*
X275150420Y-127700000D03*
X271730420Y-137270000D03*
X272629580Y-137270000D03*
D27*
X273262000Y-136000000D03*
X271738000Y-136000000D03*
X280788000Y-138800000D03*
X282312000Y-138800000D03*
D26*
X281775000Y-143650000D03*
X281775000Y-142350000D03*
X279875000Y-143000000D03*
X281775000Y-143000000D03*
X279875000Y-142350000D03*
X279875000Y-143650000D03*
D19*
X306340000Y-143650000D03*
X305880000Y-132540000D03*
D30*
X308420000Y-132540000D03*
X305880000Y-135080000D03*
X308420000Y-135080000D03*
X305880000Y-137620000D03*
X308420000Y-137620000D03*
X305880000Y-140160000D03*
X308420000Y-140160000D03*
D31*
X275600000Y-137000000D03*
X276000000Y-137000000D03*
X276400000Y-137000000D03*
X276800000Y-137000000D03*
X277200000Y-137000000D03*
X277600000Y-137000000D03*
X278000000Y-137000000D03*
X278400000Y-137000000D03*
X278800000Y-137000000D03*
X279200000Y-137000000D03*
X279600000Y-137000000D03*
X280000000Y-137000000D03*
D32*
X280800000Y-136200000D03*
X280800000Y-135800000D03*
X280800000Y-135400000D03*
X280800000Y-135000000D03*
X280800000Y-134600000D03*
X280800000Y-134200000D03*
X280800000Y-133800000D03*
X280800000Y-133400000D03*
X280800000Y-133000000D03*
X280800000Y-132600000D03*
X280800000Y-132200000D03*
X280800000Y-131800000D03*
D31*
X280000000Y-131000000D03*
X279600000Y-131000000D03*
X279200000Y-131000000D03*
X278800000Y-131000000D03*
X278400000Y-131000000D03*
X278000000Y-131000000D03*
X277600000Y-131000000D03*
X277200000Y-131000000D03*
X276800000Y-131000000D03*
X276400000Y-131000000D03*
X276000000Y-131000000D03*
X275600000Y-131000000D03*
D32*
X274800000Y-131800000D03*
X274800000Y-132200000D03*
X274800000Y-132600000D03*
X274800000Y-133000000D03*
X274800000Y-133400000D03*
X274800000Y-133800000D03*
X274800000Y-134200000D03*
X274800000Y-134600000D03*
X274800000Y-135000000D03*
X274800000Y-135400000D03*
X274800000Y-135800000D03*
X274800000Y-136200000D03*
D33*
X279468750Y-132331250D03*
X278356250Y-132331250D03*
X277243750Y-132331250D03*
X276131250Y-132331250D03*
X279468750Y-133443750D03*
X278356250Y-133443750D03*
X277243750Y-133443750D03*
X276131250Y-133443750D03*
X279468750Y-134556250D03*
X278356250Y-134556250D03*
X277243750Y-134556250D03*
X276131250Y-134556250D03*
X279468750Y-135668750D03*
X278356250Y-135668750D03*
X277243750Y-135668750D03*
X276131250Y-135668750D03*
D34*
X276850000Y-138850000D03*
X275450000Y-138850000D03*
D35*
X279910000Y-129650000D03*
X278940000Y-129640000D03*
X292700000Y-134100000D03*
X279110000Y-128530000D03*
X268986000Y-135610000D03*
X276820000Y-128420000D03*
X276850000Y-141650000D03*
X273150000Y-130150000D03*
X282300000Y-137700000D03*
X283200000Y-141800000D03*
X287750000Y-138800000D03*
X293100000Y-144650000D03*
X285950000Y-141650000D03*
X284730000Y-127260000D03*
X283220000Y-133060000D03*
X274640000Y-137010000D03*
X275120000Y-130980000D03*
X274580000Y-129450000D03*
X280750000Y-142725000D03*
X284325000Y-143775000D03*
X273412500Y-142487500D03*
X289900000Y-145050000D03*
X280850000Y-129600000D03*
X282230000Y-131270000D03*
D36*
X274100000Y-140200000D02*
X273649580Y-140200000D01*
X274730000Y-139570000D02*
X274100000Y-140200000D01*
X274730000Y-138010000D02*
X274730000Y-139570000D01*
X275600000Y-137140000D02*
X274730000Y-138010000D01*
X275600000Y-137000000D02*
X275600000Y-137140000D01*
X275600000Y-137000000D02*
X275550000Y-137000000D01*
X276899580Y-129450000D02*
X276899580Y-129699580D01*
X276899580Y-129699580D02*
X277200000Y-130000000D01*
X277200000Y-130000000D02*
X277200000Y-131000000D01*
D37*
X276049580Y-127700000D02*
X277800000Y-127700000D01*
X277800000Y-127700000D02*
X278000000Y-127900000D01*
D38*
X280800000Y-135000000D02*
X283060000Y-135000000D01*
X284710000Y-136650000D02*
X286300000Y-136650000D01*
X283060000Y-135000000D02*
X284710000Y-136650000D01*
X280800000Y-134600000D02*
X283550000Y-134600000D01*
X285100000Y-136150000D02*
X286300000Y-136150000D01*
X283550000Y-134600000D02*
X285100000Y-136150000D01*
D36*
X286200000Y-136250000D02*
X286300000Y-136150000D01*
X280000000Y-131000000D02*
X280000000Y-129740000D01*
X280000000Y-129740000D02*
X279910000Y-129650000D01*
X280000000Y-131000000D02*
X280000000Y-130730000D01*
X279600000Y-131000000D02*
X279600000Y-130350000D01*
X279600000Y-130350000D02*
X278940000Y-129640000D01*
D38*
X286300000Y-140150000D02*
X284940000Y-140150000D01*
X281940000Y-135800000D02*
X280800000Y-135800000D01*
X283360000Y-137220000D02*
X281940000Y-135800000D01*
X283360000Y-138570000D02*
X283360000Y-137220000D01*
X284940000Y-140150000D02*
X283360000Y-138570000D01*
D39*
X271950420Y-127700000D02*
X270772000Y-127700000D01*
X270772000Y-127700000D02*
X270745000Y-127673000D01*
D36*
X271408000Y-138620000D02*
X271408000Y-137592420D01*
X271408000Y-137592420D02*
X271730420Y-137270000D01*
X286975000Y-130674580D02*
X287724580Y-130674580D01*
X287724580Y-130674580D02*
X288250000Y-131200000D01*
X285930000Y-129629580D02*
X286975000Y-130674580D01*
X272750420Y-140200000D02*
X272750420Y-139709580D01*
X273609580Y-139510000D02*
X274070000Y-139049580D01*
X272950000Y-139510000D02*
X273609580Y-139510000D01*
X272750420Y-139709580D02*
X272950000Y-139510000D01*
D37*
X292400000Y-132750000D02*
X292400000Y-133800000D01*
X292400000Y-133800000D02*
X292700000Y-134100000D01*
D36*
X282140000Y-127350000D02*
X280830000Y-127350000D01*
X280830000Y-127350000D02*
X280670000Y-127190000D01*
X285780000Y-129629580D02*
X286150420Y-129629580D01*
X286549580Y-129230420D02*
X286549580Y-127930420D01*
X286150420Y-129629580D02*
X286549580Y-129230420D01*
X285780000Y-129629580D02*
X285930000Y-129629580D01*
X284640000Y-129050000D02*
X285200420Y-129050000D01*
X285200420Y-129050000D02*
X285780000Y-129629580D01*
X284640000Y-127850000D02*
X285050000Y-127850000D01*
X286290000Y-128190000D02*
X286549580Y-127930420D01*
X285390000Y-128190000D02*
X286290000Y-128190000D01*
X285050000Y-127850000D02*
X285390000Y-128190000D01*
X286549580Y-127930420D02*
X286549580Y-127360000D01*
D38*
X278326500Y-128500000D02*
X279080000Y-128500000D01*
X279080000Y-128500000D02*
X279110000Y-128530000D01*
D36*
X276000420Y-129450000D02*
X275660420Y-129450000D01*
X275660420Y-129450000D02*
X274830420Y-128620000D01*
D37*
X274000000Y-128549580D02*
X274760000Y-128549580D01*
X274760000Y-128549580D02*
X274830420Y-128620000D01*
D36*
X277637500Y-128500000D02*
X276900000Y-128500000D01*
X276900000Y-128500000D02*
X276820000Y-128420000D01*
X277637500Y-128500000D02*
X278326500Y-128500000D01*
X275362500Y-142637920D02*
X275862080Y-142637920D01*
D37*
X276850000Y-141650000D02*
X276850000Y-140999580D01*
D38*
X275862080Y-142637920D02*
X276850000Y-141650000D01*
D36*
X272750420Y-140200000D02*
X272750420Y-140375840D01*
X272750420Y-140375840D02*
X273662080Y-141287500D01*
X273150420Y-129450000D02*
X273150420Y-130149580D01*
X273150420Y-130149580D02*
X273150000Y-130150000D01*
D37*
X273150420Y-129450000D02*
X273150420Y-128799580D01*
X273150420Y-128799580D02*
X273400420Y-128549580D01*
X273400420Y-128549580D02*
X274000000Y-128549580D01*
X270230000Y-139280000D02*
X270230000Y-137508000D01*
X270230000Y-137508000D02*
X271738000Y-136000000D01*
X268275000Y-139280000D02*
X270230000Y-139280000D01*
X271150000Y-140200000D02*
X272750420Y-140200000D01*
X270230000Y-139280000D02*
X271150000Y-140200000D01*
D36*
X273200000Y-134549580D02*
X273449580Y-134549580D01*
X273449580Y-134549580D02*
X273900000Y-135000000D01*
X273900000Y-135000000D02*
X274800000Y-135000000D01*
X277600000Y-131000000D02*
X277600000Y-129700000D01*
X277350000Y-129450000D02*
X277350000Y-128500000D01*
X277600000Y-129700000D02*
X277350000Y-129450000D01*
X278356250Y-132331250D02*
X278356250Y-133443750D01*
X277243750Y-135668750D02*
X276131250Y-135668750D01*
X278356250Y-135668750D02*
X277243750Y-135668750D01*
X279468750Y-135668750D02*
X278356250Y-135668750D01*
X279468750Y-134556250D02*
X279468750Y-135668750D01*
X278356250Y-134556250D02*
X279468750Y-134556250D01*
X277243750Y-134556250D02*
X278356250Y-134556250D01*
X276131250Y-134556250D02*
X277243750Y-134556250D01*
X276131250Y-133443750D02*
X276131250Y-134556250D01*
X277243750Y-133443750D02*
X276131250Y-133443750D01*
X278356250Y-133443750D02*
X277243750Y-133443750D01*
X279468750Y-132331250D02*
X279468750Y-133443750D01*
X278356250Y-132331250D02*
X279468750Y-132331250D01*
X277243750Y-132331250D02*
X278356250Y-132331250D01*
X276131250Y-132331250D02*
X277243750Y-132331250D01*
X274800000Y-135000000D02*
X275687500Y-135000000D01*
X275687500Y-135000000D02*
X276131250Y-134556250D01*
X277600000Y-131000000D02*
X277600000Y-131975000D01*
X277600000Y-131975000D02*
X277243750Y-132331250D01*
D37*
X275450000Y-140999580D02*
X276850000Y-140999580D01*
X282312000Y-138800000D02*
X282312000Y-139338000D01*
X282312000Y-139338000D02*
X281174580Y-140475420D01*
X281174580Y-140475420D02*
X281174580Y-141100000D01*
D36*
X270800000Y-133500000D02*
X270050420Y-133500000D01*
X270050420Y-133500000D02*
X269800000Y-133750420D01*
X273200000Y-134549580D02*
X272250420Y-134549580D01*
X272250420Y-134549580D02*
X272200000Y-134600000D01*
D37*
X282312000Y-138800000D02*
X282312000Y-137712000D01*
X282312000Y-137712000D02*
X282300000Y-137700000D01*
X283025000Y-141975000D02*
X283025000Y-142550420D01*
X283200000Y-141800000D02*
X283025000Y-141975000D01*
D36*
X287500000Y-138325000D02*
X287500000Y-138550000D01*
X287500000Y-138550000D02*
X287750000Y-138800000D01*
X293100000Y-144650000D02*
X293100000Y-144725000D01*
D37*
X293775000Y-126950420D02*
X294375420Y-126950420D01*
X294375420Y-126950420D02*
X295800420Y-128375420D01*
D36*
X292399580Y-144725000D02*
X293100000Y-144725000D01*
X293100000Y-144725000D02*
X293850420Y-144725000D01*
X292399580Y-144725000D02*
X292399580Y-142749580D01*
X292399580Y-142749580D02*
X292250000Y-142600000D01*
X288250000Y-142600000D02*
X285924580Y-142600000D01*
X285924580Y-142600000D02*
X285849580Y-142675000D01*
X285849580Y-141750420D02*
X285849580Y-142675000D01*
X285950000Y-141650000D02*
X285849580Y-141750420D01*
X285849580Y-143750000D02*
X285849580Y-142675000D01*
X289275000Y-143900000D02*
X288425000Y-143900000D01*
X288425000Y-143900000D02*
X288250000Y-143725000D01*
X288250000Y-142600000D02*
X288250000Y-143725000D01*
X288250000Y-143725000D02*
X288250000Y-144800420D01*
X288250000Y-144800420D02*
X288100420Y-144950000D01*
X292449580Y-145900000D02*
X292399580Y-145850000D01*
X292750000Y-131200000D02*
X292750000Y-130375000D01*
X294749580Y-128375420D02*
X296025000Y-128375420D01*
X292750000Y-130375000D02*
X294749580Y-128375420D01*
X288712500Y-132237500D02*
X289225000Y-132750000D01*
X289225000Y-132750000D02*
X291700000Y-132750000D01*
D37*
X297075000Y-128375420D02*
X297875420Y-128375420D01*
X298975000Y-129475000D02*
X298975000Y-130300420D01*
X297875420Y-128375420D02*
X298975000Y-129475000D01*
X298975000Y-130300420D02*
X300200000Y-130300420D01*
X297075000Y-128375420D02*
X296025000Y-128375420D01*
X295800420Y-128375420D02*
X296025000Y-128375420D01*
X293775000Y-126950420D02*
X292287580Y-126950420D01*
X292287580Y-126950420D02*
X292275000Y-126963000D01*
X290800000Y-126950420D02*
X292262420Y-126950420D01*
X292262420Y-126950420D02*
X292275000Y-126963000D01*
D36*
X292400000Y-132750000D02*
X293925000Y-132750000D01*
X294250000Y-132425000D02*
X294250000Y-131200000D01*
X293925000Y-132750000D02*
X294250000Y-132425000D01*
X290250000Y-142600000D02*
X290250000Y-143550000D01*
X289900000Y-143900000D02*
X289275000Y-143900000D01*
X289275000Y-143900000D02*
X289250000Y-143900000D01*
X290250000Y-143550000D02*
X289900000Y-143900000D01*
X289250000Y-143900000D02*
X289250000Y-142600000D01*
X288100420Y-146000000D02*
X288100420Y-144950000D01*
X287500000Y-137125000D02*
X287500000Y-138325000D01*
X287500000Y-138325000D02*
X287500000Y-138375000D01*
X287225000Y-138650000D02*
X286300000Y-138650000D01*
X287500000Y-138375000D02*
X287225000Y-138650000D01*
X286300000Y-137650000D02*
X286300000Y-137150000D01*
X286300000Y-138650000D02*
X286300000Y-139150000D01*
X286300000Y-139150000D02*
X286300000Y-139650000D01*
X292399580Y-145850000D02*
X292399580Y-144725000D01*
X293850420Y-144725000D02*
X293850420Y-145900000D01*
X288750000Y-131200000D02*
X288250000Y-131200000D01*
X274262500Y-142237500D02*
X274962080Y-142237500D01*
X274962080Y-142237500D02*
X275362500Y-142637920D01*
D37*
X281775000Y-142350000D02*
X282824580Y-142350000D01*
X282824580Y-142350000D02*
X283025000Y-142550420D01*
X289100000Y-126988000D02*
X290762420Y-126988000D01*
D36*
X290762420Y-126988000D02*
X290800000Y-126950420D01*
X289112420Y-127000420D02*
X289100000Y-126988000D01*
X273662080Y-141287500D02*
X273662080Y-141637080D01*
X273662080Y-141637080D02*
X274262500Y-142237500D01*
X292750000Y-132400000D02*
X292750000Y-131200000D01*
X291700000Y-132750000D02*
X292400000Y-132750000D01*
X292400000Y-132750000D02*
X292750000Y-132400000D01*
X291750000Y-132700000D02*
X291750000Y-131200000D01*
X291700000Y-132750000D02*
X291750000Y-132700000D01*
X288250000Y-131200000D02*
X288250000Y-131800000D01*
X288250000Y-131200000D02*
X288250000Y-130900000D01*
X288250000Y-131200000D02*
X288250000Y-131000000D01*
X292750000Y-142600000D02*
X292250000Y-142600000D01*
X287500000Y-137150000D02*
X287500000Y-137125000D01*
X287500000Y-137125000D02*
X287500000Y-137100000D01*
X287500000Y-137100000D02*
X287500000Y-135450000D01*
X287500000Y-133350000D02*
X287500000Y-135450000D01*
X287500000Y-135450000D02*
X287500000Y-135550000D01*
X287400000Y-133250000D02*
X287500000Y-133350000D01*
X287400000Y-133250000D02*
X287700000Y-133250000D01*
X287500000Y-135550000D02*
X287400000Y-135650000D01*
X287700000Y-133250000D02*
X288712500Y-132237500D01*
X288712500Y-132237500D02*
X288750000Y-132200000D01*
X287300000Y-133150000D02*
X287400000Y-133250000D01*
X286300000Y-133150000D02*
X287300000Y-133150000D01*
X286300000Y-137150000D02*
X287500000Y-137150000D01*
X288750000Y-132200000D02*
X288750000Y-131200000D01*
X287400000Y-135650000D02*
X286300000Y-135650000D01*
D37*
X281174580Y-141100000D02*
X281174580Y-141749580D01*
D36*
X269800000Y-133750420D02*
X269093580Y-133750420D01*
X269093580Y-133750420D02*
X268986000Y-133858000D01*
X268986000Y-133858000D02*
X268986000Y-135610000D01*
X268986000Y-135610000D02*
X268986000Y-135636000D01*
X268986000Y-135636000D02*
X272034000Y-135636000D01*
X272034000Y-135636000D02*
X272200000Y-135470000D01*
X275417500Y-142582920D02*
X275362500Y-142637920D01*
X275362500Y-142637920D02*
X275392080Y-142637920D01*
D37*
X281174580Y-141749580D02*
X281775000Y-142350000D01*
D36*
X275362500Y-142637920D02*
X275362500Y-142637500D01*
X272200000Y-135470000D02*
X272200000Y-134650000D01*
D40*
X272300420Y-134549580D02*
X272200000Y-134650000D01*
D36*
X274070000Y-138150420D02*
X274070000Y-137580000D01*
X274070000Y-137580000D02*
X274640000Y-137010000D01*
X285650420Y-127360000D02*
X284830000Y-127360000D01*
X284830000Y-127360000D02*
X284730000Y-127260000D01*
X284140000Y-127350000D02*
X284640000Y-127350000D01*
X284640000Y-127350000D02*
X284730000Y-127260000D01*
X283199580Y-132210000D02*
X283199580Y-131790000D01*
X283199580Y-131790000D02*
X283719580Y-131270000D01*
X285640420Y-127350000D02*
X285650420Y-127360000D01*
D37*
X283199580Y-133039580D02*
X283199580Y-132210000D01*
X283220000Y-133060000D02*
X283199580Y-133039580D01*
D36*
X274660000Y-136990000D02*
X274800000Y-136200000D01*
X274640000Y-137010000D02*
X274660000Y-136990000D01*
X274049580Y-129450000D02*
X274580000Y-129450000D01*
X275140000Y-131000000D02*
X275600000Y-131000000D01*
X275120000Y-130980000D02*
X275140000Y-131000000D01*
X280275420Y-141100000D02*
X280250000Y-141100000D01*
X280250000Y-141100000D02*
X279350000Y-140200000D01*
X278150000Y-140200000D02*
X279350000Y-140200000D01*
D37*
X280275420Y-141100000D02*
X280275420Y-140124580D01*
X280788000Y-139612000D02*
X280788000Y-138800000D01*
X280275420Y-140124580D02*
X280788000Y-139612000D01*
D36*
X280800000Y-136200000D02*
X280800000Y-138788000D01*
X280800000Y-138788000D02*
X280788000Y-138800000D01*
D37*
X284950420Y-143750000D02*
X284350000Y-143750000D01*
X284325000Y-143775000D02*
X284350000Y-143750000D01*
D36*
X284950420Y-143750000D02*
X284950420Y-142675000D01*
X284950420Y-142675000D02*
X284950420Y-141099580D01*
X285400000Y-140650000D02*
X286300000Y-140650000D01*
X284950420Y-141099580D02*
X285400000Y-140650000D01*
X288000000Y-140650000D02*
X288850000Y-140650000D01*
X289750000Y-141550000D02*
X289750000Y-142600000D01*
X288850000Y-140650000D02*
X289750000Y-141550000D01*
X286300000Y-140650000D02*
X288000000Y-140650000D01*
X288750000Y-141400000D02*
X288750000Y-142600000D01*
X288000000Y-140650000D02*
X288750000Y-141400000D01*
D37*
X280275420Y-141100000D02*
X280275420Y-141949580D01*
X280275420Y-141949580D02*
X279875000Y-142350000D01*
X281775000Y-143000000D02*
X281025000Y-143000000D01*
X281025000Y-143000000D02*
X280750000Y-142725000D01*
D36*
X280750000Y-142725000D02*
X280800000Y-142775000D01*
D37*
X280800000Y-142775000D02*
X280375000Y-142350000D01*
X280375000Y-142350000D02*
X279875000Y-142350000D01*
X288999580Y-144950000D02*
X289800000Y-144950000D01*
X289900000Y-145050000D02*
X289800000Y-144950000D01*
D36*
X296025000Y-129274580D02*
X295650420Y-129274580D01*
X294750000Y-130175000D02*
X294750000Y-131200000D01*
X295650420Y-129274580D02*
X294750000Y-130175000D01*
X293250000Y-142600000D02*
X293250000Y-143700000D01*
X294749580Y-144349580D02*
X294749580Y-144725000D01*
X294350000Y-143950000D02*
X294749580Y-144349580D01*
X293500000Y-143950000D02*
X294350000Y-143950000D01*
X293250000Y-143700000D02*
X293500000Y-143950000D01*
X290750000Y-142600000D02*
X290750000Y-143550000D01*
X289350000Y-144950000D02*
X288999580Y-144950000D01*
X290750000Y-143550000D02*
X289350000Y-144950000D01*
X297075000Y-129274580D02*
X297549580Y-129274580D01*
X298274580Y-131199580D02*
X298975000Y-131199580D01*
X298175000Y-131100000D02*
X298274580Y-131199580D01*
X298175000Y-129900000D02*
X298175000Y-131100000D01*
X297549580Y-129274580D02*
X298175000Y-129900000D01*
X293750000Y-131200000D02*
X293750000Y-130400000D01*
X294875420Y-129274580D02*
X296025000Y-129274580D01*
X293750000Y-130400000D02*
X294875420Y-129274580D01*
D37*
X297075000Y-129274580D02*
X296025000Y-129274580D01*
X300200000Y-131199580D02*
X298975000Y-131199580D01*
D36*
X288999580Y-144950000D02*
X288999580Y-146000000D01*
X292300000Y-141050000D02*
X291050000Y-141050000D01*
X290750000Y-141350000D02*
X290750000Y-142600000D01*
X291050000Y-141050000D02*
X290750000Y-141350000D01*
X291750000Y-142600000D02*
X291750000Y-141475000D01*
X292175000Y-141050000D02*
X292300000Y-141050000D01*
X292300000Y-141050000D02*
X293675000Y-141050000D01*
X291750000Y-141475000D02*
X292175000Y-141050000D01*
X293250000Y-142600000D02*
X293250000Y-141475000D01*
X294075000Y-140650000D02*
X297700000Y-140650000D01*
X293250000Y-141475000D02*
X293675000Y-141050000D01*
X293675000Y-141050000D02*
X294075000Y-140650000D01*
X294749580Y-145900000D02*
X294749580Y-144725000D01*
X294750000Y-131200000D02*
X294750000Y-132450000D01*
X294750000Y-132450000D02*
X294750000Y-135075000D01*
X296825000Y-137150000D02*
X297700000Y-137150000D01*
X294750000Y-135075000D02*
X296825000Y-137150000D01*
X297700000Y-139150000D02*
X297700000Y-139650000D01*
X297700000Y-140150000D02*
X297700000Y-140650000D01*
X297700000Y-137150000D02*
X297700000Y-137650000D01*
X272762920Y-141287500D02*
X272762920Y-141837080D01*
X272762920Y-141837080D02*
X272362500Y-142237500D01*
X274262500Y-142887500D02*
X273812500Y-142887500D01*
X273812500Y-142887500D02*
X273412500Y-142487500D01*
X273162500Y-142237500D02*
X272362500Y-142237500D01*
X273412500Y-142487500D02*
X273162500Y-142237500D01*
X293299580Y-142649580D02*
X293250000Y-142600000D01*
X297700000Y-138650000D02*
X297700000Y-139150000D01*
X297700000Y-139650000D02*
X297700000Y-140150000D01*
X297700000Y-138150000D02*
X297700000Y-138650000D01*
X297700000Y-137650000D02*
X297700000Y-138150000D01*
X290749580Y-142600420D02*
X290750000Y-142600000D01*
X290749580Y-142600420D02*
X290750000Y-142600000D01*
X293250000Y-131200000D02*
X293750000Y-131200000D01*
X302240420Y-136300000D02*
X299700000Y-136300000D01*
X299050000Y-135650000D02*
X297700000Y-135650000D01*
X299700000Y-136300000D02*
X299050000Y-135650000D01*
X297650000Y-135600000D02*
X297700000Y-135650000D01*
X297700000Y-135150000D02*
X299320000Y-135150000D01*
X299860000Y-135690000D02*
X300200420Y-135690000D01*
X299320000Y-135150000D02*
X299860000Y-135690000D01*
X297700000Y-134150000D02*
X300075420Y-134150000D01*
X300075420Y-134150000D02*
X300175420Y-134250000D01*
X297700000Y-133150000D02*
X300050420Y-133150000D01*
X300050420Y-133150000D02*
X300200420Y-133000000D01*
X300050420Y-133150000D02*
X300200420Y-133000000D01*
X301025420Y-131875000D02*
X296425000Y-131875000D01*
X296425000Y-131875000D02*
X295750000Y-131200000D01*
D38*
X286300000Y-133650000D02*
X281710000Y-133650000D01*
X281560000Y-133800000D02*
X280800000Y-133800000D01*
X281710000Y-133650000D02*
X281560000Y-133800000D01*
D36*
X286250000Y-133600000D02*
X286300000Y-133650000D01*
D38*
X280800000Y-135400000D02*
X282460000Y-135400000D01*
X285210000Y-138150000D02*
X286300000Y-138150000D01*
X282460000Y-135400000D02*
X285210000Y-138150000D01*
D36*
X306340000Y-143650000D02*
X301175420Y-143650000D01*
X301175420Y-143650000D02*
X301175000Y-143650420D01*
D37*
X301175000Y-143650420D02*
X300075000Y-143650420D01*
D36*
X301099580Y-135690000D02*
X303990000Y-135690000D01*
X303990000Y-135690000D02*
X305880000Y-137580000D01*
X305880000Y-137580000D02*
X305880000Y-137620000D01*
X301074580Y-134250000D02*
X304900000Y-134250000D01*
X304900000Y-134250000D02*
X305730000Y-135080000D01*
X305730000Y-135080000D02*
X305880000Y-135080000D01*
X301099580Y-133000000D02*
X301650000Y-133000000D01*
X302110000Y-132540000D02*
X305880000Y-132540000D01*
X301650000Y-133000000D02*
X302110000Y-132540000D01*
X305150000Y-132720000D02*
X305330000Y-132540000D01*
D37*
X268275000Y-141820000D02*
X268275000Y-143100000D01*
X268624500Y-143449500D02*
X270712500Y-143449500D01*
X268275000Y-143100000D02*
X268624500Y-143449500D01*
X275362500Y-143537080D02*
X278200080Y-143537080D01*
X278200080Y-143537080D02*
X278225000Y-143562000D01*
X272362500Y-143537500D02*
X270800500Y-143537500D01*
X270800500Y-143537500D02*
X270712500Y-143449500D01*
X281775000Y-143650000D02*
X282824580Y-143650000D01*
X282824580Y-143650000D02*
X283025000Y-143449580D01*
X278225000Y-143600000D02*
X278225000Y-143562000D01*
X270712500Y-143449500D02*
X270712500Y-143512500D01*
D36*
X278137420Y-143649580D02*
X278225000Y-143562000D01*
X274262920Y-143537080D02*
X274262500Y-143537500D01*
D37*
X275362500Y-143537080D02*
X274262920Y-143537080D01*
D36*
X272274500Y-143449500D02*
X272362500Y-143537500D01*
D37*
X274262500Y-143537500D02*
X272362500Y-143537500D01*
D36*
X274362920Y-143437080D02*
X274262500Y-143537500D01*
D37*
X279875000Y-143650000D02*
X278313000Y-143650000D01*
D36*
X278313000Y-143650000D02*
X278225000Y-143562000D01*
D37*
X279875000Y-143650000D02*
X281775000Y-143650000D01*
D36*
X300075000Y-144549580D02*
X296089580Y-144549580D01*
X295250000Y-143710000D02*
X295250000Y-142600000D01*
X296089580Y-144549580D02*
X295250000Y-143710000D01*
X294750000Y-142600000D02*
X295250000Y-142600000D01*
X294750420Y-142600420D02*
X294750000Y-142600000D01*
X299975000Y-144649580D02*
X300075000Y-144549580D01*
D37*
X300075000Y-144549580D02*
X301175000Y-144549580D01*
D39*
X274000000Y-127699580D02*
X272850000Y-127699580D01*
X272850000Y-127699580D02*
X272849580Y-127700000D01*
X275150420Y-127700000D02*
X274000420Y-127700000D01*
X274000420Y-127700000D02*
X274000000Y-127699580D01*
D36*
X279875000Y-143000000D02*
X279187000Y-143000000D01*
X279187000Y-143000000D02*
X278225000Y-142038000D01*
X272362500Y-142887500D02*
X271674500Y-142887500D01*
X271674500Y-142887500D02*
X270712500Y-141925500D01*
X302250420Y-134930000D02*
X299820000Y-134930000D01*
X299540000Y-134650000D02*
X297700000Y-134650000D01*
X299820000Y-134930000D02*
X299540000Y-134650000D01*
X297700000Y-133650000D02*
X301975000Y-133650000D01*
X301975000Y-133650000D02*
X302250000Y-133375000D01*
X302250000Y-133375000D02*
X302250420Y-133375000D01*
X302250420Y-137770000D02*
X299840000Y-137770000D01*
X298720000Y-136650000D02*
X297700000Y-136650000D01*
X299840000Y-137770000D02*
X298720000Y-136650000D01*
X297700000Y-136150000D02*
X298950000Y-136150000D01*
X299710000Y-136910000D02*
X300200420Y-136910000D01*
X298950000Y-136150000D02*
X299710000Y-136910000D01*
X301924580Y-131875000D02*
X303025000Y-131875000D01*
X303025000Y-131875000D02*
X306600000Y-128300000D01*
X305880000Y-140160000D02*
X305760000Y-140160000D01*
X305760000Y-140160000D02*
X303850000Y-138250000D01*
X303850000Y-138250000D02*
X303850000Y-137400000D01*
X303850000Y-137400000D02*
X303360000Y-136910000D01*
X303360000Y-136910000D02*
X301099580Y-136910000D01*
X292250000Y-131200000D02*
X292250000Y-128512000D01*
X293775000Y-127849580D02*
X292912420Y-127849580D01*
X292912420Y-127849580D02*
X292275000Y-128487000D01*
X292250000Y-128512000D02*
X292275000Y-128487000D01*
X291250000Y-131200000D02*
X291250000Y-128299580D01*
X291250000Y-128299580D02*
X290800000Y-127849580D01*
X290250000Y-131200000D02*
X290250000Y-129662000D01*
D37*
X290250000Y-129662000D02*
X289100000Y-128512000D01*
D36*
X290200000Y-131150000D02*
X290250000Y-131200000D01*
X291500420Y-144725000D02*
X291500420Y-143950420D01*
X291250000Y-143700000D02*
X291250000Y-142600000D01*
X291500420Y-143950420D02*
X291250000Y-143700000D01*
X291625000Y-144600420D02*
X291500420Y-144725000D01*
X291500420Y-145850000D02*
X291500420Y-144725000D01*
X286975000Y-129775420D02*
X289000420Y-129775420D01*
X289000420Y-129775420D02*
X289250000Y-130025000D01*
X289250000Y-130025000D02*
X289250000Y-131200000D01*
X278150000Y-138600000D02*
X278150000Y-138060000D01*
X278400000Y-137810000D02*
X278400000Y-137000000D01*
X278150000Y-138060000D02*
X278400000Y-137810000D01*
X279350000Y-138600000D02*
X279350000Y-138060000D01*
X278800000Y-137510000D02*
X278800000Y-137000000D01*
X279350000Y-138060000D02*
X278800000Y-137510000D01*
D38*
X280800000Y-134200000D02*
X286250000Y-134200000D01*
X286250000Y-134200000D02*
X286300000Y-134150000D01*
D36*
X286250000Y-134200000D02*
X286300000Y-134150000D01*
X286300000Y-134150000D02*
X286300000Y-134650000D01*
X303149580Y-133375000D02*
X304575000Y-133375000D01*
X307160000Y-133800000D02*
X308420000Y-132540000D01*
X305000000Y-133800000D02*
X307160000Y-133800000D01*
X304575000Y-133375000D02*
X305000000Y-133800000D01*
X303149580Y-134930000D02*
X303980000Y-134930000D01*
X307100000Y-136400000D02*
X308420000Y-135080000D01*
X305450000Y-136400000D02*
X307100000Y-136400000D01*
X303980000Y-134930000D02*
X305450000Y-136400000D01*
X303139580Y-136300000D02*
X303350000Y-136300000D01*
X307190000Y-138850000D02*
X308420000Y-137620000D01*
X305150000Y-138850000D02*
X307190000Y-138850000D01*
X304700000Y-138400000D02*
X305150000Y-138850000D01*
X304700000Y-137650000D02*
X304700000Y-138400000D01*
X303350000Y-136300000D02*
X304700000Y-137650000D01*
X303139580Y-136300000D02*
X303310000Y-136300000D01*
X303149580Y-137770000D02*
X303149580Y-139799580D01*
X307180000Y-141400000D02*
X308420000Y-140160000D01*
X304750000Y-141400000D02*
X307180000Y-141400000D01*
X303149580Y-139799580D02*
X304750000Y-141400000D01*
X272629580Y-137270000D02*
X272629580Y-136632420D01*
X272629580Y-136632420D02*
X273262000Y-136000000D01*
X273262000Y-136000000D02*
X273350000Y-136000000D01*
X273350000Y-136000000D02*
X273950000Y-135400000D01*
X273950000Y-135400000D02*
X274800000Y-135400000D01*
X275000000Y-130040000D02*
X274720163Y-130049375D01*
X274720163Y-130049375D02*
X272760000Y-132040000D01*
X272760000Y-132040000D02*
X272770000Y-132030000D01*
X272770000Y-132030000D02*
X272455505Y-132345429D01*
X272455505Y-132345429D02*
X271600000Y-132830000D01*
X271600000Y-132830000D02*
X271490000Y-132940000D01*
X271490000Y-132940000D02*
X271490000Y-134310000D01*
X271490000Y-134310000D02*
X271200000Y-134600000D01*
X276400000Y-131000000D02*
X276400000Y-130330490D01*
X275395598Y-130045598D02*
X275000000Y-130040000D01*
X276115108Y-130045598D02*
X275395598Y-130045598D01*
X276400000Y-130330490D02*
X276115108Y-130045598D01*
X271200000Y-134600000D02*
X270800000Y-134600000D01*
X269800000Y-134649580D02*
X270750420Y-134649580D01*
X270800000Y-134600000D02*
X270950000Y-134600000D01*
X270750420Y-134649580D02*
X270800000Y-134600000D01*
D40*
X271050000Y-134650000D02*
X270800000Y-134650000D01*
X270799580Y-134649580D02*
X270800000Y-134650000D01*
D36*
X276000000Y-131000000D02*
X276000000Y-130450000D01*
X276000000Y-130450000D02*
X275900000Y-130350000D01*
X275900000Y-130350000D02*
X274900000Y-130350000D01*
X274900000Y-130350000D02*
X273200000Y-132050000D01*
X273200000Y-132050000D02*
X273200000Y-133650420D01*
X272200000Y-133500000D02*
X273049580Y-133500000D01*
X273049580Y-133500000D02*
X273200000Y-133650420D01*
X275450000Y-140100420D02*
X275450000Y-138850000D01*
X275450000Y-138850000D02*
X276000000Y-138300000D01*
X276000000Y-138300000D02*
X276000000Y-137000000D01*
X276850000Y-140100420D02*
X276850000Y-138850000D01*
X276400000Y-137000000D02*
X276400000Y-138400000D01*
X276400000Y-138400000D02*
X276850000Y-138850000D01*
X274800000Y-135800000D02*
X274240000Y-135800000D01*
X273200000Y-137640000D02*
X273200000Y-138352000D01*
X273840000Y-137000000D02*
X273200000Y-137640000D01*
X273840000Y-136200000D02*
X273840000Y-137000000D01*
X274240000Y-135800000D02*
X273840000Y-136200000D01*
X273200000Y-138352000D02*
X272932000Y-138620000D01*
D38*
X278000000Y-129100000D02*
X278000000Y-131000000D01*
D36*
X275909580Y-128800000D02*
X276450000Y-128800000D01*
X276800000Y-130050000D02*
X276750000Y-130000000D01*
X276750000Y-130000000D02*
X276500000Y-130000000D01*
X276500000Y-130000000D02*
X276450000Y-129950000D01*
X276450000Y-129950000D02*
X276450000Y-128800000D01*
X276800000Y-130050000D02*
X276800000Y-131000000D01*
X275909580Y-128800000D02*
X275729580Y-128620000D01*
X284640000Y-128650000D02*
X285699580Y-128650000D01*
X285699580Y-128650000D02*
X285780000Y-128730420D01*
X281540000Y-132200000D02*
X282290420Y-132200000D01*
X282290420Y-132200000D02*
X282300420Y-132210000D01*
X281640000Y-129850000D02*
X281640000Y-132170000D01*
X281610000Y-132200000D02*
X281540000Y-132200000D01*
X281540000Y-132200000D02*
X280800000Y-132200000D01*
X281640000Y-132170000D02*
X281610000Y-132200000D01*
X282820420Y-131270000D02*
X282230000Y-131270000D01*
X280900000Y-129550000D02*
X281640000Y-129450000D01*
X280850000Y-129600000D02*
X280900000Y-129550000D01*
X281640000Y-129450000D02*
X281340000Y-129450000D01*
X281340000Y-129450000D02*
X281210000Y-129450000D01*
X280800000Y-129860000D02*
X280800000Y-131800000D01*
X281210000Y-129450000D02*
X280800000Y-129860000D01*
X280900000Y-131800000D02*
X280950000Y-131800000D01*
D40*
X280900000Y-131800000D02*
X281100000Y-131800000D01*
D41*
G36*
X271249586Y-132211347D02*
X271176976Y-132273974D01*
X271097247Y-132327247D01*
X270987247Y-132437247D01*
X270833122Y-132667912D01*
X270779000Y-132940000D01*
X270779000Y-133552560D01*
X270674135Y-133552560D01*
X270734720Y-133491975D01*
X270734720Y-133424721D01*
X270673000Y-133275716D01*
X270673000Y-132623750D01*
X270514250Y-132465000D01*
X270223691Y-132465000D01*
X269990302Y-132561673D01*
X269811673Y-132740301D01*
X269738884Y-132916030D01*
X269672998Y-132916030D01*
X269672998Y-133074778D01*
X269514250Y-132916030D01*
X269373970Y-132916030D01*
X269140581Y-133012703D01*
X268961953Y-133191332D01*
X268865280Y-133424721D01*
X268865280Y-133491975D01*
X269024030Y-133650725D01*
X269673000Y-133650725D01*
X269673000Y-133603420D01*
X269927000Y-133603420D01*
X269927000Y-133627000D01*
X269873750Y-133627000D01*
X269715000Y-133785750D01*
X269715000Y-133802750D01*
X269500280Y-133802750D01*
X269264963Y-133847028D01*
X269260166Y-133850115D01*
X269024030Y-133850115D01*
X268865280Y-134008865D01*
X268865280Y-134076119D01*
X268911345Y-134187329D01*
X268903849Y-134198300D01*
X268852840Y-134450190D01*
X268852840Y-134848970D01*
X268897118Y-135084287D01*
X269036190Y-135300411D01*
X269248390Y-135445401D01*
X269500280Y-135496410D01*
X269951724Y-135496410D01*
X270098110Y-135596431D01*
X270350000Y-135647440D01*
X270785500Y-135647440D01*
X270785500Y-135714250D01*
X270944250Y-135873000D01*
X271611000Y-135873000D01*
X271611000Y-135853000D01*
X271865000Y-135853000D01*
X271865000Y-135873000D01*
X271885000Y-135873000D01*
X271885000Y-136127000D01*
X271865000Y-136127000D01*
X271865000Y-136147000D01*
X271611000Y-136147000D01*
X271611000Y-136127000D01*
X270944250Y-136127000D01*
X270785500Y-136285750D01*
X270785500Y-136697810D01*
X270882173Y-136931199D01*
X270889933Y-136938959D01*
X270883590Y-136970280D01*
X270883590Y-137122079D01*
X270751122Y-137320332D01*
X270707332Y-137540477D01*
X270639059Y-137584410D01*
X270494069Y-137796610D01*
X270443060Y-138048500D01*
X270443060Y-139191500D01*
X270487338Y-139426817D01*
X270626410Y-139642941D01*
X270838610Y-139787931D01*
X271090500Y-139838940D01*
X271725500Y-139838940D01*
X271916030Y-139803089D01*
X271916030Y-139914250D01*
X272074780Y-140073000D01*
X272650725Y-140073000D01*
X272650725Y-140053000D01*
X272802750Y-140053000D01*
X272802750Y-140340340D01*
X272650725Y-140340340D01*
X272650725Y-140327000D01*
X272074780Y-140327000D01*
X271916030Y-140485750D01*
X271916030Y-140626030D01*
X271965272Y-140744911D01*
X271916090Y-140987780D01*
X271916090Y-141412905D01*
X271895461Y-141416787D01*
X271887162Y-141372683D01*
X271748090Y-141156559D01*
X271535890Y-141011569D01*
X271284000Y-140960560D01*
X270141000Y-140960560D01*
X269905683Y-141004838D01*
X269689559Y-141143910D01*
X269684440Y-141151402D01*
X269684440Y-141058000D01*
X269640162Y-140822683D01*
X269501090Y-140606559D01*
X269288890Y-140461569D01*
X269037000Y-140410560D01*
X269032484Y-140410560D01*
X269075608Y-140260213D01*
X268275000Y-139459605D01*
X267474392Y-140260213D01*
X267517516Y-140410560D01*
X267513000Y-140410560D01*
X267277683Y-140454838D01*
X267061559Y-140593910D01*
X266916569Y-140806110D01*
X266865560Y-141058000D01*
X266865560Y-142582000D01*
X266909838Y-142817317D01*
X267048910Y-143033441D01*
X267261110Y-143178431D01*
X267433964Y-143213435D01*
X267463233Y-143360580D01*
X267477138Y-143430485D01*
X267664343Y-143710657D01*
X268013843Y-144060158D01*
X268294015Y-144247362D01*
X268624500Y-144313100D01*
X269815448Y-144313100D01*
X269889110Y-144363431D01*
X270141000Y-144414440D01*
X271284000Y-144414440D01*
X271354896Y-144401100D01*
X274262500Y-144401100D01*
X274264611Y-144400680D01*
X277291476Y-144400680D01*
X277401610Y-144475931D01*
X277653500Y-144526940D01*
X278796500Y-144526940D01*
X278867396Y-144513600D01*
X282824580Y-144513600D01*
X283155065Y-144447862D01*
X283404076Y-144281478D01*
X283560037Y-144252132D01*
X283560203Y-144252025D01*
X283570903Y-144277920D01*
X283820764Y-144528218D01*
X284147391Y-144663846D01*
X284501057Y-144664154D01*
X284529667Y-144652333D01*
X284751030Y-144697160D01*
X285149810Y-144697160D01*
X285385127Y-144652882D01*
X285409364Y-144637286D01*
X285523881Y-144684720D01*
X285591135Y-144684720D01*
X285749885Y-144525970D01*
X285749885Y-144283615D01*
X285797250Y-144049720D01*
X285797250Y-143877000D01*
X285949275Y-143877000D01*
X285949275Y-144525970D01*
X286108025Y-144684720D01*
X286175279Y-144684720D01*
X286408668Y-144588047D01*
X286472745Y-144523970D01*
X287266030Y-144523970D01*
X287266030Y-144664250D01*
X287424780Y-144823000D01*
X288000725Y-144823000D01*
X288000725Y-144174030D01*
X287841975Y-144015280D01*
X287774721Y-144015280D01*
X287541332Y-144111953D01*
X287362703Y-144290581D01*
X287266030Y-144523970D01*
X286472745Y-144523970D01*
X286587297Y-144409419D01*
X286683970Y-144176030D01*
X286683970Y-144035750D01*
X286525220Y-143877000D01*
X285949275Y-143877000D01*
X285797250Y-143877000D01*
X285797250Y-143834308D01*
X285814020Y-143750000D01*
X285797250Y-143665692D01*
X285797250Y-143450280D01*
X285752972Y-143214963D01*
X285749885Y-143210166D01*
X285749885Y-143208615D01*
X285797250Y-142974720D01*
X285797250Y-142802000D01*
X285949275Y-142802000D01*
X285949275Y-143623000D01*
X286525220Y-143623000D01*
X286683970Y-143464250D01*
X286683970Y-143323970D01*
X286637798Y-143212500D01*
X286683970Y-143101030D01*
X286683970Y-142960750D01*
X286525220Y-142802000D01*
X285949275Y-142802000D01*
X285797250Y-142802000D01*
X285797250Y-142375280D01*
X285752972Y-142139963D01*
X285749885Y-142135166D01*
X285749885Y-141899030D01*
X285949275Y-141899030D01*
X285949275Y-142548000D01*
X286525220Y-142548000D01*
X286683970Y-142389250D01*
X286683970Y-142248970D01*
X286587297Y-142015581D01*
X286408668Y-141836953D01*
X286175279Y-141740280D01*
X286108025Y-141740280D01*
X285949275Y-141899030D01*
X285749885Y-141899030D01*
X285661420Y-141810565D01*
X285661420Y-141447440D01*
X287050000Y-141447440D01*
X287285317Y-141403162D01*
X287350839Y-141361000D01*
X287690974Y-141361000D01*
X287561673Y-141490302D01*
X287465000Y-141723691D01*
X287465000Y-142314250D01*
X287623750Y-142473000D01*
X287952560Y-142473000D01*
X287952560Y-142727000D01*
X287623750Y-142727000D01*
X287465000Y-142885750D01*
X287465000Y-143476309D01*
X287561673Y-143709698D01*
X287740301Y-143888327D01*
X287973690Y-143985000D01*
X288016250Y-143985000D01*
X288173871Y-143827379D01*
X288348110Y-143946431D01*
X288469830Y-143971080D01*
X288483750Y-143985000D01*
X288526310Y-143985000D01*
X288530335Y-143983333D01*
X288600000Y-143997440D01*
X288900000Y-143997440D01*
X288971323Y-143984020D01*
X288973690Y-143985000D01*
X289016250Y-143985000D01*
X289027871Y-143973379D01*
X289135317Y-143953162D01*
X289249978Y-143879380D01*
X289348082Y-143946412D01*
X289276046Y-144018448D01*
X289198970Y-144002840D01*
X288800190Y-144002840D01*
X288564873Y-144047118D01*
X288540636Y-144062714D01*
X288426119Y-144015280D01*
X288358865Y-144015280D01*
X288200115Y-144174030D01*
X288200115Y-144416385D01*
X288152750Y-144650280D01*
X288152750Y-144865692D01*
X288135980Y-144950000D01*
X288152750Y-145034308D01*
X288152750Y-145249720D01*
X288196696Y-145483270D01*
X288152750Y-145700280D01*
X288152750Y-146147000D01*
X288000725Y-146147000D01*
X288000725Y-146127000D01*
X287424780Y-146127000D01*
X287266030Y-146285750D01*
X287266030Y-146426030D01*
X287302883Y-146515000D01*
X266585000Y-146515000D01*
X266585000Y-145235750D01*
X287266030Y-145235750D01*
X287266030Y-145376030D01*
X287307025Y-145475000D01*
X287266030Y-145573970D01*
X287266030Y-145714250D01*
X287424780Y-145873000D01*
X287746426Y-145873000D01*
X287774721Y-145884720D01*
X287841975Y-145884720D01*
X287853695Y-145873000D01*
X288000725Y-145873000D01*
X288000725Y-145077000D01*
X287853695Y-145077000D01*
X287841975Y-145065280D01*
X287774721Y-145065280D01*
X287746426Y-145077000D01*
X287424780Y-145077000D01*
X287266030Y-145235750D01*
X266585000Y-145235750D01*
X266585000Y-139072302D01*
X266865856Y-139072302D01*
X266893638Y-139627368D01*
X267052603Y-140011143D01*
X267294787Y-140080608D01*
X268095395Y-139280000D01*
X268454605Y-139280000D01*
X269255213Y-140080608D01*
X269497397Y-140011143D01*
X269684144Y-139487698D01*
X269656362Y-138932632D01*
X269497397Y-138548857D01*
X269255213Y-138479392D01*
X268454605Y-139280000D01*
X268095395Y-139280000D01*
X267294787Y-138479392D01*
X267052603Y-138548857D01*
X266865856Y-139072302D01*
X266585000Y-139072302D01*
X266585000Y-138299787D01*
X267474392Y-138299787D01*
X268275000Y-139100395D01*
X269075608Y-138299787D01*
X269006143Y-138057603D01*
X268482698Y-137870856D01*
X267927632Y-137898638D01*
X267543857Y-138057603D01*
X267474392Y-138299787D01*
X266585000Y-138299787D01*
X266585000Y-132127000D01*
X271398500Y-132127000D01*
X271249586Y-132211347D01*
X271249586Y-132211347D01*
G37*
X271249586Y-132211347D02*
X271176976Y-132273974D01*
X271097247Y-132327247D01*
X270987247Y-132437247D01*
X270833122Y-132667912D01*
X270779000Y-132940000D01*
X270779000Y-133552560D01*
X270674135Y-133552560D01*
X270734720Y-133491975D01*
X270734720Y-133424721D01*
X270673000Y-133275716D01*
X270673000Y-132623750D01*
X270514250Y-132465000D01*
X270223691Y-132465000D01*
X269990302Y-132561673D01*
X269811673Y-132740301D01*
X269738884Y-132916030D01*
X269672998Y-132916030D01*
X269672998Y-133074778D01*
X269514250Y-132916030D01*
X269373970Y-132916030D01*
X269140581Y-133012703D01*
X268961953Y-133191332D01*
X268865280Y-133424721D01*
X268865280Y-133491975D01*
X269024030Y-133650725D01*
X269673000Y-133650725D01*
X269673000Y-133603420D01*
X269927000Y-133603420D01*
X269927000Y-133627000D01*
X269873750Y-133627000D01*
X269715000Y-133785750D01*
X269715000Y-133802750D01*
X269500280Y-133802750D01*
X269264963Y-133847028D01*
X269260166Y-133850115D01*
X269024030Y-133850115D01*
X268865280Y-134008865D01*
X268865280Y-134076119D01*
X268911345Y-134187329D01*
X268903849Y-134198300D01*
X268852840Y-134450190D01*
X268852840Y-134848970D01*
X268897118Y-135084287D01*
X269036190Y-135300411D01*
X269248390Y-135445401D01*
X269500280Y-135496410D01*
X269951724Y-135496410D01*
X270098110Y-135596431D01*
X270350000Y-135647440D01*
X270785500Y-135647440D01*
X270785500Y-135714250D01*
X270944250Y-135873000D01*
X271611000Y-135873000D01*
X271611000Y-135853000D01*
X271865000Y-135853000D01*
X271865000Y-135873000D01*
X271885000Y-135873000D01*
X271885000Y-136127000D01*
X271865000Y-136127000D01*
X271865000Y-136147000D01*
X271611000Y-136147000D01*
X271611000Y-136127000D01*
X270944250Y-136127000D01*
X270785500Y-136285750D01*
X270785500Y-136697810D01*
X270882173Y-136931199D01*
X270889933Y-136938959D01*
X270883590Y-136970280D01*
X270883590Y-137122079D01*
X270751122Y-137320332D01*
X270707332Y-137540477D01*
X270639059Y-137584410D01*
X270494069Y-137796610D01*
X270443060Y-138048500D01*
X270443060Y-139191500D01*
X270487338Y-139426817D01*
X270626410Y-139642941D01*
X270838610Y-139787931D01*
X271090500Y-139838940D01*
X271725500Y-139838940D01*
X271916030Y-139803089D01*
X271916030Y-139914250D01*
X272074780Y-140073000D01*
X272650725Y-140073000D01*
X272650725Y-140053000D01*
X272802750Y-140053000D01*
X272802750Y-140340340D01*
X272650725Y-140340340D01*
X272650725Y-140327000D01*
X272074780Y-140327000D01*
X271916030Y-140485750D01*
X271916030Y-140626030D01*
X271965272Y-140744911D01*
X271916090Y-140987780D01*
X271916090Y-141412905D01*
X271895461Y-141416787D01*
X271887162Y-141372683D01*
X271748090Y-141156559D01*
X271535890Y-141011569D01*
X271284000Y-140960560D01*
X270141000Y-140960560D01*
X269905683Y-141004838D01*
X269689559Y-141143910D01*
X269684440Y-141151402D01*
X269684440Y-141058000D01*
X269640162Y-140822683D01*
X269501090Y-140606559D01*
X269288890Y-140461569D01*
X269037000Y-140410560D01*
X269032484Y-140410560D01*
X269075608Y-140260213D01*
X268275000Y-139459605D01*
X267474392Y-140260213D01*
X267517516Y-140410560D01*
X267513000Y-140410560D01*
X267277683Y-140454838D01*
X267061559Y-140593910D01*
X266916569Y-140806110D01*
X266865560Y-141058000D01*
X266865560Y-142582000D01*
X266909838Y-142817317D01*
X267048910Y-143033441D01*
X267261110Y-143178431D01*
X267433964Y-143213435D01*
X267463233Y-143360580D01*
X267477138Y-143430485D01*
X267664343Y-143710657D01*
X268013843Y-144060158D01*
X268294015Y-144247362D01*
X268624500Y-144313100D01*
X269815448Y-144313100D01*
X269889110Y-144363431D01*
X270141000Y-144414440D01*
X271284000Y-144414440D01*
X271354896Y-144401100D01*
X274262500Y-144401100D01*
X274264611Y-144400680D01*
X277291476Y-144400680D01*
X277401610Y-144475931D01*
X277653500Y-144526940D01*
X278796500Y-144526940D01*
X278867396Y-144513600D01*
X282824580Y-144513600D01*
X283155065Y-144447862D01*
X283404076Y-144281478D01*
X283560037Y-144252132D01*
X283560203Y-144252025D01*
X283570903Y-144277920D01*
X283820764Y-144528218D01*
X284147391Y-144663846D01*
X284501057Y-144664154D01*
X284529667Y-144652333D01*
X284751030Y-144697160D01*
X285149810Y-144697160D01*
X285385127Y-144652882D01*
X285409364Y-144637286D01*
X285523881Y-144684720D01*
X285591135Y-144684720D01*
X285749885Y-144525970D01*
X285749885Y-144283615D01*
X285797250Y-144049720D01*
X285797250Y-143877000D01*
X285949275Y-143877000D01*
X285949275Y-144525970D01*
X286108025Y-144684720D01*
X286175279Y-144684720D01*
X286408668Y-144588047D01*
X286472745Y-144523970D01*
X287266030Y-144523970D01*
X287266030Y-144664250D01*
X287424780Y-144823000D01*
X288000725Y-144823000D01*
X288000725Y-144174030D01*
X287841975Y-144015280D01*
X287774721Y-144015280D01*
X287541332Y-144111953D01*
X287362703Y-144290581D01*
X287266030Y-144523970D01*
X286472745Y-144523970D01*
X286587297Y-144409419D01*
X286683970Y-144176030D01*
X286683970Y-144035750D01*
X286525220Y-143877000D01*
X285949275Y-143877000D01*
X285797250Y-143877000D01*
X285797250Y-143834308D01*
X285814020Y-143750000D01*
X285797250Y-143665692D01*
X285797250Y-143450280D01*
X285752972Y-143214963D01*
X285749885Y-143210166D01*
X285749885Y-143208615D01*
X285797250Y-142974720D01*
X285797250Y-142802000D01*
X285949275Y-142802000D01*
X285949275Y-143623000D01*
X286525220Y-143623000D01*
X286683970Y-143464250D01*
X286683970Y-143323970D01*
X286637798Y-143212500D01*
X286683970Y-143101030D01*
X286683970Y-142960750D01*
X286525220Y-142802000D01*
X285949275Y-142802000D01*
X285797250Y-142802000D01*
X285797250Y-142375280D01*
X285752972Y-142139963D01*
X285749885Y-142135166D01*
X285749885Y-141899030D01*
X285949275Y-141899030D01*
X285949275Y-142548000D01*
X286525220Y-142548000D01*
X286683970Y-142389250D01*
X286683970Y-142248970D01*
X286587297Y-142015581D01*
X286408668Y-141836953D01*
X286175279Y-141740280D01*
X286108025Y-141740280D01*
X285949275Y-141899030D01*
X285749885Y-141899030D01*
X285661420Y-141810565D01*
X285661420Y-141447440D01*
X287050000Y-141447440D01*
X287285317Y-141403162D01*
X287350839Y-141361000D01*
X287690974Y-141361000D01*
X287561673Y-141490302D01*
X287465000Y-141723691D01*
X287465000Y-142314250D01*
X287623750Y-142473000D01*
X287952560Y-142473000D01*
X287952560Y-142727000D01*
X287623750Y-142727000D01*
X287465000Y-142885750D01*
X287465000Y-143476309D01*
X287561673Y-143709698D01*
X287740301Y-143888327D01*
X287973690Y-143985000D01*
X288016250Y-143985000D01*
X288173871Y-143827379D01*
X288348110Y-143946431D01*
X288469830Y-143971080D01*
X288483750Y-143985000D01*
X288526310Y-143985000D01*
X288530335Y-143983333D01*
X288600000Y-143997440D01*
X288900000Y-143997440D01*
X288971323Y-143984020D01*
X288973690Y-143985000D01*
X289016250Y-143985000D01*
X289027871Y-143973379D01*
X289135317Y-143953162D01*
X289249978Y-143879380D01*
X289348082Y-143946412D01*
X289276046Y-144018448D01*
X289198970Y-144002840D01*
X288800190Y-144002840D01*
X288564873Y-144047118D01*
X288540636Y-144062714D01*
X288426119Y-144015280D01*
X288358865Y-144015280D01*
X288200115Y-144174030D01*
X288200115Y-144416385D01*
X288152750Y-144650280D01*
X288152750Y-144865692D01*
X288135980Y-144950000D01*
X288152750Y-145034308D01*
X288152750Y-145249720D01*
X288196696Y-145483270D01*
X288152750Y-145700280D01*
X288152750Y-146147000D01*
X288000725Y-146147000D01*
X288000725Y-146127000D01*
X287424780Y-146127000D01*
X287266030Y-146285750D01*
X287266030Y-146426030D01*
X287302883Y-146515000D01*
X266585000Y-146515000D01*
X266585000Y-145235750D01*
X287266030Y-145235750D01*
X287266030Y-145376030D01*
X287307025Y-145475000D01*
X287266030Y-145573970D01*
X287266030Y-145714250D01*
X287424780Y-145873000D01*
X287746426Y-145873000D01*
X287774721Y-145884720D01*
X287841975Y-145884720D01*
X287853695Y-145873000D01*
X288000725Y-145873000D01*
X288000725Y-145077000D01*
X287853695Y-145077000D01*
X287841975Y-145065280D01*
X287774721Y-145065280D01*
X287746426Y-145077000D01*
X287424780Y-145077000D01*
X287266030Y-145235750D01*
X266585000Y-145235750D01*
X266585000Y-139072302D01*
X266865856Y-139072302D01*
X266893638Y-139627368D01*
X267052603Y-140011143D01*
X267294787Y-140080608D01*
X268095395Y-139280000D01*
X268454605Y-139280000D01*
X269255213Y-140080608D01*
X269497397Y-140011143D01*
X269684144Y-139487698D01*
X269656362Y-138932632D01*
X269497397Y-138548857D01*
X269255213Y-138479392D01*
X268454605Y-139280000D01*
X268095395Y-139280000D01*
X267294787Y-138479392D01*
X267052603Y-138548857D01*
X266865856Y-139072302D01*
X266585000Y-139072302D01*
X266585000Y-138299787D01*
X267474392Y-138299787D01*
X268275000Y-139100395D01*
X269075608Y-138299787D01*
X269006143Y-138057603D01*
X268482698Y-137870856D01*
X267927632Y-137898638D01*
X267543857Y-138057603D01*
X267474392Y-138299787D01*
X266585000Y-138299787D01*
X266585000Y-132127000D01*
X271398500Y-132127000D01*
X271249586Y-132211347D01*
G36*
X287990173Y-126310802D02*
X287893500Y-126544191D01*
X287893500Y-126702250D01*
X288052250Y-126861000D01*
X288973000Y-126861000D01*
X288973000Y-126841000D01*
X289227000Y-126841000D01*
X289227000Y-126861000D01*
X290147750Y-126861000D01*
X290158025Y-126850725D01*
X290673000Y-126850725D01*
X290673000Y-126803420D01*
X290927000Y-126803420D01*
X290927000Y-126850725D01*
X291575970Y-126850725D01*
X291590695Y-126836000D01*
X292148000Y-126836000D01*
X292148000Y-126816000D01*
X292402000Y-126816000D01*
X292402000Y-126836000D01*
X292984305Y-126836000D01*
X292999030Y-126850725D01*
X293648000Y-126850725D01*
X293648000Y-126803420D01*
X293902000Y-126803420D01*
X293902000Y-126850725D01*
X294550970Y-126850725D01*
X294709720Y-126691975D01*
X294709720Y-126624721D01*
X294613047Y-126391332D01*
X294434419Y-126212703D01*
X294367538Y-126185000D01*
X299119145Y-126185000D01*
X299036371Y-126267630D01*
X298823243Y-126780900D01*
X298822758Y-127336661D01*
X299034990Y-127850303D01*
X299427630Y-128243629D01*
X299940900Y-128456757D01*
X300496661Y-128457242D01*
X301010303Y-128245010D01*
X301363763Y-127892167D01*
X301394838Y-128057317D01*
X301533910Y-128273441D01*
X301746110Y-128418431D01*
X301998000Y-128469440D01*
X303522000Y-128469440D01*
X303757317Y-128425162D01*
X303973441Y-128286090D01*
X304118431Y-128073890D01*
X304169440Y-127822000D01*
X304169440Y-126298000D01*
X304148178Y-126185000D01*
X310415000Y-126185000D01*
X310415000Y-146515000D01*
X295502088Y-146515000D01*
X295545401Y-146451610D01*
X295596410Y-146199720D01*
X295596410Y-145600280D01*
X295552132Y-145364963D01*
X295519588Y-145314388D01*
X295545401Y-145276610D01*
X295590343Y-145054682D01*
X295817492Y-145206458D01*
X296089580Y-145260580D01*
X299399250Y-145260580D01*
X299523390Y-145345401D01*
X299775280Y-145396410D01*
X299990692Y-145396410D01*
X300075000Y-145413180D01*
X301175000Y-145413180D01*
X301259308Y-145396410D01*
X301474720Y-145396410D01*
X301710037Y-145352132D01*
X301926161Y-145213060D01*
X302071151Y-145000860D01*
X302122160Y-144748970D01*
X302122160Y-144361000D01*
X304842560Y-144361000D01*
X304842560Y-144500000D01*
X304886838Y-144735317D01*
X305025910Y-144951441D01*
X305238110Y-145096431D01*
X305490000Y-145147440D01*
X307190000Y-145147440D01*
X307425317Y-145103162D01*
X307641441Y-144964090D01*
X307786431Y-144751890D01*
X307837440Y-144500000D01*
X307837440Y-142800000D01*
X307793162Y-142564683D01*
X307654090Y-142348559D01*
X307441890Y-142203569D01*
X307190000Y-142152560D01*
X305490000Y-142152560D01*
X305254683Y-142196838D01*
X305038559Y-142335910D01*
X304893569Y-142548110D01*
X304842560Y-142800000D01*
X304842560Y-142939000D01*
X301850135Y-142939000D01*
X301726610Y-142854599D01*
X301474720Y-142803590D01*
X301259308Y-142803590D01*
X301175000Y-142786820D01*
X300075000Y-142786820D01*
X299990692Y-142803590D01*
X299775280Y-142803590D01*
X299539963Y-142847868D01*
X299323839Y-142986940D01*
X299178849Y-143199140D01*
X299127840Y-143451030D01*
X299127840Y-143838580D01*
X296384086Y-143838580D01*
X296354751Y-143809245D01*
X296496431Y-143601890D01*
X296547440Y-143350000D01*
X296547440Y-141850000D01*
X296503162Y-141614683D01*
X296364090Y-141398559D01*
X296309121Y-141361000D01*
X296646255Y-141361000D01*
X296698110Y-141396431D01*
X296950000Y-141447440D01*
X298450000Y-141447440D01*
X298685317Y-141403162D01*
X298901441Y-141264090D01*
X299046431Y-141051890D01*
X299097440Y-140800000D01*
X299097440Y-140500000D01*
X299077933Y-140396329D01*
X299097440Y-140300000D01*
X299097440Y-140000000D01*
X299077933Y-139896329D01*
X299097440Y-139800000D01*
X299097440Y-139500000D01*
X299077933Y-139396329D01*
X299097440Y-139300000D01*
X299097440Y-139000000D01*
X299077933Y-138896329D01*
X299097440Y-138800000D01*
X299097440Y-138500000D01*
X299077933Y-138396329D01*
X299097440Y-138300000D01*
X299097440Y-138032946D01*
X299337247Y-138272753D01*
X299567912Y-138426878D01*
X299840000Y-138481000D01*
X301561097Y-138481000D01*
X301586940Y-138521161D01*
X301799140Y-138666151D01*
X302051030Y-138717160D01*
X302438580Y-138717160D01*
X302438580Y-139799580D01*
X302492702Y-140071668D01*
X302646827Y-140302333D01*
X304247247Y-141902753D01*
X304477912Y-142056878D01*
X304750000Y-142111000D01*
X307180000Y-142111000D01*
X307452088Y-142056878D01*
X307682753Y-141902753D01*
X308015232Y-141570274D01*
X308390907Y-141645000D01*
X308449093Y-141645000D01*
X309017378Y-141531961D01*
X309499147Y-141210054D01*
X309821054Y-140728285D01*
X309934093Y-140160000D01*
X309821054Y-139591715D01*
X309499147Y-139109946D01*
X309169974Y-138890000D01*
X309499147Y-138670054D01*
X309821054Y-138188285D01*
X309934093Y-137620000D01*
X309821054Y-137051715D01*
X309499147Y-136569946D01*
X309169974Y-136350000D01*
X309499147Y-136130054D01*
X309821054Y-135648285D01*
X309934093Y-135080000D01*
X309821054Y-134511715D01*
X309499147Y-134029946D01*
X309169974Y-133810000D01*
X309499147Y-133590054D01*
X309821054Y-133108285D01*
X309934093Y-132540000D01*
X309821054Y-131971715D01*
X309499147Y-131489946D01*
X309017378Y-131168039D01*
X308449093Y-131055000D01*
X308390907Y-131055000D01*
X307822622Y-131168039D01*
X307340853Y-131489946D01*
X307340029Y-131491179D01*
X307333162Y-131454683D01*
X307194090Y-131238559D01*
X306981890Y-131093569D01*
X306730000Y-131042560D01*
X305030000Y-131042560D01*
X304824227Y-131081279D01*
X306108066Y-129797440D01*
X307450000Y-129797440D01*
X307685317Y-129753162D01*
X307901441Y-129614090D01*
X308046431Y-129401890D01*
X308097440Y-129150000D01*
X308097440Y-127450000D01*
X308053162Y-127214683D01*
X307914090Y-126998559D01*
X307701890Y-126853569D01*
X307450000Y-126802560D01*
X305750000Y-126802560D01*
X305514683Y-126846838D01*
X305298559Y-126985910D01*
X305153569Y-127198110D01*
X305102560Y-127450000D01*
X305102560Y-128791934D01*
X302730494Y-131164000D01*
X302613903Y-131164000D01*
X302588060Y-131123839D01*
X302375860Y-130978849D01*
X302123970Y-130927840D01*
X301725190Y-130927840D01*
X301489873Y-130972118D01*
X301478016Y-130979748D01*
X301476700Y-130978849D01*
X301224810Y-130927840D01*
X301133546Y-130927840D01*
X301102882Y-130764873D01*
X301087286Y-130740636D01*
X301134720Y-130626119D01*
X301134720Y-130558865D01*
X300975970Y-130400115D01*
X300733615Y-130400115D01*
X300499720Y-130352750D01*
X300284308Y-130352750D01*
X300200000Y-130335980D01*
X298975000Y-130335980D01*
X298890692Y-130352750D01*
X298886000Y-130352750D01*
X298886000Y-129900000D01*
X298848000Y-129708962D01*
X298848000Y-129624780D01*
X299102000Y-129624780D01*
X299102000Y-130200725D01*
X300073000Y-130200725D01*
X300073000Y-129624780D01*
X300327000Y-129624780D01*
X300327000Y-130200725D01*
X300975970Y-130200725D01*
X301134720Y-130041975D01*
X301134720Y-129974721D01*
X301038047Y-129741332D01*
X300859419Y-129562703D01*
X300626030Y-129466030D01*
X300485750Y-129466030D01*
X300327000Y-129624780D01*
X300073000Y-129624780D01*
X299914250Y-129466030D01*
X299773970Y-129466030D01*
X299587500Y-129543268D01*
X299401030Y-129466030D01*
X299260750Y-129466030D01*
X299102000Y-129624780D01*
X298848000Y-129624780D01*
X298793107Y-129569887D01*
X298677753Y-129397247D01*
X298052333Y-128771827D01*
X297996018Y-128734199D01*
X298009720Y-128701119D01*
X298009720Y-128633865D01*
X297850970Y-128475115D01*
X297608615Y-128475115D01*
X297374720Y-128427750D01*
X297159308Y-128427750D01*
X297075000Y-128410980D01*
X296025000Y-128410980D01*
X295940692Y-128427750D01*
X295725280Y-128427750D01*
X295489963Y-128472028D01*
X295485166Y-128475115D01*
X295249030Y-128475115D01*
X295160565Y-128563580D01*
X294875420Y-128563580D01*
X294603332Y-128617702D01*
X294372667Y-128771827D01*
X293341934Y-129802560D01*
X293100000Y-129802560D01*
X293028677Y-129815980D01*
X293026310Y-129815000D01*
X292983750Y-129815000D01*
X292972129Y-129826621D01*
X292961000Y-129828715D01*
X292961000Y-129430395D01*
X293081817Y-129407662D01*
X293297941Y-129268590D01*
X293442931Y-129056390D01*
X293493940Y-128804500D01*
X293493940Y-128696410D01*
X294074720Y-128696410D01*
X294310037Y-128652132D01*
X294526161Y-128513060D01*
X294671151Y-128300860D01*
X294722007Y-128049721D01*
X295090280Y-128049721D01*
X295090280Y-128116975D01*
X295249030Y-128275725D01*
X295898000Y-128275725D01*
X295898000Y-128049721D01*
X296140280Y-128049721D01*
X296140280Y-128116975D01*
X296152000Y-128128695D01*
X296152000Y-128275725D01*
X296948000Y-128275725D01*
X296948000Y-128128695D01*
X296959720Y-128116975D01*
X296959720Y-128049721D01*
X296948000Y-128021426D01*
X296948000Y-127699780D01*
X297202000Y-127699780D01*
X297202000Y-128275725D01*
X297850970Y-128275725D01*
X298009720Y-128116975D01*
X298009720Y-128049721D01*
X297913047Y-127816332D01*
X297734419Y-127637703D01*
X297501030Y-127541030D01*
X297360750Y-127541030D01*
X297202000Y-127699780D01*
X296948000Y-127699780D01*
X296789250Y-127541030D01*
X296648970Y-127541030D01*
X296550000Y-127582025D01*
X296451030Y-127541030D01*
X296310750Y-127541030D01*
X296152000Y-127699780D01*
X296152000Y-128021426D01*
X296140280Y-128049721D01*
X295898000Y-128049721D01*
X295898000Y-127699780D01*
X295739250Y-127541030D01*
X295598970Y-127541030D01*
X295365581Y-127637703D01*
X295186953Y-127816332D01*
X295090280Y-128049721D01*
X294722007Y-128049721D01*
X294722160Y-128048970D01*
X294722160Y-127650190D01*
X294677882Y-127414873D01*
X294662286Y-127390636D01*
X294709720Y-127276119D01*
X294709720Y-127208865D01*
X294550970Y-127050115D01*
X294308615Y-127050115D01*
X294074720Y-127002750D01*
X293475280Y-127002750D01*
X293239963Y-127047028D01*
X293235166Y-127050115D01*
X292999030Y-127050115D01*
X292959145Y-127090000D01*
X292402000Y-127090000D01*
X292402000Y-127110000D01*
X292148000Y-127110000D01*
X292148000Y-127090000D01*
X291615855Y-127090000D01*
X291575970Y-127050115D01*
X291333615Y-127050115D01*
X291099720Y-127002750D01*
X290500280Y-127002750D01*
X290264963Y-127047028D01*
X290260166Y-127050115D01*
X290024030Y-127050115D01*
X289959145Y-127115000D01*
X289227000Y-127115000D01*
X289227000Y-127135000D01*
X288973000Y-127135000D01*
X288973000Y-127115000D01*
X288052250Y-127115000D01*
X287893500Y-127273750D01*
X287893500Y-127431809D01*
X287990173Y-127665198D01*
X288068261Y-127743286D01*
X287932069Y-127942610D01*
X287881060Y-128194500D01*
X287881060Y-128829500D01*
X287925263Y-129064420D01*
X287650750Y-129064420D01*
X287526610Y-128979599D01*
X287274720Y-128928590D01*
X286727160Y-128928590D01*
X286727160Y-128531030D01*
X286682882Y-128295713D01*
X286676582Y-128285923D01*
X286676582Y-128163277D01*
X286808025Y-128294720D01*
X286875279Y-128294720D01*
X287108668Y-128198047D01*
X287287297Y-128019419D01*
X287383970Y-127786030D01*
X287383970Y-127645750D01*
X287225220Y-127487000D01*
X286649275Y-127487000D01*
X286649275Y-127507000D01*
X286497250Y-127507000D01*
X286497250Y-127060280D01*
X286452972Y-126824963D01*
X286449885Y-126820166D01*
X286449885Y-126584030D01*
X286649275Y-126584030D01*
X286649275Y-127233000D01*
X287225220Y-127233000D01*
X287383970Y-127074250D01*
X287383970Y-126933970D01*
X287287297Y-126700581D01*
X287108668Y-126521953D01*
X286875279Y-126425280D01*
X286808025Y-126425280D01*
X286649275Y-126584030D01*
X286449885Y-126584030D01*
X286291135Y-126425280D01*
X286223881Y-126425280D01*
X286112671Y-126471345D01*
X286101700Y-126463849D01*
X285849810Y-126412840D01*
X285451030Y-126412840D01*
X285215713Y-126457118D01*
X285176068Y-126482629D01*
X284907609Y-126371154D01*
X284553943Y-126370846D01*
X284317968Y-126468349D01*
X284240000Y-126452560D01*
X284040000Y-126452560D01*
X284000322Y-126460026D01*
X283840000Y-126427560D01*
X283640000Y-126427560D01*
X283536329Y-126447067D01*
X283440000Y-126427560D01*
X283240000Y-126427560D01*
X283136329Y-126447067D01*
X283040000Y-126427560D01*
X282840000Y-126427560D01*
X282736329Y-126447067D01*
X282640000Y-126427560D01*
X282440000Y-126427560D01*
X282204683Y-126471838D01*
X282042470Y-126576220D01*
X281931250Y-126465000D01*
X281913690Y-126465000D01*
X281680301Y-126561673D01*
X281501673Y-126740302D01*
X281405000Y-126973691D01*
X281405000Y-127066250D01*
X281441310Y-127102560D01*
X281390000Y-127102560D01*
X281154683Y-127146838D01*
X280938559Y-127285910D01*
X280793569Y-127498110D01*
X280742560Y-127750000D01*
X280742560Y-127950000D01*
X280750026Y-127989678D01*
X280717560Y-128150000D01*
X280717560Y-128350000D01*
X280737067Y-128453671D01*
X280717560Y-128550000D01*
X280717560Y-128710884D01*
X280673943Y-128710846D01*
X280347080Y-128845903D01*
X280330813Y-128862142D01*
X280087609Y-128761154D01*
X279733943Y-128760846D01*
X279436714Y-128883659D01*
X279291936Y-128823541D01*
X279311500Y-128776309D01*
X279311500Y-128733750D01*
X279152750Y-128575000D01*
X278901757Y-128575000D01*
X278854234Y-128501147D01*
X278896431Y-128439390D01*
X278899345Y-128425000D01*
X279152750Y-128425000D01*
X279311500Y-128266250D01*
X279311500Y-128223691D01*
X279214827Y-127990302D01*
X279036199Y-127811673D01*
X278947440Y-127774908D01*
X278947440Y-127587500D01*
X278903162Y-127352183D01*
X278764090Y-127136059D01*
X278551890Y-126991069D01*
X278300000Y-126940060D01*
X278187239Y-126940060D01*
X278130485Y-126902138D01*
X278121868Y-126900424D01*
X277800000Y-126836400D01*
X276548500Y-126836400D01*
X276500860Y-126803849D01*
X276248970Y-126752840D01*
X275850190Y-126752840D01*
X275614873Y-126797118D01*
X275603016Y-126804748D01*
X275601700Y-126803849D01*
X275349810Y-126752840D01*
X274951030Y-126752840D01*
X274715713Y-126797118D01*
X274656843Y-126835000D01*
X274454827Y-126835000D01*
X274299720Y-126803590D01*
X273700280Y-126803590D01*
X273535583Y-126834580D01*
X273345836Y-126834580D01*
X273300860Y-126803849D01*
X273048970Y-126752840D01*
X272677000Y-126752840D01*
X272677000Y-126185000D01*
X288115974Y-126185000D01*
X287990173Y-126310802D01*
X287990173Y-126310802D01*
G37*
X287990173Y-126310802D02*
X287893500Y-126544191D01*
X287893500Y-126702250D01*
X288052250Y-126861000D01*
X288973000Y-126861000D01*
X288973000Y-126841000D01*
X289227000Y-126841000D01*
X289227000Y-126861000D01*
X290147750Y-126861000D01*
X290158025Y-126850725D01*
X290673000Y-126850725D01*
X290673000Y-126803420D01*
X290927000Y-126803420D01*
X290927000Y-126850725D01*
X291575970Y-126850725D01*
X291590695Y-126836000D01*
X292148000Y-126836000D01*
X292148000Y-126816000D01*
X292402000Y-126816000D01*
X292402000Y-126836000D01*
X292984305Y-126836000D01*
X292999030Y-126850725D01*
X293648000Y-126850725D01*
X293648000Y-126803420D01*
X293902000Y-126803420D01*
X293902000Y-126850725D01*
X294550970Y-126850725D01*
X294709720Y-126691975D01*
X294709720Y-126624721D01*
X294613047Y-126391332D01*
X294434419Y-126212703D01*
X294367538Y-126185000D01*
X299119145Y-126185000D01*
X299036371Y-126267630D01*
X298823243Y-126780900D01*
X298822758Y-127336661D01*
X299034990Y-127850303D01*
X299427630Y-128243629D01*
X299940900Y-128456757D01*
X300496661Y-128457242D01*
X301010303Y-128245010D01*
X301363763Y-127892167D01*
X301394838Y-128057317D01*
X301533910Y-128273441D01*
X301746110Y-128418431D01*
X301998000Y-128469440D01*
X303522000Y-128469440D01*
X303757317Y-128425162D01*
X303973441Y-128286090D01*
X304118431Y-128073890D01*
X304169440Y-127822000D01*
X304169440Y-126298000D01*
X304148178Y-126185000D01*
X310415000Y-126185000D01*
X310415000Y-146515000D01*
X295502088Y-146515000D01*
X295545401Y-146451610D01*
X295596410Y-146199720D01*
X295596410Y-145600280D01*
X295552132Y-145364963D01*
X295519588Y-145314388D01*
X295545401Y-145276610D01*
X295590343Y-145054682D01*
X295817492Y-145206458D01*
X296089580Y-145260580D01*
X299399250Y-145260580D01*
X299523390Y-145345401D01*
X299775280Y-145396410D01*
X299990692Y-145396410D01*
X300075000Y-145413180D01*
X301175000Y-145413180D01*
X301259308Y-145396410D01*
X301474720Y-145396410D01*
X301710037Y-145352132D01*
X301926161Y-145213060D01*
X302071151Y-145000860D01*
X302122160Y-144748970D01*
X302122160Y-144361000D01*
X304842560Y-144361000D01*
X304842560Y-144500000D01*
X304886838Y-144735317D01*
X305025910Y-144951441D01*
X305238110Y-145096431D01*
X305490000Y-145147440D01*
X307190000Y-145147440D01*
X307425317Y-145103162D01*
X307641441Y-144964090D01*
X307786431Y-144751890D01*
X307837440Y-144500000D01*
X307837440Y-142800000D01*
X307793162Y-142564683D01*
X307654090Y-142348559D01*
X307441890Y-142203569D01*
X307190000Y-142152560D01*
X305490000Y-142152560D01*
X305254683Y-142196838D01*
X305038559Y-142335910D01*
X304893569Y-142548110D01*
X304842560Y-142800000D01*
X304842560Y-142939000D01*
X301850135Y-142939000D01*
X301726610Y-142854599D01*
X301474720Y-142803590D01*
X301259308Y-142803590D01*
X301175000Y-142786820D01*
X300075000Y-142786820D01*
X299990692Y-142803590D01*
X299775280Y-142803590D01*
X299539963Y-142847868D01*
X299323839Y-142986940D01*
X299178849Y-143199140D01*
X299127840Y-143451030D01*
X299127840Y-143838580D01*
X296384086Y-143838580D01*
X296354751Y-143809245D01*
X296496431Y-143601890D01*
X296547440Y-143350000D01*
X296547440Y-141850000D01*
X296503162Y-141614683D01*
X296364090Y-141398559D01*
X296309121Y-141361000D01*
X296646255Y-141361000D01*
X296698110Y-141396431D01*
X296950000Y-141447440D01*
X298450000Y-141447440D01*
X298685317Y-141403162D01*
X298901441Y-141264090D01*
X299046431Y-141051890D01*
X299097440Y-140800000D01*
X299097440Y-140500000D01*
X299077933Y-140396329D01*
X299097440Y-140300000D01*
X299097440Y-140000000D01*
X299077933Y-139896329D01*
X299097440Y-139800000D01*
X299097440Y-139500000D01*
X299077933Y-139396329D01*
X299097440Y-139300000D01*
X299097440Y-139000000D01*
X299077933Y-138896329D01*
X299097440Y-138800000D01*
X299097440Y-138500000D01*
X299077933Y-138396329D01*
X299097440Y-138300000D01*
X299097440Y-138032946D01*
X299337247Y-138272753D01*
X299567912Y-138426878D01*
X299840000Y-138481000D01*
X301561097Y-138481000D01*
X301586940Y-138521161D01*
X301799140Y-138666151D01*
X302051030Y-138717160D01*
X302438580Y-138717160D01*
X302438580Y-139799580D01*
X302492702Y-140071668D01*
X302646827Y-140302333D01*
X304247247Y-141902753D01*
X304477912Y-142056878D01*
X304750000Y-142111000D01*
X307180000Y-142111000D01*
X307452088Y-142056878D01*
X307682753Y-141902753D01*
X308015232Y-141570274D01*
X308390907Y-141645000D01*
X308449093Y-141645000D01*
X309017378Y-141531961D01*
X309499147Y-141210054D01*
X309821054Y-140728285D01*
X309934093Y-140160000D01*
X309821054Y-139591715D01*
X309499147Y-139109946D01*
X309169974Y-138890000D01*
X309499147Y-138670054D01*
X309821054Y-138188285D01*
X309934093Y-137620000D01*
X309821054Y-137051715D01*
X309499147Y-136569946D01*
X309169974Y-136350000D01*
X309499147Y-136130054D01*
X309821054Y-135648285D01*
X309934093Y-135080000D01*
X309821054Y-134511715D01*
X309499147Y-134029946D01*
X309169974Y-133810000D01*
X309499147Y-133590054D01*
X309821054Y-133108285D01*
X309934093Y-132540000D01*
X309821054Y-131971715D01*
X309499147Y-131489946D01*
X309017378Y-131168039D01*
X308449093Y-131055000D01*
X308390907Y-131055000D01*
X307822622Y-131168039D01*
X307340853Y-131489946D01*
X307340029Y-131491179D01*
X307333162Y-131454683D01*
X307194090Y-131238559D01*
X306981890Y-131093569D01*
X306730000Y-131042560D01*
X305030000Y-131042560D01*
X304824227Y-131081279D01*
X306108066Y-129797440D01*
X307450000Y-129797440D01*
X307685317Y-129753162D01*
X307901441Y-129614090D01*
X308046431Y-129401890D01*
X308097440Y-129150000D01*
X308097440Y-127450000D01*
X308053162Y-127214683D01*
X307914090Y-126998559D01*
X307701890Y-126853569D01*
X307450000Y-126802560D01*
X305750000Y-126802560D01*
X305514683Y-126846838D01*
X305298559Y-126985910D01*
X305153569Y-127198110D01*
X305102560Y-127450000D01*
X305102560Y-128791934D01*
X302730494Y-131164000D01*
X302613903Y-131164000D01*
X302588060Y-131123839D01*
X302375860Y-130978849D01*
X302123970Y-130927840D01*
X301725190Y-130927840D01*
X301489873Y-130972118D01*
X301478016Y-130979748D01*
X301476700Y-130978849D01*
X301224810Y-130927840D01*
X301133546Y-130927840D01*
X301102882Y-130764873D01*
X301087286Y-130740636D01*
X301134720Y-130626119D01*
X301134720Y-130558865D01*
X300975970Y-130400115D01*
X300733615Y-130400115D01*
X300499720Y-130352750D01*
X300284308Y-130352750D01*
X300200000Y-130335980D01*
X298975000Y-130335980D01*
X298890692Y-130352750D01*
X298886000Y-130352750D01*
X298886000Y-129900000D01*
X298848000Y-129708962D01*
X298848000Y-129624780D01*
X299102000Y-129624780D01*
X299102000Y-130200725D01*
X300073000Y-130200725D01*
X300073000Y-129624780D01*
X300327000Y-129624780D01*
X300327000Y-130200725D01*
X300975970Y-130200725D01*
X301134720Y-130041975D01*
X301134720Y-129974721D01*
X301038047Y-129741332D01*
X300859419Y-129562703D01*
X300626030Y-129466030D01*
X300485750Y-129466030D01*
X300327000Y-129624780D01*
X300073000Y-129624780D01*
X299914250Y-129466030D01*
X299773970Y-129466030D01*
X299587500Y-129543268D01*
X299401030Y-129466030D01*
X299260750Y-129466030D01*
X299102000Y-129624780D01*
X298848000Y-129624780D01*
X298793107Y-129569887D01*
X298677753Y-129397247D01*
X298052333Y-128771827D01*
X297996018Y-128734199D01*
X298009720Y-128701119D01*
X298009720Y-128633865D01*
X297850970Y-128475115D01*
X297608615Y-128475115D01*
X297374720Y-128427750D01*
X297159308Y-128427750D01*
X297075000Y-128410980D01*
X296025000Y-128410980D01*
X295940692Y-128427750D01*
X295725280Y-128427750D01*
X295489963Y-128472028D01*
X295485166Y-128475115D01*
X295249030Y-128475115D01*
X295160565Y-128563580D01*
X294875420Y-128563580D01*
X294603332Y-128617702D01*
X294372667Y-128771827D01*
X293341934Y-129802560D01*
X293100000Y-129802560D01*
X293028677Y-129815980D01*
X293026310Y-129815000D01*
X292983750Y-129815000D01*
X292972129Y-129826621D01*
X292961000Y-129828715D01*
X292961000Y-129430395D01*
X293081817Y-129407662D01*
X293297941Y-129268590D01*
X293442931Y-129056390D01*
X293493940Y-128804500D01*
X293493940Y-128696410D01*
X294074720Y-128696410D01*
X294310037Y-128652132D01*
X294526161Y-128513060D01*
X294671151Y-128300860D01*
X294722007Y-128049721D01*
X295090280Y-128049721D01*
X295090280Y-128116975D01*
X295249030Y-128275725D01*
X295898000Y-128275725D01*
X295898000Y-128049721D01*
X296140280Y-128049721D01*
X296140280Y-128116975D01*
X296152000Y-128128695D01*
X296152000Y-128275725D01*
X296948000Y-128275725D01*
X296948000Y-128128695D01*
X296959720Y-128116975D01*
X296959720Y-128049721D01*
X296948000Y-128021426D01*
X296948000Y-127699780D01*
X297202000Y-127699780D01*
X297202000Y-128275725D01*
X297850970Y-128275725D01*
X298009720Y-128116975D01*
X298009720Y-128049721D01*
X297913047Y-127816332D01*
X297734419Y-127637703D01*
X297501030Y-127541030D01*
X297360750Y-127541030D01*
X297202000Y-127699780D01*
X296948000Y-127699780D01*
X296789250Y-127541030D01*
X296648970Y-127541030D01*
X296550000Y-127582025D01*
X296451030Y-127541030D01*
X296310750Y-127541030D01*
X296152000Y-127699780D01*
X296152000Y-128021426D01*
X296140280Y-128049721D01*
X295898000Y-128049721D01*
X295898000Y-127699780D01*
X295739250Y-127541030D01*
X295598970Y-127541030D01*
X295365581Y-127637703D01*
X295186953Y-127816332D01*
X295090280Y-128049721D01*
X294722007Y-128049721D01*
X294722160Y-128048970D01*
X294722160Y-127650190D01*
X294677882Y-127414873D01*
X294662286Y-127390636D01*
X294709720Y-127276119D01*
X294709720Y-127208865D01*
X294550970Y-127050115D01*
X294308615Y-127050115D01*
X294074720Y-127002750D01*
X293475280Y-127002750D01*
X293239963Y-127047028D01*
X293235166Y-127050115D01*
X292999030Y-127050115D01*
X292959145Y-127090000D01*
X292402000Y-127090000D01*
X292402000Y-127110000D01*
X292148000Y-127110000D01*
X292148000Y-127090000D01*
X291615855Y-127090000D01*
X291575970Y-127050115D01*
X291333615Y-127050115D01*
X291099720Y-127002750D01*
X290500280Y-127002750D01*
X290264963Y-127047028D01*
X290260166Y-127050115D01*
X290024030Y-127050115D01*
X289959145Y-127115000D01*
X289227000Y-127115000D01*
X289227000Y-127135000D01*
X288973000Y-127135000D01*
X288973000Y-127115000D01*
X288052250Y-127115000D01*
X287893500Y-127273750D01*
X287893500Y-127431809D01*
X287990173Y-127665198D01*
X288068261Y-127743286D01*
X287932069Y-127942610D01*
X287881060Y-128194500D01*
X287881060Y-128829500D01*
X287925263Y-129064420D01*
X287650750Y-129064420D01*
X287526610Y-128979599D01*
X287274720Y-128928590D01*
X286727160Y-128928590D01*
X286727160Y-128531030D01*
X286682882Y-128295713D01*
X286676582Y-128285923D01*
X286676582Y-128163277D01*
X286808025Y-128294720D01*
X286875279Y-128294720D01*
X287108668Y-128198047D01*
X287287297Y-128019419D01*
X287383970Y-127786030D01*
X287383970Y-127645750D01*
X287225220Y-127487000D01*
X286649275Y-127487000D01*
X286649275Y-127507000D01*
X286497250Y-127507000D01*
X286497250Y-127060280D01*
X286452972Y-126824963D01*
X286449885Y-126820166D01*
X286449885Y-126584030D01*
X286649275Y-126584030D01*
X286649275Y-127233000D01*
X287225220Y-127233000D01*
X287383970Y-127074250D01*
X287383970Y-126933970D01*
X287287297Y-126700581D01*
X287108668Y-126521953D01*
X286875279Y-126425280D01*
X286808025Y-126425280D01*
X286649275Y-126584030D01*
X286449885Y-126584030D01*
X286291135Y-126425280D01*
X286223881Y-126425280D01*
X286112671Y-126471345D01*
X286101700Y-126463849D01*
X285849810Y-126412840D01*
X285451030Y-126412840D01*
X285215713Y-126457118D01*
X285176068Y-126482629D01*
X284907609Y-126371154D01*
X284553943Y-126370846D01*
X284317968Y-126468349D01*
X284240000Y-126452560D01*
X284040000Y-126452560D01*
X284000322Y-126460026D01*
X283840000Y-126427560D01*
X283640000Y-126427560D01*
X283536329Y-126447067D01*
X283440000Y-126427560D01*
X283240000Y-126427560D01*
X283136329Y-126447067D01*
X283040000Y-126427560D01*
X282840000Y-126427560D01*
X282736329Y-126447067D01*
X282640000Y-126427560D01*
X282440000Y-126427560D01*
X282204683Y-126471838D01*
X282042470Y-126576220D01*
X281931250Y-126465000D01*
X281913690Y-126465000D01*
X281680301Y-126561673D01*
X281501673Y-126740302D01*
X281405000Y-126973691D01*
X281405000Y-127066250D01*
X281441310Y-127102560D01*
X281390000Y-127102560D01*
X281154683Y-127146838D01*
X280938559Y-127285910D01*
X280793569Y-127498110D01*
X280742560Y-127750000D01*
X280742560Y-127950000D01*
X280750026Y-127989678D01*
X280717560Y-128150000D01*
X280717560Y-128350000D01*
X280737067Y-128453671D01*
X280717560Y-128550000D01*
X280717560Y-128710884D01*
X280673943Y-128710846D01*
X280347080Y-128845903D01*
X280330813Y-128862142D01*
X280087609Y-128761154D01*
X279733943Y-128760846D01*
X279436714Y-128883659D01*
X279291936Y-128823541D01*
X279311500Y-128776309D01*
X279311500Y-128733750D01*
X279152750Y-128575000D01*
X278901757Y-128575000D01*
X278854234Y-128501147D01*
X278896431Y-128439390D01*
X278899345Y-128425000D01*
X279152750Y-128425000D01*
X279311500Y-128266250D01*
X279311500Y-128223691D01*
X279214827Y-127990302D01*
X279036199Y-127811673D01*
X278947440Y-127774908D01*
X278947440Y-127587500D01*
X278903162Y-127352183D01*
X278764090Y-127136059D01*
X278551890Y-126991069D01*
X278300000Y-126940060D01*
X278187239Y-126940060D01*
X278130485Y-126902138D01*
X278121868Y-126900424D01*
X277800000Y-126836400D01*
X276548500Y-126836400D01*
X276500860Y-126803849D01*
X276248970Y-126752840D01*
X275850190Y-126752840D01*
X275614873Y-126797118D01*
X275603016Y-126804748D01*
X275601700Y-126803849D01*
X275349810Y-126752840D01*
X274951030Y-126752840D01*
X274715713Y-126797118D01*
X274656843Y-126835000D01*
X274454827Y-126835000D01*
X274299720Y-126803590D01*
X273700280Y-126803590D01*
X273535583Y-126834580D01*
X273345836Y-126834580D01*
X273300860Y-126803849D01*
X273048970Y-126752840D01*
X272677000Y-126752840D01*
X272677000Y-126185000D01*
X288115974Y-126185000D01*
X287990173Y-126310802D01*
G36*
X293174780Y-144598000D02*
X293214625Y-144598000D01*
X293227912Y-144606878D01*
X293500000Y-144661000D01*
X293902750Y-144661000D01*
X293902750Y-145024720D01*
X293947028Y-145260037D01*
X293950115Y-145264834D01*
X293950115Y-145366385D01*
X293902750Y-145600280D01*
X293902750Y-146047000D01*
X293750725Y-146047000D01*
X293750725Y-146027000D01*
X293174780Y-146027000D01*
X293150000Y-146051780D01*
X293075220Y-145977000D01*
X292499275Y-145977000D01*
X292499275Y-145997000D01*
X292347250Y-145997000D01*
X292347250Y-145550280D01*
X292302972Y-145314963D01*
X292299885Y-145310166D01*
X292299885Y-145258615D01*
X292347250Y-145024720D01*
X292347250Y-144852000D01*
X292499275Y-144852000D01*
X292499275Y-145723000D01*
X293075220Y-145723000D01*
X293100000Y-145698220D01*
X293174780Y-145773000D01*
X293750725Y-145773000D01*
X293750725Y-144852000D01*
X293174780Y-144852000D01*
X293125000Y-144901780D01*
X293075220Y-144852000D01*
X292499275Y-144852000D01*
X292347250Y-144852000D01*
X292347250Y-144578000D01*
X292499275Y-144578000D01*
X292499275Y-144598000D01*
X293075220Y-144598000D01*
X293125000Y-144548220D01*
X293174780Y-144598000D01*
X293174780Y-144598000D01*
G37*
X293174780Y-144598000D02*
X293214625Y-144598000D01*
X293227912Y-144606878D01*
X293500000Y-144661000D01*
X293902750Y-144661000D01*
X293902750Y-145024720D01*
X293947028Y-145260037D01*
X293950115Y-145264834D01*
X293950115Y-145366385D01*
X293902750Y-145600280D01*
X293902750Y-146047000D01*
X293750725Y-146047000D01*
X293750725Y-146027000D01*
X293174780Y-146027000D01*
X293150000Y-146051780D01*
X293075220Y-145977000D01*
X292499275Y-145977000D01*
X292499275Y-145997000D01*
X292347250Y-145997000D01*
X292347250Y-145550280D01*
X292302972Y-145314963D01*
X292299885Y-145310166D01*
X292299885Y-145258615D01*
X292347250Y-145024720D01*
X292347250Y-144852000D01*
X292499275Y-144852000D01*
X292499275Y-145723000D01*
X293075220Y-145723000D01*
X293100000Y-145698220D01*
X293174780Y-145773000D01*
X293750725Y-145773000D01*
X293750725Y-144852000D01*
X293174780Y-144852000D01*
X293125000Y-144901780D01*
X293075220Y-144852000D01*
X292499275Y-144852000D01*
X292347250Y-144852000D01*
X292347250Y-144578000D01*
X292499275Y-144578000D01*
X292499275Y-144598000D01*
X293075220Y-144598000D01*
X293125000Y-144548220D01*
X293174780Y-144598000D01*
G36*
X282610500Y-137530453D02*
X282610500Y-137593500D01*
X282597750Y-137593500D01*
X282439000Y-137752250D01*
X282439000Y-138673000D01*
X282459000Y-138673000D01*
X282459000Y-138927000D01*
X282439000Y-138927000D01*
X282439000Y-139847750D01*
X282597750Y-140006500D01*
X282755809Y-140006500D01*
X282989198Y-139909827D01*
X283167827Y-139731199D01*
X283253767Y-139523721D01*
X284399284Y-140669237D01*
X284293542Y-140827492D01*
X284239420Y-141099580D01*
X284239420Y-141999250D01*
X284154599Y-142123390D01*
X284103590Y-142375280D01*
X284103590Y-142904585D01*
X283915786Y-142982184D01*
X283959720Y-142876119D01*
X283959720Y-142808865D01*
X283800970Y-142650115D01*
X283558615Y-142650115D01*
X283324720Y-142602750D01*
X283109308Y-142602750D01*
X283025000Y-142585980D01*
X282940692Y-142602750D01*
X282878000Y-142602750D01*
X282878000Y-142450725D01*
X282898000Y-142450725D01*
X282898000Y-141874780D01*
X283152000Y-141874780D01*
X283152000Y-142450725D01*
X283800970Y-142450725D01*
X283959720Y-142291975D01*
X283959720Y-142224721D01*
X283863047Y-141991332D01*
X283684419Y-141812703D01*
X283451030Y-141716030D01*
X283310750Y-141716030D01*
X283152000Y-141874780D01*
X282898000Y-141874780D01*
X282739250Y-141716030D01*
X282598970Y-141716030D01*
X282574282Y-141726256D01*
X282459698Y-141611673D01*
X282226309Y-141515000D01*
X282060750Y-141515000D01*
X281980155Y-141595595D01*
X282008970Y-141526030D01*
X282008970Y-141385750D01*
X281850220Y-141227000D01*
X281274275Y-141227000D01*
X281274275Y-141247000D01*
X281139020Y-141247000D01*
X281139020Y-140953000D01*
X281274275Y-140953000D01*
X281274275Y-140973000D01*
X281850220Y-140973000D01*
X282008970Y-140814250D01*
X282008970Y-140673970D01*
X281912297Y-140440581D01*
X281733668Y-140261953D01*
X281500279Y-140165280D01*
X281436996Y-140165280D01*
X281585862Y-139942485D01*
X281599400Y-139874425D01*
X281634802Y-139909827D01*
X281868191Y-140006500D01*
X282026250Y-140006500D01*
X282185000Y-139847750D01*
X282185000Y-138927000D01*
X282165000Y-138927000D01*
X282165000Y-138673000D01*
X282185000Y-138673000D01*
X282185000Y-137752250D01*
X282026250Y-137593500D01*
X281868191Y-137593500D01*
X281634802Y-137690173D01*
X281556714Y-137768261D01*
X281511000Y-137737026D01*
X281511000Y-136854461D01*
X281651441Y-136764090D01*
X281729660Y-136649613D01*
X282610500Y-137530453D01*
X282610500Y-137530453D01*
G37*
X282610500Y-137530453D02*
X282610500Y-137593500D01*
X282597750Y-137593500D01*
X282439000Y-137752250D01*
X282439000Y-138673000D01*
X282459000Y-138673000D01*
X282459000Y-138927000D01*
X282439000Y-138927000D01*
X282439000Y-139847750D01*
X282597750Y-140006500D01*
X282755809Y-140006500D01*
X282989198Y-139909827D01*
X283167827Y-139731199D01*
X283253767Y-139523721D01*
X284399284Y-140669237D01*
X284293542Y-140827492D01*
X284239420Y-141099580D01*
X284239420Y-141999250D01*
X284154599Y-142123390D01*
X284103590Y-142375280D01*
X284103590Y-142904585D01*
X283915786Y-142982184D01*
X283959720Y-142876119D01*
X283959720Y-142808865D01*
X283800970Y-142650115D01*
X283558615Y-142650115D01*
X283324720Y-142602750D01*
X283109308Y-142602750D01*
X283025000Y-142585980D01*
X282940692Y-142602750D01*
X282878000Y-142602750D01*
X282878000Y-142450725D01*
X282898000Y-142450725D01*
X282898000Y-141874780D01*
X283152000Y-141874780D01*
X283152000Y-142450725D01*
X283800970Y-142450725D01*
X283959720Y-142291975D01*
X283959720Y-142224721D01*
X283863047Y-141991332D01*
X283684419Y-141812703D01*
X283451030Y-141716030D01*
X283310750Y-141716030D01*
X283152000Y-141874780D01*
X282898000Y-141874780D01*
X282739250Y-141716030D01*
X282598970Y-141716030D01*
X282574282Y-141726256D01*
X282459698Y-141611673D01*
X282226309Y-141515000D01*
X282060750Y-141515000D01*
X281980155Y-141595595D01*
X282008970Y-141526030D01*
X282008970Y-141385750D01*
X281850220Y-141227000D01*
X281274275Y-141227000D01*
X281274275Y-141247000D01*
X281139020Y-141247000D01*
X281139020Y-140953000D01*
X281274275Y-140953000D01*
X281274275Y-140973000D01*
X281850220Y-140973000D01*
X282008970Y-140814250D01*
X282008970Y-140673970D01*
X281912297Y-140440581D01*
X281733668Y-140261953D01*
X281500279Y-140165280D01*
X281436996Y-140165280D01*
X281585862Y-139942485D01*
X281599400Y-139874425D01*
X281634802Y-139909827D01*
X281868191Y-140006500D01*
X282026250Y-140006500D01*
X282185000Y-139847750D01*
X282185000Y-138927000D01*
X282165000Y-138927000D01*
X282165000Y-138673000D01*
X282185000Y-138673000D01*
X282185000Y-137752250D01*
X282026250Y-137593500D01*
X281868191Y-137593500D01*
X281634802Y-137690173D01*
X281556714Y-137768261D01*
X281511000Y-137737026D01*
X281511000Y-136854461D01*
X281651441Y-136764090D01*
X281729660Y-136649613D01*
X282610500Y-137530453D01*
G36*
X274674030Y-140899885D02*
X274916385Y-140899885D01*
X275150280Y-140947250D01*
X275749720Y-140947250D01*
X275985037Y-140902972D01*
X275989834Y-140899885D01*
X276316385Y-140899885D01*
X276550280Y-140947250D01*
X276997000Y-140947250D01*
X276997000Y-141099275D01*
X276977000Y-141099275D01*
X276977000Y-141675220D01*
X277008791Y-141707011D01*
X277006060Y-141720500D01*
X277006060Y-142355500D01*
X277050338Y-142590817D01*
X277103530Y-142673480D01*
X275232302Y-142673480D01*
X275215500Y-142584187D01*
X275215500Y-142580709D01*
X275222500Y-142563810D01*
X275222500Y-142538225D01*
X275235500Y-142538225D01*
X275235500Y-141962280D01*
X275489500Y-141962280D01*
X275489500Y-142538225D01*
X276138470Y-142538225D01*
X276297220Y-142379475D01*
X276297220Y-142312221D01*
X276200547Y-142078832D01*
X276021919Y-141900203D01*
X275862019Y-141833970D01*
X275876030Y-141833970D01*
X276109419Y-141737297D01*
X276150000Y-141696716D01*
X276190581Y-141737297D01*
X276423970Y-141833970D01*
X276564250Y-141833970D01*
X276723000Y-141675220D01*
X276723000Y-141099275D01*
X275577000Y-141099275D01*
X275577000Y-141675220D01*
X275705310Y-141803530D01*
X275648250Y-141803530D01*
X275489500Y-141962280D01*
X275235500Y-141962280D01*
X275222500Y-141949280D01*
X275222500Y-141911190D01*
X275182822Y-141815398D01*
X275323000Y-141675220D01*
X275323000Y-141099275D01*
X274674030Y-141099275D01*
X274515280Y-141258025D01*
X274515280Y-141325279D01*
X274547554Y-141403196D01*
X274436985Y-141513765D01*
X274337720Y-141414500D01*
X273988750Y-141414500D01*
X273976750Y-141402500D01*
X273811191Y-141402500D01*
X273782220Y-141414500D01*
X273761775Y-141414500D01*
X273761775Y-141422969D01*
X273733937Y-141434500D01*
X273609750Y-141434500D01*
X273609750Y-141147160D01*
X273761775Y-141147160D01*
X273761775Y-141160500D01*
X274337720Y-141160500D01*
X274496470Y-141001750D01*
X274496470Y-140861470D01*
X274468018Y-140792780D01*
X274527308Y-140753163D01*
X274674030Y-140899885D01*
X274674030Y-140899885D01*
G37*
X274674030Y-140899885D02*
X274916385Y-140899885D01*
X275150280Y-140947250D01*
X275749720Y-140947250D01*
X275985037Y-140902972D01*
X275989834Y-140899885D01*
X276316385Y-140899885D01*
X276550280Y-140947250D01*
X276997000Y-140947250D01*
X276997000Y-141099275D01*
X276977000Y-141099275D01*
X276977000Y-141675220D01*
X277008791Y-141707011D01*
X277006060Y-141720500D01*
X277006060Y-142355500D01*
X277050338Y-142590817D01*
X277103530Y-142673480D01*
X275232302Y-142673480D01*
X275215500Y-142584187D01*
X275215500Y-142580709D01*
X275222500Y-142563810D01*
X275222500Y-142538225D01*
X275235500Y-142538225D01*
X275235500Y-141962280D01*
X275489500Y-141962280D01*
X275489500Y-142538225D01*
X276138470Y-142538225D01*
X276297220Y-142379475D01*
X276297220Y-142312221D01*
X276200547Y-142078832D01*
X276021919Y-141900203D01*
X275862019Y-141833970D01*
X275876030Y-141833970D01*
X276109419Y-141737297D01*
X276150000Y-141696716D01*
X276190581Y-141737297D01*
X276423970Y-141833970D01*
X276564250Y-141833970D01*
X276723000Y-141675220D01*
X276723000Y-141099275D01*
X275577000Y-141099275D01*
X275577000Y-141675220D01*
X275705310Y-141803530D01*
X275648250Y-141803530D01*
X275489500Y-141962280D01*
X275235500Y-141962280D01*
X275222500Y-141949280D01*
X275222500Y-141911190D01*
X275182822Y-141815398D01*
X275323000Y-141675220D01*
X275323000Y-141099275D01*
X274674030Y-141099275D01*
X274515280Y-141258025D01*
X274515280Y-141325279D01*
X274547554Y-141403196D01*
X274436985Y-141513765D01*
X274337720Y-141414500D01*
X273988750Y-141414500D01*
X273976750Y-141402500D01*
X273811191Y-141402500D01*
X273782220Y-141414500D01*
X273761775Y-141414500D01*
X273761775Y-141422969D01*
X273733937Y-141434500D01*
X273609750Y-141434500D01*
X273609750Y-141147160D01*
X273761775Y-141147160D01*
X273761775Y-141160500D01*
X274337720Y-141160500D01*
X274496470Y-141001750D01*
X274496470Y-140861470D01*
X274468018Y-140792780D01*
X274527308Y-140753163D01*
X274674030Y-140899885D01*
G36*
X285927000Y-129729275D02*
X285907000Y-129729275D01*
X285907000Y-130305220D01*
X286065750Y-130463970D01*
X286088115Y-130463970D01*
X286199030Y-130574885D01*
X286441385Y-130574885D01*
X286675280Y-130622250D01*
X287122000Y-130622250D01*
X287122000Y-130774275D01*
X287102000Y-130774275D01*
X287102000Y-131350220D01*
X287260750Y-131508970D01*
X287401030Y-131508970D01*
X287470595Y-131480155D01*
X287465000Y-131485750D01*
X287465000Y-132076309D01*
X287561673Y-132309698D01*
X287740301Y-132488327D01*
X287973690Y-132585000D01*
X288016250Y-132585000D01*
X288175000Y-132426250D01*
X288175000Y-132423026D01*
X288240301Y-132488327D01*
X288473690Y-132585000D01*
X288526310Y-132585000D01*
X288759699Y-132488327D01*
X288761068Y-132486958D01*
X288848110Y-132546431D01*
X288969830Y-132571080D01*
X288983750Y-132585000D01*
X289026310Y-132585000D01*
X289030335Y-132583333D01*
X289100000Y-132597440D01*
X289400000Y-132597440D01*
X289503671Y-132577933D01*
X289600000Y-132597440D01*
X289900000Y-132597440D01*
X290003671Y-132577933D01*
X290100000Y-132597440D01*
X290400000Y-132597440D01*
X290503671Y-132577933D01*
X290600000Y-132597440D01*
X290900000Y-132597440D01*
X291003671Y-132577933D01*
X291100000Y-132597440D01*
X291400000Y-132597440D01*
X291471323Y-132584020D01*
X291473690Y-132585000D01*
X291516250Y-132585000D01*
X291527871Y-132573379D01*
X291635317Y-132553162D01*
X291749978Y-132479380D01*
X291848110Y-132546431D01*
X291969830Y-132571080D01*
X291983750Y-132585000D01*
X292026310Y-132585000D01*
X292030335Y-132583333D01*
X292100000Y-132597440D01*
X292400000Y-132597440D01*
X292471323Y-132584020D01*
X292473690Y-132585000D01*
X292516250Y-132585000D01*
X292527871Y-132573379D01*
X292635317Y-132553162D01*
X292749978Y-132479380D01*
X292848110Y-132546431D01*
X292969830Y-132571080D01*
X292983750Y-132585000D01*
X293026310Y-132585000D01*
X293030335Y-132583333D01*
X293100000Y-132597440D01*
X293400000Y-132597440D01*
X293503671Y-132577933D01*
X293600000Y-132597440D01*
X293900000Y-132597440D01*
X293971323Y-132584020D01*
X293973690Y-132585000D01*
X294016250Y-132585000D01*
X294027871Y-132573379D01*
X294039000Y-132571285D01*
X294039000Y-135075000D01*
X294093122Y-135347088D01*
X294247247Y-135577753D01*
X296302560Y-137633066D01*
X296302560Y-137800000D01*
X296322067Y-137903671D01*
X296302560Y-138000000D01*
X296302560Y-138300000D01*
X296322067Y-138403671D01*
X296302560Y-138500000D01*
X296302560Y-138800000D01*
X296322067Y-138903671D01*
X296302560Y-139000000D01*
X296302560Y-139300000D01*
X296322067Y-139403671D01*
X296302560Y-139500000D01*
X296302560Y-139800000D01*
X296322067Y-139903671D01*
X296314913Y-139939000D01*
X294075000Y-139939000D01*
X293802912Y-139993122D01*
X293572247Y-140147247D01*
X293380494Y-140339000D01*
X291050000Y-140339000D01*
X290777912Y-140393122D01*
X290547247Y-140547247D01*
X290247247Y-140847247D01*
X290169344Y-140963838D01*
X289352753Y-140147247D01*
X289122088Y-139993122D01*
X288850000Y-139939000D01*
X287685962Y-139939000D01*
X287684020Y-139928677D01*
X287685000Y-139926310D01*
X287685000Y-139883750D01*
X287673379Y-139872129D01*
X287653162Y-139764683D01*
X287586672Y-139661354D01*
X287588327Y-139659699D01*
X287685000Y-139426310D01*
X287685000Y-139373690D01*
X287592344Y-139150000D01*
X287685000Y-138926310D01*
X287685000Y-138873690D01*
X287588327Y-138640301D01*
X287586958Y-138638932D01*
X287646431Y-138551890D01*
X287671080Y-138430170D01*
X287685000Y-138416250D01*
X287685000Y-138373690D01*
X287683333Y-138369665D01*
X287697440Y-138300000D01*
X287697440Y-138000000D01*
X287684020Y-137928677D01*
X287685000Y-137926310D01*
X287685000Y-137883750D01*
X287673379Y-137872129D01*
X287653162Y-137764683D01*
X287586672Y-137661354D01*
X287588327Y-137659699D01*
X287685000Y-137426310D01*
X287685000Y-137373690D01*
X287588327Y-137140301D01*
X287586958Y-137138932D01*
X287646431Y-137051890D01*
X287671080Y-136930170D01*
X287685000Y-136916250D01*
X287685000Y-136873690D01*
X287683333Y-136869665D01*
X287697440Y-136800000D01*
X287697440Y-136500000D01*
X287677933Y-136396329D01*
X287697440Y-136300000D01*
X287697440Y-136000000D01*
X287684020Y-135928677D01*
X287685000Y-135926310D01*
X287685000Y-135883750D01*
X287673379Y-135872129D01*
X287653162Y-135764683D01*
X287579380Y-135650022D01*
X287646431Y-135551890D01*
X287671080Y-135430170D01*
X287685000Y-135416250D01*
X287685000Y-135373690D01*
X287683333Y-135369665D01*
X287697440Y-135300000D01*
X287697440Y-135000000D01*
X287677933Y-134896329D01*
X287697440Y-134800000D01*
X287697440Y-134500000D01*
X287677933Y-134396329D01*
X287697440Y-134300000D01*
X287697440Y-134000000D01*
X287677933Y-133896329D01*
X287697440Y-133800000D01*
X287697440Y-133500000D01*
X287684020Y-133428677D01*
X287685000Y-133426310D01*
X287685000Y-133383750D01*
X287673379Y-133372129D01*
X287653162Y-133264683D01*
X287529204Y-133072046D01*
X287685000Y-132916250D01*
X287685000Y-132873690D01*
X287588327Y-132640301D01*
X287409698Y-132461673D01*
X287176309Y-132365000D01*
X286585750Y-132365000D01*
X286427000Y-132523750D01*
X286427000Y-132852560D01*
X286173000Y-132852560D01*
X286173000Y-132523750D01*
X286014250Y-132365000D01*
X285423691Y-132365000D01*
X285190302Y-132461673D01*
X285011673Y-132640301D01*
X284915000Y-132873690D01*
X284915000Y-132900500D01*
X284109140Y-132900500D01*
X284109154Y-132883943D01*
X284063180Y-132772677D01*
X284063180Y-132210000D01*
X284059350Y-132190746D01*
X284154287Y-132172882D01*
X284370411Y-132033810D01*
X284515401Y-131821610D01*
X284566410Y-131569720D01*
X284566410Y-131144545D01*
X284691441Y-131064090D01*
X284780993Y-130933025D01*
X286040280Y-130933025D01*
X286040280Y-131000279D01*
X286136953Y-131233668D01*
X286315581Y-131412297D01*
X286548970Y-131508970D01*
X286689250Y-131508970D01*
X286848000Y-131350220D01*
X286848000Y-130774275D01*
X286199030Y-130774275D01*
X286040280Y-130933025D01*
X284780993Y-130933025D01*
X284836431Y-130851890D01*
X284887440Y-130600000D01*
X284887440Y-130597440D01*
X284890000Y-130597440D01*
X285125317Y-130553162D01*
X285299189Y-130441279D01*
X285353970Y-130463970D01*
X285494250Y-130463970D01*
X285653000Y-130305220D01*
X285653000Y-129729275D01*
X285633000Y-129729275D01*
X285633000Y-129577250D01*
X285927000Y-129577250D01*
X285927000Y-129729275D01*
X285927000Y-129729275D01*
G37*
X285927000Y-129729275D02*
X285907000Y-129729275D01*
X285907000Y-130305220D01*
X286065750Y-130463970D01*
X286088115Y-130463970D01*
X286199030Y-130574885D01*
X286441385Y-130574885D01*
X286675280Y-130622250D01*
X287122000Y-130622250D01*
X287122000Y-130774275D01*
X287102000Y-130774275D01*
X287102000Y-131350220D01*
X287260750Y-131508970D01*
X287401030Y-131508970D01*
X287470595Y-131480155D01*
X287465000Y-131485750D01*
X287465000Y-132076309D01*
X287561673Y-132309698D01*
X287740301Y-132488327D01*
X287973690Y-132585000D01*
X288016250Y-132585000D01*
X288175000Y-132426250D01*
X288175000Y-132423026D01*
X288240301Y-132488327D01*
X288473690Y-132585000D01*
X288526310Y-132585000D01*
X288759699Y-132488327D01*
X288761068Y-132486958D01*
X288848110Y-132546431D01*
X288969830Y-132571080D01*
X288983750Y-132585000D01*
X289026310Y-132585000D01*
X289030335Y-132583333D01*
X289100000Y-132597440D01*
X289400000Y-132597440D01*
X289503671Y-132577933D01*
X289600000Y-132597440D01*
X289900000Y-132597440D01*
X290003671Y-132577933D01*
X290100000Y-132597440D01*
X290400000Y-132597440D01*
X290503671Y-132577933D01*
X290600000Y-132597440D01*
X290900000Y-132597440D01*
X291003671Y-132577933D01*
X291100000Y-132597440D01*
X291400000Y-132597440D01*
X291471323Y-132584020D01*
X291473690Y-132585000D01*
X291516250Y-132585000D01*
X291527871Y-132573379D01*
X291635317Y-132553162D01*
X291749978Y-132479380D01*
X291848110Y-132546431D01*
X291969830Y-132571080D01*
X291983750Y-132585000D01*
X292026310Y-132585000D01*
X292030335Y-132583333D01*
X292100000Y-132597440D01*
X292400000Y-132597440D01*
X292471323Y-132584020D01*
X292473690Y-132585000D01*
X292516250Y-132585000D01*
X292527871Y-132573379D01*
X292635317Y-132553162D01*
X292749978Y-132479380D01*
X292848110Y-132546431D01*
X292969830Y-132571080D01*
X292983750Y-132585000D01*
X293026310Y-132585000D01*
X293030335Y-132583333D01*
X293100000Y-132597440D01*
X293400000Y-132597440D01*
X293503671Y-132577933D01*
X293600000Y-132597440D01*
X293900000Y-132597440D01*
X293971323Y-132584020D01*
X293973690Y-132585000D01*
X294016250Y-132585000D01*
X294027871Y-132573379D01*
X294039000Y-132571285D01*
X294039000Y-135075000D01*
X294093122Y-135347088D01*
X294247247Y-135577753D01*
X296302560Y-137633066D01*
X296302560Y-137800000D01*
X296322067Y-137903671D01*
X296302560Y-138000000D01*
X296302560Y-138300000D01*
X296322067Y-138403671D01*
X296302560Y-138500000D01*
X296302560Y-138800000D01*
X296322067Y-138903671D01*
X296302560Y-139000000D01*
X296302560Y-139300000D01*
X296322067Y-139403671D01*
X296302560Y-139500000D01*
X296302560Y-139800000D01*
X296322067Y-139903671D01*
X296314913Y-139939000D01*
X294075000Y-139939000D01*
X293802912Y-139993122D01*
X293572247Y-140147247D01*
X293380494Y-140339000D01*
X291050000Y-140339000D01*
X290777912Y-140393122D01*
X290547247Y-140547247D01*
X290247247Y-140847247D01*
X290169344Y-140963838D01*
X289352753Y-140147247D01*
X289122088Y-139993122D01*
X288850000Y-139939000D01*
X287685962Y-139939000D01*
X287684020Y-139928677D01*
X287685000Y-139926310D01*
X287685000Y-139883750D01*
X287673379Y-139872129D01*
X287653162Y-139764683D01*
X287586672Y-139661354D01*
X287588327Y-139659699D01*
X287685000Y-139426310D01*
X287685000Y-139373690D01*
X287592344Y-139150000D01*
X287685000Y-138926310D01*
X287685000Y-138873690D01*
X287588327Y-138640301D01*
X287586958Y-138638932D01*
X287646431Y-138551890D01*
X287671080Y-138430170D01*
X287685000Y-138416250D01*
X287685000Y-138373690D01*
X287683333Y-138369665D01*
X287697440Y-138300000D01*
X287697440Y-138000000D01*
X287684020Y-137928677D01*
X287685000Y-137926310D01*
X287685000Y-137883750D01*
X287673379Y-137872129D01*
X287653162Y-137764683D01*
X287586672Y-137661354D01*
X287588327Y-137659699D01*
X287685000Y-137426310D01*
X287685000Y-137373690D01*
X287588327Y-137140301D01*
X287586958Y-137138932D01*
X287646431Y-137051890D01*
X287671080Y-136930170D01*
X287685000Y-136916250D01*
X287685000Y-136873690D01*
X287683333Y-136869665D01*
X287697440Y-136800000D01*
X287697440Y-136500000D01*
X287677933Y-136396329D01*
X287697440Y-136300000D01*
X287697440Y-136000000D01*
X287684020Y-135928677D01*
X287685000Y-135926310D01*
X287685000Y-135883750D01*
X287673379Y-135872129D01*
X287653162Y-135764683D01*
X287579380Y-135650022D01*
X287646431Y-135551890D01*
X287671080Y-135430170D01*
X287685000Y-135416250D01*
X287685000Y-135373690D01*
X287683333Y-135369665D01*
X287697440Y-135300000D01*
X287697440Y-135000000D01*
X287677933Y-134896329D01*
X287697440Y-134800000D01*
X287697440Y-134500000D01*
X287677933Y-134396329D01*
X287697440Y-134300000D01*
X287697440Y-134000000D01*
X287677933Y-133896329D01*
X287697440Y-133800000D01*
X287697440Y-133500000D01*
X287684020Y-133428677D01*
X287685000Y-133426310D01*
X287685000Y-133383750D01*
X287673379Y-133372129D01*
X287653162Y-133264683D01*
X287529204Y-133072046D01*
X287685000Y-132916250D01*
X287685000Y-132873690D01*
X287588327Y-132640301D01*
X287409698Y-132461673D01*
X287176309Y-132365000D01*
X286585750Y-132365000D01*
X286427000Y-132523750D01*
X286427000Y-132852560D01*
X286173000Y-132852560D01*
X286173000Y-132523750D01*
X286014250Y-132365000D01*
X285423691Y-132365000D01*
X285190302Y-132461673D01*
X285011673Y-132640301D01*
X284915000Y-132873690D01*
X284915000Y-132900500D01*
X284109140Y-132900500D01*
X284109154Y-132883943D01*
X284063180Y-132772677D01*
X284063180Y-132210000D01*
X284059350Y-132190746D01*
X284154287Y-132172882D01*
X284370411Y-132033810D01*
X284515401Y-131821610D01*
X284566410Y-131569720D01*
X284566410Y-131144545D01*
X284691441Y-131064090D01*
X284780993Y-130933025D01*
X286040280Y-130933025D01*
X286040280Y-131000279D01*
X286136953Y-131233668D01*
X286315581Y-131412297D01*
X286548970Y-131508970D01*
X286689250Y-131508970D01*
X286848000Y-131350220D01*
X286848000Y-130774275D01*
X286199030Y-130774275D01*
X286040280Y-130933025D01*
X284780993Y-130933025D01*
X284836431Y-130851890D01*
X284887440Y-130600000D01*
X284887440Y-130597440D01*
X284890000Y-130597440D01*
X285125317Y-130553162D01*
X285299189Y-130441279D01*
X285353970Y-130463970D01*
X285494250Y-130463970D01*
X285653000Y-130305220D01*
X285653000Y-129729275D01*
X285633000Y-129729275D01*
X285633000Y-129577250D01*
X285927000Y-129577250D01*
X285927000Y-129729275D01*
G36*
X276211250Y-132204250D02*
X277163750Y-132204250D01*
X277183750Y-132184250D01*
X277303750Y-132184250D01*
X277323750Y-132204250D01*
X278276250Y-132204250D01*
X278296250Y-132184250D01*
X278416250Y-132184250D01*
X278436250Y-132204250D01*
X279388750Y-132204250D01*
X279408750Y-132184250D01*
X279595750Y-132184250D01*
X279595750Y-132204250D01*
X279615750Y-132204250D01*
X279615750Y-132391250D01*
X279595750Y-132411250D01*
X279595750Y-133363750D01*
X279615750Y-133383750D01*
X279615750Y-133503750D01*
X279595750Y-133523750D01*
X279595750Y-134476250D01*
X279615750Y-134496250D01*
X279615750Y-134616250D01*
X279595750Y-134636250D01*
X279595750Y-135588750D01*
X279615750Y-135608750D01*
X279615750Y-135795750D01*
X279595750Y-135795750D01*
X279595750Y-135815750D01*
X279408750Y-135815750D01*
X279388750Y-135795750D01*
X278436250Y-135795750D01*
X278416250Y-135815750D01*
X278296250Y-135815750D01*
X278276250Y-135795750D01*
X277323750Y-135795750D01*
X277303750Y-135815750D01*
X277183750Y-135815750D01*
X277163750Y-135795750D01*
X276211250Y-135795750D01*
X276191250Y-135815750D01*
X276004250Y-135815750D01*
X276004250Y-135795750D01*
X275984250Y-135795750D01*
X275984250Y-135608750D01*
X276004250Y-135588750D01*
X276004250Y-134636250D01*
X275984250Y-134616250D01*
X275984250Y-134496250D01*
X276004250Y-134476250D01*
X276004250Y-133523750D01*
X275984250Y-133503750D01*
X275984250Y-133383750D01*
X276004250Y-133363750D01*
X276004250Y-132617000D01*
X276052500Y-132617000D01*
X276052500Y-133158000D01*
X276211250Y-133316750D01*
X276218725Y-133316750D01*
X276258250Y-133356276D01*
X276258250Y-133363750D01*
X276338250Y-133443750D01*
X276258250Y-133523750D01*
X276258250Y-133531224D01*
X276218725Y-133570750D01*
X276211250Y-133570750D01*
X276052500Y-133729500D01*
X276052500Y-134270500D01*
X276211250Y-134429250D01*
X276218725Y-134429250D01*
X276258250Y-134468776D01*
X276258250Y-134476250D01*
X276338250Y-134556250D01*
X276258250Y-134636250D01*
X276258250Y-134643724D01*
X276218725Y-134683250D01*
X276211250Y-134683250D01*
X276052500Y-134842000D01*
X276052500Y-135383000D01*
X276211250Y-135541750D01*
X276218725Y-135541750D01*
X276258250Y-135581276D01*
X276258250Y-135588750D01*
X276417000Y-135747500D01*
X276958000Y-135747500D01*
X277116750Y-135588750D01*
X277116750Y-135581276D01*
X277156275Y-135541750D01*
X277163750Y-135541750D01*
X277243750Y-135461750D01*
X277323750Y-135541750D01*
X277331225Y-135541750D01*
X277370750Y-135581276D01*
X277370750Y-135588750D01*
X277529500Y-135747500D01*
X278070500Y-135747500D01*
X278229250Y-135588750D01*
X278229250Y-135581276D01*
X278268775Y-135541750D01*
X278276250Y-135541750D01*
X278356250Y-135461750D01*
X278436250Y-135541750D01*
X278443725Y-135541750D01*
X278483250Y-135581276D01*
X278483250Y-135588750D01*
X278642000Y-135747500D01*
X279183000Y-135747500D01*
X279341750Y-135588750D01*
X279341750Y-135581276D01*
X279381275Y-135541750D01*
X279388750Y-135541750D01*
X279547500Y-135383000D01*
X279547500Y-134842000D01*
X279388750Y-134683250D01*
X279381275Y-134683250D01*
X279341750Y-134643724D01*
X279341750Y-134636250D01*
X279261750Y-134556250D01*
X279341750Y-134476250D01*
X279341750Y-134468776D01*
X279381275Y-134429250D01*
X279388750Y-134429250D01*
X279547500Y-134270500D01*
X279547500Y-133729500D01*
X279388750Y-133570750D01*
X279381275Y-133570750D01*
X279341750Y-133531224D01*
X279341750Y-133523750D01*
X279261750Y-133443750D01*
X279341750Y-133363750D01*
X279341750Y-133356276D01*
X279381275Y-133316750D01*
X279388750Y-133316750D01*
X279547500Y-133158000D01*
X279547500Y-132617000D01*
X279388750Y-132458250D01*
X279381275Y-132458250D01*
X279341750Y-132418724D01*
X279341750Y-132411250D01*
X279183000Y-132252500D01*
X278642000Y-132252500D01*
X278483250Y-132411250D01*
X278483250Y-132418724D01*
X278443725Y-132458250D01*
X278436250Y-132458250D01*
X278356250Y-132538250D01*
X278276250Y-132458250D01*
X278268775Y-132458250D01*
X278229250Y-132418724D01*
X278229250Y-132411250D01*
X278070500Y-132252500D01*
X277529500Y-132252500D01*
X277370750Y-132411250D01*
X277370750Y-132418724D01*
X277331225Y-132458250D01*
X277323750Y-132458250D01*
X277243750Y-132538250D01*
X277163750Y-132458250D01*
X277156275Y-132458250D01*
X277116750Y-132418724D01*
X277116750Y-132411250D01*
X276958000Y-132252500D01*
X276417000Y-132252500D01*
X276258250Y-132411250D01*
X276258250Y-132418724D01*
X276218725Y-132458250D01*
X276211250Y-132458250D01*
X276052500Y-132617000D01*
X276004250Y-132617000D01*
X276004250Y-132411250D01*
X275984250Y-132391250D01*
X275984250Y-132204250D01*
X276004250Y-132204250D01*
X276004250Y-132184250D01*
X276191250Y-132184250D01*
X276211250Y-132204250D01*
X276211250Y-132204250D01*
G37*
X276211250Y-132204250D02*
X277163750Y-132204250D01*
X277183750Y-132184250D01*
X277303750Y-132184250D01*
X277323750Y-132204250D01*
X278276250Y-132204250D01*
X278296250Y-132184250D01*
X278416250Y-132184250D01*
X278436250Y-132204250D01*
X279388750Y-132204250D01*
X279408750Y-132184250D01*
X279595750Y-132184250D01*
X279595750Y-132204250D01*
X279615750Y-132204250D01*
X279615750Y-132391250D01*
X279595750Y-132411250D01*
X279595750Y-133363750D01*
X279615750Y-133383750D01*
X279615750Y-133503750D01*
X279595750Y-133523750D01*
X279595750Y-134476250D01*
X279615750Y-134496250D01*
X279615750Y-134616250D01*
X279595750Y-134636250D01*
X279595750Y-135588750D01*
X279615750Y-135608750D01*
X279615750Y-135795750D01*
X279595750Y-135795750D01*
X279595750Y-135815750D01*
X279408750Y-135815750D01*
X279388750Y-135795750D01*
X278436250Y-135795750D01*
X278416250Y-135815750D01*
X278296250Y-135815750D01*
X278276250Y-135795750D01*
X277323750Y-135795750D01*
X277303750Y-135815750D01*
X277183750Y-135815750D01*
X277163750Y-135795750D01*
X276211250Y-135795750D01*
X276191250Y-135815750D01*
X276004250Y-135815750D01*
X276004250Y-135795750D01*
X275984250Y-135795750D01*
X275984250Y-135608750D01*
X276004250Y-135588750D01*
X276004250Y-134636250D01*
X275984250Y-134616250D01*
X275984250Y-134496250D01*
X276004250Y-134476250D01*
X276004250Y-133523750D01*
X275984250Y-133503750D01*
X275984250Y-133383750D01*
X276004250Y-133363750D01*
X276004250Y-132617000D01*
X276052500Y-132617000D01*
X276052500Y-133158000D01*
X276211250Y-133316750D01*
X276218725Y-133316750D01*
X276258250Y-133356276D01*
X276258250Y-133363750D01*
X276338250Y-133443750D01*
X276258250Y-133523750D01*
X276258250Y-133531224D01*
X276218725Y-133570750D01*
X276211250Y-133570750D01*
X276052500Y-133729500D01*
X276052500Y-134270500D01*
X276211250Y-134429250D01*
X276218725Y-134429250D01*
X276258250Y-134468776D01*
X276258250Y-134476250D01*
X276338250Y-134556250D01*
X276258250Y-134636250D01*
X276258250Y-134643724D01*
X276218725Y-134683250D01*
X276211250Y-134683250D01*
X276052500Y-134842000D01*
X276052500Y-135383000D01*
X276211250Y-135541750D01*
X276218725Y-135541750D01*
X276258250Y-135581276D01*
X276258250Y-135588750D01*
X276417000Y-135747500D01*
X276958000Y-135747500D01*
X277116750Y-135588750D01*
X277116750Y-135581276D01*
X277156275Y-135541750D01*
X277163750Y-135541750D01*
X277243750Y-135461750D01*
X277323750Y-135541750D01*
X277331225Y-135541750D01*
X277370750Y-135581276D01*
X277370750Y-135588750D01*
X277529500Y-135747500D01*
X278070500Y-135747500D01*
X278229250Y-135588750D01*
X278229250Y-135581276D01*
X278268775Y-135541750D01*
X278276250Y-135541750D01*
X278356250Y-135461750D01*
X278436250Y-135541750D01*
X278443725Y-135541750D01*
X278483250Y-135581276D01*
X278483250Y-135588750D01*
X278642000Y-135747500D01*
X279183000Y-135747500D01*
X279341750Y-135588750D01*
X279341750Y-135581276D01*
X279381275Y-135541750D01*
X279388750Y-135541750D01*
X279547500Y-135383000D01*
X279547500Y-134842000D01*
X279388750Y-134683250D01*
X279381275Y-134683250D01*
X279341750Y-134643724D01*
X279341750Y-134636250D01*
X279261750Y-134556250D01*
X279341750Y-134476250D01*
X279341750Y-134468776D01*
X279381275Y-134429250D01*
X279388750Y-134429250D01*
X279547500Y-134270500D01*
X279547500Y-133729500D01*
X279388750Y-133570750D01*
X279381275Y-133570750D01*
X279341750Y-133531224D01*
X279341750Y-133523750D01*
X279261750Y-133443750D01*
X279341750Y-133363750D01*
X279341750Y-133356276D01*
X279381275Y-133316750D01*
X279388750Y-133316750D01*
X279547500Y-133158000D01*
X279547500Y-132617000D01*
X279388750Y-132458250D01*
X279381275Y-132458250D01*
X279341750Y-132418724D01*
X279341750Y-132411250D01*
X279183000Y-132252500D01*
X278642000Y-132252500D01*
X278483250Y-132411250D01*
X278483250Y-132418724D01*
X278443725Y-132458250D01*
X278436250Y-132458250D01*
X278356250Y-132538250D01*
X278276250Y-132458250D01*
X278268775Y-132458250D01*
X278229250Y-132418724D01*
X278229250Y-132411250D01*
X278070500Y-132252500D01*
X277529500Y-132252500D01*
X277370750Y-132411250D01*
X277370750Y-132418724D01*
X277331225Y-132458250D01*
X277323750Y-132458250D01*
X277243750Y-132538250D01*
X277163750Y-132458250D01*
X277156275Y-132458250D01*
X277116750Y-132418724D01*
X277116750Y-132411250D01*
X276958000Y-132252500D01*
X276417000Y-132252500D01*
X276258250Y-132411250D01*
X276258250Y-132418724D01*
X276218725Y-132458250D01*
X276211250Y-132458250D01*
X276052500Y-132617000D01*
X276004250Y-132617000D01*
X276004250Y-132411250D01*
X275984250Y-132391250D01*
X275984250Y-132204250D01*
X276004250Y-132204250D01*
X276004250Y-132184250D01*
X276191250Y-132184250D01*
X276211250Y-132204250D01*
G36*
X278436250Y-134429250D02*
X278443725Y-134429250D01*
X278483250Y-134468776D01*
X278483250Y-134476250D01*
X278563250Y-134556250D01*
X278483250Y-134636250D01*
X278483250Y-134643724D01*
X278443725Y-134683250D01*
X278436250Y-134683250D01*
X278356250Y-134763250D01*
X278276250Y-134683250D01*
X278268775Y-134683250D01*
X278229250Y-134643724D01*
X278229250Y-134636250D01*
X278149250Y-134556250D01*
X278229250Y-134476250D01*
X278229250Y-134468776D01*
X278268775Y-134429250D01*
X278276250Y-134429250D01*
X278356250Y-134349250D01*
X278436250Y-134429250D01*
X278436250Y-134429250D01*
G37*
X278436250Y-134429250D02*
X278443725Y-134429250D01*
X278483250Y-134468776D01*
X278483250Y-134476250D01*
X278563250Y-134556250D01*
X278483250Y-134636250D01*
X278483250Y-134643724D01*
X278443725Y-134683250D01*
X278436250Y-134683250D01*
X278356250Y-134763250D01*
X278276250Y-134683250D01*
X278268775Y-134683250D01*
X278229250Y-134643724D01*
X278229250Y-134636250D01*
X278149250Y-134556250D01*
X278229250Y-134476250D01*
X278229250Y-134468776D01*
X278268775Y-134429250D01*
X278276250Y-134429250D01*
X278356250Y-134349250D01*
X278436250Y-134429250D01*
G36*
X277323750Y-134429250D02*
X277331225Y-134429250D01*
X277370750Y-134468776D01*
X277370750Y-134476250D01*
X277450750Y-134556250D01*
X277370750Y-134636250D01*
X277370750Y-134643724D01*
X277331225Y-134683250D01*
X277323750Y-134683250D01*
X277243750Y-134763250D01*
X277163750Y-134683250D01*
X277156275Y-134683250D01*
X277116750Y-134643724D01*
X277116750Y-134636250D01*
X277036750Y-134556250D01*
X277116750Y-134476250D01*
X277116750Y-134468776D01*
X277156275Y-134429250D01*
X277163750Y-134429250D01*
X277243750Y-134349250D01*
X277323750Y-134429250D01*
X277323750Y-134429250D01*
G37*
X277323750Y-134429250D02*
X277331225Y-134429250D01*
X277370750Y-134468776D01*
X277370750Y-134476250D01*
X277450750Y-134556250D01*
X277370750Y-134636250D01*
X277370750Y-134643724D01*
X277331225Y-134683250D01*
X277323750Y-134683250D01*
X277243750Y-134763250D01*
X277163750Y-134683250D01*
X277156275Y-134683250D01*
X277116750Y-134643724D01*
X277116750Y-134636250D01*
X277036750Y-134556250D01*
X277116750Y-134476250D01*
X277116750Y-134468776D01*
X277156275Y-134429250D01*
X277163750Y-134429250D01*
X277243750Y-134349250D01*
X277323750Y-134429250D01*
G36*
X277323750Y-133316750D02*
X277331225Y-133316750D01*
X277370750Y-133356276D01*
X277370750Y-133363750D01*
X277450750Y-133443750D01*
X277370750Y-133523750D01*
X277370750Y-133531224D01*
X277331225Y-133570750D01*
X277323750Y-133570750D01*
X277243750Y-133650750D01*
X277163750Y-133570750D01*
X277156275Y-133570750D01*
X277116750Y-133531224D01*
X277116750Y-133523750D01*
X277036750Y-133443750D01*
X277116750Y-133363750D01*
X277116750Y-133356276D01*
X277156275Y-133316750D01*
X277163750Y-133316750D01*
X277243750Y-133236750D01*
X277323750Y-133316750D01*
X277323750Y-133316750D01*
G37*
X277323750Y-133316750D02*
X277331225Y-133316750D01*
X277370750Y-133356276D01*
X277370750Y-133363750D01*
X277450750Y-133443750D01*
X277370750Y-133523750D01*
X277370750Y-133531224D01*
X277331225Y-133570750D01*
X277323750Y-133570750D01*
X277243750Y-133650750D01*
X277163750Y-133570750D01*
X277156275Y-133570750D01*
X277116750Y-133531224D01*
X277116750Y-133523750D01*
X277036750Y-133443750D01*
X277116750Y-133363750D01*
X277116750Y-133356276D01*
X277156275Y-133316750D01*
X277163750Y-133316750D01*
X277243750Y-133236750D01*
X277323750Y-133316750D01*
G36*
X278436250Y-133316750D02*
X278443725Y-133316750D01*
X278483250Y-133356276D01*
X278483250Y-133363750D01*
X278563250Y-133443750D01*
X278483250Y-133523750D01*
X278483250Y-133531224D01*
X278443725Y-133570750D01*
X278436250Y-133570750D01*
X278356250Y-133650750D01*
X278276250Y-133570750D01*
X278268775Y-133570750D01*
X278229250Y-133531224D01*
X278229250Y-133523750D01*
X278149250Y-133443750D01*
X278229250Y-133363750D01*
X278229250Y-133356276D01*
X278268775Y-133316750D01*
X278276250Y-133316750D01*
X278356250Y-133236750D01*
X278436250Y-133316750D01*
X278436250Y-133316750D01*
G37*
X278436250Y-133316750D02*
X278443725Y-133316750D01*
X278483250Y-133356276D01*
X278483250Y-133363750D01*
X278563250Y-133443750D01*
X278483250Y-133523750D01*
X278483250Y-133531224D01*
X278443725Y-133570750D01*
X278436250Y-133570750D01*
X278356250Y-133650750D01*
X278276250Y-133570750D01*
X278268775Y-133570750D01*
X278229250Y-133531224D01*
X278229250Y-133523750D01*
X278149250Y-133443750D01*
X278229250Y-133363750D01*
X278229250Y-133356276D01*
X278268775Y-133316750D01*
X278276250Y-133316750D01*
X278356250Y-133236750D01*
X278436250Y-133316750D01*
G36*
X272900280Y-134497250D02*
X273347000Y-134497250D01*
X273347000Y-134649275D01*
X273327000Y-134649275D01*
X273327000Y-134696580D01*
X273073000Y-134696580D01*
X273073000Y-134649275D01*
X272424030Y-134649275D01*
X272346305Y-134727000D01*
X272327000Y-134727000D01*
X272327000Y-134746305D01*
X272326305Y-134747000D01*
X272073000Y-134747000D01*
X272073000Y-134727000D01*
X272053000Y-134727000D01*
X272053000Y-134722587D01*
X272146878Y-134582088D01*
X272153770Y-134547440D01*
X272650000Y-134547440D01*
X272885317Y-134503162D01*
X272895887Y-134496360D01*
X272900280Y-134497250D01*
X272900280Y-134497250D01*
G37*
X272900280Y-134497250D02*
X273347000Y-134497250D01*
X273347000Y-134649275D01*
X273327000Y-134649275D01*
X273327000Y-134696580D01*
X273073000Y-134696580D01*
X273073000Y-134649275D01*
X272424030Y-134649275D01*
X272346305Y-134727000D01*
X272327000Y-134727000D01*
X272327000Y-134746305D01*
X272326305Y-134747000D01*
X272073000Y-134747000D01*
X272073000Y-134727000D01*
X272053000Y-134727000D01*
X272053000Y-134722587D01*
X272146878Y-134582088D01*
X272153770Y-134547440D01*
X272650000Y-134547440D01*
X272885317Y-134503162D01*
X272895887Y-134496360D01*
X272900280Y-134497250D01*
G36*
X288397000Y-131327000D02*
X288103000Y-131327000D01*
X288103000Y-131073000D01*
X288397000Y-131073000D01*
X288397000Y-131327000D01*
X288397000Y-131327000D01*
G37*
X288397000Y-131327000D02*
X288103000Y-131327000D01*
X288103000Y-131073000D01*
X288397000Y-131073000D01*
X288397000Y-131327000D01*
G36*
X273202750Y-129749720D02*
X273247028Y-129985037D01*
X273250115Y-129989834D01*
X273250115Y-130225970D01*
X273400422Y-130376277D01*
X272677000Y-131110941D01*
X272677000Y-130323532D01*
X272824721Y-130384720D01*
X272891975Y-130384720D01*
X273050725Y-130225970D01*
X273050725Y-129577000D01*
X273003420Y-129577000D01*
X273003420Y-129323000D01*
X273050725Y-129323000D01*
X273050725Y-129303000D01*
X273202750Y-129303000D01*
X273202750Y-129749720D01*
X273202750Y-129749720D01*
G37*
X273202750Y-129749720D02*
X273247028Y-129985037D01*
X273250115Y-129989834D01*
X273250115Y-130225970D01*
X273400422Y-130376277D01*
X272677000Y-131110941D01*
X272677000Y-130323532D01*
X272824721Y-130384720D01*
X272891975Y-130384720D01*
X273050725Y-130225970D01*
X273050725Y-129577000D01*
X273003420Y-129577000D01*
X273003420Y-129323000D01*
X273050725Y-129323000D01*
X273050725Y-129303000D01*
X273202750Y-129303000D01*
X273202750Y-129749720D01*
M02*
