M48
;DRILL file {KiCad 4.0.4-stable} date 03/15/17 00:52:13
;FORMAT={-:-/ absolute / inch / decimal}
FMAT,2
INCH,TZ
T1C0.013
T2C0.039
T3C0.040
%
G90
G05
M72
T1
X11.126Y-5.5335
X11.5591Y-5.4429
X11.561Y-5.6083
X11.7224Y-5.6063
X11.7687Y-4.8593
X11.9154Y-5.0984
X11.9242Y-5.065
X12.1122Y-5.1299
T2
X10.9921Y-5.5748
X12.187Y-5.5728
X12.3898Y-5.6831
T3
X10.9921Y-5.0303
X10.9921Y-5.1303
X10.9921Y-5.2303
X10.9921Y-5.3303
X10.9921Y-5.4303
X10.9961Y-4.7787
X10.9961Y-4.8787
X11.3398Y-5.7126
X11.4272Y-4.761
X11.4272Y-4.861
X11.4398Y-5.7126
X12.3406Y-5.1012
X12.3406Y-5.2012
X12.3406Y-5.3012
X12.3406Y-5.4012
X12.3406Y-5.5012
T0
M30
