G04 #@! TF.FileFunction,Copper,L1,Top,Signal*
%FSLAX46Y46*%
G04 Gerber Fmt 4.6, Leading zero omitted, Abs format (unit mm)*
G04 Created by KiCad (PCBNEW 4.0.4-stable) date 03/15/17 00:52:14*
%MOMM*%
%LPD*%
G01*
G04 APERTURE LIST*
%ADD10C,0.150000*%
%ADD11R,1.700000X1.700000*%
%ADD12R,1.524000X1.524000*%
%ADD13C,1.524000*%
%ADD14R,1.143000X0.635000*%
%ADD15R,0.398780X0.599440*%
%ADD16R,1.500000X0.300000*%
%ADD17R,0.300000X1.500000*%
%ADD18R,0.400000X0.650000*%
%ADD19R,0.599440X0.398780*%
%ADD20R,0.635000X1.143000*%
%ADD21R,0.400000X0.600000*%
%ADD22C,0.508000*%
%ADD23C,0.152000*%
%ADD24C,0.457200*%
%ADD25C,0.254000*%
G04 APERTURE END LIST*
D10*
D11*
X314700000Y-144350000D03*
D12*
X290570000Y-145100000D03*
D13*
X288030000Y-145100000D03*
D12*
X290250000Y-123470000D03*
D13*
X290250000Y-120930000D03*
D11*
X279200000Y-141600000D03*
D12*
X279200000Y-127770000D03*
D13*
X279200000Y-130310000D03*
X279200000Y-132850000D03*
X279200000Y-135390000D03*
X279200000Y-137930000D03*
D12*
X279300000Y-121380000D03*
D13*
X279300000Y-123920000D03*
D14*
X294350000Y-125862000D03*
X294350000Y-124338000D03*
D15*
X294350420Y-145050000D03*
X295249580Y-145050000D03*
D16*
X303400000Y-139000000D03*
X303400000Y-138500000D03*
X303400000Y-138000000D03*
X303400000Y-137500000D03*
X303400000Y-137000000D03*
X303400000Y-136500000D03*
X303400000Y-136000000D03*
X303400000Y-135500000D03*
X303400000Y-135000000D03*
X303400000Y-134500000D03*
X303400000Y-134000000D03*
X303400000Y-133500000D03*
X303400000Y-133000000D03*
X303400000Y-132500000D03*
X303400000Y-132000000D03*
X303400000Y-131500000D03*
D17*
X301450000Y-129550000D03*
X300950000Y-129550000D03*
X300450000Y-129550000D03*
X299950000Y-129550000D03*
X299450000Y-129550000D03*
X298950000Y-129550000D03*
X298450000Y-129550000D03*
X297950000Y-129550000D03*
X297450000Y-129550000D03*
X296950000Y-129550000D03*
X296450000Y-129550000D03*
X295950000Y-129550000D03*
X295450000Y-129550000D03*
X294950000Y-129550000D03*
X294450000Y-129550000D03*
X293950000Y-129550000D03*
D16*
X292000000Y-131500000D03*
X292000000Y-132000000D03*
X292000000Y-132500000D03*
X292000000Y-133000000D03*
X292000000Y-133500000D03*
X292000000Y-134000000D03*
X292000000Y-134500000D03*
X292000000Y-135000000D03*
X292000000Y-135500000D03*
X292000000Y-136000000D03*
X292000000Y-136500000D03*
X292000000Y-137000000D03*
X292000000Y-137500000D03*
X292000000Y-138000000D03*
X292000000Y-138500000D03*
X292000000Y-139000000D03*
D17*
X293950000Y-140950000D03*
X294450000Y-140950000D03*
X294950000Y-140950000D03*
X295450000Y-140950000D03*
X295950000Y-140950000D03*
X296450000Y-140950000D03*
X296950000Y-140950000D03*
X297450000Y-140950000D03*
X297950000Y-140950000D03*
X298450000Y-140950000D03*
X298950000Y-140950000D03*
X299450000Y-140950000D03*
X299950000Y-140950000D03*
X300450000Y-140950000D03*
X300950000Y-140950000D03*
X301450000Y-140950000D03*
D18*
X283800000Y-124075000D03*
X285100000Y-124075000D03*
X284450000Y-122175000D03*
X284450000Y-124075000D03*
X285100000Y-122175000D03*
X283800000Y-122175000D03*
D19*
X296650000Y-125299580D03*
X296650000Y-124400420D03*
X302250000Y-126000420D03*
X302250000Y-126899580D03*
X303250000Y-126000420D03*
X303250000Y-126899580D03*
X289100000Y-141550420D03*
X289100000Y-142449580D03*
D15*
X294350420Y-143850000D03*
X295249580Y-143850000D03*
X308850420Y-131300000D03*
X309749580Y-131300000D03*
D19*
X290500000Y-142449580D03*
X290500000Y-141550420D03*
D15*
X296700420Y-145500000D03*
X297599580Y-145500000D03*
X296700420Y-144100000D03*
X297599580Y-144100000D03*
X300149580Y-145700000D03*
X299250420Y-145700000D03*
D19*
X291300000Y-127849580D03*
X291300000Y-126950420D03*
D15*
X300149580Y-144400000D03*
X299250420Y-144400000D03*
D19*
X300500000Y-124800420D03*
X300500000Y-125699580D03*
X305000000Y-128700420D03*
X305000000Y-129599580D03*
X303800000Y-128700420D03*
X303800000Y-129599580D03*
D14*
X298900000Y-124438000D03*
X298900000Y-125962000D03*
D20*
X284037000Y-141925000D03*
X282513000Y-141925000D03*
X285412000Y-120525000D03*
X283888000Y-120525000D03*
D19*
X286050000Y-122575420D03*
X286050000Y-123474580D03*
D15*
X283800420Y-125175000D03*
X284699580Y-125175000D03*
D19*
X284975000Y-143975420D03*
X284975000Y-144874580D03*
D15*
X282625420Y-146725000D03*
X283524580Y-146725000D03*
D19*
X307725000Y-144649580D03*
X307725000Y-143750420D03*
X308825000Y-144649580D03*
X308825000Y-143750420D03*
D15*
X308750420Y-132800000D03*
X309649580Y-132800000D03*
X308750420Y-134300000D03*
X309649580Y-134300000D03*
X308650420Y-135800000D03*
X309549580Y-135800000D03*
X308700420Y-137500000D03*
X309599580Y-137500000D03*
D18*
X282425000Y-145475000D03*
X283725000Y-145475000D03*
X283075000Y-143575000D03*
X283075000Y-145475000D03*
X283725000Y-143575000D03*
X282425000Y-143575000D03*
D12*
X313450000Y-129570000D03*
D13*
X313450000Y-132110000D03*
X313450000Y-134650000D03*
X313450000Y-137190000D03*
X313450000Y-139730000D03*
D11*
X309550000Y-141550000D03*
D21*
X306950000Y-141550000D03*
X307850000Y-141550000D03*
D22*
X302875000Y-128650000D03*
X298925000Y-123425000D03*
X297750000Y-142400000D03*
X293600000Y-138250000D03*
X293650000Y-142450000D03*
X307650000Y-130300000D03*
X302650000Y-129500000D03*
X282600000Y-140550000D03*
D23*
X292000000Y-135000000D02*
X279590000Y-135000000D01*
X279590000Y-135000000D02*
X279200000Y-135390000D01*
X292000000Y-134500000D02*
X280850000Y-134500000D01*
X280850000Y-134500000D02*
X279200000Y-132850000D01*
X292000000Y-138500000D02*
X282300000Y-138500000D01*
X282300000Y-138500000D02*
X279200000Y-141600000D01*
X298900000Y-124438000D02*
X298900000Y-123450000D01*
X302925420Y-128700420D02*
X303800000Y-128700420D01*
X302875000Y-128650000D02*
X302925420Y-128700420D01*
X298900000Y-123450000D02*
X298925000Y-123425000D01*
D24*
X300500000Y-124800420D02*
X301050000Y-124800420D01*
X301050000Y-124800420D02*
X302250000Y-126000420D01*
X298900000Y-124438000D02*
X300137580Y-124438000D01*
X300137580Y-124438000D02*
X300500000Y-124800420D01*
X296650000Y-124400420D02*
X298862420Y-124400420D01*
X298862420Y-124400420D02*
X298900000Y-124438000D01*
X294350000Y-124338000D02*
X296587580Y-124338000D01*
X296587580Y-124338000D02*
X296650000Y-124400420D01*
X291300000Y-126950420D02*
X291300000Y-125925000D01*
X293618500Y-123606500D02*
X293618500Y-123470000D01*
X291300000Y-125925000D02*
X293618500Y-123606500D01*
X290250000Y-123470000D02*
X293618500Y-123470000D01*
X293618500Y-123470000D02*
X293482000Y-123470000D01*
X293482000Y-123470000D02*
X294350000Y-124338000D01*
D23*
X297950000Y-140950000D02*
X297950000Y-142200000D01*
X297950000Y-142200000D02*
X297750000Y-142400000D01*
X294600000Y-142449580D02*
X295475420Y-142449580D01*
X295950000Y-141975000D02*
X295950000Y-140950000D01*
X295475420Y-142449580D02*
X295950000Y-141975000D01*
X294350420Y-143850000D02*
X294350420Y-143150420D01*
X294350420Y-143150420D02*
X293650000Y-142450000D01*
X299250420Y-145700000D02*
X299250420Y-144400000D01*
X299250420Y-145700000D02*
X297799580Y-145700000D01*
X297799580Y-145700000D02*
X297599580Y-145500000D01*
X298450000Y-140950000D02*
X298450000Y-143599580D01*
X298450000Y-143599580D02*
X299250420Y-144400000D01*
X299950000Y-129550000D02*
X299950000Y-131650000D01*
X299950000Y-131650000D02*
X299900000Y-131700000D01*
X298450000Y-129550000D02*
X298450000Y-131400000D01*
X298450000Y-131400000D02*
X298550000Y-131500000D01*
X297450000Y-129550000D02*
X297450000Y-131350000D01*
X297450000Y-131350000D02*
X297650000Y-131550000D01*
X294400000Y-129550000D02*
X294400000Y-131500000D01*
X294400000Y-131500000D02*
X294800000Y-131900000D01*
D24*
X290570000Y-145100000D02*
X290570000Y-145280000D01*
X290570000Y-145280000D02*
X289200000Y-146650000D01*
X284975000Y-145075000D02*
X284975000Y-144874580D01*
X286550000Y-146650000D02*
X284975000Y-145075000D01*
X289200000Y-146650000D02*
X286550000Y-146650000D01*
D23*
X297950000Y-140950000D02*
X298450000Y-140950000D01*
X297599580Y-144100000D02*
X297599580Y-145500000D01*
X294350420Y-145050000D02*
X294350420Y-143850000D01*
X292000000Y-138000000D02*
X293350000Y-138000000D01*
X293350000Y-138000000D02*
X293600000Y-138250000D01*
X293650000Y-142450000D02*
X293650000Y-142449580D01*
X293650000Y-142449580D02*
X293650000Y-142450000D01*
X293650000Y-142450000D02*
X293650000Y-142449580D01*
X292000000Y-137000000D02*
X293000000Y-137000000D01*
X293200000Y-136800000D02*
X293200000Y-135150000D01*
X293000000Y-137000000D02*
X293200000Y-136800000D01*
X292000000Y-137000000D02*
X292000000Y-137500000D01*
X292000000Y-137500000D02*
X292000000Y-138000000D01*
X292000000Y-136000000D02*
X292000000Y-135500000D01*
X293050000Y-134000000D02*
X293050000Y-134050000D01*
X293050000Y-134050000D02*
X293200000Y-134200000D01*
X293200000Y-134200000D02*
X293200000Y-135150000D01*
X293150000Y-135500000D02*
X292000000Y-135500000D01*
X293200000Y-135150000D02*
X293200000Y-135450000D01*
X293200000Y-135450000D02*
X293150000Y-135500000D01*
X292000000Y-131500000D02*
X293150000Y-131500000D01*
X293050000Y-134000000D02*
X292000000Y-134000000D01*
X293200000Y-133850000D02*
X293050000Y-134000000D01*
X293200000Y-131550000D02*
X293200000Y-133850000D01*
X293150000Y-131500000D02*
X293200000Y-131550000D01*
X293950000Y-129550000D02*
X294450000Y-129550000D01*
X303800000Y-128700420D02*
X305000000Y-128700420D01*
X303250000Y-126000420D02*
X302250000Y-126000420D01*
X292450000Y-142449580D02*
X293650000Y-142449580D01*
X293650000Y-142449580D02*
X294600000Y-142449580D01*
X294600000Y-142449580D02*
X294600420Y-142449580D01*
X294950000Y-142100000D02*
X294950000Y-140950000D01*
X294600420Y-142449580D02*
X294950000Y-142100000D01*
X290500000Y-142449580D02*
X292450000Y-142449580D01*
X292450000Y-142449580D02*
X292450420Y-142449580D01*
X292450420Y-142449580D02*
X293950000Y-140950000D01*
D24*
X286050000Y-123474580D02*
X290245420Y-123474580D01*
X290245420Y-123474580D02*
X290250000Y-123470000D01*
D23*
X289100000Y-142449580D02*
X290500000Y-142449580D01*
X286050000Y-123474580D02*
X285700420Y-123474580D01*
D24*
X284975000Y-144874580D02*
X284325420Y-144874580D01*
D23*
X284754580Y-125230000D02*
X284699580Y-125175000D01*
X285700420Y-123474580D02*
X285100000Y-124075000D01*
X284699580Y-125175000D02*
X284699580Y-125204580D01*
D24*
X284325420Y-144874580D02*
X283725000Y-145475000D01*
X283725000Y-145475000D02*
X283725000Y-146524580D01*
D23*
X283725000Y-146524580D02*
X283524580Y-146725000D01*
X284699580Y-125175000D02*
X284700000Y-125175000D01*
D24*
X289100000Y-141550420D02*
X287999580Y-141550420D01*
X286900000Y-143975420D02*
X286905420Y-143975420D01*
X286900000Y-142650000D02*
X286900000Y-143975420D01*
X287999580Y-141550420D02*
X286900000Y-142650000D01*
X284975000Y-143975420D02*
X286905420Y-143975420D01*
X286905420Y-143975420D02*
X288030000Y-145100000D01*
D23*
X289100000Y-141550420D02*
X290500000Y-141550420D01*
X290500000Y-141550420D02*
X290500000Y-140500000D01*
X290500000Y-140500000D02*
X292000000Y-139000000D01*
X295450000Y-140950000D02*
X295450000Y-140050000D01*
X295200000Y-139800000D02*
X294200000Y-139800000D01*
X295450000Y-140050000D02*
X295200000Y-139800000D01*
X292000000Y-139000000D02*
X293400000Y-139000000D01*
X294450000Y-140050000D02*
X294450000Y-140950000D01*
X293400000Y-139000000D02*
X294200000Y-139800000D01*
X294200000Y-139800000D02*
X294450000Y-140050000D01*
D24*
X284975000Y-143975420D02*
X284125420Y-143975420D01*
X284125420Y-143975420D02*
X283725000Y-143575000D01*
X283075000Y-145475000D02*
X283075000Y-144725000D01*
X283075000Y-144725000D02*
X283350000Y-144450000D01*
D23*
X283350000Y-144450000D02*
X283300000Y-144500000D01*
D24*
X283300000Y-144500000D02*
X283725000Y-144075000D01*
X283725000Y-144075000D02*
X283725000Y-143575000D01*
D23*
X296450000Y-140950000D02*
X296450000Y-139950000D01*
X296700000Y-139700000D02*
X297950000Y-139700000D01*
X296450000Y-139950000D02*
X296700000Y-139700000D01*
X301050000Y-130750000D02*
X301050000Y-134750000D01*
X302300000Y-136000000D02*
X303400000Y-136000000D01*
X301050000Y-134750000D02*
X302300000Y-136000000D01*
D24*
X290250000Y-120930000D02*
X299980000Y-120930000D01*
X305150420Y-126899580D02*
X303250000Y-126899580D01*
X305200000Y-126850000D02*
X305150420Y-126899580D01*
X305200000Y-126150000D02*
X305200000Y-126850000D01*
X299980000Y-120930000D02*
X305200000Y-126150000D01*
D23*
X300450000Y-129550000D02*
X300450000Y-127100000D01*
X300450000Y-127100000D02*
X300650420Y-126899580D01*
X298950000Y-140950000D02*
X298950000Y-142750000D01*
X300149580Y-143949580D02*
X300149580Y-144400000D01*
X298950000Y-142750000D02*
X300149580Y-143949580D01*
X300149580Y-145700000D02*
X300149580Y-144650420D01*
X300149580Y-144650420D02*
X300350000Y-144450000D01*
X300150000Y-144399580D02*
X300149580Y-144400000D01*
X297450000Y-140950000D02*
X297450000Y-140200000D01*
X297450000Y-140200000D02*
X297950000Y-139700000D01*
X297950000Y-139700000D02*
X298950000Y-139700000D01*
X295249580Y-143850000D02*
X295249580Y-143550420D01*
X295249580Y-143550420D02*
X296450000Y-142350000D01*
X296450000Y-142350000D02*
X296450000Y-140950000D01*
X295249580Y-145050000D02*
X295249580Y-143850000D01*
X298950000Y-140950000D02*
X298950000Y-139700000D01*
X298950000Y-139700000D02*
X298950000Y-139650000D01*
X299600000Y-139000000D02*
X303400000Y-139000000D01*
X298950000Y-139650000D02*
X299600000Y-139000000D01*
X303400000Y-139000000D02*
X303400000Y-138500000D01*
X303400000Y-138500000D02*
X303400000Y-138000000D01*
X303400000Y-138000000D02*
X303400000Y-137500000D01*
X303400000Y-137500000D02*
X303400000Y-137000000D01*
X303400000Y-137000000D02*
X303400000Y-136500000D01*
X303400000Y-136500000D02*
X303400000Y-136000000D01*
X303400000Y-136000000D02*
X303400000Y-135500000D01*
X300450000Y-129550000D02*
X300450000Y-130750000D01*
X302550000Y-130750000D02*
X303700420Y-129599580D01*
X300450000Y-130750000D02*
X301050000Y-130750000D01*
X301050000Y-130750000D02*
X302550000Y-130750000D01*
X303700420Y-129599580D02*
X303800000Y-129599580D01*
X299450000Y-129550000D02*
X298950000Y-129550000D01*
X302250000Y-126899580D02*
X300650420Y-126899580D01*
X298950000Y-128600000D02*
X298950000Y-129550000D01*
X300650420Y-126899580D02*
X298950000Y-128600000D01*
X303800000Y-129599580D02*
X305000000Y-129599580D01*
X302250000Y-126899580D02*
X303250000Y-126899580D01*
D24*
X286050000Y-122575420D02*
X288604580Y-122575420D01*
X288604580Y-122575420D02*
X290250000Y-120930000D01*
D23*
X286050000Y-122575420D02*
X285500420Y-122575420D01*
X285500420Y-122575420D02*
X285100000Y-122175000D01*
X284450000Y-124075000D02*
X284450000Y-123625000D01*
X285100000Y-122975000D02*
X285100000Y-122175000D01*
X284450000Y-123625000D02*
X285100000Y-122975000D01*
X303400000Y-133500000D02*
X306350420Y-133500000D01*
X306350420Y-133500000D02*
X308650420Y-135800000D01*
X303400000Y-132500000D02*
X306950420Y-132500000D01*
X306950420Y-132500000D02*
X308750420Y-134300000D01*
X307450420Y-131500000D02*
X308750420Y-132800000D01*
X303400000Y-131500000D02*
X307450420Y-131500000D01*
X308650000Y-131300000D02*
X308850420Y-131300000D01*
X307650000Y-130300000D02*
X308650000Y-131300000D01*
X302600000Y-129550000D02*
X302650000Y-129500000D01*
X301450000Y-129550000D02*
X302600000Y-129550000D01*
X292000000Y-132000000D02*
X283430000Y-132000000D01*
X283430000Y-132000000D02*
X279200000Y-127770000D01*
X292000000Y-136500000D02*
X280630000Y-136500000D01*
X280630000Y-136500000D02*
X279200000Y-137930000D01*
D24*
X308825000Y-143750420D02*
X314550420Y-143750420D01*
D23*
X314550420Y-143750420D02*
X314700000Y-143900000D01*
D24*
X308825000Y-143750420D02*
X307725000Y-143750420D01*
D23*
X309549580Y-135800000D02*
X312060000Y-135800000D01*
X312060000Y-135800000D02*
X313450000Y-137190000D01*
X309649580Y-134300000D02*
X313100000Y-134300000D01*
X313100000Y-134300000D02*
X313450000Y-134650000D01*
X309649580Y-132800000D02*
X312760000Y-132800000D01*
X312760000Y-132800000D02*
X313450000Y-132110000D01*
D24*
X282513000Y-140637000D02*
X282513000Y-141925000D01*
X282600000Y-140550000D02*
X282513000Y-140637000D01*
X279300000Y-121380000D02*
X283033000Y-121380000D01*
X283033000Y-121380000D02*
X283888000Y-120525000D01*
X282425000Y-145475000D02*
X282425000Y-146524580D01*
X282425000Y-146524580D02*
X282625420Y-146725000D01*
X282475000Y-141925000D02*
X282513000Y-141925000D01*
X283888000Y-120525000D02*
X283825000Y-120525000D01*
D23*
X282425420Y-141837420D02*
X282513000Y-141925000D01*
X283800420Y-124075420D02*
X283800000Y-124075000D01*
D24*
X283800420Y-125175000D02*
X283800420Y-124075420D01*
D23*
X283888000Y-120525000D02*
X283888000Y-122087000D01*
X283888000Y-122087000D02*
X283800000Y-122175000D01*
D24*
X283800000Y-124075000D02*
X283800000Y-122175000D01*
D23*
X283900420Y-124175420D02*
X283800000Y-124075000D01*
D24*
X282425000Y-143575000D02*
X282425000Y-142013000D01*
D23*
X282425000Y-142013000D02*
X282513000Y-141925000D01*
D24*
X282425000Y-143575000D02*
X282425000Y-145475000D01*
D23*
X300950000Y-140950000D02*
X300950000Y-141950000D01*
X303649580Y-144649580D02*
X307725000Y-144649580D01*
X300950000Y-141950000D02*
X303649580Y-144649580D01*
X300450000Y-140950000D02*
X300950000Y-140950000D01*
X307625000Y-144749580D02*
X307725000Y-144649580D01*
D24*
X307725000Y-144649580D02*
X308825000Y-144649580D01*
D23*
X283075000Y-143575000D02*
X283075000Y-142887000D01*
X283075000Y-142887000D02*
X284037000Y-141925000D01*
X284450000Y-122175000D02*
X284450000Y-121487000D01*
X284450000Y-121487000D02*
X285412000Y-120525000D01*
X303400000Y-134500000D02*
X305700420Y-134500000D01*
X305700420Y-134500000D02*
X308700420Y-137500000D01*
X309749580Y-131300000D02*
X311720000Y-131300000D01*
X311720000Y-131300000D02*
X313450000Y-129570000D01*
X309599580Y-137500000D02*
X311220000Y-137500000D01*
X311220000Y-137500000D02*
X313450000Y-139730000D01*
X298900000Y-125962000D02*
X300237580Y-125962000D01*
X300237580Y-125962000D02*
X300500000Y-125699580D01*
X297950000Y-129550000D02*
X297950000Y-126912000D01*
X297950000Y-126912000D02*
X298900000Y-125962000D01*
X296950000Y-129550000D02*
X296950000Y-125599580D01*
X296950000Y-125599580D02*
X296650000Y-125299580D01*
X295950000Y-129550000D02*
X295950000Y-127462000D01*
X295950000Y-127462000D02*
X294350000Y-125862000D01*
X296950000Y-140950000D02*
X296950000Y-143200000D01*
X296700420Y-143449580D02*
X296700420Y-144100000D01*
X296950000Y-143200000D02*
X296700420Y-143449580D01*
X296700420Y-144100000D02*
X296700420Y-145500000D01*
X294950000Y-129550000D02*
X294950000Y-128500000D01*
X291650420Y-128200000D02*
X291300000Y-127849580D01*
X294650000Y-128200000D02*
X291650420Y-128200000D01*
X294950000Y-128500000D02*
X294650000Y-128200000D01*
X292000000Y-132500000D02*
X281390000Y-132500000D01*
X281390000Y-132500000D02*
X279200000Y-130310000D01*
X292000000Y-132500000D02*
X292000000Y-133000000D01*
X307850000Y-141550000D02*
X309550000Y-141550000D01*
X303400000Y-135000000D02*
X304650000Y-135000000D01*
X306950000Y-137300000D02*
X306950000Y-141550000D01*
X304650000Y-135000000D02*
X306950000Y-137300000D01*
X302350000Y-134000000D02*
X302350000Y-134050000D01*
X302300000Y-135000000D02*
X303400000Y-135000000D01*
X302100000Y-134800000D02*
X302300000Y-135000000D01*
X302100000Y-134300000D02*
X302100000Y-134800000D01*
X302350000Y-134050000D02*
X302100000Y-134300000D01*
X302200000Y-133000000D02*
X302200000Y-133050000D01*
X302350000Y-134000000D02*
X303400000Y-134000000D01*
X302100000Y-133750000D02*
X302350000Y-134000000D01*
X302100000Y-133150000D02*
X302100000Y-133750000D01*
X302200000Y-133050000D02*
X302100000Y-133150000D01*
X303400000Y-132000000D02*
X302200000Y-132000000D01*
X302200000Y-133000000D02*
X303400000Y-133000000D01*
X302100000Y-132900000D02*
X302200000Y-133000000D01*
X302100000Y-132100000D02*
X302100000Y-132900000D01*
X302200000Y-132000000D02*
X302100000Y-132100000D01*
D25*
G36*
X293253801Y-139859307D02*
X293165000Y-140073691D01*
X293165000Y-140664250D01*
X293323750Y-140823000D01*
X293652560Y-140823000D01*
X293652560Y-141077000D01*
X293323750Y-141077000D01*
X293165000Y-141235750D01*
X293165000Y-141826309D01*
X293261673Y-142059698D01*
X293440301Y-142238327D01*
X293673690Y-142335000D01*
X293716250Y-142335000D01*
X293873871Y-142177379D01*
X294048110Y-142296431D01*
X294169830Y-142321080D01*
X294183750Y-142335000D01*
X294226310Y-142335000D01*
X294230335Y-142333333D01*
X294300000Y-142347440D01*
X294600000Y-142347440D01*
X294671323Y-142334020D01*
X294673690Y-142335000D01*
X294716250Y-142335000D01*
X294727871Y-142323379D01*
X294835317Y-142303162D01*
X294949978Y-142229380D01*
X295048110Y-142296431D01*
X295169830Y-142321080D01*
X295183750Y-142335000D01*
X295226310Y-142335000D01*
X295230335Y-142333333D01*
X295300000Y-142347440D01*
X295447054Y-142347440D01*
X294854909Y-142939585D01*
X294814873Y-142947118D01*
X294790636Y-142962714D01*
X294676119Y-142915280D01*
X294608865Y-142915280D01*
X294450115Y-143074030D01*
X294450115Y-143316385D01*
X294402750Y-143550280D01*
X294402750Y-144149720D01*
X294447028Y-144385037D01*
X294450115Y-144389834D01*
X294450115Y-144516385D01*
X294402750Y-144750280D01*
X294402750Y-145349720D01*
X294447028Y-145585037D01*
X294450115Y-145589834D01*
X294450115Y-145825970D01*
X294608865Y-145984720D01*
X294676119Y-145984720D01*
X294787329Y-145938655D01*
X294798300Y-145946151D01*
X295050190Y-145997160D01*
X295448970Y-145997160D01*
X295684287Y-145952882D01*
X295861012Y-145839163D01*
X295897868Y-146035037D01*
X296036940Y-146251161D01*
X296249140Y-146396151D01*
X296501030Y-146447160D01*
X296899810Y-146447160D01*
X297135127Y-146402882D01*
X297159364Y-146387286D01*
X297273881Y-146434720D01*
X297341135Y-146434720D01*
X297499885Y-146275970D01*
X297499885Y-146033615D01*
X297547250Y-145799720D01*
X297547250Y-145627000D01*
X297699275Y-145627000D01*
X297699275Y-146275970D01*
X297858025Y-146434720D01*
X297925279Y-146434720D01*
X298158668Y-146338047D01*
X298337297Y-146159419D01*
X298409233Y-145985750D01*
X298416030Y-145985750D01*
X298416030Y-146126030D01*
X298512703Y-146359419D01*
X298691332Y-146538047D01*
X298924721Y-146634720D01*
X298991975Y-146634720D01*
X299150725Y-146475970D01*
X299150725Y-145827000D01*
X298574780Y-145827000D01*
X298416030Y-145985750D01*
X298409233Y-145985750D01*
X298433970Y-145926030D01*
X298433970Y-145785750D01*
X298275220Y-145627000D01*
X297699275Y-145627000D01*
X297547250Y-145627000D01*
X297547250Y-145200280D01*
X297502972Y-144964963D01*
X297499885Y-144960166D01*
X297499885Y-144633615D01*
X297547250Y-144399720D01*
X297547250Y-143953000D01*
X297699275Y-143953000D01*
X297699275Y-143973000D01*
X297746580Y-143973000D01*
X297746580Y-144227000D01*
X297699275Y-144227000D01*
X297699275Y-145373000D01*
X298275220Y-145373000D01*
X298433970Y-145214250D01*
X298433970Y-145073970D01*
X298337297Y-144840581D01*
X298296716Y-144800000D01*
X298337297Y-144759419D01*
X298433567Y-144527002D01*
X298574778Y-144527002D01*
X298416030Y-144685750D01*
X298416030Y-144826030D01*
X298508802Y-145050000D01*
X298416030Y-145273970D01*
X298416030Y-145414250D01*
X298574780Y-145573000D01*
X299150725Y-145573000D01*
X299150725Y-144527000D01*
X299103420Y-144527000D01*
X299103420Y-144273000D01*
X299150725Y-144273000D01*
X299150725Y-144253000D01*
X299302750Y-144253000D01*
X299302750Y-144699720D01*
X299347028Y-144935037D01*
X299350115Y-144939834D01*
X299350115Y-145166385D01*
X299302750Y-145400280D01*
X299302750Y-145999720D01*
X299347028Y-146235037D01*
X299350115Y-146239834D01*
X299350115Y-146475970D01*
X299508865Y-146634720D01*
X299576119Y-146634720D01*
X299687329Y-146588655D01*
X299698300Y-146596151D01*
X299950190Y-146647160D01*
X300348970Y-146647160D01*
X300584287Y-146602882D01*
X300800411Y-146463810D01*
X300945401Y-146251610D01*
X300996410Y-145999720D01*
X300996410Y-145400280D01*
X300952132Y-145164963D01*
X300878164Y-145050014D01*
X300945401Y-144951610D01*
X300985359Y-144754293D01*
X301006878Y-144722087D01*
X301061000Y-144450000D01*
X301006878Y-144177912D01*
X300996410Y-144162245D01*
X300996410Y-144100280D01*
X300952132Y-143864963D01*
X300813060Y-143648839D01*
X300765683Y-143616468D01*
X300652333Y-143446827D01*
X299661000Y-142455494D01*
X299661000Y-142335962D01*
X299703671Y-142327933D01*
X299800000Y-142347440D01*
X300100000Y-142347440D01*
X300203671Y-142327933D01*
X300300000Y-142347440D01*
X300376879Y-142347440D01*
X300447247Y-142452753D01*
X303146827Y-145152333D01*
X303377492Y-145306458D01*
X303649580Y-145360580D01*
X307049250Y-145360580D01*
X307173390Y-145445401D01*
X307425280Y-145496410D01*
X307640692Y-145496410D01*
X307725000Y-145513180D01*
X308825000Y-145513180D01*
X308909308Y-145496410D01*
X309124720Y-145496410D01*
X309360037Y-145452132D01*
X309576161Y-145313060D01*
X309721151Y-145100860D01*
X309772160Y-144848970D01*
X309772160Y-144614020D01*
X313202560Y-144614020D01*
X313202560Y-145200000D01*
X313246838Y-145435317D01*
X313385910Y-145651441D01*
X313598110Y-145796431D01*
X313850000Y-145847440D01*
X315550000Y-145847440D01*
X315590000Y-145839913D01*
X315590000Y-146865000D01*
X284213220Y-146865000D01*
X284200220Y-146852000D01*
X283624275Y-146852000D01*
X283624275Y-146865000D01*
X283472250Y-146865000D01*
X283472250Y-146809308D01*
X283489020Y-146725000D01*
X283472250Y-146640692D01*
X283472250Y-146578000D01*
X283624275Y-146578000D01*
X283624275Y-146598000D01*
X284200220Y-146598000D01*
X284358970Y-146439250D01*
X284358970Y-146298970D01*
X284348744Y-146274282D01*
X284463327Y-146159698D01*
X284560000Y-145926309D01*
X284560000Y-145760750D01*
X284479405Y-145680155D01*
X284548970Y-145708970D01*
X284689250Y-145708970D01*
X284848000Y-145550220D01*
X284848000Y-144974275D01*
X285102000Y-144974275D01*
X285102000Y-145550220D01*
X285260750Y-145708970D01*
X285401030Y-145708970D01*
X285634419Y-145612297D01*
X285813047Y-145433668D01*
X285909720Y-145200279D01*
X285909720Y-145133025D01*
X285750970Y-144974275D01*
X285102000Y-144974275D01*
X284848000Y-144974275D01*
X284828000Y-144974275D01*
X284828000Y-144839020D01*
X286547706Y-144839020D01*
X286633153Y-144924467D01*
X286632758Y-145376661D01*
X286844990Y-145890303D01*
X287237630Y-146283629D01*
X287750900Y-146496757D01*
X288306661Y-146497242D01*
X288820303Y-146285010D01*
X289173000Y-145932928D01*
X289173000Y-145988310D01*
X289269673Y-146221699D01*
X289448302Y-146400327D01*
X289681691Y-146497000D01*
X290284250Y-146497000D01*
X290443000Y-146338250D01*
X290443000Y-145227000D01*
X290697000Y-145227000D01*
X290697000Y-146338250D01*
X290855750Y-146497000D01*
X291458309Y-146497000D01*
X291691698Y-146400327D01*
X291870327Y-146221699D01*
X291967000Y-145988310D01*
X291967000Y-145385750D01*
X291917000Y-145335750D01*
X293516030Y-145335750D01*
X293516030Y-145476030D01*
X293612703Y-145709419D01*
X293791332Y-145888047D01*
X294024721Y-145984720D01*
X294091975Y-145984720D01*
X294250725Y-145825970D01*
X294250725Y-145177000D01*
X293674780Y-145177000D01*
X293516030Y-145335750D01*
X291917000Y-145335750D01*
X291808250Y-145227000D01*
X290697000Y-145227000D01*
X290443000Y-145227000D01*
X290423000Y-145227000D01*
X290423000Y-144973000D01*
X290443000Y-144973000D01*
X290443000Y-143861750D01*
X290697000Y-143861750D01*
X290697000Y-144973000D01*
X291808250Y-144973000D01*
X291967000Y-144814250D01*
X291967000Y-144211690D01*
X291935545Y-144135750D01*
X293516030Y-144135750D01*
X293516030Y-144276030D01*
X293588091Y-144450000D01*
X293516030Y-144623970D01*
X293516030Y-144764250D01*
X293674780Y-144923000D01*
X294250725Y-144923000D01*
X294250725Y-143977000D01*
X293674780Y-143977000D01*
X293516030Y-144135750D01*
X291935545Y-144135750D01*
X291870327Y-143978301D01*
X291691698Y-143799673D01*
X291458309Y-143703000D01*
X290855750Y-143703000D01*
X290697000Y-143861750D01*
X290443000Y-143861750D01*
X290284250Y-143703000D01*
X289681691Y-143703000D01*
X289448302Y-143799673D01*
X289269673Y-143978301D01*
X289173000Y-144211690D01*
X289173000Y-144267614D01*
X288822370Y-143916371D01*
X288309100Y-143703243D01*
X287854160Y-143702846D01*
X287763600Y-143612286D01*
X287763600Y-143423970D01*
X293516030Y-143423970D01*
X293516030Y-143564250D01*
X293674780Y-143723000D01*
X294250725Y-143723000D01*
X294250725Y-143074030D01*
X294091975Y-142915280D01*
X294024721Y-142915280D01*
X293791332Y-143011953D01*
X293612703Y-143190581D01*
X293516030Y-143423970D01*
X287763600Y-143423970D01*
X287763600Y-143007714D01*
X288194732Y-142576582D01*
X288296723Y-142576582D01*
X288165280Y-142708025D01*
X288165280Y-142775279D01*
X288261953Y-143008668D01*
X288440581Y-143187297D01*
X288673970Y-143283970D01*
X288814250Y-143283970D01*
X288973000Y-143125220D01*
X288973000Y-142549275D01*
X289227000Y-142549275D01*
X289227000Y-143125220D01*
X289385750Y-143283970D01*
X289526030Y-143283970D01*
X289759419Y-143187297D01*
X289800000Y-143146716D01*
X289840581Y-143187297D01*
X290073970Y-143283970D01*
X290214250Y-143283970D01*
X290373000Y-143125220D01*
X290373000Y-142549275D01*
X290627000Y-142549275D01*
X290627000Y-143125220D01*
X290785750Y-143283970D01*
X290926030Y-143283970D01*
X291159419Y-143187297D01*
X291338047Y-143008668D01*
X291434720Y-142775279D01*
X291434720Y-142708025D01*
X291275970Y-142549275D01*
X290627000Y-142549275D01*
X290373000Y-142549275D01*
X289227000Y-142549275D01*
X288973000Y-142549275D01*
X288953000Y-142549275D01*
X288953000Y-142414020D01*
X289100000Y-142414020D01*
X289184308Y-142397250D01*
X289399720Y-142397250D01*
X289635037Y-142352972D01*
X289639834Y-142349885D01*
X289966385Y-142349885D01*
X290200280Y-142397250D01*
X290799720Y-142397250D01*
X291035037Y-142352972D01*
X291039834Y-142349885D01*
X291275970Y-142349885D01*
X291434720Y-142191135D01*
X291434720Y-142123881D01*
X291388655Y-142012671D01*
X291396151Y-142001700D01*
X291447160Y-141749810D01*
X291447160Y-141351030D01*
X291402882Y-141115713D01*
X291263810Y-140899589D01*
X291211000Y-140863505D01*
X291211000Y-140794506D01*
X292208066Y-139797440D01*
X292750000Y-139797440D01*
X292985317Y-139753162D01*
X293050839Y-139711000D01*
X293105494Y-139711000D01*
X293253801Y-139859307D01*
X293253801Y-139859307D01*
G37*
X293253801Y-139859307D02*
X293165000Y-140073691D01*
X293165000Y-140664250D01*
X293323750Y-140823000D01*
X293652560Y-140823000D01*
X293652560Y-141077000D01*
X293323750Y-141077000D01*
X293165000Y-141235750D01*
X293165000Y-141826309D01*
X293261673Y-142059698D01*
X293440301Y-142238327D01*
X293673690Y-142335000D01*
X293716250Y-142335000D01*
X293873871Y-142177379D01*
X294048110Y-142296431D01*
X294169830Y-142321080D01*
X294183750Y-142335000D01*
X294226310Y-142335000D01*
X294230335Y-142333333D01*
X294300000Y-142347440D01*
X294600000Y-142347440D01*
X294671323Y-142334020D01*
X294673690Y-142335000D01*
X294716250Y-142335000D01*
X294727871Y-142323379D01*
X294835317Y-142303162D01*
X294949978Y-142229380D01*
X295048110Y-142296431D01*
X295169830Y-142321080D01*
X295183750Y-142335000D01*
X295226310Y-142335000D01*
X295230335Y-142333333D01*
X295300000Y-142347440D01*
X295447054Y-142347440D01*
X294854909Y-142939585D01*
X294814873Y-142947118D01*
X294790636Y-142962714D01*
X294676119Y-142915280D01*
X294608865Y-142915280D01*
X294450115Y-143074030D01*
X294450115Y-143316385D01*
X294402750Y-143550280D01*
X294402750Y-144149720D01*
X294447028Y-144385037D01*
X294450115Y-144389834D01*
X294450115Y-144516385D01*
X294402750Y-144750280D01*
X294402750Y-145349720D01*
X294447028Y-145585037D01*
X294450115Y-145589834D01*
X294450115Y-145825970D01*
X294608865Y-145984720D01*
X294676119Y-145984720D01*
X294787329Y-145938655D01*
X294798300Y-145946151D01*
X295050190Y-145997160D01*
X295448970Y-145997160D01*
X295684287Y-145952882D01*
X295861012Y-145839163D01*
X295897868Y-146035037D01*
X296036940Y-146251161D01*
X296249140Y-146396151D01*
X296501030Y-146447160D01*
X296899810Y-146447160D01*
X297135127Y-146402882D01*
X297159364Y-146387286D01*
X297273881Y-146434720D01*
X297341135Y-146434720D01*
X297499885Y-146275970D01*
X297499885Y-146033615D01*
X297547250Y-145799720D01*
X297547250Y-145627000D01*
X297699275Y-145627000D01*
X297699275Y-146275970D01*
X297858025Y-146434720D01*
X297925279Y-146434720D01*
X298158668Y-146338047D01*
X298337297Y-146159419D01*
X298409233Y-145985750D01*
X298416030Y-145985750D01*
X298416030Y-146126030D01*
X298512703Y-146359419D01*
X298691332Y-146538047D01*
X298924721Y-146634720D01*
X298991975Y-146634720D01*
X299150725Y-146475970D01*
X299150725Y-145827000D01*
X298574780Y-145827000D01*
X298416030Y-145985750D01*
X298409233Y-145985750D01*
X298433970Y-145926030D01*
X298433970Y-145785750D01*
X298275220Y-145627000D01*
X297699275Y-145627000D01*
X297547250Y-145627000D01*
X297547250Y-145200280D01*
X297502972Y-144964963D01*
X297499885Y-144960166D01*
X297499885Y-144633615D01*
X297547250Y-144399720D01*
X297547250Y-143953000D01*
X297699275Y-143953000D01*
X297699275Y-143973000D01*
X297746580Y-143973000D01*
X297746580Y-144227000D01*
X297699275Y-144227000D01*
X297699275Y-145373000D01*
X298275220Y-145373000D01*
X298433970Y-145214250D01*
X298433970Y-145073970D01*
X298337297Y-144840581D01*
X298296716Y-144800000D01*
X298337297Y-144759419D01*
X298433567Y-144527002D01*
X298574778Y-144527002D01*
X298416030Y-144685750D01*
X298416030Y-144826030D01*
X298508802Y-145050000D01*
X298416030Y-145273970D01*
X298416030Y-145414250D01*
X298574780Y-145573000D01*
X299150725Y-145573000D01*
X299150725Y-144527000D01*
X299103420Y-144527000D01*
X299103420Y-144273000D01*
X299150725Y-144273000D01*
X299150725Y-144253000D01*
X299302750Y-144253000D01*
X299302750Y-144699720D01*
X299347028Y-144935037D01*
X299350115Y-144939834D01*
X299350115Y-145166385D01*
X299302750Y-145400280D01*
X299302750Y-145999720D01*
X299347028Y-146235037D01*
X299350115Y-146239834D01*
X299350115Y-146475970D01*
X299508865Y-146634720D01*
X299576119Y-146634720D01*
X299687329Y-146588655D01*
X299698300Y-146596151D01*
X299950190Y-146647160D01*
X300348970Y-146647160D01*
X300584287Y-146602882D01*
X300800411Y-146463810D01*
X300945401Y-146251610D01*
X300996410Y-145999720D01*
X300996410Y-145400280D01*
X300952132Y-145164963D01*
X300878164Y-145050014D01*
X300945401Y-144951610D01*
X300985359Y-144754293D01*
X301006878Y-144722087D01*
X301061000Y-144450000D01*
X301006878Y-144177912D01*
X300996410Y-144162245D01*
X300996410Y-144100280D01*
X300952132Y-143864963D01*
X300813060Y-143648839D01*
X300765683Y-143616468D01*
X300652333Y-143446827D01*
X299661000Y-142455494D01*
X299661000Y-142335962D01*
X299703671Y-142327933D01*
X299800000Y-142347440D01*
X300100000Y-142347440D01*
X300203671Y-142327933D01*
X300300000Y-142347440D01*
X300376879Y-142347440D01*
X300447247Y-142452753D01*
X303146827Y-145152333D01*
X303377492Y-145306458D01*
X303649580Y-145360580D01*
X307049250Y-145360580D01*
X307173390Y-145445401D01*
X307425280Y-145496410D01*
X307640692Y-145496410D01*
X307725000Y-145513180D01*
X308825000Y-145513180D01*
X308909308Y-145496410D01*
X309124720Y-145496410D01*
X309360037Y-145452132D01*
X309576161Y-145313060D01*
X309721151Y-145100860D01*
X309772160Y-144848970D01*
X309772160Y-144614020D01*
X313202560Y-144614020D01*
X313202560Y-145200000D01*
X313246838Y-145435317D01*
X313385910Y-145651441D01*
X313598110Y-145796431D01*
X313850000Y-145847440D01*
X315550000Y-145847440D01*
X315590000Y-145839913D01*
X315590000Y-146865000D01*
X284213220Y-146865000D01*
X284200220Y-146852000D01*
X283624275Y-146852000D01*
X283624275Y-146865000D01*
X283472250Y-146865000D01*
X283472250Y-146809308D01*
X283489020Y-146725000D01*
X283472250Y-146640692D01*
X283472250Y-146578000D01*
X283624275Y-146578000D01*
X283624275Y-146598000D01*
X284200220Y-146598000D01*
X284358970Y-146439250D01*
X284358970Y-146298970D01*
X284348744Y-146274282D01*
X284463327Y-146159698D01*
X284560000Y-145926309D01*
X284560000Y-145760750D01*
X284479405Y-145680155D01*
X284548970Y-145708970D01*
X284689250Y-145708970D01*
X284848000Y-145550220D01*
X284848000Y-144974275D01*
X285102000Y-144974275D01*
X285102000Y-145550220D01*
X285260750Y-145708970D01*
X285401030Y-145708970D01*
X285634419Y-145612297D01*
X285813047Y-145433668D01*
X285909720Y-145200279D01*
X285909720Y-145133025D01*
X285750970Y-144974275D01*
X285102000Y-144974275D01*
X284848000Y-144974275D01*
X284828000Y-144974275D01*
X284828000Y-144839020D01*
X286547706Y-144839020D01*
X286633153Y-144924467D01*
X286632758Y-145376661D01*
X286844990Y-145890303D01*
X287237630Y-146283629D01*
X287750900Y-146496757D01*
X288306661Y-146497242D01*
X288820303Y-146285010D01*
X289173000Y-145932928D01*
X289173000Y-145988310D01*
X289269673Y-146221699D01*
X289448302Y-146400327D01*
X289681691Y-146497000D01*
X290284250Y-146497000D01*
X290443000Y-146338250D01*
X290443000Y-145227000D01*
X290697000Y-145227000D01*
X290697000Y-146338250D01*
X290855750Y-146497000D01*
X291458309Y-146497000D01*
X291691698Y-146400327D01*
X291870327Y-146221699D01*
X291967000Y-145988310D01*
X291967000Y-145385750D01*
X291917000Y-145335750D01*
X293516030Y-145335750D01*
X293516030Y-145476030D01*
X293612703Y-145709419D01*
X293791332Y-145888047D01*
X294024721Y-145984720D01*
X294091975Y-145984720D01*
X294250725Y-145825970D01*
X294250725Y-145177000D01*
X293674780Y-145177000D01*
X293516030Y-145335750D01*
X291917000Y-145335750D01*
X291808250Y-145227000D01*
X290697000Y-145227000D01*
X290443000Y-145227000D01*
X290423000Y-145227000D01*
X290423000Y-144973000D01*
X290443000Y-144973000D01*
X290443000Y-143861750D01*
X290697000Y-143861750D01*
X290697000Y-144973000D01*
X291808250Y-144973000D01*
X291967000Y-144814250D01*
X291967000Y-144211690D01*
X291935545Y-144135750D01*
X293516030Y-144135750D01*
X293516030Y-144276030D01*
X293588091Y-144450000D01*
X293516030Y-144623970D01*
X293516030Y-144764250D01*
X293674780Y-144923000D01*
X294250725Y-144923000D01*
X294250725Y-143977000D01*
X293674780Y-143977000D01*
X293516030Y-144135750D01*
X291935545Y-144135750D01*
X291870327Y-143978301D01*
X291691698Y-143799673D01*
X291458309Y-143703000D01*
X290855750Y-143703000D01*
X290697000Y-143861750D01*
X290443000Y-143861750D01*
X290284250Y-143703000D01*
X289681691Y-143703000D01*
X289448302Y-143799673D01*
X289269673Y-143978301D01*
X289173000Y-144211690D01*
X289173000Y-144267614D01*
X288822370Y-143916371D01*
X288309100Y-143703243D01*
X287854160Y-143702846D01*
X287763600Y-143612286D01*
X287763600Y-143423970D01*
X293516030Y-143423970D01*
X293516030Y-143564250D01*
X293674780Y-143723000D01*
X294250725Y-143723000D01*
X294250725Y-143074030D01*
X294091975Y-142915280D01*
X294024721Y-142915280D01*
X293791332Y-143011953D01*
X293612703Y-143190581D01*
X293516030Y-143423970D01*
X287763600Y-143423970D01*
X287763600Y-143007714D01*
X288194732Y-142576582D01*
X288296723Y-142576582D01*
X288165280Y-142708025D01*
X288165280Y-142775279D01*
X288261953Y-143008668D01*
X288440581Y-143187297D01*
X288673970Y-143283970D01*
X288814250Y-143283970D01*
X288973000Y-143125220D01*
X288973000Y-142549275D01*
X289227000Y-142549275D01*
X289227000Y-143125220D01*
X289385750Y-143283970D01*
X289526030Y-143283970D01*
X289759419Y-143187297D01*
X289800000Y-143146716D01*
X289840581Y-143187297D01*
X290073970Y-143283970D01*
X290214250Y-143283970D01*
X290373000Y-143125220D01*
X290373000Y-142549275D01*
X290627000Y-142549275D01*
X290627000Y-143125220D01*
X290785750Y-143283970D01*
X290926030Y-143283970D01*
X291159419Y-143187297D01*
X291338047Y-143008668D01*
X291434720Y-142775279D01*
X291434720Y-142708025D01*
X291275970Y-142549275D01*
X290627000Y-142549275D01*
X290373000Y-142549275D01*
X289227000Y-142549275D01*
X288973000Y-142549275D01*
X288953000Y-142549275D01*
X288953000Y-142414020D01*
X289100000Y-142414020D01*
X289184308Y-142397250D01*
X289399720Y-142397250D01*
X289635037Y-142352972D01*
X289639834Y-142349885D01*
X289966385Y-142349885D01*
X290200280Y-142397250D01*
X290799720Y-142397250D01*
X291035037Y-142352972D01*
X291039834Y-142349885D01*
X291275970Y-142349885D01*
X291434720Y-142191135D01*
X291434720Y-142123881D01*
X291388655Y-142012671D01*
X291396151Y-142001700D01*
X291447160Y-141749810D01*
X291447160Y-141351030D01*
X291402882Y-141115713D01*
X291263810Y-140899589D01*
X291211000Y-140863505D01*
X291211000Y-140794506D01*
X292208066Y-139797440D01*
X292750000Y-139797440D01*
X292985317Y-139753162D01*
X293050839Y-139711000D01*
X293105494Y-139711000D01*
X293253801Y-139859307D01*
G36*
X282974069Y-119701610D02*
X282923060Y-119953500D01*
X282923060Y-120268625D01*
X282675286Y-120516400D01*
X280690323Y-120516400D01*
X280665162Y-120382683D01*
X280526090Y-120166559D01*
X280313890Y-120021569D01*
X280062000Y-119970560D01*
X278538000Y-119970560D01*
X278302683Y-120014838D01*
X278086559Y-120153910D01*
X277941569Y-120366110D01*
X277890560Y-120618000D01*
X277890560Y-122142000D01*
X277934838Y-122377317D01*
X278073910Y-122593441D01*
X278286110Y-122738431D01*
X278538000Y-122789440D01*
X278542516Y-122789440D01*
X278499392Y-122939787D01*
X279300000Y-123740395D01*
X280100608Y-122939787D01*
X280057484Y-122789440D01*
X280062000Y-122789440D01*
X280297317Y-122745162D01*
X280513441Y-122606090D01*
X280658431Y-122393890D01*
X280688865Y-122243600D01*
X282936400Y-122243600D01*
X282936400Y-124075000D01*
X282936820Y-124077111D01*
X282936820Y-125175000D01*
X282953590Y-125259308D01*
X282953590Y-125474720D01*
X282997868Y-125710037D01*
X283136940Y-125926161D01*
X283349140Y-126071151D01*
X283601030Y-126122160D01*
X283999810Y-126122160D01*
X284235127Y-126077882D01*
X284259364Y-126062286D01*
X284373881Y-126109720D01*
X284441135Y-126109720D01*
X284599885Y-125950970D01*
X284599885Y-125708615D01*
X284647250Y-125474720D01*
X284647250Y-125302000D01*
X284799275Y-125302000D01*
X284799275Y-125950970D01*
X284958025Y-126109720D01*
X285025279Y-126109720D01*
X285258668Y-126013047D01*
X285437297Y-125834419D01*
X285533970Y-125601030D01*
X285533970Y-125460750D01*
X285375220Y-125302000D01*
X284799275Y-125302000D01*
X284647250Y-125302000D01*
X284647250Y-125259308D01*
X284664020Y-125175000D01*
X284664020Y-125044802D01*
X284753313Y-125028000D01*
X284756791Y-125028000D01*
X284773690Y-125035000D01*
X284799275Y-125035000D01*
X284799275Y-125048000D01*
X285375220Y-125048000D01*
X285388220Y-125035000D01*
X285426310Y-125035000D01*
X285659699Y-124938327D01*
X285838327Y-124759698D01*
X285935000Y-124526309D01*
X285935000Y-124360750D01*
X285823735Y-124249485D01*
X285923000Y-124150220D01*
X285923000Y-123801250D01*
X285935000Y-123789250D01*
X285935000Y-123623691D01*
X285923000Y-123594720D01*
X285923000Y-123574275D01*
X286177000Y-123574275D01*
X286177000Y-124150220D01*
X286335750Y-124308970D01*
X286476030Y-124308970D01*
X286709419Y-124212297D01*
X286888047Y-124033668D01*
X286984720Y-123800279D01*
X286984720Y-123755750D01*
X288853000Y-123755750D01*
X288853000Y-124358309D01*
X288949673Y-124591698D01*
X289128301Y-124770327D01*
X289361690Y-124867000D01*
X289964250Y-124867000D01*
X290123000Y-124708250D01*
X290123000Y-123597000D01*
X290377000Y-123597000D01*
X290377000Y-124708250D01*
X290535750Y-124867000D01*
X291138310Y-124867000D01*
X291371699Y-124770327D01*
X291550327Y-124591698D01*
X291647000Y-124358309D01*
X291647000Y-123894191D01*
X293143500Y-123894191D01*
X293143500Y-124052250D01*
X293302250Y-124211000D01*
X294223000Y-124211000D01*
X294223000Y-123544250D01*
X294477000Y-123544250D01*
X294477000Y-124211000D01*
X295397750Y-124211000D01*
X295534029Y-124074721D01*
X295715280Y-124074721D01*
X295715280Y-124141975D01*
X295874030Y-124300725D01*
X296523000Y-124300725D01*
X296523000Y-123724780D01*
X296777000Y-123724780D01*
X296777000Y-124300725D01*
X297425970Y-124300725D01*
X297584720Y-124141975D01*
X297584720Y-124074721D01*
X297551364Y-123994191D01*
X297693500Y-123994191D01*
X297693500Y-124152250D01*
X297852250Y-124311000D01*
X298773000Y-124311000D01*
X298773000Y-123644250D01*
X298614250Y-123485500D01*
X298202190Y-123485500D01*
X297968801Y-123582173D01*
X297790173Y-123760802D01*
X297693500Y-123994191D01*
X297551364Y-123994191D01*
X297488047Y-123841332D01*
X297309419Y-123662703D01*
X297076030Y-123566030D01*
X296935750Y-123566030D01*
X296777000Y-123724780D01*
X296523000Y-123724780D01*
X296364250Y-123566030D01*
X296223970Y-123566030D01*
X295990581Y-123662703D01*
X295811953Y-123841332D01*
X295715280Y-124074721D01*
X295534029Y-124074721D01*
X295556500Y-124052250D01*
X295556500Y-123894191D01*
X295459827Y-123660802D01*
X295281199Y-123482173D01*
X295047810Y-123385500D01*
X294635750Y-123385500D01*
X294477000Y-123544250D01*
X294223000Y-123544250D01*
X294064250Y-123385500D01*
X293652190Y-123385500D01*
X293418801Y-123482173D01*
X293240173Y-123660802D01*
X293143500Y-123894191D01*
X291647000Y-123894191D01*
X291647000Y-123755750D01*
X291488250Y-123597000D01*
X290377000Y-123597000D01*
X290123000Y-123597000D01*
X289011750Y-123597000D01*
X288853000Y-123755750D01*
X286984720Y-123755750D01*
X286984720Y-123733025D01*
X286825970Y-123574275D01*
X286177000Y-123574275D01*
X285923000Y-123574275D01*
X285914531Y-123574275D01*
X285903000Y-123546437D01*
X285903000Y-123422250D01*
X285965692Y-123422250D01*
X286050000Y-123439020D01*
X288604580Y-123439020D01*
X288935065Y-123373282D01*
X288999187Y-123330437D01*
X289011750Y-123343000D01*
X290123000Y-123343000D01*
X290123000Y-123323000D01*
X290377000Y-123323000D01*
X290377000Y-123343000D01*
X291488250Y-123343000D01*
X291647000Y-123184250D01*
X291647000Y-122581691D01*
X291550327Y-122348302D01*
X291371699Y-122169673D01*
X291138310Y-122073000D01*
X291082386Y-122073000D01*
X291362275Y-121793600D01*
X299622286Y-121793600D01*
X303122998Y-125294313D01*
X303122998Y-125324778D01*
X302964250Y-125166030D01*
X302823970Y-125166030D01*
X302750000Y-125196669D01*
X302676030Y-125166030D01*
X302535750Y-125166030D01*
X302377000Y-125324780D01*
X302377000Y-125525716D01*
X302315280Y-125674721D01*
X302315280Y-125741975D01*
X302377000Y-125803695D01*
X302377000Y-125900725D01*
X303123000Y-125900725D01*
X303123000Y-125853420D01*
X303377000Y-125853420D01*
X303377000Y-125900725D01*
X303397000Y-125900725D01*
X303397000Y-126035980D01*
X303250000Y-126035980D01*
X303165692Y-126052750D01*
X302950280Y-126052750D01*
X302742648Y-126091819D01*
X302549720Y-126052750D01*
X302103000Y-126052750D01*
X302103000Y-125900725D01*
X302123000Y-125900725D01*
X302123000Y-125324780D01*
X301964250Y-125166030D01*
X301823970Y-125166030D01*
X301590581Y-125262703D01*
X301432263Y-125421021D01*
X301402882Y-125264873D01*
X301387286Y-125240636D01*
X301434720Y-125126119D01*
X301434720Y-125058865D01*
X301275970Y-124900115D01*
X301033615Y-124900115D01*
X300799720Y-124852750D01*
X300353000Y-124852750D01*
X300353000Y-124700725D01*
X300373000Y-124700725D01*
X300373000Y-124124780D01*
X300627000Y-124124780D01*
X300627000Y-124700725D01*
X301275970Y-124700725D01*
X301434720Y-124541975D01*
X301434720Y-124474721D01*
X301338047Y-124241332D01*
X301159419Y-124062703D01*
X300926030Y-123966030D01*
X300785750Y-123966030D01*
X300627000Y-124124780D01*
X300373000Y-124124780D01*
X300214250Y-123966030D01*
X300094835Y-123966030D01*
X300009827Y-123760802D01*
X299831199Y-123582173D01*
X299597810Y-123485500D01*
X299185750Y-123485500D01*
X299027000Y-123644250D01*
X299027000Y-124311000D01*
X299047000Y-124311000D01*
X299047000Y-124565000D01*
X299027000Y-124565000D01*
X299027000Y-124585000D01*
X298773000Y-124585000D01*
X298773000Y-124565000D01*
X297852250Y-124565000D01*
X297693500Y-124723750D01*
X297693500Y-124881809D01*
X297790173Y-125115198D01*
X297868261Y-125193286D01*
X297732069Y-125392610D01*
X297681060Y-125644500D01*
X297681060Y-126175434D01*
X297661000Y-126195494D01*
X297661000Y-125599580D01*
X297606878Y-125327492D01*
X297597160Y-125312948D01*
X297597160Y-125100190D01*
X297552882Y-124864873D01*
X297537286Y-124840636D01*
X297584720Y-124726119D01*
X297584720Y-124658865D01*
X297425970Y-124500115D01*
X297183615Y-124500115D01*
X296949720Y-124452750D01*
X296350280Y-124452750D01*
X296114963Y-124497028D01*
X296110166Y-124500115D01*
X295874030Y-124500115D01*
X295715280Y-124658865D01*
X295715280Y-124726119D01*
X295761345Y-124837329D01*
X295753849Y-124848300D01*
X295702840Y-125100190D01*
X295702840Y-125498970D01*
X295747118Y-125734287D01*
X295886190Y-125950411D01*
X296098390Y-126095401D01*
X296239000Y-126123875D01*
X296239000Y-126745494D01*
X295568940Y-126075434D01*
X295568940Y-125544500D01*
X295524662Y-125309183D01*
X295385590Y-125093059D01*
X295383437Y-125091588D01*
X295459827Y-125015198D01*
X295556500Y-124781809D01*
X295556500Y-124623750D01*
X295397750Y-124465000D01*
X294477000Y-124465000D01*
X294477000Y-124485000D01*
X294223000Y-124485000D01*
X294223000Y-124465000D01*
X293302250Y-124465000D01*
X293143500Y-124623750D01*
X293143500Y-124781809D01*
X293240173Y-125015198D01*
X293318261Y-125093286D01*
X293182069Y-125292610D01*
X293131060Y-125544500D01*
X293131060Y-126179500D01*
X293175338Y-126414817D01*
X293314410Y-126630941D01*
X293526610Y-126775931D01*
X293778500Y-126826940D01*
X294309434Y-126826940D01*
X295239000Y-127756506D01*
X295239000Y-127783494D01*
X295152753Y-127697247D01*
X294922088Y-127543122D01*
X294650000Y-127489000D01*
X292216830Y-127489000D01*
X292202882Y-127414873D01*
X292187286Y-127390636D01*
X292234720Y-127276119D01*
X292234720Y-127208865D01*
X292075970Y-127050115D01*
X291833615Y-127050115D01*
X291599720Y-127002750D01*
X291000280Y-127002750D01*
X290764963Y-127047028D01*
X290760166Y-127050115D01*
X290524030Y-127050115D01*
X290365280Y-127208865D01*
X290365280Y-127276119D01*
X290411345Y-127387329D01*
X290403849Y-127398300D01*
X290352840Y-127650190D01*
X290352840Y-128048970D01*
X290397118Y-128284287D01*
X290536190Y-128500411D01*
X290748390Y-128645401D01*
X291000280Y-128696410D01*
X291141324Y-128696410D01*
X291147667Y-128702753D01*
X291378332Y-128856878D01*
X291650420Y-128911000D01*
X293165000Y-128911000D01*
X293165000Y-129264250D01*
X293323750Y-129423000D01*
X294097000Y-129423000D01*
X294097000Y-129677000D01*
X293323750Y-129677000D01*
X293165000Y-129835750D01*
X293165000Y-130426309D01*
X293261673Y-130659698D01*
X293440301Y-130838327D01*
X293673690Y-130935000D01*
X293716250Y-130935000D01*
X293875000Y-130776250D01*
X293875000Y-130773026D01*
X293940301Y-130838327D01*
X294173690Y-130935000D01*
X294226310Y-130935000D01*
X294459699Y-130838327D01*
X294461068Y-130836958D01*
X294548110Y-130896431D01*
X294669830Y-130921080D01*
X294683750Y-130935000D01*
X294726310Y-130935000D01*
X294730335Y-130933333D01*
X294800000Y-130947440D01*
X295100000Y-130947440D01*
X295203671Y-130927933D01*
X295300000Y-130947440D01*
X295600000Y-130947440D01*
X295703671Y-130927933D01*
X295800000Y-130947440D01*
X296100000Y-130947440D01*
X296203671Y-130927933D01*
X296300000Y-130947440D01*
X296600000Y-130947440D01*
X296703671Y-130927933D01*
X296800000Y-130947440D01*
X297100000Y-130947440D01*
X297171323Y-130934020D01*
X297173690Y-130935000D01*
X297216250Y-130935000D01*
X297227871Y-130923379D01*
X297335317Y-130903162D01*
X297449978Y-130829380D01*
X297548110Y-130896431D01*
X297669830Y-130921080D01*
X297683750Y-130935000D01*
X297726310Y-130935000D01*
X297730335Y-130933333D01*
X297800000Y-130947440D01*
X298100000Y-130947440D01*
X298171323Y-130934020D01*
X298173690Y-130935000D01*
X298216250Y-130935000D01*
X298227871Y-130923379D01*
X298335317Y-130903162D01*
X298449978Y-130829380D01*
X298548110Y-130896431D01*
X298669830Y-130921080D01*
X298683750Y-130935000D01*
X298726310Y-130935000D01*
X298730335Y-130933333D01*
X298800000Y-130947440D01*
X299100000Y-130947440D01*
X299203671Y-130927933D01*
X299300000Y-130947440D01*
X299600000Y-130947440D01*
X299671323Y-130934020D01*
X299673690Y-130935000D01*
X299716250Y-130935000D01*
X299727871Y-130923379D01*
X299771842Y-130915106D01*
X299793122Y-131022088D01*
X299947247Y-131252753D01*
X300177912Y-131406878D01*
X300339000Y-131438921D01*
X300339000Y-134750000D01*
X300393122Y-135022088D01*
X300547247Y-135252753D01*
X301797247Y-136502753D01*
X302002560Y-136639938D01*
X302002560Y-136650000D01*
X302022067Y-136753671D01*
X302002560Y-136850000D01*
X302002560Y-137150000D01*
X302022067Y-137253671D01*
X302002560Y-137350000D01*
X302002560Y-137650000D01*
X302022067Y-137753671D01*
X302002560Y-137850000D01*
X302002560Y-138150000D01*
X302022067Y-138253671D01*
X302014913Y-138289000D01*
X299600000Y-138289000D01*
X299327912Y-138343122D01*
X299172208Y-138447160D01*
X299097247Y-138497247D01*
X298605494Y-138989000D01*
X296700000Y-138989000D01*
X296427912Y-139043122D01*
X296197247Y-139197247D01*
X295947247Y-139447247D01*
X295909398Y-139503892D01*
X295702753Y-139297247D01*
X295472088Y-139143122D01*
X295200000Y-139089000D01*
X294494506Y-139089000D01*
X293902753Y-138497247D01*
X293672088Y-138343122D01*
X293400000Y-138289000D01*
X293385962Y-138289000D01*
X293384020Y-138278677D01*
X293385000Y-138276310D01*
X293385000Y-138233750D01*
X293373379Y-138222129D01*
X293353162Y-138114683D01*
X293286672Y-138011354D01*
X293288327Y-138009699D01*
X293385000Y-137776310D01*
X293385000Y-137723690D01*
X293292344Y-137500000D01*
X293385000Y-137276310D01*
X293385000Y-137223690D01*
X293288327Y-136990301D01*
X293286958Y-136988932D01*
X293346431Y-136901890D01*
X293371080Y-136780170D01*
X293385000Y-136766250D01*
X293385000Y-136723690D01*
X293383333Y-136719665D01*
X293397440Y-136650000D01*
X293397440Y-136350000D01*
X293384020Y-136278677D01*
X293385000Y-136276310D01*
X293385000Y-136233750D01*
X293373379Y-136222129D01*
X293353162Y-136114683D01*
X293286672Y-136011354D01*
X293288327Y-136009699D01*
X293385000Y-135776310D01*
X293385000Y-135723690D01*
X293288327Y-135490301D01*
X293286958Y-135488932D01*
X293346431Y-135401890D01*
X293371080Y-135280170D01*
X293385000Y-135266250D01*
X293385000Y-135223690D01*
X293383333Y-135219665D01*
X293397440Y-135150000D01*
X293397440Y-134850000D01*
X293377933Y-134746329D01*
X293397440Y-134650000D01*
X293397440Y-134350000D01*
X293384020Y-134278677D01*
X293385000Y-134276310D01*
X293385000Y-134233750D01*
X293373379Y-134222129D01*
X293353162Y-134114683D01*
X293279380Y-134000022D01*
X293346431Y-133901890D01*
X293371080Y-133780170D01*
X293385000Y-133766250D01*
X293385000Y-133723690D01*
X293383333Y-133719665D01*
X293397440Y-133650000D01*
X293397440Y-133350000D01*
X293377933Y-133246329D01*
X293397440Y-133150000D01*
X293397440Y-132850000D01*
X293377933Y-132746329D01*
X293397440Y-132650000D01*
X293397440Y-132350000D01*
X293377933Y-132246329D01*
X293397440Y-132150000D01*
X293397440Y-131850000D01*
X293384020Y-131778677D01*
X293385000Y-131776310D01*
X293385000Y-131733750D01*
X293373379Y-131722129D01*
X293353162Y-131614683D01*
X293229204Y-131422046D01*
X293385000Y-131266250D01*
X293385000Y-131223690D01*
X293288327Y-130990301D01*
X293109698Y-130811673D01*
X292876309Y-130715000D01*
X292285750Y-130715000D01*
X292127000Y-130873750D01*
X292127000Y-131202560D01*
X291873000Y-131202560D01*
X291873000Y-130873750D01*
X291714250Y-130715000D01*
X291123691Y-130715000D01*
X290890302Y-130811673D01*
X290711673Y-130990301D01*
X290615000Y-131223690D01*
X290615000Y-131266250D01*
X290637750Y-131289000D01*
X283724506Y-131289000D01*
X280609440Y-128173934D01*
X280609440Y-127008000D01*
X280565162Y-126772683D01*
X280469952Y-126624721D01*
X290365280Y-126624721D01*
X290365280Y-126691975D01*
X290524030Y-126850725D01*
X291173000Y-126850725D01*
X291173000Y-126274780D01*
X291427000Y-126274780D01*
X291427000Y-126850725D01*
X292075970Y-126850725D01*
X292234720Y-126691975D01*
X292234720Y-126624721D01*
X292138047Y-126391332D01*
X291959419Y-126212703D01*
X291726030Y-126116030D01*
X291585750Y-126116030D01*
X291427000Y-126274780D01*
X291173000Y-126274780D01*
X291014250Y-126116030D01*
X290873970Y-126116030D01*
X290640581Y-126212703D01*
X290461953Y-126391332D01*
X290365280Y-126624721D01*
X280469952Y-126624721D01*
X280426090Y-126556559D01*
X280213890Y-126411569D01*
X279962000Y-126360560D01*
X278438000Y-126360560D01*
X278202683Y-126404838D01*
X277986559Y-126543910D01*
X277841569Y-126756110D01*
X277790560Y-127008000D01*
X277790560Y-128532000D01*
X277834838Y-128767317D01*
X277973910Y-128983441D01*
X278186110Y-129128431D01*
X278369124Y-129165492D01*
X278016371Y-129517630D01*
X277803243Y-130030900D01*
X277802758Y-130586661D01*
X278014990Y-131100303D01*
X278407630Y-131493629D01*
X278615512Y-131579949D01*
X278409697Y-131664990D01*
X278016371Y-132057630D01*
X277803243Y-132570900D01*
X277802758Y-133126661D01*
X278014990Y-133640303D01*
X278407630Y-134033629D01*
X278615512Y-134119949D01*
X278409697Y-134204990D01*
X278016371Y-134597630D01*
X277803243Y-135110900D01*
X277802758Y-135666661D01*
X278014990Y-136180303D01*
X278407630Y-136573629D01*
X278615512Y-136659949D01*
X278409697Y-136744990D01*
X278016371Y-137137630D01*
X277803243Y-137650900D01*
X277802758Y-138206661D01*
X278014990Y-138720303D01*
X278407630Y-139113629D01*
X278920900Y-139326757D01*
X279476661Y-139327242D01*
X279990303Y-139115010D01*
X280383629Y-138722370D01*
X280596757Y-138209100D01*
X280597242Y-137653339D01*
X280563596Y-137571910D01*
X280924506Y-137211000D01*
X290620256Y-137211000D01*
X290615000Y-137223690D01*
X290615000Y-137276310D01*
X290707656Y-137500000D01*
X290615000Y-137723690D01*
X290615000Y-137776310D01*
X290620256Y-137789000D01*
X282300000Y-137789000D01*
X282027912Y-137843122D01*
X281797247Y-137997247D01*
X279691934Y-140102560D01*
X278350000Y-140102560D01*
X278114683Y-140146838D01*
X277898559Y-140285910D01*
X277753569Y-140498110D01*
X277702560Y-140750000D01*
X277702560Y-142450000D01*
X277746838Y-142685317D01*
X277885910Y-142901441D01*
X278098110Y-143046431D01*
X278350000Y-143097440D01*
X280050000Y-143097440D01*
X280285317Y-143053162D01*
X280501441Y-142914090D01*
X280646431Y-142701890D01*
X280697440Y-142450000D01*
X280697440Y-141108066D01*
X282594506Y-139211000D01*
X290614038Y-139211000D01*
X290640874Y-139353620D01*
X289997247Y-139997247D01*
X289843122Y-140227912D01*
X289789000Y-140500000D01*
X289789000Y-140839420D01*
X289775750Y-140839420D01*
X289651610Y-140754599D01*
X289399720Y-140703590D01*
X289184308Y-140703590D01*
X289100000Y-140686820D01*
X287999580Y-140686820D01*
X287692673Y-140747868D01*
X287669095Y-140752558D01*
X287388923Y-140939763D01*
X286289343Y-142039343D01*
X286102138Y-142319515D01*
X286036400Y-142650000D01*
X286036400Y-143111820D01*
X284546440Y-143111820D01*
X284545713Y-143107961D01*
X284589817Y-143099662D01*
X284805941Y-142960590D01*
X284950931Y-142748390D01*
X285001940Y-142496500D01*
X285001940Y-141353500D01*
X284957662Y-141118183D01*
X284818590Y-140902059D01*
X284606390Y-140757069D01*
X284354500Y-140706060D01*
X283719500Y-140706060D01*
X283484183Y-140750338D01*
X283477667Y-140754531D01*
X283488846Y-140727609D01*
X283489154Y-140373943D01*
X283354097Y-140047080D01*
X283104236Y-139796782D01*
X282777609Y-139661154D01*
X282423943Y-139660846D01*
X282097080Y-139795903D01*
X281846782Y-140045764D01*
X281776874Y-140214121D01*
X281715138Y-140306515D01*
X281649400Y-140637000D01*
X281649400Y-141027948D01*
X281599069Y-141101610D01*
X281548060Y-141353500D01*
X281548060Y-142496500D01*
X281561400Y-142567396D01*
X281561400Y-146524580D01*
X281604250Y-146740000D01*
X281627138Y-146855065D01*
X281633776Y-146865000D01*
X277535000Y-146865000D01*
X277535000Y-124900213D01*
X278499392Y-124900213D01*
X278568857Y-125142397D01*
X279092302Y-125329144D01*
X279647368Y-125301362D01*
X280031143Y-125142397D01*
X280100608Y-124900213D01*
X279300000Y-124099605D01*
X278499392Y-124900213D01*
X277535000Y-124900213D01*
X277535000Y-123712302D01*
X277890856Y-123712302D01*
X277918638Y-124267368D01*
X278077603Y-124651143D01*
X278319787Y-124720608D01*
X279120395Y-123920000D01*
X279479605Y-123920000D01*
X280280213Y-124720608D01*
X280522397Y-124651143D01*
X280709144Y-124127698D01*
X280681362Y-123572632D01*
X280522397Y-123188857D01*
X280280213Y-123119392D01*
X279479605Y-123920000D01*
X279120395Y-123920000D01*
X278319787Y-123119392D01*
X278077603Y-123188857D01*
X277890856Y-123712302D01*
X277535000Y-123712302D01*
X277535000Y-119610000D01*
X283036663Y-119610000D01*
X282974069Y-119701610D01*
X282974069Y-119701610D01*
G37*
X282974069Y-119701610D02*
X282923060Y-119953500D01*
X282923060Y-120268625D01*
X282675286Y-120516400D01*
X280690323Y-120516400D01*
X280665162Y-120382683D01*
X280526090Y-120166559D01*
X280313890Y-120021569D01*
X280062000Y-119970560D01*
X278538000Y-119970560D01*
X278302683Y-120014838D01*
X278086559Y-120153910D01*
X277941569Y-120366110D01*
X277890560Y-120618000D01*
X277890560Y-122142000D01*
X277934838Y-122377317D01*
X278073910Y-122593441D01*
X278286110Y-122738431D01*
X278538000Y-122789440D01*
X278542516Y-122789440D01*
X278499392Y-122939787D01*
X279300000Y-123740395D01*
X280100608Y-122939787D01*
X280057484Y-122789440D01*
X280062000Y-122789440D01*
X280297317Y-122745162D01*
X280513441Y-122606090D01*
X280658431Y-122393890D01*
X280688865Y-122243600D01*
X282936400Y-122243600D01*
X282936400Y-124075000D01*
X282936820Y-124077111D01*
X282936820Y-125175000D01*
X282953590Y-125259308D01*
X282953590Y-125474720D01*
X282997868Y-125710037D01*
X283136940Y-125926161D01*
X283349140Y-126071151D01*
X283601030Y-126122160D01*
X283999810Y-126122160D01*
X284235127Y-126077882D01*
X284259364Y-126062286D01*
X284373881Y-126109720D01*
X284441135Y-126109720D01*
X284599885Y-125950970D01*
X284599885Y-125708615D01*
X284647250Y-125474720D01*
X284647250Y-125302000D01*
X284799275Y-125302000D01*
X284799275Y-125950970D01*
X284958025Y-126109720D01*
X285025279Y-126109720D01*
X285258668Y-126013047D01*
X285437297Y-125834419D01*
X285533970Y-125601030D01*
X285533970Y-125460750D01*
X285375220Y-125302000D01*
X284799275Y-125302000D01*
X284647250Y-125302000D01*
X284647250Y-125259308D01*
X284664020Y-125175000D01*
X284664020Y-125044802D01*
X284753313Y-125028000D01*
X284756791Y-125028000D01*
X284773690Y-125035000D01*
X284799275Y-125035000D01*
X284799275Y-125048000D01*
X285375220Y-125048000D01*
X285388220Y-125035000D01*
X285426310Y-125035000D01*
X285659699Y-124938327D01*
X285838327Y-124759698D01*
X285935000Y-124526309D01*
X285935000Y-124360750D01*
X285823735Y-124249485D01*
X285923000Y-124150220D01*
X285923000Y-123801250D01*
X285935000Y-123789250D01*
X285935000Y-123623691D01*
X285923000Y-123594720D01*
X285923000Y-123574275D01*
X286177000Y-123574275D01*
X286177000Y-124150220D01*
X286335750Y-124308970D01*
X286476030Y-124308970D01*
X286709419Y-124212297D01*
X286888047Y-124033668D01*
X286984720Y-123800279D01*
X286984720Y-123755750D01*
X288853000Y-123755750D01*
X288853000Y-124358309D01*
X288949673Y-124591698D01*
X289128301Y-124770327D01*
X289361690Y-124867000D01*
X289964250Y-124867000D01*
X290123000Y-124708250D01*
X290123000Y-123597000D01*
X290377000Y-123597000D01*
X290377000Y-124708250D01*
X290535750Y-124867000D01*
X291138310Y-124867000D01*
X291371699Y-124770327D01*
X291550327Y-124591698D01*
X291647000Y-124358309D01*
X291647000Y-123894191D01*
X293143500Y-123894191D01*
X293143500Y-124052250D01*
X293302250Y-124211000D01*
X294223000Y-124211000D01*
X294223000Y-123544250D01*
X294477000Y-123544250D01*
X294477000Y-124211000D01*
X295397750Y-124211000D01*
X295534029Y-124074721D01*
X295715280Y-124074721D01*
X295715280Y-124141975D01*
X295874030Y-124300725D01*
X296523000Y-124300725D01*
X296523000Y-123724780D01*
X296777000Y-123724780D01*
X296777000Y-124300725D01*
X297425970Y-124300725D01*
X297584720Y-124141975D01*
X297584720Y-124074721D01*
X297551364Y-123994191D01*
X297693500Y-123994191D01*
X297693500Y-124152250D01*
X297852250Y-124311000D01*
X298773000Y-124311000D01*
X298773000Y-123644250D01*
X298614250Y-123485500D01*
X298202190Y-123485500D01*
X297968801Y-123582173D01*
X297790173Y-123760802D01*
X297693500Y-123994191D01*
X297551364Y-123994191D01*
X297488047Y-123841332D01*
X297309419Y-123662703D01*
X297076030Y-123566030D01*
X296935750Y-123566030D01*
X296777000Y-123724780D01*
X296523000Y-123724780D01*
X296364250Y-123566030D01*
X296223970Y-123566030D01*
X295990581Y-123662703D01*
X295811953Y-123841332D01*
X295715280Y-124074721D01*
X295534029Y-124074721D01*
X295556500Y-124052250D01*
X295556500Y-123894191D01*
X295459827Y-123660802D01*
X295281199Y-123482173D01*
X295047810Y-123385500D01*
X294635750Y-123385500D01*
X294477000Y-123544250D01*
X294223000Y-123544250D01*
X294064250Y-123385500D01*
X293652190Y-123385500D01*
X293418801Y-123482173D01*
X293240173Y-123660802D01*
X293143500Y-123894191D01*
X291647000Y-123894191D01*
X291647000Y-123755750D01*
X291488250Y-123597000D01*
X290377000Y-123597000D01*
X290123000Y-123597000D01*
X289011750Y-123597000D01*
X288853000Y-123755750D01*
X286984720Y-123755750D01*
X286984720Y-123733025D01*
X286825970Y-123574275D01*
X286177000Y-123574275D01*
X285923000Y-123574275D01*
X285914531Y-123574275D01*
X285903000Y-123546437D01*
X285903000Y-123422250D01*
X285965692Y-123422250D01*
X286050000Y-123439020D01*
X288604580Y-123439020D01*
X288935065Y-123373282D01*
X288999187Y-123330437D01*
X289011750Y-123343000D01*
X290123000Y-123343000D01*
X290123000Y-123323000D01*
X290377000Y-123323000D01*
X290377000Y-123343000D01*
X291488250Y-123343000D01*
X291647000Y-123184250D01*
X291647000Y-122581691D01*
X291550327Y-122348302D01*
X291371699Y-122169673D01*
X291138310Y-122073000D01*
X291082386Y-122073000D01*
X291362275Y-121793600D01*
X299622286Y-121793600D01*
X303122998Y-125294313D01*
X303122998Y-125324778D01*
X302964250Y-125166030D01*
X302823970Y-125166030D01*
X302750000Y-125196669D01*
X302676030Y-125166030D01*
X302535750Y-125166030D01*
X302377000Y-125324780D01*
X302377000Y-125525716D01*
X302315280Y-125674721D01*
X302315280Y-125741975D01*
X302377000Y-125803695D01*
X302377000Y-125900725D01*
X303123000Y-125900725D01*
X303123000Y-125853420D01*
X303377000Y-125853420D01*
X303377000Y-125900725D01*
X303397000Y-125900725D01*
X303397000Y-126035980D01*
X303250000Y-126035980D01*
X303165692Y-126052750D01*
X302950280Y-126052750D01*
X302742648Y-126091819D01*
X302549720Y-126052750D01*
X302103000Y-126052750D01*
X302103000Y-125900725D01*
X302123000Y-125900725D01*
X302123000Y-125324780D01*
X301964250Y-125166030D01*
X301823970Y-125166030D01*
X301590581Y-125262703D01*
X301432263Y-125421021D01*
X301402882Y-125264873D01*
X301387286Y-125240636D01*
X301434720Y-125126119D01*
X301434720Y-125058865D01*
X301275970Y-124900115D01*
X301033615Y-124900115D01*
X300799720Y-124852750D01*
X300353000Y-124852750D01*
X300353000Y-124700725D01*
X300373000Y-124700725D01*
X300373000Y-124124780D01*
X300627000Y-124124780D01*
X300627000Y-124700725D01*
X301275970Y-124700725D01*
X301434720Y-124541975D01*
X301434720Y-124474721D01*
X301338047Y-124241332D01*
X301159419Y-124062703D01*
X300926030Y-123966030D01*
X300785750Y-123966030D01*
X300627000Y-124124780D01*
X300373000Y-124124780D01*
X300214250Y-123966030D01*
X300094835Y-123966030D01*
X300009827Y-123760802D01*
X299831199Y-123582173D01*
X299597810Y-123485500D01*
X299185750Y-123485500D01*
X299027000Y-123644250D01*
X299027000Y-124311000D01*
X299047000Y-124311000D01*
X299047000Y-124565000D01*
X299027000Y-124565000D01*
X299027000Y-124585000D01*
X298773000Y-124585000D01*
X298773000Y-124565000D01*
X297852250Y-124565000D01*
X297693500Y-124723750D01*
X297693500Y-124881809D01*
X297790173Y-125115198D01*
X297868261Y-125193286D01*
X297732069Y-125392610D01*
X297681060Y-125644500D01*
X297681060Y-126175434D01*
X297661000Y-126195494D01*
X297661000Y-125599580D01*
X297606878Y-125327492D01*
X297597160Y-125312948D01*
X297597160Y-125100190D01*
X297552882Y-124864873D01*
X297537286Y-124840636D01*
X297584720Y-124726119D01*
X297584720Y-124658865D01*
X297425970Y-124500115D01*
X297183615Y-124500115D01*
X296949720Y-124452750D01*
X296350280Y-124452750D01*
X296114963Y-124497028D01*
X296110166Y-124500115D01*
X295874030Y-124500115D01*
X295715280Y-124658865D01*
X295715280Y-124726119D01*
X295761345Y-124837329D01*
X295753849Y-124848300D01*
X295702840Y-125100190D01*
X295702840Y-125498970D01*
X295747118Y-125734287D01*
X295886190Y-125950411D01*
X296098390Y-126095401D01*
X296239000Y-126123875D01*
X296239000Y-126745494D01*
X295568940Y-126075434D01*
X295568940Y-125544500D01*
X295524662Y-125309183D01*
X295385590Y-125093059D01*
X295383437Y-125091588D01*
X295459827Y-125015198D01*
X295556500Y-124781809D01*
X295556500Y-124623750D01*
X295397750Y-124465000D01*
X294477000Y-124465000D01*
X294477000Y-124485000D01*
X294223000Y-124485000D01*
X294223000Y-124465000D01*
X293302250Y-124465000D01*
X293143500Y-124623750D01*
X293143500Y-124781809D01*
X293240173Y-125015198D01*
X293318261Y-125093286D01*
X293182069Y-125292610D01*
X293131060Y-125544500D01*
X293131060Y-126179500D01*
X293175338Y-126414817D01*
X293314410Y-126630941D01*
X293526610Y-126775931D01*
X293778500Y-126826940D01*
X294309434Y-126826940D01*
X295239000Y-127756506D01*
X295239000Y-127783494D01*
X295152753Y-127697247D01*
X294922088Y-127543122D01*
X294650000Y-127489000D01*
X292216830Y-127489000D01*
X292202882Y-127414873D01*
X292187286Y-127390636D01*
X292234720Y-127276119D01*
X292234720Y-127208865D01*
X292075970Y-127050115D01*
X291833615Y-127050115D01*
X291599720Y-127002750D01*
X291000280Y-127002750D01*
X290764963Y-127047028D01*
X290760166Y-127050115D01*
X290524030Y-127050115D01*
X290365280Y-127208865D01*
X290365280Y-127276119D01*
X290411345Y-127387329D01*
X290403849Y-127398300D01*
X290352840Y-127650190D01*
X290352840Y-128048970D01*
X290397118Y-128284287D01*
X290536190Y-128500411D01*
X290748390Y-128645401D01*
X291000280Y-128696410D01*
X291141324Y-128696410D01*
X291147667Y-128702753D01*
X291378332Y-128856878D01*
X291650420Y-128911000D01*
X293165000Y-128911000D01*
X293165000Y-129264250D01*
X293323750Y-129423000D01*
X294097000Y-129423000D01*
X294097000Y-129677000D01*
X293323750Y-129677000D01*
X293165000Y-129835750D01*
X293165000Y-130426309D01*
X293261673Y-130659698D01*
X293440301Y-130838327D01*
X293673690Y-130935000D01*
X293716250Y-130935000D01*
X293875000Y-130776250D01*
X293875000Y-130773026D01*
X293940301Y-130838327D01*
X294173690Y-130935000D01*
X294226310Y-130935000D01*
X294459699Y-130838327D01*
X294461068Y-130836958D01*
X294548110Y-130896431D01*
X294669830Y-130921080D01*
X294683750Y-130935000D01*
X294726310Y-130935000D01*
X294730335Y-130933333D01*
X294800000Y-130947440D01*
X295100000Y-130947440D01*
X295203671Y-130927933D01*
X295300000Y-130947440D01*
X295600000Y-130947440D01*
X295703671Y-130927933D01*
X295800000Y-130947440D01*
X296100000Y-130947440D01*
X296203671Y-130927933D01*
X296300000Y-130947440D01*
X296600000Y-130947440D01*
X296703671Y-130927933D01*
X296800000Y-130947440D01*
X297100000Y-130947440D01*
X297171323Y-130934020D01*
X297173690Y-130935000D01*
X297216250Y-130935000D01*
X297227871Y-130923379D01*
X297335317Y-130903162D01*
X297449978Y-130829380D01*
X297548110Y-130896431D01*
X297669830Y-130921080D01*
X297683750Y-130935000D01*
X297726310Y-130935000D01*
X297730335Y-130933333D01*
X297800000Y-130947440D01*
X298100000Y-130947440D01*
X298171323Y-130934020D01*
X298173690Y-130935000D01*
X298216250Y-130935000D01*
X298227871Y-130923379D01*
X298335317Y-130903162D01*
X298449978Y-130829380D01*
X298548110Y-130896431D01*
X298669830Y-130921080D01*
X298683750Y-130935000D01*
X298726310Y-130935000D01*
X298730335Y-130933333D01*
X298800000Y-130947440D01*
X299100000Y-130947440D01*
X299203671Y-130927933D01*
X299300000Y-130947440D01*
X299600000Y-130947440D01*
X299671323Y-130934020D01*
X299673690Y-130935000D01*
X299716250Y-130935000D01*
X299727871Y-130923379D01*
X299771842Y-130915106D01*
X299793122Y-131022088D01*
X299947247Y-131252753D01*
X300177912Y-131406878D01*
X300339000Y-131438921D01*
X300339000Y-134750000D01*
X300393122Y-135022088D01*
X300547247Y-135252753D01*
X301797247Y-136502753D01*
X302002560Y-136639938D01*
X302002560Y-136650000D01*
X302022067Y-136753671D01*
X302002560Y-136850000D01*
X302002560Y-137150000D01*
X302022067Y-137253671D01*
X302002560Y-137350000D01*
X302002560Y-137650000D01*
X302022067Y-137753671D01*
X302002560Y-137850000D01*
X302002560Y-138150000D01*
X302022067Y-138253671D01*
X302014913Y-138289000D01*
X299600000Y-138289000D01*
X299327912Y-138343122D01*
X299172208Y-138447160D01*
X299097247Y-138497247D01*
X298605494Y-138989000D01*
X296700000Y-138989000D01*
X296427912Y-139043122D01*
X296197247Y-139197247D01*
X295947247Y-139447247D01*
X295909398Y-139503892D01*
X295702753Y-139297247D01*
X295472088Y-139143122D01*
X295200000Y-139089000D01*
X294494506Y-139089000D01*
X293902753Y-138497247D01*
X293672088Y-138343122D01*
X293400000Y-138289000D01*
X293385962Y-138289000D01*
X293384020Y-138278677D01*
X293385000Y-138276310D01*
X293385000Y-138233750D01*
X293373379Y-138222129D01*
X293353162Y-138114683D01*
X293286672Y-138011354D01*
X293288327Y-138009699D01*
X293385000Y-137776310D01*
X293385000Y-137723690D01*
X293292344Y-137500000D01*
X293385000Y-137276310D01*
X293385000Y-137223690D01*
X293288327Y-136990301D01*
X293286958Y-136988932D01*
X293346431Y-136901890D01*
X293371080Y-136780170D01*
X293385000Y-136766250D01*
X293385000Y-136723690D01*
X293383333Y-136719665D01*
X293397440Y-136650000D01*
X293397440Y-136350000D01*
X293384020Y-136278677D01*
X293385000Y-136276310D01*
X293385000Y-136233750D01*
X293373379Y-136222129D01*
X293353162Y-136114683D01*
X293286672Y-136011354D01*
X293288327Y-136009699D01*
X293385000Y-135776310D01*
X293385000Y-135723690D01*
X293288327Y-135490301D01*
X293286958Y-135488932D01*
X293346431Y-135401890D01*
X293371080Y-135280170D01*
X293385000Y-135266250D01*
X293385000Y-135223690D01*
X293383333Y-135219665D01*
X293397440Y-135150000D01*
X293397440Y-134850000D01*
X293377933Y-134746329D01*
X293397440Y-134650000D01*
X293397440Y-134350000D01*
X293384020Y-134278677D01*
X293385000Y-134276310D01*
X293385000Y-134233750D01*
X293373379Y-134222129D01*
X293353162Y-134114683D01*
X293279380Y-134000022D01*
X293346431Y-133901890D01*
X293371080Y-133780170D01*
X293385000Y-133766250D01*
X293385000Y-133723690D01*
X293383333Y-133719665D01*
X293397440Y-133650000D01*
X293397440Y-133350000D01*
X293377933Y-133246329D01*
X293397440Y-133150000D01*
X293397440Y-132850000D01*
X293377933Y-132746329D01*
X293397440Y-132650000D01*
X293397440Y-132350000D01*
X293377933Y-132246329D01*
X293397440Y-132150000D01*
X293397440Y-131850000D01*
X293384020Y-131778677D01*
X293385000Y-131776310D01*
X293385000Y-131733750D01*
X293373379Y-131722129D01*
X293353162Y-131614683D01*
X293229204Y-131422046D01*
X293385000Y-131266250D01*
X293385000Y-131223690D01*
X293288327Y-130990301D01*
X293109698Y-130811673D01*
X292876309Y-130715000D01*
X292285750Y-130715000D01*
X292127000Y-130873750D01*
X292127000Y-131202560D01*
X291873000Y-131202560D01*
X291873000Y-130873750D01*
X291714250Y-130715000D01*
X291123691Y-130715000D01*
X290890302Y-130811673D01*
X290711673Y-130990301D01*
X290615000Y-131223690D01*
X290615000Y-131266250D01*
X290637750Y-131289000D01*
X283724506Y-131289000D01*
X280609440Y-128173934D01*
X280609440Y-127008000D01*
X280565162Y-126772683D01*
X280469952Y-126624721D01*
X290365280Y-126624721D01*
X290365280Y-126691975D01*
X290524030Y-126850725D01*
X291173000Y-126850725D01*
X291173000Y-126274780D01*
X291427000Y-126274780D01*
X291427000Y-126850725D01*
X292075970Y-126850725D01*
X292234720Y-126691975D01*
X292234720Y-126624721D01*
X292138047Y-126391332D01*
X291959419Y-126212703D01*
X291726030Y-126116030D01*
X291585750Y-126116030D01*
X291427000Y-126274780D01*
X291173000Y-126274780D01*
X291014250Y-126116030D01*
X290873970Y-126116030D01*
X290640581Y-126212703D01*
X290461953Y-126391332D01*
X290365280Y-126624721D01*
X280469952Y-126624721D01*
X280426090Y-126556559D01*
X280213890Y-126411569D01*
X279962000Y-126360560D01*
X278438000Y-126360560D01*
X278202683Y-126404838D01*
X277986559Y-126543910D01*
X277841569Y-126756110D01*
X277790560Y-127008000D01*
X277790560Y-128532000D01*
X277834838Y-128767317D01*
X277973910Y-128983441D01*
X278186110Y-129128431D01*
X278369124Y-129165492D01*
X278016371Y-129517630D01*
X277803243Y-130030900D01*
X277802758Y-130586661D01*
X278014990Y-131100303D01*
X278407630Y-131493629D01*
X278615512Y-131579949D01*
X278409697Y-131664990D01*
X278016371Y-132057630D01*
X277803243Y-132570900D01*
X277802758Y-133126661D01*
X278014990Y-133640303D01*
X278407630Y-134033629D01*
X278615512Y-134119949D01*
X278409697Y-134204990D01*
X278016371Y-134597630D01*
X277803243Y-135110900D01*
X277802758Y-135666661D01*
X278014990Y-136180303D01*
X278407630Y-136573629D01*
X278615512Y-136659949D01*
X278409697Y-136744990D01*
X278016371Y-137137630D01*
X277803243Y-137650900D01*
X277802758Y-138206661D01*
X278014990Y-138720303D01*
X278407630Y-139113629D01*
X278920900Y-139326757D01*
X279476661Y-139327242D01*
X279990303Y-139115010D01*
X280383629Y-138722370D01*
X280596757Y-138209100D01*
X280597242Y-137653339D01*
X280563596Y-137571910D01*
X280924506Y-137211000D01*
X290620256Y-137211000D01*
X290615000Y-137223690D01*
X290615000Y-137276310D01*
X290707656Y-137500000D01*
X290615000Y-137723690D01*
X290615000Y-137776310D01*
X290620256Y-137789000D01*
X282300000Y-137789000D01*
X282027912Y-137843122D01*
X281797247Y-137997247D01*
X279691934Y-140102560D01*
X278350000Y-140102560D01*
X278114683Y-140146838D01*
X277898559Y-140285910D01*
X277753569Y-140498110D01*
X277702560Y-140750000D01*
X277702560Y-142450000D01*
X277746838Y-142685317D01*
X277885910Y-142901441D01*
X278098110Y-143046431D01*
X278350000Y-143097440D01*
X280050000Y-143097440D01*
X280285317Y-143053162D01*
X280501441Y-142914090D01*
X280646431Y-142701890D01*
X280697440Y-142450000D01*
X280697440Y-141108066D01*
X282594506Y-139211000D01*
X290614038Y-139211000D01*
X290640874Y-139353620D01*
X289997247Y-139997247D01*
X289843122Y-140227912D01*
X289789000Y-140500000D01*
X289789000Y-140839420D01*
X289775750Y-140839420D01*
X289651610Y-140754599D01*
X289399720Y-140703590D01*
X289184308Y-140703590D01*
X289100000Y-140686820D01*
X287999580Y-140686820D01*
X287692673Y-140747868D01*
X287669095Y-140752558D01*
X287388923Y-140939763D01*
X286289343Y-142039343D01*
X286102138Y-142319515D01*
X286036400Y-142650000D01*
X286036400Y-143111820D01*
X284546440Y-143111820D01*
X284545713Y-143107961D01*
X284589817Y-143099662D01*
X284805941Y-142960590D01*
X284950931Y-142748390D01*
X285001940Y-142496500D01*
X285001940Y-141353500D01*
X284957662Y-141118183D01*
X284818590Y-140902059D01*
X284606390Y-140757069D01*
X284354500Y-140706060D01*
X283719500Y-140706060D01*
X283484183Y-140750338D01*
X283477667Y-140754531D01*
X283488846Y-140727609D01*
X283489154Y-140373943D01*
X283354097Y-140047080D01*
X283104236Y-139796782D01*
X282777609Y-139661154D01*
X282423943Y-139660846D01*
X282097080Y-139795903D01*
X281846782Y-140045764D01*
X281776874Y-140214121D01*
X281715138Y-140306515D01*
X281649400Y-140637000D01*
X281649400Y-141027948D01*
X281599069Y-141101610D01*
X281548060Y-141353500D01*
X281548060Y-142496500D01*
X281561400Y-142567396D01*
X281561400Y-146524580D01*
X281604250Y-146740000D01*
X281627138Y-146855065D01*
X281633776Y-146865000D01*
X277535000Y-146865000D01*
X277535000Y-124900213D01*
X278499392Y-124900213D01*
X278568857Y-125142397D01*
X279092302Y-125329144D01*
X279647368Y-125301362D01*
X280031143Y-125142397D01*
X280100608Y-124900213D01*
X279300000Y-124099605D01*
X278499392Y-124900213D01*
X277535000Y-124900213D01*
X277535000Y-123712302D01*
X277890856Y-123712302D01*
X277918638Y-124267368D01*
X278077603Y-124651143D01*
X278319787Y-124720608D01*
X279120395Y-123920000D01*
X279479605Y-123920000D01*
X280280213Y-124720608D01*
X280522397Y-124651143D01*
X280709144Y-124127698D01*
X280681362Y-123572632D01*
X280522397Y-123188857D01*
X280280213Y-123119392D01*
X279479605Y-123920000D01*
X279120395Y-123920000D01*
X278319787Y-123119392D01*
X278077603Y-123188857D01*
X277890856Y-123712302D01*
X277535000Y-123712302D01*
X277535000Y-119610000D01*
X283036663Y-119610000D01*
X282974069Y-119701610D01*
G36*
X297940301Y-142238327D02*
X298173690Y-142335000D01*
X298226310Y-142335000D01*
X298239000Y-142329744D01*
X298239000Y-142750000D01*
X298293122Y-143022088D01*
X298447247Y-143252753D01*
X298737375Y-143542881D01*
X298691332Y-143561953D01*
X298512703Y-143740581D01*
X298416433Y-143972998D01*
X298275222Y-143972998D01*
X298433970Y-143814250D01*
X298433970Y-143673970D01*
X298337297Y-143440581D01*
X298158668Y-143261953D01*
X297925279Y-143165280D01*
X297858025Y-143165280D01*
X297726582Y-143296723D01*
X297726582Y-143165280D01*
X297661000Y-143165280D01*
X297661000Y-142335962D01*
X297671323Y-142334020D01*
X297673690Y-142335000D01*
X297716250Y-142335000D01*
X297727871Y-142323379D01*
X297835317Y-142303162D01*
X297938646Y-142236672D01*
X297940301Y-142238327D01*
X297940301Y-142238327D01*
G37*
X297940301Y-142238327D02*
X298173690Y-142335000D01*
X298226310Y-142335000D01*
X298239000Y-142329744D01*
X298239000Y-142750000D01*
X298293122Y-143022088D01*
X298447247Y-143252753D01*
X298737375Y-143542881D01*
X298691332Y-143561953D01*
X298512703Y-143740581D01*
X298416433Y-143972998D01*
X298275222Y-143972998D01*
X298433970Y-143814250D01*
X298433970Y-143673970D01*
X298337297Y-143440581D01*
X298158668Y-143261953D01*
X297925279Y-143165280D01*
X297858025Y-143165280D01*
X297726582Y-143296723D01*
X297726582Y-143165280D01*
X297661000Y-143165280D01*
X297661000Y-142335962D01*
X297671323Y-142334020D01*
X297673690Y-142335000D01*
X297716250Y-142335000D01*
X297727871Y-142323379D01*
X297835317Y-142303162D01*
X297938646Y-142236672D01*
X297940301Y-142238327D01*
G36*
X315590000Y-142860660D02*
X315550000Y-142852560D01*
X313850000Y-142852560D01*
X313667924Y-142886820D01*
X310816118Y-142886820D01*
X310851441Y-142864090D01*
X310996431Y-142651890D01*
X311047440Y-142400000D01*
X311047440Y-140700000D01*
X311003162Y-140464683D01*
X310864090Y-140248559D01*
X310651890Y-140103569D01*
X310400000Y-140052560D01*
X308700000Y-140052560D01*
X308464683Y-140096838D01*
X308248559Y-140235910D01*
X308103569Y-140448110D01*
X308071414Y-140606896D01*
X308050000Y-140602560D01*
X307661000Y-140602560D01*
X307661000Y-137466086D01*
X307853590Y-137658676D01*
X307853590Y-137799720D01*
X307897868Y-138035037D01*
X308036940Y-138251161D01*
X308249140Y-138396151D01*
X308501030Y-138447160D01*
X308899810Y-138447160D01*
X309135127Y-138402882D01*
X309146984Y-138395252D01*
X309148300Y-138396151D01*
X309400190Y-138447160D01*
X309798970Y-138447160D01*
X310034287Y-138402882D01*
X310250411Y-138263810D01*
X310286495Y-138211000D01*
X310925494Y-138211000D01*
X312086149Y-139371655D01*
X312053243Y-139450900D01*
X312052758Y-140006661D01*
X312264990Y-140520303D01*
X312657630Y-140913629D01*
X313170900Y-141126757D01*
X313726661Y-141127242D01*
X314240303Y-140915010D01*
X314633629Y-140522370D01*
X314846757Y-140009100D01*
X314847242Y-139453339D01*
X314635010Y-138939697D01*
X314242370Y-138546371D01*
X314034488Y-138460051D01*
X314240303Y-138375010D01*
X314633629Y-137982370D01*
X314846757Y-137469100D01*
X314847242Y-136913339D01*
X314635010Y-136399697D01*
X314242370Y-136006371D01*
X314034488Y-135920051D01*
X314240303Y-135835010D01*
X314633629Y-135442370D01*
X314846757Y-134929100D01*
X314847242Y-134373339D01*
X314635010Y-133859697D01*
X314242370Y-133466371D01*
X314034488Y-133380051D01*
X314240303Y-133295010D01*
X314633629Y-132902370D01*
X314846757Y-132389100D01*
X314847242Y-131833339D01*
X314635010Y-131319697D01*
X314282167Y-130966237D01*
X314447317Y-130935162D01*
X314663441Y-130796090D01*
X314808431Y-130583890D01*
X314859440Y-130332000D01*
X314859440Y-128808000D01*
X314815162Y-128572683D01*
X314676090Y-128356559D01*
X314463890Y-128211569D01*
X314212000Y-128160560D01*
X312688000Y-128160560D01*
X312452683Y-128204838D01*
X312236559Y-128343910D01*
X312091569Y-128556110D01*
X312040560Y-128808000D01*
X312040560Y-129973934D01*
X311425494Y-130589000D01*
X310438903Y-130589000D01*
X310413060Y-130548839D01*
X310200860Y-130403849D01*
X309948970Y-130352840D01*
X309550190Y-130352840D01*
X309314873Y-130397118D01*
X309303016Y-130404748D01*
X309301700Y-130403849D01*
X309049810Y-130352840D01*
X308708346Y-130352840D01*
X308539102Y-130183596D01*
X308539154Y-130123943D01*
X308404097Y-129797080D01*
X308154236Y-129546782D01*
X307827609Y-129411154D01*
X307473943Y-129410846D01*
X307147080Y-129545903D01*
X306896782Y-129795764D01*
X306761154Y-130122391D01*
X306760846Y-130476057D01*
X306890151Y-130789000D01*
X304453745Y-130789000D01*
X304401890Y-130753569D01*
X304150000Y-130702560D01*
X303602946Y-130702560D01*
X303859096Y-130446410D01*
X304099720Y-130446410D01*
X304335037Y-130402132D01*
X304398486Y-130361303D01*
X304448390Y-130395401D01*
X304700280Y-130446410D01*
X305299720Y-130446410D01*
X305535037Y-130402132D01*
X305751161Y-130263060D01*
X305896151Y-130050860D01*
X305947160Y-129798970D01*
X305947160Y-129400190D01*
X305902882Y-129164873D01*
X305887286Y-129140636D01*
X305934720Y-129026119D01*
X305934720Y-128958865D01*
X305775970Y-128800115D01*
X305533615Y-128800115D01*
X305299720Y-128752750D01*
X304700280Y-128752750D01*
X304464963Y-128797028D01*
X304460166Y-128800115D01*
X304333615Y-128800115D01*
X304099720Y-128752750D01*
X303653000Y-128752750D01*
X303653000Y-128600725D01*
X303673000Y-128600725D01*
X303673000Y-128024780D01*
X303927000Y-128024780D01*
X303927000Y-128600725D01*
X304873000Y-128600725D01*
X304873000Y-128024780D01*
X305127000Y-128024780D01*
X305127000Y-128600725D01*
X305775970Y-128600725D01*
X305934720Y-128441975D01*
X305934720Y-128374721D01*
X305838047Y-128141332D01*
X305659419Y-127962703D01*
X305426030Y-127866030D01*
X305285750Y-127866030D01*
X305127000Y-128024780D01*
X304873000Y-128024780D01*
X304714250Y-127866030D01*
X304573970Y-127866030D01*
X304400000Y-127938091D01*
X304226030Y-127866030D01*
X304085750Y-127866030D01*
X303927000Y-128024780D01*
X303673000Y-128024780D01*
X303514250Y-127866030D01*
X303373970Y-127866030D01*
X303140581Y-127962703D01*
X302961953Y-128141332D01*
X302865280Y-128374721D01*
X302865280Y-128441975D01*
X302996723Y-128573418D01*
X302865280Y-128573418D01*
X302865280Y-128626796D01*
X302827609Y-128611154D01*
X302473943Y-128610846D01*
X302230755Y-128711329D01*
X302203162Y-128564683D01*
X302064090Y-128348559D01*
X301851890Y-128203569D01*
X301600000Y-128152560D01*
X301300000Y-128152560D01*
X301196329Y-128172067D01*
X301161000Y-128164913D01*
X301161000Y-127610580D01*
X301574250Y-127610580D01*
X301698390Y-127695401D01*
X301950280Y-127746410D01*
X302549720Y-127746410D01*
X302757352Y-127707341D01*
X302950280Y-127746410D01*
X303165692Y-127746410D01*
X303250000Y-127763180D01*
X305150420Y-127763180D01*
X305480905Y-127697442D01*
X305761077Y-127510237D01*
X305810658Y-127460657D01*
X305997862Y-127180485D01*
X306063600Y-126850000D01*
X306063600Y-126150000D01*
X305997862Y-125819515D01*
X305951988Y-125750860D01*
X305810658Y-125539343D01*
X300590657Y-120319343D01*
X300310485Y-120132138D01*
X299980000Y-120066400D01*
X291361841Y-120066400D01*
X291042370Y-119746371D01*
X290713952Y-119610000D01*
X315590000Y-119610000D01*
X315590000Y-142860660D01*
X315590000Y-142860660D01*
G37*
X315590000Y-142860660D02*
X315550000Y-142852560D01*
X313850000Y-142852560D01*
X313667924Y-142886820D01*
X310816118Y-142886820D01*
X310851441Y-142864090D01*
X310996431Y-142651890D01*
X311047440Y-142400000D01*
X311047440Y-140700000D01*
X311003162Y-140464683D01*
X310864090Y-140248559D01*
X310651890Y-140103569D01*
X310400000Y-140052560D01*
X308700000Y-140052560D01*
X308464683Y-140096838D01*
X308248559Y-140235910D01*
X308103569Y-140448110D01*
X308071414Y-140606896D01*
X308050000Y-140602560D01*
X307661000Y-140602560D01*
X307661000Y-137466086D01*
X307853590Y-137658676D01*
X307853590Y-137799720D01*
X307897868Y-138035037D01*
X308036940Y-138251161D01*
X308249140Y-138396151D01*
X308501030Y-138447160D01*
X308899810Y-138447160D01*
X309135127Y-138402882D01*
X309146984Y-138395252D01*
X309148300Y-138396151D01*
X309400190Y-138447160D01*
X309798970Y-138447160D01*
X310034287Y-138402882D01*
X310250411Y-138263810D01*
X310286495Y-138211000D01*
X310925494Y-138211000D01*
X312086149Y-139371655D01*
X312053243Y-139450900D01*
X312052758Y-140006661D01*
X312264990Y-140520303D01*
X312657630Y-140913629D01*
X313170900Y-141126757D01*
X313726661Y-141127242D01*
X314240303Y-140915010D01*
X314633629Y-140522370D01*
X314846757Y-140009100D01*
X314847242Y-139453339D01*
X314635010Y-138939697D01*
X314242370Y-138546371D01*
X314034488Y-138460051D01*
X314240303Y-138375010D01*
X314633629Y-137982370D01*
X314846757Y-137469100D01*
X314847242Y-136913339D01*
X314635010Y-136399697D01*
X314242370Y-136006371D01*
X314034488Y-135920051D01*
X314240303Y-135835010D01*
X314633629Y-135442370D01*
X314846757Y-134929100D01*
X314847242Y-134373339D01*
X314635010Y-133859697D01*
X314242370Y-133466371D01*
X314034488Y-133380051D01*
X314240303Y-133295010D01*
X314633629Y-132902370D01*
X314846757Y-132389100D01*
X314847242Y-131833339D01*
X314635010Y-131319697D01*
X314282167Y-130966237D01*
X314447317Y-130935162D01*
X314663441Y-130796090D01*
X314808431Y-130583890D01*
X314859440Y-130332000D01*
X314859440Y-128808000D01*
X314815162Y-128572683D01*
X314676090Y-128356559D01*
X314463890Y-128211569D01*
X314212000Y-128160560D01*
X312688000Y-128160560D01*
X312452683Y-128204838D01*
X312236559Y-128343910D01*
X312091569Y-128556110D01*
X312040560Y-128808000D01*
X312040560Y-129973934D01*
X311425494Y-130589000D01*
X310438903Y-130589000D01*
X310413060Y-130548839D01*
X310200860Y-130403849D01*
X309948970Y-130352840D01*
X309550190Y-130352840D01*
X309314873Y-130397118D01*
X309303016Y-130404748D01*
X309301700Y-130403849D01*
X309049810Y-130352840D01*
X308708346Y-130352840D01*
X308539102Y-130183596D01*
X308539154Y-130123943D01*
X308404097Y-129797080D01*
X308154236Y-129546782D01*
X307827609Y-129411154D01*
X307473943Y-129410846D01*
X307147080Y-129545903D01*
X306896782Y-129795764D01*
X306761154Y-130122391D01*
X306760846Y-130476057D01*
X306890151Y-130789000D01*
X304453745Y-130789000D01*
X304401890Y-130753569D01*
X304150000Y-130702560D01*
X303602946Y-130702560D01*
X303859096Y-130446410D01*
X304099720Y-130446410D01*
X304335037Y-130402132D01*
X304398486Y-130361303D01*
X304448390Y-130395401D01*
X304700280Y-130446410D01*
X305299720Y-130446410D01*
X305535037Y-130402132D01*
X305751161Y-130263060D01*
X305896151Y-130050860D01*
X305947160Y-129798970D01*
X305947160Y-129400190D01*
X305902882Y-129164873D01*
X305887286Y-129140636D01*
X305934720Y-129026119D01*
X305934720Y-128958865D01*
X305775970Y-128800115D01*
X305533615Y-128800115D01*
X305299720Y-128752750D01*
X304700280Y-128752750D01*
X304464963Y-128797028D01*
X304460166Y-128800115D01*
X304333615Y-128800115D01*
X304099720Y-128752750D01*
X303653000Y-128752750D01*
X303653000Y-128600725D01*
X303673000Y-128600725D01*
X303673000Y-128024780D01*
X303927000Y-128024780D01*
X303927000Y-128600725D01*
X304873000Y-128600725D01*
X304873000Y-128024780D01*
X305127000Y-128024780D01*
X305127000Y-128600725D01*
X305775970Y-128600725D01*
X305934720Y-128441975D01*
X305934720Y-128374721D01*
X305838047Y-128141332D01*
X305659419Y-127962703D01*
X305426030Y-127866030D01*
X305285750Y-127866030D01*
X305127000Y-128024780D01*
X304873000Y-128024780D01*
X304714250Y-127866030D01*
X304573970Y-127866030D01*
X304400000Y-127938091D01*
X304226030Y-127866030D01*
X304085750Y-127866030D01*
X303927000Y-128024780D01*
X303673000Y-128024780D01*
X303514250Y-127866030D01*
X303373970Y-127866030D01*
X303140581Y-127962703D01*
X302961953Y-128141332D01*
X302865280Y-128374721D01*
X302865280Y-128441975D01*
X302996723Y-128573418D01*
X302865280Y-128573418D01*
X302865280Y-128626796D01*
X302827609Y-128611154D01*
X302473943Y-128610846D01*
X302230755Y-128711329D01*
X302203162Y-128564683D01*
X302064090Y-128348559D01*
X301851890Y-128203569D01*
X301600000Y-128152560D01*
X301300000Y-128152560D01*
X301196329Y-128172067D01*
X301161000Y-128164913D01*
X301161000Y-127610580D01*
X301574250Y-127610580D01*
X301698390Y-127695401D01*
X301950280Y-127746410D01*
X302549720Y-127746410D01*
X302757352Y-127707341D01*
X302950280Y-127746410D01*
X303165692Y-127746410D01*
X303250000Y-127763180D01*
X305150420Y-127763180D01*
X305480905Y-127697442D01*
X305761077Y-127510237D01*
X305810658Y-127460657D01*
X305997862Y-127180485D01*
X306063600Y-126850000D01*
X306063600Y-126150000D01*
X305997862Y-125819515D01*
X305951988Y-125750860D01*
X305810658Y-125539343D01*
X300590657Y-120319343D01*
X300310485Y-120132138D01*
X299980000Y-120066400D01*
X291361841Y-120066400D01*
X291042370Y-119746371D01*
X290713952Y-119610000D01*
X315590000Y-119610000D01*
X315590000Y-142860660D01*
M02*
