G04 #@! TF.FileFunction,Legend,Top*
%FSLAX46Y46*%
G04 Gerber Fmt 4.6, Leading zero omitted, Abs format (unit mm)*
G04 Created by KiCad (PCBNEW 4.0.4-stable) date 03/15/17 00:52:14*
%MOMM*%
%LPD*%
G01*
G04 APERTURE LIST*
%ADD10C,0.150000*%
%ADD11C,0.100000*%
%ADD12C,0.125000*%
%ADD13C,0.200000*%
%ADD14C,0.120000*%
%ADD15C,0.152400*%
%ADD16C,0.152000*%
%ADD17C,0.250000*%
%ADD18C,0.127000*%
%ADD19C,0.071120*%
%ADD20C,0.060000*%
%ADD21C,0.114300*%
%ADD22C,0.080000*%
G04 APERTURE END LIST*
D10*
D11*
X292535714Y-120932143D02*
X292535714Y-120575000D01*
X292178571Y-120539286D01*
X292214286Y-120575000D01*
X292250000Y-120646429D01*
X292250000Y-120825000D01*
X292214286Y-120896429D01*
X292178571Y-120932143D01*
X292107143Y-120967858D01*
X291928571Y-120967858D01*
X291857143Y-120932143D01*
X291821429Y-120896429D01*
X291785714Y-120825000D01*
X291785714Y-120646429D01*
X291821429Y-120575000D01*
X291857143Y-120539286D01*
X292535714Y-121182144D02*
X291785714Y-121432144D01*
X292535714Y-121682144D01*
X292500000Y-123003572D02*
X292535714Y-122932143D01*
X292535714Y-122825000D01*
X292500000Y-122717857D01*
X292428571Y-122646429D01*
X292357143Y-122610714D01*
X292214286Y-122575000D01*
X292107143Y-122575000D01*
X291964286Y-122610714D01*
X291892857Y-122646429D01*
X291821429Y-122717857D01*
X291785714Y-122825000D01*
X291785714Y-122896429D01*
X291821429Y-123003572D01*
X291857143Y-123039286D01*
X292107143Y-123039286D01*
X292107143Y-122896429D01*
X291785714Y-123360714D02*
X292535714Y-123360714D01*
X291785714Y-123789286D01*
X292535714Y-123789286D01*
X291785714Y-124146428D02*
X292535714Y-124146428D01*
X292535714Y-124325000D01*
X292500000Y-124432143D01*
X292428571Y-124503571D01*
X292357143Y-124539286D01*
X292214286Y-124575000D01*
X292107143Y-124575000D01*
X291964286Y-124539286D01*
X291892857Y-124503571D01*
X291821429Y-124432143D01*
X291785714Y-124325000D01*
X291785714Y-124146428D01*
X291246428Y-147300000D02*
X291317857Y-147335714D01*
X291425000Y-147335714D01*
X291532143Y-147300000D01*
X291603571Y-147228571D01*
X291639286Y-147157143D01*
X291675000Y-147014286D01*
X291675000Y-146907143D01*
X291639286Y-146764286D01*
X291603571Y-146692857D01*
X291532143Y-146621429D01*
X291425000Y-146585714D01*
X291353571Y-146585714D01*
X291246428Y-146621429D01*
X291210714Y-146657143D01*
X291210714Y-146907143D01*
X291353571Y-146907143D01*
X290889286Y-146585714D02*
X290889286Y-147335714D01*
X290460714Y-146585714D01*
X290460714Y-147335714D01*
X290103572Y-146585714D02*
X290103572Y-147335714D01*
X289925000Y-147335714D01*
X289817857Y-147300000D01*
X289746429Y-147228571D01*
X289710714Y-147157143D01*
X289675000Y-147014286D01*
X289675000Y-146907143D01*
X289710714Y-146764286D01*
X289746429Y-146692857D01*
X289817857Y-146621429D01*
X289925000Y-146585714D01*
X290103572Y-146585714D01*
X288982143Y-147310714D02*
X288517857Y-147310714D01*
X288767857Y-147025000D01*
X288660715Y-147025000D01*
X288589286Y-146989286D01*
X288553572Y-146953571D01*
X288517857Y-146882143D01*
X288517857Y-146703571D01*
X288553572Y-146632143D01*
X288589286Y-146596429D01*
X288660715Y-146560714D01*
X288875000Y-146560714D01*
X288946429Y-146596429D01*
X288982143Y-146632143D01*
X288196429Y-146632143D02*
X288160714Y-146596429D01*
X288196429Y-146560714D01*
X288232143Y-146596429D01*
X288196429Y-146632143D01*
X288196429Y-146560714D01*
X287910714Y-147310714D02*
X287446428Y-147310714D01*
X287696428Y-147025000D01*
X287589286Y-147025000D01*
X287517857Y-146989286D01*
X287482143Y-146953571D01*
X287446428Y-146882143D01*
X287446428Y-146703571D01*
X287482143Y-146632143D01*
X287517857Y-146596429D01*
X287589286Y-146560714D01*
X287803571Y-146560714D01*
X287875000Y-146596429D01*
X287910714Y-146632143D01*
X287232142Y-147310714D02*
X286982142Y-146560714D01*
X286732142Y-147310714D01*
X280960714Y-140307143D02*
X281710714Y-140307143D01*
X281710714Y-140485715D01*
X281675000Y-140592858D01*
X281603571Y-140664286D01*
X281532143Y-140700001D01*
X281389286Y-140735715D01*
X281282143Y-140735715D01*
X281139286Y-140700001D01*
X281067857Y-140664286D01*
X280996429Y-140592858D01*
X280960714Y-140485715D01*
X280960714Y-140307143D01*
X280960714Y-141485715D02*
X281317857Y-141235715D01*
X280960714Y-141057143D02*
X281710714Y-141057143D01*
X281710714Y-141342858D01*
X281675000Y-141414286D01*
X281639286Y-141450001D01*
X281567857Y-141485715D01*
X281460714Y-141485715D01*
X281389286Y-141450001D01*
X281353571Y-141414286D01*
X281317857Y-141342858D01*
X281317857Y-141057143D01*
X280960714Y-141807143D02*
X281710714Y-141807143D01*
X281710714Y-141985715D01*
X281675000Y-142092858D01*
X281603571Y-142164286D01*
X281532143Y-142200001D01*
X281389286Y-142235715D01*
X281282143Y-142235715D01*
X281139286Y-142200001D01*
X281067857Y-142164286D01*
X280996429Y-142092858D01*
X280960714Y-141985715D01*
X280960714Y-141807143D01*
X281317857Y-142700001D02*
X280960714Y-142700001D01*
X281710714Y-142450001D02*
X281317857Y-142700001D01*
X281710714Y-142950001D01*
X281840000Y-140128572D02*
X281840000Y-143021429D01*
X283242857Y-137510714D02*
X283242857Y-138260714D01*
X283064285Y-138260714D01*
X282957142Y-138225000D01*
X282885714Y-138153571D01*
X282849999Y-138082143D01*
X282814285Y-137939286D01*
X282814285Y-137832143D01*
X282849999Y-137689286D01*
X282885714Y-137617857D01*
X282957142Y-137546429D01*
X283064285Y-137510714D01*
X283242857Y-137510714D01*
X282349999Y-138260714D02*
X282207142Y-138260714D01*
X282135714Y-138225000D01*
X282064285Y-138153571D01*
X282028571Y-138010714D01*
X282028571Y-137760714D01*
X282064285Y-137617857D01*
X282135714Y-137546429D01*
X282207142Y-137510714D01*
X282349999Y-137510714D01*
X282421428Y-137546429D01*
X282492857Y-137617857D01*
X282528571Y-137760714D01*
X282528571Y-138010714D01*
X282492857Y-138153571D01*
X282421428Y-138225000D01*
X282349999Y-138260714D01*
X281707143Y-138260714D02*
X281707143Y-137653571D01*
X281671428Y-137582143D01*
X281635714Y-137546429D01*
X281564285Y-137510714D01*
X281421428Y-137510714D01*
X281350000Y-137546429D01*
X281314285Y-137582143D01*
X281278571Y-137653571D01*
X281278571Y-138260714D01*
X281028571Y-138260714D02*
X280600000Y-138260714D01*
X280814286Y-137510714D02*
X280814286Y-138260714D01*
X283242857Y-135046429D02*
X283135714Y-135010714D01*
X282957143Y-135010714D01*
X282885714Y-135046429D01*
X282850000Y-135082143D01*
X282814285Y-135153571D01*
X282814285Y-135225000D01*
X282850000Y-135296429D01*
X282885714Y-135332143D01*
X282957143Y-135367857D01*
X283100000Y-135403571D01*
X283171428Y-135439286D01*
X283207143Y-135475000D01*
X283242857Y-135546429D01*
X283242857Y-135617857D01*
X283207143Y-135689286D01*
X283171428Y-135725000D01*
X283100000Y-135760714D01*
X282921428Y-135760714D01*
X282814285Y-135725000D01*
X282064285Y-135082143D02*
X282099999Y-135046429D01*
X282207142Y-135010714D01*
X282278571Y-135010714D01*
X282385714Y-135046429D01*
X282457142Y-135117857D01*
X282492857Y-135189286D01*
X282528571Y-135332143D01*
X282528571Y-135439286D01*
X282492857Y-135582143D01*
X282457142Y-135653571D01*
X282385714Y-135725000D01*
X282278571Y-135760714D01*
X282207142Y-135760714D01*
X282099999Y-135725000D01*
X282064285Y-135689286D01*
X281385714Y-135010714D02*
X281742857Y-135010714D01*
X281742857Y-135760714D01*
X281135714Y-135010714D02*
X281135714Y-135760714D01*
X280707142Y-135010714D02*
X281028571Y-135439286D01*
X280707142Y-135760714D02*
X281135714Y-135332143D01*
X281525000Y-132732143D02*
X281560714Y-132696429D01*
X281667857Y-132660714D01*
X281739286Y-132660714D01*
X281846429Y-132696429D01*
X281917857Y-132767857D01*
X281953572Y-132839286D01*
X281989286Y-132982143D01*
X281989286Y-133089286D01*
X281953572Y-133232143D01*
X281917857Y-133303571D01*
X281846429Y-133375000D01*
X281739286Y-133410714D01*
X281667857Y-133410714D01*
X281560714Y-133375000D01*
X281525000Y-133339286D01*
X281239286Y-132696429D02*
X281132143Y-132660714D01*
X280953572Y-132660714D01*
X280882143Y-132696429D01*
X280846429Y-132732143D01*
X280810714Y-132803571D01*
X280810714Y-132875000D01*
X280846429Y-132946429D01*
X280882143Y-132982143D01*
X280953572Y-133017857D01*
X281096429Y-133053571D01*
X281167857Y-133089286D01*
X281203572Y-133125000D01*
X281239286Y-133196429D01*
X281239286Y-133267857D01*
X281203572Y-133339286D01*
X281167857Y-133375000D01*
X281096429Y-133410714D01*
X280917857Y-133410714D01*
X280810714Y-133375000D01*
X282132143Y-133540000D02*
X280667857Y-133540000D01*
X284710715Y-130060714D02*
X284710715Y-130810714D01*
X284425000Y-130810714D01*
X284353572Y-130775000D01*
X284317857Y-130739286D01*
X284282143Y-130667857D01*
X284282143Y-130560714D01*
X284317857Y-130489286D01*
X284353572Y-130453571D01*
X284425000Y-130417857D01*
X284710715Y-130417857D01*
X284032143Y-130810714D02*
X283853572Y-130060714D01*
X283710715Y-130596429D01*
X283567857Y-130060714D01*
X283389286Y-130810714D01*
X282567857Y-130846429D02*
X283210714Y-129882143D01*
X281889286Y-130060714D02*
X282139286Y-130417857D01*
X282317858Y-130060714D02*
X282317858Y-130810714D01*
X282032143Y-130810714D01*
X281960715Y-130775000D01*
X281925000Y-130739286D01*
X281889286Y-130667857D01*
X281889286Y-130560714D01*
X281925000Y-130489286D01*
X281960715Y-130453571D01*
X282032143Y-130417857D01*
X282317858Y-130417857D01*
X281603572Y-130096429D02*
X281496429Y-130060714D01*
X281317858Y-130060714D01*
X281246429Y-130096429D01*
X281210715Y-130132143D01*
X281175000Y-130203571D01*
X281175000Y-130275000D01*
X281210715Y-130346429D01*
X281246429Y-130382143D01*
X281317858Y-130417857D01*
X281460715Y-130453571D01*
X281532143Y-130489286D01*
X281567858Y-130525000D01*
X281603572Y-130596429D01*
X281603572Y-130667857D01*
X281567858Y-130739286D01*
X281532143Y-130775000D01*
X281460715Y-130810714D01*
X281282143Y-130810714D01*
X281175000Y-130775000D01*
X280960714Y-130810714D02*
X280532143Y-130810714D01*
X280746429Y-130060714D02*
X280746429Y-130810714D01*
X284889286Y-130940000D02*
X280460714Y-130940000D01*
X282267857Y-127560714D02*
X282267857Y-128310714D01*
X282089285Y-128310714D01*
X281982142Y-128275000D01*
X281910714Y-128203571D01*
X281874999Y-128132143D01*
X281839285Y-127989286D01*
X281839285Y-127882143D01*
X281874999Y-127739286D01*
X281910714Y-127667857D01*
X281982142Y-127596429D01*
X282089285Y-127560714D01*
X282267857Y-127560714D01*
X281517857Y-127560714D02*
X281517857Y-128310714D01*
X281160714Y-127560714D02*
X281160714Y-128310714D01*
X280732142Y-127560714D01*
X280732142Y-128310714D01*
X308642857Y-140034762D02*
X308642857Y-139294762D01*
X309000000Y-140034762D02*
X309000000Y-139294762D01*
X309428572Y-140034762D01*
X309428572Y-139294762D01*
X309785714Y-139752857D02*
X310357143Y-139752857D01*
D12*
X302067857Y-137633333D02*
X301591666Y-137633333D01*
X302163095Y-137347619D02*
X301829762Y-138347619D01*
X301496428Y-137347619D01*
X301163095Y-137347619D02*
X301163095Y-138347619D01*
X300925000Y-138347619D01*
X300782142Y-138300000D01*
X300686904Y-138204762D01*
X300639285Y-138109524D01*
X300591666Y-137919048D01*
X300591666Y-137776190D01*
X300639285Y-137585714D01*
X300686904Y-137490476D01*
X300782142Y-137395238D01*
X300925000Y-137347619D01*
X301163095Y-137347619D01*
X300210714Y-137395238D02*
X300067857Y-137347619D01*
X299829761Y-137347619D01*
X299734523Y-137395238D01*
X299686904Y-137442857D01*
X299639285Y-137538095D01*
X299639285Y-137633333D01*
X299686904Y-137728571D01*
X299734523Y-137776190D01*
X299829761Y-137823810D01*
X300020238Y-137871429D01*
X300115476Y-137919048D01*
X300163095Y-137966667D01*
X300210714Y-138061905D01*
X300210714Y-138157143D01*
X300163095Y-138252381D01*
X300115476Y-138300000D01*
X300020238Y-138347619D01*
X299782142Y-138347619D01*
X299639285Y-138300000D01*
X298686904Y-137347619D02*
X299258333Y-137347619D01*
X298972619Y-137347619D02*
X298972619Y-138347619D01*
X299067857Y-138204762D01*
X299163095Y-138109524D01*
X299258333Y-138061905D01*
X298305952Y-138252381D02*
X298258333Y-138300000D01*
X298163095Y-138347619D01*
X297924999Y-138347619D01*
X297829761Y-138300000D01*
X297782142Y-138252381D01*
X297734523Y-138157143D01*
X297734523Y-138061905D01*
X297782142Y-137919048D01*
X298353571Y-137347619D01*
X297734523Y-137347619D01*
X297258333Y-137347619D02*
X297067857Y-137347619D01*
X296972618Y-137395238D01*
X296924999Y-137442857D01*
X296829761Y-137585714D01*
X296782142Y-137776190D01*
X296782142Y-138157143D01*
X296829761Y-138252381D01*
X296877380Y-138300000D01*
X296972618Y-138347619D01*
X297163095Y-138347619D01*
X297258333Y-138300000D01*
X297305952Y-138252381D01*
X297353571Y-138157143D01*
X297353571Y-137919048D01*
X297305952Y-137823810D01*
X297258333Y-137776190D01*
X297163095Y-137728571D01*
X296972618Y-137728571D01*
X296877380Y-137776190D01*
X296829761Y-137823810D01*
X296782142Y-137919048D01*
X296305952Y-137347619D02*
X296115476Y-137347619D01*
X296020237Y-137395238D01*
X295972618Y-137442857D01*
X295877380Y-137585714D01*
X295829761Y-137776190D01*
X295829761Y-138157143D01*
X295877380Y-138252381D01*
X295924999Y-138300000D01*
X296020237Y-138347619D01*
X296210714Y-138347619D01*
X296305952Y-138300000D01*
X296353571Y-138252381D01*
X296401190Y-138157143D01*
X296401190Y-137919048D01*
X296353571Y-137823810D01*
X296305952Y-137776190D01*
X296210714Y-137728571D01*
X296020237Y-137728571D01*
X295924999Y-137776190D01*
X295877380Y-137823810D01*
X295829761Y-137919048D01*
X295401190Y-137728571D02*
X294639285Y-137728571D01*
X294258333Y-137347619D02*
X293734523Y-138014286D01*
X294258333Y-138014286D02*
X293734523Y-137347619D01*
D11*
X312647143Y-145253572D02*
X312682381Y-145146429D01*
X312717619Y-145110714D01*
X312788095Y-145075000D01*
X312893810Y-145075000D01*
X312964286Y-145110714D01*
X312999524Y-145146429D01*
X313034762Y-145217857D01*
X313034762Y-145503572D01*
X312294762Y-145503572D01*
X312294762Y-145253572D01*
X312330000Y-145182143D01*
X312365238Y-145146429D01*
X312435714Y-145110714D01*
X312506190Y-145110714D01*
X312576667Y-145146429D01*
X312611905Y-145182143D01*
X312647143Y-145253572D01*
X312647143Y-145503572D01*
X313034762Y-144753572D02*
X312294762Y-144753572D01*
X312823333Y-144432143D02*
X312823333Y-144075000D01*
X313034762Y-144503571D02*
X312294762Y-144253571D01*
X313034762Y-144003571D01*
X312999524Y-143789286D02*
X313034762Y-143682143D01*
X313034762Y-143503572D01*
X312999524Y-143432143D01*
X312964286Y-143396429D01*
X312893810Y-143360714D01*
X312823333Y-143360714D01*
X312752857Y-143396429D01*
X312717619Y-143432143D01*
X312682381Y-143503572D01*
X312647143Y-143646429D01*
X312611905Y-143717857D01*
X312576667Y-143753572D01*
X312506190Y-143789286D01*
X312435714Y-143789286D01*
X312365238Y-143753572D01*
X312330000Y-143717857D01*
X312294762Y-143646429D01*
X312294762Y-143467857D01*
X312330000Y-143360714D01*
X311984762Y-140400000D02*
X311244762Y-140400000D01*
X311984762Y-140042857D02*
X311244762Y-140042857D01*
X311984762Y-139614285D01*
X311244762Y-139614285D01*
X311491429Y-138935714D02*
X311984762Y-138935714D01*
X311209524Y-139114285D02*
X311738095Y-139292857D01*
X311738095Y-138828571D01*
X311984762Y-137700000D02*
X311244762Y-137700000D01*
X311984762Y-137342857D02*
X311244762Y-137342857D01*
X311984762Y-136914285D01*
X311244762Y-136914285D01*
X311244762Y-136628571D02*
X311244762Y-136164285D01*
X311526667Y-136414285D01*
X311526667Y-136307143D01*
X311561905Y-136235714D01*
X311597143Y-136200000D01*
X311667619Y-136164285D01*
X311843810Y-136164285D01*
X311914286Y-136200000D01*
X311949524Y-136235714D01*
X311984762Y-136307143D01*
X311984762Y-136521428D01*
X311949524Y-136592857D01*
X311914286Y-136628571D01*
X311984762Y-135250000D02*
X311244762Y-135250000D01*
X311984762Y-134892857D02*
X311244762Y-134892857D01*
X311984762Y-134464285D01*
X311244762Y-134464285D01*
X311315238Y-134142857D02*
X311280000Y-134107143D01*
X311244762Y-134035714D01*
X311244762Y-133857143D01*
X311280000Y-133785714D01*
X311315238Y-133750000D01*
X311385714Y-133714285D01*
X311456190Y-133714285D01*
X311561905Y-133750000D01*
X311984762Y-134178571D01*
X311984762Y-133714285D01*
X311849524Y-130721429D02*
X311884762Y-130614286D01*
X311884762Y-130435715D01*
X311849524Y-130364286D01*
X311814286Y-130328572D01*
X311743810Y-130292857D01*
X311673333Y-130292857D01*
X311602857Y-130328572D01*
X311567619Y-130364286D01*
X311532381Y-130435715D01*
X311497143Y-130578572D01*
X311461905Y-130650000D01*
X311426667Y-130685715D01*
X311356190Y-130721429D01*
X311285714Y-130721429D01*
X311215238Y-130685715D01*
X311180000Y-130650000D01*
X311144762Y-130578572D01*
X311144762Y-130400000D01*
X311180000Y-130292857D01*
X311884762Y-129542857D02*
X311532381Y-129792857D01*
X311884762Y-129971429D02*
X311144762Y-129971429D01*
X311144762Y-129685714D01*
X311180000Y-129614286D01*
X311215238Y-129578571D01*
X311285714Y-129542857D01*
X311391429Y-129542857D01*
X311461905Y-129578571D01*
X311497143Y-129614286D01*
X311532381Y-129685714D01*
X311532381Y-129971429D01*
X311497143Y-128971429D02*
X311532381Y-128864286D01*
X311567619Y-128828571D01*
X311638095Y-128792857D01*
X311743810Y-128792857D01*
X311814286Y-128828571D01*
X311849524Y-128864286D01*
X311884762Y-128935714D01*
X311884762Y-129221429D01*
X311144762Y-129221429D01*
X311144762Y-128971429D01*
X311180000Y-128900000D01*
X311215238Y-128864286D01*
X311285714Y-128828571D01*
X311356190Y-128828571D01*
X311426667Y-128864286D01*
X311461905Y-128900000D01*
X311497143Y-128971429D01*
X311497143Y-129221429D01*
X311884762Y-128078571D02*
X311884762Y-128507143D01*
X311884762Y-128292857D02*
X311144762Y-128292857D01*
X311250476Y-128364286D01*
X311320952Y-128435714D01*
X311356190Y-128507143D01*
X311934762Y-132850000D02*
X311194762Y-132850000D01*
X311934762Y-132492857D02*
X311194762Y-132492857D01*
X311934762Y-132064285D01*
X311194762Y-132064285D01*
X311934762Y-131314285D02*
X311934762Y-131742857D01*
X311934762Y-131528571D02*
X311194762Y-131528571D01*
X311300476Y-131600000D01*
X311370952Y-131671428D01*
X311406190Y-131742857D01*
D13*
X281848607Y-145850000D02*
G75*
G03X281848607Y-145850000I-223607J0D01*
G01*
X283323607Y-124000000D02*
G75*
G03X283323607Y-124000000I-223607J0D01*
G01*
X302270088Y-139250000D02*
G75*
G03X302270088Y-139250000I-570088J0D01*
G01*
D11*
X281450000Y-123203572D02*
X281485714Y-123132143D01*
X281485714Y-123025000D01*
X281450000Y-122917857D01*
X281378571Y-122846429D01*
X281307143Y-122810714D01*
X281164286Y-122775000D01*
X281057143Y-122775000D01*
X280914286Y-122810714D01*
X280842857Y-122846429D01*
X280771429Y-122917857D01*
X280735714Y-123025000D01*
X280735714Y-123096429D01*
X280771429Y-123203572D01*
X280807143Y-123239286D01*
X281057143Y-123239286D01*
X281057143Y-123096429D01*
X280735714Y-123560714D02*
X281485714Y-123560714D01*
X280735714Y-123989286D01*
X281485714Y-123989286D01*
X280735714Y-124346428D02*
X281485714Y-124346428D01*
X281485714Y-124525000D01*
X281450000Y-124632143D01*
X281378571Y-124703571D01*
X281307143Y-124739286D01*
X281164286Y-124775000D01*
X281057143Y-124775000D01*
X280914286Y-124739286D01*
X280842857Y-124703571D01*
X280771429Y-124632143D01*
X280735714Y-124525000D01*
X280735714Y-124346428D01*
X281560714Y-120407144D02*
X280810714Y-120657144D01*
X281560714Y-120907144D01*
X280846429Y-121478572D02*
X280810714Y-121407143D01*
X280810714Y-121264286D01*
X280846429Y-121192858D01*
X280882143Y-121157143D01*
X280953571Y-121121429D01*
X281167857Y-121121429D01*
X281239286Y-121157143D01*
X281275000Y-121192858D01*
X281310714Y-121264286D01*
X281310714Y-121407143D01*
X281275000Y-121478572D01*
X280846429Y-122121429D02*
X280810714Y-122050000D01*
X280810714Y-121907143D01*
X280846429Y-121835715D01*
X280882143Y-121800000D01*
X280953571Y-121764286D01*
X281167857Y-121764286D01*
X281239286Y-121800000D01*
X281275000Y-121835715D01*
X281310714Y-121907143D01*
X281310714Y-122050000D01*
X281275000Y-122121429D01*
D14*
X315970000Y-145740000D02*
X316090000Y-145740000D01*
X316090000Y-145740000D02*
X316090000Y-142960000D01*
X316090000Y-142960000D02*
X315970000Y-142960000D01*
X315970000Y-142960000D02*
X315970000Y-145740000D01*
X314700000Y-145740000D02*
X313310000Y-145740000D01*
X313310000Y-145740000D02*
X313310000Y-144350000D01*
D15*
X291840000Y-143830000D02*
X291840000Y-146370000D01*
X291840000Y-146370000D02*
X286760000Y-146370000D01*
X286760000Y-146370000D02*
X286760000Y-143830000D01*
X286760000Y-143830000D02*
X291840000Y-143830000D01*
X291520000Y-124740000D02*
X288980000Y-124740000D01*
X288980000Y-124740000D02*
X288980000Y-119660000D01*
X288980000Y-119660000D02*
X291520000Y-119660000D01*
X291520000Y-119660000D02*
X291520000Y-124740000D01*
D14*
X280470000Y-142990000D02*
X280590000Y-142990000D01*
X280590000Y-142990000D02*
X280590000Y-140210000D01*
X280590000Y-140210000D02*
X280470000Y-140210000D01*
X280470000Y-140210000D02*
X280470000Y-142990000D01*
X279200000Y-142990000D02*
X277810000Y-142990000D01*
X277810000Y-142990000D02*
X277810000Y-141600000D01*
D16*
X280470000Y-126500000D02*
X277930000Y-126500000D01*
X277930000Y-139200000D02*
X280470000Y-139200000D01*
X280470000Y-126500000D02*
X280470000Y-139200000D01*
X277930000Y-139200000D02*
X277930000Y-126500000D01*
D15*
X278030000Y-120110000D02*
X280570000Y-120110000D01*
X280570000Y-120110000D02*
X280570000Y-125190000D01*
X280570000Y-125190000D02*
X278030000Y-125190000D01*
X278030000Y-125190000D02*
X278030000Y-120110000D01*
D10*
X295050000Y-126350000D02*
X293700000Y-126350000D01*
X295050000Y-125450000D02*
X295050000Y-126300000D01*
X293650000Y-125500000D02*
X293650000Y-126350000D01*
X293750000Y-125450000D02*
X294900000Y-125450000D01*
X293850000Y-126450000D02*
X294800000Y-126450000D01*
X293800000Y-126350000D02*
X294900000Y-126350000D01*
X293750000Y-125500000D02*
X294950000Y-125500000D01*
D17*
X294350000Y-126150000D02*
X294350000Y-125650000D01*
D18*
X293715000Y-126243000D02*
X293715000Y-123957000D01*
X293715000Y-123957000D02*
X294985000Y-123957000D01*
X294985000Y-123957000D02*
X294985000Y-126243000D01*
X294985000Y-126243000D02*
X293715000Y-126243000D01*
D19*
X294546000Y-144669000D02*
X294038000Y-144669000D01*
X294038000Y-144669000D02*
X294038000Y-145431000D01*
X294038000Y-145431000D02*
X294546000Y-145431000D01*
X295054000Y-144669000D02*
X295562000Y-144669000D01*
X295562000Y-144669000D02*
X295562000Y-145431000D01*
X295562000Y-145431000D02*
X295054000Y-145431000D01*
D10*
X302875000Y-140425000D02*
X302875000Y-139475000D01*
X292525000Y-140425000D02*
X292525000Y-139375000D01*
X292525000Y-130075000D02*
X292525000Y-131125000D01*
X302875000Y-130075000D02*
X302875000Y-131125000D01*
X302875000Y-140425000D02*
X301825000Y-140425000D01*
X302875000Y-130075000D02*
X301825000Y-130075000D01*
X292525000Y-130075000D02*
X293575000Y-130075000D01*
X292525000Y-140425000D02*
X293575000Y-140425000D01*
X302875000Y-139475000D02*
X304150000Y-139475000D01*
D14*
X283290000Y-122425000D02*
X283290000Y-124325000D01*
X285610000Y-123825000D02*
X285610000Y-122425000D01*
D19*
X296269000Y-125104000D02*
X296269000Y-125612000D01*
X296269000Y-125612000D02*
X297031000Y-125612000D01*
X297031000Y-125612000D02*
X297031000Y-125104000D01*
X296269000Y-124596000D02*
X296269000Y-124088000D01*
X296269000Y-124088000D02*
X297031000Y-124088000D01*
X297031000Y-124088000D02*
X297031000Y-124596000D01*
X302631000Y-126196000D02*
X302631000Y-125688000D01*
X302631000Y-125688000D02*
X301869000Y-125688000D01*
X301869000Y-125688000D02*
X301869000Y-126196000D01*
X302631000Y-126704000D02*
X302631000Y-127212000D01*
X302631000Y-127212000D02*
X301869000Y-127212000D01*
X301869000Y-127212000D02*
X301869000Y-126704000D01*
X303631000Y-126196000D02*
X303631000Y-125688000D01*
X303631000Y-125688000D02*
X302869000Y-125688000D01*
X302869000Y-125688000D02*
X302869000Y-126196000D01*
X303631000Y-126704000D02*
X303631000Y-127212000D01*
X303631000Y-127212000D02*
X302869000Y-127212000D01*
X302869000Y-127212000D02*
X302869000Y-126704000D01*
X289481000Y-141746000D02*
X289481000Y-141238000D01*
X289481000Y-141238000D02*
X288719000Y-141238000D01*
X288719000Y-141238000D02*
X288719000Y-141746000D01*
X289481000Y-142254000D02*
X289481000Y-142762000D01*
X289481000Y-142762000D02*
X288719000Y-142762000D01*
X288719000Y-142762000D02*
X288719000Y-142254000D01*
X294546000Y-143469000D02*
X294038000Y-143469000D01*
X294038000Y-143469000D02*
X294038000Y-144231000D01*
X294038000Y-144231000D02*
X294546000Y-144231000D01*
X295054000Y-143469000D02*
X295562000Y-143469000D01*
X295562000Y-143469000D02*
X295562000Y-144231000D01*
X295562000Y-144231000D02*
X295054000Y-144231000D01*
X309046000Y-130919000D02*
X308538000Y-130919000D01*
X308538000Y-130919000D02*
X308538000Y-131681000D01*
X308538000Y-131681000D02*
X309046000Y-131681000D01*
X309554000Y-130919000D02*
X310062000Y-130919000D01*
X310062000Y-130919000D02*
X310062000Y-131681000D01*
X310062000Y-131681000D02*
X309554000Y-131681000D01*
X290119000Y-142254000D02*
X290119000Y-142762000D01*
X290119000Y-142762000D02*
X290881000Y-142762000D01*
X290881000Y-142762000D02*
X290881000Y-142254000D01*
X290119000Y-141746000D02*
X290119000Y-141238000D01*
X290119000Y-141238000D02*
X290881000Y-141238000D01*
X290881000Y-141238000D02*
X290881000Y-141746000D01*
X296896000Y-145119000D02*
X296388000Y-145119000D01*
X296388000Y-145119000D02*
X296388000Y-145881000D01*
X296388000Y-145881000D02*
X296896000Y-145881000D01*
X297404000Y-145119000D02*
X297912000Y-145119000D01*
X297912000Y-145119000D02*
X297912000Y-145881000D01*
X297912000Y-145881000D02*
X297404000Y-145881000D01*
X296896000Y-143719000D02*
X296388000Y-143719000D01*
X296388000Y-143719000D02*
X296388000Y-144481000D01*
X296388000Y-144481000D02*
X296896000Y-144481000D01*
X297404000Y-143719000D02*
X297912000Y-143719000D01*
X297912000Y-143719000D02*
X297912000Y-144481000D01*
X297912000Y-144481000D02*
X297404000Y-144481000D01*
X299954000Y-146081000D02*
X300462000Y-146081000D01*
X300462000Y-146081000D02*
X300462000Y-145319000D01*
X300462000Y-145319000D02*
X299954000Y-145319000D01*
X299446000Y-146081000D02*
X298938000Y-146081000D01*
X298938000Y-146081000D02*
X298938000Y-145319000D01*
X298938000Y-145319000D02*
X299446000Y-145319000D01*
X290919000Y-127654000D02*
X290919000Y-128162000D01*
X290919000Y-128162000D02*
X291681000Y-128162000D01*
X291681000Y-128162000D02*
X291681000Y-127654000D01*
X290919000Y-127146000D02*
X290919000Y-126638000D01*
X290919000Y-126638000D02*
X291681000Y-126638000D01*
X291681000Y-126638000D02*
X291681000Y-127146000D01*
X299954000Y-144781000D02*
X300462000Y-144781000D01*
X300462000Y-144781000D02*
X300462000Y-144019000D01*
X300462000Y-144019000D02*
X299954000Y-144019000D01*
X299446000Y-144781000D02*
X298938000Y-144781000D01*
X298938000Y-144781000D02*
X298938000Y-144019000D01*
X298938000Y-144019000D02*
X299446000Y-144019000D01*
X300881000Y-124996000D02*
X300881000Y-124488000D01*
X300881000Y-124488000D02*
X300119000Y-124488000D01*
X300119000Y-124488000D02*
X300119000Y-124996000D01*
X300881000Y-125504000D02*
X300881000Y-126012000D01*
X300881000Y-126012000D02*
X300119000Y-126012000D01*
X300119000Y-126012000D02*
X300119000Y-125504000D01*
X305381000Y-128896000D02*
X305381000Y-128388000D01*
X305381000Y-128388000D02*
X304619000Y-128388000D01*
X304619000Y-128388000D02*
X304619000Y-128896000D01*
X305381000Y-129404000D02*
X305381000Y-129912000D01*
X305381000Y-129912000D02*
X304619000Y-129912000D01*
X304619000Y-129912000D02*
X304619000Y-129404000D01*
X304181000Y-128896000D02*
X304181000Y-128388000D01*
X304181000Y-128388000D02*
X303419000Y-128388000D01*
X303419000Y-128388000D02*
X303419000Y-128896000D01*
X304181000Y-129404000D02*
X304181000Y-129912000D01*
X304181000Y-129912000D02*
X303419000Y-129912000D01*
X303419000Y-129912000D02*
X303419000Y-129404000D01*
D18*
X299535000Y-124057000D02*
X299535000Y-126343000D01*
X299535000Y-126343000D02*
X298265000Y-126343000D01*
X298265000Y-126343000D02*
X298265000Y-124057000D01*
X298265000Y-124057000D02*
X299535000Y-124057000D01*
X284418000Y-142560000D02*
X282132000Y-142560000D01*
X282132000Y-142560000D02*
X282132000Y-141290000D01*
X282132000Y-141290000D02*
X284418000Y-141290000D01*
X284418000Y-141290000D02*
X284418000Y-142560000D01*
X285793000Y-121160000D02*
X283507000Y-121160000D01*
X283507000Y-121160000D02*
X283507000Y-119890000D01*
X283507000Y-119890000D02*
X285793000Y-119890000D01*
X285793000Y-119890000D02*
X285793000Y-121160000D01*
D19*
X286431000Y-122771000D02*
X286431000Y-122263000D01*
X286431000Y-122263000D02*
X285669000Y-122263000D01*
X285669000Y-122263000D02*
X285669000Y-122771000D01*
X286431000Y-123279000D02*
X286431000Y-123787000D01*
X286431000Y-123787000D02*
X285669000Y-123787000D01*
X285669000Y-123787000D02*
X285669000Y-123279000D01*
X283996000Y-124794000D02*
X283488000Y-124794000D01*
X283488000Y-124794000D02*
X283488000Y-125556000D01*
X283488000Y-125556000D02*
X283996000Y-125556000D01*
X284504000Y-124794000D02*
X285012000Y-124794000D01*
X285012000Y-124794000D02*
X285012000Y-125556000D01*
X285012000Y-125556000D02*
X284504000Y-125556000D01*
X285356000Y-144171000D02*
X285356000Y-143663000D01*
X285356000Y-143663000D02*
X284594000Y-143663000D01*
X284594000Y-143663000D02*
X284594000Y-144171000D01*
X285356000Y-144679000D02*
X285356000Y-145187000D01*
X285356000Y-145187000D02*
X284594000Y-145187000D01*
X284594000Y-145187000D02*
X284594000Y-144679000D01*
X282821000Y-146344000D02*
X282313000Y-146344000D01*
X282313000Y-146344000D02*
X282313000Y-147106000D01*
X282313000Y-147106000D02*
X282821000Y-147106000D01*
X283329000Y-146344000D02*
X283837000Y-146344000D01*
X283837000Y-146344000D02*
X283837000Y-147106000D01*
X283837000Y-147106000D02*
X283329000Y-147106000D01*
X307344000Y-144454000D02*
X307344000Y-144962000D01*
X307344000Y-144962000D02*
X308106000Y-144962000D01*
X308106000Y-144962000D02*
X308106000Y-144454000D01*
X307344000Y-143946000D02*
X307344000Y-143438000D01*
X307344000Y-143438000D02*
X308106000Y-143438000D01*
X308106000Y-143438000D02*
X308106000Y-143946000D01*
X308444000Y-144454000D02*
X308444000Y-144962000D01*
X308444000Y-144962000D02*
X309206000Y-144962000D01*
X309206000Y-144962000D02*
X309206000Y-144454000D01*
X308444000Y-143946000D02*
X308444000Y-143438000D01*
X308444000Y-143438000D02*
X309206000Y-143438000D01*
X309206000Y-143438000D02*
X309206000Y-143946000D01*
X308946000Y-132419000D02*
X308438000Y-132419000D01*
X308438000Y-132419000D02*
X308438000Y-133181000D01*
X308438000Y-133181000D02*
X308946000Y-133181000D01*
X309454000Y-132419000D02*
X309962000Y-132419000D01*
X309962000Y-132419000D02*
X309962000Y-133181000D01*
X309962000Y-133181000D02*
X309454000Y-133181000D01*
X308946000Y-133919000D02*
X308438000Y-133919000D01*
X308438000Y-133919000D02*
X308438000Y-134681000D01*
X308438000Y-134681000D02*
X308946000Y-134681000D01*
X309454000Y-133919000D02*
X309962000Y-133919000D01*
X309962000Y-133919000D02*
X309962000Y-134681000D01*
X309962000Y-134681000D02*
X309454000Y-134681000D01*
X308846000Y-135419000D02*
X308338000Y-135419000D01*
X308338000Y-135419000D02*
X308338000Y-136181000D01*
X308338000Y-136181000D02*
X308846000Y-136181000D01*
X309354000Y-135419000D02*
X309862000Y-135419000D01*
X309862000Y-135419000D02*
X309862000Y-136181000D01*
X309862000Y-136181000D02*
X309354000Y-136181000D01*
X308896000Y-137119000D02*
X308388000Y-137119000D01*
X308388000Y-137119000D02*
X308388000Y-137881000D01*
X308388000Y-137881000D02*
X308896000Y-137881000D01*
X309404000Y-137119000D02*
X309912000Y-137119000D01*
X309912000Y-137119000D02*
X309912000Y-137881000D01*
X309912000Y-137881000D02*
X309404000Y-137881000D01*
D14*
X281915000Y-143825000D02*
X281915000Y-145725000D01*
X284235000Y-145225000D02*
X284235000Y-143825000D01*
D16*
X314720000Y-128300000D02*
X312180000Y-128300000D01*
X312180000Y-141000000D02*
X314720000Y-141000000D01*
X314720000Y-128300000D02*
X314720000Y-141000000D01*
X312180000Y-141000000D02*
X312180000Y-128300000D01*
D14*
X310940000Y-140280000D02*
X310940000Y-140160000D01*
X310940000Y-140160000D02*
X308160000Y-140160000D01*
X308160000Y-140160000D02*
X308160000Y-140280000D01*
X308160000Y-140280000D02*
X310940000Y-140280000D01*
X310940000Y-141550000D02*
X310940000Y-142940000D01*
X310940000Y-142940000D02*
X309550000Y-142940000D01*
X307650000Y-141020000D02*
X307150000Y-141020000D01*
X307150000Y-142080000D02*
X307650000Y-142080000D01*
D11*
X314857143Y-146721429D02*
X314857143Y-146121429D01*
X315085715Y-146121429D01*
X315142857Y-146150000D01*
X315171429Y-146178571D01*
X315200000Y-146235714D01*
X315200000Y-146321429D01*
X315171429Y-146378571D01*
X315142857Y-146407143D01*
X315085715Y-146435714D01*
X314857143Y-146435714D01*
X315714286Y-146321429D02*
X315714286Y-146721429D01*
X315571429Y-146092857D02*
X315428572Y-146521429D01*
X315800000Y-146521429D01*
D18*
X289454810Y-145549953D02*
X288946810Y-145549953D01*
X288946810Y-145356429D01*
X288971000Y-145308048D01*
X288995190Y-145283857D01*
X289043571Y-145259667D01*
X289116143Y-145259667D01*
X289164524Y-145283857D01*
X289188714Y-145308048D01*
X289212905Y-145356429D01*
X289212905Y-145549953D01*
X288946810Y-145090334D02*
X288946810Y-144751667D01*
X289454810Y-144969381D01*
X289800047Y-122354810D02*
X289800047Y-121846810D01*
X289993571Y-121846810D01*
X290041952Y-121871000D01*
X290066143Y-121895190D01*
X290090333Y-121943571D01*
X290090333Y-122016143D01*
X290066143Y-122064524D01*
X290041952Y-122088714D01*
X289993571Y-122112905D01*
X289800047Y-122112905D01*
X290525762Y-121846810D02*
X290429000Y-121846810D01*
X290380619Y-121871000D01*
X290356428Y-121895190D01*
X290308047Y-121967762D01*
X290283857Y-122064524D01*
X290283857Y-122258048D01*
X290308047Y-122306429D01*
X290332238Y-122330619D01*
X290380619Y-122354810D01*
X290477381Y-122354810D01*
X290525762Y-122330619D01*
X290549952Y-122306429D01*
X290574143Y-122258048D01*
X290574143Y-122137095D01*
X290549952Y-122088714D01*
X290525762Y-122064524D01*
X290477381Y-122040333D01*
X290380619Y-122040333D01*
X290332238Y-122064524D01*
X290308047Y-122088714D01*
X290283857Y-122137095D01*
D11*
X279357143Y-143971429D02*
X279357143Y-143371429D01*
X279585715Y-143371429D01*
X279642857Y-143400000D01*
X279671429Y-143428571D01*
X279700000Y-143485714D01*
X279700000Y-143571429D01*
X279671429Y-143628571D01*
X279642857Y-143657143D01*
X279585715Y-143685714D01*
X279357143Y-143685714D01*
X279900000Y-143371429D02*
X280271429Y-143371429D01*
X280071429Y-143600000D01*
X280157143Y-143600000D01*
X280214286Y-143628571D01*
X280242857Y-143657143D01*
X280271429Y-143714286D01*
X280271429Y-143857143D01*
X280242857Y-143914286D01*
X280214286Y-143942857D01*
X280157143Y-143971429D01*
X279985715Y-143971429D01*
X279928572Y-143942857D01*
X279900000Y-143914286D01*
X278830953Y-139826190D02*
X278830953Y-139326190D01*
X279021429Y-139326190D01*
X279069048Y-139350000D01*
X279092857Y-139373810D01*
X279116667Y-139421429D01*
X279116667Y-139492857D01*
X279092857Y-139540476D01*
X279069048Y-139564286D01*
X279021429Y-139588095D01*
X278830953Y-139588095D01*
X279569048Y-139326190D02*
X279330953Y-139326190D01*
X279307143Y-139564286D01*
X279330953Y-139540476D01*
X279378572Y-139516667D01*
X279497619Y-139516667D01*
X279545238Y-139540476D01*
X279569048Y-139564286D01*
X279592857Y-139611905D01*
X279592857Y-139730952D01*
X279569048Y-139778571D01*
X279545238Y-139802381D01*
X279497619Y-139826190D01*
X279378572Y-139826190D01*
X279330953Y-139802381D01*
X279307143Y-139778571D01*
D18*
X279000047Y-122954810D02*
X279000047Y-122446810D01*
X279193571Y-122446810D01*
X279241952Y-122471000D01*
X279266143Y-122495190D01*
X279290333Y-122543571D01*
X279290333Y-122616143D01*
X279266143Y-122664524D01*
X279241952Y-122688714D01*
X279193571Y-122712905D01*
X279000047Y-122712905D01*
X279774143Y-122954810D02*
X279483857Y-122954810D01*
X279629000Y-122954810D02*
X279629000Y-122446810D01*
X279580619Y-122519381D01*
X279532238Y-122567762D01*
X279483857Y-122591952D01*
D20*
X294067858Y-123617857D02*
X294048810Y-123636905D01*
X293991667Y-123655952D01*
X293953572Y-123655952D01*
X293896429Y-123636905D01*
X293858334Y-123598810D01*
X293839286Y-123560714D01*
X293820238Y-123484524D01*
X293820238Y-123427381D01*
X293839286Y-123351190D01*
X293858334Y-123313095D01*
X293896429Y-123275000D01*
X293953572Y-123255952D01*
X293991667Y-123255952D01*
X294048810Y-123275000D01*
X294067858Y-123294048D01*
X294448810Y-123655952D02*
X294220238Y-123655952D01*
X294334524Y-123655952D02*
X294334524Y-123255952D01*
X294296429Y-123313095D01*
X294258334Y-123351190D01*
X294220238Y-123370238D01*
X294810714Y-123255952D02*
X294620238Y-123255952D01*
X294601190Y-123446429D01*
X294620238Y-123427381D01*
X294658333Y-123408333D01*
X294753571Y-123408333D01*
X294791667Y-123427381D01*
X294810714Y-123446429D01*
X294829762Y-123484524D01*
X294829762Y-123579762D01*
X294810714Y-123617857D01*
X294791667Y-123636905D01*
X294753571Y-123655952D01*
X294658333Y-123655952D01*
X294620238Y-123636905D01*
X294601190Y-123617857D01*
D19*
X294604057Y-146025186D02*
X294589543Y-146041877D01*
X294546000Y-146058569D01*
X294516971Y-146058569D01*
X294473428Y-146041877D01*
X294444400Y-146008494D01*
X294429885Y-145975111D01*
X294415371Y-145908346D01*
X294415371Y-145858271D01*
X294429885Y-145791506D01*
X294444400Y-145758123D01*
X294473428Y-145724740D01*
X294516971Y-145708049D01*
X294546000Y-145708049D01*
X294589543Y-145724740D01*
X294604057Y-145741431D01*
X294705657Y-145708049D02*
X294894343Y-145708049D01*
X294792743Y-145841580D01*
X294836285Y-145841580D01*
X294865314Y-145858271D01*
X294879828Y-145874963D01*
X294894343Y-145908346D01*
X294894343Y-145991803D01*
X294879828Y-146025186D01*
X294865314Y-146041877D01*
X294836285Y-146058569D01*
X294749200Y-146058569D01*
X294720171Y-146041877D01*
X294705657Y-146025186D01*
X295010457Y-145741431D02*
X295024971Y-145724740D01*
X295054000Y-145708049D01*
X295126571Y-145708049D01*
X295155600Y-145724740D01*
X295170114Y-145741431D01*
X295184629Y-145774814D01*
X295184629Y-145808197D01*
X295170114Y-145858271D01*
X294995943Y-146058569D01*
X295184629Y-146058569D01*
D10*
X303323810Y-140852381D02*
X303323810Y-139852381D01*
X304371429Y-140757143D02*
X304323810Y-140804762D01*
X304180953Y-140852381D01*
X304085715Y-140852381D01*
X303942857Y-140804762D01*
X303847619Y-140709524D01*
X303800000Y-140614286D01*
X303752381Y-140423810D01*
X303752381Y-140280952D01*
X303800000Y-140090476D01*
X303847619Y-139995238D01*
X303942857Y-139900000D01*
X304085715Y-139852381D01*
X304180953Y-139852381D01*
X304323810Y-139900000D01*
X304371429Y-139947619D01*
X305323810Y-140852381D02*
X304752381Y-140852381D01*
X305038095Y-140852381D02*
X305038095Y-139852381D01*
X304942857Y-139995238D01*
X304847619Y-140090476D01*
X304752381Y-140138095D01*
D11*
X284276190Y-123505952D02*
X284680952Y-123505952D01*
X284728571Y-123482143D01*
X284752381Y-123458333D01*
X284776190Y-123410714D01*
X284776190Y-123315476D01*
X284752381Y-123267857D01*
X284728571Y-123244048D01*
X284680952Y-123220238D01*
X284276190Y-123220238D01*
X284323810Y-123005952D02*
X284300000Y-122982142D01*
X284276190Y-122934523D01*
X284276190Y-122815476D01*
X284300000Y-122767857D01*
X284323810Y-122744047D01*
X284371429Y-122720238D01*
X284419048Y-122720238D01*
X284490476Y-122744047D01*
X284776190Y-123029761D01*
X284776190Y-122720238D01*
D19*
X296479057Y-123825186D02*
X296464543Y-123841877D01*
X296421000Y-123858569D01*
X296391971Y-123858569D01*
X296348428Y-123841877D01*
X296319400Y-123808494D01*
X296304885Y-123775111D01*
X296290371Y-123708346D01*
X296290371Y-123658271D01*
X296304885Y-123591506D01*
X296319400Y-123558123D01*
X296348428Y-123524740D01*
X296391971Y-123508049D01*
X296421000Y-123508049D01*
X296464543Y-123524740D01*
X296479057Y-123541431D01*
X296769343Y-123858569D02*
X296595171Y-123858569D01*
X296682257Y-123858569D02*
X296682257Y-123508049D01*
X296653228Y-123558123D01*
X296624200Y-123591506D01*
X296595171Y-123608197D01*
X296885457Y-123541431D02*
X296899971Y-123524740D01*
X296929000Y-123508049D01*
X297001571Y-123508049D01*
X297030600Y-123524740D01*
X297045114Y-123541431D01*
X297059629Y-123574814D01*
X297059629Y-123608197D01*
X297045114Y-123658271D01*
X296870943Y-123858569D01*
X297059629Y-123858569D01*
X302054057Y-125475186D02*
X302039543Y-125491877D01*
X301996000Y-125508569D01*
X301966971Y-125508569D01*
X301923428Y-125491877D01*
X301894400Y-125458494D01*
X301879885Y-125425111D01*
X301865371Y-125358346D01*
X301865371Y-125308271D01*
X301879885Y-125241506D01*
X301894400Y-125208123D01*
X301923428Y-125174740D01*
X301966971Y-125158049D01*
X301996000Y-125158049D01*
X302039543Y-125174740D01*
X302054057Y-125191431D01*
X302155657Y-125158049D02*
X302344343Y-125158049D01*
X302242743Y-125291580D01*
X302286285Y-125291580D01*
X302315314Y-125308271D01*
X302329828Y-125324963D01*
X302344343Y-125358346D01*
X302344343Y-125441803D01*
X302329828Y-125475186D01*
X302315314Y-125491877D01*
X302286285Y-125508569D01*
X302199200Y-125508569D01*
X302170171Y-125491877D01*
X302155657Y-125475186D01*
X302634629Y-125508569D02*
X302460457Y-125508569D01*
X302547543Y-125508569D02*
X302547543Y-125158049D01*
X302518514Y-125208123D01*
X302489486Y-125241506D01*
X302460457Y-125258197D01*
X303199200Y-125475186D02*
X303184686Y-125491877D01*
X303141143Y-125508569D01*
X303112114Y-125508569D01*
X303068571Y-125491877D01*
X303039543Y-125458494D01*
X303025028Y-125425111D01*
X303010514Y-125358346D01*
X303010514Y-125308271D01*
X303025028Y-125241506D01*
X303039543Y-125208123D01*
X303068571Y-125174740D01*
X303112114Y-125158049D01*
X303141143Y-125158049D01*
X303184686Y-125174740D01*
X303199200Y-125191431D01*
X303474971Y-125158049D02*
X303329828Y-125158049D01*
X303315314Y-125324963D01*
X303329828Y-125308271D01*
X303358857Y-125291580D01*
X303431428Y-125291580D01*
X303460457Y-125308271D01*
X303474971Y-125324963D01*
X303489486Y-125358346D01*
X303489486Y-125441803D01*
X303474971Y-125475186D01*
X303460457Y-125491877D01*
X303431428Y-125508569D01*
X303358857Y-125508569D01*
X303329828Y-125491877D01*
X303315314Y-125475186D01*
X288525186Y-142195943D02*
X288541877Y-142210457D01*
X288558569Y-142254000D01*
X288558569Y-142283029D01*
X288541877Y-142326572D01*
X288508494Y-142355600D01*
X288475111Y-142370115D01*
X288408346Y-142384629D01*
X288358271Y-142384629D01*
X288291506Y-142370115D01*
X288258123Y-142355600D01*
X288224740Y-142326572D01*
X288208049Y-142283029D01*
X288208049Y-142254000D01*
X288224740Y-142210457D01*
X288241431Y-142195943D01*
X288558569Y-141905657D02*
X288558569Y-142079829D01*
X288558569Y-141992743D02*
X288208049Y-141992743D01*
X288258123Y-142021772D01*
X288291506Y-142050800D01*
X288308197Y-142079829D01*
X288558569Y-141760514D02*
X288558569Y-141702457D01*
X288541877Y-141673429D01*
X288525186Y-141658914D01*
X288475111Y-141629886D01*
X288408346Y-141615371D01*
X288274814Y-141615371D01*
X288241431Y-141629886D01*
X288224740Y-141644400D01*
X288208049Y-141673429D01*
X288208049Y-141731486D01*
X288224740Y-141760514D01*
X288241431Y-141775029D01*
X288274814Y-141789543D01*
X288358271Y-141789543D01*
X288391654Y-141775029D01*
X288408346Y-141760514D01*
X288425037Y-141731486D01*
X288425037Y-141673429D01*
X288408346Y-141644400D01*
X288391654Y-141629886D01*
X288358271Y-141615371D01*
X294604057Y-143275186D02*
X294589543Y-143291877D01*
X294546000Y-143308569D01*
X294516971Y-143308569D01*
X294473428Y-143291877D01*
X294444400Y-143258494D01*
X294429885Y-143225111D01*
X294415371Y-143158346D01*
X294415371Y-143108271D01*
X294429885Y-143041506D01*
X294444400Y-143008123D01*
X294473428Y-142974740D01*
X294516971Y-142958049D01*
X294546000Y-142958049D01*
X294589543Y-142974740D01*
X294604057Y-142991431D01*
X294894343Y-143308569D02*
X294720171Y-143308569D01*
X294807257Y-143308569D02*
X294807257Y-142958049D01*
X294778228Y-143008123D01*
X294749200Y-143041506D01*
X294720171Y-143058197D01*
X295155600Y-143074889D02*
X295155600Y-143308569D01*
X295083029Y-142941357D02*
X295010457Y-143191729D01*
X295199143Y-143191729D01*
X308408569Y-131320800D02*
X308241654Y-131422400D01*
X308408569Y-131494972D02*
X308058049Y-131494972D01*
X308058049Y-131378857D01*
X308074740Y-131349829D01*
X308091431Y-131335314D01*
X308124814Y-131320800D01*
X308174889Y-131320800D01*
X308208271Y-131335314D01*
X308224963Y-131349829D01*
X308241654Y-131378857D01*
X308241654Y-131494972D01*
X308058049Y-131045029D02*
X308058049Y-131190172D01*
X308224963Y-131204686D01*
X308208271Y-131190172D01*
X308191580Y-131161143D01*
X308191580Y-131088572D01*
X308208271Y-131059543D01*
X308224963Y-131045029D01*
X308258346Y-131030514D01*
X308341803Y-131030514D01*
X308375186Y-131045029D01*
X308391877Y-131059543D01*
X308408569Y-131088572D01*
X308408569Y-131161143D01*
X308391877Y-131190172D01*
X308375186Y-131204686D01*
X290304057Y-141125186D02*
X290289543Y-141141877D01*
X290246000Y-141158569D01*
X290216971Y-141158569D01*
X290173428Y-141141877D01*
X290144400Y-141108494D01*
X290129885Y-141075111D01*
X290115371Y-141008346D01*
X290115371Y-140958271D01*
X290129885Y-140891506D01*
X290144400Y-140858123D01*
X290173428Y-140824740D01*
X290216971Y-140808049D01*
X290246000Y-140808049D01*
X290289543Y-140824740D01*
X290304057Y-140841431D01*
X290420171Y-140841431D02*
X290434685Y-140824740D01*
X290463714Y-140808049D01*
X290536285Y-140808049D01*
X290565314Y-140824740D01*
X290579828Y-140841431D01*
X290594343Y-140874814D01*
X290594343Y-140908197D01*
X290579828Y-140958271D01*
X290405657Y-141158569D01*
X290594343Y-141158569D01*
X290783029Y-140808049D02*
X290812057Y-140808049D01*
X290841086Y-140824740D01*
X290855600Y-140841431D01*
X290870114Y-140874814D01*
X290884629Y-140941580D01*
X290884629Y-141025037D01*
X290870114Y-141091803D01*
X290855600Y-141125186D01*
X290841086Y-141141877D01*
X290812057Y-141158569D01*
X290783029Y-141158569D01*
X290754000Y-141141877D01*
X290739486Y-141125186D01*
X290724971Y-141091803D01*
X290710457Y-141025037D01*
X290710457Y-140941580D01*
X290724971Y-140874814D01*
X290739486Y-140841431D01*
X290754000Y-140824740D01*
X290783029Y-140808049D01*
X296954057Y-146325186D02*
X296939543Y-146341877D01*
X296896000Y-146358569D01*
X296866971Y-146358569D01*
X296823428Y-146341877D01*
X296794400Y-146308494D01*
X296779885Y-146275111D01*
X296765371Y-146208346D01*
X296765371Y-146158271D01*
X296779885Y-146091506D01*
X296794400Y-146058123D01*
X296823428Y-146024740D01*
X296866971Y-146008049D01*
X296896000Y-146008049D01*
X296939543Y-146024740D01*
X296954057Y-146041431D01*
X297244343Y-146358569D02*
X297070171Y-146358569D01*
X297157257Y-146358569D02*
X297157257Y-146008049D01*
X297128228Y-146058123D01*
X297099200Y-146091506D01*
X297070171Y-146108197D01*
X297418514Y-146158271D02*
X297389486Y-146141580D01*
X297374971Y-146124889D01*
X297360457Y-146091506D01*
X297360457Y-146074814D01*
X297374971Y-146041431D01*
X297389486Y-146024740D01*
X297418514Y-146008049D01*
X297476571Y-146008049D01*
X297505600Y-146024740D01*
X297520114Y-146041431D01*
X297534629Y-146074814D01*
X297534629Y-146091506D01*
X297520114Y-146124889D01*
X297505600Y-146141580D01*
X297476571Y-146158271D01*
X297418514Y-146158271D01*
X297389486Y-146174963D01*
X297374971Y-146191654D01*
X297360457Y-146225037D01*
X297360457Y-146291803D01*
X297374971Y-146325186D01*
X297389486Y-146341877D01*
X297418514Y-146358569D01*
X297476571Y-146358569D01*
X297505600Y-146341877D01*
X297520114Y-146325186D01*
X297534629Y-146291803D01*
X297534629Y-146225037D01*
X297520114Y-146191654D01*
X297505600Y-146174963D01*
X297476571Y-146158271D01*
X296954057Y-143575186D02*
X296939543Y-143591877D01*
X296896000Y-143608569D01*
X296866971Y-143608569D01*
X296823428Y-143591877D01*
X296794400Y-143558494D01*
X296779885Y-143525111D01*
X296765371Y-143458346D01*
X296765371Y-143408271D01*
X296779885Y-143341506D01*
X296794400Y-143308123D01*
X296823428Y-143274740D01*
X296866971Y-143258049D01*
X296896000Y-143258049D01*
X296939543Y-143274740D01*
X296954057Y-143291431D01*
X297244343Y-143608569D02*
X297070171Y-143608569D01*
X297157257Y-143608569D02*
X297157257Y-143258049D01*
X297128228Y-143308123D01*
X297099200Y-143341506D01*
X297070171Y-143358197D01*
X297505600Y-143258049D02*
X297447543Y-143258049D01*
X297418514Y-143274740D01*
X297404000Y-143291431D01*
X297374971Y-143341506D01*
X297360457Y-143408271D01*
X297360457Y-143541803D01*
X297374971Y-143575186D01*
X297389486Y-143591877D01*
X297418514Y-143608569D01*
X297476571Y-143608569D01*
X297505600Y-143591877D01*
X297520114Y-143575186D01*
X297534629Y-143541803D01*
X297534629Y-143458346D01*
X297520114Y-143424963D01*
X297505600Y-143408271D01*
X297476571Y-143391580D01*
X297418514Y-143391580D01*
X297389486Y-143408271D01*
X297374971Y-143424963D01*
X297360457Y-143458346D01*
X300925186Y-145700800D02*
X300941877Y-145715314D01*
X300958569Y-145758857D01*
X300958569Y-145787886D01*
X300941877Y-145831429D01*
X300908494Y-145860457D01*
X300875111Y-145874972D01*
X300808346Y-145889486D01*
X300758271Y-145889486D01*
X300691506Y-145874972D01*
X300658123Y-145860457D01*
X300624740Y-145831429D01*
X300608049Y-145787886D01*
X300608049Y-145758857D01*
X300624740Y-145715314D01*
X300641431Y-145700800D01*
X300958569Y-145555657D02*
X300958569Y-145497600D01*
X300941877Y-145468572D01*
X300925186Y-145454057D01*
X300875111Y-145425029D01*
X300808346Y-145410514D01*
X300674814Y-145410514D01*
X300641431Y-145425029D01*
X300624740Y-145439543D01*
X300608049Y-145468572D01*
X300608049Y-145526629D01*
X300624740Y-145555657D01*
X300641431Y-145570172D01*
X300674814Y-145584686D01*
X300758271Y-145584686D01*
X300791654Y-145570172D01*
X300808346Y-145555657D01*
X300825037Y-145526629D01*
X300825037Y-145468572D01*
X300808346Y-145439543D01*
X300791654Y-145425029D01*
X300758271Y-145410514D01*
X290625186Y-127595943D02*
X290641877Y-127610457D01*
X290658569Y-127654000D01*
X290658569Y-127683029D01*
X290641877Y-127726572D01*
X290608494Y-127755600D01*
X290575111Y-127770115D01*
X290508346Y-127784629D01*
X290458271Y-127784629D01*
X290391506Y-127770115D01*
X290358123Y-127755600D01*
X290324740Y-127726572D01*
X290308049Y-127683029D01*
X290308049Y-127654000D01*
X290324740Y-127610457D01*
X290341431Y-127595943D01*
X290658569Y-127305657D02*
X290658569Y-127479829D01*
X290658569Y-127392743D02*
X290308049Y-127392743D01*
X290358123Y-127421772D01*
X290391506Y-127450800D01*
X290408197Y-127479829D01*
X290308049Y-127204057D02*
X290308049Y-127000857D01*
X290658569Y-127131486D01*
X300925186Y-144400800D02*
X300941877Y-144415314D01*
X300958569Y-144458857D01*
X300958569Y-144487886D01*
X300941877Y-144531429D01*
X300908494Y-144560457D01*
X300875111Y-144574972D01*
X300808346Y-144589486D01*
X300758271Y-144589486D01*
X300691506Y-144574972D01*
X300658123Y-144560457D01*
X300624740Y-144531429D01*
X300608049Y-144487886D01*
X300608049Y-144458857D01*
X300624740Y-144415314D01*
X300641431Y-144400800D01*
X300758271Y-144226629D02*
X300741580Y-144255657D01*
X300724889Y-144270172D01*
X300691506Y-144284686D01*
X300674814Y-144284686D01*
X300641431Y-144270172D01*
X300624740Y-144255657D01*
X300608049Y-144226629D01*
X300608049Y-144168572D01*
X300624740Y-144139543D01*
X300641431Y-144125029D01*
X300674814Y-144110514D01*
X300691506Y-144110514D01*
X300724889Y-144125029D01*
X300741580Y-144139543D01*
X300758271Y-144168572D01*
X300758271Y-144226629D01*
X300774963Y-144255657D01*
X300791654Y-144270172D01*
X300825037Y-144284686D01*
X300891803Y-144284686D01*
X300925186Y-144270172D01*
X300941877Y-144255657D01*
X300958569Y-144226629D01*
X300958569Y-144168572D01*
X300941877Y-144139543D01*
X300925186Y-144125029D01*
X300891803Y-144110514D01*
X300825037Y-144110514D01*
X300791654Y-144125029D01*
X300774963Y-144139543D01*
X300758271Y-144168572D01*
X300334057Y-124325186D02*
X300319543Y-124341877D01*
X300276000Y-124358569D01*
X300246971Y-124358569D01*
X300203428Y-124341877D01*
X300174400Y-124308494D01*
X300159885Y-124275111D01*
X300145371Y-124208346D01*
X300145371Y-124158271D01*
X300159885Y-124091506D01*
X300174400Y-124058123D01*
X300203428Y-124024740D01*
X300246971Y-124008049D01*
X300276000Y-124008049D01*
X300319543Y-124024740D01*
X300334057Y-124041431D01*
X300624343Y-124358569D02*
X300450171Y-124358569D01*
X300537257Y-124358569D02*
X300537257Y-124008049D01*
X300508228Y-124058123D01*
X300479200Y-124091506D01*
X300450171Y-124108197D01*
X300914629Y-124358569D02*
X300740457Y-124358569D01*
X300827543Y-124358569D02*
X300827543Y-124008049D01*
X300798514Y-124058123D01*
X300769486Y-124091506D01*
X300740457Y-124108197D01*
X304949200Y-128175186D02*
X304934686Y-128191877D01*
X304891143Y-128208569D01*
X304862114Y-128208569D01*
X304818571Y-128191877D01*
X304789543Y-128158494D01*
X304775028Y-128125111D01*
X304760514Y-128058346D01*
X304760514Y-128008271D01*
X304775028Y-127941506D01*
X304789543Y-127908123D01*
X304818571Y-127874740D01*
X304862114Y-127858049D01*
X304891143Y-127858049D01*
X304934686Y-127874740D01*
X304949200Y-127891431D01*
X305050800Y-127858049D02*
X305254000Y-127858049D01*
X305123371Y-128208569D01*
X303749200Y-128175186D02*
X303734686Y-128191877D01*
X303691143Y-128208569D01*
X303662114Y-128208569D01*
X303618571Y-128191877D01*
X303589543Y-128158494D01*
X303575028Y-128125111D01*
X303560514Y-128058346D01*
X303560514Y-128008271D01*
X303575028Y-127941506D01*
X303589543Y-127908123D01*
X303618571Y-127874740D01*
X303662114Y-127858049D01*
X303691143Y-127858049D01*
X303734686Y-127874740D01*
X303749200Y-127891431D01*
X304010457Y-127858049D02*
X303952400Y-127858049D01*
X303923371Y-127874740D01*
X303908857Y-127891431D01*
X303879828Y-127941506D01*
X303865314Y-128008271D01*
X303865314Y-128141803D01*
X303879828Y-128175186D01*
X303894343Y-128191877D01*
X303923371Y-128208569D01*
X303981428Y-128208569D01*
X304010457Y-128191877D01*
X304024971Y-128175186D01*
X304039486Y-128141803D01*
X304039486Y-128058346D01*
X304024971Y-128024963D01*
X304010457Y-128008271D01*
X303981428Y-127991580D01*
X303923371Y-127991580D01*
X303894343Y-128008271D01*
X303879828Y-128024963D01*
X303865314Y-128058346D01*
D21*
X298631085Y-126981429D02*
X298609314Y-127005619D01*
X298544000Y-127029810D01*
X298500457Y-127029810D01*
X298435142Y-127005619D01*
X298391600Y-126957238D01*
X298369828Y-126908857D01*
X298348057Y-126812095D01*
X298348057Y-126739524D01*
X298369828Y-126642762D01*
X298391600Y-126594381D01*
X298435142Y-126546000D01*
X298500457Y-126521810D01*
X298544000Y-126521810D01*
X298609314Y-126546000D01*
X298631085Y-126570190D01*
X299066514Y-127029810D02*
X298805257Y-127029810D01*
X298935885Y-127029810D02*
X298935885Y-126521810D01*
X298892342Y-126594381D01*
X298848800Y-126642762D01*
X298805257Y-126666952D01*
X299349543Y-126521810D02*
X299393086Y-126521810D01*
X299436629Y-126546000D01*
X299458400Y-126570190D01*
X299480171Y-126618571D01*
X299501943Y-126715333D01*
X299501943Y-126836286D01*
X299480171Y-126933048D01*
X299458400Y-126981429D01*
X299436629Y-127005619D01*
X299393086Y-127029810D01*
X299349543Y-127029810D01*
X299306000Y-127005619D01*
X299284229Y-126981429D01*
X299262457Y-126933048D01*
X299240686Y-126836286D01*
X299240686Y-126715333D01*
X299262457Y-126618571D01*
X299284229Y-126570190D01*
X299306000Y-126546000D01*
X299349543Y-126521810D01*
X283198800Y-142154810D02*
X282981086Y-142154810D01*
X282981086Y-141646810D01*
X283590686Y-142154810D02*
X283329429Y-142154810D01*
X283460057Y-142154810D02*
X283460057Y-141646810D01*
X283416514Y-141719381D01*
X283372972Y-141767762D01*
X283329429Y-141791952D01*
X284573800Y-120754810D02*
X284356086Y-120754810D01*
X284356086Y-120246810D01*
X284704429Y-120295190D02*
X284726200Y-120271000D01*
X284769743Y-120246810D01*
X284878600Y-120246810D01*
X284922143Y-120271000D01*
X284943914Y-120295190D01*
X284965686Y-120343571D01*
X284965686Y-120391952D01*
X284943914Y-120464524D01*
X284682657Y-120754810D01*
X284965686Y-120754810D01*
D19*
X286875186Y-123420943D02*
X286891877Y-123435457D01*
X286908569Y-123479000D01*
X286908569Y-123508029D01*
X286891877Y-123551572D01*
X286858494Y-123580600D01*
X286825111Y-123595115D01*
X286758346Y-123609629D01*
X286708271Y-123609629D01*
X286641506Y-123595115D01*
X286608123Y-123580600D01*
X286574740Y-123551572D01*
X286558049Y-123508029D01*
X286558049Y-123479000D01*
X286574740Y-123435457D01*
X286591431Y-123420943D01*
X286908569Y-123130657D02*
X286908569Y-123304829D01*
X286908569Y-123217743D02*
X286558049Y-123217743D01*
X286608123Y-123246772D01*
X286641506Y-123275800D01*
X286658197Y-123304829D01*
X286558049Y-123029057D02*
X286558049Y-122840371D01*
X286691580Y-122941971D01*
X286691580Y-122898429D01*
X286708271Y-122869400D01*
X286724963Y-122854886D01*
X286758346Y-122840371D01*
X286841803Y-122840371D01*
X286875186Y-122854886D01*
X286891877Y-122869400D01*
X286908569Y-122898429D01*
X286908569Y-122985514D01*
X286891877Y-123014543D01*
X286875186Y-123029057D01*
X283375186Y-125225800D02*
X283391877Y-125240314D01*
X283408569Y-125283857D01*
X283408569Y-125312886D01*
X283391877Y-125356429D01*
X283358494Y-125385457D01*
X283325111Y-125399972D01*
X283258346Y-125414486D01*
X283208271Y-125414486D01*
X283141506Y-125399972D01*
X283108123Y-125385457D01*
X283074740Y-125356429D01*
X283058049Y-125312886D01*
X283058049Y-125283857D01*
X283074740Y-125240314D01*
X283091431Y-125225800D01*
X283058049Y-125124200D02*
X283058049Y-124935514D01*
X283191580Y-125037114D01*
X283191580Y-124993572D01*
X283208271Y-124964543D01*
X283224963Y-124950029D01*
X283258346Y-124935514D01*
X283341803Y-124935514D01*
X283375186Y-124950029D01*
X283391877Y-124964543D01*
X283408569Y-124993572D01*
X283408569Y-125080657D01*
X283391877Y-125109686D01*
X283375186Y-125124200D01*
X284949200Y-145675186D02*
X284934686Y-145691877D01*
X284891143Y-145708569D01*
X284862114Y-145708569D01*
X284818571Y-145691877D01*
X284789543Y-145658494D01*
X284775028Y-145625111D01*
X284760514Y-145558346D01*
X284760514Y-145508271D01*
X284775028Y-145441506D01*
X284789543Y-145408123D01*
X284818571Y-145374740D01*
X284862114Y-145358049D01*
X284891143Y-145358049D01*
X284934686Y-145374740D01*
X284949200Y-145391431D01*
X285065314Y-145391431D02*
X285079828Y-145374740D01*
X285108857Y-145358049D01*
X285181428Y-145358049D01*
X285210457Y-145374740D01*
X285224971Y-145391431D01*
X285239486Y-145424814D01*
X285239486Y-145458197D01*
X285224971Y-145508271D01*
X285050800Y-145708569D01*
X285239486Y-145708569D01*
X282200186Y-146775800D02*
X282216877Y-146790314D01*
X282233569Y-146833857D01*
X282233569Y-146862886D01*
X282216877Y-146906429D01*
X282183494Y-146935457D01*
X282150111Y-146949972D01*
X282083346Y-146964486D01*
X282033271Y-146964486D01*
X281966506Y-146949972D01*
X281933123Y-146935457D01*
X281899740Y-146906429D01*
X281883049Y-146862886D01*
X281883049Y-146833857D01*
X281899740Y-146790314D01*
X281916431Y-146775800D01*
X282233569Y-146485514D02*
X282233569Y-146659686D01*
X282233569Y-146572600D02*
X281883049Y-146572600D01*
X281933123Y-146601629D01*
X281966506Y-146630657D01*
X281983197Y-146659686D01*
X307644200Y-145375186D02*
X307629686Y-145391877D01*
X307586143Y-145408569D01*
X307557114Y-145408569D01*
X307513571Y-145391877D01*
X307484543Y-145358494D01*
X307470028Y-145325111D01*
X307455514Y-145258346D01*
X307455514Y-145208271D01*
X307470028Y-145141506D01*
X307484543Y-145108123D01*
X307513571Y-145074740D01*
X307557114Y-145058049D01*
X307586143Y-145058049D01*
X307629686Y-145074740D01*
X307644200Y-145091431D01*
X307905457Y-145174889D02*
X307905457Y-145408569D01*
X307832886Y-145041357D02*
X307760314Y-145291729D01*
X307949000Y-145291729D01*
X308744200Y-145408569D02*
X308642600Y-145241654D01*
X308570028Y-145408569D02*
X308570028Y-145058049D01*
X308686143Y-145058049D01*
X308715171Y-145074740D01*
X308729686Y-145091431D01*
X308744200Y-145124814D01*
X308744200Y-145174889D01*
X308729686Y-145208271D01*
X308715171Y-145224963D01*
X308686143Y-145241654D01*
X308570028Y-145241654D01*
X309005457Y-145058049D02*
X308947400Y-145058049D01*
X308918371Y-145074740D01*
X308903857Y-145091431D01*
X308874828Y-145141506D01*
X308860314Y-145208271D01*
X308860314Y-145341803D01*
X308874828Y-145375186D01*
X308889343Y-145391877D01*
X308918371Y-145408569D01*
X308976428Y-145408569D01*
X309005457Y-145391877D01*
X309019971Y-145375186D01*
X309034486Y-145341803D01*
X309034486Y-145258346D01*
X309019971Y-145224963D01*
X309005457Y-145208271D01*
X308976428Y-145191580D01*
X308918371Y-145191580D01*
X308889343Y-145208271D01*
X308874828Y-145224963D01*
X308860314Y-145258346D01*
X308308569Y-132820800D02*
X308141654Y-132922400D01*
X308308569Y-132994972D02*
X307958049Y-132994972D01*
X307958049Y-132878857D01*
X307974740Y-132849829D01*
X307991431Y-132835314D01*
X308024814Y-132820800D01*
X308074889Y-132820800D01*
X308108271Y-132835314D01*
X308124963Y-132849829D01*
X308141654Y-132878857D01*
X308141654Y-132994972D01*
X308074889Y-132559543D02*
X308308569Y-132559543D01*
X307941357Y-132632114D02*
X308191729Y-132704686D01*
X308191729Y-132516000D01*
X308308569Y-134320800D02*
X308141654Y-134422400D01*
X308308569Y-134494972D02*
X307958049Y-134494972D01*
X307958049Y-134378857D01*
X307974740Y-134349829D01*
X307991431Y-134335314D01*
X308024814Y-134320800D01*
X308074889Y-134320800D01*
X308108271Y-134335314D01*
X308124963Y-134349829D01*
X308141654Y-134378857D01*
X308141654Y-134494972D01*
X307958049Y-134219200D02*
X307958049Y-134030514D01*
X308091580Y-134132114D01*
X308091580Y-134088572D01*
X308108271Y-134059543D01*
X308124963Y-134045029D01*
X308158346Y-134030514D01*
X308241803Y-134030514D01*
X308275186Y-134045029D01*
X308291877Y-134059543D01*
X308308569Y-134088572D01*
X308308569Y-134175657D01*
X308291877Y-134204686D01*
X308275186Y-134219200D01*
X308208569Y-135820800D02*
X308041654Y-135922400D01*
X308208569Y-135994972D02*
X307858049Y-135994972D01*
X307858049Y-135878857D01*
X307874740Y-135849829D01*
X307891431Y-135835314D01*
X307924814Y-135820800D01*
X307974889Y-135820800D01*
X308008271Y-135835314D01*
X308024963Y-135849829D01*
X308041654Y-135878857D01*
X308041654Y-135994972D01*
X307891431Y-135704686D02*
X307874740Y-135690172D01*
X307858049Y-135661143D01*
X307858049Y-135588572D01*
X307874740Y-135559543D01*
X307891431Y-135545029D01*
X307924814Y-135530514D01*
X307958197Y-135530514D01*
X308008271Y-135545029D01*
X308208569Y-135719200D01*
X308208569Y-135530514D01*
X308258569Y-137520800D02*
X308091654Y-137622400D01*
X308258569Y-137694972D02*
X307908049Y-137694972D01*
X307908049Y-137578857D01*
X307924740Y-137549829D01*
X307941431Y-137535314D01*
X307974814Y-137520800D01*
X308024889Y-137520800D01*
X308058271Y-137535314D01*
X308074963Y-137549829D01*
X308091654Y-137578857D01*
X308091654Y-137694972D01*
X308258569Y-137230514D02*
X308258569Y-137404686D01*
X308258569Y-137317600D02*
X307908049Y-137317600D01*
X307958123Y-137346629D01*
X307991506Y-137375657D01*
X308008197Y-137404686D01*
D11*
X282801190Y-144905952D02*
X283205952Y-144905952D01*
X283253571Y-144882143D01*
X283277381Y-144858333D01*
X283301190Y-144810714D01*
X283301190Y-144715476D01*
X283277381Y-144667857D01*
X283253571Y-144644048D01*
X283205952Y-144620238D01*
X282801190Y-144620238D01*
X283301190Y-144120238D02*
X283301190Y-144405952D01*
X283301190Y-144263095D02*
X282801190Y-144263095D01*
X282872619Y-144310714D01*
X282920238Y-144358333D01*
X282944048Y-144405952D01*
X313080953Y-141626190D02*
X313080953Y-141126190D01*
X313271429Y-141126190D01*
X313319048Y-141150000D01*
X313342857Y-141173810D01*
X313366667Y-141221429D01*
X313366667Y-141292857D01*
X313342857Y-141340476D01*
X313319048Y-141364286D01*
X313271429Y-141388095D01*
X313080953Y-141388095D01*
X313557143Y-141173810D02*
X313580953Y-141150000D01*
X313628572Y-141126190D01*
X313747619Y-141126190D01*
X313795238Y-141150000D01*
X313819048Y-141173810D01*
X313842857Y-141221429D01*
X313842857Y-141269048D01*
X313819048Y-141340476D01*
X313533334Y-141626190D01*
X313842857Y-141626190D01*
X311721429Y-142642857D02*
X311121429Y-142642857D01*
X311121429Y-142414285D01*
X311150000Y-142357143D01*
X311178571Y-142328571D01*
X311235714Y-142300000D01*
X311321429Y-142300000D01*
X311378571Y-142328571D01*
X311407143Y-142357143D01*
X311435714Y-142414285D01*
X311435714Y-142642857D01*
X311378571Y-141957143D02*
X311350000Y-142014285D01*
X311321429Y-142042857D01*
X311264286Y-142071428D01*
X311235714Y-142071428D01*
X311178571Y-142042857D01*
X311150000Y-142014285D01*
X311121429Y-141957143D01*
X311121429Y-141842857D01*
X311150000Y-141785714D01*
X311178571Y-141757143D01*
X311235714Y-141728571D01*
X311264286Y-141728571D01*
X311321429Y-141757143D01*
X311350000Y-141785714D01*
X311378571Y-141842857D01*
X311378571Y-141957143D01*
X311407143Y-142014285D01*
X311435714Y-142042857D01*
X311492857Y-142071428D01*
X311607143Y-142071428D01*
X311664286Y-142042857D01*
X311692857Y-142014285D01*
X311721429Y-141957143D01*
X311721429Y-141842857D01*
X311692857Y-141785714D01*
X311664286Y-141757143D01*
X311607143Y-141728571D01*
X311492857Y-141728571D01*
X311435714Y-141757143D01*
X311407143Y-141785714D01*
X311378571Y-141842857D01*
D22*
X307266667Y-140776190D02*
X307100000Y-140538095D01*
X306980953Y-140776190D02*
X306980953Y-140276190D01*
X307171429Y-140276190D01*
X307219048Y-140300000D01*
X307242857Y-140323810D01*
X307266667Y-140371429D01*
X307266667Y-140442857D01*
X307242857Y-140490476D01*
X307219048Y-140514286D01*
X307171429Y-140538095D01*
X306980953Y-140538095D01*
X307433334Y-140276190D02*
X307766667Y-140276190D01*
X307552381Y-140776190D01*
M02*
