G04 #@! TF.FileFunction,Soldermask,Top*
%FSLAX46Y46*%
G04 Gerber Fmt 4.6, Leading zero omitted, Abs format (unit mm)*
G04 Created by KiCad (PCBNEW 4.0.6) date 09/14/17 18:23:13*
%MOMM*%
%LPD*%
G01*
G04 APERTURE LIST*
%ADD10C,0.150000*%
%ADD11R,0.428780X0.629440*%
%ADD12R,0.629440X0.428780*%
%ADD13R,0.665000X1.173000*%
%ADD14R,0.430000X0.680000*%
%ADD15R,1.554000X1.554000*%
%ADD16C,1.554000*%
%ADD17R,0.830000X0.830000*%
%ADD18R,0.230000X0.530000*%
%ADD19R,0.230000X0.580000*%
%ADD20R,0.530000X0.230000*%
%ADD21R,0.580000X0.230000*%
%ADD22R,0.730000X0.330000*%
%ADD23R,0.630000X0.630000*%
%ADD24R,1.730000X1.730000*%
%ADD25R,1.173000X0.665000*%
%ADD26R,1.530000X0.330000*%
%ADD27R,0.330000X1.530000*%
%ADD28R,0.930000X0.830000*%
%ADD29R,0.830000X1.630000*%
%ADD30O,1.730000X1.730000*%
%ADD31R,0.230000X0.830000*%
%ADD32R,0.830000X0.230000*%
%ADD33R,1.142500X1.142500*%
%ADD34R,0.630000X1.130000*%
%ADD35R,0.270000X0.730000*%
%ADD36R,1.530000X0.930000*%
%ADD37R,0.680000X0.430000*%
%ADD38R,0.730000X0.280000*%
%ADD39R,0.630000X0.280000*%
%ADD40R,0.930000X0.530000*%
G04 APERTURE END LIST*
D10*
D11*
X274207080Y-141962500D03*
X273307920Y-141962500D03*
D12*
X271957500Y-144562080D03*
X271957500Y-143662920D03*
D13*
X272595500Y-146612500D03*
X274119500Y-146612500D03*
D14*
X274207500Y-143062500D03*
X272907500Y-143062500D03*
X273557500Y-144962500D03*
X273557500Y-143062500D03*
X272907500Y-144962500D03*
X274207500Y-144962500D03*
X274207500Y-143062500D03*
X272907500Y-143062500D03*
X273557500Y-144962500D03*
X273557500Y-143062500D03*
X272907500Y-144962500D03*
X274207500Y-144962500D03*
D13*
X272595500Y-146612500D03*
X274119500Y-146612500D03*
D12*
X271957500Y-144562080D03*
X271957500Y-143662920D03*
D11*
X274207080Y-141962500D03*
X273307920Y-141962500D03*
X284700420Y-146980000D03*
X285599580Y-146980000D03*
D12*
X286880000Y-146399580D03*
X286880000Y-145500420D03*
X285690000Y-145949580D03*
X285690000Y-145050420D03*
D11*
X273649580Y-140200000D03*
X272750420Y-140200000D03*
D15*
X267535000Y-136150000D03*
D16*
X267535000Y-133610000D03*
D11*
X268289580Y-140550000D03*
X267390420Y-140550000D03*
X270050420Y-140210000D03*
X270949580Y-140210000D03*
X268189580Y-143290000D03*
X267290420Y-143290000D03*
X269150420Y-141180000D03*
X270049580Y-141180000D03*
D12*
X277980000Y-141009580D03*
X277980000Y-140110420D03*
D11*
X279799580Y-145890000D03*
X278900420Y-145890000D03*
D12*
X277460000Y-143850420D03*
X277460000Y-144749580D03*
X280720000Y-146019580D03*
X280720000Y-145120420D03*
X276430000Y-144749580D03*
X276430000Y-143850420D03*
D17*
X281080000Y-143700000D03*
X281080000Y-142100000D03*
X277885000Y-146005000D03*
X276285000Y-146005000D03*
X280935000Y-126555000D03*
X279335000Y-126555000D03*
D12*
X283885000Y-141180420D03*
X283885000Y-142079580D03*
X282935000Y-142079580D03*
X282935000Y-141180420D03*
X274070000Y-139049580D03*
X274070000Y-138150420D03*
D18*
X282140000Y-130350000D03*
D19*
X282540000Y-130350000D03*
X282940000Y-130350000D03*
X283340000Y-130350000D03*
X283740000Y-130350000D03*
D18*
X284140000Y-130350000D03*
D20*
X284640000Y-129850000D03*
D21*
X284640000Y-129450000D03*
X284640000Y-129050000D03*
X284640000Y-128650000D03*
X284640000Y-128250000D03*
D20*
X284640000Y-127850000D03*
D18*
X284140000Y-127350000D03*
D19*
X283740000Y-127350000D03*
X283340000Y-127350000D03*
X282940000Y-127350000D03*
X282540000Y-127350000D03*
D18*
X282140000Y-127350000D03*
D20*
X281640000Y-127850000D03*
D21*
X281640000Y-128250000D03*
X281640000Y-128650000D03*
X281640000Y-129050000D03*
X281640000Y-129450000D03*
D20*
X281640000Y-129850000D03*
D11*
X283199580Y-132210000D03*
X282300420Y-132210000D03*
X283719580Y-131270000D03*
X282820420Y-131270000D03*
X285650420Y-127360000D03*
X286549580Y-127360000D03*
D12*
X285780000Y-128730420D03*
X285780000Y-129629580D03*
D22*
X278326500Y-128500000D03*
D23*
X278000000Y-129112500D03*
X278000000Y-127887500D03*
D22*
X277637500Y-128500000D03*
D11*
X275729580Y-128620000D03*
X274830420Y-128620000D03*
X273150420Y-129450000D03*
X274049580Y-129450000D03*
X302250420Y-134930000D03*
X303149580Y-134930000D03*
X302250420Y-137770000D03*
X303149580Y-137770000D03*
X302240420Y-136300000D03*
X303139580Y-136300000D03*
X302250420Y-133375000D03*
X303149580Y-133375000D03*
D24*
X306600000Y-128300000D03*
D25*
X289100000Y-128512000D03*
X289100000Y-126988000D03*
D15*
X302760000Y-127060000D03*
D16*
X300220000Y-127060000D03*
D12*
X297075000Y-128375420D03*
X297075000Y-129274580D03*
D26*
X297700000Y-140650000D03*
X297700000Y-140150000D03*
X297700000Y-139650000D03*
X297700000Y-139150000D03*
X297700000Y-138650000D03*
X297700000Y-138150000D03*
X297700000Y-137650000D03*
X297700000Y-137150000D03*
X297700000Y-136650000D03*
X297700000Y-136150000D03*
X297700000Y-135650000D03*
X297700000Y-135150000D03*
X297700000Y-134650000D03*
X297700000Y-134150000D03*
X297700000Y-133650000D03*
X297700000Y-133150000D03*
D27*
X295750000Y-131200000D03*
X295250000Y-131200000D03*
X294750000Y-131200000D03*
X294250000Y-131200000D03*
X293750000Y-131200000D03*
X293250000Y-131200000D03*
X292750000Y-131200000D03*
X292250000Y-131200000D03*
X291750000Y-131200000D03*
X291250000Y-131200000D03*
X290750000Y-131200000D03*
X290250000Y-131200000D03*
X289750000Y-131200000D03*
X289250000Y-131200000D03*
X288750000Y-131200000D03*
X288250000Y-131200000D03*
D26*
X286300000Y-133150000D03*
X286300000Y-133650000D03*
X286300000Y-134150000D03*
X286300000Y-134650000D03*
X286300000Y-135150000D03*
X286300000Y-135650000D03*
X286300000Y-136150000D03*
X286300000Y-136650000D03*
X286300000Y-137150000D03*
X286300000Y-137650000D03*
X286300000Y-138150000D03*
X286300000Y-138650000D03*
X286300000Y-139150000D03*
X286300000Y-139650000D03*
X286300000Y-140150000D03*
X286300000Y-140650000D03*
D27*
X288250000Y-142600000D03*
X288750000Y-142600000D03*
X289250000Y-142600000D03*
X289750000Y-142600000D03*
X290250000Y-142600000D03*
X290750000Y-142600000D03*
X291250000Y-142600000D03*
X291750000Y-142600000D03*
X292250000Y-142600000D03*
X292750000Y-142600000D03*
X293250000Y-142600000D03*
X293750000Y-142600000D03*
X294250000Y-142600000D03*
X294750000Y-142600000D03*
X295250000Y-142600000D03*
X295750000Y-142600000D03*
D11*
X288100420Y-144950000D03*
X288999580Y-144950000D03*
X288100420Y-146000000D03*
X288999580Y-146000000D03*
D12*
X290800000Y-127849580D03*
X290800000Y-126950420D03*
X296025000Y-128375420D03*
X296025000Y-129274580D03*
D11*
X284950420Y-142675000D03*
X285849580Y-142675000D03*
X301025420Y-131875000D03*
X301924580Y-131875000D03*
X285849580Y-143750000D03*
X284950420Y-143750000D03*
X291500420Y-145850000D03*
X292399580Y-145850000D03*
X291500420Y-144725000D03*
X292399580Y-144725000D03*
X294749580Y-145900000D03*
X293850420Y-145900000D03*
D12*
X286975000Y-129775420D03*
X286975000Y-130674580D03*
D11*
X294749580Y-144725000D03*
X293850420Y-144725000D03*
D12*
X293775000Y-126950420D03*
X293775000Y-127849580D03*
X300200000Y-130300420D03*
X300200000Y-131199580D03*
X298975000Y-130300420D03*
X298975000Y-131199580D03*
D25*
X292275000Y-126963000D03*
X292275000Y-128487000D03*
D12*
X275435000Y-143380420D03*
X275435000Y-144279580D03*
X300075000Y-144549580D03*
X300075000Y-143650420D03*
X301175000Y-144549580D03*
X301175000Y-143650420D03*
D11*
X300200420Y-133000000D03*
X301099580Y-133000000D03*
X300175420Y-134250000D03*
X301074580Y-134250000D03*
X300200420Y-135690000D03*
X301099580Y-135690000D03*
X300200420Y-136910000D03*
X301099580Y-136910000D03*
D17*
X284390000Y-132270000D03*
X285990000Y-132270000D03*
D15*
X269880000Y-145900000D03*
D16*
X267340000Y-145900000D03*
D13*
X272932000Y-138620000D03*
X271408000Y-138620000D03*
D28*
X270800000Y-133500000D03*
X272200000Y-133500000D03*
X270800000Y-134600000D03*
X272200000Y-134600000D03*
D12*
X275450000Y-140100420D03*
X275450000Y-140999580D03*
X269800000Y-133750420D03*
X269800000Y-134649580D03*
X273200000Y-134549580D03*
X273200000Y-133650420D03*
D11*
X276899580Y-129450000D03*
X276000420Y-129450000D03*
D12*
X276850000Y-140100420D03*
X276850000Y-140999580D03*
D29*
X270745000Y-127673000D03*
X267345000Y-127673000D03*
D11*
X272849580Y-127700000D03*
X271950420Y-127700000D03*
D12*
X274000000Y-127650420D03*
X274000000Y-128549580D03*
D11*
X276049580Y-127700000D03*
X275150420Y-127700000D03*
X271730420Y-137270000D03*
X272629580Y-137270000D03*
D13*
X273262000Y-136000000D03*
X271738000Y-136000000D03*
X281058000Y-138300000D03*
X282582000Y-138300000D03*
D24*
X306340000Y-143650000D03*
X305880000Y-132540000D03*
D30*
X308420000Y-132540000D03*
X305880000Y-135080000D03*
X308420000Y-135080000D03*
X305880000Y-137620000D03*
X308420000Y-137620000D03*
X305880000Y-140160000D03*
X308420000Y-140160000D03*
D31*
X275600000Y-137000000D03*
X276000000Y-137000000D03*
X276400000Y-137000000D03*
X276800000Y-137000000D03*
X277200000Y-137000000D03*
X277600000Y-137000000D03*
X278000000Y-137000000D03*
X278400000Y-137000000D03*
X278800000Y-137000000D03*
X279200000Y-137000000D03*
X279600000Y-137000000D03*
X280000000Y-137000000D03*
D32*
X280800000Y-136200000D03*
X280800000Y-135800000D03*
X280800000Y-135400000D03*
X280800000Y-135000000D03*
X280800000Y-134600000D03*
X280800000Y-134200000D03*
X280800000Y-133800000D03*
X280800000Y-133400000D03*
X280800000Y-133000000D03*
X280800000Y-132600000D03*
X280800000Y-132200000D03*
X280800000Y-131800000D03*
D31*
X280000000Y-131000000D03*
X279600000Y-131000000D03*
X279200000Y-131000000D03*
X278800000Y-131000000D03*
X278400000Y-131000000D03*
X278000000Y-131000000D03*
X277600000Y-131000000D03*
X277200000Y-131000000D03*
X276800000Y-131000000D03*
X276400000Y-131000000D03*
X276000000Y-131000000D03*
X275600000Y-131000000D03*
D32*
X274800000Y-131800000D03*
X274800000Y-132200000D03*
X274800000Y-132600000D03*
X274800000Y-133000000D03*
X274800000Y-133400000D03*
X274800000Y-133800000D03*
X274800000Y-134200000D03*
X274800000Y-134600000D03*
X274800000Y-135000000D03*
X274800000Y-135400000D03*
X274800000Y-135800000D03*
X274800000Y-136200000D03*
D33*
X279468750Y-132331250D03*
X278356250Y-132331250D03*
X277243750Y-132331250D03*
X276131250Y-132331250D03*
X279468750Y-133443750D03*
X278356250Y-133443750D03*
X277243750Y-133443750D03*
X276131250Y-133443750D03*
X279468750Y-134556250D03*
X278356250Y-134556250D03*
X277243750Y-134556250D03*
X276131250Y-134556250D03*
X279468750Y-135668750D03*
X278356250Y-135668750D03*
X277243750Y-135668750D03*
X276131250Y-135668750D03*
D34*
X276850000Y-138850000D03*
X275450000Y-138850000D03*
D35*
X278370000Y-144290000D03*
X278770000Y-144290000D03*
X279170000Y-144290000D03*
X279570000Y-144290000D03*
X279970000Y-144290000D03*
X279970000Y-142190000D03*
X279570000Y-142190000D03*
X279170000Y-142190000D03*
X278770000Y-142190000D03*
X278370000Y-142190000D03*
D36*
X279170000Y-143240000D03*
D37*
X284630000Y-146140000D03*
X284630000Y-144840000D03*
X284630000Y-145490000D03*
X282730000Y-144840000D03*
X282730000Y-146140000D03*
D38*
X268280000Y-142440000D03*
D39*
X268280000Y-141940000D03*
X268280000Y-141440000D03*
X267280000Y-141440000D03*
X267280000Y-141940000D03*
X267280000Y-142440000D03*
D40*
X270100000Y-142055000D03*
X270100000Y-143555000D03*
M02*
