M48
;DRILL file {KiCad 4.0.6} date 09/14/17 18:40:35
;FORMAT={-:-/ absolute / inch / decimal}
FMAT,2
INCH,TZ
T1C0.013
T2C0.039
T3C0.040
%
G90
G05
M72
T1
X10.5248Y-5.4768
X10.5854Y-5.6697
X10.7539Y-5.124
X10.7542Y-5.6658
X10.8102Y-5.0965
X10.8126Y-5.3941
X10.826Y-5.7079
X10.8315Y-5.1567
X10.836Y-5.7335
X10.8984Y-5.0559
X10.8996Y-5.5768
X10.9886Y-5.0602
X10.9909Y-5.6394
X10.9969Y-5.5248
X11.0303Y-5.0134
X11.035Y-5.1201
X11.0504Y-5.5445
X11.0571Y-5.1024
X11.0988Y-5.7384
X11.1114Y-5.1681
X11.139Y-5.4839
X11.1939Y-5.6604
X11.2008Y-5.1724
X11.2098Y-5.0102
X11.2579Y-5.5768
X11.3287Y-5.4646
X11.4067Y-5.7319
X11.5236Y-5.2795
X11.5394Y-5.6949
T2
X12.0425Y-5.2181
X12.0425Y-5.3181
X12.0425Y-5.4181
X12.0425Y-5.5181
X12.0606Y-5.6555
X12.0709Y-5.0512
X12.1425Y-5.2181
X12.1425Y-5.3181
X12.1425Y-5.4181
X12.1425Y-5.5181
T3
X10.5252Y-5.7441
X10.5329Y-5.2602
X10.5329Y-5.3602
X10.6252Y-5.7441
X11.8197Y-5.0024
X11.9197Y-5.0024
T0
M30
